<svg width="418" height="114" viewBox="0 0 418 114" fill="none" xmlns="http://www.w3.org/2000/svg">
<rect x="0.199951" width="417.2" height="102" rx="6" fill="#768395" fill-opacity="0.1"/>
<path d="M14.5117 26H12.543L16.1275 15.8182H18.4045L21.994 26H20.0252L17.3058 17.9062H17.2262L14.5117 26ZM14.5764 22.0078H19.9457V23.4893H14.5764V22.0078ZM25.1795 15.8182V26H23.3351V15.8182H25.1795ZM30.6495 26V15.8182H34.4677C35.2499 15.8182 35.9062 15.964 36.4365 16.2557C36.9701 16.5473 37.3728 16.9484 37.6446 17.4588C37.9196 17.9659 38.0572 18.5426 38.0572 19.1889C38.0572 19.8419 37.9196 20.4219 37.6446 20.929C37.3695 21.4361 36.9634 21.8355 36.4265 22.1271C35.8896 22.4155 35.2284 22.5597 34.4428 22.5597H31.9123V21.0433H34.1943C34.6517 21.0433 35.0262 20.9638 35.3178 20.8047C35.6095 20.6456 35.825 20.4268 35.9642 20.1484C36.1067 19.87 36.1779 19.5502 36.1779 19.1889C36.1779 18.8277 36.1067 18.5095 35.9642 18.2344C35.825 17.9593 35.6079 17.7455 35.3129 17.593C35.0212 17.4373 34.645 17.3594 34.1843 17.3594H32.494V26H30.6495ZM42.8013 26.1491C42.0556 26.1491 41.4093 25.9851 40.8624 25.657C40.3155 25.3288 39.8913 24.8698 39.5897 24.2798C39.2914 23.6899 39.1422 23.0005 39.1422 22.2116C39.1422 21.4228 39.2914 20.7318 39.5897 20.1385C39.8913 19.5452 40.3155 19.0845 40.8624 18.7564C41.4093 18.4283 42.0556 18.2642 42.8013 18.2642C43.5471 18.2642 44.1934 18.4283 44.7403 18.7564C45.2871 19.0845 45.7097 19.5452 46.008 20.1385C46.3096 20.7318 46.4604 21.4228 46.4604 22.2116C46.4604 23.0005 46.3096 23.6899 46.008 24.2798C45.7097 24.8698 45.2871 25.3288 44.7403 25.657C44.1934 25.9851 43.5471 26.1491 42.8013 26.1491ZM42.8113 24.7074C43.2156 24.7074 43.5537 24.5964 43.8255 24.3743C44.0973 24.1489 44.2994 23.8473 44.432 23.4695C44.5679 23.0916 44.6359 22.6707 44.6359 22.2067C44.6359 21.7393 44.5679 21.3168 44.432 20.9389C44.2994 20.5578 44.0973 20.2545 43.8255 20.0291C43.5537 19.8037 43.2156 19.6911 42.8113 19.6911C42.397 19.6911 42.0523 19.8037 41.7772 20.0291C41.5054 20.2545 41.3016 20.5578 41.1657 20.9389C41.0331 21.3168 40.9668 21.7393 40.9668 22.2067C40.9668 22.6707 41.0331 23.0916 41.1657 23.4695C41.3016 23.8473 41.5054 24.1489 41.7772 24.3743C42.0523 24.5964 42.397 24.7074 42.8113 24.7074ZM49.7877 21.5256V26H47.9879V18.3636H49.7081V19.6612H49.7976C49.9733 19.2337 50.2533 18.8939 50.6378 18.642C51.0256 18.3902 51.5045 18.2642 52.0746 18.2642C52.6016 18.2642 53.0606 18.3769 53.4517 18.6023C53.8461 18.8277 54.1511 19.1541 54.3665 19.5817C54.5852 20.0092 54.693 20.5279 54.6897 21.1378V26H52.8899V21.4162C52.8899 20.9058 52.7574 20.5064 52.4922 20.218C52.2304 19.9297 51.8674 19.7855 51.4034 19.7855C51.0886 19.7855 50.8085 19.8551 50.5632 19.9943C50.3213 20.1302 50.1307 20.3274 49.9915 20.5859C49.8556 20.8445 49.7877 21.1577 49.7877 21.5256ZM59.8402 29.0227C59.1939 29.0227 58.6388 28.9349 58.1747 28.7592C57.7107 28.5869 57.3379 28.3549 57.0561 28.0632C56.7744 27.7715 56.5789 27.4484 56.4695 27.0938L58.0902 26.701C58.1631 26.8501 58.2692 26.9976 58.4084 27.1435C58.5476 27.2926 58.7349 27.4152 58.9702 27.5114C59.2088 27.6108 59.5088 27.6605 59.8701 27.6605C60.3805 27.6605 60.8031 27.5362 61.1378 27.2876C61.4726 27.0424 61.6399 26.638 61.6399 26.0746V24.6278H61.5504C61.4576 24.8134 61.3218 25.004 61.1428 25.1996C60.9671 25.3951 60.7335 25.5592 60.4418 25.6918C60.1534 25.8243 59.7905 25.8906 59.353 25.8906C58.7664 25.8906 58.2344 25.7531 57.7571 25.478C57.2832 25.1996 56.9053 24.7853 56.6236 24.2351C56.3452 23.6816 56.206 22.9889 56.206 22.157C56.206 21.3184 56.3452 20.6108 56.6236 20.0341C56.9053 19.4541 57.2848 19.0149 57.7621 18.7166C58.2394 18.415 58.7713 18.2642 59.358 18.2642C59.8054 18.2642 60.1733 18.3404 60.4617 18.4929C60.7533 18.642 60.9853 18.8227 61.1577 19.0348C61.33 19.2436 61.461 19.4408 61.5504 19.6264H61.6499V18.3636H63.4247V26.1243C63.4247 26.7772 63.269 27.3175 62.9574 27.745C62.6459 28.1726 62.22 28.4924 61.6797 28.7045C61.1395 28.9167 60.5263 29.0227 59.8402 29.0227ZM59.8551 24.4787C60.2363 24.4787 60.5611 24.3859 60.8296 24.2003C61.098 24.0147 61.3019 23.7479 61.4411 23.3999C61.5803 23.0518 61.6499 22.6342 61.6499 22.147C61.6499 21.6664 61.5803 21.2455 61.4411 20.8842C61.3052 20.523 61.103 20.2429 60.8345 20.044C60.5694 19.8419 60.2429 19.7408 59.8551 19.7408C59.4541 19.7408 59.1193 19.8452 58.8509 20.054C58.5824 20.2628 58.3802 20.5495 58.2443 20.9141C58.1085 21.2753 58.0405 21.6863 58.0405 22.147C58.0405 22.6143 58.1085 23.0237 58.2443 23.375C58.3835 23.723 58.5874 23.9948 58.8558 24.1903C59.1276 24.3826 59.4607 24.4787 59.8551 24.4787Z" fill="#4493F8"/>
<path d="M12.7795 45.2102V44.2727H19.325V45.2102H16.5806V53H15.5238V45.2102H12.7795ZM20.1399 53V46.4545H21.1115V47.4432H21.1797C21.299 47.1193 21.5149 46.8565 21.8274 46.6548C22.1399 46.4531 22.4922 46.3523 22.8843 46.3523C22.9581 46.3523 23.0504 46.3537 23.1612 46.3565C23.272 46.3594 23.3558 46.3636 23.4127 46.3693V47.392C23.3786 47.3835 23.3004 47.3707 23.1783 47.3537C23.059 47.3338 22.9326 47.3239 22.799 47.3239C22.4808 47.3239 22.1968 47.3906 21.9468 47.5241C21.6996 47.6548 21.5036 47.8366 21.3587 48.0696C21.2166 48.2997 21.1456 48.5625 21.1456 48.858V53H20.1399ZM26.5309 53.1534C26.1161 53.1534 25.7397 53.0753 25.4017 52.919C25.0636 52.7599 24.7951 52.5312 24.5963 52.233C24.3974 51.9318 24.298 51.5682 24.298 51.142C24.298 50.767 24.3718 50.4631 24.5196 50.2301C24.6673 49.9943 24.8647 49.8097 25.1119 49.6761C25.359 49.5426 25.6318 49.4432 25.9301 49.3778C26.2312 49.3097 26.5338 49.2557 26.8377 49.2159C27.2355 49.1648 27.5579 49.1264 27.8051 49.1009C28.0551 49.0724 28.2369 49.0256 28.3505 48.9602C28.467 48.8949 28.5252 48.7812 28.5252 48.6193V48.5852C28.5252 48.1648 28.4102 47.8381 28.1801 47.6051C27.9528 47.3722 27.6076 47.2557 27.1446 47.2557C26.6644 47.2557 26.288 47.3608 26.0153 47.571C25.7426 47.7812 25.5508 48.0057 25.44 48.2443L24.4855 47.9034C24.6559 47.5057 24.8832 47.196 25.1673 46.9744C25.4542 46.75 25.7667 46.5937 26.1048 46.5057C26.4457 46.4148 26.7809 46.3693 27.1105 46.3693C27.3207 46.3693 27.5622 46.3949 27.8349 46.446C28.1105 46.4943 28.3761 46.5952 28.6318 46.7486C28.8903 46.902 29.1048 47.1335 29.2752 47.4432C29.4457 47.7528 29.5309 48.1676 29.5309 48.6875V53H28.5252V52.1136H28.4741C28.4059 52.2557 28.2923 52.4077 28.1332 52.5696C27.9741 52.7315 27.7625 52.8693 27.4982 52.983C27.234 53.0966 26.9116 53.1534 26.5309 53.1534ZM26.6843 52.25C27.0821 52.25 27.4173 52.1719 27.69 52.0156C27.9656 51.8594 28.173 51.6577 28.3122 51.4105C28.4542 51.1634 28.5252 50.9034 28.5252 50.6307V49.7102C28.4826 49.7614 28.3889 49.8082 28.244 49.8509C28.1019 49.8906 27.9372 49.9261 27.7497 49.9574C27.565 49.9858 27.3846 50.0114 27.2085 50.0341C27.0352 50.054 26.8946 50.071 26.7866 50.0852C26.5252 50.1193 26.2809 50.1747 26.0536 50.2514C25.8292 50.3253 25.6474 50.4375 25.5082 50.5881C25.3718 50.7358 25.3036 50.9375 25.3036 51.1932C25.3036 51.5426 25.4329 51.8068 25.6914 51.9858C25.9528 52.1619 26.2838 52.25 26.6843 52.25ZM31.3665 53V46.4545H32.3722V53H31.3665ZM31.8779 45.3636C31.6818 45.3636 31.5128 45.2969 31.3708 45.1634C31.2316 45.0298 31.162 44.8693 31.162 44.6818C31.162 44.4943 31.2316 44.3338 31.3708 44.2003C31.5128 44.0668 31.6818 44 31.8779 44C32.0739 44 32.2415 44.0668 32.3807 44.2003C32.5227 44.3338 32.5938 44.4943 32.5938 44.6818C32.5938 44.8693 32.5227 45.0298 32.3807 45.1634C32.2415 45.2969 32.0739 45.3636 31.8779 45.3636ZM35.2198 49.0625V53H34.2142V46.4545H35.1857V47.4773H35.271C35.4244 47.1449 35.6573 46.8778 35.9698 46.6761C36.2823 46.4716 36.6857 46.3693 37.1801 46.3693C37.6232 46.3693 38.011 46.4602 38.3434 46.642C38.6758 46.821 38.9343 47.0938 39.119 47.4602C39.3036 47.8239 39.396 48.2841 39.396 48.8409V53H38.3903V48.9091C38.3903 48.3949 38.2568 47.9943 37.9897 47.7074C37.7227 47.4176 37.3562 47.2727 36.8903 47.2727C36.5693 47.2727 36.2823 47.3423 36.0295 47.4815C35.7795 47.6207 35.5821 47.8239 35.4372 48.0909C35.2923 48.358 35.2198 48.6818 35.2198 49.0625ZM41.2337 53V46.4545H42.2394V53H41.2337ZM41.7451 45.3636C41.549 45.3636 41.38 45.2969 41.2379 45.1634C41.0987 45.0298 41.0291 44.8693 41.0291 44.6818C41.0291 44.4943 41.0987 44.3338 41.2379 44.2003C41.38 44.0668 41.549 44 41.7451 44C41.9411 44 42.1087 44.0668 42.2479 44.2003C42.3899 44.3338 42.461 44.4943 42.461 44.6818C42.461 44.8693 42.3899 45.0298 42.2479 45.1634C42.1087 45.2969 41.9411 45.3636 41.7451 45.3636ZM45.087 49.0625V53H44.0813V46.4545H45.0529V47.4773H45.1382C45.2916 47.1449 45.5245 46.8778 45.837 46.6761C46.1495 46.4716 46.5529 46.3693 47.0473 46.3693C47.4904 46.3693 47.8782 46.4602 48.2106 46.642C48.543 46.821 48.8015 47.0938 48.9862 47.4602C49.1708 47.8239 49.2632 48.2841 49.2632 48.8409V53H48.2575V48.9091C48.2575 48.3949 48.124 47.9943 47.8569 47.7074C47.5899 47.4176 47.2234 47.2727 46.7575 47.2727C46.4365 47.2727 46.1495 47.3423 45.8967 47.4815C45.6467 47.6207 45.4492 47.8239 45.3044 48.0909C45.1595 48.358 45.087 48.6818 45.087 49.0625ZM53.7429 55.5909C53.2571 55.5909 52.8395 55.5284 52.4901 55.4034C52.1406 55.2812 51.8495 55.1193 51.6165 54.9176C51.3864 54.7188 51.2031 54.5057 51.0668 54.2784L51.8679 53.7159C51.9588 53.8352 52.0739 53.9716 52.2131 54.125C52.3523 54.2812 52.5426 54.4162 52.7841 54.5298C53.0284 54.6463 53.348 54.7045 53.7429 54.7045C54.2713 54.7045 54.7074 54.5767 55.0512 54.321C55.3949 54.0653 55.5668 53.6648 55.5668 53.1193V51.7898H55.4816C55.4077 51.9091 55.3026 52.0568 55.1662 52.233C55.0327 52.4062 54.8395 52.5611 54.5867 52.6974C54.3367 52.831 53.9986 52.8977 53.5725 52.8977C53.0441 52.8977 52.5696 52.7727 52.1492 52.5227C51.7316 52.2727 51.4006 51.9091 51.1563 51.4318C50.9148 50.9545 50.7941 50.375 50.7941 49.6932C50.7941 49.0227 50.912 48.4389 51.1477 47.9418C51.3835 47.4418 51.7117 47.0554 52.1321 46.7827C52.5526 46.5071 53.0384 46.3693 53.5895 46.3693C54.0156 46.3693 54.3537 46.4403 54.6037 46.5824C54.8566 46.7216 55.0497 46.8807 55.1833 47.0597C55.3196 47.2358 55.4247 47.3807 55.4986 47.4943H55.6009V46.4545H56.5725V53.1875C56.5725 53.75 56.4446 54.2074 56.1889 54.5597C55.9361 54.9148 55.5952 55.1747 55.1662 55.3395C54.7401 55.5071 54.2656 55.5909 53.7429 55.5909ZM53.7088 51.9943C54.1122 51.9943 54.4531 51.902 54.7316 51.7173C55.01 51.5327 55.2216 51.267 55.3665 50.9205C55.5114 50.5739 55.5838 50.1591 55.5838 49.6761C55.5838 49.2045 55.5128 48.7884 55.3708 48.4276C55.2287 48.0668 55.0185 47.7841 54.7401 47.5795C54.4617 47.375 54.1179 47.2727 53.7088 47.2727C53.2827 47.2727 52.9276 47.3807 52.6435 47.5966C52.3622 47.8125 52.1506 48.1023 52.0085 48.4659C51.8693 48.8295 51.7997 49.233 51.7997 49.6761C51.7997 50.1307 51.8708 50.5327 52.0128 50.8821C52.1577 51.2287 52.3708 51.5014 52.652 51.7003C52.9361 51.8963 53.2884 51.9943 53.7088 51.9943ZM63.7145 53.1534C63.2997 53.1534 62.9233 53.0753 62.5852 52.919C62.2472 52.7599 61.9787 52.5312 61.7799 52.233C61.581 51.9318 61.4816 51.5682 61.4816 51.142C61.4816 50.767 61.5554 50.4631 61.7031 50.2301C61.8509 49.9943 62.0483 49.8097 62.2955 49.6761C62.5426 49.5426 62.8154 49.4432 63.1137 49.3778C63.4148 49.3097 63.7174 49.2557 64.0213 49.2159C64.4191 49.1648 64.7415 49.1264 64.9887 49.1009C65.2387 49.0724 65.4205 49.0256 65.5341 48.9602C65.6506 48.8949 65.7088 48.7812 65.7088 48.6193V48.5852C65.7088 48.1648 65.5938 47.8381 65.3637 47.6051C65.1364 47.3722 64.7912 47.2557 64.3281 47.2557C63.848 47.2557 63.4716 47.3608 63.1989 47.571C62.9262 47.7812 62.7344 48.0057 62.6236 48.2443L61.6691 47.9034C61.8395 47.5057 62.0668 47.196 62.3509 46.9744C62.6378 46.75 62.9503 46.5937 63.2884 46.5057C63.6293 46.4148 63.9645 46.3693 64.2941 46.3693C64.5043 46.3693 64.7458 46.3949 65.0185 46.446C65.2941 46.4943 65.5597 46.5952 65.8154 46.7486C66.0739 46.902 66.2884 47.1335 66.4588 47.4432C66.6293 47.7528 66.7145 48.1676 66.7145 48.6875V53H65.7088V52.1136H65.6577C65.5895 52.2557 65.4759 52.4077 65.3168 52.5696C65.1577 52.7315 64.946 52.8693 64.6818 52.983C64.4176 53.0966 64.0952 53.1534 63.7145 53.1534ZM63.8679 52.25C64.2656 52.25 64.6009 52.1719 64.8736 52.0156C65.1492 51.8594 65.3566 51.6577 65.4958 51.4105C65.6378 51.1634 65.7088 50.9034 65.7088 50.6307V49.7102C65.6662 49.7614 65.5725 49.8082 65.4276 49.8509C65.2855 49.8906 65.1208 49.9261 64.9333 49.9574C64.7486 49.9858 64.5682 50.0114 64.3921 50.0341C64.2188 50.054 64.0781 50.071 63.9702 50.0852C63.7088 50.1193 63.4645 50.1747 63.2372 50.2514C63.0128 50.3253 62.831 50.4375 62.6918 50.5881C62.5554 50.7358 62.4872 50.9375 62.4872 51.1932C62.4872 51.5426 62.6165 51.8068 62.875 51.9858C63.1364 52.1619 63.4674 52.25 63.8679 52.25ZM72.9308 49.0625V53H71.9251V46.4545H72.8967V47.4773H72.9819C73.1353 47.1449 73.3683 46.8778 73.6808 46.6761C73.9933 46.4716 74.3967 46.3693 74.891 46.3693C75.3342 46.3693 75.722 46.4602 76.0544 46.642C76.3867 46.821 76.6453 47.0938 76.8299 47.4602C77.0146 47.8239 77.1069 48.2841 77.1069 48.8409V53H76.1012V48.9091C76.1012 48.3949 75.9677 47.9943 75.7007 47.7074C75.4336 47.4176 75.0671 47.2727 74.6012 47.2727C74.2802 47.2727 73.9933 47.3423 73.7404 47.4815C73.4904 47.6207 73.293 47.8239 73.1481 48.0909C73.0032 48.358 72.9308 48.6818 72.9308 49.0625ZM81.6889 53.1364C81.0583 53.1364 80.5142 52.9972 80.0568 52.7188C79.6023 52.4375 79.2514 52.0455 79.0043 51.5426C78.76 51.0369 78.6378 50.4489 78.6378 49.7784C78.6378 49.108 78.76 48.517 79.0043 48.0057C79.2514 47.4915 79.5952 47.0909 80.0355 46.804C80.4787 46.5142 80.9958 46.3693 81.5867 46.3693C81.9276 46.3693 82.2642 46.4261 82.5966 46.5398C82.929 46.6534 83.2316 46.8381 83.5043 47.0938C83.777 47.3466 83.9943 47.6818 84.1563 48.0994C84.3182 48.517 84.3992 49.0312 84.3992 49.642V50.0682H79.3537V49.1989H83.3764C83.3764 48.8295 83.3026 48.5 83.1549 48.2102C83.01 47.9205 82.8026 47.6918 82.5327 47.5241C82.2656 47.3565 81.9503 47.2727 81.5867 47.2727C81.1861 47.2727 80.8395 47.3722 80.5469 47.571C80.2571 47.767 80.0341 48.0227 79.8779 48.3381C79.7216 48.6534 79.6435 48.9915 79.6435 49.3523V49.9318C79.6435 50.4261 79.7287 50.8452 79.8992 51.1889C80.0725 51.5298 80.3125 51.7898 80.6193 51.9688C80.9262 52.1449 81.2827 52.233 81.6889 52.233C81.9531 52.233 82.1918 52.196 82.4049 52.1222C82.6208 52.0455 82.8068 51.9318 82.9631 51.7812C83.1193 51.6278 83.2401 51.4375 83.3253 51.2102L84.2969 51.483C84.1946 51.8125 84.0227 52.1023 83.7813 52.3523C83.5398 52.5994 83.2415 52.7926 82.8864 52.9318C82.5313 53.0682 82.1321 53.1364 81.6889 53.1364ZM90.054 50.3239V46.4545H91.0597V53H90.054V51.892H89.9858C89.8324 52.2244 89.5938 52.5071 89.2699 52.7401C88.946 52.9702 88.537 53.0852 88.0426 53.0852C87.6335 53.0852 87.2699 52.9957 86.9517 52.8168C86.6335 52.6349 86.3835 52.3622 86.2017 51.9986C86.0199 51.6321 85.929 51.1705 85.929 50.6136V46.4545H86.9347V50.5455C86.9347 51.0227 87.0682 51.4034 87.3352 51.6875C87.6051 51.9716 87.9489 52.1136 88.3665 52.1136C88.6165 52.1136 88.8708 52.0497 89.1293 51.9219C89.3906 51.794 89.6094 51.598 89.7855 51.3338C89.9645 51.0696 90.054 50.733 90.054 50.3239ZM92.9017 53V46.4545H93.8732V47.4432H93.9414C94.0607 47.1193 94.2767 46.8565 94.5892 46.6548C94.9017 46.4531 95.2539 46.3523 95.646 46.3523C95.7198 46.3523 95.8122 46.3537 95.923 46.3565C96.0338 46.3594 96.1176 46.3636 96.1744 46.3693V47.392C96.1403 47.3835 96.0622 47.3707 95.94 47.3537C95.8207 47.3338 95.6943 47.3239 95.5607 47.3239C95.2426 47.3239 94.9585 47.3906 94.7085 47.5241C94.4613 47.6548 94.2653 47.8366 94.1204 48.0696C93.9784 48.2997 93.9073 48.5625 93.9073 48.858V53H92.9017ZM99.2926 53.1534C98.8779 53.1534 98.5014 53.0753 98.1634 52.919C97.8253 52.7599 97.5568 52.5312 97.358 52.233C97.1591 51.9318 97.0597 51.5682 97.0597 51.142C97.0597 50.767 97.1335 50.4631 97.2813 50.2301C97.429 49.9943 97.6264 49.8097 97.8736 49.6761C98.1208 49.5426 98.3935 49.4432 98.6918 49.3778C98.9929 49.3097 99.2955 49.2557 99.5995 49.2159C99.9972 49.1648 100.32 49.1264 100.567 49.1009C100.817 49.0724 100.999 49.0256 101.112 48.9602C101.229 48.8949 101.287 48.7812 101.287 48.6193V48.5852C101.287 48.1648 101.172 47.8381 100.942 47.6051C100.715 47.3722 100.369 47.2557 99.9063 47.2557C99.4262 47.2557 99.0497 47.3608 98.777 47.571C98.5043 47.7812 98.3125 48.0057 98.2017 48.2443L97.2472 47.9034C97.4176 47.5057 97.6449 47.196 97.929 46.9744C98.2159 46.75 98.5284 46.5937 98.8665 46.5057C99.2074 46.4148 99.5426 46.3693 99.8722 46.3693C100.082 46.3693 100.324 46.3949 100.597 46.446C100.872 46.4943 101.138 46.5952 101.393 46.7486C101.652 46.902 101.866 47.1335 102.037 47.4432C102.207 47.7528 102.293 48.1676 102.293 48.6875V53H101.287V52.1136H101.236C101.168 52.2557 101.054 52.4077 100.895 52.5696C100.736 52.7315 100.524 52.8693 100.26 52.983C99.9958 53.0966 99.6733 53.1534 99.2926 53.1534ZM99.446 52.25C99.8438 52.25 100.179 52.1719 100.452 52.0156C100.727 51.8594 100.935 51.6577 101.074 51.4105C101.216 51.1634 101.287 50.9034 101.287 50.6307V49.7102C101.244 49.7614 101.151 49.8082 101.006 49.8509C100.864 49.8906 100.699 49.9261 100.511 49.9574C100.327 49.9858 100.146 50.0114 99.9702 50.0341C99.7969 50.054 99.6563 50.071 99.5483 50.0852C99.287 50.1193 99.0426 50.1747 98.8154 50.2514C98.5909 50.3253 98.4091 50.4375 98.2699 50.5881C98.1335 50.7358 98.0654 50.9375 98.0654 51.1932C98.0654 51.5426 98.1946 51.8068 98.4531 51.9858C98.7145 52.1619 99.0455 52.25 99.446 52.25ZM105.134 44.2727V53H104.128V44.2727H105.134ZM111.357 49.0625V53H110.351V46.4545H111.322V47.4773H111.408C111.561 47.1449 111.794 46.8778 112.107 46.6761C112.419 46.4716 112.822 46.3693 113.317 46.3693C113.76 46.3693 114.148 46.4602 114.48 46.642C114.813 46.821 115.071 47.0938 115.256 47.4602C115.44 47.8239 115.533 48.2841 115.533 48.8409V53H114.527V48.9091C114.527 48.3949 114.393 47.9943 114.126 47.7074C113.859 47.4176 113.493 47.2727 113.027 47.2727C112.706 47.2727 112.419 47.3423 112.166 47.4815C111.916 47.6207 111.719 47.8239 111.574 48.0909C111.429 48.358 111.357 48.6818 111.357 49.0625ZM120.115 53.1364C119.484 53.1364 118.94 52.9972 118.483 52.7188C118.028 52.4375 117.677 52.0455 117.43 51.5426C117.186 51.0369 117.064 50.4489 117.064 49.7784C117.064 49.108 117.186 48.517 117.43 48.0057C117.677 47.4915 118.021 47.0909 118.461 46.804C118.904 46.5142 119.422 46.3693 120.012 46.3693C120.353 46.3693 120.69 46.4261 121.022 46.5398C121.355 46.6534 121.657 46.8381 121.93 47.0938C122.203 47.3466 122.42 47.6818 122.582 48.0994C122.744 48.517 122.825 49.0312 122.825 49.642V50.0682H117.779V49.1989H121.802C121.802 48.8295 121.728 48.5 121.581 48.2102C121.436 47.9205 121.228 47.6918 120.958 47.5241C120.691 47.3565 120.376 47.2727 120.012 47.2727C119.612 47.2727 119.265 47.3722 118.973 47.571C118.683 47.767 118.46 48.0227 118.304 48.3381C118.147 48.6534 118.069 48.9915 118.069 49.3523V49.9318C118.069 50.4261 118.154 50.8452 118.325 51.1889C118.498 51.5298 118.738 51.7898 119.045 51.9688C119.352 52.1449 119.708 52.233 120.115 52.233C120.379 52.233 120.618 52.196 120.831 52.1222C121.047 52.0455 121.233 51.9318 121.389 51.7812C121.545 51.6278 121.666 51.4375 121.751 51.2102L122.723 51.483C122.62 51.8125 122.449 52.1023 122.207 52.3523C121.966 52.5994 121.667 52.7926 121.312 52.9318C120.957 53.0682 120.558 53.1364 120.115 53.1364ZM127.201 46.4545V47.3068H123.809V46.4545H127.201ZM124.798 44.8864H125.804V51.125C125.804 51.4091 125.845 51.6222 125.927 51.7642C126.012 51.9034 126.12 51.9972 126.251 52.0455C126.385 52.0909 126.525 52.1136 126.673 52.1136C126.784 52.1136 126.875 52.108 126.946 52.0966C127.017 52.0824 127.074 52.071 127.116 52.0625L127.321 52.9659C127.253 52.9915 127.157 53.017 127.035 53.0426C126.913 53.071 126.758 53.0852 126.571 53.0852C126.287 53.0852 126.008 53.0241 125.735 52.902C125.466 52.7798 125.241 52.5938 125.062 52.3438C124.886 52.0938 124.798 51.7784 124.798 51.3977V44.8864ZM130.197 53L128.203 46.4545H129.26L130.674 51.4659H130.743L132.14 46.4545H133.214L134.595 51.4489H134.663L136.078 46.4545H137.135L135.14 53H134.152L132.72 47.9716H132.618L131.186 53H130.197ZM140.901 53.1364C140.31 53.1364 139.791 52.9957 139.345 52.7145C138.902 52.4332 138.555 52.0398 138.305 51.5341C138.058 51.0284 137.935 50.4375 137.935 49.7614C137.935 49.0795 138.058 48.4844 138.305 47.9759C138.555 47.4673 138.902 47.0724 139.345 46.7912C139.791 46.5099 140.31 46.3693 140.901 46.3693C141.491 46.3693 142.009 46.5099 142.452 46.7912C142.898 47.0724 143.244 47.4673 143.491 47.9759C143.741 48.4844 143.866 49.0795 143.866 49.7614C143.866 50.4375 143.741 51.0284 143.491 51.5341C143.244 52.0398 142.898 52.4332 142.452 52.7145C142.009 52.9957 141.491 53.1364 140.901 53.1364ZM140.901 52.233C141.349 52.233 141.719 52.1179 142.009 51.8878C142.298 51.6577 142.513 51.3551 142.652 50.9801C142.791 50.6051 142.861 50.1989 142.861 49.7614C142.861 49.3239 142.791 48.9162 142.652 48.5384C142.513 48.1605 142.298 47.8551 142.009 47.6222C141.719 47.3892 141.349 47.2727 140.901 47.2727C140.452 47.2727 140.082 47.3892 139.793 47.6222C139.503 47.8551 139.288 48.1605 139.149 48.5384C139.01 48.9162 138.94 49.3239 138.94 49.7614C138.94 50.1989 139.01 50.6051 139.149 50.9801C139.288 51.3551 139.503 51.6577 139.793 51.8878C140.082 52.1179 140.452 52.233 140.901 52.233ZM145.402 53V46.4545H146.373V47.4432H146.441C146.561 47.1193 146.777 46.8565 147.089 46.6548C147.402 46.4531 147.754 46.3523 148.146 46.3523C148.22 46.3523 148.312 46.3537 148.423 46.3565C148.534 46.3594 148.618 46.3636 148.674 46.3693V47.392C148.64 47.3835 148.562 47.3707 148.44 47.3537C148.321 47.3338 148.194 47.3239 148.061 47.3239C147.743 47.3239 147.458 47.3906 147.208 47.5241C146.961 47.6548 146.765 47.8366 146.62 48.0696C146.478 48.2997 146.407 48.5625 146.407 48.858V53H145.402ZM150.804 50.6136L150.787 49.3693H150.991L153.855 46.4545H155.099L152.048 49.5398H151.963L150.804 50.6136ZM149.866 53V44.2727H150.872V53H149.866ZM154.026 53L151.469 49.7614L152.185 49.0625L155.304 53H154.026ZM162.615 46.4545V47.3068H159.223V46.4545H162.615ZM160.212 44.8864H161.218V51.125C161.218 51.4091 161.259 51.6222 161.341 51.7642C161.427 51.9034 161.534 51.9972 161.665 52.0455C161.799 52.0909 161.939 52.1136 162.087 52.1136C162.198 52.1136 162.289 52.108 162.36 52.0966C162.431 52.0824 162.488 52.071 162.53 52.0625L162.735 52.9659C162.667 52.9915 162.571 53.017 162.449 53.0426C162.327 53.071 162.172 53.0852 161.985 53.0852C161.701 53.0852 161.422 53.0241 161.15 52.902C160.88 52.7798 160.655 52.5938 160.476 52.3438C160.3 52.0938 160.212 51.7784 160.212 51.3977V44.8864ZM166.717 53.1364C166.126 53.1364 165.608 52.9957 165.162 52.7145C164.718 52.4332 164.372 52.0398 164.122 51.5341C163.875 51.0284 163.751 50.4375 163.751 49.7614C163.751 49.0795 163.875 48.4844 164.122 47.9759C164.372 47.4673 164.718 47.0724 165.162 46.7912C165.608 46.5099 166.126 46.3693 166.717 46.3693C167.308 46.3693 167.825 46.5099 168.268 46.7912C168.714 47.0724 169.061 47.4673 169.308 47.9759C169.558 48.4844 169.683 49.0795 169.683 49.7614C169.683 50.4375 169.558 51.0284 169.308 51.5341C169.061 52.0398 168.714 52.4332 168.268 52.7145C167.825 52.9957 167.308 53.1364 166.717 53.1364ZM166.717 52.233C167.166 52.233 167.535 52.1179 167.825 51.8878C168.115 51.6577 168.329 51.3551 168.468 50.9801C168.608 50.6051 168.677 50.1989 168.677 49.7614C168.677 49.3239 168.608 48.9162 168.468 48.5384C168.329 48.1605 168.115 47.8551 167.825 47.6222C167.535 47.3892 167.166 47.2727 166.717 47.2727C166.268 47.2727 165.899 47.3892 165.609 47.6222C165.319 47.8551 165.105 48.1605 164.966 48.5384C164.826 48.9162 164.757 49.3239 164.757 49.7614C164.757 50.1989 164.826 50.6051 164.966 50.9801C165.105 51.3551 165.319 51.6577 165.609 51.8878C165.899 52.1179 166.268 52.233 166.717 52.233ZM174.593 55.4545V46.4545H175.565V47.4943H175.684C175.758 47.3807 175.86 47.2358 175.991 47.0597C176.124 46.8807 176.315 46.7216 176.562 46.5824C176.812 46.4403 177.15 46.3693 177.576 46.3693C178.127 46.3693 178.613 46.5071 179.033 46.7827C179.454 47.0582 179.782 47.4489 180.018 47.9545C180.254 48.4602 180.371 49.0568 180.371 49.7443C180.371 50.4375 180.254 51.0384 180.018 51.5469C179.782 52.0526 179.455 52.4446 179.038 52.723C178.62 52.9986 178.139 53.1364 177.593 53.1364C177.173 53.1364 176.836 53.0668 176.583 52.9276C176.33 52.7855 176.136 52.625 175.999 52.446C175.863 52.2642 175.758 52.1136 175.684 51.9943H175.599V55.4545H174.593ZM175.582 49.7273C175.582 50.2216 175.654 50.6577 175.799 51.0355C175.944 51.4105 176.156 51.7045 176.434 51.9176C176.712 52.1278 177.053 52.233 177.457 52.233C177.877 52.233 178.228 52.1222 178.509 51.9006C178.793 51.6761 179.006 51.375 179.148 50.9972C179.293 50.6165 179.366 50.1932 179.366 49.7273C179.366 49.267 179.295 48.8523 179.153 48.483C179.014 48.1108 178.802 47.8168 178.518 47.6009C178.237 47.3821 177.883 47.2727 177.457 47.2727C177.048 47.2727 176.704 47.3764 176.425 47.5838C176.147 47.7884 175.937 48.0753 175.795 48.4446C175.653 48.8111 175.582 49.2386 175.582 49.7273ZM182.911 44.2727V53H181.906V44.2727H182.911ZM186.679 53.1534C186.265 53.1534 185.888 53.0753 185.55 52.919C185.212 52.7599 184.944 52.5312 184.745 52.233C184.546 51.9318 184.446 51.5682 184.446 51.142C184.446 50.767 184.52 50.4631 184.668 50.2301C184.816 49.9943 185.013 49.8097 185.26 49.6761C185.507 49.5426 185.78 49.4432 186.079 49.3778C186.38 49.3097 186.682 49.2557 186.986 49.2159C187.384 49.1648 187.706 49.1264 187.954 49.1009C188.204 49.0724 188.385 49.0256 188.499 48.9602C188.615 48.8949 188.674 48.7812 188.674 48.6193V48.5852C188.674 48.1648 188.559 47.8381 188.329 47.6051C188.101 47.3722 187.756 47.2557 187.293 47.2557C186.813 47.2557 186.436 47.3608 186.164 47.571C185.891 47.7812 185.699 48.0057 185.588 48.2443L184.634 47.9034C184.804 47.5057 185.032 47.196 185.316 46.9744C185.603 46.75 185.915 46.5937 186.253 46.5057C186.594 46.4148 186.929 46.3693 187.259 46.3693C187.469 46.3693 187.711 46.3949 187.983 46.446C188.259 46.4943 188.525 46.5952 188.78 46.7486C189.039 46.902 189.253 47.1335 189.424 47.4432C189.594 47.7528 189.679 48.1676 189.679 48.6875V53H188.674V52.1136H188.623C188.554 52.2557 188.441 52.4077 188.282 52.5696C188.123 52.7315 187.911 52.8693 187.647 52.983C187.382 53.0966 187.06 53.1534 186.679 53.1534ZM186.833 52.25C187.23 52.25 187.566 52.1719 187.838 52.0156C188.114 51.8594 188.321 51.6577 188.461 51.4105C188.603 51.1634 188.674 50.9034 188.674 50.6307V49.7102C188.631 49.7614 188.537 49.8082 188.392 49.8509C188.25 49.8906 188.086 49.9261 187.898 49.9574C187.713 49.9858 187.533 50.0114 187.357 50.0341C187.184 50.054 187.043 50.071 186.935 50.0852C186.674 50.1193 186.429 50.1747 186.202 50.2514C185.978 50.3253 185.796 50.4375 185.657 50.5881C185.52 50.7358 185.452 50.9375 185.452 51.1932C185.452 51.5426 185.581 51.8068 185.84 51.9858C186.101 52.1619 186.432 52.25 186.833 52.25ZM191.928 55.4545C191.758 55.4545 191.606 55.4403 191.472 55.4119C191.339 55.3864 191.246 55.3608 191.195 55.3352L191.451 54.4489C191.695 54.5114 191.911 54.5341 192.099 54.517C192.286 54.5 192.452 54.4162 192.597 54.2656C192.745 54.1179 192.88 53.8778 193.002 53.5455L193.19 53.0341L190.769 46.4545H191.86L193.667 51.6705H193.735L195.542 46.4545H196.633L193.854 53.9545C193.729 54.2926 193.575 54.5724 193.39 54.794C193.205 55.0185 192.991 55.1847 192.746 55.2926C192.505 55.4006 192.232 55.4545 191.928 55.4545ZM201.472 53V44.2727H204.42C205.105 44.2727 205.665 44.3963 206.099 44.6435C206.537 44.8878 206.861 45.2188 207.071 45.6364C207.281 46.054 207.386 46.5199 207.386 47.0341C207.386 47.5483 207.281 48.0156 207.071 48.4361C206.864 48.8565 206.543 49.1918 206.108 49.4418C205.673 49.6889 205.116 49.8125 204.438 49.8125H202.324V48.875H204.403C204.872 48.875 205.249 48.794 205.533 48.6321C205.817 48.4702 206.023 48.2514 206.151 47.9759C206.281 47.6974 206.347 47.3835 206.347 47.0341C206.347 46.6847 206.281 46.3722 206.151 46.0966C206.023 45.821 205.815 45.6051 205.528 45.4489C205.241 45.2898 204.861 45.2102 204.386 45.2102H202.528V53H201.472ZM211.541 53.1364C210.95 53.1364 210.432 52.9957 209.986 52.7145C209.543 52.4332 209.196 52.0398 208.946 51.5341C208.699 51.0284 208.575 50.4375 208.575 49.7614C208.575 49.0795 208.699 48.4844 208.946 47.9759C209.196 47.4673 209.543 47.0724 209.986 46.7912C210.432 46.5099 210.95 46.3693 211.541 46.3693C212.132 46.3693 212.649 46.5099 213.092 46.7912C213.538 47.0724 213.885 47.4673 214.132 47.9759C214.382 48.4844 214.507 49.0795 214.507 49.7614C214.507 50.4375 214.382 51.0284 214.132 51.5341C213.885 52.0398 213.538 52.4332 213.092 52.7145C212.649 52.9957 212.132 53.1364 211.541 53.1364ZM211.541 52.233C211.99 52.233 212.359 52.1179 212.649 51.8878C212.939 51.6577 213.153 51.3551 213.293 50.9801C213.432 50.6051 213.501 50.1989 213.501 49.7614C213.501 49.3239 213.432 48.9162 213.293 48.5384C213.153 48.1605 212.939 47.8551 212.649 47.6222C212.359 47.3892 211.99 47.2727 211.541 47.2727C211.092 47.2727 210.723 47.3892 210.433 47.6222C210.143 47.8551 209.929 48.1605 209.79 48.5384C209.651 48.9162 209.581 49.3239 209.581 49.7614C209.581 50.1989 209.651 50.6051 209.79 50.9801C209.929 51.3551 210.143 51.6577 210.433 51.8878C210.723 52.1179 211.092 52.233 211.541 52.233ZM217.048 49.0625V53H216.042V46.4545H217.014V47.4773H217.099C217.253 47.1449 217.485 46.8778 217.798 46.6761C218.11 46.4716 218.514 46.3693 219.008 46.3693C219.451 46.3693 219.839 46.4602 220.172 46.642C220.504 46.821 220.762 47.0938 220.947 47.4602C221.132 47.8239 221.224 48.2841 221.224 48.8409V53H220.218V48.9091C220.218 48.3949 220.085 47.9943 219.818 47.7074C219.551 47.4176 219.184 47.2727 218.718 47.2727C218.397 47.2727 218.11 47.3423 217.858 47.4815C217.608 47.6207 217.41 47.8239 217.265 48.0909C217.12 48.358 217.048 48.6818 217.048 49.0625ZM225.704 55.5909C225.218 55.5909 224.8 55.5284 224.451 55.4034C224.102 55.2812 223.81 55.1193 223.577 54.9176C223.347 54.7188 223.164 54.5057 223.028 54.2784L223.829 53.7159C223.92 53.8352 224.035 53.9716 224.174 54.125C224.313 54.2812 224.504 54.4162 224.745 54.5298C224.989 54.6463 225.309 54.7045 225.704 54.7045C226.232 54.7045 226.668 54.5767 227.012 54.321C227.356 54.0653 227.528 53.6648 227.528 53.1193V51.7898H227.442C227.369 51.9091 227.264 52.0568 227.127 52.233C226.994 52.4062 226.8 52.5611 226.548 52.6974C226.298 52.831 225.96 52.8977 225.533 52.8977C225.005 52.8977 224.531 52.7727 224.11 52.5227C223.692 52.2727 223.362 51.9091 223.117 51.4318C222.876 50.9545 222.755 50.375 222.755 49.6932C222.755 49.0227 222.873 48.4389 223.109 47.9418C223.344 47.4418 223.673 47.0554 224.093 46.7827C224.514 46.5071 224.999 46.3693 225.55 46.3693C225.977 46.3693 226.315 46.4403 226.565 46.5824C226.817 46.7216 227.011 46.8807 227.144 47.0597C227.281 47.2358 227.386 47.3807 227.46 47.4943H227.562V46.4545H228.533V53.1875C228.533 53.75 228.406 54.2074 228.15 54.5597C227.897 54.9148 227.556 55.1747 227.127 55.3395C226.701 55.5071 226.227 55.5909 225.704 55.5909ZM225.67 51.9943C226.073 51.9943 226.414 51.902 226.692 51.7173C226.971 51.5327 227.183 51.267 227.327 50.9205C227.472 50.5739 227.545 50.1591 227.545 49.6761C227.545 49.2045 227.474 48.7884 227.332 48.4276C227.19 48.0668 226.979 47.7841 226.701 47.5795C226.423 47.375 226.079 47.2727 225.67 47.2727C225.244 47.2727 224.889 47.3807 224.604 47.5966C224.323 47.8125 224.112 48.1023 223.969 48.4659C223.83 48.8295 223.761 49.233 223.761 49.6761C223.761 50.1307 223.832 50.5327 223.974 50.8821C224.119 51.2287 224.332 51.5014 224.613 51.7003C224.897 51.8963 225.249 51.9943 225.67 51.9943ZM233.749 53V46.4545H234.755V53H233.749ZM234.261 45.3636C234.065 45.3636 233.896 45.2969 233.754 45.1634C233.614 45.0298 233.545 44.8693 233.545 44.6818C233.545 44.4943 233.614 44.3338 233.754 44.2003C233.896 44.0668 234.065 44 234.261 44C234.457 44 234.624 44.0668 234.764 44.2003C234.906 44.3338 234.977 44.4943 234.977 44.6818C234.977 44.8693 234.906 45.0298 234.764 45.1634C234.624 45.2969 234.457 45.3636 234.261 45.3636ZM237.603 49.0625V53H236.597V46.4545H237.569V47.4773H237.654C237.807 47.1449 238.04 46.8778 238.353 46.6761C238.665 46.4716 239.069 46.3693 239.563 46.3693C240.006 46.3693 240.394 46.4602 240.726 46.642C241.059 46.821 241.317 47.0938 241.502 47.4602C241.686 47.8239 241.779 48.2841 241.779 48.8409V53H240.773V48.9091C240.773 48.3949 240.64 47.9943 240.373 47.7074C240.105 47.4176 239.739 47.2727 239.273 47.2727C238.952 47.2727 238.665 47.3423 238.412 47.4815C238.162 47.6207 237.965 47.8239 237.82 48.0909C237.675 48.358 237.603 48.6818 237.603 49.0625ZM252.855 44.2727H253.912V50.0511C253.912 50.6477 253.771 51.1804 253.49 51.6491C253.212 52.1151 252.818 52.483 252.31 52.7528C251.801 53.0199 251.205 53.1534 250.52 53.1534C249.835 53.1534 249.239 53.0199 248.73 52.7528C248.222 52.483 247.827 52.1151 247.545 51.6491C247.267 51.1804 247.128 50.6477 247.128 50.0511V44.2727H248.185V49.9659C248.185 50.392 248.278 50.7713 248.466 51.1037C248.653 51.4332 248.92 51.6932 249.267 51.8835C249.616 52.071 250.034 52.1648 250.52 52.1648C251.006 52.1648 251.423 52.071 251.773 51.8835C252.122 51.6932 252.389 51.4332 252.574 51.1037C252.761 50.7713 252.855 50.392 252.855 49.9659V44.2727ZM256.892 49.0625V53H255.886V46.4545H256.858V47.4773H256.943C257.096 47.1449 257.329 46.8778 257.642 46.6761C257.954 46.4716 258.358 46.3693 258.852 46.3693C259.295 46.3693 259.683 46.4602 260.015 46.642C260.348 46.821 260.606 47.0938 260.791 47.4602C260.976 47.8239 261.068 48.2841 261.068 48.8409V53H260.062V48.9091C260.062 48.3949 259.929 47.9943 259.662 47.7074C259.395 47.4176 259.028 47.2727 258.562 47.2727C258.241 47.2727 257.954 47.3423 257.701 47.4815C257.451 47.6207 257.254 47.8239 257.109 48.0909C256.964 48.358 256.892 48.6818 256.892 49.0625ZM262.906 53V46.4545H263.911V53H262.906ZM263.417 45.3636C263.221 45.3636 263.052 45.2969 262.91 45.1634C262.771 45.0298 262.701 44.8693 262.701 44.6818C262.701 44.4943 262.771 44.3338 262.91 44.2003C263.052 44.0668 263.221 44 263.417 44C263.613 44 263.781 44.0668 263.92 44.2003C264.062 44.3338 264.133 44.4943 264.133 44.6818C264.133 44.8693 264.062 45.0298 263.92 45.1634C263.781 45.2969 263.613 45.3636 263.417 45.3636ZM268.6 46.4545V47.3068H265.208V46.4545H268.6ZM266.196 44.8864H267.202V51.125C267.202 51.4091 267.243 51.6222 267.326 51.7642C267.411 51.9034 267.519 51.9972 267.65 52.0455C267.783 52.0909 267.924 52.1136 268.071 52.1136C268.182 52.1136 268.273 52.108 268.344 52.0966C268.415 52.0824 268.472 52.071 268.515 52.0625L268.719 52.9659C268.651 52.9915 268.556 53.017 268.434 53.0426C268.311 53.071 268.157 53.0852 267.969 53.0852C267.685 53.0852 267.407 53.0241 267.134 52.902C266.864 52.7798 266.64 52.5938 266.461 52.3438C266.284 52.0938 266.196 51.7784 266.196 51.3977V44.8864ZM270.76 55.4545C270.59 55.4545 270.438 55.4403 270.304 55.4119C270.171 55.3864 270.079 55.3608 270.027 55.3352L270.283 54.4489C270.527 54.5114 270.743 54.5341 270.931 54.517C271.118 54.5 271.284 54.4162 271.429 54.2656C271.577 54.1179 271.712 53.8778 271.834 53.5455L272.022 53.0341L269.601 46.4545H270.692L272.499 51.6705H272.567L274.374 46.4545H275.465L272.686 53.9545C272.561 54.2926 272.407 54.5724 272.222 54.794C272.037 55.0185 271.823 55.1847 271.579 55.2926C271.337 55.4006 271.064 55.4545 270.76 55.4545Z" fill="#768395"/>
<circle cx="18.2" cy="79" r="6" fill="#178600"/>
<circle cx="18.2" cy="79" r="5.5" stroke="white" stroke-opacity="0.14902"/>
<path d="M40.2795 77.5H39.2227C39.1602 77.196 39.0508 76.929 38.8946 76.6989C38.7411 76.4688 38.5536 76.2756 38.3321 76.1193C38.1133 75.9602 37.8704 75.8409 37.6034 75.7614C37.3363 75.6818 37.0579 75.642 36.7681 75.642C36.2397 75.642 35.761 75.7756 35.3321 76.0426C34.9059 76.3097 34.5664 76.7031 34.3136 77.223C34.0636 77.7429 33.9386 78.3807 33.9386 79.1364C33.9386 79.892 34.0636 80.5298 34.3136 81.0497C34.5664 81.5696 34.9059 81.9631 35.3321 82.2301C35.761 82.4972 36.2397 82.6307 36.7681 82.6307C37.0579 82.6307 37.3363 82.5909 37.6034 82.5114C37.8704 82.4318 38.1133 82.3139 38.3321 82.1577C38.5536 81.9986 38.7411 81.804 38.8946 81.5739C39.0508 81.3409 39.1602 81.0739 39.2227 80.7727H40.2795C40.2 81.2187 40.0551 81.6179 39.8448 81.9702C39.6346 82.3224 39.3732 82.6222 39.0607 82.8693C38.7482 83.1136 38.3974 83.2997 38.0082 83.4276C37.6218 83.5554 37.2085 83.6193 36.7681 83.6193C36.0238 83.6193 35.3619 83.4375 34.7823 83.0739C34.2028 82.7102 33.7468 82.1932 33.4144 81.5227C33.0821 80.8523 32.9159 80.0568 32.9159 79.1364C32.9159 78.2159 33.0821 77.4205 33.4144 76.75C33.7468 76.0795 34.2028 75.5625 34.7823 75.1989C35.3619 74.8352 36.0238 74.6534 36.7681 74.6534C37.2085 74.6534 37.6218 74.7173 38.0082 74.8452C38.3974 74.973 38.7482 75.1605 39.0607 75.4077C39.3732 75.652 39.6346 75.9503 39.8448 76.3026C40.0551 76.652 40.2 77.0511 40.2795 77.5ZM45.1066 83.5L46.5384 74.7727H47.3906L45.9588 83.5H45.1066ZM41.135 81.0795L41.2713 80.2273H47.7827L47.6463 81.0795H41.135ZM42.0384 83.5L43.4702 74.7727H44.3225L42.8906 83.5H42.0384ZM41.6463 78.0455L41.7827 77.1932H48.2941L48.1577 78.0455H41.6463Z" fill="#768395"/>
<rect x="61.2" y="68" width="50" height="22" rx="11" fill="#388BFD" fill-opacity="0.101961"/>
<path d="M77.984 74.7727H79.0409V80.5511C79.0409 81.1477 78.9002 81.6804 78.619 82.1491C78.3406 82.6151 77.9471 82.983 77.4386 83.2528C76.9301 83.5199 76.3335 83.6534 75.6488 83.6534C74.9642 83.6534 74.3676 83.5199 73.859 83.2528C73.3505 82.983 72.9556 82.6151 72.6744 82.1491C72.396 81.6804 72.2568 81.1477 72.2568 80.5511V74.7727H73.3136V80.4659C73.3136 80.892 73.4073 81.2713 73.5948 81.6037C73.7823 81.9332 74.0494 82.1932 74.396 82.3835C74.7454 82.571 75.163 82.6648 75.6488 82.6648C76.1346 82.6648 76.5522 82.571 76.9017 82.3835C77.2511 82.1932 77.5181 81.9332 77.7028 81.6037C77.8903 81.2713 77.984 80.892 77.984 80.4659V74.7727ZM82.0206 79.5625V83.5H81.0149V76.9545H81.9865V77.9773H82.0718C82.2252 77.6449 82.4581 77.3778 82.7706 77.1761C83.0831 76.9716 83.4865 76.8693 83.9808 76.8693C84.424 76.8693 84.8118 76.9602 85.1442 77.142C85.4766 77.321 85.7351 77.5938 85.9198 77.9602C86.1044 78.3239 86.1968 78.7841 86.1968 79.3409V83.5H85.1911V79.4091C85.1911 78.8949 85.0576 78.4943 84.7905 78.2074C84.5235 77.9176 84.157 77.7727 83.6911 77.7727C83.3701 77.7727 83.0831 77.8423 82.8303 77.9815C82.5803 78.1207 82.3828 78.3239 82.2379 78.5909C82.0931 78.858 82.0206 79.1818 82.0206 79.5625ZM88.0345 83.5V76.9545H89.0402V83.5H88.0345ZM88.5458 75.8636C88.3498 75.8636 88.1808 75.7969 88.0387 75.6634C87.8995 75.5298 87.8299 75.3693 87.8299 75.1818C87.8299 74.9943 87.8995 74.8338 88.0387 74.7003C88.1808 74.5668 88.3498 74.5 88.5458 74.5C88.7419 74.5 88.9095 74.5668 89.0487 74.7003C89.1907 74.8338 89.2617 74.9943 89.2617 75.1818C89.2617 75.3693 89.1907 75.5298 89.0487 75.6634C88.9095 75.7969 88.7419 75.8636 88.5458 75.8636ZM93.7287 76.9545V77.8068H90.3367V76.9545H93.7287ZM91.3253 75.3864H92.331V81.625C92.331 81.9091 92.3722 82.1222 92.4546 82.2642C92.5398 82.4034 92.6477 82.4972 92.7784 82.5455C92.912 82.5909 93.0526 82.6136 93.2003 82.6136C93.3111 82.6136 93.402 82.608 93.473 82.5966C93.5441 82.5824 93.6009 82.571 93.6435 82.5625L93.848 83.4659C93.7799 83.4915 93.6847 83.517 93.5625 83.5426C93.4404 83.571 93.2855 83.5852 93.098 83.5852C92.8139 83.5852 92.5355 83.5241 92.2628 83.402C91.9929 83.2798 91.7685 83.0938 91.5895 82.8438C91.4134 82.5938 91.3253 82.2784 91.3253 81.8977V75.3864ZM95.8892 85.9545C95.7188 85.9545 95.5668 85.9403 95.4333 85.9119C95.2997 85.8864 95.2074 85.8608 95.1563 85.8352L95.412 84.9489C95.6563 85.0114 95.8722 85.0341 96.0597 85.017C96.2472 85 96.4134 84.9162 96.5583 84.7656C96.706 84.6179 96.8409 84.3778 96.9631 84.0455L97.1506 83.5341L94.7301 76.9545H95.821L97.6279 82.1705H97.696L99.5029 76.9545H100.594L97.8154 84.4545C97.6904 84.7926 97.5355 85.0724 97.3509 85.294C97.1662 85.5185 96.9517 85.6847 96.7074 85.7926C96.4659 85.9006 96.1932 85.9545 95.8892 85.9545Z" fill="#4493F8"/>
<rect x="123.2" y="68" width="82" height="22" rx="11" fill="#388BFD" fill-opacity="0.101961"/>
<path d="M134.257 74.7727H135.518L138.484 82.017H138.586L141.552 74.7727H142.814V83.5H141.825V76.8693H141.74L139.012 83.5H138.058L135.331 76.8693H135.245V83.5H134.257V74.7727ZM144.933 83.5V74.7727H145.989V82.5625H150.046V83.5H144.933ZM154.277 78.6676V79.6051H150.458V78.6676H154.277ZM156.541 83.5H155.433L158.637 74.7727H159.728L162.933 83.5H161.825L159.217 76.1534H159.148L156.541 83.5ZM156.95 80.0909H161.416V81.0284H156.95V80.0909ZM166.798 86.0909C166.312 86.0909 165.894 86.0284 165.545 85.9034C165.195 85.7812 164.904 85.6193 164.671 85.4176C164.441 85.2188 164.258 85.0057 164.121 84.7784L164.923 84.2159C165.014 84.3352 165.129 84.4716 165.268 84.625C165.407 84.7812 165.597 84.9162 165.839 85.0298C166.083 85.1463 166.403 85.2045 166.798 85.2045C167.326 85.2045 167.762 85.0767 168.106 84.821C168.45 84.5653 168.621 84.1648 168.621 83.6193V82.2898H168.536C168.462 82.4091 168.357 82.5568 168.221 82.733C168.087 82.9062 167.894 83.0611 167.641 83.1974C167.391 83.331 167.053 83.3977 166.627 83.3977C166.099 83.3977 165.624 83.2727 165.204 83.0227C164.786 82.7727 164.455 82.4091 164.211 81.9318C163.969 81.4545 163.849 80.875 163.849 80.1932C163.849 79.5227 163.967 78.9389 164.202 78.4418C164.438 77.9418 164.766 77.5554 165.187 77.2827C165.607 77.0071 166.093 76.8693 166.644 76.8693C167.07 76.8693 167.408 76.9403 167.658 77.0824C167.911 77.2216 168.104 77.3807 168.238 77.5597C168.374 77.7358 168.479 77.8807 168.553 77.9943H168.656V76.9545H169.627V83.6875C169.627 84.25 169.499 84.7074 169.244 85.0597C168.991 85.4148 168.65 85.6747 168.221 85.8395C167.795 86.0071 167.32 86.0909 166.798 86.0909ZM166.764 82.4943C167.167 82.4943 167.508 82.402 167.786 82.2173C168.065 82.0327 168.276 81.767 168.421 81.4205C168.566 81.0739 168.639 80.6591 168.639 80.1761C168.639 79.7045 168.567 79.2884 168.425 78.9276C168.283 78.5668 168.073 78.2841 167.795 78.0795C167.516 77.875 167.173 77.7727 166.764 77.7727C166.337 77.7727 165.982 77.8807 165.698 78.0966C165.417 78.3125 165.205 78.6023 165.063 78.9659C164.924 79.3295 164.854 79.733 164.854 80.1761C164.854 80.6307 164.925 81.0327 165.067 81.3821C165.212 81.7287 165.425 82.0014 165.707 82.2003C165.991 82.3963 166.343 82.4943 166.764 82.4943ZM174.212 83.6364C173.582 83.6364 173.038 83.4972 172.58 83.2188C172.126 82.9375 171.775 82.5455 171.528 82.0426C171.283 81.5369 171.161 80.9489 171.161 80.2784C171.161 79.608 171.283 79.017 171.528 78.5057C171.775 77.9915 172.119 77.5909 172.559 77.304C173.002 77.0142 173.519 76.8693 174.11 76.8693C174.451 76.8693 174.788 76.9261 175.12 77.0398C175.452 77.1534 175.755 77.3381 176.028 77.5938C176.3 77.8466 176.518 78.1818 176.68 78.5994C176.842 79.017 176.923 79.5312 176.923 80.142V80.5682H171.877V79.6989H175.9C175.9 79.3295 175.826 79 175.678 78.7102C175.533 78.4205 175.326 78.1918 175.056 78.0241C174.789 77.8565 174.474 77.7727 174.11 77.7727C173.71 77.7727 173.363 77.8722 173.07 78.071C172.781 78.267 172.558 78.5227 172.401 78.8381C172.245 79.1534 172.167 79.4915 172.167 79.8523V80.4318C172.167 80.9261 172.252 81.3452 172.423 81.6889C172.596 82.0298 172.836 82.2898 173.143 82.4688C173.45 82.6449 173.806 82.733 174.212 82.733C174.477 82.733 174.715 82.696 174.928 82.6222C175.144 82.5455 175.33 82.4318 175.487 82.2812C175.643 82.1278 175.764 81.9375 175.849 81.7102L176.82 81.983C176.718 82.3125 176.546 82.6023 176.305 82.8523C176.063 83.0994 175.765 83.2926 175.41 83.4318C175.055 83.5682 174.656 83.6364 174.212 83.6364ZM179.458 79.5625V83.5H178.452V76.9545H179.424V77.9773H179.509C179.663 77.6449 179.896 77.3778 180.208 77.1761C180.521 76.9716 180.924 76.8693 181.418 76.8693C181.862 76.8693 182.249 76.9602 182.582 77.142C182.914 77.321 183.173 77.5938 183.357 77.9602C183.542 78.3239 183.634 78.7841 183.634 79.3409V83.5H182.629V79.4091C182.629 78.8949 182.495 78.4943 182.228 78.2074C181.961 77.9176 181.594 77.7727 181.129 77.7727C180.808 77.7727 180.521 77.8423 180.268 77.9815C180.018 78.1207 179.82 78.3239 179.675 78.5909C179.531 78.858 179.458 79.1818 179.458 79.5625ZM188.319 76.9545V77.8068H184.927V76.9545H188.319ZM185.915 75.3864H186.921V81.625C186.921 81.9091 186.962 82.1222 187.044 82.2642C187.13 82.4034 187.238 82.4972 187.368 82.5455C187.502 82.5909 187.642 82.6136 187.79 82.6136C187.901 82.6136 187.992 82.608 188.063 82.5966C188.134 82.5824 188.191 82.571 188.233 82.5625L188.438 83.4659C188.37 83.4915 188.275 83.517 188.152 83.5426C188.03 83.571 187.875 83.5852 187.688 83.5852C187.404 83.5852 187.125 83.5241 186.853 83.402C186.583 83.2798 186.358 83.0938 186.179 82.8438C186.003 82.5938 185.915 82.2784 185.915 81.8977V75.3864ZM194.351 78.4205L193.447 78.6761C193.39 78.5256 193.306 78.3793 193.196 78.2372C193.088 78.0923 192.94 77.973 192.753 77.8793C192.565 77.7855 192.325 77.7386 192.032 77.7386C191.632 77.7386 191.298 77.831 191.031 78.0156C190.767 78.1974 190.635 78.429 190.635 78.7102C190.635 78.9602 190.726 79.1577 190.907 79.3026C191.089 79.4474 191.373 79.5682 191.76 79.6648L192.731 79.9034C193.316 80.0455 193.753 80.2628 194.039 80.5554C194.326 80.8452 194.47 81.2187 194.47 81.6761C194.47 82.0511 194.362 82.3864 194.146 82.6818C193.933 82.9773 193.635 83.2102 193.251 83.3807C192.868 83.5511 192.422 83.6364 191.913 83.6364C191.245 83.6364 190.693 83.4915 190.255 83.2017C189.818 82.9119 189.541 82.4886 189.424 81.9318L190.379 81.6932C190.47 82.0455 190.642 82.3097 190.895 82.4858C191.15 82.6619 191.484 82.75 191.896 82.75C192.365 82.75 192.737 82.6506 193.012 82.4517C193.291 82.25 193.43 82.0085 193.43 81.7273C193.43 81.5 193.351 81.3097 193.191 81.1562C193.032 81 192.788 80.8835 192.458 80.8068L191.368 80.5511C190.768 80.4091 190.328 80.1889 190.047 79.8906C189.768 79.5895 189.629 79.2131 189.629 78.7614C189.629 78.392 189.733 78.0653 189.94 77.7812C190.15 77.4972 190.436 77.2741 190.797 77.1122C191.16 76.9503 191.572 76.8693 192.032 76.8693C192.68 76.8693 193.189 77.0114 193.558 77.2955C193.93 77.5795 194.194 77.9545 194.351 78.4205Z" fill="#4493F8"/>
</svg>
