<svg width="416" height="114" viewBox="0 0 416 114" fill="none" xmlns="http://www.w3.org/2000/svg">
<rect width="416" height="102" rx="6" fill="#768395" fill-opacity="0.1"/>
<path d="M14.3118 26H12.343L15.9276 15.8182H18.2045L21.794 26H19.8253L17.1058 17.9062H17.0263L14.3118 26ZM14.3764 22.0078H19.7457V23.4893H14.3764V22.0078ZM24.9796 15.8182V26H23.1351V15.8182H24.9796ZM30.4496 26V15.8182H34.2678C35.05 15.8182 35.7062 15.964 36.2365 16.2557C36.7701 16.5473 37.1728 16.9484 37.4446 17.4588C37.7197 17.9659 37.8572 18.5426 37.8572 19.1889C37.8572 19.8419 37.7197 20.4219 37.4446 20.929C37.1695 21.4361 36.7635 21.8355 36.2266 22.1271C35.6896 22.4155 35.0284 22.5597 34.2429 22.5597H31.7124V21.0433H33.9943C34.4517 21.0433 34.8262 20.9638 35.1179 20.8047C35.4096 20.6456 35.625 20.4268 35.7642 20.1484C35.9067 19.87 35.978 19.5502 35.978 19.1889C35.978 18.8277 35.9067 18.5095 35.7642 18.2344C35.625 17.9593 35.4079 17.7455 35.1129 17.593C34.8213 17.4373 34.4451 17.3594 33.9844 17.3594H32.294V26H30.4496ZM42.6014 26.1491C41.8556 26.1491 41.2093 25.9851 40.6625 25.657C40.1156 25.3288 39.6913 24.8698 39.3897 24.2798C39.0914 23.6899 38.9423 23.0005 38.9423 22.2116C38.9423 21.4228 39.0914 20.7318 39.3897 20.1385C39.6913 19.5452 40.1156 19.0845 40.6625 18.7564C41.2093 18.4283 41.8556 18.2642 42.6014 18.2642C43.3471 18.2642 43.9934 18.4283 44.5403 18.7564C45.0872 19.0845 45.5098 19.5452 45.8081 20.1385C46.1097 20.7318 46.2605 21.4228 46.2605 22.2116C46.2605 23.0005 46.1097 23.6899 45.8081 24.2798C45.5098 24.8698 45.0872 25.3288 44.5403 25.657C43.9934 25.9851 43.3471 26.1491 42.6014 26.1491ZM42.6113 24.7074C43.0157 24.7074 43.3538 24.5964 43.6255 24.3743C43.8973 24.1489 44.0995 23.8473 44.2321 23.4695C44.368 23.0916 44.4359 22.6707 44.4359 22.2067C44.4359 21.7393 44.368 21.3168 44.2321 20.9389C44.0995 20.5578 43.8973 20.2545 43.6255 20.0291C43.3538 19.8037 43.0157 19.6911 42.6113 19.6911C42.197 19.6911 41.8523 19.8037 41.5772 20.0291C41.3055 20.2545 41.1016 20.5578 40.9657 20.9389C40.8332 21.3168 40.7669 21.7393 40.7669 22.2067C40.7669 22.6707 40.8332 23.0916 40.9657 23.4695C41.1016 23.8473 41.3055 24.1489 41.5772 24.3743C41.8523 24.5964 42.197 24.7074 42.6113 24.7074ZM49.5877 21.5256V26H47.788V18.3636H49.5082V19.6612H49.5977C49.7733 19.2337 50.0534 18.8939 50.4379 18.642C50.8256 18.3902 51.3046 18.2642 51.8746 18.2642C52.4016 18.2642 52.8607 18.3769 53.2518 18.6023C53.6462 18.8277 53.9511 19.1541 54.1665 19.5817C54.3853 20.0092 54.493 20.5279 54.4897 21.1378V26H52.69V21.4162C52.69 20.9058 52.5574 20.5064 52.2923 20.218C52.0304 19.9297 51.6675 19.7855 51.2035 19.7855C50.8886 19.7855 50.6085 19.8551 50.3633 19.9943C50.1213 20.1302 49.9308 20.3274 49.7915 20.5859C49.6557 20.8445 49.5877 21.1577 49.5877 21.5256ZM59.6403 29.0227C58.994 29.0227 58.4388 28.9349 57.9748 28.7592C57.5108 28.5869 57.1379 28.3549 56.8562 28.0632C56.5745 27.7715 56.3789 27.4484 56.2695 27.0938L57.8903 26.701C57.9632 26.8501 58.0692 26.9976 58.2085 27.1435C58.3477 27.2926 58.5349 27.4152 58.7702 27.5114C59.0089 27.6108 59.3088 27.6605 59.6701 27.6605C60.1805 27.6605 60.6031 27.5362 60.9379 27.2876C61.2726 27.0424 61.44 26.638 61.44 26.0746V24.6278H61.3505C61.2577 24.8134 61.1218 25.004 60.9428 25.1996C60.7672 25.3951 60.5335 25.5592 60.2418 25.6918C59.9535 25.8243 59.5906 25.8906 59.1531 25.8906C58.5664 25.8906 58.0344 25.7531 57.5572 25.478C57.0832 25.1996 56.7054 24.7853 56.4237 24.2351C56.1452 23.6816 56.006 22.9889 56.006 22.157C56.006 21.3184 56.1452 20.6108 56.4237 20.0341C56.7054 19.4541 57.0849 19.0149 57.5621 18.7166C58.0394 18.415 58.5714 18.2642 59.158 18.2642C59.6055 18.2642 59.9734 18.3404 60.2617 18.4929C60.5534 18.642 60.7854 18.8227 60.9577 19.0348C61.1301 19.2436 61.261 19.4408 61.3505 19.6264H61.4499V18.3636H63.2248V26.1243C63.2248 26.7772 63.069 27.3175 62.7575 27.745C62.4459 28.1726 62.02 28.4924 61.4798 28.7045C60.9395 28.9167 60.3263 29.0227 59.6403 29.0227ZM59.6552 24.4787C60.0363 24.4787 60.3612 24.3859 60.6296 24.2003C60.8981 24.0147 61.1019 23.7479 61.2411 23.3999C61.3803 23.0518 61.4499 22.6342 61.4499 22.147C61.4499 21.6664 61.3803 21.2455 61.2411 20.8842C61.1052 20.523 60.9031 20.2429 60.6346 20.044C60.3694 19.8419 60.043 19.7408 59.6552 19.7408C59.2541 19.7408 58.9194 19.8452 58.6509 20.054C58.3825 20.2628 58.1803 20.5495 58.0444 20.9141C57.9085 21.2753 57.8406 21.6863 57.8406 22.147C57.8406 22.6143 57.9085 23.0237 58.0444 23.375C58.1836 23.723 58.3874 23.9948 58.6559 24.1903C58.9277 24.3826 59.2608 24.4787 59.6552 24.4787Z" fill="#4493F8"/>
<path d="M12.5795 45.2102V44.2727H19.125V45.2102H16.3807V53H15.3239V45.2102H12.5795ZM19.94 53V46.4545H20.9116V47.4432H20.9798C21.0991 47.1193 21.315 46.8565 21.6275 46.6548C21.94 46.4531 22.2923 46.3523 22.6843 46.3523C22.7582 46.3523 22.8505 46.3537 22.9613 46.3565C23.0721 46.3594 23.1559 46.3636 23.2127 46.3693V47.392C23.1786 47.3835 23.1005 47.3707 22.9783 47.3537C22.859 47.3338 22.7326 47.3239 22.5991 47.3239C22.2809 47.3239 21.9968 47.3906 21.7468 47.5241C21.4996 47.6548 21.3036 47.8366 21.1587 48.0696C21.0167 48.2997 20.9457 48.5625 20.9457 48.858V53H19.94ZM26.331 53.1534C25.9162 53.1534 25.5398 53.0753 25.2017 52.919C24.8636 52.7599 24.5952 52.5312 24.3963 52.233C24.1974 51.9318 24.098 51.5682 24.098 51.142C24.098 50.767 24.1719 50.4631 24.3196 50.2301C24.4673 49.9943 24.6648 49.8097 24.9119 49.6761C25.1591 49.5426 25.4318 49.4432 25.7301 49.3778C26.0313 49.3097 26.3338 49.2557 26.6378 49.2159C27.0355 49.1648 27.358 49.1264 27.6051 49.1009C27.8551 49.0724 28.0369 49.0256 28.1506 48.9602C28.267 48.8949 28.3253 48.7812 28.3253 48.6193V48.5852C28.3253 48.1648 28.2102 47.8381 27.9801 47.6051C27.7528 47.3722 27.4077 47.2557 26.9446 47.2557C26.4645 47.2557 26.0881 47.3608 25.8153 47.571C25.5426 47.7812 25.3509 48.0057 25.2401 48.2443L24.2855 47.9034C24.456 47.5057 24.6832 47.196 24.9673 46.9744C25.2543 46.75 25.5668 46.5937 25.9048 46.5057C26.2457 46.4148 26.581 46.3693 26.9105 46.3693C27.1207 46.3693 27.3622 46.3949 27.6349 46.446C27.9105 46.4943 28.1761 46.5952 28.4318 46.7486C28.6903 46.902 28.9048 47.1335 29.0753 47.4432C29.2457 47.7528 29.331 48.1676 29.331 48.6875V53H28.3253V52.1136H28.2741C28.206 52.2557 28.0923 52.4077 27.9332 52.5696C27.7741 52.7315 27.5625 52.8693 27.2983 52.983C27.0341 53.0966 26.7116 53.1534 26.331 53.1534ZM26.4844 52.25C26.8821 52.25 27.2173 52.1719 27.4901 52.0156C27.7656 51.8594 27.973 51.6577 28.1122 51.4105C28.2543 51.1634 28.3253 50.9034 28.3253 50.6307V49.7102C28.2827 49.7614 28.1889 49.8082 28.044 49.8509C27.902 49.8906 27.7372 49.9261 27.5497 49.9574C27.3651 49.9858 27.1847 50.0114 27.0085 50.0341C26.8352 50.054 26.6946 50.071 26.5866 50.0852C26.3253 50.1193 26.081 50.1747 25.8537 50.2514C25.6293 50.3253 25.4474 50.4375 25.3082 50.5881C25.1719 50.7358 25.1037 50.9375 25.1037 51.1932C25.1037 51.5426 25.233 51.8068 25.4915 51.9858C25.7528 52.1619 26.0838 52.25 26.4844 52.25ZM31.1665 53V46.4545H32.1722V53H31.1665ZM31.6779 45.3636C31.4819 45.3636 31.3129 45.2969 31.1708 45.1634C31.0316 45.0298 30.962 44.8693 30.962 44.6818C30.962 44.4943 31.0316 44.3338 31.1708 44.2003C31.3129 44.0668 31.4819 44 31.6779 44C31.8739 44 32.0415 44.0668 32.1808 44.2003C32.3228 44.3338 32.3938 44.4943 32.3938 44.6818C32.3938 44.8693 32.3228 45.0298 32.1808 45.1634C32.0415 45.2969 31.8739 45.3636 31.6779 45.3636ZM35.0199 49.0625V53H34.0142V46.4545H34.9858V47.4773H35.071C35.2244 47.1449 35.4574 46.8778 35.7699 46.6761C36.0824 46.4716 36.4858 46.3693 36.9801 46.3693C37.4233 46.3693 37.8111 46.4602 38.1435 46.642C38.4759 46.821 38.7344 47.0938 38.919 47.4602C39.1037 47.8239 39.196 48.2841 39.196 48.8409V53H38.1903V48.9091C38.1903 48.3949 38.0568 47.9943 37.7898 47.7074C37.5227 47.4176 37.1563 47.2727 36.6903 47.2727C36.3693 47.2727 36.0824 47.3423 35.8295 47.4815C35.5795 47.6207 35.3821 47.8239 35.2372 48.0909C35.0923 48.358 35.0199 48.6818 35.0199 49.0625ZM41.0337 53V46.4545H42.0394V53H41.0337ZM41.5451 45.3636C41.3491 45.3636 41.18 45.2969 41.038 45.1634C40.8988 45.0298 40.8292 44.8693 40.8292 44.6818C40.8292 44.4943 40.8988 44.3338 41.038 44.2003C41.18 44.0668 41.3491 44 41.5451 44C41.7411 44 41.9087 44.0668 42.0479 44.2003C42.19 44.3338 42.261 44.4943 42.261 44.6818C42.261 44.8693 42.19 45.0298 42.0479 45.1634C41.9087 45.2969 41.7411 45.3636 41.5451 45.3636ZM44.8871 49.0625V53H43.8814V46.4545H44.853V47.4773H44.9382C45.0916 47.1449 45.3246 46.8778 45.6371 46.6761C45.9496 46.4716 46.353 46.3693 46.8473 46.3693C47.2905 46.3693 47.6783 46.4602 48.0107 46.642C48.343 46.821 48.6016 47.0938 48.7862 47.4602C48.9709 47.8239 49.0632 48.2841 49.0632 48.8409V53H48.0575V48.9091C48.0575 48.3949 47.924 47.9943 47.657 47.7074C47.3899 47.4176 47.0234 47.2727 46.5575 47.2727C46.2365 47.2727 45.9496 47.3423 45.6967 47.4815C45.4467 47.6207 45.2493 47.8239 45.1044 48.0909C44.9595 48.358 44.8871 48.6818 44.8871 49.0625ZM53.543 55.5909C53.0572 55.5909 52.6396 55.5284 52.2901 55.4034C51.9407 55.2812 51.6495 55.1193 51.4165 54.9176C51.1864 54.7188 51.0032 54.5057 50.8668 54.2784L51.668 53.7159C51.7589 53.8352 51.8739 53.9716 52.0131 54.125C52.1523 54.2812 52.3427 54.4162 52.5842 54.5298C52.8285 54.6463 53.1481 54.7045 53.543 54.7045C54.0714 54.7045 54.5075 54.5767 54.8512 54.321C55.195 54.0653 55.3668 53.6648 55.3668 53.1193V51.7898H55.2816C55.2077 51.9091 55.1026 52.0568 54.9663 52.233C54.8327 52.4062 54.6396 52.5611 54.3867 52.6974C54.1367 52.831 53.7987 52.8977 53.3725 52.8977C52.8441 52.8977 52.3697 52.7727 51.9492 52.5227C51.5316 52.2727 51.2006 51.9091 50.9563 51.4318C50.7148 50.9545 50.5941 50.375 50.5941 49.6932C50.5941 49.0227 50.712 48.4389 50.9478 47.9418C51.1836 47.4418 51.5117 47.0554 51.9322 46.7827C52.3526 46.5071 52.8384 46.3693 53.3896 46.3693C53.8157 46.3693 54.1538 46.4403 54.4038 46.5824C54.6566 46.7216 54.8498 46.8807 54.9833 47.0597C55.1197 47.2358 55.2248 47.3807 55.2987 47.4943H55.4009V46.4545H56.3725V53.1875C56.3725 53.75 56.2447 54.2074 55.989 54.5597C55.7362 54.9148 55.3952 55.1747 54.9663 55.3395C54.5401 55.5071 54.0657 55.5909 53.543 55.5909ZM53.5089 51.9943C53.9123 51.9943 54.2532 51.902 54.5316 51.7173C54.81 51.5327 55.0217 51.267 55.1665 50.9205C55.3114 50.5739 55.3839 50.1591 55.3839 49.6761C55.3839 49.2045 55.3129 48.7884 55.1708 48.4276C55.0288 48.0668 54.8185 47.7841 54.5401 47.5795C54.2617 47.375 53.918 47.2727 53.5089 47.2727C53.0827 47.2727 52.7276 47.3807 52.4435 47.5966C52.1623 47.8125 51.9506 48.1023 51.8086 48.4659C51.6694 48.8295 51.5998 49.233 51.5998 49.6761C51.5998 50.1307 51.6708 50.5327 51.8129 50.8821C51.9577 51.2287 52.1708 51.5014 52.4521 51.7003C52.7362 51.8963 53.0884 51.9943 53.5089 51.9943ZM63.5146 53.1534C63.0998 53.1534 62.7234 53.0753 62.3853 52.919C62.0472 52.7599 61.7788 52.5312 61.5799 52.233C61.381 51.9318 61.2816 51.5682 61.2816 51.142C61.2816 50.767 61.3555 50.4631 61.5032 50.2301C61.6509 49.9943 61.8484 49.8097 62.0955 49.6761C62.3427 49.5426 62.6154 49.4432 62.9137 49.3778C63.2148 49.3097 63.5174 49.2557 63.8214 49.2159C64.2191 49.1648 64.5415 49.1264 64.7887 49.1009C65.0387 49.0724 65.2205 49.0256 65.3342 48.9602C65.4506 48.8949 65.5089 48.7812 65.5089 48.6193V48.5852C65.5089 48.1648 65.3938 47.8381 65.1637 47.6051C64.9364 47.3722 64.5913 47.2557 64.1282 47.2557C63.6481 47.2557 63.2717 47.3608 62.9989 47.571C62.7262 47.7812 62.5344 48.0057 62.4237 48.2443L61.4691 47.9034C61.6396 47.5057 61.8668 47.196 62.1509 46.9744C62.4379 46.75 62.7504 46.5937 63.0884 46.5057C63.4293 46.4148 63.7646 46.3693 64.0941 46.3693C64.3043 46.3693 64.5458 46.3949 64.8185 46.446C65.0941 46.4943 65.3597 46.5952 65.6154 46.7486C65.8739 46.902 66.0884 47.1335 66.2589 47.4432C66.4293 47.7528 66.5146 48.1676 66.5146 48.6875V53H65.5089V52.1136H65.4577C65.3896 52.2557 65.2759 52.4077 65.1168 52.5696C64.9577 52.7315 64.7461 52.8693 64.4819 52.983C64.2177 53.0966 63.8952 53.1534 63.5146 53.1534ZM63.668 52.25C64.0657 52.25 64.4009 52.1719 64.6737 52.0156C64.9492 51.8594 65.1566 51.6577 65.2958 51.4105C65.4379 51.1634 65.5089 50.9034 65.5089 50.6307V49.7102C65.4663 49.7614 65.3725 49.8082 65.2276 49.8509C65.0856 49.8906 64.9208 49.9261 64.7333 49.9574C64.5487 49.9858 64.3683 50.0114 64.1921 50.0341C64.0188 50.054 63.8782 50.071 63.7702 50.0852C63.5089 50.1193 63.2646 50.1747 63.0373 50.2514C62.8129 50.3253 62.631 50.4375 62.4918 50.5881C62.3555 50.7358 62.2873 50.9375 62.2873 51.1932C62.2873 51.5426 62.4165 51.8068 62.6751 51.9858C62.9364 52.1619 63.2674 52.25 63.668 52.25ZM72.7308 49.0625V53H71.7251V46.4545H72.6967V47.4773H72.782C72.9354 47.1449 73.1683 46.8778 73.4808 46.6761C73.7933 46.4716 74.1967 46.3693 74.6911 46.3693C75.1342 46.3693 75.522 46.4602 75.8544 46.642C76.1868 46.821 76.4453 47.0938 76.63 47.4602C76.8146 47.8239 76.907 48.2841 76.907 48.8409V53H75.9013V48.9091C75.9013 48.3949 75.7678 47.9943 75.5007 47.7074C75.2337 47.4176 74.8672 47.2727 74.4013 47.2727C74.0803 47.2727 73.7933 47.3423 73.5405 47.4815C73.2905 47.6207 73.093 47.8239 72.9482 48.0909C72.8033 48.358 72.7308 48.6818 72.7308 49.0625ZM81.489 53.1364C80.8583 53.1364 80.3143 52.9972 79.8569 52.7188C79.4023 52.4375 79.0515 52.0455 78.8043 51.5426C78.56 51.0369 78.4379 50.4489 78.4379 49.7784C78.4379 49.108 78.56 48.517 78.8043 48.0057C79.0515 47.4915 79.3952 47.0909 79.8356 46.804C80.2788 46.5142 80.7958 46.3693 81.3867 46.3693C81.7276 46.3693 82.0643 46.4261 82.3967 46.5398C82.729 46.6534 83.0316 46.8381 83.3043 47.0938C83.5771 47.3466 83.7944 47.6818 83.9563 48.0994C84.1183 48.517 84.1992 49.0312 84.1992 49.642V50.0682H79.1538V49.1989H83.1765C83.1765 48.8295 83.1026 48.5 82.9549 48.2102C82.81 47.9205 82.6026 47.6918 82.3327 47.5241C82.0657 47.3565 81.7504 47.2727 81.3867 47.2727C80.9862 47.2727 80.6396 47.3722 80.3469 47.571C80.0572 47.767 79.8342 48.0227 79.6779 48.3381C79.5217 48.6534 79.4435 48.9915 79.4435 49.3523V49.9318C79.4435 50.4261 79.5288 50.8452 79.6992 51.1889C79.8725 51.5298 80.1126 51.7898 80.4194 51.9688C80.7262 52.1449 81.0827 52.233 81.489 52.233C81.7532 52.233 81.9918 52.196 82.2049 52.1222C82.4208 52.0455 82.6069 51.9318 82.7631 51.7812C82.9194 51.6278 83.0401 51.4375 83.1254 51.2102L84.0969 51.483C83.9947 51.8125 83.8228 52.1023 83.5813 52.3523C83.3398 52.5994 83.0415 52.7926 82.6864 52.9318C82.3313 53.0682 81.9322 53.1364 81.489 53.1364ZM89.854 50.3239V46.4545H90.8597V53H89.854V51.892H89.7859C89.6325 52.2244 89.3938 52.5071 89.07 52.7401C88.7461 52.9702 88.337 53.0852 87.8427 53.0852C87.4336 53.0852 87.07 52.9957 86.7518 52.8168C86.4336 52.6349 86.1836 52.3622 86.0018 51.9986C85.82 51.6321 85.729 51.1705 85.729 50.6136V46.4545H86.7347V50.5455C86.7347 51.0227 86.8683 51.4034 87.1353 51.6875C87.4052 51.9716 87.7489 52.1136 88.1665 52.1136C88.4165 52.1136 88.6708 52.0497 88.9293 51.9219C89.1907 51.794 89.4094 51.598 89.5856 51.3338C89.7646 51.0696 89.854 50.733 89.854 50.3239ZM92.7017 53V46.4545H93.6733V47.4432H93.7415C93.8608 47.1193 94.0767 46.8565 94.3892 46.6548C94.7017 46.4531 95.054 46.3523 95.446 46.3523C95.5199 46.3523 95.6122 46.3537 95.723 46.3565C95.8338 46.3594 95.9176 46.3636 95.9744 46.3693V47.392C95.9403 47.3835 95.8622 47.3707 95.7401 47.3537C95.6207 47.3338 95.4943 47.3239 95.3608 47.3239C95.0426 47.3239 94.7585 47.3906 94.5085 47.5241C94.2614 47.6548 94.0653 47.8366 93.9205 48.0696C93.7784 48.2997 93.7074 48.5625 93.7074 48.858V53H92.7017ZM99.0927 53.1534C98.6779 53.1534 98.3015 53.0753 97.9634 52.919C97.6254 52.7599 97.3569 52.5312 97.158 52.233C96.9592 51.9318 96.8597 51.5682 96.8597 51.142C96.8597 50.767 96.9336 50.4631 97.0813 50.2301C97.229 49.9943 97.4265 49.8097 97.6737 49.6761C97.9208 49.5426 98.1935 49.4432 98.4918 49.3778C98.793 49.3097 99.0955 49.2557 99.3995 49.2159C99.7972 49.1648 100.12 49.1264 100.367 49.1009C100.617 49.0724 100.799 49.0256 100.912 48.9602C101.029 48.8949 101.087 48.7812 101.087 48.6193V48.5852C101.087 48.1648 100.972 47.8381 100.742 47.6051C100.515 47.3722 100.169 47.2557 99.7063 47.2557C99.2262 47.2557 98.8498 47.3608 98.5771 47.571C98.3043 47.7812 98.1126 48.0057 98.0018 48.2443L97.0472 47.9034C97.2177 47.5057 97.445 47.196 97.729 46.9744C98.016 46.75 98.3285 46.5937 98.6665 46.5057C99.0075 46.4148 99.3427 46.3693 99.6722 46.3693C99.8825 46.3693 100.124 46.3949 100.397 46.446C100.672 46.4943 100.938 46.5952 101.194 46.7486C101.452 46.902 101.667 47.1335 101.837 47.4432C102.007 47.7528 102.093 48.1676 102.093 48.6875V53H101.087V52.1136H101.036C100.968 52.2557 100.854 52.4077 100.695 52.5696C100.536 52.7315 100.324 52.8693 100.06 52.983C99.7958 53.0966 99.4734 53.1534 99.0927 53.1534ZM99.2461 52.25C99.6438 52.25 99.979 52.1719 100.252 52.0156C100.527 51.8594 100.735 51.6577 100.874 51.4105C101.016 51.1634 101.087 50.9034 101.087 50.6307V49.7102C101.044 49.7614 100.951 49.8082 100.806 49.8509C100.664 49.8906 100.499 49.9261 100.311 49.9574C100.127 49.9858 99.9464 50.0114 99.7702 50.0341C99.5969 50.054 99.4563 50.071 99.3484 50.0852C99.087 50.1193 98.8427 50.1747 98.6154 50.2514C98.391 50.3253 98.2092 50.4375 98.07 50.5881C97.9336 50.7358 97.8654 50.9375 97.8654 51.1932C97.8654 51.5426 97.9947 51.8068 98.2532 51.9858C98.5146 52.1619 98.8455 52.25 99.2461 52.25ZM104.934 44.2727V53H103.928V44.2727H104.934ZM111.157 49.0625V53H110.151V46.4545H111.123V47.4773H111.208C111.361 47.1449 111.594 46.8778 111.907 46.6761C112.219 46.4716 112.623 46.3693 113.117 46.3693C113.56 46.3693 113.948 46.4602 114.28 46.642C114.613 46.821 114.871 47.0938 115.056 47.4602C115.24 47.8239 115.333 48.2841 115.333 48.8409V53H114.327V48.9091C114.327 48.3949 114.194 47.9943 113.926 47.7074C113.659 47.4176 113.293 47.2727 112.827 47.2727C112.506 47.2727 112.219 47.3423 111.966 47.4815C111.716 47.6207 111.519 47.8239 111.374 48.0909C111.229 48.358 111.157 48.6818 111.157 49.0625ZM119.915 53.1364C119.284 53.1364 118.74 52.9972 118.283 52.7188C117.828 52.4375 117.477 52.0455 117.23 51.5426C116.986 51.0369 116.864 50.4489 116.864 49.7784C116.864 49.108 116.986 48.517 117.23 48.0057C117.477 47.4915 117.821 47.0909 118.261 46.804C118.705 46.5142 119.222 46.3693 119.812 46.3693C120.153 46.3693 120.49 46.4261 120.822 46.5398C121.155 46.6534 121.457 46.8381 121.73 47.0938C122.003 47.3466 122.22 47.6818 122.382 48.0994C122.544 48.517 122.625 49.0312 122.625 49.642V50.0682H117.58V49.1989H121.602C121.602 48.8295 121.528 48.5 121.381 48.2102C121.236 47.9205 121.028 47.6918 120.759 47.5241C120.491 47.3565 120.176 47.2727 119.812 47.2727C119.412 47.2727 119.065 47.3722 118.773 47.571C118.483 47.767 118.26 48.0227 118.104 48.3381C117.947 48.6534 117.869 48.9915 117.869 49.3523V49.9318C117.869 50.4261 117.955 50.8452 118.125 51.1889C118.298 51.5298 118.538 51.7898 118.845 51.9688C119.152 52.1449 119.509 52.233 119.915 52.233C120.179 52.233 120.418 52.196 120.631 52.1222C120.847 52.0455 121.033 51.9318 121.189 51.7812C121.345 51.6278 121.466 51.4375 121.551 51.2102L122.523 51.483C122.42 51.8125 122.249 52.1023 122.007 52.3523C121.766 52.5994 121.467 52.7926 121.112 52.9318C120.757 53.0682 120.358 53.1364 119.915 53.1364ZM127.001 46.4545V47.3068H123.609V46.4545H127.001ZM124.598 44.8864H125.604V51.125C125.604 51.4091 125.645 51.6222 125.727 51.7642C125.813 51.9034 125.92 51.9972 126.051 52.0455C126.185 52.0909 126.325 52.1136 126.473 52.1136C126.584 52.1136 126.675 52.108 126.746 52.0966C126.817 52.0824 126.874 52.071 126.916 52.0625L127.121 52.9659C127.053 52.9915 126.957 53.017 126.835 53.0426C126.713 53.071 126.558 53.0852 126.371 53.0852C126.087 53.0852 125.808 53.0241 125.536 52.902C125.266 52.7798 125.041 52.5938 124.862 52.3438C124.686 52.0938 124.598 51.7784 124.598 51.3977V44.8864ZM129.997 53L128.003 46.4545H129.06L130.474 51.4659H130.543L131.94 46.4545H133.014L134.395 51.4489H134.463L135.878 46.4545H136.935L134.94 53H133.952L132.52 47.9716H132.418L130.986 53H129.997ZM140.701 53.1364C140.11 53.1364 139.591 52.9957 139.145 52.7145C138.702 52.4332 138.355 52.0398 138.105 51.5341C137.858 51.0284 137.735 50.4375 137.735 49.7614C137.735 49.0795 137.858 48.4844 138.105 47.9759C138.355 47.4673 138.702 47.0724 139.145 46.7912C139.591 46.5099 140.11 46.3693 140.701 46.3693C141.292 46.3693 141.809 46.5099 142.252 46.7912C142.698 47.0724 143.044 47.4673 143.292 47.9759C143.542 48.4844 143.667 49.0795 143.667 49.7614C143.667 50.4375 143.542 51.0284 143.292 51.5341C143.044 52.0398 142.698 52.4332 142.252 52.7145C141.809 52.9957 141.292 53.1364 140.701 53.1364ZM140.701 52.233C141.15 52.233 141.519 52.1179 141.809 51.8878C142.098 51.6577 142.313 51.3551 142.452 50.9801C142.591 50.6051 142.661 50.1989 142.661 49.7614C142.661 49.3239 142.591 48.9162 142.452 48.5384C142.313 48.1605 142.098 47.8551 141.809 47.6222C141.519 47.3892 141.15 47.2727 140.701 47.2727C140.252 47.2727 139.882 47.3892 139.593 47.6222C139.303 47.8551 139.088 48.1605 138.949 48.5384C138.81 48.9162 138.74 49.3239 138.74 49.7614C138.74 50.1989 138.81 50.6051 138.949 50.9801C139.088 51.3551 139.303 51.6577 139.593 51.8878C139.882 52.1179 140.252 52.233 140.701 52.233ZM145.202 53V46.4545H146.173V47.4432H146.241C146.361 47.1193 146.577 46.8565 146.889 46.6548C147.202 46.4531 147.554 46.3523 147.946 46.3523C148.02 46.3523 148.112 46.3537 148.223 46.3565C148.334 46.3594 148.418 46.3636 148.474 46.3693V47.392C148.44 47.3835 148.362 47.3707 148.24 47.3537C148.121 47.3338 147.994 47.3239 147.861 47.3239C147.543 47.3239 147.259 47.3906 147.009 47.5241C146.761 47.6548 146.565 47.8366 146.42 48.0696C146.278 48.2997 146.207 48.5625 146.207 48.858V53H145.202ZM150.604 50.6136L150.587 49.3693H150.792L153.655 46.4545H154.9L151.848 49.5398H151.763L150.604 50.6136ZM149.667 53V44.2727H150.672V53H149.667ZM153.826 53L151.269 49.7614L151.985 49.0625L155.104 53H153.826ZM162.415 46.4545V47.3068H159.023V46.4545H162.415ZM160.012 44.8864H161.018V51.125C161.018 51.4091 161.059 51.6222 161.141 51.7642C161.227 51.9034 161.335 51.9972 161.465 52.0455C161.599 52.0909 161.739 52.1136 161.887 52.1136C161.998 52.1136 162.089 52.108 162.16 52.0966C162.231 52.0824 162.288 52.071 162.33 52.0625L162.535 52.9659C162.467 52.9915 162.371 53.017 162.249 53.0426C162.127 53.071 161.972 53.0852 161.785 53.0852C161.501 53.0852 161.222 53.0241 160.95 52.902C160.68 52.7798 160.455 52.5938 160.276 52.3438C160.1 52.0938 160.012 51.7784 160.012 51.3977V44.8864ZM166.517 53.1364C165.926 53.1364 165.408 52.9957 164.962 52.7145C164.518 52.4332 164.172 52.0398 163.922 51.5341C163.675 51.0284 163.551 50.4375 163.551 49.7614C163.551 49.0795 163.675 48.4844 163.922 47.9759C164.172 47.4673 164.518 47.0724 164.962 46.7912C165.408 46.5099 165.926 46.3693 166.517 46.3693C167.108 46.3693 167.625 46.5099 168.068 46.7912C168.514 47.0724 168.861 47.4673 169.108 47.9759C169.358 48.4844 169.483 49.0795 169.483 49.7614C169.483 50.4375 169.358 51.0284 169.108 51.5341C168.861 52.0398 168.514 52.4332 168.068 52.7145C167.625 52.9957 167.108 53.1364 166.517 53.1364ZM166.517 52.233C166.966 52.233 167.335 52.1179 167.625 51.8878C167.915 51.6577 168.129 51.3551 168.268 50.9801C168.408 50.6051 168.477 50.1989 168.477 49.7614C168.477 49.3239 168.408 48.9162 168.268 48.5384C168.129 48.1605 167.915 47.8551 167.625 47.6222C167.335 47.3892 166.966 47.2727 166.517 47.2727C166.068 47.2727 165.699 47.3892 165.409 47.6222C165.119 47.8551 164.905 48.1605 164.766 48.5384C164.626 48.9162 164.557 49.3239 164.557 49.7614C164.557 50.1989 164.626 50.6051 164.766 50.9801C164.905 51.3551 165.119 51.6577 165.409 51.8878C165.699 52.1179 166.068 52.233 166.517 52.233ZM174.393 55.4545V46.4545H175.365V47.4943H175.484C175.558 47.3807 175.66 47.2358 175.791 47.0597C175.924 46.8807 176.115 46.7216 176.362 46.5824C176.612 46.4403 176.95 46.3693 177.376 46.3693C177.927 46.3693 178.413 46.5071 178.833 46.7827C179.254 47.0582 179.582 47.4489 179.818 47.9545C180.054 48.4602 180.172 49.0568 180.172 49.7443C180.172 50.4375 180.054 51.0384 179.818 51.5469C179.582 52.0526 179.255 52.4446 178.838 52.723C178.42 52.9986 177.939 53.1364 177.393 53.1364C176.973 53.1364 176.636 53.0668 176.383 52.9276C176.13 52.7855 175.936 52.625 175.799 52.446C175.663 52.2642 175.558 52.1136 175.484 51.9943H175.399V55.4545H174.393ZM175.382 49.7273C175.382 50.2216 175.454 50.6577 175.599 51.0355C175.744 51.4105 175.956 51.7045 176.234 51.9176C176.512 52.1278 176.853 52.233 177.257 52.233C177.677 52.233 178.028 52.1222 178.309 51.9006C178.593 51.6761 178.806 51.375 178.949 50.9972C179.093 50.6165 179.166 50.1932 179.166 49.7273C179.166 49.267 179.095 48.8523 178.953 48.483C178.814 48.1108 178.602 47.8168 178.318 47.6009C178.037 47.3821 177.683 47.2727 177.257 47.2727C176.848 47.2727 176.504 47.3764 176.225 47.5838C175.947 47.7884 175.737 48.0753 175.595 48.4446C175.453 48.8111 175.382 49.2386 175.382 49.7273ZM182.711 44.2727V53H181.706V44.2727H182.711ZM186.479 53.1534C186.065 53.1534 185.688 53.0753 185.35 52.919C185.012 52.7599 184.744 52.5312 184.545 52.233C184.346 51.9318 184.246 51.5682 184.246 51.142C184.246 50.767 184.32 50.4631 184.468 50.2301C184.616 49.9943 184.813 49.8097 185.06 49.6761C185.308 49.5426 185.58 49.4432 185.879 49.3778C186.18 49.3097 186.482 49.2557 186.786 49.2159C187.184 49.1648 187.506 49.1264 187.754 49.1009C188.004 49.0724 188.185 49.0256 188.299 48.9602C188.415 48.8949 188.474 48.7812 188.474 48.6193V48.5852C188.474 48.1648 188.359 47.8381 188.129 47.6051C187.901 47.3722 187.556 47.2557 187.093 47.2557C186.613 47.2557 186.237 47.3608 185.964 47.571C185.691 47.7812 185.499 48.0057 185.388 48.2443L184.434 47.9034C184.604 47.5057 184.832 47.196 185.116 46.9744C185.403 46.75 185.715 46.5937 186.053 46.5057C186.394 46.4148 186.729 46.3693 187.059 46.3693C187.269 46.3693 187.511 46.3949 187.783 46.446C188.059 46.4943 188.325 46.5952 188.58 46.7486C188.839 46.902 189.053 47.1335 189.224 47.4432C189.394 47.7528 189.479 48.1676 189.479 48.6875V53H188.474V52.1136H188.423C188.354 52.2557 188.241 52.4077 188.082 52.5696C187.923 52.7315 187.711 52.8693 187.447 52.983C187.183 53.0966 186.86 53.1534 186.479 53.1534ZM186.633 52.25C187.031 52.25 187.366 52.1719 187.638 52.0156C187.914 51.8594 188.121 51.6577 188.261 51.4105C188.403 51.1634 188.474 50.9034 188.474 50.6307V49.7102C188.431 49.7614 188.337 49.8082 188.192 49.8509C188.05 49.8906 187.886 49.9261 187.698 49.9574C187.513 49.9858 187.333 50.0114 187.157 50.0341C186.984 50.054 186.843 50.071 186.735 50.0852C186.474 50.1193 186.229 50.1747 186.002 50.2514C185.778 50.3253 185.596 50.4375 185.457 50.5881C185.32 50.7358 185.252 50.9375 185.252 51.1932C185.252 51.5426 185.381 51.8068 185.64 51.9858C185.901 52.1619 186.232 52.25 186.633 52.25ZM191.728 55.4545C191.558 55.4545 191.406 55.4403 191.272 55.4119C191.139 55.3864 191.047 55.3608 190.995 55.3352L191.251 54.4489C191.495 54.5114 191.711 54.5341 191.899 54.517C192.086 54.5 192.252 54.4162 192.397 54.2656C192.545 54.1179 192.68 53.8778 192.802 53.5455L192.99 53.0341L190.569 46.4545H191.66L193.467 51.6705H193.535L195.342 46.4545H196.433L193.654 53.9545C193.529 54.2926 193.375 54.5724 193.19 54.794C193.005 55.0185 192.791 55.1847 192.547 55.2926C192.305 55.4006 192.032 55.4545 191.728 55.4545ZM201.272 53V44.2727H204.221C204.905 44.2727 205.465 44.3963 205.9 44.6435C206.337 44.8878 206.661 45.2188 206.871 45.6364C207.081 46.054 207.186 46.5199 207.186 47.0341C207.186 47.5483 207.081 48.0156 206.871 48.4361C206.664 48.8565 206.343 49.1918 205.908 49.4418C205.473 49.6889 204.917 49.8125 204.238 49.8125H202.124V48.875H204.203C204.672 48.875 205.049 48.794 205.333 48.6321C205.617 48.4702 205.823 48.2514 205.951 47.9759C206.081 47.6974 206.147 47.3835 206.147 47.0341C206.147 46.6847 206.081 46.3722 205.951 46.0966C205.823 45.821 205.615 45.6051 205.328 45.4489C205.042 45.2898 204.661 45.2102 204.186 45.2102H202.328V53H201.272ZM211.341 53.1364C210.75 53.1364 210.232 52.9957 209.786 52.7145C209.343 52.4332 208.996 52.0398 208.746 51.5341C208.499 51.0284 208.375 50.4375 208.375 49.7614C208.375 49.0795 208.499 48.4844 208.746 47.9759C208.996 47.4673 209.343 47.0724 209.786 46.7912C210.232 46.5099 210.75 46.3693 211.341 46.3693C211.932 46.3693 212.449 46.5099 212.892 46.7912C213.338 47.0724 213.685 47.4673 213.932 47.9759C214.182 48.4844 214.307 49.0795 214.307 49.7614C214.307 50.4375 214.182 51.0284 213.932 51.5341C213.685 52.0398 213.338 52.4332 212.892 52.7145C212.449 52.9957 211.932 53.1364 211.341 53.1364ZM211.341 52.233C211.79 52.233 212.159 52.1179 212.449 51.8878C212.739 51.6577 212.953 51.3551 213.093 50.9801C213.232 50.6051 213.301 50.1989 213.301 49.7614C213.301 49.3239 213.232 48.9162 213.093 48.5384C212.953 48.1605 212.739 47.8551 212.449 47.6222C212.159 47.3892 211.79 47.2727 211.341 47.2727C210.892 47.2727 210.523 47.3892 210.233 47.6222C209.944 47.8551 209.729 48.1605 209.59 48.5384C209.451 48.9162 209.381 49.3239 209.381 49.7614C209.381 50.1989 209.451 50.6051 209.59 50.9801C209.729 51.3551 209.944 51.6577 210.233 51.8878C210.523 52.1179 210.892 52.233 211.341 52.233ZM216.848 49.0625V53H215.842V46.4545H216.814V47.4773H216.899C217.053 47.1449 217.286 46.8778 217.598 46.6761C217.911 46.4716 218.314 46.3693 218.808 46.3693C219.251 46.3693 219.639 46.4602 219.972 46.642C220.304 46.821 220.563 47.0938 220.747 47.4602C220.932 47.8239 221.024 48.2841 221.024 48.8409V53H220.018V48.9091C220.018 48.3949 219.885 47.9943 219.618 47.7074C219.351 47.4176 218.984 47.2727 218.518 47.2727C218.197 47.2727 217.911 47.3423 217.658 47.4815C217.408 47.6207 217.21 47.8239 217.065 48.0909C216.92 48.358 216.848 48.6818 216.848 49.0625ZM225.504 55.5909C225.018 55.5909 224.6 55.5284 224.251 55.4034C223.902 55.2812 223.61 55.1193 223.377 54.9176C223.147 54.7188 222.964 54.5057 222.828 54.2784L223.629 53.7159C223.72 53.8352 223.835 53.9716 223.974 54.125C224.113 54.2812 224.304 54.4162 224.545 54.5298C224.789 54.6463 225.109 54.7045 225.504 54.7045C226.032 54.7045 226.468 54.5767 226.812 54.321C227.156 54.0653 227.328 53.6648 227.328 53.1193V51.7898H227.243C227.169 51.9091 227.064 52.0568 226.927 52.233C226.794 52.4062 226.6 52.5611 226.348 52.6974C226.098 52.831 225.76 52.8977 225.333 52.8977C224.805 52.8977 224.331 52.7727 223.91 52.5227C223.493 52.2727 223.162 51.9091 222.917 51.4318C222.676 50.9545 222.555 50.375 222.555 49.6932C222.555 49.0227 222.673 48.4389 222.909 47.9418C223.145 47.4418 223.473 47.0554 223.893 46.7827C224.314 46.5071 224.799 46.3693 225.35 46.3693C225.777 46.3693 226.115 46.4403 226.365 46.5824C226.618 46.7216 226.811 46.8807 226.944 47.0597C227.081 47.2358 227.186 47.3807 227.26 47.4943H227.362V46.4545H228.333V53.1875C228.333 53.75 228.206 54.2074 227.95 54.5597C227.697 54.9148 227.356 55.1747 226.927 55.3395C226.501 55.5071 226.027 55.5909 225.504 55.5909ZM225.47 51.9943C225.873 51.9943 226.214 51.902 226.493 51.7173C226.771 51.5327 226.983 51.267 227.127 50.9205C227.272 50.5739 227.345 50.1591 227.345 49.6761C227.345 49.2045 227.274 48.7884 227.132 48.4276C226.99 48.0668 226.779 47.7841 226.501 47.5795C226.223 47.375 225.879 47.2727 225.47 47.2727C225.044 47.2727 224.689 47.3807 224.404 47.5966C224.123 47.8125 223.912 48.1023 223.77 48.4659C223.63 48.8295 223.561 49.233 223.561 49.6761C223.561 50.1307 223.632 50.5327 223.774 50.8821C223.919 51.2287 224.132 51.5014 224.413 51.7003C224.697 51.8963 225.049 51.9943 225.47 51.9943ZM233.549 53V46.4545H234.555V53H233.549ZM234.061 45.3636C233.865 45.3636 233.696 45.2969 233.554 45.1634C233.414 45.0298 233.345 44.8693 233.345 44.6818C233.345 44.4943 233.414 44.3338 233.554 44.2003C233.696 44.0668 233.865 44 234.061 44C234.257 44 234.424 44.0668 234.564 44.2003C234.706 44.3338 234.777 44.4943 234.777 44.6818C234.777 44.8693 234.706 45.0298 234.564 45.1634C234.424 45.2969 234.257 45.3636 234.061 45.3636ZM237.403 49.0625V53H236.397V46.4545H237.369V47.4773H237.454C237.607 47.1449 237.84 46.8778 238.153 46.6761C238.465 46.4716 238.869 46.3693 239.363 46.3693C239.806 46.3693 240.194 46.4602 240.526 46.642C240.859 46.821 241.117 47.0938 241.302 47.4602C241.487 47.8239 241.579 48.2841 241.579 48.8409V53H240.573V48.9091C240.573 48.3949 240.44 47.9943 240.173 47.7074C239.906 47.4176 239.539 47.2727 239.073 47.2727C238.752 47.2727 238.465 47.3423 238.212 47.4815C237.962 47.6207 237.765 47.8239 237.62 48.0909C237.475 48.358 237.403 48.6818 237.403 49.0625ZM252.655 44.2727H253.712V50.0511C253.712 50.6477 253.571 51.1804 253.29 51.6491C253.012 52.1151 252.618 52.483 252.11 52.7528C251.601 53.0199 251.005 53.1534 250.32 53.1534C249.635 53.1534 249.039 53.0199 248.53 52.7528C248.022 52.483 247.627 52.1151 247.346 51.6491C247.067 51.1804 246.928 50.6477 246.928 50.0511V44.2727H247.985V49.9659C247.985 50.392 248.078 50.7713 248.266 51.1037C248.453 51.4332 248.721 51.6932 249.067 51.8835C249.417 52.071 249.834 52.1648 250.32 52.1648C250.806 52.1648 251.223 52.071 251.573 51.8835C251.922 51.6932 252.189 51.4332 252.374 51.1037C252.561 50.7713 252.655 50.392 252.655 49.9659V44.2727ZM256.692 49.0625V53H255.686V46.4545H256.658V47.4773H256.743C256.896 47.1449 257.129 46.8778 257.442 46.6761C257.754 46.4716 258.158 46.3693 258.652 46.3693C259.095 46.3693 259.483 46.4602 259.815 46.642C260.148 46.821 260.406 47.0938 260.591 47.4602C260.776 47.8239 260.868 48.2841 260.868 48.8409V53H259.862V48.9091C259.862 48.3949 259.729 47.9943 259.462 47.7074C259.195 47.4176 258.828 47.2727 258.362 47.2727C258.041 47.2727 257.754 47.3423 257.501 47.4815C257.251 47.6207 257.054 47.8239 256.909 48.0909C256.764 48.358 256.692 48.6818 256.692 49.0625ZM262.706 53V46.4545H263.711V53H262.706ZM263.217 45.3636C263.021 45.3636 262.852 45.2969 262.71 45.1634C262.571 45.0298 262.501 44.8693 262.501 44.6818C262.501 44.4943 262.571 44.3338 262.71 44.2003C262.852 44.0668 263.021 44 263.217 44C263.413 44 263.581 44.0668 263.72 44.2003C263.862 44.3338 263.933 44.4943 263.933 44.6818C263.933 44.8693 263.862 45.0298 263.72 45.1634C263.581 45.2969 263.413 45.3636 263.217 45.3636ZM268.4 46.4545V47.3068H265.008V46.4545H268.4ZM265.996 44.8864H267.002V51.125C267.002 51.4091 267.043 51.6222 267.126 51.7642C267.211 51.9034 267.319 51.9972 267.45 52.0455C267.583 52.0909 267.724 52.1136 267.871 52.1136C267.982 52.1136 268.073 52.108 268.144 52.0966C268.215 52.0824 268.272 52.071 268.315 52.0625L268.519 52.9659C268.451 52.9915 268.356 53.017 268.234 53.0426C268.112 53.071 267.957 53.0852 267.769 53.0852C267.485 53.0852 267.207 53.0241 266.934 52.902C266.664 52.7798 266.44 52.5938 266.261 52.3438C266.085 52.0938 265.996 51.7784 265.996 51.3977V44.8864ZM270.56 55.4545C270.39 55.4545 270.238 55.4403 270.104 55.4119C269.971 55.3864 269.879 55.3608 269.827 55.3352L270.083 54.4489C270.327 54.5114 270.543 54.5341 270.731 54.517C270.918 54.5 271.085 54.4162 271.229 54.2656C271.377 54.1179 271.512 53.8778 271.634 53.5455L271.822 53.0341L269.401 46.4545H270.492L272.299 51.6705H272.367L274.174 46.4545H275.265L272.487 53.9545C272.362 54.2926 272.207 54.5724 272.022 54.794C271.837 55.0185 271.623 55.1847 271.379 55.2926C271.137 55.4006 270.864 55.4545 270.56 55.4545Z" fill="#768395"/>
<circle cx="18" cy="79" r="6" fill="#178600"/>
<circle cx="18" cy="79" r="5.5" stroke="white" stroke-opacity="0.14902"/>
<path d="M40.0795 77.5H39.0227C38.9602 77.196 38.8509 76.929 38.6946 76.6989C38.5412 76.4688 38.3537 76.2756 38.1321 76.1193C37.9134 75.9602 37.6705 75.8409 37.4034 75.7614C37.1364 75.6818 36.858 75.642 36.5682 75.642C36.0398 75.642 35.5611 75.7756 35.1321 76.0426C34.706 76.3097 34.3665 76.7031 34.1136 77.223C33.8636 77.7429 33.7386 78.3807 33.7386 79.1364C33.7386 79.892 33.8636 80.5298 34.1136 81.0497C34.3665 81.5696 34.706 81.9631 35.1321 82.2301C35.5611 82.4972 36.0398 82.6307 36.5682 82.6307C36.858 82.6307 37.1364 82.5909 37.4034 82.5114C37.6705 82.4318 37.9134 82.3139 38.1321 82.1577C38.3537 81.9986 38.5412 81.804 38.6946 81.5739C38.8509 81.3409 38.9602 81.0739 39.0227 80.7727H40.0795C40 81.2187 39.8551 81.6179 39.6449 81.9702C39.4347 82.3224 39.1733 82.6222 38.8608 82.8693C38.5483 83.1136 38.1974 83.2997 37.8082 83.4276C37.4219 83.5554 37.0085 83.6193 36.5682 83.6193C35.8239 83.6193 35.1619 83.4375 34.5824 83.0739C34.0028 82.7102 33.5469 82.1932 33.2145 81.5227C32.8821 80.8523 32.7159 80.0568 32.7159 79.1364C32.7159 78.2159 32.8821 77.4205 33.2145 76.75C33.5469 76.0795 34.0028 75.5625 34.5824 75.1989C35.1619 74.8352 35.8239 74.6534 36.5682 74.6534C37.0085 74.6534 37.4219 74.7173 37.8082 74.8452C38.1974 74.973 38.5483 75.1605 38.8608 75.4077C39.1733 75.652 39.4347 75.9503 39.6449 76.3026C39.8551 76.652 40 77.0511 40.0795 77.5ZM44.9066 83.5L46.3384 74.7727H47.1907L45.7589 83.5H44.9066ZM40.935 81.0795L41.0714 80.2273H47.5827L47.4464 81.0795H40.935ZM41.8384 83.5L43.2702 74.7727H44.1225L42.6907 83.5H41.8384ZM41.4464 78.0455L41.5827 77.1932H48.0941L47.9577 78.0455H41.4464Z" fill="#768395"/>
<rect x="61" y="68" width="50" height="22" rx="11" fill="#388BFD" fill-opacity="0.101961"/>
<path d="M77.7841 74.7727H78.8409V80.5511C78.8409 81.1477 78.7003 81.6804 78.419 82.1491C78.1406 82.6151 77.7472 82.983 77.2386 83.2528C76.7301 83.5199 76.1335 83.6534 75.4489 83.6534C74.7642 83.6534 74.1676 83.5199 73.6591 83.2528C73.1506 82.983 72.7557 82.6151 72.4744 82.1491C72.196 81.6804 72.0568 81.1477 72.0568 80.5511V74.7727H73.1136V80.4659C73.1136 80.892 73.2074 81.2713 73.3949 81.6037C73.5824 81.9332 73.8494 82.1932 74.196 82.3835C74.5455 82.571 74.9631 82.6648 75.4489 82.6648C75.9347 82.6648 76.3523 82.571 76.7017 82.3835C77.0511 82.1932 77.3182 81.9332 77.5028 81.6037C77.6903 81.2713 77.7841 80.892 77.7841 80.4659V74.7727ZM81.8207 79.5625V83.5H80.815V76.9545H81.7866V77.9773H81.8718C82.0252 77.6449 82.2582 77.3778 82.5707 77.1761C82.8832 76.9716 83.2866 76.8693 83.7809 76.8693C84.2241 76.8693 84.6119 76.9602 84.9442 77.142C85.2766 77.321 85.5352 77.5938 85.7198 77.9602C85.9045 78.3239 85.9968 78.7841 85.9968 79.3409V83.5H84.9911V79.4091C84.9911 78.8949 84.8576 78.4943 84.5906 78.2074C84.3235 77.9176 83.957 77.7727 83.4911 77.7727C83.1701 77.7727 82.8832 77.8423 82.6303 77.9815C82.3803 78.1207 82.1829 78.3239 82.038 78.5909C81.8931 78.858 81.8207 79.1818 81.8207 79.5625ZM87.8345 83.5V76.9545H88.8402V83.5H87.8345ZM88.3459 75.8636C88.1499 75.8636 87.9808 75.7969 87.8388 75.6634C87.6996 75.5298 87.63 75.3693 87.63 75.1818C87.63 74.9943 87.6996 74.8338 87.8388 74.7003C87.9808 74.5668 88.1499 74.5 88.3459 74.5C88.5419 74.5 88.7095 74.5668 88.8487 74.7003C88.9908 74.8338 89.0618 74.9943 89.0618 75.1818C89.0618 75.3693 88.9908 75.5298 88.8487 75.6634C88.7095 75.7969 88.5419 75.8636 88.3459 75.8636ZM93.5288 76.9545V77.8068H90.1367V76.9545H93.5288ZM91.1254 75.3864H92.131V81.625C92.131 81.9091 92.1722 82.1222 92.2546 82.2642C92.3398 82.4034 92.4478 82.4972 92.5785 82.5455C92.712 82.5909 92.8526 82.6136 93.0004 82.6136C93.1112 82.6136 93.2021 82.608 93.2731 82.5966C93.3441 82.5824 93.4009 82.571 93.4435 82.5625L93.6481 83.4659C93.5799 83.4915 93.4847 83.517 93.3626 83.5426C93.2404 83.571 93.0856 83.5852 92.8981 83.5852C92.614 83.5852 92.3356 83.5241 92.0629 83.402C91.793 83.2798 91.5685 83.0938 91.3896 82.8438C91.2134 82.5938 91.1254 82.2784 91.1254 81.8977V75.3864ZM95.6893 85.9545C95.5188 85.9545 95.3668 85.9403 95.2333 85.9119C95.0998 85.8864 95.0075 85.8608 94.9563 85.8352L95.212 84.9489C95.4563 85.0114 95.6722 85.0341 95.8597 85.017C96.0472 85 96.2134 84.9162 96.3583 84.7656C96.506 84.6179 96.641 84.3778 96.7631 84.0455L96.9506 83.5341L94.5302 76.9545H95.6211L97.4279 82.1705H97.4961L99.3029 76.9545H100.394L97.6154 84.4545C97.4904 84.7926 97.3356 85.0724 97.1509 85.294C96.9663 85.5185 96.7518 85.6847 96.5075 85.7926C96.266 85.9006 95.9933 85.9545 95.6893 85.9545Z" fill="#4493F8"/>
<rect x="123" y="68" width="82" height="22" rx="11" fill="#388BFD" fill-opacity="0.101961"/>
<path d="M134.057 74.7727H135.318L138.284 82.017H138.386L141.352 74.7727H142.614V83.5H141.625V76.8693H141.54L138.812 83.5H137.858L135.131 76.8693H135.045V83.5H134.057V74.7727ZM144.733 83.5V74.7727H145.789V82.5625H149.846V83.5H144.733ZM154.077 78.6676V79.6051H150.259V78.6676H154.077ZM156.341 83.5H155.233L158.437 74.7727H159.528L162.733 83.5H161.625L159.017 76.1534H158.949L156.341 83.5ZM156.75 80.0909H161.216V81.0284H156.75V80.0909ZM166.598 86.0909C166.112 86.0909 165.694 86.0284 165.345 85.9034C164.995 85.7812 164.704 85.6193 164.471 85.4176C164.241 85.2188 164.058 85.0057 163.922 84.7784L164.723 84.2159C164.814 84.3352 164.929 84.4716 165.068 84.625C165.207 84.7812 165.397 84.9162 165.639 85.0298C165.883 85.1463 166.203 85.2045 166.598 85.2045C167.126 85.2045 167.562 85.0767 167.906 84.821C168.25 84.5653 168.422 84.1648 168.422 83.6193V82.2898H168.336C168.262 82.4091 168.157 82.5568 168.021 82.733C167.887 82.9062 167.694 83.0611 167.441 83.1974C167.191 83.331 166.853 83.3977 166.427 83.3977C165.899 83.3977 165.424 83.2727 165.004 83.0227C164.586 82.7727 164.255 82.4091 164.011 81.9318C163.77 81.4545 163.649 80.875 163.649 80.1932C163.649 79.5227 163.767 78.9389 164.002 78.4418C164.238 77.9418 164.566 77.5554 164.987 77.2827C165.407 77.0071 165.893 76.8693 166.444 76.8693C166.87 76.8693 167.208 76.9403 167.458 77.0824C167.711 77.2216 167.904 77.3807 168.038 77.5597C168.174 77.7358 168.279 77.8807 168.353 77.9943H168.456V76.9545H169.427V83.6875C169.427 84.25 169.299 84.7074 169.044 85.0597C168.791 85.4148 168.45 85.6747 168.021 85.8395C167.595 86.0071 167.12 86.0909 166.598 86.0909ZM166.564 82.4943C166.967 82.4943 167.308 82.402 167.586 82.2173C167.865 82.0327 168.076 81.767 168.221 81.4205C168.366 81.0739 168.439 80.6591 168.439 80.1761C168.439 79.7045 168.368 79.2884 168.225 78.9276C168.083 78.5668 167.873 78.2841 167.595 78.0795C167.316 77.875 166.973 77.7727 166.564 77.7727C166.137 77.7727 165.782 77.8807 165.498 78.0966C165.217 78.3125 165.005 78.6023 164.863 78.9659C164.724 79.3295 164.654 79.733 164.654 80.1761C164.654 80.6307 164.725 81.0327 164.868 81.3821C165.012 81.7287 165.225 82.0014 165.507 82.2003C165.791 82.3963 166.143 82.4943 166.564 82.4943ZM174.012 83.6364C173.382 83.6364 172.838 83.4972 172.38 83.2188C171.926 82.9375 171.575 82.5455 171.328 82.0426C171.083 81.5369 170.961 80.9489 170.961 80.2784C170.961 79.608 171.083 79.017 171.328 78.5057C171.575 77.9915 171.919 77.5909 172.359 77.304C172.802 77.0142 173.319 76.8693 173.91 76.8693C174.251 76.8693 174.588 76.9261 174.92 77.0398C175.252 77.1534 175.555 77.3381 175.828 77.5938C176.1 77.8466 176.318 78.1818 176.48 78.5994C176.642 79.017 176.723 79.5312 176.723 80.142V80.5682H171.677V79.6989H175.7C175.7 79.3295 175.626 79 175.478 78.7102C175.333 78.4205 175.126 78.1918 174.856 78.0241C174.589 77.8565 174.274 77.7727 173.91 77.7727C173.51 77.7727 173.163 77.8722 172.87 78.071C172.581 78.267 172.358 78.5227 172.201 78.8381C172.045 79.1534 171.967 79.4915 171.967 79.8523V80.4318C171.967 80.9261 172.052 81.3452 172.223 81.6889C172.396 82.0298 172.636 82.2898 172.943 82.4688C173.25 82.6449 173.606 82.733 174.012 82.733C174.277 82.733 174.515 82.696 174.728 82.6222C174.944 82.5455 175.13 82.4318 175.287 82.2812C175.443 82.1278 175.564 81.9375 175.649 81.7102L176.62 81.983C176.518 82.3125 176.346 82.6023 176.105 82.8523C175.863 83.0994 175.565 83.2926 175.21 83.4318C174.855 83.5682 174.456 83.6364 174.012 83.6364ZM179.258 79.5625V83.5H178.252V76.9545H179.224V77.9773H179.309C179.463 77.6449 179.696 77.3778 180.008 77.1761C180.321 76.9716 180.724 76.8693 181.218 76.8693C181.662 76.8693 182.049 76.9602 182.382 77.142C182.714 77.321 182.973 77.5938 183.157 77.9602C183.342 78.3239 183.434 78.7841 183.434 79.3409V83.5H182.429V79.4091C182.429 78.8949 182.295 78.4943 182.028 78.2074C181.761 77.9176 181.395 77.7727 180.929 77.7727C180.608 77.7727 180.321 77.8423 180.068 77.9815C179.818 78.1207 179.62 78.3239 179.475 78.5909C179.331 78.858 179.258 79.1818 179.258 79.5625ZM188.119 76.9545V77.8068H184.727V76.9545H188.119ZM185.715 75.3864H186.721V81.625C186.721 81.9091 186.762 82.1222 186.844 82.2642C186.93 82.4034 187.038 82.4972 187.168 82.5455C187.302 82.5909 187.442 82.6136 187.59 82.6136C187.701 82.6136 187.792 82.608 187.863 82.5966C187.934 82.5824 187.991 82.571 188.033 82.5625L188.238 83.4659C188.17 83.4915 188.075 83.517 187.952 83.5426C187.83 83.571 187.675 83.5852 187.488 83.5852C187.204 83.5852 186.925 83.5241 186.653 83.402C186.383 83.2798 186.158 83.0938 185.979 82.8438C185.803 82.5938 185.715 82.2784 185.715 81.8977V75.3864ZM194.151 78.4205L193.247 78.6761C193.19 78.5256 193.107 78.3793 192.996 78.2372C192.888 78.0923 192.74 77.973 192.553 77.8793C192.365 77.7855 192.125 77.7386 191.832 77.7386C191.432 77.7386 191.098 77.831 190.831 78.0156C190.567 78.1974 190.435 78.429 190.435 78.7102C190.435 78.9602 190.526 79.1577 190.707 79.3026C190.889 79.4474 191.173 79.5682 191.56 79.6648L192.531 79.9034C193.116 80.0455 193.553 80.2628 193.839 80.5554C194.126 80.8452 194.27 81.2187 194.27 81.6761C194.27 82.0511 194.162 82.3864 193.946 82.6818C193.733 82.9773 193.435 83.2102 193.051 83.3807C192.668 83.5511 192.222 83.6364 191.713 83.6364C191.045 83.6364 190.493 83.4915 190.055 83.2017C189.618 82.9119 189.341 82.4886 189.224 81.9318L190.179 81.6932C190.27 82.0455 190.442 82.3097 190.695 82.4858C190.95 82.6619 191.284 82.75 191.696 82.75C192.165 82.75 192.537 82.6506 192.812 82.4517C193.091 82.25 193.23 82.0085 193.23 81.7273C193.23 81.5 193.151 81.3097 192.991 81.1562C192.832 81 192.588 80.8835 192.259 80.8068L191.168 80.5511C190.568 80.4091 190.128 80.1889 189.847 79.8906C189.568 79.5895 189.429 79.2131 189.429 78.7614C189.429 78.392 189.533 78.0653 189.74 77.7812C189.95 77.4972 190.236 77.2741 190.597 77.1122C190.96 76.9503 191.372 76.8693 191.832 76.8693C192.48 76.8693 192.989 77.0114 193.358 77.2955C193.73 77.5795 193.994 77.9545 194.151 78.4205Z" fill="#4493F8"/>
</svg>
