<svg width="430" height="114" viewBox="0 0 430 114" fill="none" xmlns="http://www.w3.org/2000/svg">
<rect width="417.2" height="102" rx="6" fill="#768395" fill-opacity="0.1"/>
<path d="M13.0043 26V15.8182H16.902C17.6378 15.8182 18.2493 15.9342 18.7365 16.1662C19.227 16.3949 19.5933 16.7081 19.8352 17.1058C20.0805 17.5036 20.2031 17.9543 20.2031 18.4581C20.2031 18.8724 20.1236 19.227 19.9645 19.522C19.8054 19.8137 19.5916 20.0507 19.3232 20.233C19.0547 20.4152 18.7547 20.5462 18.4233 20.6257V20.7251C18.7846 20.745 19.1309 20.8561 19.4624 21.0582C19.7971 21.2571 20.0705 21.5388 20.2827 21.9034C20.4948 22.268 20.6009 22.7088 20.6009 23.2259C20.6009 23.7528 20.4732 24.2268 20.218 24.6477C19.9628 25.0653 19.5784 25.3951 19.0646 25.6371C18.5509 25.879 17.9046 26 17.1257 26H13.0043ZM14.8487 24.4588H16.8324C17.5019 24.4588 17.9841 24.3312 18.2791 24.076C18.5774 23.8175 18.7266 23.486 18.7266 23.0817C18.7266 22.7801 18.652 22.5083 18.5028 22.2663C18.3537 22.0211 18.1416 21.8288 17.8665 21.6896C17.5914 21.5471 17.2633 21.4759 16.8821 21.4759H14.8487V24.4588ZM14.8487 20.1484H16.6733C16.9915 20.1484 17.2782 20.0904 17.5334 19.9744C17.7886 19.8551 17.9891 19.6877 18.1349 19.4723C18.2841 19.2536 18.3587 18.995 18.3587 18.6967C18.3587 18.3023 18.2195 17.9775 17.9411 17.7223C17.666 17.4671 17.2566 17.3395 16.7131 17.3395H14.8487V20.1484ZM23.9256 15.8182V26H22.1259V15.8182H23.9256ZM29.1072 26.1491C28.3615 26.1491 27.7152 25.9851 27.1683 25.657C26.6214 25.3288 26.1972 24.8698 25.8956 24.2798C25.5973 23.6899 25.4482 23.0005 25.4482 22.2116C25.4482 21.4228 25.5973 20.7318 25.8956 20.1385C26.1972 19.5452 26.6214 19.0845 27.1683 18.7564C27.7152 18.4283 28.3615 18.2642 29.1072 18.2642C29.853 18.2642 30.4993 18.4283 31.0462 18.7564C31.593 19.0845 32.0156 19.5452 32.3139 20.1385C32.6155 20.7318 32.7663 21.4228 32.7663 22.2116C32.7663 23.0005 32.6155 23.6899 32.3139 24.2798C32.0156 24.8698 31.593 25.3288 31.0462 25.657C30.4993 25.9851 29.853 26.1491 29.1072 26.1491ZM29.1172 24.7074C29.5215 24.7074 29.8596 24.5964 30.1314 24.3743C30.4032 24.1489 30.6054 23.8473 30.7379 23.4695C30.8738 23.0916 30.9418 22.6707 30.9418 22.2067C30.9418 21.7393 30.8738 21.3168 30.7379 20.9389C30.6054 20.5578 30.4032 20.2545 30.1314 20.0291C29.8596 19.8037 29.5215 19.6911 29.1172 19.6911C28.7029 19.6911 28.3582 19.8037 28.0831 20.0291C27.8113 20.2545 27.6075 20.5578 27.4716 20.9389C27.339 21.3168 27.2727 21.7393 27.2727 22.2067C27.2727 22.6707 27.339 23.0916 27.4716 23.4695C27.6075 23.8473 27.8113 24.1489 28.0831 24.3743C28.3582 24.5964 28.7029 24.7074 29.1172 24.7074ZM37.6149 29.0227C36.9686 29.0227 36.4134 28.9349 35.9494 28.7592C35.4854 28.5869 35.1125 28.3549 34.8308 28.0632C34.5491 27.7715 34.3535 27.4484 34.2441 27.0938L35.8649 26.701C35.9378 26.8501 36.0439 26.9976 36.1831 27.1435C36.3223 27.2926 36.5095 27.4152 36.7449 27.5114C36.9835 27.6108 37.2834 27.6605 37.6447 27.6605C38.1551 27.6605 38.5777 27.5362 38.9125 27.2876C39.2472 27.0424 39.4146 26.638 39.4146 26.0746V24.6278H39.3251C39.2323 24.8134 39.0964 25.004 38.9174 25.1996C38.7418 25.3951 38.5081 25.5592 38.2164 25.6918C37.9281 25.8243 37.5652 25.8906 37.1277 25.8906C36.541 25.8906 36.0091 25.7531 35.5318 25.478C35.0578 25.1996 34.68 24.7853 34.3983 24.2351C34.1199 23.6816 33.9806 22.9889 33.9806 22.157C33.9806 21.3184 34.1199 20.6108 34.3983 20.0341C34.68 19.4541 35.0595 19.0149 35.5368 18.7166C36.014 18.415 36.546 18.2642 37.1326 18.2642C37.5801 18.2642 37.948 18.3404 38.2363 18.4929C38.528 18.642 38.76 18.8227 38.9324 19.0348C39.1047 19.2436 39.2356 19.4408 39.3251 19.6264H39.4245V18.3636H41.1994V26.1243C41.1994 26.7772 41.0436 27.3175 40.7321 27.745C40.4205 28.1726 39.9946 28.4924 39.4544 28.7045C38.9141 28.9167 38.301 29.0227 37.6149 29.0227ZM37.6298 24.4787C38.0109 24.4787 38.3358 24.3859 38.6042 24.2003C38.8727 24.0147 39.0765 23.7479 39.2157 23.3999C39.3549 23.0518 39.4245 22.6342 39.4245 22.147C39.4245 21.6664 39.3549 21.2455 39.2157 20.8842C39.0798 20.523 38.8777 20.2429 38.6092 20.044C38.344 19.8419 38.0176 19.7408 37.6298 19.7408C37.2288 19.7408 36.894 19.8452 36.6255 20.054C36.3571 20.2628 36.1549 20.5495 36.019 20.9141C35.8831 21.2753 35.8152 21.6863 35.8152 22.147C35.8152 22.6143 35.8831 23.0237 36.019 23.375C36.1582 23.723 36.362 23.9948 36.6305 24.1903C36.9023 24.3826 37.2354 24.4787 37.6298 24.4787ZM43.0439 26V18.3636H44.8436V26H43.0439ZM43.9487 17.2798C43.6636 17.2798 43.4184 17.1854 43.2129 16.9964C43.0074 16.8042 42.9047 16.5739 42.9047 16.3054C42.9047 16.0336 43.0074 15.8033 43.2129 15.6143C43.4184 15.4221 43.6636 15.326 43.9487 15.326C44.237 15.326 44.4823 15.4221 44.6845 15.6143C44.89 15.8033 44.9927 16.0336 44.9927 16.3054C44.9927 16.5739 44.89 16.8042 44.6845 16.9964C44.4823 17.1854 44.237 17.2798 43.9487 17.2798ZM50.0252 26.1491C49.2629 26.1491 48.6083 25.9818 48.0614 25.647C47.5179 25.3123 47.0986 24.8499 46.8036 24.2599C46.512 23.6667 46.3661 22.9839 46.3661 22.2116C46.3661 21.4361 46.5153 20.7517 46.8136 20.1584C47.1119 19.5618 47.5328 19.0978 48.0763 18.7663C48.6232 18.4316 49.2695 18.2642 50.0153 18.2642C50.6351 18.2642 51.1836 18.3786 51.6609 18.6072C52.1415 18.8326 52.5243 19.1525 52.8093 19.5668C53.0943 19.9777 53.2567 20.4583 53.2965 21.0085H51.5763C51.5067 20.6406 51.341 20.334 51.0792 20.0888C50.8207 19.8402 50.4743 19.7159 50.0401 19.7159C49.6722 19.7159 49.3491 19.8153 49.0707 20.0142C48.7923 20.2098 48.5752 20.4915 48.4194 20.8594C48.2669 21.2273 48.1907 21.6681 48.1907 22.1818C48.1907 22.7022 48.2669 23.1496 48.4194 23.5241C48.5719 23.8954 48.7856 24.1821 49.0607 24.3842C49.3391 24.5831 49.6656 24.6825 50.0401 24.6825C50.3053 24.6825 50.5423 24.6328 50.7511 24.5334C50.9632 24.4306 51.1405 24.2831 51.283 24.0909C51.4255 23.8987 51.5233 23.665 51.5763 23.3899H53.2965C53.2534 23.9302 53.0943 24.4091 52.8192 24.8267C52.5442 25.241 52.1696 25.5658 51.6957 25.8011C51.2217 26.0331 50.6649 26.1491 50.0252 26.1491Z" fill="#4493F8"/>
<path d="M13.0568 53V44.2727H14.1136V52.0625H18.1705V53H13.0568ZM22.3295 53.1364C21.7386 53.1364 21.2202 52.9957 20.7741 52.7145C20.331 52.4332 19.9844 52.0398 19.7344 51.5341C19.4872 51.0284 19.3636 50.4375 19.3636 49.7614C19.3636 49.0795 19.4872 48.4844 19.7344 47.9759C19.9844 47.4673 20.331 47.0724 20.7741 46.7912C21.2202 46.5099 21.7386 46.3693 22.3295 46.3693C22.9205 46.3693 23.4375 46.5099 23.8807 46.7912C24.3267 47.0724 24.6733 47.4673 24.9205 47.9759C25.1705 48.4844 25.2955 49.0795 25.2955 49.7614C25.2955 50.4375 25.1705 51.0284 24.9205 51.5341C24.6733 52.0398 24.3267 52.4332 23.8807 52.7145C23.4375 52.9957 22.9205 53.1364 22.3295 53.1364ZM22.3295 52.233C22.7784 52.233 23.1477 52.1179 23.4375 51.8878C23.7273 51.6577 23.9418 51.3551 24.081 50.9801C24.2202 50.6051 24.2898 50.1989 24.2898 49.7614C24.2898 49.3239 24.2202 48.9162 24.081 48.5384C23.9418 48.1605 23.7273 47.8551 23.4375 47.6222C23.1477 47.3892 22.7784 47.2727 22.3295 47.2727C21.8807 47.2727 21.5114 47.3892 21.2216 47.6222C20.9318 47.8551 20.7173 48.1605 20.5781 48.5384C20.4389 48.9162 20.3693 49.3239 20.3693 49.7614C20.3693 50.1989 20.4389 50.6051 20.5781 50.9801C20.7173 51.3551 20.9318 51.6577 21.2216 51.8878C21.5114 52.1179 21.8807 52.233 22.3295 52.233ZM29.4727 55.5909C28.9869 55.5909 28.5692 55.5284 28.2198 55.4034C27.8704 55.2812 27.5792 55.1193 27.3462 54.9176C27.1161 54.7188 26.9329 54.5057 26.7965 54.2784L27.5977 53.7159C27.6886 53.8352 27.8036 53.9716 27.9428 54.125C28.082 54.2812 28.2724 54.4162 28.5138 54.5298C28.7582 54.6463 29.0778 54.7045 29.4727 54.7045C30.0011 54.7045 30.4371 54.5767 30.7809 54.321C31.1246 54.0653 31.2965 53.6648 31.2965 53.1193V51.7898H31.2113C31.1374 51.9091 31.0323 52.0568 30.896 52.233C30.7624 52.4062 30.5692 52.5611 30.3164 52.6974C30.0664 52.831 29.7283 52.8977 29.3022 52.8977C28.7738 52.8977 28.2994 52.7727 27.8789 52.5227C27.4613 52.2727 27.1303 51.9091 26.886 51.4318C26.6445 50.9545 26.5238 50.375 26.5238 49.6932C26.5238 49.0227 26.6417 48.4389 26.8775 47.9418C27.1133 47.4418 27.4414 47.0554 27.8619 46.7827C28.2823 46.5071 28.7681 46.3693 29.3192 46.3693C29.7454 46.3693 30.0835 46.4403 30.3335 46.5824C30.5863 46.7216 30.7795 46.8807 30.913 47.0597C31.0494 47.2358 31.1545 47.3807 31.2283 47.4943H31.3306V46.4545H32.3022V53.1875C32.3022 53.75 32.1744 54.2074 31.9187 54.5597C31.6658 54.9148 31.3249 55.1747 30.896 55.3395C30.4698 55.5071 29.9954 55.5909 29.4727 55.5909ZM29.4386 51.9943C29.842 51.9943 30.1829 51.902 30.4613 51.7173C30.7397 51.5327 30.9513 51.267 31.0962 50.9205C31.2411 50.5739 31.3136 50.1591 31.3136 49.6761C31.3136 49.2045 31.2425 48.7884 31.1005 48.4276C30.9585 48.0668 30.7482 47.7841 30.4698 47.5795C30.1914 47.375 29.8477 47.2727 29.4386 47.2727C29.0124 47.2727 28.6573 47.3807 28.3732 47.5966C28.092 47.8125 27.8803 48.1023 27.7383 48.4659C27.5991 48.8295 27.5295 49.233 27.5295 49.6761C27.5295 50.1307 27.6005 50.5327 27.7425 50.8821C27.8874 51.2287 28.1005 51.5014 28.3817 51.7003C28.6658 51.8963 29.0181 51.9943 29.4386 51.9943ZM34.1431 53V46.4545H35.1488V53H34.1431ZM34.6545 45.3636C34.4585 45.3636 34.2894 45.2969 34.1474 45.1634C34.0082 45.0298 33.9386 44.8693 33.9386 44.6818C33.9386 44.4943 34.0082 44.3338 34.1474 44.2003C34.2894 44.0668 34.4585 44 34.6545 44C34.8505 44 35.0181 44.0668 35.1573 44.2003C35.2994 44.3338 35.3704 44.4943 35.3704 44.6818C35.3704 44.8693 35.2994 45.0298 35.1573 45.1634C35.0181 45.2969 34.8505 45.3636 34.6545 45.3636ZM39.6499 53.1364C39.0362 53.1364 38.5078 52.9915 38.0646 52.7017C37.6214 52.4119 37.2805 52.0128 37.0419 51.5043C36.8033 50.9957 36.6839 50.4148 36.6839 49.7614C36.6839 49.0966 36.8061 48.5099 37.0504 48.0014C37.2976 47.4901 37.6413 47.0909 38.0817 46.804C38.5249 46.5142 39.0419 46.3693 39.6328 46.3693C40.093 46.3693 40.5078 46.4545 40.8771 46.625C41.2464 46.7955 41.549 47.0341 41.7848 47.3409C42.0206 47.6477 42.1669 48.0057 42.2237 48.4148H41.218C41.1413 48.1165 40.9709 47.8523 40.7067 47.6222C40.4453 47.3892 40.093 47.2727 39.6499 47.2727C39.2578 47.2727 38.9141 47.375 38.6186 47.5795C38.326 47.7812 38.0973 48.0668 37.9325 48.4361C37.7706 48.8026 37.6896 49.233 37.6896 49.7273C37.6896 50.233 37.7692 50.6733 37.9283 51.0483C38.0902 51.4233 38.3175 51.7145 38.6101 51.9219C38.9055 52.1293 39.2521 52.233 39.6499 52.233C39.9112 52.233 40.1484 52.1875 40.3615 52.0966C40.5746 52.0057 40.755 51.875 40.9027 51.7045C41.0504 51.5341 41.1555 51.3295 41.218 51.0909H42.2237C42.1669 51.4773 42.0263 51.8253 41.8018 52.1349C41.5803 52.4418 41.2862 52.6861 40.9197 52.8679C40.5561 53.0469 40.1328 53.1364 39.6499 53.1364ZM49.7109 55.5909C49.2251 55.5909 48.8075 55.5284 48.4581 55.4034C48.1087 55.2812 47.8175 55.1193 47.5845 54.9176C47.3544 54.7188 47.1712 54.5057 47.0348 54.2784L47.8359 53.7159C47.9268 53.8352 48.0419 53.9716 48.1811 54.125C48.3203 54.2812 48.5107 54.4162 48.7521 54.5298C48.9964 54.6463 49.3161 54.7045 49.7109 54.7045C50.2393 54.7045 50.6754 54.5767 51.0192 54.321C51.3629 54.0653 51.5348 53.6648 51.5348 53.1193V51.7898H51.4496C51.3757 51.9091 51.2706 52.0568 51.1342 52.233C51.0007 52.4062 50.8075 52.5611 50.5547 52.6974C50.3047 52.831 49.9666 52.8977 49.5405 52.8977C49.0121 52.8977 48.5376 52.7727 48.1172 52.5227C47.6996 52.2727 47.3686 51.9091 47.1243 51.4318C46.8828 50.9545 46.7621 50.375 46.7621 49.6932C46.7621 49.0227 46.88 48.4389 47.1158 47.9418C47.3516 47.4418 47.6797 47.0554 48.1001 46.7827C48.5206 46.5071 49.0064 46.3693 49.5575 46.3693C49.9837 46.3693 50.3217 46.4403 50.5717 46.5824C50.8246 46.7216 51.0178 46.8807 51.1513 47.0597C51.2876 47.2358 51.3928 47.3807 51.4666 47.4943H51.5689V46.4545H52.5405V53.1875C52.5405 53.75 52.4126 54.2074 52.157 54.5597C51.9041 54.9148 51.5632 55.1747 51.1342 55.3395C50.7081 55.5071 50.2337 55.5909 49.7109 55.5909ZM49.6768 51.9943C50.0803 51.9943 50.4212 51.902 50.6996 51.7173C50.978 51.5327 51.1896 51.267 51.3345 50.9205C51.4794 50.5739 51.5518 50.1591 51.5518 49.6761C51.5518 49.2045 51.4808 48.7884 51.3388 48.4276C51.1967 48.0668 50.9865 47.7841 50.7081 47.5795C50.4297 47.375 50.0859 47.2727 49.6768 47.2727C49.2507 47.2727 48.8956 47.3807 48.6115 47.5966C48.3303 47.8125 48.1186 48.1023 47.9766 48.4659C47.8374 48.8295 47.7678 49.233 47.7678 49.6761C47.7678 50.1307 47.8388 50.5327 47.9808 50.8821C48.1257 51.2287 48.3388 51.5014 48.62 51.7003C48.9041 51.8963 49.2564 51.9943 49.6768 51.9943ZM56.3075 53.1534C55.8928 53.1534 55.5163 53.0753 55.1783 52.919C54.8402 52.7599 54.5717 52.5312 54.3729 52.233C54.174 51.9318 54.0746 51.5682 54.0746 51.142C54.0746 50.767 54.1484 50.4631 54.2962 50.2301C54.4439 49.9943 54.6413 49.8097 54.8885 49.6761C55.1357 49.5426 55.4084 49.4432 55.7067 49.3778C56.0078 49.3097 56.3104 49.2557 56.6143 49.2159C57.0121 49.1648 57.3345 49.1264 57.5817 49.1009C57.8317 49.0724 58.0135 49.0256 58.1271 48.9602C58.2436 48.8949 58.3018 48.7812 58.3018 48.6193V48.5852C58.3018 48.1648 58.1868 47.8381 57.9567 47.6051C57.7294 47.3722 57.3842 47.2557 56.9212 47.2557C56.4411 47.2557 56.0646 47.3608 55.7919 47.571C55.5192 47.7812 55.3274 48.0057 55.2166 48.2443L54.2621 47.9034C54.4325 47.5057 54.6598 47.196 54.9439 46.9744C55.2308 46.75 55.5433 46.5937 55.8814 46.5057C56.2223 46.4148 56.5575 46.3693 56.8871 46.3693C57.0973 46.3693 57.3388 46.3949 57.6115 46.446C57.8871 46.4943 58.1527 46.5952 58.4084 46.7486C58.6669 46.902 58.8814 47.1335 59.0518 47.4432C59.2223 47.7528 59.3075 48.1676 59.3075 48.6875V53H58.3018V52.1136H58.2507C58.1825 52.2557 58.0689 52.4077 57.9098 52.5696C57.7507 52.7315 57.5391 52.8693 57.2749 52.983C57.0107 53.0966 56.6882 53.1534 56.3075 53.1534ZM56.4609 52.25C56.8587 52.25 57.1939 52.1719 57.4666 52.0156C57.7422 51.8594 57.9496 51.6577 58.0888 51.4105C58.2308 51.1634 58.3018 50.9034 58.3018 50.6307V49.7102C58.2592 49.7614 58.1655 49.8082 58.0206 49.8509C57.8786 49.8906 57.7138 49.9261 57.5263 49.9574C57.3416 49.9858 57.1612 50.0114 56.9851 50.0341C56.8118 50.054 56.6712 50.071 56.5632 50.0852C56.3018 50.1193 56.0575 50.1747 55.8303 50.2514C55.6058 50.3253 55.424 50.4375 55.2848 50.5881C55.1484 50.7358 55.0803 50.9375 55.0803 51.1932C55.0803 51.5426 55.2095 51.8068 55.468 51.9858C55.7294 52.1619 56.0604 52.25 56.4609 52.25ZM63.9897 46.4545V47.3068H60.5977V46.4545H63.9897ZM61.5863 44.8864H62.592V51.125C62.592 51.4091 62.6332 51.6222 62.7156 51.7642C62.8008 51.9034 62.9087 51.9972 63.0394 52.0455C63.1729 52.0909 63.3136 52.1136 63.4613 52.1136C63.5721 52.1136 63.663 52.108 63.734 52.0966C63.805 52.0824 63.8619 52.071 63.9045 52.0625L64.109 52.9659C64.0408 52.9915 63.9457 53.017 63.8235 53.0426C63.7013 53.071 63.5465 53.0852 63.359 53.0852C63.0749 53.0852 62.7965 53.0241 62.5238 52.902C62.2539 52.7798 62.0295 52.5938 61.8505 52.3438C61.6744 52.0938 61.5863 51.7784 61.5863 51.3977V44.8864ZM68.1765 53.1364C67.5458 53.1364 67.0018 52.9972 66.5444 52.7188C66.0898 52.4375 65.739 52.0455 65.4918 51.5426C65.2475 51.0369 65.1254 50.4489 65.1254 49.7784C65.1254 49.108 65.2475 48.517 65.4918 48.0057C65.739 47.4915 66.0827 47.0909 66.5231 46.804C66.9663 46.5142 67.4833 46.3693 68.0742 46.3693C68.4151 46.3693 68.7518 46.4261 69.0842 46.5398C69.4165 46.6534 69.7191 46.8381 69.9918 47.0938C70.2646 47.3466 70.4819 47.6818 70.6438 48.0994C70.8058 48.517 70.8867 49.0312 70.8867 49.642V50.0682H65.8413V49.1989H69.864C69.864 48.8295 69.7901 48.5 69.6424 48.2102C69.4975 47.9205 69.2901 47.6918 69.0202 47.5241C68.7532 47.3565 68.4379 47.2727 68.0742 47.2727C67.6737 47.2727 67.3271 47.3722 67.0344 47.571C66.7447 47.767 66.5217 48.0227 66.3654 48.3381C66.2092 48.6534 66.131 48.9915 66.131 49.3523V49.9318C66.131 50.4261 66.2163 50.8452 66.3867 51.1889C66.56 51.5298 66.8001 51.7898 67.1069 51.9688C67.4137 52.1449 67.7702 52.233 68.1765 52.233C68.4407 52.233 68.6793 52.196 68.8924 52.1222C69.1083 52.0455 69.2944 51.9318 69.4506 51.7812C69.6069 51.6278 69.7276 51.4375 69.8129 51.2102L70.7844 51.483C70.6822 51.8125 70.5103 52.1023 70.2688 52.3523C70.0273 52.5994 69.729 52.7926 69.3739 52.9318C69.0188 53.0682 68.6197 53.1364 68.1765 53.1364ZM77.7177 53.1534C77.3029 53.1534 76.9265 53.0753 76.5884 52.919C76.2504 52.7599 75.9819 52.5312 75.783 52.233C75.5842 51.9318 75.4847 51.5682 75.4847 51.142C75.4847 50.767 75.5586 50.4631 75.7063 50.2301C75.854 49.9943 76.0515 49.8097 76.2987 49.6761C76.5458 49.5426 76.8185 49.4432 77.1168 49.3778C77.418 49.3097 77.7205 49.2557 78.0245 49.2159C78.4222 49.1648 78.7447 49.1264 78.9918 49.1009C79.2418 49.0724 79.4237 49.0256 79.5373 48.9602C79.6538 48.8949 79.712 48.7812 79.712 48.6193V48.5852C79.712 48.1648 79.5969 47.8381 79.3668 47.6051C79.1396 47.3722 78.7944 47.2557 78.3313 47.2557C77.8512 47.2557 77.4748 47.3608 77.2021 47.571C76.9293 47.7812 76.7376 48.0057 76.6268 48.2443L75.6722 47.9034C75.8427 47.5057 76.07 47.196 76.354 46.9744C76.641 46.75 76.9535 46.5937 77.2915 46.5057C77.6325 46.4148 77.9677 46.3693 78.2972 46.3693C78.5075 46.3693 78.7489 46.3949 79.0217 46.446C79.2972 46.4943 79.5629 46.5952 79.8185 46.7486C80.0771 46.902 80.2915 47.1335 80.462 47.4432C80.6325 47.7528 80.7177 48.1676 80.7177 48.6875V53H79.712V52.1136H79.6609C79.5927 52.2557 79.479 52.4077 79.32 52.5696C79.1609 52.7315 78.9492 52.8693 78.685 52.983C78.4208 53.0966 78.0984 53.1534 77.7177 53.1534ZM77.8711 52.25C78.2688 52.25 78.604 52.1719 78.8768 52.0156C79.1523 51.8594 79.3597 51.6577 79.4989 51.4105C79.641 51.1634 79.712 50.9034 79.712 50.6307V49.7102C79.6694 49.7614 79.5756 49.8082 79.4308 49.8509C79.2887 49.8906 79.1239 49.9261 78.9364 49.9574C78.7518 49.9858 78.5714 50.0114 78.3952 50.0341C78.2219 50.054 78.0813 50.071 77.9734 50.0852C77.712 50.1193 77.4677 50.1747 77.2404 50.2514C77.016 50.3253 76.8342 50.4375 76.695 50.5881C76.5586 50.7358 76.4904 50.9375 76.4904 51.1932C76.4904 51.5426 76.6197 51.8068 76.8782 51.9858C77.1396 52.1619 77.4705 52.25 77.8711 52.25ZM83.5589 49.0625V53H82.5533V46.4545H83.5249V47.4773H83.6101C83.7635 47.1449 83.9964 46.8778 84.3089 46.6761C84.6214 46.4716 85.0249 46.3693 85.5192 46.3693C85.9624 46.3693 86.3501 46.4602 86.6825 46.642C87.0149 46.821 87.2734 47.0938 87.4581 47.4602C87.6428 47.8239 87.7351 48.2841 87.7351 48.8409V53H86.7294V48.9091C86.7294 48.3949 86.5959 47.9943 86.3288 47.7074C86.0618 47.4176 85.6953 47.2727 85.2294 47.2727C84.9084 47.2727 84.6214 47.3423 84.3686 47.4815C84.1186 47.6207 83.9212 47.8239 83.7763 48.0909C83.6314 48.358 83.5589 48.6818 83.5589 49.0625ZM92.0444 53.1364C91.4989 53.1364 91.0174 52.9986 90.5998 52.723C90.1822 52.4446 89.8555 52.0526 89.6197 51.5469C89.3839 51.0384 89.266 50.4375 89.266 49.7443C89.266 49.0568 89.3839 48.4602 89.6197 47.9545C89.8555 47.4489 90.1836 47.0582 90.604 46.7827C91.0245 46.5071 91.5103 46.3693 92.0614 46.3693C92.4876 46.3693 92.8242 46.4403 93.0714 46.5824C93.3214 46.7216 93.5117 46.8807 93.6424 47.0597C93.7759 47.2358 93.8796 47.3807 93.9535 47.4943H94.0387V44.2727H95.0444V53H94.0728V51.9943H93.9535C93.8796 52.1136 93.7745 52.2642 93.6381 52.446C93.5018 52.625 93.3072 52.7855 93.0543 52.9276C92.8015 53.0668 92.4648 53.1364 92.0444 53.1364ZM92.1808 52.233C92.5842 52.233 92.9251 52.1278 93.2035 51.9176C93.4819 51.7045 93.6935 51.4105 93.8384 51.0355C93.9833 50.6577 94.0558 50.2216 94.0558 49.7273C94.0558 49.2386 93.9847 48.8111 93.8427 48.4446C93.7006 48.0753 93.4904 47.7884 93.212 47.5838C92.9336 47.3764 92.5898 47.2727 92.1808 47.2727C91.7546 47.2727 91.3995 47.3821 91.1154 47.6009C90.8342 47.8168 90.6225 48.1108 90.4805 48.483C90.3413 48.8523 90.2717 49.267 90.2717 49.7273C90.2717 50.1932 90.3427 50.6165 90.4847 50.9972C90.6296 51.375 90.8427 51.6761 91.1239 51.9006C91.408 52.1222 91.7603 52.233 92.1808 52.233ZM103.06 53.1364C102.446 53.1364 101.918 52.9915 101.475 52.7017C101.032 52.4119 100.691 52.0128 100.452 51.5043C100.213 50.9957 100.094 50.4148 100.094 49.7614C100.094 49.0966 100.216 48.5099 100.461 48.0014C100.708 47.4901 101.051 47.0909 101.492 46.804C101.935 46.5142 102.452 46.3693 103.043 46.3693C103.503 46.3693 103.918 46.4545 104.287 46.625C104.657 46.7955 104.959 47.0341 105.195 47.3409C105.431 47.6477 105.577 48.0057 105.634 48.4148H104.628C104.551 48.1165 104.381 47.8523 104.117 47.6222C103.855 47.3892 103.503 47.2727 103.06 47.2727C102.668 47.2727 102.324 47.375 102.029 47.5795C101.736 47.7812 101.507 48.0668 101.343 48.4361C101.181 48.8026 101.1 49.233 101.1 49.7273C101.1 50.233 101.179 50.6733 101.338 51.0483C101.5 51.4233 101.728 51.7145 102.02 51.9219C102.316 52.1293 102.662 52.233 103.06 52.233C103.321 52.233 103.559 52.1875 103.772 52.0966C103.985 52.0057 104.165 51.875 104.313 51.7045C104.461 51.5341 104.566 51.3295 104.628 51.0909H105.634C105.577 51.4773 105.436 51.8253 105.212 52.1349C104.99 52.4418 104.696 52.6861 104.33 52.8679C103.966 53.0469 103.543 53.1364 103.06 53.1364ZM109.03 53.1534C108.615 53.1534 108.239 53.0753 107.901 52.919C107.563 52.7599 107.294 52.5312 107.096 52.233C106.897 51.9318 106.797 51.5682 106.797 51.142C106.797 50.767 106.871 50.4631 107.019 50.2301C107.167 49.9943 107.364 49.8097 107.611 49.6761C107.858 49.5426 108.131 49.4432 108.429 49.3778C108.73 49.3097 109.033 49.2557 109.337 49.2159C109.735 49.1648 110.057 49.1264 110.304 49.1009C110.554 49.0724 110.736 49.0256 110.85 48.9602C110.966 48.8949 111.025 48.7812 111.025 48.6193V48.5852C111.025 48.1648 110.909 47.8381 110.679 47.6051C110.452 47.3722 110.107 47.2557 109.644 47.2557C109.164 47.2557 108.787 47.3608 108.515 47.571C108.242 47.7812 108.05 48.0057 107.939 48.2443L106.985 47.9034C107.155 47.5057 107.382 47.196 107.667 46.9744C107.953 46.75 108.266 46.5937 108.604 46.5057C108.945 46.4148 109.28 46.3693 109.61 46.3693C109.82 46.3693 110.061 46.3949 110.334 46.446C110.61 46.4943 110.875 46.5952 111.131 46.7486C111.39 46.902 111.604 47.1335 111.775 47.4432C111.945 47.7528 112.03 48.1676 112.03 48.6875V53H111.025V52.1136H110.973C110.905 52.2557 110.792 52.4077 110.632 52.5696C110.473 52.7315 110.262 52.8693 109.998 52.983C109.733 53.0966 109.411 53.1534 109.03 53.1534ZM109.184 52.25C109.581 52.25 109.917 52.1719 110.189 52.0156C110.465 51.8594 110.672 51.6577 110.811 51.4105C110.953 51.1634 111.025 50.9034 111.025 50.6307V49.7102C110.982 49.7614 110.888 49.8082 110.743 49.8509C110.601 49.8906 110.436 49.9261 110.249 49.9574C110.064 49.9858 109.884 50.0114 109.708 50.0341C109.534 50.054 109.394 50.071 109.286 50.0852C109.025 50.1193 108.78 50.1747 108.553 50.2514C108.328 50.3253 108.147 50.4375 108.007 50.5881C107.871 50.7358 107.803 50.9375 107.803 51.1932C107.803 51.5426 107.932 51.8068 108.191 51.9858C108.452 52.1619 108.783 52.25 109.184 52.25ZM114.002 53V44.2727H115.008V47.4943H115.093C115.167 47.3807 115.269 47.2358 115.4 47.0597C115.533 46.8807 115.724 46.7216 115.971 46.5824C116.221 46.4403 116.559 46.3693 116.985 46.3693C117.536 46.3693 118.022 46.5071 118.442 46.7827C118.863 47.0582 119.191 47.4489 119.427 47.9545C119.663 48.4602 119.781 49.0568 119.781 49.7443C119.781 50.4375 119.663 51.0384 119.427 51.5469C119.191 52.0526 118.864 52.4446 118.447 52.723C118.029 52.9986 117.548 53.1364 117.002 53.1364C116.582 53.1364 116.245 53.0668 115.992 52.9276C115.739 52.7855 115.545 52.625 115.408 52.446C115.272 52.2642 115.167 52.1136 115.093 51.9943H114.974V53H114.002ZM114.991 49.7273C114.991 50.2216 115.063 50.6577 115.208 51.0355C115.353 51.4105 115.565 51.7045 115.843 51.9176C116.121 52.1278 116.462 52.233 116.866 52.233C117.286 52.233 117.637 52.1222 117.918 51.9006C118.202 51.6761 118.415 51.375 118.558 50.9972C118.702 50.6165 118.775 50.1932 118.775 49.7273C118.775 49.267 118.704 48.8523 118.562 48.483C118.423 48.1108 118.211 47.8168 117.927 47.6009C117.646 47.3821 117.292 47.2727 116.866 47.2727C116.457 47.2727 116.113 47.3764 115.835 47.5838C115.556 47.7884 115.346 48.0753 115.204 48.4446C115.062 48.8111 114.991 49.2386 114.991 49.7273ZM122.325 44.2727V53H121.319V44.2727H122.325ZM126.911 53.1364C126.28 53.1364 125.736 52.9972 125.279 52.7188C124.824 52.4375 124.473 52.0455 124.226 51.5426C123.982 51.0369 123.86 50.4489 123.86 49.7784C123.86 49.108 123.982 48.517 124.226 48.0057C124.473 47.4915 124.817 47.0909 125.257 46.804C125.701 46.5142 126.218 46.3693 126.809 46.3693C127.15 46.3693 127.486 46.4261 127.819 46.5398C128.151 46.6534 128.453 46.8381 128.726 47.0938C128.999 47.3466 129.216 47.6818 129.378 48.0994C129.54 48.517 129.621 49.0312 129.621 49.642V50.0682H124.576V49.1989H128.598C128.598 48.8295 128.525 48.5 128.377 48.2102C128.232 47.9205 128.025 47.6918 127.755 47.5241C127.488 47.3565 127.172 47.2727 126.809 47.2727C126.408 47.2727 126.061 47.3722 125.769 47.571C125.479 47.767 125.256 48.0227 125.1 48.3381C124.944 48.6534 124.865 48.9915 124.865 49.3523V49.9318C124.865 50.4261 124.951 50.8452 125.121 51.1889C125.294 51.5298 125.534 51.7898 125.841 51.9688C126.148 52.1449 126.505 52.233 126.911 52.233C127.175 52.233 127.414 52.196 127.627 52.1222C127.843 52.0455 128.029 51.9318 128.185 51.7812C128.341 51.6278 128.462 51.4375 128.547 51.2102L129.519 51.483C129.417 51.8125 129.245 52.1023 129.003 52.3523C128.762 52.5994 128.463 52.7926 128.108 52.9318C127.753 53.0682 127.354 53.1364 126.911 53.1364ZM134.526 53V46.4545H135.498V47.4773H135.583C135.719 47.1278 135.939 46.8565 136.243 46.6634C136.547 46.4673 136.912 46.3693 137.338 46.3693C137.77 46.3693 138.13 46.4673 138.417 46.6634C138.706 46.8565 138.932 47.1278 139.094 47.4773H139.162C139.33 47.1392 139.581 46.8707 139.917 46.6719C140.252 46.4702 140.654 46.3693 141.123 46.3693C141.708 46.3693 142.186 46.5526 142.559 46.919C142.931 47.2827 143.117 47.8494 143.117 48.6193V53H142.111V48.6193C142.111 48.1364 141.979 47.7912 141.715 47.5838C141.451 47.3764 141.14 47.2727 140.782 47.2727C140.321 47.2727 139.965 47.4119 139.712 47.6903C139.459 47.9659 139.333 48.3153 139.333 48.7386V53H138.31V48.517C138.31 48.1449 138.189 47.8452 137.948 47.6179C137.706 47.3878 137.395 47.2727 137.015 47.2727C136.753 47.2727 136.509 47.3423 136.282 47.4815C136.057 47.6207 135.875 47.8139 135.736 48.0611C135.6 48.3054 135.532 48.5881 135.532 48.9091V53H134.526ZM147.615 53.1364C147.024 53.1364 146.505 52.9957 146.059 52.7145C145.616 52.4332 145.27 52.0398 145.02 51.5341C144.772 51.0284 144.649 50.4375 144.649 49.7614C144.649 49.0795 144.772 48.4844 145.02 47.9759C145.27 47.4673 145.616 47.0724 146.059 46.7912C146.505 46.5099 147.024 46.3693 147.615 46.3693C148.206 46.3693 148.723 46.5099 149.166 46.7912C149.612 47.0724 149.958 47.4673 150.206 47.9759C150.456 48.4844 150.581 49.0795 150.581 49.7614C150.581 50.4375 150.456 51.0284 150.206 51.5341C149.958 52.0398 149.612 52.4332 149.166 52.7145C148.723 52.9957 148.206 53.1364 147.615 53.1364ZM147.615 52.233C148.064 52.233 148.433 52.1179 148.723 51.8878C149.012 51.6577 149.227 51.3551 149.366 50.9801C149.505 50.6051 149.575 50.1989 149.575 49.7614C149.575 49.3239 149.505 48.9162 149.366 48.5384C149.227 48.1605 149.012 47.8551 148.723 47.6222C148.433 47.3892 148.064 47.2727 147.615 47.2727C147.166 47.2727 146.797 47.3892 146.507 47.6222C146.217 47.8551 146.002 48.1605 145.863 48.5384C145.724 48.9162 145.654 49.3239 145.654 49.7614C145.654 50.1989 145.724 50.6051 145.863 50.9801C146.002 51.3551 146.217 51.6577 146.507 51.8878C146.797 52.1179 147.166 52.233 147.615 52.233ZM154.587 53.1364C154.042 53.1364 153.56 52.9986 153.143 52.723C152.725 52.4446 152.398 52.0526 152.163 51.5469C151.927 51.0384 151.809 50.4375 151.809 49.7443C151.809 49.0568 151.927 48.4602 152.163 47.9545C152.398 47.4489 152.727 47.0582 153.147 46.7827C153.567 46.5071 154.053 46.3693 154.604 46.3693C155.031 46.3693 155.367 46.4403 155.614 46.5824C155.864 46.7216 156.055 46.8807 156.185 47.0597C156.319 47.2358 156.423 47.3807 156.496 47.4943H156.582V44.2727H157.587V53H156.616V51.9943H156.496C156.423 52.1136 156.317 52.2642 156.181 52.446C156.045 52.625 155.85 52.7855 155.597 52.9276C155.344 53.0668 155.008 53.1364 154.587 53.1364ZM154.724 52.233C155.127 52.233 155.468 52.1278 155.746 51.9176C156.025 51.7045 156.237 51.4105 156.381 51.0355C156.526 50.6577 156.599 50.2216 156.599 49.7273C156.599 49.2386 156.528 48.8111 156.386 48.4446C156.244 48.0753 156.033 47.7884 155.755 47.5838C155.477 47.3764 155.133 47.2727 154.724 47.2727C154.298 47.2727 153.942 47.3821 153.658 47.6009C153.377 47.8168 153.165 48.1108 153.023 48.483C152.884 48.8523 152.815 49.267 152.815 49.7273C152.815 50.1932 152.886 50.6165 153.028 50.9972C153.173 51.375 153.386 51.6761 153.667 51.9006C153.951 52.1222 154.303 52.233 154.724 52.233ZM165.859 46.4545V47.3068H162.33V46.4545H165.859ZM163.387 53V45.5511C163.387 45.1761 163.475 44.8636 163.651 44.6136C163.827 44.3636 164.056 44.1761 164.337 44.0511C164.619 43.9261 164.915 43.8636 165.228 43.8636C165.475 43.8636 165.677 43.8835 165.833 43.9233C165.989 43.9631 166.106 44 166.183 44.0341L165.893 44.9034C165.842 44.8864 165.771 44.8651 165.68 44.8395C165.592 44.8139 165.475 44.8011 165.33 44.8011C164.998 44.8011 164.758 44.8849 164.61 45.0526C164.465 45.2202 164.393 45.4659 164.393 45.7898V53H163.387ZM169.658 53.1364C169.067 53.1364 168.548 52.9957 168.102 52.7145C167.659 52.4332 167.312 52.0398 167.062 51.5341C166.815 51.0284 166.692 50.4375 166.692 49.7614C166.692 49.0795 166.815 48.4844 167.062 47.9759C167.312 47.4673 167.659 47.0724 168.102 46.7912C168.548 46.5099 169.067 46.3693 169.658 46.3693C170.249 46.3693 170.766 46.5099 171.209 46.7912C171.655 47.0724 172.001 47.4673 172.249 47.9759C172.499 48.4844 172.624 49.0795 172.624 49.7614C172.624 50.4375 172.499 51.0284 172.249 51.5341C172.001 52.0398 171.655 52.4332 171.209 52.7145C170.766 52.9957 170.249 53.1364 169.658 53.1364ZM169.658 52.233C170.107 52.233 170.476 52.1179 170.766 51.8878C171.055 51.6577 171.27 51.3551 171.409 50.9801C171.548 50.6051 171.618 50.1989 171.618 49.7614C171.618 49.3239 171.548 48.9162 171.409 48.5384C171.27 48.1605 171.055 47.8551 170.766 47.6222C170.476 47.3892 170.107 47.2727 169.658 47.2727C169.209 47.2727 168.839 47.3892 168.55 47.6222C168.26 47.8551 168.045 48.1605 167.906 48.5384C167.767 48.9162 167.697 49.3239 167.697 49.7614C167.697 50.1989 167.767 50.6051 167.906 50.9801C168.045 51.3551 168.26 51.6577 168.55 51.8878C168.839 52.1179 169.209 52.233 169.658 52.233ZM174.159 53V46.4545H175.13V47.4432H175.199C175.318 47.1193 175.534 46.8565 175.846 46.6548C176.159 46.4531 176.511 46.3523 176.903 46.3523C176.977 46.3523 177.069 46.3537 177.18 46.3565C177.291 46.3594 177.375 46.3636 177.431 46.3693V47.392C177.397 47.3835 177.319 47.3707 177.197 47.3537C177.078 47.3338 176.951 47.3239 176.818 47.3239C176.5 47.3239 176.216 47.3906 175.966 47.5241C175.718 47.6548 175.522 47.8366 175.377 48.0696C175.235 48.2997 175.164 48.5625 175.164 48.858V53H174.159ZM182.135 44.2727H183.396L186.362 51.517H186.464L189.43 44.2727H190.692V53H189.703V46.3693H189.618L186.891 53H185.936L183.209 46.3693H183.124V53H182.135V44.2727ZM192.674 53V46.4545H193.68V53H192.674ZM193.186 45.3636C192.99 45.3636 192.821 45.2969 192.679 45.1634C192.539 45.0298 192.47 44.8693 192.47 44.6818C192.47 44.4943 192.539 44.3338 192.679 44.2003C192.821 44.0668 192.99 44 193.186 44C193.382 44 193.549 44.0668 193.689 44.2003C193.831 44.3338 193.902 44.4943 193.902 44.6818C193.902 44.8693 193.831 45.0298 193.689 45.1634C193.549 45.2969 193.382 45.3636 193.186 45.3636ZM196.528 49.0625V53H195.522V46.4545H196.494V47.4773H196.579C196.732 47.1449 196.965 46.8778 197.278 46.6761C197.59 46.4716 197.994 46.3693 198.488 46.3693C198.931 46.3693 199.319 46.4602 199.651 46.642C199.984 46.821 200.242 47.0938 200.427 47.4602C200.612 47.8239 200.704 48.2841 200.704 48.8409V53H199.698V48.9091C199.698 48.3949 199.565 47.9943 199.298 47.7074C199.031 47.4176 198.664 47.2727 198.198 47.2727C197.877 47.2727 197.59 47.3423 197.337 47.4815C197.087 47.6207 196.89 47.8239 196.745 48.0909C196.6 48.358 196.528 48.6818 196.528 49.0625ZM205.286 53.1364C204.655 53.1364 204.111 52.9972 203.654 52.7188C203.199 52.4375 202.848 52.0455 202.601 51.5426C202.357 51.0369 202.235 50.4489 202.235 49.7784C202.235 49.108 202.357 48.517 202.601 48.0057C202.848 47.4915 203.192 47.0909 203.632 46.804C204.076 46.5142 204.593 46.3693 205.184 46.3693C205.525 46.3693 205.861 46.4261 206.194 46.5398C206.526 46.6534 206.828 46.8381 207.101 47.0938C207.374 47.3466 207.591 47.6818 207.753 48.0994C207.915 48.517 207.996 49.0312 207.996 49.642V50.0682H202.951V49.1989H206.973C206.973 48.8295 206.9 48.5 206.752 48.2102C206.607 47.9205 206.4 47.6918 206.13 47.5241C205.863 47.3565 205.547 47.2727 205.184 47.2727C204.783 47.2727 204.436 47.3722 204.144 47.571C203.854 47.767 203.631 48.0227 203.475 48.3381C203.319 48.6534 203.24 48.9915 203.24 49.3523V49.9318C203.24 50.4261 203.326 50.8452 203.496 51.1889C203.669 51.5298 203.909 51.7898 204.216 51.9688C204.523 52.1449 204.88 52.233 205.286 52.233C205.55 52.233 205.789 52.196 206.002 52.1222C206.218 52.0455 206.404 51.9318 206.56 51.7812C206.716 51.6278 206.837 51.4375 206.922 51.2102L207.894 51.483C207.792 51.8125 207.62 52.1023 207.378 52.3523C207.137 52.5994 206.838 52.7926 206.483 52.9318C206.128 53.0682 205.729 53.1364 205.286 53.1364ZM212.185 53.1364C211.571 53.1364 211.043 52.9915 210.6 52.7017C210.157 52.4119 209.816 52.0128 209.577 51.5043C209.338 50.9957 209.219 50.4148 209.219 49.7614C209.219 49.0966 209.341 48.5099 209.586 48.0014C209.833 47.4901 210.176 47.0909 210.617 46.804C211.06 46.5142 211.577 46.3693 212.168 46.3693C212.628 46.3693 213.043 46.4545 213.412 46.625C213.782 46.7955 214.084 47.0341 214.32 47.3409C214.556 47.6477 214.702 48.0057 214.759 48.4148H213.753C213.676 48.1165 213.506 47.8523 213.242 47.6222C212.98 47.3892 212.628 47.2727 212.185 47.2727C211.793 47.2727 211.449 47.375 211.154 47.5795C210.861 47.7812 210.632 48.0668 210.468 48.4361C210.306 48.8026 210.225 49.233 210.225 49.7273C210.225 50.233 210.304 50.6733 210.463 51.0483C210.625 51.4233 210.853 51.7145 211.145 51.9219C211.441 52.1293 211.787 52.233 212.185 52.233C212.446 52.233 212.684 52.1875 212.897 52.0966C213.11 52.0057 213.29 51.875 213.438 51.7045C213.586 51.5341 213.691 51.3295 213.753 51.0909H214.759C214.702 51.4773 214.561 51.8253 214.337 52.1349C214.115 52.4418 213.821 52.6861 213.455 52.8679C213.091 53.0469 212.668 53.1364 212.185 53.1364ZM216.229 53V46.4545H217.201V47.4432H217.269C217.388 47.1193 217.604 46.8565 217.917 46.6548C218.229 46.4531 218.581 46.3523 218.973 46.3523C219.047 46.3523 219.14 46.3537 219.25 46.3565C219.361 46.3594 219.445 46.3636 219.502 46.3693V47.392C219.468 47.3835 219.39 47.3707 219.267 47.3537C219.148 47.3338 219.022 47.3239 218.888 47.3239C218.57 47.3239 218.286 47.3906 218.036 47.5241C217.789 47.6548 217.593 47.8366 217.448 48.0696C217.306 48.2997 217.235 48.5625 217.235 48.858V53H216.229ZM222.62 53.1534C222.205 53.1534 221.829 53.0753 221.491 52.919C221.153 52.7599 220.884 52.5312 220.685 52.233C220.487 51.9318 220.387 51.5682 220.387 51.142C220.387 50.767 220.461 50.4631 220.609 50.2301C220.756 49.9943 220.954 49.8097 221.201 49.6761C221.448 49.5426 221.721 49.4432 222.019 49.3778C222.32 49.3097 222.623 49.2557 222.927 49.2159C223.325 49.1648 223.647 49.1264 223.894 49.1009C224.144 49.0724 224.326 49.0256 224.44 48.9602C224.556 48.8949 224.614 48.7812 224.614 48.6193V48.5852C224.614 48.1648 224.499 47.8381 224.269 47.6051C224.042 47.3722 223.697 47.2557 223.234 47.2557C222.754 47.2557 222.377 47.3608 222.104 47.571C221.832 47.7812 221.64 48.0057 221.529 48.2443L220.575 47.9034C220.745 47.5057 220.972 47.196 221.256 46.9744C221.543 46.75 221.856 46.5937 222.194 46.5057C222.535 46.4148 222.87 46.3693 223.2 46.3693C223.41 46.3693 223.651 46.3949 223.924 46.446C224.2 46.4943 224.465 46.5952 224.721 46.7486C224.979 46.902 225.194 47.1335 225.364 47.4432C225.535 47.7528 225.62 48.1676 225.62 48.6875V53H224.614V52.1136H224.563C224.495 52.2557 224.381 52.4077 224.222 52.5696C224.063 52.7315 223.852 52.8693 223.587 52.983C223.323 53.0966 223.001 53.1534 222.62 53.1534ZM222.773 52.25C223.171 52.25 223.506 52.1719 223.779 52.0156C224.055 51.8594 224.262 51.6577 224.401 51.4105C224.543 51.1634 224.614 50.9034 224.614 50.6307V49.7102C224.572 49.7614 224.478 49.8082 224.333 49.8509C224.191 49.8906 224.026 49.9261 223.839 49.9574C223.654 49.9858 223.474 50.0114 223.298 50.0341C223.124 50.054 222.984 50.071 222.876 50.0852C222.614 50.1193 222.37 50.1747 222.143 50.2514C221.918 50.3253 221.737 50.4375 221.597 50.5881C221.461 50.7358 221.393 50.9375 221.393 51.1932C221.393 51.5426 221.522 51.8068 221.781 51.9858C222.042 52.1619 222.373 52.25 222.773 52.25ZM230.37 46.4545V47.3068H226.842V46.4545H230.37ZM227.899 53V45.5511C227.899 45.1761 227.987 44.8636 228.163 44.6136C228.339 44.3636 228.568 44.1761 228.849 44.0511C229.13 43.9261 229.427 43.8636 229.74 43.8636C229.987 43.8636 230.189 43.8835 230.345 43.9233C230.501 43.9631 230.618 44 230.694 44.0341L230.404 44.9034C230.353 44.8864 230.282 44.8651 230.191 44.8395C230.103 44.8139 229.987 44.8011 229.842 44.8011C229.51 44.8011 229.27 44.8849 229.122 45.0526C228.977 45.2202 228.904 45.4659 228.904 45.7898V53H227.899ZM234.626 46.4545V47.3068H231.234V46.4545H234.626ZM232.223 44.8864H233.229V51.125C233.229 51.4091 233.27 51.6222 233.352 51.7642C233.438 51.9034 233.545 51.9972 233.676 52.0455C233.81 52.0909 233.95 52.1136 234.098 52.1136C234.209 52.1136 234.3 52.108 234.371 52.0966C234.442 52.0824 234.499 52.071 234.541 52.0625L234.746 52.9659C234.678 52.9915 234.582 53.017 234.46 53.0426C234.338 53.071 234.183 53.0852 233.996 53.0852C233.712 53.0852 233.433 53.0241 233.161 52.902C232.891 52.7798 232.666 52.5938 232.487 52.3438C232.311 52.0938 232.223 51.7784 232.223 51.3977V44.8864Z" fill="#768395"/>
<circle cx="18" cy="79" r="6" fill="#B07219"/>
<circle cx="18" cy="79" r="5.5" stroke="white" stroke-opacity="0.14902"/>
<path d="M36.3977 74.7727H37.4545V81.0114C37.4545 81.5682 37.3523 82.0412 37.1477 82.4304C36.9432 82.8196 36.6548 83.1151 36.2827 83.3168C35.9105 83.5185 35.4716 83.6193 34.9659 83.6193C34.4886 83.6193 34.0639 83.5327 33.6918 83.3594C33.3196 83.1832 33.027 82.9332 32.8139 82.6094C32.6009 82.2855 32.4943 81.9006 32.4943 81.4545H33.5341C33.5341 81.7017 33.5952 81.9176 33.7173 82.1023C33.8423 82.2841 34.0128 82.4261 34.2287 82.5284C34.4446 82.6307 34.6903 82.6818 34.9659 82.6818C35.2699 82.6818 35.5284 82.6179 35.7415 82.4901C35.9545 82.3622 36.1165 82.1747 36.2273 81.9276C36.3409 81.6776 36.3977 81.3722 36.3977 81.0114V74.7727ZM41.3622 83.6534C40.9474 83.6534 40.571 83.5753 40.233 83.419C39.8949 83.2599 39.6264 83.0312 39.4276 82.733C39.2287 82.4318 39.1293 82.0682 39.1293 81.642C39.1293 81.267 39.2031 80.9631 39.3509 80.7301C39.4986 80.4943 39.696 80.3097 39.9432 80.1761C40.1903 80.0426 40.4631 79.9432 40.7614 79.8778C41.0625 79.8097 41.3651 79.7557 41.669 79.7159C42.0668 79.6648 42.3892 79.6264 42.6364 79.6009C42.8864 79.5724 43.0682 79.5256 43.1818 79.4602C43.2983 79.3949 43.3565 79.2812 43.3565 79.1193V79.0852C43.3565 78.6648 43.2415 78.3381 43.0114 78.1051C42.7841 77.8722 42.4389 77.7557 41.9759 77.7557C41.4957 77.7557 41.1193 77.8608 40.8466 78.071C40.5739 78.2812 40.3821 78.5057 40.2713 78.7443L39.3168 78.4034C39.4872 78.0057 39.7145 77.696 39.9986 77.4744C40.2855 77.25 40.598 77.0937 40.9361 77.0057C41.277 76.9148 41.6122 76.8693 41.9418 76.8693C42.152 76.8693 42.3935 76.8949 42.6662 76.946C42.9418 76.9943 43.2074 77.0952 43.4631 77.2486C43.7216 77.402 43.9361 77.6335 44.1065 77.9432C44.277 78.2528 44.3622 78.6676 44.3622 79.1875V83.5H43.3565V82.6136H43.3054C43.2372 82.7557 43.1236 82.9077 42.9645 83.0696C42.8054 83.2315 42.5938 83.3693 42.3295 83.483C42.0653 83.5966 41.7429 83.6534 41.3622 83.6534ZM41.5156 82.75C41.9134 82.75 42.2486 82.6719 42.5213 82.5156C42.7969 82.3594 43.0043 82.1577 43.1435 81.9105C43.2855 81.6634 43.3565 81.4034 43.3565 81.1307V80.2102C43.3139 80.2614 43.2202 80.3082 43.0753 80.3509C42.9332 80.3906 42.7685 80.4261 42.581 80.4574C42.3963 80.4858 42.2159 80.5114 42.0398 80.5341C41.8665 80.554 41.7259 80.571 41.6179 80.5852C41.3565 80.6193 41.1122 80.6747 40.8849 80.7514C40.6605 80.8253 40.4787 80.9375 40.3395 81.0881C40.2031 81.2358 40.1349 81.4375 40.1349 81.6932C40.1349 82.0426 40.2642 82.3068 40.5227 82.4858C40.7841 82.6619 41.1151 82.75 41.5156 82.75ZM51.3157 76.9545L48.8952 83.5H47.8725L45.4521 76.9545H46.543L48.3498 82.1705H48.418L50.2248 76.9545H51.3157ZM54.37 83.6534C53.9553 83.6534 53.5788 83.5753 53.2408 83.419C52.9027 83.2599 52.6342 83.0312 52.4354 82.733C52.2365 82.4318 52.1371 82.0682 52.1371 81.642C52.1371 81.267 52.2109 80.9631 52.3587 80.7301C52.5064 80.4943 52.7038 80.3097 52.951 80.1761C53.1982 80.0426 53.4709 79.9432 53.7692 79.8778C54.0703 79.8097 54.3729 79.7557 54.6768 79.7159C55.0746 79.6648 55.397 79.6264 55.6442 79.6009C55.8942 79.5724 56.076 79.5256 56.1896 79.4602C56.3061 79.3949 56.3643 79.2812 56.3643 79.1193V79.0852C56.3643 78.6648 56.2493 78.3381 56.0192 78.1051C55.7919 77.8722 55.4467 77.7557 54.9837 77.7557C54.5036 77.7557 54.1271 77.8608 53.8544 78.071C53.5817 78.2812 53.3899 78.5057 53.2791 78.7443L52.3246 78.4034C52.495 78.0057 52.7223 77.696 53.0064 77.4744C53.2933 77.25 53.6058 77.0937 53.9439 77.0057C54.2848 76.9148 54.62 76.8693 54.9496 76.8693C55.1598 76.8693 55.4013 76.8949 55.674 76.946C55.9496 76.9943 56.2152 77.0952 56.4709 77.2486C56.7294 77.402 56.9439 77.6335 57.1143 77.9432C57.2848 78.2528 57.37 78.6676 57.37 79.1875V83.5H56.3643V82.6136H56.3132C56.245 82.7557 56.1314 82.9077 55.9723 83.0696C55.8132 83.2315 55.6016 83.3693 55.3374 83.483C55.0732 83.5966 54.7507 83.6534 54.37 83.6534ZM54.5234 82.75C54.9212 82.75 55.2564 82.6719 55.5291 82.5156C55.8047 82.3594 56.0121 82.1577 56.1513 81.9105C56.2933 81.6634 56.3643 81.4034 56.3643 81.1307V80.2102C56.3217 80.2614 56.228 80.3082 56.0831 80.3509C55.9411 80.3906 55.7763 80.4261 55.5888 80.4574C55.4041 80.4858 55.2237 80.5114 55.0476 80.5341C54.8743 80.554 54.7337 80.571 54.6257 80.5852C54.3643 80.6193 54.12 80.6747 53.8928 80.7514C53.6683 80.8253 53.4865 80.9375 53.3473 81.0881C53.2109 81.2358 53.1428 81.4375 53.1428 81.6932C53.1428 82.0426 53.272 82.3068 53.5305 82.4858C53.7919 82.6619 54.1229 82.75 54.5234 82.75Z" fill="#768395"/>
<rect x="71" y="68" width="75" height="22" rx="11" fill="#388BFD" fill-opacity="0.101961"/>
<path d="M82.0568 74.7727H83.3182L86.2841 82.017H86.3864L89.3523 74.7727H90.6136V83.5H89.625V76.8693H89.5398L86.8125 83.5H85.858L83.1307 76.8693H83.0455V83.5H82.0568V74.7727ZM92.5962 83.5V76.9545H93.6019V83.5H92.5962ZM93.1076 75.8636C92.9116 75.8636 92.7425 75.7969 92.6005 75.6634C92.4613 75.5298 92.3917 75.3693 92.3917 75.1818C92.3917 74.9943 92.4613 74.8338 92.6005 74.7003C92.7425 74.5668 92.9116 74.5 93.1076 74.5C93.3036 74.5 93.4712 74.5668 93.6104 74.7003C93.7525 74.8338 93.8235 74.9943 93.8235 75.1818C93.8235 75.3693 93.7525 75.5298 93.6104 75.6634C93.4712 75.7969 93.3036 75.8636 93.1076 75.8636ZM96.4496 79.5625V83.5H95.4439V76.9545H96.4155V77.9773H96.5007C96.6541 77.6449 96.8871 77.3778 97.1996 77.1761C97.5121 76.9716 97.9155 76.8693 98.4098 76.8693C98.853 76.8693 99.2408 76.9602 99.5732 77.142C99.9055 77.321 100.164 77.5938 100.349 77.9602C100.533 78.3239 100.626 78.7841 100.626 79.3409V83.5H99.62V79.4091C99.62 78.8949 99.4865 78.4943 99.2195 78.2074C98.9524 77.9176 98.5859 77.7727 98.12 77.7727C97.799 77.7727 97.5121 77.8423 97.2592 77.9815C97.0092 78.1207 96.8118 78.3239 96.6669 78.5909C96.522 78.858 96.4496 79.1818 96.4496 79.5625ZM105.208 83.6364C104.577 83.6364 104.033 83.4972 103.576 83.2188C103.121 82.9375 102.77 82.5455 102.523 82.0426C102.279 81.5369 102.157 80.9489 102.157 80.2784C102.157 79.608 102.279 79.017 102.523 78.5057C102.77 77.9915 103.114 77.5909 103.554 77.304C103.998 77.0142 104.515 76.8693 105.105 76.8693C105.446 76.8693 105.783 76.9261 106.115 77.0398C106.448 77.1534 106.75 77.3381 107.023 77.5938C107.296 77.8466 107.513 78.1818 107.675 78.5994C107.837 79.017 107.918 79.5312 107.918 80.142V80.5682H102.873V79.6989H106.895C106.895 79.3295 106.821 79 106.674 78.7102C106.529 78.4205 106.321 78.1918 106.051 78.0241C105.784 77.8565 105.469 77.7727 105.105 77.7727C104.705 77.7727 104.358 77.8722 104.066 78.071C103.776 78.267 103.553 78.5227 103.397 78.8381C103.24 79.1534 103.162 79.4915 103.162 79.8523V80.4318C103.162 80.9261 103.248 81.3452 103.418 81.6889C103.591 82.0298 103.831 82.2898 104.138 82.4688C104.445 82.6449 104.801 82.733 105.208 82.733C105.472 82.733 105.711 82.696 105.924 82.6222C106.14 82.5455 106.326 82.4318 106.482 82.2812C106.638 82.1278 106.759 81.9375 106.844 81.7102L107.816 81.983C107.713 82.3125 107.542 82.6023 107.3 82.8523C107.059 83.0994 106.76 83.2926 106.405 83.4318C106.05 83.5682 105.651 83.6364 105.208 83.6364ZM112.107 83.6364C111.493 83.6364 110.965 83.4915 110.522 83.2017C110.078 82.9119 109.738 82.5128 109.499 82.0043C109.26 81.4957 109.141 80.9148 109.141 80.2614C109.141 79.5966 109.263 79.0099 109.507 78.5014C109.755 77.9901 110.098 77.5909 110.539 77.304C110.982 77.0142 111.499 76.8693 112.09 76.8693C112.55 76.8693 112.965 76.9545 113.334 77.125C113.703 77.2955 114.006 77.5341 114.242 77.8409C114.478 78.1477 114.624 78.5057 114.681 78.9148H113.675C113.598 78.6165 113.428 78.3523 113.164 78.1222C112.902 77.8892 112.55 77.7727 112.107 77.7727C111.715 77.7727 111.371 77.875 111.076 78.0795C110.783 78.2812 110.554 78.5668 110.39 78.9361C110.228 79.3026 110.147 79.733 110.147 80.2273C110.147 80.733 110.226 81.1733 110.385 81.5483C110.547 81.9233 110.775 82.2145 111.067 82.4219C111.363 82.6293 111.709 82.733 112.107 82.733C112.368 82.733 112.605 82.6875 112.819 82.5966C113.032 82.5057 113.212 82.375 113.36 82.2045C113.507 82.0341 113.613 81.8295 113.675 81.5909H114.681C114.624 81.9773 114.483 82.3253 114.259 82.6349C114.037 82.9418 113.743 83.1861 113.377 83.3679C113.013 83.5469 112.59 83.6364 112.107 83.6364ZM116.151 83.5V76.9545H117.123V77.9432H117.191C117.31 77.6193 117.526 77.3565 117.838 77.1548C118.151 76.9531 118.503 76.8523 118.895 76.8523C118.969 76.8523 119.061 76.8537 119.172 76.8565C119.283 76.8594 119.367 76.8636 119.424 76.8693V77.892C119.39 77.8835 119.311 77.8707 119.189 77.8537C119.07 77.8338 118.944 77.8239 118.81 77.8239C118.492 77.8239 118.208 77.8906 117.958 78.0241C117.711 78.1548 117.515 78.3366 117.37 78.5696C117.228 78.7997 117.157 79.0625 117.157 79.358V83.5H116.151ZM122.542 83.6534C122.127 83.6534 121.751 83.5753 121.413 83.419C121.075 83.2599 120.806 83.0312 120.607 82.733C120.408 82.4318 120.309 82.0682 120.309 81.642C120.309 81.267 120.383 80.9631 120.531 80.7301C120.678 80.4943 120.876 80.3097 121.123 80.1761C121.37 80.0426 121.643 79.9432 121.941 79.8778C122.242 79.8097 122.545 79.7557 122.849 79.7159C123.246 79.6648 123.569 79.6264 123.816 79.6009C124.066 79.5724 124.248 79.5256 124.362 79.4602C124.478 79.3949 124.536 79.2812 124.536 79.1193V79.0852C124.536 78.6648 124.421 78.3381 124.191 78.1051C123.964 77.8722 123.619 77.7557 123.156 77.7557C122.675 77.7557 122.299 77.8608 122.026 78.071C121.754 78.2812 121.562 78.5057 121.451 78.7443L120.496 78.4034C120.667 78.0057 120.894 77.696 121.178 77.4744C121.465 77.25 121.778 77.0937 122.116 77.0057C122.457 76.9148 122.792 76.8693 123.121 76.8693C123.332 76.8693 123.573 76.8949 123.846 76.946C124.121 76.9943 124.387 77.0952 124.643 77.2486C124.901 77.402 125.116 77.6335 125.286 77.9432C125.457 78.2528 125.542 78.6676 125.542 79.1875V83.5H124.536V82.6136H124.485C124.417 82.7557 124.303 82.9077 124.144 83.0696C123.985 83.2315 123.773 83.3693 123.509 83.483C123.245 83.5966 122.923 83.6534 122.542 83.6534ZM122.695 82.75C123.093 82.75 123.428 82.6719 123.701 82.5156C123.977 82.3594 124.184 82.1577 124.323 81.9105C124.465 81.6634 124.536 81.4034 124.536 81.1307V80.2102C124.494 80.2614 124.4 80.3082 124.255 80.3509C124.113 80.3906 123.948 80.4261 123.761 80.4574C123.576 80.4858 123.396 80.5114 123.219 80.5341C123.046 80.554 122.906 80.571 122.798 80.5852C122.536 80.6193 122.292 80.6747 122.065 80.7514C121.84 80.8253 121.658 80.9375 121.519 81.0881C121.383 81.2358 121.315 81.4375 121.315 81.6932C121.315 82.0426 121.444 82.3068 121.702 82.4858C121.964 82.6619 122.295 82.75 122.695 82.75ZM130.292 76.9545V77.8068H126.764V76.9545H130.292ZM127.821 83.5V76.0511C127.821 75.6761 127.909 75.3636 128.085 75.1136C128.261 74.8636 128.49 74.6761 128.771 74.5511C129.052 74.4261 129.349 74.3636 129.662 74.3636C129.909 74.3636 130.11 74.3835 130.267 74.4233C130.423 74.4631 130.539 74.5 130.616 74.5341L130.326 75.4034C130.275 75.3864 130.204 75.3651 130.113 75.3395C130.025 75.3139 129.909 75.3011 129.764 75.3011C129.431 75.3011 129.191 75.3849 129.044 75.5526C128.899 75.7202 128.826 75.9659 128.826 76.2898V83.5H127.821ZM134.548 76.9545V77.8068H131.156V76.9545H134.548ZM132.145 75.3864H133.151V81.625C133.151 81.9091 133.192 82.1222 133.274 82.2642C133.359 82.4034 133.467 82.4972 133.598 82.5455C133.732 82.5909 133.872 82.6136 134.02 82.6136C134.131 82.6136 134.222 82.608 134.293 82.5966C134.364 82.5824 134.42 82.571 134.463 82.5625L134.668 83.4659C134.599 83.4915 134.504 83.517 134.382 83.5426C134.26 83.571 134.105 83.5852 133.918 83.5852C133.634 83.5852 133.355 83.5241 133.082 83.402C132.813 83.2798 132.588 83.0938 132.409 82.8438C132.233 82.5938 132.145 82.2784 132.145 81.8977V75.3864Z" fill="#4493F8"/>
<rect x="158" y="68" width="56" height="22" rx="11" fill="#388BFD" fill-opacity="0.101961"/>
<path d="M169.057 83.5V74.7727H174.29V75.7102H170.114V78.6591H173.898V79.5966H170.114V83.5H169.057ZM177.89 83.6534C177.475 83.6534 177.098 83.5753 176.76 83.419C176.422 83.2599 176.154 83.0312 175.955 82.733C175.756 82.4318 175.657 82.0682 175.657 81.642C175.657 81.267 175.73 80.9631 175.878 80.7301C176.026 80.4943 176.223 80.3097 176.471 80.1761C176.718 80.0426 176.99 79.9432 177.289 79.8778C177.59 79.8097 177.892 79.7557 178.196 79.7159C178.594 79.6648 178.917 79.6264 179.164 79.6009C179.414 79.5724 179.596 79.5256 179.709 79.4602C179.826 79.3949 179.884 79.2812 179.884 79.1193V79.0852C179.884 78.6648 179.769 78.3381 179.539 78.1051C179.311 77.8722 178.966 77.7557 178.503 77.7557C178.023 77.7557 177.647 77.8608 177.374 78.071C177.101 78.2812 176.909 78.5057 176.799 78.7443L175.844 78.4034C176.015 78.0057 176.242 77.696 176.526 77.4744C176.813 77.25 177.125 77.0937 177.463 77.0057C177.804 76.9148 178.14 76.8693 178.469 76.8693C178.679 76.8693 178.921 76.8949 179.194 76.946C179.469 76.9943 179.735 77.0952 179.99 77.2486C180.249 77.402 180.463 77.6335 180.634 77.9432C180.804 78.2528 180.89 78.6676 180.89 79.1875V83.5H179.884V82.6136H179.833C179.765 82.7557 179.651 82.9077 179.492 83.0696C179.333 83.2315 179.121 83.3693 178.857 83.483C178.593 83.5966 178.27 83.6534 177.89 83.6534ZM178.043 82.75C178.441 82.75 178.776 82.6719 179.049 82.5156C179.324 82.3594 179.532 82.1577 179.671 81.9105C179.813 81.6634 179.884 81.4034 179.884 81.1307V80.2102C179.841 80.2614 179.748 80.3082 179.603 80.3509C179.461 80.3906 179.296 80.4261 179.108 80.4574C178.924 80.4858 178.743 80.5114 178.567 80.5341C178.394 80.554 178.253 80.571 178.145 80.5852C177.884 80.6193 177.64 80.6747 177.412 80.7514C177.188 80.8253 177.006 80.9375 176.867 81.0881C176.73 81.2358 176.662 81.4375 176.662 81.6932C176.662 82.0426 176.792 82.3068 177.05 82.4858C177.311 82.6619 177.642 82.75 178.043 82.75ZM182.862 83.5V74.7727H183.867V77.9943H183.952C184.026 77.8807 184.129 77.7358 184.259 77.5597C184.393 77.3807 184.583 77.2216 184.83 77.0824C185.08 76.9403 185.418 76.8693 185.844 76.8693C186.396 76.8693 186.881 77.0071 187.302 77.2827C187.722 77.5582 188.05 77.9489 188.286 78.4545C188.522 78.9602 188.64 79.5568 188.64 80.2443C188.64 80.9375 188.522 81.5384 188.286 82.0469C188.05 82.5526 187.724 82.9446 187.306 83.223C186.888 83.4986 186.407 83.6364 185.862 83.6364C185.441 83.6364 185.104 83.5668 184.852 83.4276C184.599 83.2855 184.404 83.125 184.268 82.946C184.131 82.7642 184.026 82.6136 183.952 82.4943H183.833V83.5H182.862ZM183.85 80.2273C183.85 80.7216 183.923 81.1577 184.067 81.5355C184.212 81.9105 184.424 82.2045 184.702 82.4176C184.981 82.6278 185.322 82.733 185.725 82.733C186.146 82.733 186.496 82.6222 186.778 82.4006C187.062 82.1761 187.275 81.875 187.417 81.4972C187.562 81.1165 187.634 80.6932 187.634 80.2273C187.634 79.767 187.563 79.3523 187.421 78.983C187.282 78.6108 187.07 78.3168 186.786 78.1009C186.505 77.8821 186.151 77.7727 185.725 77.7727C185.316 77.7727 184.972 77.8764 184.694 78.0838C184.415 78.2884 184.205 78.5753 184.063 78.9446C183.921 79.3111 183.85 79.7386 183.85 80.2273ZM190.178 83.5V76.9545H191.15V77.9432H191.218C191.337 77.6193 191.553 77.3565 191.866 77.1548C192.178 76.9531 192.531 76.8523 192.923 76.8523C192.996 76.8523 193.089 76.8537 193.2 76.8565C193.31 76.8594 193.394 76.8636 193.451 76.8693V77.892C193.417 77.8835 193.339 77.8707 193.217 77.8537C193.097 77.8338 192.971 77.8239 192.837 77.8239C192.519 77.8239 192.235 77.8906 191.985 78.0241C191.738 78.1548 191.542 78.3366 191.397 78.5696C191.255 78.7997 191.184 79.0625 191.184 79.358V83.5H190.178ZM194.643 83.5V76.9545H195.649V83.5H194.643ZM195.154 75.8636C194.958 75.8636 194.789 75.7969 194.647 75.6634C194.508 75.5298 194.439 75.3693 194.439 75.1818C194.439 74.9943 194.508 74.8338 194.647 74.7003C194.789 74.5668 194.958 74.5 195.154 74.5C195.35 74.5 195.518 74.5668 195.657 74.7003C195.799 74.8338 195.87 74.9943 195.87 75.1818C195.87 75.3693 195.799 75.5298 195.657 75.6634C195.518 75.7969 195.35 75.8636 195.154 75.8636ZM200.15 83.6364C199.536 83.6364 199.008 83.4915 198.565 83.2017C198.121 82.9119 197.781 82.5128 197.542 82.0043C197.303 81.4957 197.184 80.9148 197.184 80.2614C197.184 79.5966 197.306 79.0099 197.55 78.5014C197.798 77.9901 198.141 77.5909 198.582 77.304C199.025 77.0142 199.542 76.8693 200.133 76.8693C200.593 76.8693 201.008 76.9545 201.377 77.125C201.746 77.2955 202.049 77.5341 202.285 77.8409C202.521 78.1477 202.667 78.5057 202.724 78.9148H201.718C201.641 78.6165 201.471 78.3523 201.207 78.1222C200.945 77.8892 200.593 77.7727 200.15 77.7727C199.758 77.7727 199.414 77.875 199.119 78.0795C198.826 78.2812 198.597 78.5668 198.433 78.9361C198.271 79.3026 198.19 79.733 198.19 80.2273C198.19 80.733 198.269 81.1733 198.428 81.5483C198.59 81.9233 198.817 82.2145 199.11 82.4219C199.406 82.6293 199.752 82.733 200.15 82.733C200.411 82.733 200.648 82.6875 200.862 82.5966C201.075 82.5057 201.255 82.375 201.403 82.2045C201.55 82.0341 201.656 81.8295 201.718 81.5909H202.724C202.667 81.9773 202.526 82.3253 202.302 82.6349C202.08 82.9418 201.786 83.1861 201.42 83.3679C201.056 83.5469 200.633 83.6364 200.15 83.6364Z" fill="#4493F8"/>
</svg>
