<svg width="416" height="114" viewBox="0 0 416 114" fill="none" xmlns="http://www.w3.org/2000/svg">
<rect width="416" height="102" rx="6" fill="#768395" fill-opacity="0.1"/>
<path d="M21.7195 19.2536H19.8601C19.8071 18.9486 19.7093 18.6785 19.5668 18.4432C19.4242 18.2045 19.2469 18.0024 19.0348 17.8366C18.8227 17.6709 18.5807 17.5466 18.3089 17.4638C18.0405 17.3776 17.7505 17.3345 17.4389 17.3345C16.8854 17.3345 16.3949 17.4737 15.9673 17.7521C15.5398 18.0272 15.205 18.4316 14.9631 18.9652C14.7211 19.4955 14.6001 20.1435 14.6001 20.9091C14.6001 21.688 14.7211 22.3442 14.9631 22.8778C15.2083 23.4081 15.5431 23.8092 15.9673 24.081C16.3949 24.3494 16.8838 24.4837 17.4339 24.4837C17.7389 24.4837 18.0239 24.4439 18.2891 24.3643C18.5575 24.2815 18.7978 24.1605 19.0099 24.0014C19.2254 23.8423 19.406 23.6468 19.5518 23.4148C19.701 23.1828 19.8037 22.9176 19.8601 22.6193L21.7195 22.6293C21.6499 23.1132 21.4991 23.5672 21.267 23.9915C21.0384 24.4157 20.7384 24.7902 20.3672 25.1151C19.996 25.4366 19.5618 25.6884 19.0646 25.8707C18.5675 26.0497 18.0156 26.1392 17.4091 26.1392C16.5142 26.1392 15.7154 25.9321 15.0128 25.5178C14.3101 25.1035 13.7566 24.5052 13.3523 23.723C12.9479 22.9408 12.7457 22.0028 12.7457 20.9091C12.7457 19.812 12.9496 18.8741 13.3572 18.0952C13.7649 17.313 14.3201 16.7147 15.0227 16.3004C15.7254 15.8861 16.5208 15.679 17.4091 15.679C17.9759 15.679 18.5028 15.7585 18.9901 15.9176C19.4773 16.0767 19.9115 16.3104 20.2926 16.6186C20.6738 16.9235 20.987 17.2981 21.2322 17.7422C21.4808 18.183 21.6432 18.6868 21.7195 19.2536ZM28.9419 18.6172C28.8955 18.183 28.7 17.8449 28.3553 17.603C28.0139 17.361 27.5698 17.2401 27.0229 17.2401C26.6384 17.2401 26.3087 17.2981 26.0336 17.4141C25.7585 17.5301 25.548 17.6875 25.4022 17.8864C25.2563 18.0852 25.1818 18.3123 25.1784 18.5675C25.1784 18.7796 25.2265 18.9635 25.3226 19.1193C25.4221 19.2751 25.5563 19.4077 25.7253 19.517C25.8944 19.6231 26.0816 19.7126 26.2871 19.7855C26.4926 19.8584 26.6998 19.9197 26.9086 19.9695L27.8631 20.2081C28.2476 20.2976 28.6171 20.4186 28.9718 20.571C29.3297 20.7235 29.6496 20.9157 29.9313 21.1477C30.2163 21.3797 30.4417 21.6598 30.6074 21.9879C30.7731 22.3161 30.856 22.7005 30.856 23.1413C30.856 23.7379 30.7035 24.2633 30.3986 24.7173C30.0937 25.1681 29.6529 25.5211 29.0762 25.7763C28.5028 26.0282 27.8084 26.1541 26.9931 26.1541C26.2009 26.1541 25.5132 26.0315 24.9299 25.7862C24.3498 25.541 23.8958 25.183 23.5676 24.7124C23.2428 24.2417 23.0672 23.6683 23.0407 22.9922H24.8553C24.8818 23.3468 24.9912 23.6418 25.1834 23.8771C25.3757 24.1125 25.6259 24.2881 25.9341 24.4041C26.2457 24.5201 26.5937 24.5781 26.9782 24.5781C27.3792 24.5781 27.7305 24.5185 28.0321 24.3991C28.3371 24.2765 28.5757 24.1075 28.748 23.892C28.9204 23.6733 29.0082 23.4181 29.0115 23.1264C29.0082 22.8613 28.9303 22.6425 28.7779 22.4702C28.6254 22.2945 28.4116 22.1487 28.1365 22.0327C27.8648 21.9134 27.5466 21.8073 27.182 21.7145L26.0236 21.4162C25.1851 21.2008 24.5222 20.8743 24.035 20.4368C23.5511 19.996 23.3091 19.411 23.3091 18.6818C23.3091 18.0819 23.4715 17.5566 23.7963 17.1058C24.1245 16.6551 24.5703 16.3054 25.1337 16.0568C25.6971 15.8049 26.3352 15.679 27.0478 15.679C27.7703 15.679 28.4034 15.8049 28.9469 16.0568C29.4938 16.3054 29.923 16.6518 30.2346 17.0959C30.5461 17.5367 30.7069 18.0438 30.7168 18.6172H28.9419ZM41.2156 19.2536H39.3562C39.3031 18.9486 39.2054 18.6785 39.0629 18.4432C38.9203 18.2045 38.743 18.0024 38.5309 17.8366C38.3188 17.6709 38.0768 17.5466 37.805 17.4638C37.5366 17.3776 37.2466 17.3345 36.935 17.3345C36.3815 17.3345 35.891 17.4737 35.4634 17.7521C35.0359 18.0272 34.7011 18.4316 34.4592 18.9652C34.2172 19.4955 34.0962 20.1435 34.0962 20.9091C34.0962 21.688 34.2172 22.3442 34.4592 22.8778C34.7044 23.4081 35.0392 23.8092 35.4634 24.081C35.891 24.3494 36.3799 24.4837 36.93 24.4837C37.235 24.4837 37.52 24.4439 37.7852 24.3643C38.0536 24.2815 38.2939 24.1605 38.506 24.0014C38.7215 23.8423 38.9021 23.6468 39.0479 23.4148C39.1971 23.1828 39.2998 22.9176 39.3562 22.6193L41.2156 22.6293C41.146 23.1132 40.9951 23.5672 40.7631 23.9915C40.5344 24.4157 40.2345 24.7902 39.8633 25.1151C39.4921 25.4366 39.0579 25.6884 38.5607 25.8707C38.0636 26.0497 37.5117 26.1392 36.9052 26.1392C36.0103 26.1392 35.2115 25.9321 34.5089 25.5178C33.8062 25.1035 33.2527 24.5052 32.8484 23.723C32.444 22.9408 32.2418 22.0028 32.2418 20.9091C32.2418 19.812 32.4457 18.8741 32.8533 18.0952C33.261 17.313 33.8162 16.7147 34.5188 16.3004C35.2215 15.8861 36.0169 15.679 36.9052 15.679C37.4719 15.679 37.9989 15.7585 38.4862 15.9176C38.9734 16.0767 39.4076 16.3104 39.7887 16.6186C40.1699 16.9235 40.4831 17.2981 40.7283 17.7422C40.9769 18.183 41.1393 18.6868 41.2156 19.2536ZM44.7491 15.8182V26H42.9047V15.8182H44.7491ZM49.9357 24.1108V22.6442L54.256 15.8182H55.479V17.9062H54.7333L51.8249 22.5149V22.5945H57.8555V24.1108H49.9357ZM54.793 26V23.6634L54.8129 23.0071V15.8182H56.5529V26H54.793ZM63.1726 26.1392C62.6854 26.1359 62.2098 26.0514 61.7457 25.8857C61.2817 25.7166 60.8641 25.4432 60.4929 25.0653C60.1217 24.6842 59.8267 24.1787 59.608 23.549C59.3892 22.916 59.2815 22.1321 59.2848 21.1974C59.2848 20.3258 59.3776 19.5485 59.5632 18.8658C59.7488 18.183 60.0156 17.6063 60.3636 17.1357C60.7116 16.6617 61.1309 16.3004 61.6214 16.0518C62.1153 15.8033 62.6671 15.679 63.277 15.679C63.9167 15.679 64.4834 15.8049 64.9773 16.0568C65.4744 16.3087 65.8755 16.6534 66.1804 17.0909C66.4853 17.5251 66.6742 18.0156 66.7472 18.5625H64.9325C64.8397 18.1714 64.6491 17.8598 64.3608 17.6278C64.0758 17.3925 63.7145 17.2749 63.277 17.2749C62.571 17.2749 62.0275 17.5814 61.6463 18.1946C61.2685 18.8078 61.0779 19.6496 61.0746 20.7202H61.1442C61.3066 20.4285 61.517 20.1783 61.7756 19.9695C62.0341 19.7607 62.3258 19.5999 62.6506 19.4872C62.9787 19.3712 63.325 19.3132 63.6896 19.3132C64.2862 19.3132 64.8215 19.4557 65.2955 19.7408C65.7727 20.0258 66.1506 20.4186 66.429 20.919C66.7074 21.4162 66.8449 21.9863 66.8416 22.6293C66.8449 23.2988 66.6925 23.9003 66.3842 24.4339C66.076 24.9643 65.6468 25.3819 65.0966 25.6868C64.5464 25.9917 63.9051 26.1425 63.1726 26.1392ZM63.1626 24.6477C63.5239 24.6477 63.8471 24.5599 64.1321 24.3842C64.4171 24.2086 64.6425 23.9716 64.8082 23.6733C64.974 23.375 65.0552 23.0402 65.0518 22.669C65.0552 22.3045 64.9756 21.9747 64.8132 21.6797C64.6541 21.3847 64.4337 21.151 64.152 20.9787C63.8703 20.8063 63.5488 20.7202 63.1875 20.7202C62.919 20.7202 62.6688 20.7715 62.4368 20.8743C62.2048 20.977 62.0026 21.1196 61.8303 21.3018C61.6579 21.4808 61.522 21.6896 61.4226 21.9283C61.3265 22.1636 61.2768 22.4155 61.2734 22.6839C61.2768 23.0386 61.3596 23.3651 61.522 23.6634C61.6844 23.9616 61.9081 24.2003 62.1932 24.3793C62.4782 24.5582 62.8014 24.6477 63.1626 24.6477ZM72.6634 15.8182V26H70.8189V17.6129H70.7592L68.3778 19.1342V17.4439L70.9084 15.8182H72.6634ZM76.3771 24.777C76.0755 24.777 75.817 24.6709 75.6016 24.4588C75.3861 24.2434 75.2801 23.9848 75.2834 23.6832C75.2801 23.3849 75.3861 23.1297 75.6016 22.9176C75.817 22.7055 76.0755 22.5994 76.3771 22.5994C76.6688 22.5994 76.9223 22.7055 77.1378 22.9176C77.3565 23.1297 77.4676 23.3849 77.4709 23.6832C77.4676 23.8854 77.4145 24.0694 77.3118 24.2351C77.2124 24.4008 77.0798 24.5334 76.9141 24.6328C76.7517 24.7289 76.5727 24.777 76.3771 24.777ZM76.3771 19.7308C76.0755 19.7308 75.817 19.6248 75.6016 19.4126C75.3861 19.1972 75.2801 18.9387 75.2834 18.6371C75.2801 18.3388 75.3861 18.0836 75.6016 17.8714C75.817 17.656 76.0755 17.5483 76.3771 17.5483C76.6688 17.5483 76.9223 17.656 77.1378 17.8714C77.3565 18.0836 77.4676 18.3388 77.4709 18.6371C77.4676 18.8359 77.4145 19.0182 77.3118 19.1839C77.2124 19.3497 77.0798 19.4822 76.9141 19.5817C76.7517 19.6811 76.5727 19.7308 76.3771 19.7308ZM84.1887 26H82.22L85.8045 15.8182H88.0815L91.671 26H89.7022L86.9828 17.9062H86.9032L84.1887 26ZM84.2534 22.0078H89.6227V23.4893H84.2534V22.0078ZM92.9325 26V18.3636H94.6776V19.6364H94.7571C94.8963 19.1955 95.1349 18.8558 95.473 18.6172C95.8144 18.3752 96.2038 18.2543 96.6413 18.2543C96.7408 18.2543 96.8518 18.2592 96.9744 18.2692C97.1004 18.2758 97.2048 18.2874 97.2876 18.304V19.9595C97.2114 19.933 97.0904 19.9098 96.9247 19.8899C96.7623 19.8667 96.6049 19.8551 96.4524 19.8551C96.1243 19.8551 95.8293 19.9264 95.5675 20.0689C95.3089 20.2081 95.1051 20.402 94.956 20.6506C94.8068 20.8991 94.7322 21.1858 94.7322 21.5107V26H92.9325ZM102.707 18.3636V19.7557H98.3168V18.3636H102.707ZM99.4006 16.5341H101.2V23.7031C101.2 23.9451 101.237 24.1307 101.31 24.2599C101.386 24.3859 101.485 24.4721 101.608 24.5185C101.731 24.5649 101.866 24.5881 102.016 24.5881C102.128 24.5881 102.231 24.5798 102.324 24.5632C102.42 24.5466 102.493 24.5317 102.543 24.5185L102.846 25.9254C102.75 25.9586 102.612 25.995 102.433 26.0348C102.258 26.0746 102.042 26.0978 101.787 26.1044C101.336 26.1177 100.93 26.0497 100.569 25.9006C100.208 25.7481 99.9209 25.5128 99.7088 25.1946C99.5 24.8764 99.3973 24.4787 99.4006 24.0014V16.5341ZM104.212 26V18.3636H106.012V26H104.212ZM105.117 17.2798C104.832 17.2798 104.586 17.1854 104.381 16.9964C104.175 16.8042 104.073 16.5739 104.073 16.3054C104.073 16.0336 104.175 15.8033 104.381 15.6143C104.586 15.4221 104.832 15.326 105.117 15.326C105.405 15.326 105.65 15.4221 105.852 15.6143C106.058 15.8033 106.161 16.0336 106.161 16.3054C106.161 16.5739 106.058 16.8042 105.852 16.9964C105.65 17.1854 105.405 17.2798 105.117 17.2798ZM111.73 18.3636V19.7557H107.216V18.3636H111.73ZM108.344 26V17.6428C108.344 17.129 108.451 16.7015 108.663 16.3601C108.878 16.0187 109.166 15.7635 109.528 15.5945C109.889 15.4254 110.29 15.3409 110.731 15.3409C111.042 15.3409 111.319 15.3658 111.561 15.4155C111.803 15.4652 111.982 15.5099 112.098 15.5497L111.74 16.9418C111.664 16.9186 111.568 16.8954 111.452 16.8722C111.336 16.8456 111.206 16.8324 111.064 16.8324C110.729 16.8324 110.492 16.9136 110.353 17.076C110.217 17.2351 110.149 17.4638 110.149 17.7621V26H108.344ZM113.14 26V18.3636H114.939V26H113.14ZM114.044 17.2798C113.759 17.2798 113.514 17.1854 113.309 16.9964C113.103 16.8042 113 16.5739 113 16.3054C113 16.0336 113.103 15.8033 113.309 15.6143C113.514 15.4221 113.759 15.326 114.044 15.326C114.333 15.326 114.578 15.4221 114.78 15.6143C114.986 15.8033 115.088 16.0336 115.088 16.3054C115.088 16.5739 114.986 16.8042 114.78 16.9964C114.578 17.1854 114.333 17.2798 114.044 17.2798ZM120.121 26.1491C119.359 26.1491 118.704 25.9818 118.157 25.647C117.614 25.3123 117.194 24.8499 116.899 24.2599C116.608 23.6667 116.462 22.9839 116.462 22.2116C116.462 21.4361 116.611 20.7517 116.909 20.1584C117.208 19.5618 117.628 19.0978 118.172 18.7663C118.719 18.4316 119.365 18.2642 120.111 18.2642C120.731 18.2642 121.279 18.3786 121.757 18.6072C122.237 18.8326 122.62 19.1525 122.905 19.5668C123.19 19.9777 123.352 20.4583 123.392 21.0085H121.672C121.602 20.6406 121.437 20.334 121.175 20.0888C120.916 19.8402 120.57 19.7159 120.136 19.7159C119.768 19.7159 119.445 19.8153 119.166 20.0142C118.888 20.2098 118.671 20.4915 118.515 20.8594C118.363 21.2273 118.286 21.6681 118.286 22.1818C118.286 22.7022 118.363 23.1496 118.515 23.5241C118.668 23.8954 118.881 24.1821 119.156 24.3842C119.435 24.5831 119.761 24.6825 120.136 24.6825C120.401 24.6825 120.638 24.6328 120.847 24.5334C121.059 24.4306 121.236 24.2831 121.379 24.0909C121.521 23.8987 121.619 23.665 121.672 23.3899H123.392C123.349 23.9302 123.19 24.4091 122.915 24.8267C122.64 25.241 122.265 25.5658 121.791 25.8011C121.317 26.0331 120.761 26.1491 120.121 26.1491ZM124.87 26V18.3636H126.67V26H124.87ZM125.775 17.2798C125.49 17.2798 125.245 17.1854 125.039 16.9964C124.834 16.8042 124.731 16.5739 124.731 16.3054C124.731 16.0336 124.834 15.8033 125.039 15.6143C125.245 15.4221 125.49 15.326 125.775 15.326C126.063 15.326 126.308 15.4221 126.511 15.6143C126.716 15.8033 126.819 16.0336 126.819 16.3054C126.819 16.5739 126.716 16.8042 126.511 16.9964C126.308 17.1854 126.063 17.2798 125.775 17.2798ZM130.718 26.1541C130.234 26.1541 129.798 26.0679 129.41 25.8956C129.026 25.7199 128.721 25.4614 128.496 25.12C128.273 24.7786 128.162 24.3577 128.162 23.8572C128.162 23.4264 128.242 23.0701 128.401 22.7884C128.56 22.5066 128.777 22.2812 129.052 22.1122C129.327 21.9432 129.637 21.8156 129.982 21.7294C130.33 21.6399 130.69 21.5753 131.061 21.5355C131.508 21.4891 131.871 21.4477 132.15 21.4112C132.428 21.3714 132.63 21.3118 132.756 21.2322C132.885 21.1494 132.95 21.0218 132.95 20.8494V20.8196C132.95 20.4451 132.839 20.1551 132.617 19.9496C132.395 19.7441 132.075 19.6413 131.657 19.6413C131.217 19.6413 130.867 19.7375 130.608 19.9297C130.353 20.1219 130.181 20.349 130.091 20.6108L128.411 20.3722C128.544 19.9081 128.762 19.5204 129.067 19.2088C129.372 18.8939 129.745 18.6586 130.186 18.5028C130.627 18.3438 131.114 18.2642 131.648 18.2642C132.015 18.2642 132.382 18.3073 132.746 18.3935C133.111 18.4796 133.444 18.6222 133.746 18.821C134.047 19.0166 134.289 19.2834 134.471 19.6214C134.657 19.9595 134.75 20.3821 134.75 20.8892V26H133.02V24.951H132.96C132.851 25.1631 132.697 25.362 132.498 25.5476C132.302 25.7299 132.055 25.8774 131.757 25.9901C131.462 26.0994 131.116 26.1541 130.718 26.1541ZM131.185 24.8317C131.546 24.8317 131.86 24.7604 132.125 24.6179C132.39 24.4721 132.594 24.2798 132.736 24.0412C132.882 23.8026 132.955 23.5424 132.955 23.2607V22.3608C132.899 22.4072 132.803 22.4503 132.667 22.4901C132.534 22.5298 132.385 22.5646 132.219 22.5945C132.054 22.6243 131.89 22.6508 131.727 22.674C131.565 22.6972 131.424 22.7171 131.305 22.7337C131.036 22.7701 130.796 22.8298 130.584 22.9126C130.372 22.9955 130.204 23.1115 130.081 23.2607C129.959 23.4065 129.898 23.5954 129.898 23.8274C129.898 24.1589 130.019 24.4091 130.26 24.5781C130.502 24.7472 130.811 24.8317 131.185 24.8317ZM138.359 15.8182V26H136.559V15.8182H138.359ZM145.607 15.8182V26H143.762V15.8182H145.607ZM149.324 21.5256V26H147.524V18.3636H149.244V19.6612H149.334C149.51 19.2337 149.79 18.8939 150.174 18.642C150.562 18.3902 151.041 18.2642 151.611 18.2642C152.138 18.2642 152.597 18.3769 152.988 18.6023C153.383 18.8277 153.687 19.1541 153.903 19.5817C154.122 20.0092 154.229 20.5279 154.226 21.1378V26H152.426V21.4162C152.426 20.9058 152.294 20.5064 152.029 20.218C151.767 19.9297 151.404 19.7855 150.94 19.7855C150.625 19.7855 150.345 19.8551 150.1 19.9943C149.858 20.1302 149.667 20.3274 149.528 20.5859C149.392 20.8445 149.324 21.1577 149.324 21.5256ZM159.869 18.3636V19.7557H155.479V18.3636H159.869ZM156.563 16.5341H158.362V23.7031C158.362 23.9451 158.399 24.1307 158.472 24.2599C158.548 24.3859 158.647 24.4721 158.77 24.5185C158.893 24.5649 159.029 24.5881 159.178 24.5881C159.29 24.5881 159.393 24.5798 159.486 24.5632C159.582 24.5466 159.655 24.5317 159.705 24.5185L160.008 25.9254C159.912 25.9586 159.774 25.995 159.595 26.0348C159.42 26.0746 159.204 26.0978 158.949 26.1044C158.498 26.1177 158.092 26.0497 157.731 25.9006C157.37 25.7481 157.083 25.5128 156.871 25.1946C156.662 24.8764 156.559 24.4787 156.563 24.0014V16.5341ZM164.673 26.1491C163.907 26.1491 163.246 25.9901 162.689 25.6719C162.135 25.3504 161.71 24.8963 161.411 24.3097C161.113 23.7197 160.964 23.0253 160.964 22.2266C160.964 21.4411 161.113 20.7517 161.411 20.1584C161.713 19.5618 162.134 19.0978 162.674 18.7663C163.214 18.4316 163.849 18.2642 164.578 18.2642C165.049 18.2642 165.493 18.3404 165.911 18.4929C166.331 18.642 166.703 18.8741 167.024 19.1889C167.349 19.5038 167.604 19.9048 167.79 20.392C167.975 20.8759 168.068 21.4527 168.068 22.1222V22.674H161.809V21.4609H166.343C166.34 21.1162 166.265 20.8097 166.119 20.5412C165.973 20.2694 165.77 20.0556 165.508 19.8999C165.249 19.7441 164.948 19.6662 164.603 19.6662C164.235 19.6662 163.912 19.7557 163.634 19.9347C163.355 20.1103 163.138 20.3423 162.982 20.6307C162.83 20.9157 162.752 21.2289 162.749 21.5703V22.6293C162.749 23.0734 162.83 23.4545 162.992 23.7727C163.155 24.0876 163.382 24.3295 163.673 24.4986C163.965 24.6643 164.306 24.7472 164.697 24.7472C164.959 24.7472 165.196 24.7107 165.408 24.6378C165.621 24.5616 165.804 24.4505 165.96 24.3047C166.116 24.1589 166.234 23.9782 166.313 23.7628L167.994 23.9517C167.888 24.3958 167.685 24.7836 167.387 25.1151C167.092 25.4432 166.714 25.6984 166.254 25.8807C165.793 26.0597 165.266 26.1491 164.673 26.1491ZM171.39 15.8182V26H169.591V15.8182H171.39ZM175.041 15.8182V26H173.241V15.8182H175.041ZM176.892 26V18.3636H178.691V26H176.892ZM177.796 17.2798C177.511 17.2798 177.266 17.1854 177.061 16.9964C176.855 16.8042 176.752 16.5739 176.752 16.3054C176.752 16.0336 176.855 15.8033 177.061 15.6143C177.266 15.4221 177.511 15.326 177.796 15.326C178.085 15.326 178.33 15.4221 178.532 15.6143C178.738 15.8033 178.84 16.0336 178.84 16.3054C178.84 16.5739 178.738 16.8042 178.532 16.9964C178.33 17.1854 178.085 17.2798 177.796 17.2798ZM183.863 29.0227C183.217 29.0227 182.661 28.9349 182.197 28.7592C181.733 28.5869 181.361 28.3549 181.079 28.0632C180.797 27.7715 180.602 27.4484 180.492 27.0938L182.113 26.701C182.186 26.8501 182.292 26.9976 182.431 27.1435C182.57 27.2926 182.758 27.4152 182.993 27.5114C183.232 27.6108 183.531 27.6605 183.893 27.6605C184.403 27.6605 184.826 27.5362 185.161 27.2876C185.495 27.0424 185.663 26.638 185.663 26.0746V24.6278H185.573C185.48 24.8134 185.344 25.004 185.165 25.1996C184.99 25.3951 184.756 25.5592 184.464 25.6918C184.176 25.8243 183.813 25.8906 183.376 25.8906C182.789 25.8906 182.257 25.7531 181.78 25.478C181.306 25.1996 180.928 24.7853 180.646 24.2351C180.368 23.6816 180.229 22.9889 180.229 22.157C180.229 21.3184 180.368 20.6108 180.646 20.0341C180.928 19.4541 181.308 19.0149 181.785 18.7166C182.262 18.415 182.794 18.2642 183.381 18.2642C183.828 18.2642 184.196 18.3404 184.484 18.4929C184.776 18.642 185.008 18.8227 185.18 19.0348C185.353 19.2436 185.484 19.4408 185.573 19.6264H185.673V18.3636H187.447V26.1243C187.447 26.7772 187.292 27.3175 186.98 27.745C186.669 28.1726 186.243 28.4924 185.702 28.7045C185.162 28.9167 184.549 29.0227 183.863 29.0227ZM183.878 24.4787C184.259 24.4787 184.584 24.3859 184.852 24.2003C185.121 24.0147 185.325 23.7479 185.464 23.3999C185.603 23.0518 185.673 22.6342 185.673 22.147C185.673 21.6664 185.603 21.2455 185.464 20.8842C185.328 20.523 185.126 20.2429 184.857 20.044C184.592 19.8419 184.266 19.7408 183.878 19.7408C183.477 19.7408 183.142 19.8452 182.874 20.054C182.605 20.2628 182.403 20.5495 182.267 20.9141C182.131 21.2753 182.063 21.6863 182.063 22.147C182.063 22.6143 182.131 23.0237 182.267 23.375C182.406 23.723 182.61 23.9948 182.879 24.1903C183.15 24.3826 183.483 24.4787 183.878 24.4787ZM192.673 26.1491C191.907 26.1491 191.246 25.9901 190.689 25.6719C190.135 25.3504 189.71 24.8963 189.411 24.3097C189.113 23.7197 188.964 23.0253 188.964 22.2266C188.964 21.4411 189.113 20.7517 189.411 20.1584C189.713 19.5618 190.134 19.0978 190.674 18.7663C191.214 18.4316 191.849 18.2642 192.578 18.2642C193.049 18.2642 193.493 18.3404 193.911 18.4929C194.331 18.642 194.703 18.8741 195.024 19.1889C195.349 19.5038 195.604 19.9048 195.79 20.392C195.975 20.8759 196.068 21.4527 196.068 22.1222V22.674H189.809V21.4609H194.343C194.34 21.1162 194.265 20.8097 194.119 20.5412C193.973 20.2694 193.77 20.0556 193.508 19.8999C193.249 19.7441 192.948 19.6662 192.603 19.6662C192.235 19.6662 191.912 19.7557 191.634 19.9347C191.355 20.1103 191.138 20.3423 190.982 20.6307C190.83 20.9157 190.752 21.2289 190.749 21.5703V22.6293C190.749 23.0734 190.83 23.4545 190.992 23.7727C191.155 24.0876 191.382 24.3295 191.673 24.4986C191.965 24.6643 192.306 24.7472 192.697 24.7472C192.959 24.7472 193.196 24.7107 193.408 24.6378C193.621 24.5616 193.804 24.4505 193.96 24.3047C194.116 24.1589 194.234 23.9782 194.313 23.7628L195.994 23.9517C195.888 24.3958 195.685 24.7836 195.387 25.1151C195.092 25.4432 194.714 25.6984 194.254 25.8807C193.793 26.0597 193.266 26.1491 192.673 26.1491ZM199.39 21.5256V26H197.591V18.3636H199.311V19.6612H199.4C199.576 19.2337 199.856 18.8939 200.241 18.642C200.628 18.3902 201.107 18.2642 201.677 18.2642C202.204 18.2642 202.663 18.3769 203.055 18.6023C203.449 18.8277 203.754 19.1541 203.969 19.5817C204.188 20.0092 204.296 20.5279 204.292 21.1378V26H202.493V21.4162C202.493 20.9058 202.36 20.5064 202.095 20.218C201.833 19.9297 201.47 19.7855 201.006 19.7855C200.691 19.7855 200.411 19.8551 200.166 19.9943C199.924 20.1302 199.733 20.3274 199.594 20.5859C199.458 20.8445 199.39 21.1577 199.39 21.5256ZM209.453 26.1491C208.691 26.1491 208.036 25.9818 207.489 25.647C206.946 25.3123 206.526 24.8499 206.231 24.2599C205.94 23.6667 205.794 22.9839 205.794 22.2116C205.794 21.4361 205.943 20.7517 206.241 20.1584C206.54 19.5618 206.961 19.0978 207.504 18.7663C208.051 18.4316 208.697 18.2642 209.443 18.2642C210.063 18.2642 210.611 18.3786 211.089 18.6072C211.569 18.8326 211.952 19.1525 212.237 19.5668C212.522 19.9777 212.684 20.4583 212.724 21.0085H211.004C210.934 20.6406 210.769 20.334 210.507 20.0888C210.248 19.8402 209.902 19.7159 209.468 19.7159C209.1 19.7159 208.777 19.8153 208.498 20.0142C208.22 20.2098 208.003 20.4915 207.847 20.8594C207.695 21.2273 207.618 21.6681 207.618 22.1818C207.618 22.7022 207.695 23.1496 207.847 23.5241C208 23.8954 208.213 24.1821 208.488 24.3842C208.767 24.5831 209.093 24.6825 209.468 24.6825C209.733 24.6825 209.97 24.6328 210.179 24.5334C210.391 24.4306 210.568 24.2831 210.711 24.0909C210.853 23.8987 210.951 23.665 211.004 23.3899H212.724C212.681 23.9302 212.522 24.4091 212.247 24.8267C211.972 25.241 211.597 25.5658 211.123 25.8011C210.649 26.0331 210.093 26.1491 209.453 26.1491ZM217.583 26.1491C216.817 26.1491 216.156 25.9901 215.599 25.6719C215.046 25.3504 214.62 24.8963 214.321 24.3097C214.023 23.7197 213.874 23.0253 213.874 22.2266C213.874 21.4411 214.023 20.7517 214.321 20.1584C214.623 19.5618 215.044 19.0978 215.584 18.7663C216.124 18.4316 216.759 18.2642 217.488 18.2642C217.959 18.2642 218.403 18.3404 218.821 18.4929C219.242 18.642 219.613 18.8741 219.934 19.1889C220.259 19.5038 220.514 19.9048 220.7 20.392C220.886 20.8759 220.978 21.4527 220.978 22.1222V22.674H214.719V21.4609H219.253C219.25 21.1162 219.175 20.8097 219.029 20.5412C218.884 20.2694 218.68 20.0556 218.418 19.8999C218.159 19.7441 217.858 19.6662 217.513 19.6662C217.145 19.6662 216.822 19.7557 216.544 19.9347C216.265 20.1103 216.048 20.3423 215.892 20.6307C215.74 20.9157 215.662 21.2289 215.659 21.5703V22.6293C215.659 23.0734 215.74 23.4545 215.902 23.7727C216.065 24.0876 216.292 24.3295 216.583 24.4986C216.875 24.6643 217.217 24.7472 217.608 24.7472C217.869 24.7472 218.106 24.7107 218.319 24.6378C218.531 24.5616 218.715 24.4505 218.87 24.3047C219.026 24.1589 219.144 23.9782 219.223 23.7628L220.904 23.9517C220.798 24.3958 220.596 24.7836 220.297 25.1151C220.002 25.4432 219.624 25.6984 219.164 25.8807C218.703 26.0597 218.176 26.1491 217.583 26.1491Z" fill="#4493F8"/>
<path d="M13.4148 53H12.3068L15.5114 44.2727H16.6023L19.8068 53H18.6989L16.0909 45.6534H16.0227L13.4148 53ZM13.8239 49.5909H18.2898V50.5284H13.8239V49.5909ZM25.6662 47.9205L24.7628 48.1761C24.706 48.0256 24.6222 47.8793 24.5114 47.7372C24.4034 47.5923 24.2557 47.473 24.0682 47.3793C23.8807 47.2855 23.6406 47.2386 23.348 47.2386C22.9474 47.2386 22.6136 47.331 22.3466 47.5156C22.0824 47.6974 21.9503 47.929 21.9503 48.2102C21.9503 48.4602 22.0412 48.6577 22.223 48.8026C22.4048 48.9474 22.6889 49.0682 23.0753 49.1648L24.0469 49.4034C24.6321 49.5455 25.0682 49.7628 25.3551 50.0554C25.642 50.3452 25.7855 50.7187 25.7855 51.1761C25.7855 51.5511 25.6776 51.8864 25.4616 52.1818C25.2486 52.4773 24.9503 52.7102 24.5668 52.8807C24.1832 53.0511 23.7372 53.1364 23.2287 53.1364C22.5611 53.1364 22.0085 52.9915 21.571 52.7017C21.1335 52.4119 20.8565 51.9886 20.7401 51.4318L21.6946 51.1932C21.7855 51.5455 21.9574 51.8097 22.2102 51.9858C22.4659 52.1619 22.7997 52.25 23.2116 52.25C23.6804 52.25 24.0526 52.1506 24.3281 51.9517C24.6065 51.75 24.7457 51.5085 24.7457 51.2273C24.7457 51 24.6662 50.8097 24.5071 50.6562C24.348 50.5 24.1037 50.3835 23.7741 50.3068L22.6832 50.0511C22.0838 49.9091 21.6435 49.6889 21.3622 49.3906C21.0838 49.0895 20.9446 48.7131 20.9446 48.2614C20.9446 47.892 21.0483 47.5653 21.2557 47.2812C21.4659 46.9972 21.7514 46.7741 22.1122 46.6122C22.4759 46.4503 22.8878 46.3693 23.348 46.3693C23.9957 46.3693 24.5043 46.5114 24.8736 46.7955C25.2457 47.0795 25.5099 47.4545 25.6662 47.9205ZM31.9357 47.9205L31.0323 48.1761C30.9755 48.0256 30.8917 47.8793 30.7809 47.7372C30.6729 47.5923 30.5252 47.473 30.3377 47.3793C30.1502 47.2855 29.9102 47.2386 29.6175 47.2386C29.217 47.2386 28.8832 47.331 28.6161 47.5156C28.3519 47.6974 28.2198 47.929 28.2198 48.2102C28.2198 48.4602 28.3107 48.6577 28.4925 48.8026C28.6744 48.9474 28.9585 49.0682 29.3448 49.1648L30.3164 49.4034C30.9016 49.5455 31.3377 49.7628 31.6246 50.0554C31.9116 50.3452 32.055 50.7187 32.055 51.1761C32.055 51.5511 31.9471 51.8864 31.7312 52.1818C31.5181 52.4773 31.2198 52.7102 30.8363 52.8807C30.4528 53.0511 30.0067 53.1364 29.4982 53.1364C28.8306 53.1364 28.2781 52.9915 27.8406 52.7017C27.4031 52.4119 27.1261 51.9886 27.0096 51.4318L27.9641 51.1932C28.055 51.5455 28.2269 51.8097 28.4798 51.9858C28.7354 52.1619 29.0692 52.25 29.4812 52.25C29.9499 52.25 30.3221 52.1506 30.5977 51.9517C30.8761 51.75 31.0153 51.5085 31.0153 51.2273C31.0153 51 30.9357 50.8097 30.7766 50.6562C30.6175 50.5 30.3732 50.3835 30.0437 50.3068L28.9528 50.0511C28.3533 49.9091 27.913 49.6889 27.6317 49.3906C27.3533 49.0895 27.2141 48.7131 27.2141 48.2614C27.2141 47.892 27.3178 47.5653 27.5252 47.2812C27.7354 46.9972 28.021 46.7741 28.3817 46.6122C28.7454 46.4503 29.1573 46.3693 29.6175 46.3693C30.2653 46.3693 30.7738 46.5114 31.1431 46.7955C31.5153 47.0795 31.7795 47.4545 31.9357 47.9205ZM33.5689 53V46.4545H34.5746V53H33.5689ZM34.0803 45.3636C33.8842 45.3636 33.7152 45.2969 33.5732 45.1634C33.4339 45.0298 33.3643 44.8693 33.3643 44.6818C33.3643 44.4943 33.4339 44.3338 33.5732 44.2003C33.7152 44.0668 33.8842 44 34.0803 44C34.2763 44 34.4439 44.0668 34.5831 44.2003C34.7251 44.3338 34.7962 44.4943 34.7962 44.6818C34.7962 44.8693 34.7251 45.0298 34.5831 45.1634C34.4439 45.2969 34.2763 45.3636 34.0803 45.3636ZM39.0586 55.5909C38.5728 55.5909 38.1552 55.5284 37.8058 55.4034C37.4563 55.2812 37.1651 55.1193 36.9322 54.9176C36.7021 54.7188 36.5188 54.5057 36.3825 54.2784L37.1836 53.7159C37.2745 53.8352 37.3896 53.9716 37.5288 54.125C37.668 54.2812 37.8583 54.4162 38.0998 54.5298C38.3441 54.6463 38.6637 54.7045 39.0586 54.7045C39.587 54.7045 40.0231 54.5767 40.3668 54.321C40.7106 54.0653 40.8825 53.6648 40.8825 53.1193V51.7898H40.7972C40.7234 51.9091 40.6183 52.0568 40.4819 52.233C40.3484 52.4062 40.1552 52.5611 39.9023 52.6974C39.6523 52.831 39.3143 52.8977 38.8881 52.8977C38.3597 52.8977 37.8853 52.7727 37.4648 52.5227C37.0472 52.2727 36.7163 51.9091 36.4719 51.4318C36.2305 50.9545 36.1097 50.375 36.1097 49.6932C36.1097 49.0227 36.2276 48.4389 36.4634 47.9418C36.6992 47.4418 37.0273 47.0554 37.4478 46.7827C37.8683 46.5071 38.354 46.3693 38.9052 46.3693C39.3313 46.3693 39.6694 46.4403 39.9194 46.5824C40.1722 46.7216 40.3654 46.8807 40.4989 47.0597C40.6353 47.2358 40.7404 47.3807 40.8143 47.4943H40.9165V46.4545H41.8881V53.1875C41.8881 53.75 41.7603 54.2074 41.5046 54.5597C41.2518 54.9148 40.9109 55.1747 40.4819 55.3395C40.0558 55.5071 39.5813 55.5909 39.0586 55.5909ZM39.0245 51.9943C39.4279 51.9943 39.7688 51.902 40.0472 51.7173C40.3256 51.5327 40.5373 51.267 40.6822 50.9205C40.8271 50.5739 40.8995 50.1591 40.8995 49.6761C40.8995 49.2045 40.8285 48.7884 40.6864 48.4276C40.5444 48.0668 40.3342 47.7841 40.0558 47.5795C39.7773 47.375 39.4336 47.2727 39.0245 47.2727C38.5984 47.2727 38.2433 47.3807 37.9592 47.5966C37.6779 47.8125 37.4663 48.1023 37.3242 48.4659C37.185 48.8295 37.1154 49.233 37.1154 49.6761C37.1154 50.1307 37.1864 50.5327 37.3285 50.8821C37.4734 51.2287 37.6864 51.5014 37.9677 51.7003C38.2518 51.8963 38.604 51.9943 39.0245 51.9943ZM44.7347 49.0625V53H43.729V46.4545H44.7006V47.4773H44.7859C44.9393 47.1449 45.1722 46.8778 45.4847 46.6761C45.7972 46.4716 46.2006 46.3693 46.695 46.3693C47.1381 46.3693 47.5259 46.4602 47.8583 46.642C48.1907 46.821 48.4492 47.0938 48.6339 47.4602C48.8185 47.8239 48.9109 48.2841 48.9109 48.8409V53H47.9052V48.9091C47.9052 48.3949 47.7717 47.9943 47.5046 47.7074C47.2376 47.4176 46.8711 47.2727 46.4052 47.2727C46.0842 47.2727 45.7972 47.3423 45.5444 47.4815C45.2944 47.6207 45.0969 47.8239 44.9521 48.0909C44.8072 48.358 44.7347 48.6818 44.7347 49.0625ZM50.7486 53V46.4545H51.7202V47.4773H51.8054C51.9418 47.1278 52.1619 46.8565 52.4659 46.6634C52.7699 46.4673 53.1349 46.3693 53.5611 46.3693C53.9929 46.3693 54.3523 46.4673 54.6392 46.6634C54.929 46.8565 55.1548 47.1278 55.3168 47.4773H55.3849C55.5526 47.1392 55.804 46.8707 56.1392 46.6719C56.4744 46.4702 56.8764 46.3693 57.3452 46.3693C57.9304 46.3693 58.4091 46.5526 58.7812 46.919C59.1534 47.2827 59.3395 47.8494 59.3395 48.6193V53H58.3338V48.6193C58.3338 48.1364 58.2017 47.7912 57.9375 47.5838C57.6733 47.3764 57.3622 47.2727 57.0043 47.2727C56.544 47.2727 56.1875 47.4119 55.9347 47.6903C55.6818 47.9659 55.5554 48.3153 55.5554 48.7386V53H54.5327V48.517C54.5327 48.1449 54.4119 47.8452 54.1705 47.6179C53.929 47.3878 53.6179 47.2727 53.2372 47.2727C52.9759 47.2727 52.7315 47.3423 52.5043 47.4815C52.2798 47.6207 52.098 47.8139 51.9588 48.0611C51.8224 48.3054 51.7543 48.5881 51.7543 48.9091V53H50.7486ZM63.9226 53.1364C63.2919 53.1364 62.7479 52.9972 62.2905 52.7188C61.8359 52.4375 61.4851 52.0455 61.2379 51.5426C60.9936 51.0369 60.8714 50.4489 60.8714 49.7784C60.8714 49.108 60.9936 48.517 61.2379 48.0057C61.4851 47.4915 61.8288 47.0909 62.2692 46.804C62.7124 46.5142 63.2294 46.3693 63.8203 46.3693C64.1612 46.3693 64.4979 46.4261 64.8303 46.5398C65.1626 46.6534 65.4652 46.8381 65.7379 47.0938C66.0107 47.3466 66.228 47.6818 66.3899 48.0994C66.5518 48.517 66.6328 49.0312 66.6328 49.642V50.0682H61.5874V49.1989H65.6101C65.6101 48.8295 65.5362 48.5 65.3885 48.2102C65.2436 47.9205 65.0362 47.6918 64.7663 47.5241C64.4993 47.3565 64.1839 47.2727 63.8203 47.2727C63.4197 47.2727 63.0732 47.3722 62.7805 47.571C62.4908 47.767 62.2678 48.0227 62.1115 48.3381C61.9553 48.6534 61.8771 48.9915 61.8771 49.3523V49.9318C61.8771 50.4261 61.9624 50.8452 62.1328 51.1889C62.3061 51.5298 62.5462 51.7898 62.853 51.9688C63.1598 52.1449 63.5163 52.233 63.9226 52.233C64.1868 52.233 64.4254 52.196 64.6385 52.1222C64.8544 52.0455 65.0405 51.9318 65.1967 51.7812C65.353 51.6278 65.4737 51.4375 65.5589 51.2102L66.5305 51.483C66.4283 51.8125 66.2564 52.1023 66.0149 52.3523C65.7734 52.5994 65.4751 52.7926 65.12 52.9318C64.7649 53.0682 64.3658 53.1364 63.9226 53.1364ZM69.1683 49.0625V53H68.1626V46.4545H69.1342V47.4773H69.2195C69.3729 47.1449 69.6058 46.8778 69.9183 46.6761C70.2308 46.4716 70.6342 46.3693 71.1286 46.3693C71.5717 46.3693 71.9595 46.4602 72.2919 46.642C72.6243 46.821 72.8828 47.0938 73.0675 47.4602C73.2521 47.8239 73.3445 48.2841 73.3445 48.8409V53H72.3388V48.9091C72.3388 48.3949 72.2053 47.9943 71.9382 47.7074C71.6712 47.4176 71.3047 47.2727 70.8388 47.2727C70.5178 47.2727 70.2308 47.3423 69.978 47.4815C69.728 47.6207 69.5305 47.8239 69.3857 48.0909C69.2408 48.358 69.1683 48.6818 69.1683 49.0625ZM78.0288 46.4545V47.3068H74.6367V46.4545H78.0288ZM75.6254 44.8864H76.631V51.125C76.631 51.4091 76.6722 51.6222 76.7546 51.7642C76.8398 51.9034 76.9478 51.9972 77.0785 52.0455C77.212 52.0909 77.3526 52.1136 77.5004 52.1136C77.6112 52.1136 77.7021 52.108 77.7731 52.0966C77.8441 52.0824 77.9009 52.071 77.9435 52.0625L78.1481 52.9659C78.0799 52.9915 77.9847 53.017 77.8626 53.0426C77.7404 53.071 77.5856 53.0852 77.3981 53.0852C77.114 53.0852 76.8356 53.0241 76.5629 52.902C76.293 52.7798 76.0685 52.5938 75.8896 52.3438C75.7134 52.0938 75.6254 51.7784 75.6254 51.3977V44.8864ZM84.0607 47.9205L83.1573 48.1761C83.1005 48.0256 83.0167 47.8793 82.9059 47.7372C82.7979 47.5923 82.6502 47.473 82.4627 47.3793C82.2752 47.2855 82.0352 47.2386 81.7425 47.2386C81.342 47.2386 81.0082 47.331 80.7411 47.5156C80.4769 47.6974 80.3448 47.929 80.3448 48.2102C80.3448 48.4602 80.4357 48.6577 80.6175 48.8026C80.7994 48.9474 81.0835 49.0682 81.4698 49.1648L82.4414 49.4034C83.0266 49.5455 83.4627 49.7628 83.7496 50.0554C84.0366 50.3452 84.18 50.7187 84.18 51.1761C84.18 51.5511 84.0721 51.8864 83.8562 52.1818C83.6431 52.4773 83.3448 52.7102 82.9613 52.8807C82.5778 53.0511 82.1317 53.1364 81.6232 53.1364C80.9556 53.1364 80.4031 52.9915 79.9656 52.7017C79.5281 52.4119 79.2511 51.9886 79.1346 51.4318L80.0891 51.1932C80.18 51.5455 80.3519 51.8097 80.6048 51.9858C80.8604 52.1619 81.1942 52.25 81.6062 52.25C82.0749 52.25 82.4471 52.1506 82.7227 51.9517C83.0011 51.75 83.1403 51.5085 83.1403 51.2273C83.1403 51 83.0607 50.8097 82.9016 50.6562C82.7425 50.5 82.4982 50.3835 82.1687 50.3068L81.0778 50.0511C80.4783 49.9091 80.038 49.6889 79.7567 49.3906C79.4783 49.0895 79.3391 48.7131 79.3391 48.2614C79.3391 47.892 79.4428 47.5653 79.6502 47.2812C79.8604 46.9972 80.146 46.7741 80.5067 46.6122C80.8704 46.4503 81.2823 46.3693 81.7425 46.3693C82.3903 46.3693 82.8988 46.5114 83.2681 46.7955C83.6403 47.0795 83.9045 47.4545 84.0607 47.9205ZM91.9837 46.4545V47.3068H88.4553V46.4545H91.9837ZM89.5121 53V45.5511C89.5121 45.1761 89.6001 44.8636 89.7763 44.6136C89.9524 44.3636 90.1811 44.1761 90.4624 44.0511C90.7436 43.9261 91.0405 43.8636 91.353 43.8636C91.6001 43.8636 91.8018 43.8835 91.9581 43.9233C92.1143 43.9631 92.2308 44 92.3075 44.0341L92.0178 44.9034C91.9666 44.8864 91.8956 44.8651 91.8047 44.8395C91.7166 44.8139 91.6001 44.8011 91.4553 44.8011C91.1229 44.8011 90.8828 44.8849 90.7351 45.0526C90.5902 45.2202 90.5178 45.4659 90.5178 45.7898V53H89.5121ZM95.7827 53.1364C95.1918 53.1364 94.6733 52.9957 94.2273 52.7145C93.7841 52.4332 93.4375 52.0398 93.1875 51.5341C92.9403 51.0284 92.8168 50.4375 92.8168 49.7614C92.8168 49.0795 92.9403 48.4844 93.1875 47.9759C93.4375 47.4673 93.7841 47.0724 94.2273 46.7912C94.6733 46.5099 95.1918 46.3693 95.7827 46.3693C96.3736 46.3693 96.8906 46.5099 97.3338 46.7912C97.7798 47.0724 98.1264 47.4673 98.3736 47.9759C98.6236 48.4844 98.7486 49.0795 98.7486 49.7614C98.7486 50.4375 98.6236 51.0284 98.3736 51.5341C98.1264 52.0398 97.7798 52.4332 97.3338 52.7145C96.8906 52.9957 96.3736 53.1364 95.7827 53.1364ZM95.7827 52.233C96.2315 52.233 96.6009 52.1179 96.8906 51.8878C97.1804 51.6577 97.3949 51.3551 97.5341 50.9801C97.6733 50.6051 97.7429 50.1989 97.7429 49.7614C97.7429 49.3239 97.6733 48.9162 97.5341 48.5384C97.3949 48.1605 97.1804 47.8551 96.8906 47.6222C96.6009 47.3892 96.2315 47.2727 95.7827 47.2727C95.3338 47.2727 94.9645 47.3892 94.6747 47.6222C94.3849 47.8551 94.1705 48.1605 94.0312 48.5384C93.892 48.9162 93.8224 49.3239 93.8224 49.7614C93.8224 50.1989 93.892 50.6051 94.0312 50.9801C94.1705 51.3551 94.3849 51.6577 94.6747 51.8878C94.9645 52.1179 95.3338 52.233 95.7827 52.233ZM100.284 53V46.4545H101.255V47.4432H101.324C101.443 47.1193 101.659 46.8565 101.971 46.6548C102.284 46.4531 102.636 46.3523 103.028 46.3523C103.102 46.3523 103.194 46.3537 103.305 46.3565C103.416 46.3594 103.5 46.3636 103.556 46.3693V47.392C103.522 47.3835 103.444 47.3707 103.322 47.3537C103.203 47.3338 103.076 47.3239 102.943 47.3239C102.625 47.3239 102.341 47.3906 102.091 47.5241C101.843 47.6548 101.647 47.8366 101.502 48.0696C101.36 48.2997 101.289 48.5625 101.289 48.858V53H100.284ZM115.283 47H114.226C114.163 46.696 114.054 46.429 113.898 46.1989C113.744 45.9688 113.557 45.7756 113.335 45.6193C113.116 45.4602 112.874 45.3409 112.607 45.2614C112.339 45.1818 112.061 45.142 111.771 45.142C111.243 45.142 110.764 45.2756 110.335 45.5426C109.909 45.8097 109.57 46.2031 109.317 46.723C109.067 47.2429 108.942 47.8807 108.942 48.6364C108.942 49.392 109.067 50.0298 109.317 50.5497C109.57 51.0696 109.909 51.4631 110.335 51.7301C110.764 51.9972 111.243 52.1307 111.771 52.1307C112.061 52.1307 112.339 52.0909 112.607 52.0114C112.874 51.9318 113.116 51.8139 113.335 51.6577C113.557 51.4986 113.744 51.304 113.898 51.0739C114.054 50.8409 114.163 50.5739 114.226 50.2727H115.283C115.203 50.7187 115.058 51.1179 114.848 51.4702C114.638 51.8224 114.376 52.1222 114.064 52.3693C113.751 52.6136 113.401 52.7997 113.011 52.9276C112.625 53.0554 112.212 53.1193 111.771 53.1193C111.027 53.1193 110.365 52.9375 109.786 52.5739C109.206 52.2102 108.75 51.6932 108.418 51.0227C108.085 50.3523 107.919 49.5568 107.919 48.6364C107.919 47.7159 108.085 46.9205 108.418 46.25C108.75 45.5795 109.206 45.0625 109.786 44.6989C110.365 44.3352 111.027 44.1534 111.771 44.1534C112.212 44.1534 112.625 44.2173 113.011 44.3452C113.401 44.473 113.751 44.6605 114.064 44.9077C114.376 45.152 114.638 45.4503 114.848 45.8026C115.058 46.152 115.203 46.5511 115.283 47ZM121.763 46.4545C121.712 46.0227 121.505 45.6875 121.141 45.4489C120.777 45.2102 120.331 45.0909 119.803 45.0909C119.417 45.0909 119.078 45.1534 118.789 45.2784C118.502 45.4034 118.277 45.5753 118.115 45.794C117.956 46.0128 117.877 46.2614 117.877 46.5398C117.877 46.7727 117.932 46.973 118.043 47.1406C118.157 47.3054 118.301 47.4432 118.478 47.554C118.654 47.6619 118.838 47.7514 119.032 47.8224C119.225 47.8906 119.402 47.946 119.564 47.9886L120.451 48.2273C120.678 48.2869 120.931 48.3693 121.209 48.4744C121.49 48.5795 121.759 48.723 122.015 48.9048C122.273 49.0838 122.486 49.3139 122.654 49.5952C122.821 49.8764 122.905 50.2216 122.905 50.6307C122.905 51.1023 122.782 51.5284 122.534 51.9091C122.29 52.2898 121.932 52.5923 121.461 52.8168C120.992 53.0412 120.422 53.1534 119.752 53.1534C119.127 53.1534 118.586 53.0526 118.128 52.8509C117.674 52.6491 117.316 52.3679 117.054 52.0071C116.796 51.6463 116.65 51.2273 116.615 50.75H117.706C117.735 51.0795 117.846 51.3523 118.039 51.5682C118.235 51.7812 118.482 51.9403 118.78 52.0455C119.081 52.1477 119.405 52.1989 119.752 52.1989C120.155 52.1989 120.517 52.1335 120.838 52.0028C121.159 51.8693 121.414 51.6847 121.601 51.4489C121.789 51.2102 121.882 50.9318 121.882 50.6136C121.882 50.3239 121.801 50.0881 121.64 49.9062C121.478 49.7244 121.265 49.5767 121 49.4631C120.736 49.3494 120.451 49.25 120.144 49.1648L119.07 48.858C118.388 48.6619 117.848 48.3821 117.451 48.0185C117.053 47.6548 116.854 47.179 116.854 46.5909C116.854 46.1023 116.986 45.6761 117.25 45.3125C117.517 44.946 117.875 44.6619 118.324 44.4602C118.776 44.2557 119.28 44.1534 119.837 44.1534C120.4 44.1534 120.9 44.2543 121.337 44.456C121.775 44.6548 122.121 44.9276 122.377 45.2741C122.635 45.6207 122.772 46.0142 122.786 46.4545H121.763ZM131.665 47H130.609C130.546 46.696 130.437 46.429 130.281 46.1989C130.127 45.9688 129.94 45.7756 129.718 45.6193C129.499 45.4602 129.256 45.3409 128.989 45.2614C128.722 45.1818 128.444 45.142 128.154 45.142C127.626 45.142 127.147 45.2756 126.718 45.5426C126.292 45.8097 125.952 46.2031 125.7 46.723C125.45 47.2429 125.325 47.8807 125.325 48.6364C125.325 49.392 125.45 50.0298 125.7 50.5497C125.952 51.0696 126.292 51.4631 126.718 51.7301C127.147 51.9972 127.626 52.1307 128.154 52.1307C128.444 52.1307 128.722 52.0909 128.989 52.0114C129.256 51.9318 129.499 51.8139 129.718 51.6577C129.94 51.4986 130.127 51.304 130.281 51.0739C130.437 50.8409 130.546 50.5739 130.609 50.2727H131.665C131.586 50.7187 131.441 51.1179 131.231 51.4702C131.021 51.8224 130.759 52.1222 130.447 52.3693C130.134 52.6136 129.783 52.7997 129.394 52.9276C129.008 53.0554 128.594 53.1193 128.154 53.1193C127.41 53.1193 126.748 52.9375 126.168 52.5739C125.589 52.2102 125.133 51.6932 124.8 51.0227C124.468 50.3523 124.302 49.5568 124.302 48.6364C124.302 47.7159 124.468 46.9205 124.8 46.25C125.133 45.5795 125.589 45.0625 126.168 44.6989C126.748 44.3352 127.41 44.1534 128.154 44.1534C128.594 44.1534 129.008 44.2173 129.394 44.3452C129.783 44.473 130.134 44.6605 130.447 44.9077C130.759 45.152 131.021 45.4503 131.231 45.8026C131.441 46.152 131.586 46.5511 131.665 47ZM134.43 44.2727V53H133.373V44.2727H134.43ZM139.566 51.2102V50.3409L143.401 44.2727H144.032V45.6193H143.606L140.708 50.2045V50.2727H145.873V51.2102H139.566ZM143.674 53V50.946V50.5412V44.2727H144.68V53H143.674ZM150.368 53.1193C150.01 53.1136 149.652 53.0455 149.294 52.9148C148.936 52.7841 148.609 52.5639 148.314 52.2543C148.018 51.9418 147.781 51.5199 147.602 50.9886C147.423 50.4545 147.333 49.7841 147.333 48.9773C147.333 48.2045 147.406 47.5199 147.551 46.9233C147.696 46.3239 147.906 45.8196 148.181 45.4105C148.457 44.9986 148.789 44.6861 149.179 44.473C149.571 44.2599 150.012 44.1534 150.504 44.1534C150.993 44.1534 151.427 44.2514 151.808 44.4474C152.191 44.6406 152.504 44.9105 152.745 45.2571C152.987 45.6037 153.143 46.0028 153.214 46.4545H152.174C152.078 46.0625 151.89 45.7372 151.612 45.4787C151.333 45.2202 150.964 45.0909 150.504 45.0909C149.828 45.0909 149.295 45.3849 148.906 45.973C148.52 46.5611 148.325 47.3864 148.322 48.4489H148.39C148.549 48.2074 148.738 48.0014 148.957 47.831C149.179 47.6577 149.423 47.5241 149.69 47.4304C149.957 47.3366 150.24 47.2898 150.538 47.2898C151.038 47.2898 151.495 47.4148 151.91 47.6648C152.325 47.9119 152.657 48.2543 152.907 48.6918C153.157 49.1264 153.282 49.625 153.282 50.1875C153.282 50.7273 153.162 51.2216 152.92 51.6705C152.679 52.1165 152.339 52.4716 151.902 52.7358C151.467 52.9972 150.956 53.125 150.368 53.1193ZM150.368 52.1818C150.725 52.1818 151.047 52.0923 151.331 51.9134C151.618 51.7344 151.843 51.4943 152.008 51.1932C152.176 50.892 152.26 50.5568 152.26 50.1875C152.26 49.8267 152.179 49.4986 152.017 49.2031C151.858 48.9048 151.637 48.6676 151.356 48.4915C151.078 48.3153 150.76 48.2273 150.402 48.2273C150.132 48.2273 149.88 48.2812 149.647 48.3892C149.414 48.4943 149.21 48.6392 149.034 48.8239C148.86 49.0085 148.724 49.2202 148.625 49.4588C148.525 49.6946 148.475 49.9432 148.475 50.2045C148.475 50.5511 148.556 50.875 148.718 51.1761C148.883 51.4773 149.108 51.7202 149.392 51.9048C149.679 52.0895 150.004 52.1818 150.368 52.1818ZM158.026 44.2727V53H156.969V45.3807H156.918L154.788 46.7955V45.7216L156.969 44.2727H158.026ZM165.854 53.1534C165.44 53.1534 165.063 53.0753 164.725 52.919C164.387 52.7599 164.119 52.5312 163.92 52.233C163.721 51.9318 163.621 51.5682 163.621 51.142C163.621 50.767 163.695 50.4631 163.843 50.2301C163.991 49.9943 164.188 49.8097 164.435 49.6761C164.683 49.5426 164.955 49.4432 165.254 49.3778C165.555 49.3097 165.857 49.2557 166.161 49.2159C166.559 49.1648 166.881 49.1264 167.129 49.1009C167.379 49.0724 167.56 49.0256 167.674 48.9602C167.79 48.8949 167.849 48.7812 167.849 48.6193V48.5852C167.849 48.1648 167.734 47.8381 167.504 47.6051C167.276 47.3722 166.931 47.2557 166.468 47.2557C165.988 47.2557 165.612 47.3608 165.339 47.571C165.066 47.7812 164.874 48.0057 164.763 48.2443L163.809 47.9034C163.979 47.5057 164.207 47.196 164.491 46.9744C164.778 46.75 165.09 46.5937 165.428 46.5057C165.769 46.4148 166.104 46.3693 166.434 46.3693C166.644 46.3693 166.886 46.3949 167.158 46.446C167.434 46.4943 167.7 46.5952 167.955 46.7486C168.214 46.902 168.428 47.1335 168.599 47.4432C168.769 47.7528 168.854 48.1676 168.854 48.6875V53H167.849V52.1136H167.798C167.729 52.2557 167.616 52.4077 167.457 52.5696C167.298 52.7315 167.086 52.8693 166.822 52.983C166.558 53.0966 166.235 53.1534 165.854 53.1534ZM166.008 52.25C166.406 52.25 166.741 52.1719 167.013 52.0156C167.289 51.8594 167.496 51.6577 167.636 51.4105C167.778 51.1634 167.849 50.9034 167.849 50.6307V49.7102C167.806 49.7614 167.712 49.8082 167.567 49.8509C167.425 49.8906 167.261 49.9261 167.073 49.9574C166.888 49.9858 166.708 50.0114 166.532 50.0341C166.359 50.054 166.218 50.071 166.11 50.0852C165.849 50.1193 165.604 50.1747 165.377 50.2514C165.153 50.3253 164.971 50.4375 164.832 50.5881C164.695 50.7358 164.627 50.9375 164.627 51.1932C164.627 51.5426 164.756 51.8068 165.015 51.9858C165.276 52.1619 165.607 52.25 166.008 52.25ZM173.537 46.4545V47.3068H170.145V46.4545H173.537ZM171.133 44.8864H172.139V51.125C172.139 51.4091 172.18 51.6222 172.262 51.7642C172.348 51.9034 172.456 51.9972 172.586 52.0455C172.72 52.0909 172.86 52.1136 173.008 52.1136C173.119 52.1136 173.21 52.108 173.281 52.0966C173.352 52.0824 173.409 52.071 173.451 52.0625L173.656 52.9659C173.588 52.9915 173.493 53.017 173.37 53.0426C173.248 53.071 173.093 53.0852 172.906 53.0852C172.622 53.0852 172.343 53.0241 172.071 52.902C171.801 52.7798 171.576 52.5938 171.397 52.3438C171.221 52.0938 171.133 51.7784 171.133 51.3977V44.8864ZM181.254 53H178.561V44.2727H181.373C182.22 44.2727 182.944 44.4474 183.547 44.7969C184.149 45.1435 184.61 45.642 184.931 46.2926C185.252 46.9403 185.413 47.7159 185.413 48.6193C185.413 49.5284 185.251 50.3111 184.927 50.9673C184.603 51.6207 184.132 52.1236 183.512 52.4759C182.893 52.8253 182.14 53 181.254 53ZM179.618 52.0625H181.186C181.907 52.0625 182.505 51.9233 182.98 51.6449C183.454 51.3665 183.808 50.9702 184.041 50.456C184.274 49.9418 184.39 49.3295 184.39 48.6193C184.39 47.9148 184.275 47.3082 184.045 46.7997C183.815 46.2884 183.471 45.8963 183.014 45.6236C182.556 45.348 181.987 45.2102 181.305 45.2102H179.618V52.0625ZM187.049 53V46.4545H188.021V47.4432H188.089C188.208 47.1193 188.424 46.8565 188.737 46.6548C189.049 46.4531 189.402 46.3523 189.794 46.3523C189.868 46.3523 189.96 46.3537 190.071 46.3565C190.181 46.3594 190.265 46.3636 190.322 46.3693V47.392C190.288 47.3835 190.21 47.3707 190.088 47.3537C189.968 47.3338 189.842 47.3239 189.708 47.3239C189.39 47.3239 189.106 47.3906 188.856 47.5241C188.609 47.6548 188.413 47.8366 188.268 48.0696C188.126 48.2997 188.055 48.5625 188.055 48.858V53H187.049ZM195.639 50.3239V46.4545H196.645V53H195.639V51.892H195.571C195.418 52.2244 195.179 52.5071 194.855 52.7401C194.531 52.9702 194.122 53.0852 193.628 53.0852C193.219 53.0852 192.855 52.9957 192.537 52.8168C192.219 52.6349 191.969 52.3622 191.787 51.9986C191.605 51.6321 191.514 51.1705 191.514 50.6136V46.4545H192.52V50.5455C192.52 51.0227 192.653 51.4034 192.92 51.6875C193.19 51.9716 193.534 52.1136 193.952 52.1136C194.202 52.1136 194.456 52.0497 194.714 51.9219C194.976 51.794 195.195 51.598 195.371 51.3338C195.55 51.0696 195.639 50.733 195.639 50.3239ZM198.487 53V46.4545H199.458V47.4432H199.527C199.646 47.1193 199.862 46.8565 200.174 46.6548C200.487 46.4531 200.839 46.3523 201.231 46.3523C201.305 46.3523 201.397 46.3537 201.508 46.3565C201.619 46.3594 201.703 46.3636 201.76 46.3693V47.392C201.725 47.3835 201.647 47.3707 201.525 47.3537C201.406 47.3338 201.279 47.3239 201.146 47.3239C200.828 47.3239 200.544 47.3906 200.294 47.5241C200.047 47.6548 199.85 47.8366 199.706 48.0696C199.564 48.2997 199.493 48.5625 199.493 48.858V53H198.487ZM203.799 55.4545C203.628 55.4545 203.476 55.4403 203.343 55.4119C203.209 55.3864 203.117 55.3608 203.066 55.3352L203.321 54.4489C203.566 54.5114 203.782 54.5341 203.969 54.517C204.157 54.5 204.323 54.4162 204.468 54.2656C204.615 54.1179 204.75 53.8778 204.873 53.5455L205.06 53.0341L202.64 46.4545H203.73L205.537 51.6705H205.605L207.412 46.4545H208.503L205.725 53.9545C205.6 54.2926 205.445 54.5724 205.26 54.794C205.076 55.0185 204.861 55.1847 204.617 55.2926C204.375 55.4006 204.103 55.4545 203.799 55.4545ZM219.069 44.2727H220.126V50.0511C220.126 50.6477 219.985 51.1804 219.704 51.6491C219.426 52.1151 219.032 52.483 218.524 52.7528C218.015 53.0199 217.419 53.1534 216.734 53.1534C216.049 53.1534 215.453 53.0199 214.944 52.7528C214.436 52.483 214.041 52.1151 213.76 51.6491C213.481 51.1804 213.342 50.6477 213.342 50.0511V44.2727H214.399V49.9659C214.399 50.392 214.493 50.7713 214.68 51.1037C214.868 51.4332 215.135 51.6932 215.481 51.8835C215.831 52.071 216.248 52.1648 216.734 52.1648C217.22 52.1648 217.637 52.071 217.987 51.8835C218.336 51.6932 218.603 51.4332 218.788 51.1037C218.975 50.7713 219.069 50.392 219.069 49.9659V44.2727ZM223.106 49.0625V53H222.1V46.4545H223.072V47.4773H223.157C223.31 47.1449 223.543 46.8778 223.856 46.6761C224.168 46.4716 224.572 46.3693 225.066 46.3693C225.509 46.3693 225.897 46.4602 226.229 46.642C226.562 46.821 226.82 47.0938 227.005 47.4602C227.19 47.8239 227.282 48.2841 227.282 48.8409V53H226.276V48.9091C226.276 48.3949 226.143 47.9943 225.876 47.7074C225.609 47.4176 225.242 47.2727 224.776 47.2727C224.455 47.2727 224.168 47.3423 223.915 47.4815C223.665 47.6207 223.468 47.8239 223.323 48.0909C223.178 48.358 223.106 48.6818 223.106 49.0625ZM229.12 53V46.4545H230.125V53H229.12ZM229.631 45.3636C229.435 45.3636 229.266 45.2969 229.124 45.1634C228.985 45.0298 228.915 44.8693 228.915 44.6818C228.915 44.4943 228.985 44.3338 229.124 44.2003C229.266 44.0668 229.435 44 229.631 44C229.827 44 229.995 44.0668 230.134 44.2003C230.276 44.3338 230.347 44.4943 230.347 44.6818C230.347 44.8693 230.276 45.0298 230.134 45.1634C229.995 45.2969 229.827 45.3636 229.631 45.3636ZM237.32 46.4545L234.899 53H233.876L231.456 46.4545H232.547L234.354 51.6705H234.422L236.229 46.4545H237.32ZM241.157 53.1364C240.526 53.1364 239.982 52.9972 239.525 52.7188C239.07 52.4375 238.719 52.0455 238.472 51.5426C238.228 51.0369 238.106 50.4489 238.106 49.7784C238.106 49.108 238.228 48.517 238.472 48.0057C238.719 47.4915 239.063 47.0909 239.504 46.804C239.947 46.5142 240.464 46.3693 241.055 46.3693C241.396 46.3693 241.732 46.4261 242.065 46.5398C242.397 46.6534 242.7 46.8381 242.972 47.0938C243.245 47.3466 243.462 47.6818 243.624 48.0994C243.786 48.517 243.867 49.0312 243.867 49.642V50.0682H238.822V49.1989H242.844C242.844 48.8295 242.771 48.5 242.623 48.2102C242.478 47.9205 242.271 47.6918 242.001 47.5241C241.734 47.3565 241.418 47.2727 241.055 47.2727C240.654 47.2727 240.308 47.3722 240.015 47.571C239.725 47.767 239.502 48.0227 239.346 48.3381C239.19 48.6534 239.112 48.9915 239.112 49.3523V49.9318C239.112 50.4261 239.197 50.8452 239.367 51.1889C239.54 51.5298 239.781 51.7898 240.087 51.9688C240.394 52.1449 240.751 52.233 241.157 52.233C241.421 52.233 241.66 52.196 241.873 52.1222C242.089 52.0455 242.275 51.9318 242.431 51.7812C242.587 51.6278 242.708 51.4375 242.793 51.2102L243.765 51.483C243.663 51.8125 243.491 52.1023 243.249 52.3523C243.008 52.5994 242.71 52.7926 242.354 52.9318C241.999 53.0682 241.6 53.1364 241.157 53.1364ZM245.397 53V46.4545H246.369V47.4432H246.437C246.556 47.1193 246.772 46.8565 247.085 46.6548C247.397 46.4531 247.749 46.3523 248.141 46.3523C248.215 46.3523 248.308 46.3537 248.418 46.3565C248.529 46.3594 248.613 46.3636 248.67 46.3693V47.392C248.636 47.3835 248.558 47.3707 248.435 47.3537C248.316 47.3338 248.19 47.3239 248.056 47.3239C247.738 47.3239 247.454 47.3906 247.204 47.5241C246.957 47.6548 246.761 47.8366 246.616 48.0696C246.474 48.2997 246.403 48.5625 246.403 48.858V53H245.397ZM254.498 47.9205L253.595 48.1761C253.538 48.0256 253.454 47.8793 253.343 47.7372C253.235 47.5923 253.088 47.473 252.9 47.3793C252.713 47.2855 252.473 47.2386 252.18 47.2386C251.779 47.2386 251.446 47.331 251.179 47.5156C250.914 47.6974 250.782 47.929 250.782 48.2102C250.782 48.4602 250.873 48.6577 251.055 48.8026C251.237 48.9474 251.521 49.0682 251.907 49.1648L252.879 49.4034C253.464 49.5455 253.9 49.7628 254.187 50.0554C254.474 50.3452 254.618 50.7187 254.618 51.1761C254.618 51.5511 254.51 51.8864 254.294 52.1818C254.081 52.4773 253.782 52.7102 253.399 52.8807C253.015 53.0511 252.569 53.1364 252.061 53.1364C251.393 53.1364 250.841 52.9915 250.403 52.7017C249.966 52.4119 249.689 51.9886 249.572 51.4318L250.527 51.1932C250.618 51.5455 250.789 51.8097 251.042 51.9858C251.298 52.1619 251.632 52.25 252.044 52.25C252.512 52.25 252.885 52.1506 253.16 51.9517C253.439 51.75 253.578 51.5085 253.578 51.2273C253.578 51 253.498 50.8097 253.339 50.6562C253.18 50.5 252.936 50.3835 252.606 50.3068L251.515 50.0511C250.916 49.9091 250.475 49.6889 250.194 49.3906C249.916 49.0895 249.777 48.7131 249.777 48.2614C249.777 47.892 249.88 47.5653 250.088 47.2812C250.298 46.9972 250.583 46.7741 250.944 46.6122C251.308 46.4503 251.72 46.3693 252.18 46.3693C252.828 46.3693 253.336 46.5114 253.706 46.7955C254.078 47.0795 254.342 47.4545 254.498 47.9205ZM256.131 53V46.4545H257.137V53H256.131ZM256.643 45.3636C256.447 45.3636 256.278 45.2969 256.136 45.1634C255.996 45.0298 255.927 44.8693 255.927 44.6818C255.927 44.4943 255.996 44.3338 256.136 44.2003C256.278 44.0668 256.447 44 256.643 44C256.839 44 257.006 44.0668 257.146 44.2003C257.288 44.3338 257.359 44.4943 257.359 44.6818C257.359 44.8693 257.288 45.0298 257.146 45.1634C257.006 45.2969 256.839 45.3636 256.643 45.3636ZM261.826 46.4545V47.3068H258.434V46.4545H261.826ZM259.422 44.8864H260.428V51.125C260.428 51.4091 260.469 51.6222 260.551 51.7642C260.637 51.9034 260.745 51.9972 260.875 52.0455C261.009 52.0909 261.15 52.1136 261.297 52.1136C261.408 52.1136 261.499 52.108 261.57 52.0966C261.641 52.0824 261.698 52.071 261.74 52.0625L261.945 52.9659C261.877 52.9915 261.782 53.017 261.659 53.0426C261.537 53.071 261.382 53.0852 261.195 53.0852C260.911 53.0852 260.632 53.0241 260.36 52.902C260.09 52.7798 259.865 52.5938 259.686 52.3438C259.51 52.0938 259.422 51.7784 259.422 51.3977V44.8864ZM263.986 55.4545C263.816 55.4545 263.664 55.4403 263.53 55.4119C263.397 55.3864 263.304 55.3608 263.253 55.3352L263.509 54.4489C263.753 54.5114 263.969 54.5341 264.157 54.517C264.344 54.5 264.51 54.4162 264.655 54.2656C264.803 54.1179 264.938 53.8778 265.06 53.5455L265.248 53.0341L262.827 46.4545H263.918L265.725 51.6705H265.793L267.6 46.4545H268.691L265.912 53.9545C265.787 54.2926 265.632 54.5724 265.448 54.794C265.263 55.0185 265.049 55.1847 264.804 55.2926C264.563 55.4006 264.29 55.4545 263.986 55.4545Z" fill="#768395"/>
<circle cx="18" cy="79" r="6" fill="#3572A5"/>
<circle cx="18" cy="79" r="5.5" stroke="white" stroke-opacity="0.14902"/>
<path d="M33.0568 83.5V74.7727H36.0057C36.6903 74.7727 37.25 74.8963 37.6847 75.1435C38.1222 75.3878 38.446 75.7188 38.6562 76.1364C38.8665 76.554 38.9716 77.0199 38.9716 77.5341C38.9716 78.0483 38.8665 78.5156 38.6562 78.9361C38.4489 79.3565 38.1278 79.6918 37.6932 79.9418C37.2585 80.1889 36.7017 80.3125 36.0227 80.3125H33.9091V79.375H35.9886C36.4574 79.375 36.8338 79.294 37.1179 79.1321C37.402 78.9702 37.608 78.7514 37.7358 78.4759C37.8665 78.1974 37.9318 77.8835 37.9318 77.5341C37.9318 77.1847 37.8665 76.8722 37.7358 76.5966C37.608 76.321 37.4006 76.1051 37.1136 75.9489C36.8267 75.7898 36.446 75.7102 35.9716 75.7102H34.1136V83.5H33.0568ZM41.1854 85.9545C41.0149 85.9545 40.8629 85.9403 40.7294 85.9119C40.5959 85.8864 40.5036 85.8608 40.4524 85.8352L40.7081 84.9489C40.9524 85.0114 41.1683 85.0341 41.3558 85.017C41.5433 85 41.7095 84.9162 41.8544 84.7656C42.0021 84.6179 42.1371 84.3778 42.2592 84.0455L42.4467 83.5341L40.0263 76.9545H41.1172L42.924 82.1705H42.9922L44.799 76.9545H45.8899L43.1115 84.4545C42.9865 84.7926 42.8317 85.0724 42.647 85.294C42.4624 85.5185 42.2479 85.6847 42.0036 85.7926C41.7621 85.9006 41.4893 85.9545 41.1854 85.9545ZM50.0639 76.9545V77.8068H46.6719V76.9545H50.0639ZM47.6605 75.3864H48.6662V81.625C48.6662 81.9091 48.7074 82.1222 48.7898 82.2642C48.875 82.4034 48.983 82.4972 49.1136 82.5455C49.2472 82.5909 49.3878 82.6136 49.5355 82.6136C49.6463 82.6136 49.7372 82.608 49.8082 82.5966C49.8793 82.5824 49.9361 82.571 49.9787 82.5625L50.1832 83.4659C50.1151 83.4915 50.0199 83.517 49.8977 83.5426C49.7756 83.571 49.6207 83.5852 49.4332 83.5852C49.1491 83.5852 48.8707 83.5241 48.598 83.402C48.3281 83.2798 48.1037 83.0938 47.9247 82.8438C47.7486 82.5938 47.6605 82.2784 47.6605 81.8977V75.3864ZM52.723 79.5625V83.5H51.7173V74.7727H52.723V77.9773H52.8082C52.9616 77.6392 53.1918 77.3707 53.4986 77.1719C53.8082 76.9702 54.2202 76.8693 54.7344 76.8693C55.1804 76.8693 55.571 76.9588 55.9062 77.1378C56.2415 77.3139 56.5014 77.5852 56.6861 77.9517C56.8736 78.3153 56.9673 78.7784 56.9673 79.3409V83.5H55.9616V79.4091C55.9616 78.8892 55.8267 78.4872 55.5568 78.2031C55.2898 77.9162 54.919 77.7727 54.4446 77.7727C54.1151 77.7727 53.8196 77.8423 53.5582 77.9815C53.2997 78.1207 53.0952 78.3239 52.9446 78.5909C52.7969 78.858 52.723 79.1818 52.723 79.5625ZM61.4663 83.6364C60.8754 83.6364 60.3569 83.4957 59.9109 83.2145C59.4677 82.9332 59.1211 82.5398 58.8711 82.0341C58.6239 81.5284 58.5004 80.9375 58.5004 80.2614C58.5004 79.5795 58.6239 78.9844 58.8711 78.4759C59.1211 77.9673 59.4677 77.5724 59.9109 77.2912C60.3569 77.0099 60.8754 76.8693 61.4663 76.8693C62.0572 76.8693 62.5742 77.0099 63.0174 77.2912C63.4634 77.5724 63.81 77.9673 64.0572 78.4759C64.3072 78.9844 64.4322 79.5795 64.4322 80.2614C64.4322 80.9375 64.3072 81.5284 64.0572 82.0341C63.81 82.5398 63.4634 82.9332 63.0174 83.2145C62.5742 83.4957 62.0572 83.6364 61.4663 83.6364ZM61.4663 82.733C61.9151 82.733 62.2844 82.6179 62.5742 82.3878C62.864 82.1577 63.0785 81.8551 63.2177 81.4801C63.3569 81.1051 63.4265 80.6989 63.4265 80.2614C63.4265 79.8239 63.3569 79.4162 63.2177 79.0384C63.0785 78.6605 62.864 78.3551 62.5742 78.1222C62.2844 77.8892 61.9151 77.7727 61.4663 77.7727C61.0174 77.7727 60.6481 77.8892 60.3583 78.1222C60.0685 78.3551 59.854 78.6605 59.7148 79.0384C59.5756 79.4162 59.506 79.8239 59.506 80.2614C59.506 80.6989 59.5756 81.1051 59.7148 81.4801C59.854 81.8551 60.0685 82.1577 60.3583 82.3878C60.6481 82.6179 61.0174 82.733 61.4663 82.733ZM66.973 79.5625V83.5H65.9673V76.9545H66.9389V77.9773H67.0241C67.1776 77.6449 67.4105 77.3778 67.723 77.1761C68.0355 76.9716 68.4389 76.8693 68.9332 76.8693C69.3764 76.8693 69.7642 76.9602 70.0966 77.142C70.429 77.321 70.6875 77.5938 70.8722 77.9602C71.0568 78.3239 71.1491 78.7841 71.1491 79.3409V83.5H70.1435V79.4091C70.1435 78.8949 70.0099 78.4943 69.7429 78.2074C69.4759 77.9176 69.1094 77.7727 68.6435 77.7727C68.3224 77.7727 68.0355 77.8423 67.7827 77.9815C67.5327 78.1207 67.3352 78.3239 67.1903 78.5909C67.0455 78.858 66.973 79.1818 66.973 79.5625Z" fill="#768395"/>
<rect x="85" y="68" width="60" height="22" rx="11" fill="#388BFD" fill-opacity="0.101961"/>
<path d="M95.5795 75.7102V74.7727H102.125V75.7102H99.3807V83.5H98.3239V75.7102H95.5795ZM104.557 81.1136L104.54 79.8693H104.745L107.608 76.9545H108.853L105.801 80.0398H105.716L104.557 81.1136ZM103.62 83.5V74.7727H104.625V83.5H103.62ZM107.779 83.5L105.222 80.2614L105.938 79.5625L109.057 83.5H107.779ZM110.147 83.5V76.9545H111.153V83.5H110.147ZM110.658 75.8636C110.462 75.8636 110.293 75.7969 110.151 75.6634C110.012 75.5298 109.942 75.3693 109.942 75.1818C109.942 74.9943 110.012 74.8338 110.151 74.7003C110.293 74.5668 110.462 74.5 110.658 74.5C110.854 74.5 111.022 74.5668 111.161 74.7003C111.303 74.8338 111.374 74.9943 111.374 75.1818C111.374 75.3693 111.303 75.5298 111.161 75.6634C111.022 75.7969 110.854 75.8636 110.658 75.8636ZM114 79.5625V83.5H112.995V76.9545H113.966V77.9773H114.051C114.205 77.6449 114.438 77.3778 114.75 77.1761C115.063 76.9716 115.466 76.8693 115.961 76.8693C116.404 76.8693 116.792 76.9602 117.124 77.142C117.456 77.321 117.715 77.5938 117.9 77.9602C118.084 78.3239 118.176 78.7841 118.176 79.3409V83.5H117.171V79.4091C117.171 78.8949 117.037 78.4943 116.77 78.2074C116.503 77.9176 116.137 77.7727 115.671 77.7727C115.35 77.7727 115.063 77.8423 114.81 77.9815C114.56 78.1207 114.363 78.3239 114.218 78.5909C114.073 78.858 114 79.1818 114 79.5625ZM122.861 76.9545V77.8068H119.469V76.9545H122.861ZM120.457 75.3864H121.463V81.625C121.463 81.9091 121.504 82.1222 121.587 82.2642C121.672 82.4034 121.78 82.4972 121.911 82.5455C122.044 82.5909 122.185 82.6136 122.332 82.6136C122.443 82.6136 122.534 82.608 122.605 82.5966C122.676 82.5824 122.733 82.571 122.776 82.5625L122.98 83.4659C122.912 83.4915 122.817 83.517 122.695 83.5426C122.572 83.571 122.418 83.5852 122.23 83.5852C121.946 83.5852 121.668 83.5241 121.395 83.402C121.125 83.2798 120.901 83.0938 120.722 82.8438C120.545 82.5938 120.457 82.2784 120.457 81.8977V75.3864ZM127.048 83.6364C126.417 83.6364 125.873 83.4972 125.415 83.2188C124.961 82.9375 124.61 82.5455 124.363 82.0426C124.119 81.5369 123.996 80.9489 123.996 80.2784C123.996 79.608 124.119 79.017 124.363 78.5057C124.61 77.9915 124.954 77.5909 125.394 77.304C125.837 77.0142 126.354 76.8693 126.945 76.8693C127.286 76.8693 127.623 76.9261 127.955 77.0398C128.288 77.1534 128.59 77.3381 128.863 77.5938C129.136 77.8466 129.353 78.1818 129.515 78.5994C129.677 79.017 129.758 79.5312 129.758 80.142V80.5682H124.712V79.6989H128.735C128.735 79.3295 128.661 79 128.513 78.7102C128.369 78.4205 128.161 78.1918 127.891 78.0241C127.624 77.8565 127.309 77.7727 126.945 77.7727C126.545 77.7727 126.198 77.8722 125.906 78.071C125.616 78.267 125.393 78.5227 125.237 78.8381C125.08 79.1534 125.002 79.4915 125.002 79.8523V80.4318C125.002 80.9261 125.087 81.3452 125.258 81.6889C125.431 82.0298 125.671 82.2898 125.978 82.4688C126.285 82.6449 126.641 82.733 127.048 82.733C127.312 82.733 127.55 82.696 127.763 82.6222C127.979 82.5455 128.165 82.4318 128.322 82.2812C128.478 82.1278 128.599 81.9375 128.684 81.7102L129.656 81.983C129.553 82.3125 129.381 82.6023 129.14 82.8523C128.898 83.0994 128.6 83.2926 128.245 83.4318C127.89 83.5682 127.491 83.6364 127.048 83.6364ZM131.288 83.5V76.9545H132.259V77.9432H132.327C132.447 77.6193 132.663 77.3565 132.975 77.1548C133.288 76.9531 133.64 76.8523 134.032 76.8523C134.106 76.8523 134.198 76.8537 134.309 76.8565C134.42 76.8594 134.504 76.8636 134.56 76.8693V77.892C134.526 77.8835 134.448 77.8707 134.326 77.8537C134.207 77.8338 134.08 77.8239 133.947 77.8239C133.629 77.8239 133.344 77.8906 133.094 78.0241C132.847 78.1548 132.651 78.3366 132.506 78.5696C132.364 78.7997 132.293 79.0625 132.293 79.358V83.5H131.288Z" fill="#4493F8"/>
</svg>
