<svg width="426" height="114" viewBox="0 0 426 114" fill="none" xmlns="http://www.w3.org/2000/svg">
<path d="M0 6C0 2.68629 2.68629 0 6 0H410C413.314 0 416 2.68629 416 6V96C416 99.3137 413.314 102 410 102H6C2.68629 102 0 99.3137 0 96V6Z" fill="#768395" fill-opacity="0.1"/>
<path d="M21.7195 19.2536H19.8601C19.8071 18.9486 19.7093 18.6785 19.5668 18.4432C19.4242 18.2045 19.2469 18.0024 19.0348 17.8366C18.8227 17.6709 18.5807 17.5466 18.3089 17.4638C18.0405 17.3776 17.7505 17.3345 17.4389 17.3345C16.8854 17.3345 16.3949 17.4737 15.9673 17.7521C15.5398 18.0272 15.205 18.4316 14.9631 18.9652C14.7211 19.4955 14.6001 20.1435 14.6001 20.9091C14.6001 21.688 14.7211 22.3442 14.9631 22.8778C15.2083 23.4081 15.5431 23.8092 15.9673 24.081C16.3949 24.3494 16.8838 24.4837 17.4339 24.4837C17.7389 24.4837 18.0239 24.4439 18.2891 24.3643C18.5575 24.2815 18.7978 24.1605 19.0099 24.0014C19.2254 23.8423 19.406 23.6468 19.5518 23.4148C19.701 23.1828 19.8037 22.9176 19.8601 22.6193L21.7195 22.6293C21.6499 23.1132 21.4991 23.5672 21.267 23.9915C21.0384 24.4157 20.7384 24.7902 20.3672 25.1151C19.996 25.4366 19.5618 25.6884 19.0646 25.8707C18.5675 26.0497 18.0156 26.1392 17.4091 26.1392C16.5142 26.1392 15.7154 25.9321 15.0128 25.5178C14.3101 25.1035 13.7566 24.5052 13.3523 23.723C12.9479 22.9408 12.7457 22.0028 12.7457 20.9091C12.7457 19.812 12.9496 18.8741 13.3572 18.0952C13.7649 17.313 14.3201 16.7147 15.0227 16.3004C15.7254 15.8861 16.5208 15.679 17.4091 15.679C17.9759 15.679 18.5028 15.7585 18.9901 15.9176C19.4773 16.0767 19.9115 16.3104 20.2926 16.6186C20.6738 16.9235 20.987 17.2981 21.2322 17.7422C21.4808 18.183 21.6432 18.6868 21.7195 19.2536ZM28.9419 18.6172C28.8955 18.183 28.7 17.8449 28.3553 17.603C28.0139 17.361 27.5698 17.2401 27.0229 17.2401C26.6384 17.2401 26.3087 17.2981 26.0336 17.4141C25.7585 17.5301 25.548 17.6875 25.4022 17.8864C25.2563 18.0852 25.1818 18.3123 25.1784 18.5675C25.1784 18.7796 25.2265 18.9635 25.3226 19.1193C25.4221 19.2751 25.5563 19.4077 25.7253 19.517C25.8944 19.6231 26.0816 19.7126 26.2871 19.7855C26.4926 19.8584 26.6998 19.9197 26.9086 19.9695L27.8631 20.2081C28.2476 20.2976 28.6171 20.4186 28.9718 20.571C29.3297 20.7235 29.6496 20.9157 29.9313 21.1477C30.2163 21.3797 30.4417 21.6598 30.6074 21.9879C30.7731 22.3161 30.856 22.7005 30.856 23.1413C30.856 23.7379 30.7035 24.2633 30.3986 24.7173C30.0937 25.1681 29.6529 25.5211 29.0762 25.7763C28.5028 26.0282 27.8084 26.1541 26.9931 26.1541C26.2009 26.1541 25.5132 26.0315 24.9299 25.7862C24.3498 25.541 23.8958 25.183 23.5676 24.7124C23.2428 24.2417 23.0672 23.6683 23.0407 22.9922H24.8553C24.8818 23.3468 24.9912 23.6418 25.1834 23.8771C25.3757 24.1125 25.6259 24.2881 25.9341 24.4041C26.2457 24.5201 26.5937 24.5781 26.9782 24.5781C27.3792 24.5781 27.7305 24.5185 28.0321 24.3991C28.3371 24.2765 28.5757 24.1075 28.748 23.892C28.9204 23.6733 29.0082 23.4181 29.0115 23.1264C29.0082 22.8613 28.9303 22.6425 28.7779 22.4702C28.6254 22.2945 28.4116 22.1487 28.1365 22.0327C27.8648 21.9134 27.5466 21.8073 27.182 21.7145L26.0236 21.4162C25.1851 21.2008 24.5222 20.8743 24.035 20.4368C23.5511 19.996 23.3091 19.411 23.3091 18.6818C23.3091 18.0819 23.4715 17.5566 23.7963 17.1058C24.1245 16.6551 24.5703 16.3054 25.1337 16.0568C25.6971 15.8049 26.3352 15.679 27.0478 15.679C27.7703 15.679 28.4034 15.8049 28.9469 16.0568C29.4938 16.3054 29.923 16.6518 30.2346 17.0959C30.5461 17.5367 30.7069 18.0438 30.7168 18.6172H28.9419ZM41.2156 19.2536H39.3562C39.3031 18.9486 39.2054 18.6785 39.0629 18.4432C38.9203 18.2045 38.743 18.0024 38.5309 17.8366C38.3188 17.6709 38.0768 17.5466 37.805 17.4638C37.5366 17.3776 37.2466 17.3345 36.935 17.3345C36.3815 17.3345 35.891 17.4737 35.4634 17.7521C35.0359 18.0272 34.7011 18.4316 34.4592 18.9652C34.2172 19.4955 34.0962 20.1435 34.0962 20.9091C34.0962 21.688 34.2172 22.3442 34.4592 22.8778C34.7044 23.4081 35.0392 23.8092 35.4634 24.081C35.891 24.3494 36.3799 24.4837 36.93 24.4837C37.235 24.4837 37.52 24.4439 37.7852 24.3643C38.0536 24.2815 38.2939 24.1605 38.506 24.0014C38.7215 23.8423 38.9021 23.6468 39.0479 23.4148C39.1971 23.1828 39.2998 22.9176 39.3562 22.6193L41.2156 22.6293C41.146 23.1132 40.9951 23.5672 40.7631 23.9915C40.5344 24.4157 40.2345 24.7902 39.8633 25.1151C39.4921 25.4366 39.0579 25.6884 38.5607 25.8707C38.0636 26.0497 37.5117 26.1392 36.9052 26.1392C36.0103 26.1392 35.2115 25.9321 34.5089 25.5178C33.8062 25.1035 33.2527 24.5052 32.8484 23.723C32.444 22.9408 32.2418 22.0028 32.2418 20.9091C32.2418 19.812 32.4457 18.8741 32.8533 18.0952C33.261 17.313 33.8162 16.7147 34.5188 16.3004C35.2215 15.8861 36.0169 15.679 36.9052 15.679C37.4719 15.679 37.9989 15.7585 38.4862 15.9176C38.9734 16.0767 39.4076 16.3104 39.7887 16.6186C40.1699 16.9235 40.4831 17.2981 40.7283 17.7422C40.9769 18.183 41.1393 18.6868 41.2156 19.2536ZM44.7491 15.8182V26H42.9047V15.8182H44.7491ZM53.7738 26.1392C53.0579 26.1392 52.4215 26.0166 51.8647 25.7713C51.3112 25.526 50.8737 25.1847 50.5522 24.7472C50.2307 24.3097 50.06 23.8042 50.0401 23.2308H51.9094C51.926 23.5059 52.0172 23.7462 52.1829 23.9517C52.3486 24.1539 52.569 24.3113 52.8441 24.424C53.1192 24.5367 53.4274 24.593 53.7688 24.593C54.1334 24.593 54.4566 24.5301 54.7383 24.4041C55.02 24.2749 55.2404 24.0959 55.3995 23.8672C55.5586 23.6385 55.6365 23.375 55.6332 23.0767C55.6365 22.7685 55.5569 22.4967 55.3945 22.2614C55.2321 22.026 54.9968 21.8421 54.6886 21.7095C54.3836 21.5769 54.0157 21.5107 53.5849 21.5107H52.685V20.0888H53.5849C53.9395 20.0888 54.2494 20.0275 54.5146 19.9048C54.783 19.7822 54.9935 19.6098 55.146 19.3878C55.2984 19.1624 55.373 18.9022 55.3697 18.6072C55.373 18.3189 55.3084 18.0687 55.1758 17.8565C55.0465 17.6411 54.8626 17.4737 54.6239 17.3544C54.3886 17.2351 54.1119 17.1754 53.7937 17.1754C53.4821 17.1754 53.1938 17.2318 52.9286 17.3445C52.6635 17.4571 52.4497 17.6179 52.2873 17.8267C52.1249 18.0322 52.0387 18.2775 52.0288 18.5625H50.2539C50.2672 17.9924 50.4312 17.492 50.7461 17.0611C51.0643 16.6269 51.4885 16.2888 52.0188 16.0469C52.5491 15.8016 53.1441 15.679 53.8036 15.679C54.4831 15.679 55.073 15.8066 55.5735 16.0618C56.0773 16.3137 56.4667 16.6534 56.7418 17.081C57.0169 17.5085 57.1545 17.9808 57.1545 18.4979C57.1578 19.0713 56.9888 19.5518 56.6474 19.9396C56.3093 20.3274 55.8652 20.581 55.315 20.7003V20.7798C56.0309 20.8793 56.5794 21.1444 56.9606 21.5753C57.3451 22.0028 57.5356 22.5348 57.5323 23.1712C57.5323 23.7412 57.3699 24.2517 57.0451 24.7024C56.7236 25.1499 56.2795 25.5012 55.7127 25.7564C55.1493 26.0116 54.503 26.1392 53.7738 26.1392ZM62.9675 26.1392C62.4803 26.1359 62.0047 26.0514 61.5407 25.8857C61.0766 25.7166 60.659 25.4432 60.2878 25.0653C59.9166 24.6842 59.6216 24.1787 59.4029 23.549C59.1841 22.916 59.0764 22.1321 59.0797 21.1974C59.0797 20.3258 59.1725 19.5485 59.3581 18.8658C59.5437 18.183 59.8105 17.6063 60.1586 17.1357C60.5066 16.6617 60.9258 16.3004 61.4164 16.0518C61.9102 15.8033 62.4621 15.679 63.0719 15.679C63.7116 15.679 64.2784 15.8049 64.7722 16.0568C65.2694 16.3087 65.6704 16.6534 65.9753 17.0909C66.2802 17.5251 66.4692 18.0156 66.5421 18.5625H64.7275C64.6346 18.1714 64.4441 17.8598 64.1557 17.6278C63.8707 17.3925 63.5094 17.2749 63.0719 17.2749C62.3659 17.2749 61.8224 17.5814 61.4412 18.1946C61.0634 18.8078 60.8728 19.6496 60.8695 20.7202H60.9391C61.1015 20.4285 61.312 20.1783 61.5705 19.9695C61.829 19.7607 62.1207 19.5999 62.4455 19.4872C62.7736 19.3712 63.12 19.3132 63.4846 19.3132C64.0811 19.3132 64.6164 19.4557 65.0904 19.7408C65.5676 20.0258 65.9455 20.4186 66.2239 20.919C66.5023 21.4162 66.6399 21.9863 66.6365 22.6293C66.6399 23.2988 66.4874 23.9003 66.1792 24.4339C65.8709 24.9643 65.4417 25.3819 64.8915 25.6868C64.3413 25.9917 63.7 26.1425 62.9675 26.1392ZM62.9576 24.6477C63.3188 24.6477 63.642 24.5599 63.927 24.3842C64.2121 24.2086 64.4374 23.9716 64.6032 23.6733C64.7689 23.375 64.8501 23.0402 64.8468 22.669C64.8501 22.3045 64.7705 21.9747 64.6081 21.6797C64.449 21.3847 64.2286 21.151 63.9469 20.9787C63.6652 20.8063 63.3437 20.7202 62.9824 20.7202C62.714 20.7202 62.4637 20.7715 62.2317 20.8743C61.9997 20.977 61.7975 21.1196 61.6252 21.3018C61.4528 21.4808 61.3169 21.6896 61.2175 21.9283C61.1214 22.1636 61.0717 22.4155 61.0684 22.6839C61.0717 23.0386 61.1545 23.3651 61.3169 23.6634C61.4793 23.9616 61.7031 24.2003 61.9881 24.3793C62.2731 24.5582 62.5963 24.6477 62.9576 24.6477ZM68.3169 26V24.6676L71.8517 21.2024C72.1898 20.861 72.4715 20.5578 72.6969 20.2926C72.9223 20.0275 73.0913 19.7706 73.204 19.522C73.3167 19.2734 73.373 19.0083 73.373 18.7266C73.373 18.4051 73.3001 18.13 73.1543 17.9013C73.0085 17.6693 72.8079 17.4903 72.5527 17.3643C72.2975 17.2384 72.0075 17.1754 71.6827 17.1754C71.348 17.1754 71.0546 17.245 70.8027 17.3842C70.5508 17.5201 70.3553 17.714 70.2161 17.9659C70.0802 18.2178 70.0123 18.5178 70.0123 18.8658H68.2573C68.2573 18.2195 68.4048 17.6577 68.6998 17.1804C68.9947 16.7031 69.4007 16.3336 69.9178 16.0717C70.4382 15.8099 71.0347 15.679 71.7076 15.679C72.3903 15.679 72.9902 15.8066 73.5073 16.0618C74.0243 16.317 74.4254 16.6667 74.7104 17.1108C74.9988 17.5549 75.1429 18.062 75.1429 18.6321C75.1429 19.0133 75.07 19.3878 74.9242 19.7557C74.7784 20.1236 74.5215 20.5312 74.1536 20.9787C73.789 21.4261 73.2769 21.968 72.6174 22.6044L70.8624 24.3892V24.4588H75.2971V26H68.3169ZM78.1408 24.777C77.8392 24.777 77.5807 24.6709 77.3652 24.4588C77.1498 24.2434 77.0437 23.9848 77.0471 23.6832C77.0437 23.3849 77.1498 23.1297 77.3652 22.9176C77.5807 22.7055 77.8392 22.5994 78.1408 22.5994C78.4325 22.5994 78.686 22.7055 78.9015 22.9176C79.1202 23.1297 79.2312 23.3849 79.2346 23.6832C79.2312 23.8854 79.1782 24.0694 79.0755 24.2351C78.976 24.4008 78.8435 24.5334 78.6777 24.6328C78.5153 24.7289 78.3364 24.777 78.1408 24.777ZM78.1408 19.7308C77.8392 19.7308 77.5807 19.6248 77.3652 19.4126C77.1498 19.1972 77.0437 18.9387 77.0471 18.6371C77.0437 18.3388 77.1498 18.0836 77.3652 17.8714C77.5807 17.656 77.8392 17.5483 78.1408 17.5483C78.4325 17.5483 78.686 17.656 78.9015 17.8714C79.1202 18.0836 79.2312 18.3388 79.2346 18.6371C79.2312 18.8359 79.1782 19.0182 79.0755 19.1839C78.976 19.3497 78.8435 19.4822 78.6777 19.5817C78.5153 19.6811 78.3364 19.7308 78.1408 19.7308ZM86.4893 15.8182V26H84.6449V15.8182H86.4893ZM90.2069 21.5256V26H88.4071V18.3636H90.1273V19.6612H90.2168C90.3925 19.2337 90.6725 18.8939 91.057 18.642C91.4448 18.3902 91.9237 18.2642 92.4938 18.2642C93.0208 18.2642 93.4798 18.3769 93.8709 18.6023C94.2653 18.8277 94.5703 19.1541 94.7857 19.5817C95.0044 20.0092 95.1122 20.5279 95.1088 21.1378V26H93.3091V21.4162C93.3091 20.9058 93.1766 20.5064 92.9114 20.218C92.6496 19.9297 92.2866 19.7855 91.8226 19.7855C91.5078 19.7855 91.2277 19.8551 90.9824 19.9943C90.7405 20.1302 90.5499 20.3274 90.4107 20.5859C90.2748 20.8445 90.2069 21.1577 90.2069 21.5256ZM100.752 18.3636V19.7557H96.3617V18.3636H100.752ZM97.4455 16.5341H99.2452V23.7031C99.2452 23.9451 99.2817 24.1307 99.3546 24.2599C99.4308 24.3859 99.5302 24.4721 99.6529 24.5185C99.7755 24.5649 99.9114 24.5881 100.061 24.5881C100.173 24.5881 100.276 24.5798 100.369 24.5632C100.465 24.5466 100.538 24.5317 100.588 24.5185L100.891 25.9254C100.795 25.9586 100.657 25.995 100.478 26.0348C100.302 26.0746 100.087 26.0978 99.8319 26.1044C99.3811 26.1177 98.9751 26.0497 98.6138 25.9006C98.2525 25.7481 97.9658 25.5128 97.7537 25.1946C97.5449 24.8764 97.4422 24.4787 97.4455 24.0014V16.5341ZM102.257 26V18.3636H104.002V19.6364H104.081C104.221 19.1955 104.459 18.8558 104.797 18.6172C105.139 18.3752 105.528 18.2543 105.966 18.2543C106.065 18.2543 106.176 18.2592 106.299 18.2692C106.425 18.2758 106.529 18.2874 106.612 18.304V19.9595C106.536 19.933 106.415 19.9098 106.249 19.8899C106.087 19.8667 105.929 19.8551 105.777 19.8551C105.449 19.8551 105.154 19.9264 104.892 20.0689C104.633 20.2081 104.429 20.402 104.28 20.6506C104.131 20.8991 104.056 21.1858 104.056 21.5107V26H102.257ZM110.824 26.1491C110.078 26.1491 109.432 25.9851 108.885 25.657C108.338 25.3288 107.914 24.8698 107.612 24.2798C107.314 23.6899 107.165 23.0005 107.165 22.2116C107.165 21.4228 107.314 20.7318 107.612 20.1385C107.914 19.5452 108.338 19.0845 108.885 18.7564C109.432 18.4283 110.078 18.2642 110.824 18.2642C111.57 18.2642 112.216 18.4283 112.763 18.7564C113.31 19.0845 113.732 19.5452 114.031 20.1385C114.332 20.7318 114.483 21.4228 114.483 22.2116C114.483 23.0005 114.332 23.6899 114.031 24.2798C113.732 24.8698 113.31 25.3288 112.763 25.657C112.216 25.9851 111.57 26.1491 110.824 26.1491ZM110.834 24.7074C111.238 24.7074 111.576 24.5964 111.848 24.3743C112.12 24.1489 112.322 23.8473 112.455 23.4695C112.591 23.0916 112.659 22.6707 112.659 22.2067C112.659 21.7393 112.591 21.3168 112.455 20.9389C112.322 20.5578 112.12 20.2545 111.848 20.0291C111.576 19.8037 111.238 19.6911 110.834 19.6911C110.42 19.6911 110.075 19.8037 109.8 20.0291C109.528 20.2545 109.324 20.5578 109.188 20.9389C109.056 21.3168 108.99 21.7393 108.99 22.2067C108.99 22.6707 109.056 23.0916 109.188 23.4695C109.324 23.8473 109.528 24.1489 109.8 24.3743C110.075 24.5964 110.42 24.7074 110.834 24.7074ZM123.297 18.3636V19.7557H118.907V18.3636H123.297ZM119.99 16.5341H121.79V23.7031C121.79 23.9451 121.827 24.1307 121.9 24.2599C121.976 24.3859 122.075 24.4721 122.198 24.5185C122.32 24.5649 122.456 24.5881 122.605 24.5881C122.718 24.5881 122.821 24.5798 122.914 24.5632C123.01 24.5466 123.083 24.5317 123.132 24.5185L123.436 25.9254C123.34 25.9586 123.202 25.995 123.023 26.0348C122.847 26.0746 122.632 26.0978 122.377 26.1044C121.926 26.1177 121.52 26.0497 121.159 25.9006C120.797 25.7481 120.511 25.5128 120.299 25.1946C120.09 24.8764 119.987 24.4787 119.99 24.0014V16.5341ZM128.051 26.1491C127.305 26.1491 126.659 25.9851 126.112 25.657C125.565 25.3288 125.141 24.8698 124.839 24.2798C124.541 23.6899 124.392 23.0005 124.392 22.2116C124.392 21.4228 124.541 20.7318 124.839 20.1385C125.141 19.5452 125.565 19.0845 126.112 18.7564C126.659 18.4283 127.305 18.2642 128.051 18.2642C128.796 18.2642 129.443 18.4283 129.99 18.7564C130.536 19.0845 130.959 19.5452 131.257 20.1385C131.559 20.7318 131.71 21.4228 131.71 22.2116C131.71 23.0005 131.559 23.6899 131.257 24.2798C130.959 24.8698 130.536 25.3288 129.99 25.657C129.443 25.9851 128.796 26.1491 128.051 26.1491ZM128.061 24.7074C128.465 24.7074 128.803 24.5964 129.075 24.3743C129.347 24.1489 129.549 23.8473 129.681 23.4695C129.817 23.0916 129.885 22.6707 129.885 22.2067C129.885 21.7393 129.817 21.3168 129.681 20.9389C129.549 20.5578 129.347 20.2545 129.075 20.0291C128.803 19.8037 128.465 19.6911 128.061 19.6911C127.646 19.6911 127.302 19.8037 127.026 20.0291C126.755 20.2545 126.551 20.5578 126.415 20.9389C126.282 21.3168 126.216 21.7393 126.216 22.2067C126.216 22.6707 126.282 23.0916 126.415 23.4695C126.551 23.8473 126.755 24.1489 127.026 24.3743C127.302 24.5964 127.646 24.7074 128.061 24.7074ZM136.789 15.8182H139.047L142.069 23.196H142.189L145.211 15.8182H147.468V26H145.699V19.005H145.604L142.79 25.9702H141.468L138.654 18.9901H138.559V26H136.789V15.8182ZM151.595 26.1541C151.111 26.1541 150.675 26.0679 150.287 25.8956C149.903 25.7199 149.598 25.4614 149.373 25.12C149.15 24.7786 149.039 24.3577 149.039 23.8572C149.039 23.4264 149.119 23.0701 149.278 22.7884C149.437 22.5066 149.654 22.2812 149.929 22.1122C150.204 21.9432 150.514 21.8156 150.859 21.7294C151.207 21.6399 151.567 21.5753 151.938 21.5355C152.385 21.4891 152.748 21.4477 153.027 21.4112C153.305 21.3714 153.507 21.3118 153.633 21.2322C153.762 21.1494 153.827 21.0218 153.827 20.8494V20.8196C153.827 20.4451 153.716 20.1551 153.494 19.9496C153.272 19.7441 152.952 19.6413 152.534 19.6413C152.094 19.6413 151.744 19.7375 151.485 19.9297C151.23 20.1219 151.058 20.349 150.968 20.6108L149.288 20.3722C149.421 19.9081 149.639 19.5204 149.944 19.2088C150.249 18.8939 150.622 18.6586 151.063 18.5028C151.504 18.3438 151.991 18.2642 152.525 18.2642C152.892 18.2642 153.259 18.3073 153.623 18.3935C153.988 18.4796 154.321 18.6222 154.623 18.821C154.924 19.0166 155.166 19.2834 155.348 19.6214C155.534 19.9595 155.627 20.3821 155.627 20.8892V26H153.897V24.951H153.837C153.728 25.1631 153.574 25.362 153.375 25.5476C153.179 25.7299 152.932 25.8774 152.634 25.9901C152.339 26.0994 151.993 26.1541 151.595 26.1541ZM152.062 24.8317C152.423 24.8317 152.737 24.7604 153.002 24.6179C153.267 24.4721 153.471 24.2798 153.613 24.0412C153.759 23.8026 153.832 23.5424 153.832 23.2607V22.3608C153.776 22.4072 153.68 22.4503 153.544 22.4901C153.411 22.5298 153.262 22.5646 153.096 22.5945C152.931 22.6243 152.766 22.6508 152.604 22.674C152.442 22.6972 152.301 22.7171 152.181 22.7337C151.913 22.7701 151.673 22.8298 151.461 22.9126C151.248 22.9955 151.081 23.1115 150.958 23.2607C150.836 23.4065 150.775 23.5954 150.775 23.8274C150.775 24.1589 150.895 24.4091 151.137 24.5781C151.379 24.7472 151.688 24.8317 152.062 24.8317ZM160.767 26.1491C160.005 26.1491 159.35 25.9818 158.804 25.647C158.26 25.3123 157.841 24.8499 157.546 24.2599C157.254 23.6667 157.108 22.9839 157.108 22.2116C157.108 21.4361 157.257 20.7517 157.556 20.1584C157.854 19.5618 158.275 19.0978 158.819 18.7663C159.365 18.4316 160.012 18.2642 160.757 18.2642C161.377 18.2642 161.926 18.3786 162.403 18.6072C162.884 18.8326 163.266 19.1525 163.551 19.5668C163.837 19.9777 163.999 20.4583 164.039 21.0085H162.319C162.249 20.6406 162.083 20.334 161.821 20.0888C161.563 19.8402 161.217 19.7159 160.782 19.7159C160.414 19.7159 160.091 19.8153 159.813 20.0142C159.534 20.2098 159.317 20.4915 159.162 20.8594C159.009 21.2273 158.933 21.6681 158.933 22.1818C158.933 22.7022 159.009 23.1496 159.162 23.5241C159.314 23.8954 159.528 24.1821 159.803 24.3842C160.081 24.5831 160.408 24.6825 160.782 24.6825C161.047 24.6825 161.284 24.6328 161.493 24.5334C161.705 24.4306 161.883 24.2831 162.025 24.0909C162.168 23.8987 162.266 23.665 162.319 23.3899H164.039C163.996 23.9302 163.837 24.4091 163.561 24.8267C163.286 25.241 162.912 25.5658 162.438 25.8011C161.964 26.0331 161.407 26.1491 160.767 26.1491ZM167.316 21.5256V26H165.517V15.8182H167.276V19.6612H167.366C167.545 19.2304 167.822 18.8906 168.196 18.642C168.574 18.3902 169.055 18.2642 169.638 18.2642C170.168 18.2642 170.631 18.3752 171.025 18.5973C171.419 18.8194 171.724 19.1442 171.94 19.5717C172.159 19.9993 172.268 20.5213 172.268 21.1378V26H170.468V21.4162C170.468 20.9025 170.336 20.5031 170.07 20.218C169.809 19.9297 169.441 19.7855 168.967 19.7855C168.649 19.7855 168.364 19.8551 168.112 19.9943C167.863 20.1302 167.668 20.3274 167.525 20.5859C167.386 20.8445 167.316 21.1577 167.316 21.5256ZM174.102 26V18.3636H175.902V26H174.102ZM175.007 17.2798C174.722 17.2798 174.477 17.1854 174.271 16.9964C174.066 16.8042 173.963 16.5739 173.963 16.3054C173.963 16.0336 174.066 15.8033 174.271 15.6143C174.477 15.4221 174.722 15.326 175.007 15.326C175.296 15.326 175.541 15.4221 175.743 15.6143C175.949 15.8033 176.051 16.0336 176.051 16.3054C176.051 16.5739 175.949 16.8042 175.743 16.9964C175.541 17.1854 175.296 17.2798 175.007 17.2798ZM179.553 21.5256V26H177.753V18.3636H179.473V19.6612H179.562C179.738 19.2337 180.018 18.8939 180.403 18.642C180.79 18.3902 181.269 18.2642 181.839 18.2642C182.366 18.2642 182.826 18.3769 183.217 18.6023C183.611 18.8277 183.916 19.1541 184.131 19.5817C184.35 20.0092 184.458 20.5279 184.455 21.1378V26H182.655V21.4162C182.655 20.9058 182.522 20.5064 182.257 20.218C181.995 19.9297 181.632 19.7855 181.168 19.7855C180.853 19.7855 180.573 19.8551 180.328 19.9943C180.086 20.1302 179.896 20.3274 179.756 20.5859C179.621 20.8445 179.553 21.1577 179.553 21.5256ZM189.665 26.1491C188.899 26.1491 188.238 25.9901 187.681 25.6719C187.128 25.3504 186.702 24.8963 186.403 24.3097C186.105 23.7197 185.956 23.0253 185.956 22.2266C185.956 21.4411 186.105 20.7517 186.403 20.1584C186.705 19.5618 187.126 19.0978 187.666 18.7663C188.206 18.4316 188.841 18.2642 189.57 18.2642C190.041 18.2642 190.485 18.3404 190.903 18.4929C191.324 18.642 191.695 18.8741 192.016 19.1889C192.341 19.5038 192.596 19.9048 192.782 20.392C192.968 20.8759 193.06 21.4527 193.06 22.1222V22.674H186.801V21.4609H191.335C191.332 21.1162 191.257 20.8097 191.112 20.5412C190.966 20.2694 190.762 20.0556 190.5 19.8999C190.241 19.7441 189.94 19.6662 189.595 19.6662C189.227 19.6662 188.904 19.7557 188.626 19.9347C188.347 20.1103 188.13 20.3423 187.974 20.6307C187.822 20.9157 187.744 21.2289 187.741 21.5703V22.6293C187.741 23.0734 187.822 23.4545 187.984 23.7727C188.147 24.0876 188.374 24.3295 188.665 24.4986C188.957 24.6643 189.299 24.7472 189.69 24.7472C189.951 24.7472 190.188 24.7107 190.401 24.6378C190.613 24.5616 190.797 24.4505 190.952 24.3047C191.108 24.1589 191.226 23.9782 191.305 23.7628L192.986 23.9517C192.88 24.3958 192.678 24.7836 192.379 25.1151C192.084 25.4432 191.706 25.6984 191.246 25.8807C190.785 26.0597 190.258 26.1491 189.665 26.1491ZM198.135 26V15.8182H199.98V24.4538H204.464V26H198.135ZM209.366 26.1491C208.6 26.1491 207.939 25.9901 207.382 25.6719C206.829 25.3504 206.403 24.8963 206.105 24.3097C205.806 23.7197 205.657 23.0253 205.657 22.2266C205.657 21.4411 205.806 20.7517 206.105 20.1584C206.406 19.5618 206.827 19.0978 207.367 18.7663C207.908 18.4316 208.542 18.2642 209.271 18.2642C209.742 18.2642 210.186 18.3404 210.604 18.4929C211.025 18.642 211.396 18.8741 211.718 19.1889C212.042 19.5038 212.298 19.9048 212.483 20.392C212.669 20.8759 212.762 21.4527 212.762 22.1222V22.674H206.502V21.4609H211.036C211.033 21.1162 210.959 20.8097 210.813 20.5412C210.667 20.2694 210.463 20.0556 210.201 19.8999C209.943 19.7441 209.641 19.6662 209.296 19.6662C208.928 19.6662 208.605 19.7557 208.327 19.9347C208.048 20.1103 207.831 20.3423 207.676 20.6307C207.523 20.9157 207.445 21.2289 207.442 21.5703V22.6293C207.442 23.0734 207.523 23.4545 207.686 23.7727C207.848 24.0876 208.075 24.3295 208.367 24.4986C208.658 24.6643 209 24.7472 209.391 24.7472C209.653 24.7472 209.89 24.7107 210.102 24.6378C210.314 24.5616 210.498 24.4505 210.654 24.3047C210.809 24.1589 210.927 23.9782 211.007 23.7628L212.687 23.9517C212.581 24.3958 212.379 24.7836 212.08 25.1151C211.785 25.4432 211.408 25.6984 210.947 25.8807C210.486 26.0597 209.959 26.1491 209.366 26.1491ZM216.482 26.1541C215.998 26.1541 215.562 26.0679 215.174 25.8956C214.79 25.7199 214.485 25.4614 214.259 25.12C214.037 24.7786 213.926 24.3577 213.926 23.8572C213.926 23.4264 214.006 23.0701 214.165 22.7884C214.324 22.5066 214.541 22.2812 214.816 22.1122C215.091 21.9432 215.401 21.8156 215.746 21.7294C216.094 21.6399 216.453 21.5753 216.825 21.5355C217.272 21.4891 217.635 21.4477 217.913 21.4112C218.192 21.3714 218.394 21.3118 218.52 21.2322C218.649 21.1494 218.714 21.0218 218.714 20.8494V20.8196C218.714 20.4451 218.603 20.1551 218.381 19.9496C218.159 19.7441 217.839 19.6413 217.421 19.6413C216.98 19.6413 216.631 19.7375 216.372 19.9297C216.117 20.1219 215.945 20.349 215.855 20.6108L214.175 20.3722C214.307 19.9081 214.526 19.5204 214.831 19.2088C215.136 18.8939 215.509 18.6586 215.95 18.5028C216.39 18.3438 216.878 18.2642 217.411 18.2642C217.779 18.2642 218.145 18.3073 218.51 18.3935C218.875 18.4796 219.208 18.6222 219.509 18.821C219.811 19.0166 220.053 19.2834 220.235 19.6214C220.421 19.9595 220.513 20.3821 220.513 20.8892V26H218.783V24.951H218.724C218.614 25.1631 218.46 25.362 218.261 25.5476C218.066 25.7299 217.819 25.8774 217.521 25.9901C217.226 26.0994 216.879 26.1541 216.482 26.1541ZM216.949 24.8317C217.31 24.8317 217.623 24.7604 217.888 24.6179C218.154 24.4721 218.357 24.2798 218.5 24.0412C218.646 23.8026 218.719 23.5424 218.719 23.2607V22.3608C218.662 22.4072 218.566 22.4503 218.43 22.4901C218.298 22.5298 218.149 22.5646 217.983 22.5945C217.817 22.6243 217.653 22.6508 217.491 22.674C217.328 22.6972 217.188 22.7171 217.068 22.7337C216.8 22.7701 216.559 22.8298 216.347 22.9126C216.135 22.9955 215.968 23.1115 215.845 23.2607C215.723 23.4065 215.661 23.5954 215.661 23.8274C215.661 24.1589 215.782 24.4091 216.024 24.5781C216.266 24.7472 216.574 24.8317 216.949 24.8317ZM222.323 26V18.3636H224.068V19.6364H224.148C224.287 19.1955 224.526 18.8558 224.864 18.6172C225.205 18.3752 225.594 18.2543 226.032 18.2543C226.131 18.2543 226.242 18.2592 226.365 18.2692C226.491 18.2758 226.595 18.2874 226.678 18.304V19.9595C226.602 19.933 226.481 19.9098 226.315 19.8899C226.153 19.8667 225.996 19.8551 225.843 19.8551C225.515 19.8551 225.22 19.9264 224.958 20.0689C224.7 20.2081 224.496 20.402 224.347 20.6506C224.197 20.8991 224.123 21.1858 224.123 21.5107V26H222.323ZM229.674 21.5256V26H227.874V18.3636H229.594V19.6612H229.684C229.859 19.2337 230.139 18.8939 230.524 18.642C230.912 18.3902 231.391 18.2642 231.961 18.2642C232.488 18.2642 232.947 18.3769 233.338 18.6023C233.732 18.8277 234.037 19.1541 234.252 19.5817C234.471 20.0092 234.579 20.5279 234.576 21.1378V26H232.776V21.4162C232.776 20.9058 232.643 20.5064 232.378 20.218C232.116 19.9297 231.753 19.7855 231.289 19.7855C230.975 19.7855 230.694 19.8551 230.449 19.9943C230.207 20.1302 230.017 20.3274 229.877 20.5859C229.742 20.8445 229.674 21.1577 229.674 21.5256ZM236.405 26V18.3636H238.205V26H236.405ZM237.31 17.2798C237.025 17.2798 236.78 17.1854 236.574 16.9964C236.369 16.8042 236.266 16.5739 236.266 16.3054C236.266 16.0336 236.369 15.8033 236.574 15.6143C236.78 15.4221 237.025 15.326 237.31 15.326C237.598 15.326 237.844 15.4221 238.046 15.6143C238.251 15.8033 238.354 16.0336 238.354 16.3054C238.354 16.5739 238.251 16.8042 238.046 16.9964C237.844 17.1854 237.598 17.2798 237.31 17.2798ZM241.855 21.5256V26H240.056V18.3636H241.776V19.6612H241.865C242.041 19.2337 242.321 18.8939 242.705 18.642C243.093 18.3902 243.572 18.2642 244.142 18.2642C244.669 18.2642 245.128 18.3769 245.519 18.6023C245.914 18.8277 246.219 19.1541 246.434 19.5817C246.653 20.0092 246.761 20.5279 246.757 21.1378V26H244.958V21.4162C244.958 20.9058 244.825 20.5064 244.56 20.218C244.298 19.9297 243.935 19.7855 243.471 19.7855C243.156 19.7855 242.876 19.8551 242.631 19.9943C242.389 20.1302 242.198 20.3274 242.059 20.5859C241.923 20.8445 241.855 21.1577 241.855 21.5256ZM251.908 29.0227C251.262 29.0227 250.706 28.9349 250.242 28.7592C249.778 28.5869 249.405 28.3549 249.124 28.0632C248.842 27.7715 248.646 27.4484 248.537 27.0938L250.158 26.701C250.231 26.8501 250.337 26.9976 250.476 27.1435C250.615 27.2926 250.802 27.4152 251.038 27.5114C251.276 27.6108 251.576 27.6605 251.938 27.6605C252.448 27.6605 252.871 27.5362 253.205 27.2876C253.54 27.0424 253.708 26.638 253.708 26.0746V24.6278H253.618C253.525 24.8134 253.389 25.004 253.21 25.1996C253.035 25.3951 252.801 25.5592 252.509 25.6918C252.221 25.8243 251.858 25.8906 251.421 25.8906C250.834 25.8906 250.302 25.7531 249.825 25.478C249.351 25.1996 248.973 24.7853 248.691 24.2351C248.413 23.6816 248.274 22.9889 248.274 22.157C248.274 21.3184 248.413 20.6108 248.691 20.0341C248.973 19.4541 249.352 19.0149 249.83 18.7166C250.307 18.415 250.839 18.2642 251.426 18.2642C251.873 18.2642 252.241 18.3404 252.529 18.4929C252.821 18.642 253.053 18.8227 253.225 19.0348C253.398 19.2436 253.529 19.4408 253.618 19.6264H253.718V18.3636H255.492V26.1243C255.492 26.7772 255.337 27.3175 255.025 27.745C254.713 28.1726 254.288 28.4924 253.747 28.7045C253.207 28.9167 252.594 29.0227 251.908 29.0227ZM251.923 24.4787C252.304 24.4787 252.629 24.3859 252.897 24.2003C253.166 24.0147 253.369 23.7479 253.509 23.3999C253.648 23.0518 253.718 22.6342 253.718 22.147C253.718 21.6664 253.648 21.2455 253.509 20.8842C253.373 20.523 253.171 20.2429 252.902 20.044C252.637 19.8419 252.311 19.7408 251.923 19.7408C251.522 19.7408 251.187 19.8452 250.919 20.054C250.65 20.2628 250.448 20.5495 250.312 20.9141C250.176 21.2753 250.108 21.6863 250.108 22.147C250.108 22.6143 250.176 23.0237 250.312 23.375C250.451 23.723 250.655 23.9948 250.923 24.1903C251.195 24.3826 251.528 24.4787 251.923 24.4787Z" fill="#4493F8"/>
<path d="M13.4148 53H12.3068L15.5114 44.2727H16.6023L19.8068 53H18.6989L16.0909 45.6534H16.0227L13.4148 53ZM13.8239 49.5909H18.2898V50.5284H13.8239V49.5909ZM25.6662 47.9205L24.7628 48.1761C24.706 48.0256 24.6222 47.8793 24.5114 47.7372C24.4034 47.5923 24.2557 47.473 24.0682 47.3793C23.8807 47.2855 23.6406 47.2386 23.348 47.2386C22.9474 47.2386 22.6136 47.331 22.3466 47.5156C22.0824 47.6974 21.9503 47.929 21.9503 48.2102C21.9503 48.4602 22.0412 48.6577 22.223 48.8026C22.4048 48.9474 22.6889 49.0682 23.0753 49.1648L24.0469 49.4034C24.6321 49.5455 25.0682 49.7628 25.3551 50.0554C25.642 50.3452 25.7855 50.7187 25.7855 51.1761C25.7855 51.5511 25.6776 51.8864 25.4616 52.1818C25.2486 52.4773 24.9503 52.7102 24.5668 52.8807C24.1832 53.0511 23.7372 53.1364 23.2287 53.1364C22.5611 53.1364 22.0085 52.9915 21.571 52.7017C21.1335 52.4119 20.8565 51.9886 20.7401 51.4318L21.6946 51.1932C21.7855 51.5455 21.9574 51.8097 22.2102 51.9858C22.4659 52.1619 22.7997 52.25 23.2116 52.25C23.6804 52.25 24.0526 52.1506 24.3281 51.9517C24.6065 51.75 24.7457 51.5085 24.7457 51.2273C24.7457 51 24.6662 50.8097 24.5071 50.6562C24.348 50.5 24.1037 50.3835 23.7741 50.3068L22.6832 50.0511C22.0838 49.9091 21.6435 49.6889 21.3622 49.3906C21.0838 49.0895 20.9446 48.7131 20.9446 48.2614C20.9446 47.892 21.0483 47.5653 21.2557 47.2812C21.4659 46.9972 21.7514 46.7741 22.1122 46.6122C22.4759 46.4503 22.8878 46.3693 23.348 46.3693C23.9957 46.3693 24.5043 46.5114 24.8736 46.7955C25.2457 47.0795 25.5099 47.4545 25.6662 47.9205ZM31.9357 47.9205L31.0323 48.1761C30.9755 48.0256 30.8917 47.8793 30.7809 47.7372C30.6729 47.5923 30.5252 47.473 30.3377 47.3793C30.1502 47.2855 29.9102 47.2386 29.6175 47.2386C29.217 47.2386 28.8832 47.331 28.6161 47.5156C28.3519 47.6974 28.2198 47.929 28.2198 48.2102C28.2198 48.4602 28.3107 48.6577 28.4925 48.8026C28.6744 48.9474 28.9585 49.0682 29.3448 49.1648L30.3164 49.4034C30.9016 49.5455 31.3377 49.7628 31.6246 50.0554C31.9116 50.3452 32.055 50.7187 32.055 51.1761C32.055 51.5511 31.9471 51.8864 31.7312 52.1818C31.5181 52.4773 31.2198 52.7102 30.8363 52.8807C30.4528 53.0511 30.0067 53.1364 29.4982 53.1364C28.8306 53.1364 28.2781 52.9915 27.8406 52.7017C27.4031 52.4119 27.1261 51.9886 27.0096 51.4318L27.9641 51.1932C28.055 51.5455 28.2269 51.8097 28.4798 51.9858C28.7354 52.1619 29.0692 52.25 29.4812 52.25C29.9499 52.25 30.3221 52.1506 30.5977 51.9517C30.8761 51.75 31.0153 51.5085 31.0153 51.2273C31.0153 51 30.9357 50.8097 30.7766 50.6562C30.6175 50.5 30.3732 50.3835 30.0437 50.3068L28.9528 50.0511C28.3533 49.9091 27.913 49.6889 27.6317 49.3906C27.3533 49.0895 27.2141 48.7131 27.2141 48.2614C27.2141 47.892 27.3178 47.5653 27.5252 47.2812C27.7354 46.9972 28.021 46.7741 28.3817 46.6122C28.7454 46.4503 29.1573 46.3693 29.6175 46.3693C30.2653 46.3693 30.7738 46.5114 31.1431 46.7955C31.5153 47.0795 31.7795 47.4545 31.9357 47.9205ZM33.5689 53V46.4545H34.5746V53H33.5689ZM34.0803 45.3636C33.8842 45.3636 33.7152 45.2969 33.5732 45.1634C33.4339 45.0298 33.3643 44.8693 33.3643 44.6818C33.3643 44.4943 33.4339 44.3338 33.5732 44.2003C33.7152 44.0668 33.8842 44 34.0803 44C34.2763 44 34.4439 44.0668 34.5831 44.2003C34.7251 44.3338 34.7962 44.4943 34.7962 44.6818C34.7962 44.8693 34.7251 45.0298 34.5831 45.1634C34.4439 45.2969 34.2763 45.3636 34.0803 45.3636ZM39.0586 55.5909C38.5728 55.5909 38.1552 55.5284 37.8058 55.4034C37.4563 55.2812 37.1651 55.1193 36.9322 54.9176C36.7021 54.7188 36.5188 54.5057 36.3825 54.2784L37.1836 53.7159C37.2745 53.8352 37.3896 53.9716 37.5288 54.125C37.668 54.2812 37.8583 54.4162 38.0998 54.5298C38.3441 54.6463 38.6637 54.7045 39.0586 54.7045C39.587 54.7045 40.0231 54.5767 40.3668 54.321C40.7106 54.0653 40.8825 53.6648 40.8825 53.1193V51.7898H40.7972C40.7234 51.9091 40.6183 52.0568 40.4819 52.233C40.3484 52.4062 40.1552 52.5611 39.9023 52.6974C39.6523 52.831 39.3143 52.8977 38.8881 52.8977C38.3597 52.8977 37.8853 52.7727 37.4648 52.5227C37.0472 52.2727 36.7163 51.9091 36.4719 51.4318C36.2305 50.9545 36.1097 50.375 36.1097 49.6932C36.1097 49.0227 36.2276 48.4389 36.4634 47.9418C36.6992 47.4418 37.0273 47.0554 37.4478 46.7827C37.8683 46.5071 38.354 46.3693 38.9052 46.3693C39.3313 46.3693 39.6694 46.4403 39.9194 46.5824C40.1722 46.7216 40.3654 46.8807 40.4989 47.0597C40.6353 47.2358 40.7404 47.3807 40.8143 47.4943H40.9165V46.4545H41.8881V53.1875C41.8881 53.75 41.7603 54.2074 41.5046 54.5597C41.2518 54.9148 40.9109 55.1747 40.4819 55.3395C40.0558 55.5071 39.5813 55.5909 39.0586 55.5909ZM39.0245 51.9943C39.4279 51.9943 39.7688 51.902 40.0472 51.7173C40.3256 51.5327 40.5373 51.267 40.6822 50.9205C40.8271 50.5739 40.8995 50.1591 40.8995 49.6761C40.8995 49.2045 40.8285 48.7884 40.6864 48.4276C40.5444 48.0668 40.3342 47.7841 40.0558 47.5795C39.7773 47.375 39.4336 47.2727 39.0245 47.2727C38.5984 47.2727 38.2433 47.3807 37.9592 47.5966C37.6779 47.8125 37.4663 48.1023 37.3242 48.4659C37.185 48.8295 37.1154 49.233 37.1154 49.6761C37.1154 50.1307 37.1864 50.5327 37.3285 50.8821C37.4734 51.2287 37.6864 51.5014 37.9677 51.7003C38.2518 51.8963 38.604 51.9943 39.0245 51.9943ZM44.7347 49.0625V53H43.729V46.4545H44.7006V47.4773H44.7859C44.9393 47.1449 45.1722 46.8778 45.4847 46.6761C45.7972 46.4716 46.2006 46.3693 46.695 46.3693C47.1381 46.3693 47.5259 46.4602 47.8583 46.642C48.1907 46.821 48.4492 47.0938 48.6339 47.4602C48.8185 47.8239 48.9109 48.2841 48.9109 48.8409V53H47.9052V48.9091C47.9052 48.3949 47.7717 47.9943 47.5046 47.7074C47.2376 47.4176 46.8711 47.2727 46.4052 47.2727C46.0842 47.2727 45.7972 47.3423 45.5444 47.4815C45.2944 47.6207 45.0969 47.8239 44.9521 48.0909C44.8072 48.358 44.7347 48.6818 44.7347 49.0625ZM50.7486 53V46.4545H51.7202V47.4773H51.8054C51.9418 47.1278 52.1619 46.8565 52.4659 46.6634C52.7699 46.4673 53.1349 46.3693 53.5611 46.3693C53.9929 46.3693 54.3523 46.4673 54.6392 46.6634C54.929 46.8565 55.1548 47.1278 55.3168 47.4773H55.3849C55.5526 47.1392 55.804 46.8707 56.1392 46.6719C56.4744 46.4702 56.8764 46.3693 57.3452 46.3693C57.9304 46.3693 58.4091 46.5526 58.7812 46.919C59.1534 47.2827 59.3395 47.8494 59.3395 48.6193V53H58.3338V48.6193C58.3338 48.1364 58.2017 47.7912 57.9375 47.5838C57.6733 47.3764 57.3622 47.2727 57.0043 47.2727C56.544 47.2727 56.1875 47.4119 55.9347 47.6903C55.6818 47.9659 55.5554 48.3153 55.5554 48.7386V53H54.5327V48.517C54.5327 48.1449 54.4119 47.8452 54.1705 47.6179C53.929 47.3878 53.6179 47.2727 53.2372 47.2727C52.9759 47.2727 52.7315 47.3423 52.5043 47.4815C52.2798 47.6207 52.098 47.8139 51.9588 48.0611C51.8224 48.3054 51.7543 48.5881 51.7543 48.9091V53H50.7486ZM63.9226 53.1364C63.2919 53.1364 62.7479 52.9972 62.2905 52.7188C61.8359 52.4375 61.4851 52.0455 61.2379 51.5426C60.9936 51.0369 60.8714 50.4489 60.8714 49.7784C60.8714 49.108 60.9936 48.517 61.2379 48.0057C61.4851 47.4915 61.8288 47.0909 62.2692 46.804C62.7124 46.5142 63.2294 46.3693 63.8203 46.3693C64.1612 46.3693 64.4979 46.4261 64.8303 46.5398C65.1626 46.6534 65.4652 46.8381 65.7379 47.0938C66.0107 47.3466 66.228 47.6818 66.3899 48.0994C66.5518 48.517 66.6328 49.0312 66.6328 49.642V50.0682H61.5874V49.1989H65.6101C65.6101 48.8295 65.5362 48.5 65.3885 48.2102C65.2436 47.9205 65.0362 47.6918 64.7663 47.5241C64.4993 47.3565 64.1839 47.2727 63.8203 47.2727C63.4197 47.2727 63.0732 47.3722 62.7805 47.571C62.4908 47.767 62.2678 48.0227 62.1115 48.3381C61.9553 48.6534 61.8771 48.9915 61.8771 49.3523V49.9318C61.8771 50.4261 61.9624 50.8452 62.1328 51.1889C62.3061 51.5298 62.5462 51.7898 62.853 51.9688C63.1598 52.1449 63.5163 52.233 63.9226 52.233C64.1868 52.233 64.4254 52.196 64.6385 52.1222C64.8544 52.0455 65.0405 51.9318 65.1967 51.7812C65.353 51.6278 65.4737 51.4375 65.5589 51.2102L66.5305 51.483C66.4283 51.8125 66.2564 52.1023 66.0149 52.3523C65.7734 52.5994 65.4751 52.7926 65.12 52.9318C64.7649 53.0682 64.3658 53.1364 63.9226 53.1364ZM69.1683 49.0625V53H68.1626V46.4545H69.1342V47.4773H69.2195C69.3729 47.1449 69.6058 46.8778 69.9183 46.6761C70.2308 46.4716 70.6342 46.3693 71.1286 46.3693C71.5717 46.3693 71.9595 46.4602 72.2919 46.642C72.6243 46.821 72.8828 47.0938 73.0675 47.4602C73.2521 47.8239 73.3445 48.2841 73.3445 48.8409V53H72.3388V48.9091C72.3388 48.3949 72.2053 47.9943 71.9382 47.7074C71.6712 47.4176 71.3047 47.2727 70.8388 47.2727C70.5178 47.2727 70.2308 47.3423 69.978 47.4815C69.728 47.6207 69.5305 47.8239 69.3857 48.0909C69.2408 48.358 69.1683 48.6818 69.1683 49.0625ZM78.0288 46.4545V47.3068H74.6367V46.4545H78.0288ZM75.6254 44.8864H76.631V51.125C76.631 51.4091 76.6722 51.6222 76.7546 51.7642C76.8398 51.9034 76.9478 51.9972 77.0785 52.0455C77.212 52.0909 77.3526 52.1136 77.5004 52.1136C77.6112 52.1136 77.7021 52.108 77.7731 52.0966C77.8441 52.0824 77.9009 52.071 77.9435 52.0625L78.1481 52.9659C78.0799 52.9915 77.9847 53.017 77.8626 53.0426C77.7404 53.071 77.5856 53.0852 77.3981 53.0852C77.114 53.0852 76.8356 53.0241 76.5629 52.902C76.293 52.7798 76.0685 52.5938 75.8896 52.3438C75.7134 52.0938 75.6254 51.7784 75.6254 51.3977V44.8864ZM84.0607 47.9205L83.1573 48.1761C83.1005 48.0256 83.0167 47.8793 82.9059 47.7372C82.7979 47.5923 82.6502 47.473 82.4627 47.3793C82.2752 47.2855 82.0352 47.2386 81.7425 47.2386C81.342 47.2386 81.0082 47.331 80.7411 47.5156C80.4769 47.6974 80.3448 47.929 80.3448 48.2102C80.3448 48.4602 80.4357 48.6577 80.6175 48.8026C80.7994 48.9474 81.0835 49.0682 81.4698 49.1648L82.4414 49.4034C83.0266 49.5455 83.4627 49.7628 83.7496 50.0554C84.0366 50.3452 84.18 50.7187 84.18 51.1761C84.18 51.5511 84.0721 51.8864 83.8562 52.1818C83.6431 52.4773 83.3448 52.7102 82.9613 52.8807C82.5778 53.0511 82.1317 53.1364 81.6232 53.1364C80.9556 53.1364 80.4031 52.9915 79.9656 52.7017C79.5281 52.4119 79.2511 51.9886 79.1346 51.4318L80.0891 51.1932C80.18 51.5455 80.3519 51.8097 80.6048 51.9858C80.8604 52.1619 81.1942 52.25 81.6062 52.25C82.0749 52.25 82.4471 52.1506 82.7227 51.9517C83.0011 51.75 83.1403 51.5085 83.1403 51.2273C83.1403 51 83.0607 50.8097 82.9016 50.6562C82.7425 50.5 82.4982 50.3835 82.1687 50.3068L81.0778 50.0511C80.4783 49.9091 80.038 49.6889 79.7567 49.3906C79.4783 49.0895 79.3391 48.7131 79.3391 48.2614C79.3391 47.892 79.4428 47.5653 79.6502 47.2812C79.8604 46.9972 80.146 46.7741 80.5067 46.6122C80.8704 46.4503 81.2823 46.3693 81.7425 46.3693C82.3903 46.3693 82.8988 46.5114 83.2681 46.7955C83.6403 47.0795 83.9045 47.4545 84.0607 47.9205ZM91.9837 46.4545V47.3068H88.4553V46.4545H91.9837ZM89.5121 53V45.5511C89.5121 45.1761 89.6001 44.8636 89.7763 44.6136C89.9524 44.3636 90.1811 44.1761 90.4624 44.0511C90.7436 43.9261 91.0405 43.8636 91.353 43.8636C91.6001 43.8636 91.8018 43.8835 91.9581 43.9233C92.1143 43.9631 92.2308 44 92.3075 44.0341L92.0178 44.9034C91.9666 44.8864 91.8956 44.8651 91.8047 44.8395C91.7166 44.8139 91.6001 44.8011 91.4553 44.8011C91.1229 44.8011 90.8828 44.8849 90.7351 45.0526C90.5902 45.2202 90.5178 45.4659 90.5178 45.7898V53H89.5121ZM95.7827 53.1364C95.1918 53.1364 94.6733 52.9957 94.2273 52.7145C93.7841 52.4332 93.4375 52.0398 93.1875 51.5341C92.9403 51.0284 92.8168 50.4375 92.8168 49.7614C92.8168 49.0795 92.9403 48.4844 93.1875 47.9759C93.4375 47.4673 93.7841 47.0724 94.2273 46.7912C94.6733 46.5099 95.1918 46.3693 95.7827 46.3693C96.3736 46.3693 96.8906 46.5099 97.3338 46.7912C97.7798 47.0724 98.1264 47.4673 98.3736 47.9759C98.6236 48.4844 98.7486 49.0795 98.7486 49.7614C98.7486 50.4375 98.6236 51.0284 98.3736 51.5341C98.1264 52.0398 97.7798 52.4332 97.3338 52.7145C96.8906 52.9957 96.3736 53.1364 95.7827 53.1364ZM95.7827 52.233C96.2315 52.233 96.6009 52.1179 96.8906 51.8878C97.1804 51.6577 97.3949 51.3551 97.5341 50.9801C97.6733 50.6051 97.7429 50.1989 97.7429 49.7614C97.7429 49.3239 97.6733 48.9162 97.5341 48.5384C97.3949 48.1605 97.1804 47.8551 96.8906 47.6222C96.6009 47.3892 96.2315 47.2727 95.7827 47.2727C95.3338 47.2727 94.9645 47.3892 94.6747 47.6222C94.3849 47.8551 94.1705 48.1605 94.0312 48.5384C93.892 48.9162 93.8224 49.3239 93.8224 49.7614C93.8224 50.1989 93.892 50.6051 94.0312 50.9801C94.1705 51.3551 94.3849 51.6577 94.6747 51.8878C94.9645 52.1179 95.3338 52.233 95.7827 52.233ZM100.284 53V46.4545H101.255V47.4432H101.324C101.443 47.1193 101.659 46.8565 101.971 46.6548C102.284 46.4531 102.636 46.3523 103.028 46.3523C103.102 46.3523 103.194 46.3537 103.305 46.3565C103.416 46.3594 103.5 46.3636 103.556 46.3693V47.392C103.522 47.3835 103.444 47.3707 103.322 47.3537C103.203 47.3338 103.076 47.3239 102.943 47.3239C102.625 47.3239 102.341 47.3906 102.091 47.5241C101.843 47.6548 101.647 47.8366 101.502 48.0696C101.36 48.2997 101.289 48.5625 101.289 48.858V53H100.284ZM115.283 47H114.226C114.163 46.696 114.054 46.429 113.898 46.1989C113.744 45.9688 113.557 45.7756 113.335 45.6193C113.116 45.4602 112.874 45.3409 112.607 45.2614C112.339 45.1818 112.061 45.142 111.771 45.142C111.243 45.142 110.764 45.2756 110.335 45.5426C109.909 45.8097 109.57 46.2031 109.317 46.723C109.067 47.2429 108.942 47.8807 108.942 48.6364C108.942 49.392 109.067 50.0298 109.317 50.5497C109.57 51.0696 109.909 51.4631 110.335 51.7301C110.764 51.9972 111.243 52.1307 111.771 52.1307C112.061 52.1307 112.339 52.0909 112.607 52.0114C112.874 51.9318 113.116 51.8139 113.335 51.6577C113.557 51.4986 113.744 51.304 113.898 51.0739C114.054 50.8409 114.163 50.5739 114.226 50.2727H115.283C115.203 50.7187 115.058 51.1179 114.848 51.4702C114.638 51.8224 114.376 52.1222 114.064 52.3693C113.751 52.6136 113.401 52.7997 113.011 52.9276C112.625 53.0554 112.212 53.1193 111.771 53.1193C111.027 53.1193 110.365 52.9375 109.786 52.5739C109.206 52.2102 108.75 51.6932 108.418 51.0227C108.085 50.3523 107.919 49.5568 107.919 48.6364C107.919 47.7159 108.085 46.9205 108.418 46.25C108.75 45.5795 109.206 45.0625 109.786 44.6989C110.365 44.3352 111.027 44.1534 111.771 44.1534C112.212 44.1534 112.625 44.2173 113.011 44.3452C113.401 44.473 113.751 44.6605 114.064 44.9077C114.376 45.152 114.638 45.4503 114.848 45.8026C115.058 46.152 115.203 46.5511 115.283 47ZM121.763 46.4545C121.712 46.0227 121.505 45.6875 121.141 45.4489C120.777 45.2102 120.331 45.0909 119.803 45.0909C119.417 45.0909 119.078 45.1534 118.789 45.2784C118.502 45.4034 118.277 45.5753 118.115 45.794C117.956 46.0128 117.877 46.2614 117.877 46.5398C117.877 46.7727 117.932 46.973 118.043 47.1406C118.157 47.3054 118.301 47.4432 118.478 47.554C118.654 47.6619 118.838 47.7514 119.032 47.8224C119.225 47.8906 119.402 47.946 119.564 47.9886L120.451 48.2273C120.678 48.2869 120.931 48.3693 121.209 48.4744C121.49 48.5795 121.759 48.723 122.015 48.9048C122.273 49.0838 122.486 49.3139 122.654 49.5952C122.821 49.8764 122.905 50.2216 122.905 50.6307C122.905 51.1023 122.782 51.5284 122.534 51.9091C122.29 52.2898 121.932 52.5923 121.461 52.8168C120.992 53.0412 120.422 53.1534 119.752 53.1534C119.127 53.1534 118.586 53.0526 118.128 52.8509C117.674 52.6491 117.316 52.3679 117.054 52.0071C116.796 51.6463 116.65 51.2273 116.615 50.75H117.706C117.735 51.0795 117.846 51.3523 118.039 51.5682C118.235 51.7812 118.482 51.9403 118.78 52.0455C119.081 52.1477 119.405 52.1989 119.752 52.1989C120.155 52.1989 120.517 52.1335 120.838 52.0028C121.159 51.8693 121.414 51.6847 121.601 51.4489C121.789 51.2102 121.882 50.9318 121.882 50.6136C121.882 50.3239 121.801 50.0881 121.64 49.9062C121.478 49.7244 121.265 49.5767 121 49.4631C120.736 49.3494 120.451 49.25 120.144 49.1648L119.07 48.858C118.388 48.6619 117.848 48.3821 117.451 48.0185C117.053 47.6548 116.854 47.179 116.854 46.5909C116.854 46.1023 116.986 45.6761 117.25 45.3125C117.517 44.946 117.875 44.6619 118.324 44.4602C118.776 44.2557 119.28 44.1534 119.837 44.1534C120.4 44.1534 120.9 44.2543 121.337 44.456C121.775 44.6548 122.121 44.9276 122.377 45.2741C122.635 45.6207 122.772 46.0142 122.786 46.4545H121.763ZM131.665 47H130.609C130.546 46.696 130.437 46.429 130.281 46.1989C130.127 45.9688 129.94 45.7756 129.718 45.6193C129.499 45.4602 129.256 45.3409 128.989 45.2614C128.722 45.1818 128.444 45.142 128.154 45.142C127.626 45.142 127.147 45.2756 126.718 45.5426C126.292 45.8097 125.952 46.2031 125.7 46.723C125.45 47.2429 125.325 47.8807 125.325 48.6364C125.325 49.392 125.45 50.0298 125.7 50.5497C125.952 51.0696 126.292 51.4631 126.718 51.7301C127.147 51.9972 127.626 52.1307 128.154 52.1307C128.444 52.1307 128.722 52.0909 128.989 52.0114C129.256 51.9318 129.499 51.8139 129.718 51.6577C129.94 51.4986 130.127 51.304 130.281 51.0739C130.437 50.8409 130.546 50.5739 130.609 50.2727H131.665C131.586 50.7187 131.441 51.1179 131.231 51.4702C131.021 51.8224 130.759 52.1222 130.447 52.3693C130.134 52.6136 129.783 52.7997 129.394 52.9276C129.008 53.0554 128.594 53.1193 128.154 53.1193C127.41 53.1193 126.748 52.9375 126.168 52.5739C125.589 52.2102 125.133 51.6932 124.8 51.0227C124.468 50.3523 124.302 49.5568 124.302 48.6364C124.302 47.7159 124.468 46.9205 124.8 46.25C125.133 45.5795 125.589 45.0625 126.168 44.6989C126.748 44.3352 127.41 44.1534 128.154 44.1534C128.594 44.1534 129.008 44.2173 129.394 44.3452C129.783 44.473 130.134 44.6605 130.447 44.9077C130.759 45.152 131.021 45.4503 131.231 45.8026C131.441 46.152 131.586 46.5511 131.665 47ZM134.43 44.2727V53H133.373V44.2727H134.43ZM142.719 53.1193C142.157 53.1193 141.656 53.0227 141.215 52.8295C140.778 52.6364 140.43 52.3679 140.171 52.0241C139.915 51.6776 139.776 51.2756 139.754 50.8182H140.827C140.85 51.0994 140.947 51.3423 141.117 51.5469C141.288 51.7486 141.511 51.9048 141.786 52.0156C142.062 52.1264 142.367 52.1818 142.702 52.1818C143.077 52.1818 143.41 52.1165 143.7 51.9858C143.989 51.8551 144.217 51.6733 144.381 51.4403C144.546 51.2074 144.629 50.9375 144.629 50.6307C144.629 50.3097 144.549 50.027 144.39 49.7827C144.231 49.5355 143.998 49.3423 143.691 49.2031C143.384 49.0639 143.009 48.9943 142.566 48.9943H141.867V48.0568H142.566C142.913 48.0568 143.217 47.9943 143.478 47.8693C143.742 47.7443 143.948 47.5682 144.096 47.3409C144.246 47.1136 144.322 46.8466 144.322 46.5398C144.322 46.2443 144.256 45.9872 144.126 45.7685C143.995 45.5497 143.81 45.3793 143.572 45.2571C143.336 45.1349 143.058 45.0739 142.737 45.0739C142.435 45.0739 142.151 45.1293 141.884 45.2401C141.62 45.348 141.404 45.5057 141.237 45.7131C141.069 45.9176 140.978 46.1648 140.964 46.4545H139.941C139.958 45.9972 140.096 45.5966 140.354 45.2528C140.613 44.9062 140.951 44.6364 141.369 44.4432C141.789 44.25 142.251 44.1534 142.754 44.1534C143.293 44.1534 143.756 44.2628 144.143 44.4815C144.529 44.6974 144.826 44.983 145.033 45.3381C145.241 45.6932 145.344 46.0767 145.344 46.4886C145.344 46.9801 145.215 47.3991 144.957 47.7457C144.701 48.0923 144.353 48.3324 143.913 48.4659V48.5341C144.464 48.625 144.894 48.8594 145.204 49.2372C145.513 49.6122 145.668 50.0767 145.668 50.6307C145.668 51.1051 145.539 51.5312 145.281 51.9091C145.025 52.2841 144.675 52.5795 144.232 52.7955C143.789 53.0114 143.285 53.1193 142.719 53.1193ZM150.309 53.1193C149.951 53.1136 149.593 53.0455 149.235 52.9148C148.877 52.7841 148.55 52.5639 148.255 52.2543C147.96 51.9418 147.722 51.5199 147.543 50.9886C147.364 50.4545 147.275 49.7841 147.275 48.9773C147.275 48.2045 147.347 47.5199 147.492 46.9233C147.637 46.3239 147.847 45.8196 148.123 45.4105C148.398 44.9986 148.731 44.6861 149.12 44.473C149.512 44.2599 149.954 44.1534 150.445 44.1534C150.934 44.1534 151.369 44.2514 151.749 44.4474C152.133 44.6406 152.445 44.9105 152.687 45.2571C152.928 45.6037 153.085 46.0028 153.156 46.4545H152.116C152.019 46.0625 151.832 45.7372 151.553 45.4787C151.275 45.2202 150.906 45.0909 150.445 45.0909C149.769 45.0909 149.237 45.3849 148.847 45.973C148.461 46.5611 148.266 47.3864 148.263 48.4489H148.332C148.491 48.2074 148.68 48.0014 148.898 47.831C149.12 47.6577 149.364 47.5241 149.631 47.4304C149.898 47.3366 150.181 47.2898 150.479 47.2898C150.979 47.2898 151.437 47.4148 151.852 47.6648C152.266 47.9119 152.599 48.2543 152.849 48.6918C153.099 49.1264 153.224 49.625 153.224 50.1875C153.224 50.7273 153.103 51.2216 152.862 51.6705C152.62 52.1165 152.281 52.4716 151.843 52.7358C151.408 52.9972 150.897 53.125 150.309 53.1193ZM150.309 52.1818C150.667 52.1818 150.988 52.0923 151.272 51.9134C151.559 51.7344 151.785 51.4943 151.95 51.1932C152.117 50.892 152.201 50.5568 152.201 50.1875C152.201 49.8267 152.12 49.4986 151.958 49.2031C151.799 48.9048 151.579 48.6676 151.298 48.4915C151.019 48.3153 150.701 48.2273 150.343 48.2273C150.073 48.2273 149.822 48.2812 149.589 48.3892C149.356 48.4943 149.151 48.6392 148.975 48.8239C148.802 49.0085 148.665 49.2202 148.566 49.4588C148.467 49.6946 148.417 49.9432 148.417 50.2045C148.417 50.5511 148.498 50.875 148.66 51.1761C148.825 51.4773 149.049 51.7202 149.333 51.9048C149.62 52.0895 149.945 52.1818 150.309 52.1818ZM154.9 53V52.233L157.78 49.0795C158.118 48.7102 158.397 48.3892 158.615 48.1165C158.834 47.8409 158.996 47.5824 159.101 47.3409C159.209 47.0966 159.263 46.8409 159.263 46.5739C159.263 46.267 159.189 46.0014 159.042 45.777C158.897 45.5526 158.698 45.3793 158.445 45.2571C158.192 45.1349 157.908 45.0739 157.593 45.0739C157.257 45.0739 156.965 45.1435 156.715 45.2827C156.468 45.419 156.276 45.6108 156.14 45.858C156.006 46.1051 155.939 46.3949 155.939 46.7273H154.934C154.934 46.2159 155.051 45.767 155.287 45.3807C155.523 44.9943 155.844 44.6932 156.25 44.4773C156.659 44.2614 157.118 44.1534 157.627 44.1534C158.138 44.1534 158.591 44.2614 158.986 44.4773C159.381 44.6932 159.691 44.9844 159.915 45.3509C160.14 45.7173 160.252 46.125 160.252 46.5739C160.252 46.8949 160.194 47.2088 160.077 47.5156C159.963 47.8196 159.765 48.1591 159.48 48.5341C159.199 48.9062 158.809 49.3608 158.309 49.8977L156.348 51.9943V52.0625H160.405V53H154.9ZM167.483 53.1534C167.069 53.1534 166.692 53.0753 166.354 52.919C166.016 52.7599 165.748 52.5312 165.549 52.233C165.35 51.9318 165.25 51.5682 165.25 51.142C165.25 50.767 165.324 50.4631 165.472 50.2301C165.62 49.9943 165.817 49.8097 166.064 49.6761C166.311 49.5426 166.584 49.4432 166.882 49.3778C167.184 49.3097 167.486 49.2557 167.79 49.2159C168.188 49.1648 168.51 49.1264 168.757 49.1009C169.007 49.0724 169.189 49.0256 169.303 48.9602C169.419 48.8949 169.478 48.7812 169.478 48.6193V48.5852C169.478 48.1648 169.363 47.8381 169.132 47.6051C168.905 47.3722 168.56 47.2557 168.097 47.2557C167.617 47.2557 167.24 47.3608 166.968 47.571C166.695 47.7812 166.503 48.0057 166.392 48.2443L165.438 47.9034C165.608 47.5057 165.836 47.196 166.12 46.9744C166.407 46.75 166.719 46.5937 167.057 46.5057C167.398 46.4148 167.733 46.3693 168.063 46.3693C168.273 46.3693 168.515 46.3949 168.787 46.446C169.063 46.4943 169.328 46.5952 169.584 46.7486C169.843 46.902 170.057 47.1335 170.228 47.4432C170.398 47.7528 170.483 48.1676 170.483 48.6875V53H169.478V52.1136H169.426C169.358 52.2557 169.245 52.4077 169.086 52.5696C168.926 52.7315 168.715 52.8693 168.451 52.983C168.186 53.0966 167.864 53.1534 167.483 53.1534ZM167.637 52.25C168.034 52.25 168.37 52.1719 168.642 52.0156C168.918 51.8594 169.125 51.6577 169.265 51.4105C169.407 51.1634 169.478 50.9034 169.478 50.6307V49.7102C169.435 49.7614 169.341 49.8082 169.196 49.8509C169.054 49.8906 168.89 49.9261 168.702 49.9574C168.517 49.9858 168.337 50.0114 168.161 50.0341C167.988 50.054 167.847 50.071 167.739 50.0852C167.478 50.1193 167.233 50.1747 167.006 50.2514C166.782 50.3253 166.6 50.4375 166.461 50.5881C166.324 50.7358 166.256 50.9375 166.256 51.1932C166.256 51.5426 166.385 51.8068 166.644 51.9858C166.905 52.1619 167.236 52.25 167.637 52.25ZM175.165 46.4545V47.3068H171.773V46.4545H175.165ZM172.762 44.8864H173.768V51.125C173.768 51.4091 173.809 51.6222 173.891 51.7642C173.977 51.9034 174.085 51.9972 174.215 52.0455C174.349 52.0909 174.489 52.1136 174.637 52.1136C174.748 52.1136 174.839 52.108 174.91 52.0966C174.981 52.0824 175.038 52.071 175.08 52.0625L175.285 52.9659C175.217 52.9915 175.121 53.017 174.999 53.0426C174.877 53.071 174.722 53.0852 174.535 53.0852C174.251 53.0852 173.972 53.0241 173.7 52.902C173.43 52.7798 173.205 52.5938 173.026 52.3438C172.85 52.0938 172.762 51.7784 172.762 51.3977V44.8864ZM182.883 53H180.19V44.2727H183.002C183.849 44.2727 184.573 44.4474 185.175 44.7969C185.778 45.1435 186.239 45.642 186.56 46.2926C186.881 46.9403 187.042 47.7159 187.042 48.6193C187.042 49.5284 186.88 50.3111 186.556 50.9673C186.232 51.6207 185.761 52.1236 185.141 52.4759C184.522 52.8253 183.769 53 182.883 53ZM181.246 52.0625H182.815C183.536 52.0625 184.134 51.9233 184.609 51.6449C185.083 51.3665 185.437 50.9702 185.67 50.456C185.903 49.9418 186.019 49.3295 186.019 48.6193C186.019 47.9148 185.904 47.3082 185.674 46.7997C185.444 46.2884 185.1 45.8963 184.643 45.6236C184.185 45.348 183.616 45.2102 182.934 45.2102H181.246V52.0625ZM188.678 53V46.4545H189.65V47.4432H189.718C189.837 47.1193 190.053 46.8565 190.366 46.6548C190.678 46.4531 191.031 46.3523 191.423 46.3523C191.496 46.3523 191.589 46.3537 191.7 46.3565C191.81 46.3594 191.894 46.3636 191.951 46.3693V47.392C191.917 47.3835 191.839 47.3707 191.717 47.3537C191.597 47.3338 191.471 47.3239 191.337 47.3239C191.019 47.3239 190.735 47.3906 190.485 47.5241C190.238 47.6548 190.042 47.8366 189.897 48.0696C189.755 48.2997 189.684 48.5625 189.684 48.858V53H188.678ZM197.268 50.3239V46.4545H198.274V53H197.268V51.892H197.2C197.047 52.2244 196.808 52.5071 196.484 52.7401C196.16 52.9702 195.751 53.0852 195.257 53.0852C194.848 53.0852 194.484 52.9957 194.166 52.8168C193.848 52.6349 193.598 52.3622 193.416 51.9986C193.234 51.6321 193.143 51.1705 193.143 50.6136V46.4545H194.149V50.5455C194.149 51.0227 194.282 51.4034 194.549 51.6875C194.819 51.9716 195.163 52.1136 195.581 52.1136C195.831 52.1136 196.085 52.0497 196.343 51.9219C196.605 51.794 196.824 51.598 197 51.3338C197.179 51.0696 197.268 50.733 197.268 50.3239ZM200.116 53V46.4545H201.087V47.4432H201.156C201.275 47.1193 201.491 46.8565 201.803 46.6548C202.116 46.4531 202.468 46.3523 202.86 46.3523C202.934 46.3523 203.026 46.3537 203.137 46.3565C203.248 46.3594 203.332 46.3636 203.388 46.3693V47.392C203.354 47.3835 203.276 47.3707 203.154 47.3537C203.035 47.3338 202.908 47.3239 202.775 47.3239C202.457 47.3239 202.173 47.3906 201.923 47.5241C201.675 47.6548 201.479 47.8366 201.335 48.0696C201.192 48.2997 201.121 48.5625 201.121 48.858V53H200.116ZM205.428 55.4545C205.257 55.4545 205.105 55.4403 204.972 55.4119C204.838 55.3864 204.746 55.3608 204.695 55.3352L204.95 54.4489C205.195 54.5114 205.411 54.5341 205.598 54.517C205.786 54.5 205.952 54.4162 206.097 54.2656C206.244 54.1179 206.379 53.8778 206.501 53.5455L206.689 53.0341L204.268 46.4545H205.359L207.166 51.6705H207.234L209.041 46.4545H210.132L207.354 53.9545C207.229 54.2926 207.074 54.5724 206.889 54.794C206.705 55.0185 206.49 55.1847 206.246 55.2926C206.004 55.4006 205.732 55.4545 205.428 55.4545ZM220.698 44.2727H221.755V50.0511C221.755 50.6477 221.614 51.1804 221.333 51.6491C221.055 52.1151 220.661 52.483 220.153 52.7528C219.644 53.0199 219.048 53.1534 218.363 53.1534C217.678 53.1534 217.082 53.0199 216.573 52.7528C216.065 52.483 215.67 52.1151 215.388 51.6491C215.11 51.1804 214.971 50.6477 214.971 50.0511V44.2727H216.028V49.9659C216.028 50.392 216.121 50.7713 216.309 51.1037C216.496 51.4332 216.763 51.6932 217.11 51.8835C217.46 52.071 217.877 52.1648 218.363 52.1648C218.849 52.1648 219.266 52.071 219.616 51.8835C219.965 51.6932 220.232 51.4332 220.417 51.1037C220.604 50.7713 220.698 50.392 220.698 49.9659V44.2727ZM224.735 49.0625V53H223.729V46.4545H224.701V47.4773H224.786C224.939 47.1449 225.172 46.8778 225.485 46.6761C225.797 46.4716 226.201 46.3693 226.695 46.3693C227.138 46.3693 227.526 46.4602 227.858 46.642C228.191 46.821 228.449 47.0938 228.634 47.4602C228.819 47.8239 228.911 48.2841 228.911 48.8409V53H227.905V48.9091C227.905 48.3949 227.772 47.9943 227.505 47.7074C227.238 47.4176 226.871 47.2727 226.405 47.2727C226.084 47.2727 225.797 47.3423 225.544 47.4815C225.294 47.6207 225.097 47.8239 224.952 48.0909C224.807 48.358 224.735 48.6818 224.735 49.0625ZM230.749 53V46.4545H231.754V53H230.749ZM231.26 45.3636C231.064 45.3636 230.895 45.2969 230.753 45.1634C230.614 45.0298 230.544 44.8693 230.544 44.6818C230.544 44.4943 230.614 44.3338 230.753 44.2003C230.895 44.0668 231.064 44 231.26 44C231.456 44 231.624 44.0668 231.763 44.2003C231.905 44.3338 231.976 44.4943 231.976 44.6818C231.976 44.8693 231.905 45.0298 231.763 45.1634C231.624 45.2969 231.456 45.3636 231.26 45.3636ZM238.949 46.4545L236.528 53H235.505L233.085 46.4545H234.176L235.983 51.6705H236.051L237.858 46.4545H238.949ZM242.786 53.1364C242.155 53.1364 241.611 52.9972 241.154 52.7188C240.699 52.4375 240.348 52.0455 240.101 51.5426C239.857 51.0369 239.735 50.4489 239.735 49.7784C239.735 49.108 239.857 48.517 240.101 48.0057C240.348 47.4915 240.692 47.0909 241.132 46.804C241.576 46.5142 242.093 46.3693 242.684 46.3693C243.025 46.3693 243.361 46.4261 243.694 46.5398C244.026 46.6534 244.328 46.8381 244.601 47.0938C244.874 47.3466 245.091 47.6818 245.253 48.0994C245.415 48.517 245.496 49.0312 245.496 49.642V50.0682H240.451V49.1989H244.473C244.473 48.8295 244.4 48.5 244.252 48.2102C244.107 47.9205 243.9 47.6918 243.63 47.5241C243.363 47.3565 243.047 47.2727 242.684 47.2727C242.283 47.2727 241.936 47.3722 241.644 47.571C241.354 47.767 241.131 48.0227 240.975 48.3381C240.819 48.6534 240.74 48.9915 240.74 49.3523V49.9318C240.74 50.4261 240.826 50.8452 240.996 51.1889C241.169 51.5298 241.409 51.7898 241.716 51.9688C242.023 52.1449 242.38 52.233 242.786 52.233C243.05 52.233 243.289 52.196 243.502 52.1222C243.718 52.0455 243.904 51.9318 244.06 51.7812C244.216 51.6278 244.337 51.4375 244.422 51.2102L245.394 51.483C245.292 51.8125 245.12 52.1023 244.878 52.3523C244.637 52.5994 244.338 52.7926 243.983 52.9318C243.628 53.0682 243.229 53.1364 242.786 53.1364ZM247.026 53V46.4545H247.998V47.4432H248.066C248.185 47.1193 248.401 46.8565 248.713 46.6548C249.026 46.4531 249.378 46.3523 249.77 46.3523C249.844 46.3523 249.936 46.3537 250.047 46.3565C250.158 46.3594 250.242 46.3636 250.299 46.3693V47.392C250.265 47.3835 250.186 47.3707 250.064 47.3537C249.945 47.3338 249.819 47.3239 249.685 47.3239C249.367 47.3239 249.083 47.3906 248.833 47.5241C248.586 47.6548 248.39 47.8366 248.245 48.0696C248.103 48.2997 248.032 48.5625 248.032 48.858V53H247.026ZM256.127 47.9205L255.224 48.1761C255.167 48.0256 255.083 47.8793 254.972 47.7372C254.864 47.5923 254.717 47.473 254.529 47.3793C254.342 47.2855 254.102 47.2386 253.809 47.2386C253.408 47.2386 253.075 47.331 252.808 47.5156C252.543 47.6974 252.411 47.929 252.411 48.2102C252.411 48.4602 252.502 48.6577 252.684 48.8026C252.866 48.9474 253.15 49.0682 253.536 49.1648L254.508 49.4034C255.093 49.5455 255.529 49.7628 255.816 50.0554C256.103 50.3452 256.246 50.7187 256.246 51.1761C256.246 51.5511 256.138 51.8864 255.923 52.1818C255.71 52.4773 255.411 52.7102 255.028 52.8807C254.644 53.0511 254.198 53.1364 253.69 53.1364C253.022 53.1364 252.469 52.9915 252.032 52.7017C251.594 52.4119 251.317 51.9886 251.201 51.4318L252.156 51.1932C252.246 51.5455 252.418 51.8097 252.671 51.9858C252.927 52.1619 253.261 52.25 253.673 52.25C254.141 52.25 254.513 52.1506 254.789 51.9517C255.067 51.75 255.207 51.5085 255.207 51.2273C255.207 51 255.127 50.8097 254.968 50.6562C254.809 50.5 254.565 50.3835 254.235 50.3068L253.144 50.0511C252.545 49.9091 252.104 49.6889 251.823 49.3906C251.545 49.0895 251.406 48.7131 251.406 48.2614C251.406 47.892 251.509 47.5653 251.717 47.2812C251.927 46.9972 252.212 46.7741 252.573 46.6122C252.937 46.4503 253.349 46.3693 253.809 46.3693C254.457 46.3693 254.965 46.5114 255.335 46.7955C255.707 47.0795 255.971 47.4545 256.127 47.9205ZM257.76 53V46.4545H258.766V53H257.76ZM258.272 45.3636C258.076 45.3636 257.907 45.2969 257.765 45.1634C257.625 45.0298 257.556 44.8693 257.556 44.6818C257.556 44.4943 257.625 44.3338 257.765 44.2003C257.907 44.0668 258.076 44 258.272 44C258.468 44 258.635 44.0668 258.775 44.2003C258.917 44.3338 258.988 44.4943 258.988 44.6818C258.988 44.8693 258.917 45.0298 258.775 45.1634C258.635 45.2969 258.468 45.3636 258.272 45.3636ZM263.455 46.4545V47.3068H260.062V46.4545H263.455ZM261.051 44.8864H262.057V51.125C262.057 51.4091 262.098 51.6222 262.18 51.7642C262.266 51.9034 262.374 51.9972 262.504 52.0455C262.638 52.0909 262.778 52.1136 262.926 52.1136C263.037 52.1136 263.128 52.108 263.199 52.0966C263.27 52.0824 263.327 52.071 263.369 52.0625L263.574 52.9659C263.506 52.9915 263.411 53.017 263.288 53.0426C263.166 53.071 263.011 53.0852 262.824 53.0852C262.54 53.0852 262.261 53.0241 261.989 52.902C261.719 52.7798 261.494 52.5938 261.315 52.3438C261.139 52.0938 261.051 51.7784 261.051 51.3977V44.8864ZM265.615 55.4545C265.445 55.4545 265.293 55.4403 265.159 55.4119C265.026 55.3864 264.933 55.3608 264.882 55.3352L265.138 54.4489C265.382 54.5114 265.598 54.5341 265.786 54.517C265.973 54.5 266.139 54.4162 266.284 54.2656C266.432 54.1179 266.567 53.8778 266.689 53.5455L266.876 53.0341L264.456 46.4545H265.547L267.354 51.6705H267.422L269.229 46.4545H270.32L267.541 53.9545C267.416 54.2926 267.261 54.5724 267.077 54.794C266.892 55.0185 266.678 55.1847 266.433 55.2926C266.192 55.4006 265.919 55.4545 265.615 55.4545Z" fill="#768395"/>
<circle cx="18" cy="79" r="6" fill="#3572A5"/>
<circle cx="18" cy="79" r="5.5" stroke="white" stroke-opacity="0.14902"/>
<path d="M33.0568 83.5V74.7727H36.0057C36.6903 74.7727 37.25 74.8963 37.6847 75.1435C38.1222 75.3878 38.446 75.7188 38.6562 76.1364C38.8665 76.554 38.9716 77.0199 38.9716 77.5341C38.9716 78.0483 38.8665 78.5156 38.6562 78.9361C38.4489 79.3565 38.1278 79.6918 37.6932 79.9418C37.2585 80.1889 36.7017 80.3125 36.0227 80.3125H33.9091V79.375H35.9886C36.4574 79.375 36.8338 79.294 37.1179 79.1321C37.402 78.9702 37.608 78.7514 37.7358 78.4759C37.8665 78.1974 37.9318 77.8835 37.9318 77.5341C37.9318 77.1847 37.8665 76.8722 37.7358 76.5966C37.608 76.321 37.4006 76.1051 37.1136 75.9489C36.8267 75.7898 36.446 75.7102 35.9716 75.7102H34.1136V83.5H33.0568ZM41.1854 85.9545C41.0149 85.9545 40.8629 85.9403 40.7294 85.9119C40.5959 85.8864 40.5036 85.8608 40.4524 85.8352L40.7081 84.9489C40.9524 85.0114 41.1683 85.0341 41.3558 85.017C41.5433 85 41.7095 84.9162 41.8544 84.7656C42.0021 84.6179 42.1371 84.3778 42.2592 84.0455L42.4467 83.5341L40.0263 76.9545H41.1172L42.924 82.1705H42.9922L44.799 76.9545H45.8899L43.1115 84.4545C42.9865 84.7926 42.8317 85.0724 42.647 85.294C42.4624 85.5185 42.2479 85.6847 42.0036 85.7926C41.7621 85.9006 41.4893 85.9545 41.1854 85.9545ZM50.0639 76.9545V77.8068H46.6719V76.9545H50.0639ZM47.6605 75.3864H48.6662V81.625C48.6662 81.9091 48.7074 82.1222 48.7898 82.2642C48.875 82.4034 48.983 82.4972 49.1136 82.5455C49.2472 82.5909 49.3878 82.6136 49.5355 82.6136C49.6463 82.6136 49.7372 82.608 49.8082 82.5966C49.8793 82.5824 49.9361 82.571 49.9787 82.5625L50.1832 83.4659C50.1151 83.4915 50.0199 83.517 49.8977 83.5426C49.7756 83.571 49.6207 83.5852 49.4332 83.5852C49.1491 83.5852 48.8707 83.5241 48.598 83.402C48.3281 83.2798 48.1037 83.0938 47.9247 82.8438C47.7486 82.5938 47.6605 82.2784 47.6605 81.8977V75.3864ZM52.723 79.5625V83.5H51.7173V74.7727H52.723V77.9773H52.8082C52.9616 77.6392 53.1918 77.3707 53.4986 77.1719C53.8082 76.9702 54.2202 76.8693 54.7344 76.8693C55.1804 76.8693 55.571 76.9588 55.9062 77.1378C56.2415 77.3139 56.5014 77.5852 56.6861 77.9517C56.8736 78.3153 56.9673 78.7784 56.9673 79.3409V83.5H55.9616V79.4091C55.9616 78.8892 55.8267 78.4872 55.5568 78.2031C55.2898 77.9162 54.919 77.7727 54.4446 77.7727C54.1151 77.7727 53.8196 77.8423 53.5582 77.9815C53.2997 78.1207 53.0952 78.3239 52.9446 78.5909C52.7969 78.858 52.723 79.1818 52.723 79.5625ZM61.4663 83.6364C60.8754 83.6364 60.3569 83.4957 59.9109 83.2145C59.4677 82.9332 59.1211 82.5398 58.8711 82.0341C58.6239 81.5284 58.5004 80.9375 58.5004 80.2614C58.5004 79.5795 58.6239 78.9844 58.8711 78.4759C59.1211 77.9673 59.4677 77.5724 59.9109 77.2912C60.3569 77.0099 60.8754 76.8693 61.4663 76.8693C62.0572 76.8693 62.5742 77.0099 63.0174 77.2912C63.4634 77.5724 63.81 77.9673 64.0572 78.4759C64.3072 78.9844 64.4322 79.5795 64.4322 80.2614C64.4322 80.9375 64.3072 81.5284 64.0572 82.0341C63.81 82.5398 63.4634 82.9332 63.0174 83.2145C62.5742 83.4957 62.0572 83.6364 61.4663 83.6364ZM61.4663 82.733C61.9151 82.733 62.2844 82.6179 62.5742 82.3878C62.864 82.1577 63.0785 81.8551 63.2177 81.4801C63.3569 81.1051 63.4265 80.6989 63.4265 80.2614C63.4265 79.8239 63.3569 79.4162 63.2177 79.0384C63.0785 78.6605 62.864 78.3551 62.5742 78.1222C62.2844 77.8892 61.9151 77.7727 61.4663 77.7727C61.0174 77.7727 60.6481 77.8892 60.3583 78.1222C60.0685 78.3551 59.854 78.6605 59.7148 79.0384C59.5756 79.4162 59.506 79.8239 59.506 80.2614C59.506 80.6989 59.5756 81.1051 59.7148 81.4801C59.854 81.8551 60.0685 82.1577 60.3583 82.3878C60.6481 82.6179 61.0174 82.733 61.4663 82.733ZM66.973 79.5625V83.5H65.9673V76.9545H66.9389V77.9773H67.0241C67.1776 77.6449 67.4105 77.3778 67.723 77.1761C68.0355 76.9716 68.4389 76.8693 68.9332 76.8693C69.3764 76.8693 69.7642 76.9602 70.0966 77.142C70.429 77.321 70.6875 77.5938 70.8722 77.9602C71.0568 78.3239 71.1491 78.7841 71.1491 79.3409V83.5H70.1435V79.4091C70.1435 78.8949 70.0099 78.4943 69.7429 78.2074C69.4759 77.9176 69.1094 77.7727 68.6435 77.7727C68.3224 77.7727 68.0355 77.8423 67.7827 77.9815C67.5327 78.1207 67.3352 78.3239 67.1903 78.5909C67.0455 78.858 66.973 79.1818 66.973 79.5625Z" fill="#768395"/>
<rect x="85" y="68" width="66" height="22" rx="11" fill="#388BFD" fill-opacity="0.101961"/>
<path d="M96.0568 83.5V74.7727H99.0057C99.6903 74.7727 100.25 74.8963 100.685 75.1435C101.122 75.3878 101.446 75.7188 101.656 76.1364C101.866 76.554 101.972 77.0199 101.972 77.5341C101.972 78.0483 101.866 78.5156 101.656 78.9361C101.449 79.3565 101.128 79.6918 100.693 79.9418C100.259 80.1889 99.7017 80.3125 99.0227 80.3125H96.9091V79.375H98.9886C99.4574 79.375 99.8338 79.294 100.118 79.1321C100.402 78.9702 100.608 78.7514 100.736 78.4759C100.866 78.1974 100.932 77.8835 100.932 77.5341C100.932 77.1847 100.866 76.8722 100.736 76.5966C100.608 76.321 100.401 76.1051 100.114 75.9489C99.8267 75.7898 99.446 75.7102 98.9716 75.7102H97.1136V83.5H96.0568ZM104.185 85.9545C104.015 85.9545 103.863 85.9403 103.729 85.9119C103.596 85.8864 103.504 85.8608 103.452 85.8352L103.708 84.9489C103.952 85.0114 104.168 85.0341 104.356 85.017C104.543 85 104.71 84.9162 104.854 84.7656C105.002 84.6179 105.137 84.3778 105.259 84.0455L105.447 83.5341L103.026 76.9545H104.117L105.924 82.1705H105.992L107.799 76.9545H108.89L106.112 84.4545C105.987 84.7926 105.832 85.0724 105.647 85.294C105.462 85.5185 105.248 85.6847 105.004 85.7926C104.762 85.9006 104.489 85.9545 104.185 85.9545ZM109.466 75.7102V74.7727H116.012V75.7102H113.267V83.5H112.211V75.7102H109.466ZM119.216 83.6364C118.625 83.6364 118.107 83.4957 117.661 83.2145C117.218 82.9332 116.871 82.5398 116.621 82.0341C116.374 81.5284 116.25 80.9375 116.25 80.2614C116.25 79.5795 116.374 78.9844 116.621 78.4759C116.871 77.9673 117.218 77.5724 117.661 77.2912C118.107 77.0099 118.625 76.8693 119.216 76.8693C119.807 76.8693 120.324 77.0099 120.767 77.2912C121.213 77.5724 121.56 77.9673 121.807 78.4759C122.057 78.9844 122.182 79.5795 122.182 80.2614C122.182 80.9375 122.057 81.5284 121.807 82.0341C121.56 82.5398 121.213 82.9332 120.767 83.2145C120.324 83.4957 119.807 83.6364 119.216 83.6364ZM119.216 82.733C119.665 82.733 120.034 82.6179 120.324 82.3878C120.614 82.1577 120.828 81.8551 120.968 81.4801C121.107 81.1051 121.176 80.6989 121.176 80.2614C121.176 79.8239 121.107 79.4162 120.968 79.0384C120.828 78.6605 120.614 78.3551 120.324 78.1222C120.034 77.8892 119.665 77.7727 119.216 77.7727C118.767 77.7727 118.398 77.8892 118.108 78.1222C117.819 78.3551 117.604 78.6605 117.465 79.0384C117.326 79.4162 117.256 79.8239 117.256 80.2614C117.256 80.6989 117.326 81.1051 117.465 81.4801C117.604 81.8551 117.819 82.1577 118.108 82.3878C118.398 82.6179 118.767 82.733 119.216 82.733ZM123.717 83.5V76.9545H124.689V77.9432H124.757C124.876 77.6193 125.092 77.3565 125.405 77.1548C125.717 76.9531 126.07 76.8523 126.462 76.8523C126.536 76.8523 126.628 76.8537 126.739 76.8565C126.849 76.8594 126.933 76.8636 126.99 76.8693V77.892C126.956 77.8835 126.878 77.8707 126.756 77.8537C126.636 77.8338 126.51 77.8239 126.376 77.8239C126.058 77.8239 125.774 77.8906 125.524 78.0241C125.277 78.1548 125.081 78.3366 124.936 78.5696C124.794 78.7997 124.723 79.0625 124.723 79.358V83.5H123.717ZM130.642 83.6364C130.028 83.6364 129.5 83.4915 129.057 83.2017C128.614 82.9119 128.273 82.5128 128.034 82.0043C127.795 81.4957 127.676 80.9148 127.676 80.2614C127.676 79.5966 127.798 79.0099 128.043 78.5014C128.29 77.9901 128.634 77.5909 129.074 77.304C129.517 77.0142 130.034 76.8693 130.625 76.8693C131.085 76.8693 131.5 76.9545 131.869 77.125C132.239 77.2955 132.541 77.5341 132.777 77.8409C133.013 78.1477 133.159 78.5057 133.216 78.9148H132.21C132.134 78.6165 131.963 78.3523 131.699 78.1222C131.438 77.8892 131.085 77.7727 130.642 77.7727C130.25 77.7727 129.906 77.875 129.611 78.0795C129.318 78.2812 129.089 78.5668 128.925 78.9361C128.763 79.3026 128.682 79.733 128.682 80.2273C128.682 80.733 128.761 81.1733 128.92 81.5483C129.082 81.9233 129.31 82.2145 129.602 82.4219C129.898 82.6293 130.244 82.733 130.642 82.733C130.903 82.733 131.141 82.6875 131.354 82.5966C131.567 82.5057 131.747 82.375 131.895 82.2045C132.043 82.0341 132.148 81.8295 132.21 81.5909H133.216C133.159 81.9773 133.018 82.3253 132.794 82.6349C132.572 82.9418 132.278 83.1861 131.912 83.3679C131.548 83.5469 131.125 83.6364 130.642 83.6364ZM135.692 79.5625V83.5H134.686V74.7727H135.692V77.9773H135.777C135.93 77.6392 136.161 77.3707 136.467 77.1719C136.777 76.9702 137.189 76.8693 137.703 76.8693C138.149 76.8693 138.54 76.9588 138.875 77.1378C139.21 77.3139 139.47 77.5852 139.655 77.9517C139.842 78.3153 139.936 78.7784 139.936 79.3409V83.5H138.93V79.4091C138.93 78.8892 138.795 78.4872 138.526 78.2031C138.259 77.9162 137.888 77.7727 137.413 77.7727C137.084 77.7727 136.788 77.8423 136.527 77.9815C136.268 78.1207 136.064 78.3239 135.913 78.5909C135.766 78.858 135.692 79.1818 135.692 79.5625Z" fill="#4493F8"/>
<rect x="163" y="68" width="51" height="22" rx="11" fill="#388BFD" fill-opacity="0.101961"/>
<path d="M176.75 83.5H174.057V74.7727H176.869C177.716 74.7727 178.44 74.9474 179.043 75.2969C179.645 75.6435 180.107 76.142 180.428 76.7926C180.749 77.4403 180.909 78.2159 180.909 79.1193C180.909 80.0284 180.747 80.8111 180.423 81.4673C180.099 82.1207 179.628 82.6236 179.009 82.9759C178.389 83.3253 177.636 83.5 176.75 83.5ZM175.114 82.5625H176.682C177.403 82.5625 178.001 82.4233 178.476 82.1449C178.95 81.8665 179.304 81.4702 179.537 80.956C179.77 80.4418 179.886 79.8295 179.886 79.1193C179.886 78.4148 179.771 77.8082 179.541 77.2997C179.311 76.7884 178.967 76.3963 178.51 76.1236C178.053 75.848 177.483 75.7102 176.801 75.7102H175.114V82.5625ZM188.409 74.7727H189.466V80.5511C189.466 81.1477 189.325 81.6804 189.044 82.1491C188.766 82.6151 188.372 82.983 187.864 83.2528C187.355 83.5199 186.759 83.6534 186.074 83.6534C185.389 83.6534 184.793 83.5199 184.284 83.2528C183.776 82.983 183.381 82.6151 183.099 82.1491C182.821 81.6804 182.682 81.1477 182.682 80.5511V74.7727H183.739V80.4659C183.739 80.892 183.832 81.2713 184.02 81.6037C184.207 81.9332 184.474 82.1932 184.821 82.3835C185.17 82.571 185.588 82.6648 186.074 82.6648C186.56 82.6648 186.977 82.571 187.327 82.3835C187.676 82.1932 187.943 81.9332 188.128 81.6037C188.315 81.2713 188.409 80.892 188.409 80.4659V74.7727ZM192.446 74.7727V83.5H191.44V74.7727H192.446ZM194.288 83.5V76.9545H195.293V83.5H194.288ZM194.799 75.8636C194.603 75.8636 194.434 75.7969 194.292 75.6634C194.153 75.5298 194.083 75.3693 194.083 75.1818C194.083 74.9943 194.153 74.8338 194.292 74.7003C194.434 74.5668 194.603 74.5 194.799 74.5C194.995 74.5 195.163 74.5668 195.302 74.7003C195.444 74.8338 195.515 74.9943 195.515 75.1818C195.515 75.3693 195.444 75.5298 195.302 75.6634C195.163 75.7969 194.995 75.8636 194.799 75.8636ZM197.272 83.5V74.7727H198.277V77.9943H198.363C198.436 77.8807 198.539 77.7358 198.669 77.5597C198.803 77.3807 198.993 77.2216 199.24 77.0824C199.49 76.9403 199.828 76.8693 200.255 76.8693C200.806 76.8693 201.292 77.0071 201.712 77.2827C202.132 77.5582 202.461 77.9489 202.696 78.4545C202.932 78.9602 203.05 79.5568 203.05 80.2443C203.05 80.9375 202.932 81.5384 202.696 82.0469C202.461 82.5526 202.134 82.9446 201.716 83.223C201.299 83.4986 200.817 83.6364 200.272 83.6364C199.851 83.6364 199.515 83.5668 199.262 83.4276C199.009 83.2855 198.814 83.125 198.678 82.946C198.542 82.7642 198.436 82.6136 198.363 82.4943H198.243V83.5H197.272ZM198.26 80.2273C198.26 80.7216 198.333 81.1577 198.478 81.5355C198.623 81.9105 198.834 82.2045 199.113 82.4176C199.391 82.6278 199.732 82.733 200.135 82.733C200.556 82.733 200.907 82.6222 201.188 82.4006C201.472 82.1761 201.685 81.875 201.827 81.4972C201.972 81.1165 202.044 80.6932 202.044 80.2273C202.044 79.767 201.973 79.3523 201.831 78.983C201.692 78.6108 201.48 78.3168 201.196 78.1009C200.915 77.8821 200.561 77.7727 200.135 77.7727C199.726 77.7727 199.382 77.8764 199.104 78.0838C198.826 78.2884 198.615 78.5753 198.473 78.9446C198.331 79.3111 198.26 79.7386 198.26 80.2273Z" fill="#4493F8"/>
</svg>
