<svg width="418" height="114" viewBox="0 0 418 114" fill="none" xmlns="http://www.w3.org/2000/svg">
<rect x="0.199951" width="417.2" height="102" rx="6" fill="#768395" fill-opacity="0.1"/>
<path d="M21.9194 19.2536H20.06C20.007 18.9486 19.9092 18.6785 19.7667 18.4432C19.6242 18.2045 19.4469 18.0024 19.2348 17.8366C19.0226 17.6709 18.7807 17.5466 18.5089 17.4638C18.2404 17.3776 17.9504 17.3345 17.6389 17.3345C17.0854 17.3345 16.5948 17.4737 16.1673 17.7521C15.7397 18.0272 15.405 18.4316 15.163 18.9652C14.9211 19.4955 14.8001 20.1435 14.8001 20.9091C14.8001 21.688 14.9211 22.3442 15.163 22.8778C15.4083 23.4081 15.743 23.8092 16.1673 24.081C16.5948 24.3494 17.0837 24.4837 17.6339 24.4837C17.9388 24.4837 18.2239 24.4439 18.489 24.3643C18.7575 24.2815 18.9978 24.1605 19.2099 24.0014C19.4253 23.8423 19.606 23.6468 19.7518 23.4148C19.9009 23.1828 20.0037 22.9176 20.06 22.6193L21.9194 22.6293C21.8498 23.1132 21.699 23.5672 21.467 23.9915C21.2383 24.4157 20.9384 24.7902 20.5671 25.1151C20.1959 25.4366 19.7617 25.6884 19.2646 25.8707C18.7674 26.0497 18.2156 26.1392 17.609 26.1392C16.7142 26.1392 15.9154 25.9321 15.2127 25.5178C14.5101 25.1035 13.9566 24.5052 13.5522 23.723C13.1479 22.9408 12.9457 22.0028 12.9457 20.9091C12.9457 19.812 13.1495 18.8741 13.5572 18.0952C13.9649 17.313 14.52 16.7147 15.2227 16.3004C15.9253 15.8861 16.7208 15.679 17.609 15.679C18.1758 15.679 18.7028 15.7585 19.19 15.9176C19.6772 16.0767 20.1114 16.3104 20.4926 16.6186C20.8737 16.9235 21.1869 17.2981 21.4322 17.7422C21.6808 18.183 21.8432 18.6868 21.9194 19.2536ZM29.1419 18.6172C29.0955 18.183 28.8999 17.8449 28.5552 17.603C28.2139 17.361 27.7697 17.2401 27.2229 17.2401C26.8384 17.2401 26.5086 17.2981 26.2335 17.4141C25.9584 17.5301 25.748 17.6875 25.6021 17.8864C25.4563 18.0852 25.3817 18.3123 25.3784 18.5675C25.3784 18.7796 25.4265 18.9635 25.5226 19.1193C25.622 19.2751 25.7562 19.4077 25.9253 19.517C26.0943 19.6231 26.2816 19.7126 26.4871 19.7855C26.6926 19.8584 26.8997 19.9197 27.1085 19.9695L28.0631 20.2081C28.4475 20.2976 28.8171 20.4186 29.1717 20.571C29.5297 20.7235 29.8495 20.9157 30.1312 21.1477C30.4163 21.3797 30.6417 21.6598 30.8074 21.9879C30.9731 22.3161 31.056 22.7005 31.056 23.1413C31.056 23.7379 30.9035 24.2633 30.5986 24.7173C30.2936 25.1681 29.8528 25.5211 29.2761 25.7763C28.7027 26.0282 28.0084 26.1541 27.193 26.1541C26.4009 26.1541 25.7131 26.0315 25.1298 25.7862C24.5498 25.541 24.0957 25.183 23.7676 24.7124C23.4428 24.2417 23.2671 23.6683 23.2406 22.9922H25.0552C25.0818 23.3468 25.1911 23.6418 25.3834 23.8771C25.5756 24.1125 25.8258 24.2881 26.1341 24.4041C26.4456 24.5201 26.7936 24.5781 27.1781 24.5781C27.5792 24.5781 27.9305 24.5185 28.2321 24.3991C28.537 24.2765 28.7756 24.1075 28.948 23.892C29.1203 23.6733 29.2082 23.4181 29.2115 23.1264C29.2082 22.8613 29.1303 22.6425 28.9778 22.4702C28.8254 22.2945 28.6116 22.1487 28.3365 22.0327C28.0647 21.9134 27.7465 21.8073 27.3819 21.7145L26.2236 21.4162C25.385 21.2008 24.7221 20.8743 24.2349 20.4368C23.751 19.996 23.5091 19.411 23.5091 18.6818C23.5091 18.0819 23.6715 17.5566 23.9963 17.1058C24.3244 16.6551 24.7702 16.3054 25.3337 16.0568C25.8971 15.8049 26.5351 15.679 27.2477 15.679C27.9703 15.679 28.6033 15.8049 29.1469 16.0568C29.6937 16.3054 30.123 16.6518 30.4345 17.0959C30.7461 17.5367 30.9068 18.0438 30.9167 18.6172H29.1419ZM41.4155 19.2536H39.5561C39.5031 18.9486 39.4053 18.6785 39.2628 18.4432C39.1203 18.2045 38.943 18.0024 38.7308 17.8366C38.5187 17.6709 38.2768 17.5466 38.005 17.4638C37.7365 17.3776 37.4465 17.3345 37.135 17.3345C36.5815 17.3345 36.0909 17.4737 35.6634 17.7521C35.2358 18.0272 34.9011 18.4316 34.6591 18.9652C34.4172 19.4955 34.2962 20.1435 34.2962 20.9091C34.2962 21.688 34.4172 22.3442 34.6591 22.8778C34.9044 23.4081 35.2391 23.8092 35.6634 24.081C36.0909 24.3494 36.5798 24.4837 37.13 24.4837C37.4349 24.4837 37.72 24.4439 37.9851 24.3643C38.2536 24.2815 38.4939 24.1605 38.706 24.0014C38.9214 23.8423 39.1021 23.6468 39.2479 23.4148C39.397 23.1828 39.4998 22.9176 39.5561 22.6193L41.4155 22.6293C41.3459 23.1132 41.1951 23.5672 40.9631 23.9915C40.7344 24.4157 40.4344 24.7902 40.0632 25.1151C39.692 25.4366 39.2578 25.6884 38.7607 25.8707C38.2635 26.0497 37.7117 26.1392 37.1051 26.1392C36.2102 26.1392 35.4115 25.9321 34.7088 25.5178C34.0062 25.1035 33.4527 24.5052 33.0483 23.723C32.644 22.9408 32.4418 22.0028 32.4418 20.9091C32.4418 19.812 32.6456 18.8741 33.0533 18.0952C33.461 17.313 34.0161 16.7147 34.7188 16.3004C35.4214 15.8861 36.2169 15.679 37.1051 15.679C37.6719 15.679 38.1989 15.7585 38.6861 15.9176C39.1733 16.0767 39.6075 16.3104 39.9887 16.6186C40.3698 16.9235 40.683 17.2981 40.9283 17.7422C41.1769 18.183 41.3393 18.6868 41.4155 19.2536ZM44.9491 15.8182V26H43.1046V15.8182H44.9491ZM50.1357 24.1108V22.6442L54.456 15.8182H55.679V17.9062H54.9333L52.0249 22.5149V22.5945H58.0554V24.1108H50.1357ZM54.9929 26V23.6634L55.0128 23.0071V15.8182H56.7529V26H54.9929ZM63.3725 26.1392C62.8853 26.1359 62.4097 26.0514 61.9457 25.8857C61.4817 25.7166 61.0641 25.4432 60.6928 25.0653C60.3216 24.6842 60.0267 24.1787 59.8079 23.549C59.5892 22.916 59.4814 22.1321 59.4848 21.1974C59.4848 20.3258 59.5776 19.5485 59.7632 18.8658C59.9488 18.183 60.2156 17.6063 60.5636 17.1357C60.9116 16.6617 61.3309 16.3004 61.8214 16.0518C62.3152 15.8033 62.8671 15.679 63.4769 15.679C64.1166 15.679 64.6834 15.8049 65.1772 16.0568C65.6744 16.3087 66.0754 16.6534 66.3803 17.0909C66.6853 17.5251 66.8742 18.0156 66.9471 18.5625H65.1325C65.0397 18.1714 64.8491 17.8598 64.5607 17.6278C64.2757 17.3925 63.9144 17.2749 63.4769 17.2749C62.771 17.2749 62.2274 17.5814 61.8463 18.1946C61.4684 18.8078 61.2778 19.6496 61.2745 20.7202H61.3441C61.5065 20.4285 61.717 20.1783 61.9755 19.9695C62.234 19.7607 62.5257 19.5999 62.8505 19.4872C63.1786 19.3712 63.525 19.3132 63.8896 19.3132C64.4862 19.3132 65.0214 19.4557 65.4954 19.7408C65.9727 20.0258 66.3505 20.4186 66.6289 20.919C66.9073 21.4162 67.0449 21.9863 67.0416 22.6293C67.0449 23.2988 66.8924 23.9003 66.5842 24.4339C66.2759 24.9643 65.8467 25.3819 65.2965 25.6868C64.7464 25.9917 64.105 26.1425 63.3725 26.1392ZM63.3626 24.6477C63.7239 24.6477 64.047 24.5599 64.3321 24.3842C64.6171 24.2086 64.8425 23.9716 65.0082 23.6733C65.1739 23.375 65.2551 23.0402 65.2518 22.669C65.2551 22.3045 65.1756 21.9747 65.0132 21.6797C64.8541 21.3847 64.6337 21.151 64.3519 20.9787C64.0702 20.8063 63.7487 20.7202 63.3875 20.7202C63.119 20.7202 62.8687 20.7715 62.6367 20.8743C62.4047 20.977 62.2026 21.1196 62.0302 21.3018C61.8579 21.4808 61.722 21.6896 61.6225 21.9283C61.5264 22.1636 61.4767 22.4155 61.4734 22.6839C61.4767 23.0386 61.5596 23.3651 61.722 23.6634C61.8844 23.9616 62.1081 24.2003 62.3931 24.3793C62.6782 24.5582 63.0013 24.6477 63.3626 24.6477ZM72.8633 15.8182V26H71.0188V17.6129H70.9592L68.5778 19.1342V17.4439L71.1083 15.8182H72.8633ZM76.5771 24.777C76.2755 24.777 76.0169 24.6709 75.8015 24.4588C75.5861 24.2434 75.48 23.9848 75.4833 23.6832C75.48 23.3849 75.5861 23.1297 75.8015 22.9176C76.0169 22.7055 76.2755 22.5994 76.5771 22.5994C76.8687 22.5994 77.1223 22.7055 77.3377 22.9176C77.5565 23.1297 77.6675 23.3849 77.6708 23.6832C77.6675 23.8854 77.6145 24.0694 77.5117 24.2351C77.4123 24.4008 77.2797 24.5334 77.114 24.6328C76.9516 24.7289 76.7726 24.777 76.5771 24.777ZM76.5771 19.7308C76.2755 19.7308 76.0169 19.6248 75.8015 19.4126C75.5861 19.1972 75.48 18.9387 75.4833 18.6371C75.48 18.3388 75.5861 18.0836 75.8015 17.8714C76.0169 17.656 76.2755 17.5483 76.5771 17.5483C76.8687 17.5483 77.1223 17.656 77.3377 17.8714C77.5565 18.0836 77.6675 18.3388 77.6708 18.6371C77.6675 18.8359 77.6145 19.0182 77.5117 19.1839C77.4123 19.3497 77.2797 19.4822 77.114 19.5817C76.9516 19.6811 76.7726 19.7308 76.5771 19.7308ZM84.3887 26H82.4199L86.0045 15.8182H88.2815L91.8709 26H89.9022L87.1827 17.9062H87.1032L84.3887 26ZM84.4533 22.0078H89.8226V23.4893H84.4533V22.0078ZM93.1325 26V18.3636H94.8775V19.6364H94.9571C95.0963 19.1955 95.3349 18.8558 95.673 18.6172C96.0143 18.3752 96.4038 18.2543 96.8413 18.2543C96.9407 18.2543 97.0518 18.2592 97.1744 18.2692C97.3003 18.2758 97.4047 18.2874 97.4876 18.304V19.9595C97.4114 19.933 97.2904 19.9098 97.1247 19.8899C96.9623 19.8667 96.8048 19.8551 96.6524 19.8551C96.3242 19.8551 96.0293 19.9264 95.7674 20.0689C95.5089 20.2081 95.3051 20.402 95.1559 20.6506C95.0068 20.8991 94.9322 21.1858 94.9322 21.5107V26H93.1325ZM102.907 18.3636V19.7557H98.5167V18.3636H102.907ZM99.6005 16.5341H101.4V23.7031C101.4 23.9451 101.437 24.1307 101.51 24.2599C101.586 24.3859 101.685 24.4721 101.808 24.5185C101.931 24.5649 102.066 24.5881 102.216 24.5881C102.328 24.5881 102.431 24.5798 102.524 24.5632C102.62 24.5466 102.693 24.5317 102.743 24.5185L103.046 25.9254C102.95 25.9586 102.812 25.995 102.633 26.0348C102.458 26.0746 102.242 26.0978 101.987 26.1044C101.536 26.1177 101.13 26.0497 100.769 25.9006C100.408 25.7481 100.121 25.5128 99.9088 25.1946C99.7 24.8764 99.5972 24.4787 99.6005 24.0014V16.5341ZM104.412 26V18.3636H106.211V26H104.412ZM105.317 17.2798C105.032 17.2798 104.786 17.1854 104.581 16.9964C104.375 16.8042 104.273 16.5739 104.273 16.3054C104.273 16.0336 104.375 15.8033 104.581 15.6143C104.786 15.4221 105.032 15.326 105.317 15.326C105.605 15.326 105.85 15.4221 106.052 15.6143C106.258 15.8033 106.361 16.0336 106.361 16.3054C106.361 16.5739 106.258 16.8042 106.052 16.9964C105.85 17.1854 105.605 17.2798 105.317 17.2798ZM111.93 18.3636V19.7557H107.416V18.3636H111.93ZM108.544 26V17.6428C108.544 17.129 108.65 16.7015 108.863 16.3601C109.078 16.0187 109.366 15.7635 109.728 15.5945C110.089 15.4254 110.49 15.3409 110.931 15.3409C111.242 15.3409 111.519 15.3658 111.761 15.4155C112.003 15.4652 112.182 15.5099 112.298 15.5497L111.94 16.9418C111.864 16.9186 111.768 16.8954 111.652 16.8722C111.536 16.8456 111.406 16.8324 111.264 16.8324C110.929 16.8324 110.692 16.9136 110.553 17.076C110.417 17.2351 110.349 17.4638 110.349 17.7621V26H108.544ZM113.34 26V18.3636H115.139V26H113.34ZM114.244 17.2798C113.959 17.2798 113.714 17.1854 113.509 16.9964C113.303 16.8042 113.2 16.5739 113.2 16.3054C113.2 16.0336 113.303 15.8033 113.509 15.6143C113.714 15.4221 113.959 15.326 114.244 15.326C114.533 15.326 114.778 15.4221 114.98 15.6143C115.186 15.8033 115.288 16.0336 115.288 16.3054C115.288 16.5739 115.186 16.8042 114.98 16.9964C114.778 17.1854 114.533 17.2798 114.244 17.2798ZM120.321 26.1491C119.559 26.1491 118.904 25.9818 118.357 25.647C117.814 25.3123 117.394 24.8499 117.099 24.2599C116.808 23.6667 116.662 22.9839 116.662 22.2116C116.662 21.4361 116.811 20.7517 117.109 20.1584C117.408 19.5618 117.828 19.0978 118.372 18.7663C118.919 18.4316 119.565 18.2642 120.311 18.2642C120.931 18.2642 121.479 18.3786 121.957 18.6072C122.437 18.8326 122.82 19.1525 123.105 19.5668C123.39 19.9777 123.552 20.4583 123.592 21.0085H121.872C121.802 20.6406 121.637 20.334 121.375 20.0888C121.116 19.8402 120.77 19.7159 120.336 19.7159C119.968 19.7159 119.645 19.8153 119.366 20.0142C119.088 20.2098 118.871 20.4915 118.715 20.8594C118.563 21.2273 118.486 21.6681 118.486 22.1818C118.486 22.7022 118.563 23.1496 118.715 23.5241C118.868 23.8954 119.081 24.1821 119.356 24.3842C119.635 24.5831 119.961 24.6825 120.336 24.6825C120.601 24.6825 120.838 24.6328 121.047 24.5334C121.259 24.4306 121.436 24.2831 121.579 24.0909C121.721 23.8987 121.819 23.665 121.872 23.3899H123.592C123.549 23.9302 123.39 24.4091 123.115 24.8267C122.84 25.241 122.465 25.5658 121.991 25.8011C121.517 26.0331 120.961 26.1491 120.321 26.1491ZM125.07 26V18.3636H126.87V26H125.07ZM125.975 17.2798C125.69 17.2798 125.445 17.1854 125.239 16.9964C125.034 16.8042 124.931 16.5739 124.931 16.3054C124.931 16.0336 125.034 15.8033 125.239 15.6143C125.445 15.4221 125.69 15.326 125.975 15.326C126.263 15.326 126.508 15.4221 126.711 15.6143C126.916 15.8033 127.019 16.0336 127.019 16.3054C127.019 16.5739 126.916 16.8042 126.711 16.9964C126.508 17.1854 126.263 17.2798 125.975 17.2798ZM130.918 26.1541C130.434 26.1541 129.998 26.0679 129.61 25.8956C129.226 25.7199 128.921 25.4614 128.696 25.12C128.473 24.7786 128.362 24.3577 128.362 23.8572C128.362 23.4264 128.442 23.0701 128.601 22.7884C128.76 22.5066 128.977 22.2812 129.252 22.1122C129.527 21.9432 129.837 21.8156 130.182 21.7294C130.53 21.6399 130.89 21.5753 131.261 21.5355C131.708 21.4891 132.071 21.4477 132.35 21.4112C132.628 21.3714 132.83 21.3118 132.956 21.2322C133.085 21.1494 133.15 21.0218 133.15 20.8494V20.8196C133.15 20.4451 133.039 20.1551 132.817 19.9496C132.595 19.7441 132.275 19.6413 131.857 19.6413C131.417 19.6413 131.067 19.7375 130.808 19.9297C130.553 20.1219 130.381 20.349 130.291 20.6108L128.611 20.3722C128.744 19.9081 128.962 19.5204 129.267 19.2088C129.572 18.8939 129.945 18.6586 130.386 18.5028C130.827 18.3438 131.314 18.2642 131.848 18.2642C132.215 18.2642 132.582 18.3073 132.946 18.3935C133.311 18.4796 133.644 18.6222 133.946 18.821C134.247 19.0166 134.489 19.2834 134.671 19.6214C134.857 19.9595 134.95 20.3821 134.95 20.8892V26H133.22V24.951H133.16C133.051 25.1631 132.897 25.362 132.698 25.5476C132.502 25.7299 132.255 25.8774 131.957 25.9901C131.662 26.0994 131.316 26.1541 130.918 26.1541ZM131.385 24.8317C131.746 24.8317 132.06 24.7604 132.325 24.6179C132.59 24.4721 132.794 24.2798 132.936 24.0412C133.082 23.8026 133.155 23.5424 133.155 23.2607V22.3608C133.099 22.4072 133.003 22.4503 132.867 22.4901C132.734 22.5298 132.585 22.5646 132.419 22.5945C132.254 22.6243 132.089 22.6508 131.927 22.674C131.765 22.6972 131.624 22.7171 131.504 22.7337C131.236 22.7701 130.996 22.8298 130.784 22.9126C130.571 22.9955 130.404 23.1115 130.281 23.2607C130.159 23.4065 130.098 23.5954 130.098 23.8274C130.098 24.1589 130.218 24.4091 130.46 24.5781C130.702 24.7472 131.011 24.8317 131.385 24.8317ZM138.559 15.8182V26H136.759V15.8182H138.559ZM145.806 15.8182V26H143.962V15.8182H145.806ZM149.524 21.5256V26H147.724V18.3636H149.444V19.6612H149.534C149.71 19.2337 149.99 18.8939 150.374 18.642C150.762 18.3902 151.241 18.2642 151.811 18.2642C152.338 18.2642 152.797 18.3769 153.188 18.6023C153.582 18.8277 153.887 19.1541 154.103 19.5817C154.322 20.0092 154.429 20.5279 154.426 21.1378V26H152.626V21.4162C152.626 20.9058 152.494 20.5064 152.229 20.218C151.967 19.9297 151.604 19.7855 151.14 19.7855C150.825 19.7855 150.545 19.8551 150.3 19.9943C150.058 20.1302 149.867 20.3274 149.728 20.5859C149.592 20.8445 149.524 21.1577 149.524 21.5256ZM160.069 18.3636V19.7557H155.679V18.3636H160.069ZM156.763 16.5341H158.562V23.7031C158.562 23.9451 158.599 24.1307 158.672 24.2599C158.748 24.3859 158.847 24.4721 158.97 24.5185C159.093 24.5649 159.229 24.5881 159.378 24.5881C159.49 24.5881 159.593 24.5798 159.686 24.5632C159.782 24.5466 159.855 24.5317 159.905 24.5185L160.208 25.9254C160.112 25.9586 159.974 25.995 159.795 26.0348C159.62 26.0746 159.404 26.0978 159.149 26.1044C158.698 26.1177 158.292 26.0497 157.931 25.9006C157.57 25.7481 157.283 25.5128 157.071 25.1946C156.862 24.8764 156.759 24.4787 156.763 24.0014V16.5341ZM164.873 26.1491C164.107 26.1491 163.446 25.9901 162.889 25.6719C162.335 25.3504 161.909 24.8963 161.611 24.3097C161.313 23.7197 161.164 23.0253 161.164 22.2266C161.164 21.4411 161.313 20.7517 161.611 20.1584C161.913 19.5618 162.334 19.0978 162.874 18.7663C163.414 18.4316 164.049 18.2642 164.778 18.2642C165.249 18.2642 165.693 18.3404 166.11 18.4929C166.531 18.642 166.903 18.8741 167.224 19.1889C167.549 19.5038 167.804 19.9048 167.99 20.392C168.175 20.8759 168.268 21.4527 168.268 22.1222V22.674H162.009V21.4609H166.543C166.54 21.1162 166.465 20.8097 166.319 20.5412C166.173 20.2694 165.97 20.0556 165.708 19.8999C165.449 19.7441 165.148 19.6662 164.803 19.6662C164.435 19.6662 164.112 19.7557 163.833 19.9347C163.555 20.1103 163.338 20.3423 163.182 20.6307C163.03 20.9157 162.952 21.2289 162.949 21.5703V22.6293C162.949 23.0734 163.03 23.4545 163.192 23.7727C163.355 24.0876 163.582 24.3295 163.873 24.4986C164.165 24.6643 164.506 24.7472 164.897 24.7472C165.159 24.7472 165.396 24.7107 165.608 24.6378C165.82 24.5616 166.004 24.4505 166.16 24.3047C166.316 24.1589 166.434 23.9782 166.513 23.7628L168.194 23.9517C168.087 24.3958 167.885 24.7836 167.587 25.1151C167.292 25.4432 166.914 25.6984 166.454 25.8807C165.993 26.0597 165.466 26.1491 164.873 26.1491ZM171.59 15.8182V26H169.791V15.8182H171.59ZM175.241 15.8182V26H173.441V15.8182H175.241ZM177.091 26V18.3636H178.891V26H177.091ZM177.996 17.2798C177.711 17.2798 177.466 17.1854 177.26 16.9964C177.055 16.8042 176.952 16.5739 176.952 16.3054C176.952 16.0336 177.055 15.8033 177.26 15.6143C177.466 15.4221 177.711 15.326 177.996 15.326C178.285 15.326 178.53 15.4221 178.732 15.6143C178.938 15.8033 179.04 16.0336 179.04 16.3054C179.04 16.5739 178.938 16.8042 178.732 16.9964C178.53 17.1854 178.285 17.2798 177.996 17.2798ZM184.063 29.0227C183.417 29.0227 182.861 28.9349 182.397 28.7592C181.933 28.5869 181.561 28.3549 181.279 28.0632C180.997 27.7715 180.802 27.4484 180.692 27.0938L182.313 26.701C182.386 26.8501 182.492 26.9976 182.631 27.1435C182.77 27.2926 182.958 27.4152 183.193 27.5114C183.431 27.6108 183.731 27.6605 184.093 27.6605C184.603 27.6605 185.026 27.5362 185.36 27.2876C185.695 27.0424 185.863 26.638 185.863 26.0746V24.6278H185.773C185.68 24.8134 185.544 25.004 185.365 25.1996C185.19 25.3951 184.956 25.5592 184.664 25.6918C184.376 25.8243 184.013 25.8906 183.576 25.8906C182.989 25.8906 182.457 25.7531 181.98 25.478C181.506 25.1996 181.128 24.7853 180.846 24.2351C180.568 23.6816 180.429 22.9889 180.429 22.157C180.429 21.3184 180.568 20.6108 180.846 20.0341C181.128 19.4541 181.507 19.0149 181.985 18.7166C182.462 18.415 182.994 18.2642 183.581 18.2642C184.028 18.2642 184.396 18.3404 184.684 18.4929C184.976 18.642 185.208 18.8227 185.38 19.0348C185.553 19.2436 185.684 19.4408 185.773 19.6264H185.873V18.3636H187.647V26.1243C187.647 26.7772 187.492 27.3175 187.18 27.745C186.869 28.1726 186.443 28.4924 185.902 28.7045C185.362 28.9167 184.749 29.0227 184.063 29.0227ZM184.078 24.4787C184.459 24.4787 184.784 24.3859 185.052 24.2003C185.321 24.0147 185.525 23.7479 185.664 23.3999C185.803 23.0518 185.873 22.6342 185.873 22.147C185.873 21.6664 185.803 21.2455 185.664 20.8842C185.528 20.523 185.326 20.2429 185.057 20.044C184.792 19.8419 184.466 19.7408 184.078 19.7408C183.677 19.7408 183.342 19.8452 183.074 20.054C182.805 20.2628 182.603 20.5495 182.467 20.9141C182.331 21.2753 182.263 21.6863 182.263 22.147C182.263 22.6143 182.331 23.0237 182.467 23.375C182.606 23.723 182.81 23.9948 183.079 24.1903C183.35 24.3826 183.683 24.4787 184.078 24.4787ZM192.873 26.1491C192.107 26.1491 191.446 25.9901 190.889 25.6719C190.335 25.3504 189.909 24.8963 189.611 24.3097C189.313 23.7197 189.164 23.0253 189.164 22.2266C189.164 21.4411 189.313 20.7517 189.611 20.1584C189.913 19.5618 190.334 19.0978 190.874 18.7663C191.414 18.4316 192.049 18.2642 192.778 18.2642C193.249 18.2642 193.693 18.3404 194.11 18.4929C194.531 18.642 194.903 18.8741 195.224 19.1889C195.549 19.5038 195.804 19.9048 195.99 20.392C196.175 20.8759 196.268 21.4527 196.268 22.1222V22.674H190.009V21.4609H194.543C194.54 21.1162 194.465 20.8097 194.319 20.5412C194.173 20.2694 193.97 20.0556 193.708 19.8999C193.449 19.7441 193.148 19.6662 192.803 19.6662C192.435 19.6662 192.112 19.7557 191.833 19.9347C191.555 20.1103 191.338 20.3423 191.182 20.6307C191.03 20.9157 190.952 21.2289 190.949 21.5703V22.6293C190.949 23.0734 191.03 23.4545 191.192 23.7727C191.355 24.0876 191.582 24.3295 191.873 24.4986C192.165 24.6643 192.506 24.7472 192.897 24.7472C193.159 24.7472 193.396 24.7107 193.608 24.6378C193.82 24.5616 194.004 24.4505 194.16 24.3047C194.316 24.1589 194.434 23.9782 194.513 23.7628L196.194 23.9517C196.087 24.3958 195.885 24.7836 195.587 25.1151C195.292 25.4432 194.914 25.6984 194.454 25.8807C193.993 26.0597 193.466 26.1491 192.873 26.1491ZM199.59 21.5256V26H197.791V18.3636H199.511V19.6612H199.6C199.776 19.2337 200.056 18.8939 200.441 18.642C200.828 18.3902 201.307 18.2642 201.877 18.2642C202.404 18.2642 202.863 18.3769 203.254 18.6023C203.649 18.8277 203.954 19.1541 204.169 19.5817C204.388 20.0092 204.496 20.5279 204.492 21.1378V26H202.693V21.4162C202.693 20.9058 202.56 20.5064 202.295 20.218C202.033 19.9297 201.67 19.7855 201.206 19.7855C200.891 19.7855 200.611 19.8551 200.366 19.9943C200.124 20.1302 199.933 20.3274 199.794 20.5859C199.658 20.8445 199.59 21.1577 199.59 21.5256ZM209.653 26.1491C208.891 26.1491 208.236 25.9818 207.689 25.647C207.146 25.3123 206.726 24.8499 206.431 24.2599C206.14 23.6667 205.994 22.9839 205.994 22.2116C205.994 21.4361 206.143 20.7517 206.441 20.1584C206.74 19.5618 207.16 19.0978 207.704 18.7663C208.251 18.4316 208.897 18.2642 209.643 18.2642C210.263 18.2642 210.811 18.3786 211.289 18.6072C211.769 18.8326 212.152 19.1525 212.437 19.5668C212.722 19.9777 212.884 20.4583 212.924 21.0085H211.204C211.134 20.6406 210.969 20.334 210.707 20.0888C210.448 19.8402 210.102 19.7159 209.668 19.7159C209.3 19.7159 208.977 19.8153 208.698 20.0142C208.42 20.2098 208.203 20.4915 208.047 20.8594C207.895 21.2273 207.818 21.6681 207.818 22.1818C207.818 22.7022 207.895 23.1496 208.047 23.5241C208.2 23.8954 208.413 24.1821 208.688 24.3842C208.967 24.5831 209.293 24.6825 209.668 24.6825C209.933 24.6825 210.17 24.6328 210.379 24.5334C210.591 24.4306 210.768 24.2831 210.911 24.0909C211.053 23.8987 211.151 23.665 211.204 23.3899H212.924C212.881 23.9302 212.722 24.4091 212.447 24.8267C212.172 25.241 211.797 25.5658 211.323 25.8011C210.849 26.0331 210.293 26.1491 209.653 26.1491ZM217.783 26.1491C217.017 26.1491 216.356 25.9901 215.799 25.6719C215.246 25.3504 214.82 24.8963 214.521 24.3097C214.223 23.7197 214.074 23.0253 214.074 22.2266C214.074 21.4411 214.223 20.7517 214.521 20.1584C214.823 19.5618 215.244 19.0978 215.784 18.7663C216.324 18.4316 216.959 18.2642 217.688 18.2642C218.159 18.2642 218.603 18.3404 219.021 18.4929C219.442 18.642 219.813 18.8741 220.134 19.1889C220.459 19.5038 220.714 19.9048 220.9 20.392C221.085 20.8759 221.178 21.4527 221.178 22.1222V22.674H214.919V21.4609H219.453C219.45 21.1162 219.375 20.8097 219.229 20.5412C219.084 20.2694 218.88 20.0556 218.618 19.8999C218.359 19.7441 218.058 19.6662 217.713 19.6662C217.345 19.6662 217.022 19.7557 216.744 19.9347C216.465 20.1103 216.248 20.3423 216.092 20.6307C215.94 20.9157 215.862 21.2289 215.859 21.5703V22.6293C215.859 23.0734 215.94 23.4545 216.102 23.7727C216.265 24.0876 216.492 24.3295 216.783 24.4986C217.075 24.6643 217.416 24.7472 217.808 24.7472C218.069 24.7472 218.306 24.7107 218.518 24.6378C218.731 24.5616 218.915 24.4505 219.07 24.3047C219.226 24.1589 219.344 23.9782 219.423 23.7628L221.104 23.9517C220.998 24.3958 220.795 24.7836 220.497 25.1151C220.202 25.4432 219.824 25.6984 219.364 25.8807C218.903 26.0597 218.376 26.1491 217.783 26.1491Z" fill="#4493F8"/>
<path d="M13.6147 53H12.5068L15.7113 44.2727H16.8022L20.0068 53H18.8988L16.2909 45.6534H16.2227L13.6147 53ZM14.0238 49.5909H18.4897V50.5284H14.0238V49.5909ZM25.8661 47.9205L24.9627 48.1761C24.9059 48.0256 24.8221 47.8793 24.7113 47.7372C24.6034 47.5923 24.4556 47.473 24.2681 47.3793C24.0806 47.2855 23.8406 47.2386 23.548 47.2386C23.1474 47.2386 22.8136 47.331 22.5465 47.5156C22.2823 47.6974 22.1502 47.929 22.1502 48.2102C22.1502 48.4602 22.2411 48.6577 22.423 48.8026C22.6048 48.9474 22.8889 49.0682 23.2752 49.1648L24.2468 49.4034C24.8321 49.5455 25.2681 49.7628 25.5551 50.0554C25.842 50.3452 25.9855 50.7187 25.9855 51.1761C25.9855 51.5511 25.8775 51.8864 25.6616 52.1818C25.4485 52.4773 25.1502 52.7102 24.7667 52.8807C24.3832 53.0511 23.9372 53.1364 23.4286 53.1364C22.761 53.1364 22.2085 52.9915 21.771 52.7017C21.3335 52.4119 21.0565 51.9886 20.94 51.4318L21.8946 51.1932C21.9855 51.5455 22.1573 51.8097 22.4102 51.9858C22.6659 52.1619 22.9997 52.25 23.4116 52.25C23.8803 52.25 24.2525 52.1506 24.5281 51.9517C24.8065 51.75 24.9457 51.5085 24.9457 51.2273C24.9457 51 24.8661 50.8097 24.7071 50.6562C24.548 50.5 24.3036 50.3835 23.9741 50.3068L22.8832 50.0511C22.2838 49.9091 21.8434 49.6889 21.5622 49.3906C21.2838 49.0895 21.1446 48.7131 21.1446 48.2614C21.1446 47.892 21.2482 47.5653 21.4556 47.2812C21.6659 46.9972 21.9514 46.7741 22.3122 46.6122C22.6758 46.4503 23.0877 46.3693 23.548 46.3693C24.1957 46.3693 24.7042 46.5114 25.0735 46.7955C25.4457 47.0795 25.7099 47.4545 25.8661 47.9205ZM32.1357 47.9205L31.2323 48.1761C31.1754 48.0256 31.0916 47.8793 30.9808 47.7372C30.8729 47.5923 30.7252 47.473 30.5377 47.3793C30.3502 47.2855 30.1101 47.2386 29.8175 47.2386C29.4169 47.2386 29.0831 47.331 28.8161 47.5156C28.5519 47.6974 28.4198 47.929 28.4198 48.2102C28.4198 48.4602 28.5107 48.6577 28.6925 48.8026C28.8743 48.9474 29.1584 49.0682 29.5448 49.1648L30.5164 49.4034C31.1016 49.5455 31.5377 49.7628 31.8246 50.0554C32.1115 50.3452 32.255 50.7187 32.255 51.1761C32.255 51.5511 32.147 51.8864 31.9311 52.1818C31.7181 52.4773 31.4198 52.7102 31.0362 52.8807C30.6527 53.0511 30.2067 53.1364 29.6982 53.1364C29.0306 53.1364 28.478 52.9915 28.0405 52.7017C27.603 52.4119 27.326 51.9886 27.2095 51.4318L28.1641 51.1932C28.255 51.5455 28.4269 51.8097 28.6797 51.9858C28.9354 52.1619 29.2692 52.25 29.6811 52.25C30.1499 52.25 30.522 52.1506 30.7976 51.9517C31.076 51.75 31.2152 51.5085 31.2152 51.2273C31.2152 51 31.1357 50.8097 30.9766 50.6562C30.8175 50.5 30.5732 50.3835 30.2436 50.3068L29.1527 50.0511C28.5533 49.9091 28.1129 49.6889 27.8317 49.3906C27.5533 49.0895 27.4141 48.7131 27.4141 48.2614C27.4141 47.892 27.5178 47.5653 27.7252 47.2812C27.9354 46.9972 28.2209 46.7741 28.5817 46.6122C28.9453 46.4503 29.3573 46.3693 29.8175 46.3693C30.4652 46.3693 30.9737 46.5114 31.3431 46.7955C31.7152 47.0795 31.9794 47.4545 32.1357 47.9205ZM33.7688 53V46.4545H34.7745V53H33.7688ZM34.2802 45.3636C34.0842 45.3636 33.9152 45.2969 33.7731 45.1634C33.6339 45.0298 33.5643 44.8693 33.5643 44.6818C33.5643 44.4943 33.6339 44.3338 33.7731 44.2003C33.9152 44.0668 34.0842 44 34.2802 44C34.4762 44 34.6438 44.0668 34.783 44.2003C34.9251 44.3338 34.9961 44.4943 34.9961 44.6818C34.9961 44.8693 34.9251 45.0298 34.783 45.1634C34.6438 45.2969 34.4762 45.3636 34.2802 45.3636ZM39.2585 55.5909C38.7727 55.5909 38.3551 55.5284 38.0057 55.4034C37.6563 55.2812 37.3651 55.1193 37.1321 54.9176C36.902 54.7188 36.7188 54.5057 36.5824 54.2784L37.3835 53.7159C37.4745 53.8352 37.5895 53.9716 37.7287 54.125C37.8679 54.2812 38.0583 54.4162 38.2997 54.5298C38.5441 54.6463 38.8637 54.7045 39.2585 54.7045C39.787 54.7045 40.223 54.5767 40.5668 54.321C40.9105 54.0653 41.0824 53.6648 41.0824 53.1193V51.7898H40.9972C40.9233 51.9091 40.8182 52.0568 40.6818 52.233C40.5483 52.4062 40.3551 52.5611 40.1023 52.6974C39.8523 52.831 39.5142 52.8977 39.0881 52.8977C38.5597 52.8977 38.0852 52.7727 37.6648 52.5227C37.2472 52.2727 36.9162 51.9091 36.6719 51.4318C36.4304 50.9545 36.3097 50.375 36.3097 49.6932C36.3097 49.0227 36.4276 48.4389 36.6634 47.9418C36.8992 47.4418 37.2273 47.0554 37.6477 46.7827C38.0682 46.5071 38.554 46.3693 39.1051 46.3693C39.5313 46.3693 39.8693 46.4403 40.1193 46.5824C40.3722 46.7216 40.5654 46.8807 40.6989 47.0597C40.8352 47.2358 40.9404 47.3807 41.0142 47.4943H41.1165V46.4545H42.0881V53.1875C42.0881 53.75 41.9602 54.2074 41.7046 54.5597C41.4517 54.9148 41.1108 55.1747 40.6818 55.3395C40.2557 55.5071 39.7813 55.5909 39.2585 55.5909ZM39.2245 51.9943C39.6279 51.9943 39.9688 51.902 40.2472 51.7173C40.5256 51.5327 40.7372 51.267 40.8821 50.9205C41.027 50.5739 41.0995 50.1591 41.0995 49.6761C41.0995 49.2045 41.0284 48.7884 40.8864 48.4276C40.7443 48.0668 40.5341 47.7841 40.2557 47.5795C39.9773 47.375 39.6335 47.2727 39.2245 47.2727C38.7983 47.2727 38.4432 47.3807 38.1591 47.5966C37.8779 47.8125 37.6662 48.1023 37.5242 48.4659C37.385 48.8295 37.3154 49.233 37.3154 49.6761C37.3154 50.1307 37.3864 50.5327 37.5284 50.8821C37.6733 51.2287 37.8864 51.5014 38.1676 51.7003C38.4517 51.8963 38.804 51.9943 39.2245 51.9943ZM44.9347 49.0625V53H43.929V46.4545H44.9006V47.4773H44.9858C45.1392 47.1449 45.3722 46.8778 45.6847 46.6761C45.9972 46.4716 46.4006 46.3693 46.8949 46.3693C47.3381 46.3693 47.7259 46.4602 48.0583 46.642C48.3906 46.821 48.6492 47.0938 48.8338 47.4602C49.0185 47.8239 49.1108 48.2841 49.1108 48.8409V53H48.1051V48.9091C48.1051 48.3949 47.9716 47.9943 47.7046 47.7074C47.4375 47.4176 47.071 47.2727 46.6051 47.2727C46.2841 47.2727 45.9972 47.3423 45.7443 47.4815C45.4943 47.6207 45.2969 47.8239 45.152 48.0909C45.0071 48.358 44.9347 48.6818 44.9347 49.0625ZM50.9485 53V46.4545H51.9201V47.4773H52.0053C52.1417 47.1278 52.3619 46.8565 52.6659 46.6634C52.9698 46.4673 53.3349 46.3693 53.761 46.3693C54.1928 46.3693 54.5522 46.4673 54.8392 46.6634C55.1289 46.8565 55.3548 47.1278 55.5167 47.4773H55.5849C55.7525 47.1392 56.0039 46.8707 56.3392 46.6719C56.6744 46.4702 57.0764 46.3693 57.5451 46.3693C58.1303 46.3693 58.609 46.5526 58.9812 46.919C59.3534 47.2827 59.5394 47.8494 59.5394 48.6193V53H58.5338V48.6193C58.5338 48.1364 58.4017 47.7912 58.1375 47.5838C57.8732 47.3764 57.5622 47.2727 57.2042 47.2727C56.744 47.2727 56.3875 47.4119 56.1346 47.6903C55.8818 47.9659 55.7553 48.3153 55.7553 48.7386V53H54.7326V48.517C54.7326 48.1449 54.6119 47.8452 54.3704 47.6179C54.1289 47.3878 53.8178 47.2727 53.4372 47.2727C53.1758 47.2727 52.9315 47.3423 52.7042 47.4815C52.4798 47.6207 52.298 47.8139 52.1588 48.0611C52.0224 48.3054 51.9542 48.5881 51.9542 48.9091V53H50.9485ZM64.1225 53.1364C63.4919 53.1364 62.9478 52.9972 62.4904 52.7188C62.0359 52.4375 61.685 52.0455 61.4379 51.5426C61.1936 51.0369 61.0714 50.4489 61.0714 49.7784C61.0714 49.108 61.1936 48.517 61.4379 48.0057C61.685 47.4915 62.0288 47.0909 62.4691 46.804C62.9123 46.5142 63.4294 46.3693 64.0203 46.3693C64.3612 46.3693 64.6978 46.4261 65.0302 46.5398C65.3626 46.6534 65.6652 46.8381 65.9379 47.0938C66.2106 47.3466 66.4279 47.6818 66.5899 48.0994C66.7518 48.517 66.8328 49.0312 66.8328 49.642V50.0682H61.7873V49.1989H65.81C65.81 48.8295 65.7362 48.5 65.5884 48.2102C65.4436 47.9205 65.2362 47.6918 64.9663 47.5241C64.6992 47.3565 64.3839 47.2727 64.0203 47.2727C63.6197 47.2727 63.2731 47.3722 62.9805 47.571C62.6907 47.767 62.4677 48.0227 62.3115 48.3381C62.1552 48.6534 62.0771 48.9915 62.0771 49.3523V49.9318C62.0771 50.4261 62.1623 50.8452 62.3328 51.1889C62.5061 51.5298 62.7461 51.7898 63.0529 51.9688C63.3598 52.1449 63.7163 52.233 64.1225 52.233C64.3867 52.233 64.6254 52.196 64.8384 52.1222C65.0544 52.0455 65.2404 51.9318 65.3967 51.7812C65.5529 51.6278 65.6737 51.4375 65.7589 51.2102L66.7305 51.483C66.6282 51.8125 66.4563 52.1023 66.2149 52.3523C65.9734 52.5994 65.6751 52.7926 65.32 52.9318C64.9649 53.0682 64.5657 53.1364 64.1225 53.1364ZM69.3683 49.0625V53H68.3626V46.4545H69.3342V47.4773H69.4194C69.5728 47.1449 69.8058 46.8778 70.1183 46.6761C70.4308 46.4716 70.8342 46.3693 71.3285 46.3693C71.7717 46.3693 72.1595 46.4602 72.4919 46.642C72.8242 46.821 73.0828 47.0938 73.2674 47.4602C73.4521 47.8239 73.5444 48.2841 73.5444 48.8409V53H72.5387V48.9091C72.5387 48.3949 72.4052 47.9943 72.1382 47.7074C71.8711 47.4176 71.5046 47.2727 71.0387 47.2727C70.7177 47.2727 70.4308 47.3423 70.1779 47.4815C69.9279 47.6207 69.7305 47.8239 69.5856 48.0909C69.4407 48.358 69.3683 48.6818 69.3683 49.0625ZM78.2287 46.4545V47.3068H74.8367V46.4545H78.2287ZM75.8253 44.8864H76.831V51.125C76.831 51.4091 76.8722 51.6222 76.9546 51.7642C77.0398 51.9034 77.1477 51.9972 77.2784 52.0455C77.412 52.0909 77.5526 52.1136 77.7003 52.1136C77.8111 52.1136 77.902 52.108 77.973 52.0966C78.0441 52.0824 78.1009 52.071 78.1435 52.0625L78.348 52.9659C78.2799 52.9915 78.1847 53.017 78.0625 53.0426C77.9404 53.071 77.7855 53.0852 77.598 53.0852C77.3139 53.0852 77.0355 53.0241 76.7628 52.902C76.4929 52.7798 76.2685 52.5938 76.0895 52.3438C75.9134 52.0938 75.8253 51.7784 75.8253 51.3977V44.8864ZM84.2607 47.9205L83.3573 48.1761C83.3004 48.0256 83.2166 47.8793 83.1058 47.7372C82.9979 47.5923 82.8502 47.473 82.6627 47.3793C82.4752 47.2855 82.2351 47.2386 81.9425 47.2386C81.5419 47.2386 81.2081 47.331 80.9411 47.5156C80.6769 47.6974 80.5448 47.929 80.5448 48.2102C80.5448 48.4602 80.6357 48.6577 80.8175 48.8026C80.9993 48.9474 81.2834 49.0682 81.6698 49.1648L82.6414 49.4034C83.2266 49.5455 83.6627 49.7628 83.9496 50.0554C84.2365 50.3452 84.38 50.7187 84.38 51.1761C84.38 51.5511 84.272 51.8864 84.0561 52.1818C83.8431 52.4773 83.5448 52.7102 83.1612 52.8807C82.7777 53.0511 82.3317 53.1364 81.8232 53.1364C81.1556 53.1364 80.603 52.9915 80.1655 52.7017C79.728 52.4119 79.451 51.9886 79.3345 51.4318L80.2891 51.1932C80.38 51.5455 80.5519 51.8097 80.8047 51.9858C81.0604 52.1619 81.3942 52.25 81.8061 52.25C82.2749 52.25 82.647 52.1506 82.9226 51.9517C83.201 51.75 83.3402 51.5085 83.3402 51.2273C83.3402 51 83.2607 50.8097 83.1016 50.6562C82.9425 50.5 82.6982 50.3835 82.3686 50.3068L81.2777 50.0511C80.6783 49.9091 80.2379 49.6889 79.9567 49.3906C79.6783 49.0895 79.5391 48.7131 79.5391 48.2614C79.5391 47.892 79.6428 47.5653 79.8502 47.2812C80.0604 46.9972 80.3459 46.7741 80.7067 46.6122C81.0703 46.4503 81.4823 46.3693 81.9425 46.3693C82.5902 46.3693 83.0987 46.5114 83.4681 46.7955C83.8402 47.0795 84.1044 47.4545 84.2607 47.9205ZM92.1836 46.4545V47.3068H88.6552V46.4545H92.1836ZM89.712 53V45.5511C89.712 45.1761 89.8001 44.8636 89.9762 44.6136C90.1524 44.3636 90.3811 44.1761 90.6623 44.0511C90.9436 43.9261 91.2404 43.8636 91.5529 43.8636C91.8001 43.8636 92.0018 43.8835 92.158 43.9233C92.3143 43.9631 92.4308 44 92.5075 44.0341L92.2177 44.9034C92.1666 44.8864 92.0955 44.8651 92.0046 44.8395C91.9166 44.8139 91.8001 44.8011 91.6552 44.8011C91.3228 44.8011 91.0828 44.8849 90.935 45.0526C90.7902 45.2202 90.7177 45.4659 90.7177 45.7898V53H89.712ZM95.9826 53.1364C95.3917 53.1364 94.8732 52.9957 94.4272 52.7145C93.984 52.4332 93.6375 52.0398 93.3875 51.5341C93.1403 51.0284 93.0167 50.4375 93.0167 49.7614C93.0167 49.0795 93.1403 48.4844 93.3875 47.9759C93.6375 47.4673 93.984 47.0724 94.4272 46.7912C94.8732 46.5099 95.3917 46.3693 95.9826 46.3693C96.5735 46.3693 97.0906 46.5099 97.5338 46.7912C97.9798 47.0724 98.3264 47.4673 98.5735 47.9759C98.8235 48.4844 98.9485 49.0795 98.9485 49.7614C98.9485 50.4375 98.8235 51.0284 98.5735 51.5341C98.3264 52.0398 97.9798 52.4332 97.5338 52.7145C97.0906 52.9957 96.5735 53.1364 95.9826 53.1364ZM95.9826 52.233C96.4315 52.233 96.8008 52.1179 97.0906 51.8878C97.3803 51.6577 97.5948 51.3551 97.734 50.9801C97.8732 50.6051 97.9428 50.1989 97.9428 49.7614C97.9428 49.3239 97.8732 48.9162 97.734 48.5384C97.5948 48.1605 97.3803 47.8551 97.0906 47.6222C96.8008 47.3892 96.4315 47.2727 95.9826 47.2727C95.5338 47.2727 95.1644 47.3892 94.8747 47.6222C94.5849 47.8551 94.3704 48.1605 94.2312 48.5384C94.092 48.9162 94.0224 49.3239 94.0224 49.7614C94.0224 50.1989 94.092 50.6051 94.2312 50.9801C94.3704 51.3551 94.5849 51.6577 94.8747 51.8878C95.1644 52.1179 95.5338 52.233 95.9826 52.233ZM100.484 53V46.4545H101.455V47.4432H101.523C101.643 47.1193 101.859 46.8565 102.171 46.6548C102.484 46.4531 102.836 46.3523 103.228 46.3523C103.302 46.3523 103.394 46.3537 103.505 46.3565C103.616 46.3594 103.7 46.3636 103.756 46.3693V47.392C103.722 47.3835 103.644 47.3707 103.522 47.3537C103.403 47.3338 103.276 47.3239 103.143 47.3239C102.825 47.3239 102.541 47.3906 102.291 47.5241C102.043 47.6548 101.847 47.8366 101.702 48.0696C101.56 48.2997 101.489 48.5625 101.489 48.858V53H100.484ZM115.483 47H114.426C114.363 46.696 114.254 46.429 114.098 46.1989C113.944 45.9688 113.757 45.7756 113.535 45.6193C113.316 45.4602 113.074 45.3409 112.806 45.2614C112.539 45.1818 112.261 45.142 111.971 45.142C111.443 45.142 110.964 45.2756 110.535 45.5426C110.109 45.8097 109.77 46.2031 109.517 46.723C109.267 47.2429 109.142 47.8807 109.142 48.6364C109.142 49.392 109.267 50.0298 109.517 50.5497C109.77 51.0696 110.109 51.4631 110.535 51.7301C110.964 51.9972 111.443 52.1307 111.971 52.1307C112.261 52.1307 112.539 52.0909 112.806 52.0114C113.074 51.9318 113.316 51.8139 113.535 51.6577C113.757 51.4986 113.944 51.304 114.098 51.0739C114.254 50.8409 114.363 50.5739 114.426 50.2727H115.483C115.403 50.7187 115.258 51.1179 115.048 51.4702C114.838 51.8224 114.576 52.1222 114.264 52.3693C113.951 52.6136 113.601 52.7997 113.211 52.9276C112.825 53.0554 112.412 53.1193 111.971 53.1193C111.227 53.1193 110.565 52.9375 109.985 52.5739C109.406 52.2102 108.95 51.6932 108.618 51.0227C108.285 50.3523 108.119 49.5568 108.119 48.6364C108.119 47.7159 108.285 46.9205 108.618 46.25C108.95 45.5795 109.406 45.0625 109.985 44.6989C110.565 44.3352 111.227 44.1534 111.971 44.1534C112.412 44.1534 112.825 44.2173 113.211 44.3452C113.601 44.473 113.951 44.6605 114.264 44.9077C114.576 45.152 114.838 45.4503 115.048 45.8026C115.258 46.152 115.403 46.5511 115.483 47ZM121.963 46.4545C121.912 46.0227 121.705 45.6875 121.341 45.4489C120.977 45.2102 120.531 45.0909 120.003 45.0909C119.616 45.0909 119.278 45.1534 118.989 45.2784C118.702 45.4034 118.477 45.5753 118.315 45.794C118.156 46.0128 118.077 46.2614 118.077 46.5398C118.077 46.7727 118.132 46.973 118.243 47.1406C118.357 47.3054 118.501 47.4432 118.678 47.554C118.854 47.6619 119.038 47.7514 119.232 47.8224C119.425 47.8906 119.602 47.946 119.764 47.9886L120.651 48.2273C120.878 48.2869 121.131 48.3693 121.409 48.4744C121.69 48.5795 121.959 48.723 122.215 48.9048C122.473 49.0838 122.686 49.3139 122.854 49.5952C123.021 49.8764 123.105 50.2216 123.105 50.6307C123.105 51.1023 122.982 51.5284 122.734 51.9091C122.49 52.2898 122.132 52.5923 121.661 52.8168C121.192 53.0412 120.622 53.1534 119.952 53.1534C119.327 53.1534 118.786 53.0526 118.328 52.8509C117.874 52.6491 117.516 52.3679 117.254 52.0071C116.996 51.6463 116.849 51.2273 116.815 50.75H117.906C117.935 51.0795 118.045 51.3523 118.239 51.5682C118.435 51.7812 118.682 51.9403 118.98 52.0455C119.281 52.1477 119.605 52.1989 119.952 52.1989C120.355 52.1989 120.717 52.1335 121.038 52.0028C121.359 51.8693 121.614 51.6847 121.801 51.4489C121.989 51.2102 122.082 50.9318 122.082 50.6136C122.082 50.3239 122.001 50.0881 121.84 49.9062C121.678 49.7244 121.465 49.5767 121.2 49.4631C120.936 49.3494 120.651 49.25 120.344 49.1648L119.27 48.858C118.588 48.6619 118.048 48.3821 117.651 48.0185C117.253 47.6548 117.054 47.179 117.054 46.5909C117.054 46.1023 117.186 45.6761 117.45 45.3125C117.717 44.946 118.075 44.6619 118.524 44.4602C118.976 44.2557 119.48 44.1534 120.037 44.1534C120.599 44.1534 121.099 44.2543 121.537 44.456C121.974 44.6548 122.321 44.9276 122.577 45.2741C122.835 45.6207 122.972 46.0142 122.986 46.4545H121.963ZM131.865 47H130.809C130.746 46.696 130.637 46.429 130.48 46.1989C130.327 45.9688 130.14 45.7756 129.918 45.6193C129.699 45.4602 129.456 45.3409 129.189 45.2614C128.922 45.1818 128.644 45.142 128.354 45.142C127.826 45.142 127.347 45.2756 126.918 45.5426C126.492 45.8097 126.152 46.2031 125.9 46.723C125.65 47.2429 125.525 47.8807 125.525 48.6364C125.525 49.392 125.65 50.0298 125.9 50.5497C126.152 51.0696 126.492 51.4631 126.918 51.7301C127.347 51.9972 127.826 52.1307 128.354 52.1307C128.644 52.1307 128.922 52.0909 129.189 52.0114C129.456 51.9318 129.699 51.8139 129.918 51.6577C130.14 51.4986 130.327 51.304 130.48 51.0739C130.637 50.8409 130.746 50.5739 130.809 50.2727H131.865C131.786 50.7187 131.641 51.1179 131.431 51.4702C131.221 51.8224 130.959 52.1222 130.647 52.3693C130.334 52.6136 129.983 52.7997 129.594 52.9276C129.208 53.0554 128.794 53.1193 128.354 53.1193C127.61 53.1193 126.948 52.9375 126.368 52.5739C125.789 52.2102 125.333 51.6932 125 51.0227C124.668 50.3523 124.502 49.5568 124.502 48.6364C124.502 47.7159 124.668 46.9205 125 46.25C125.333 45.5795 125.789 45.0625 126.368 44.6989C126.948 44.3352 127.61 44.1534 128.354 44.1534C128.794 44.1534 129.208 44.2173 129.594 44.3452C129.983 44.473 130.334 44.6605 130.647 44.9077C130.959 45.152 131.221 45.4503 131.431 45.8026C131.641 46.152 131.786 46.5511 131.865 47ZM134.63 44.2727V53H133.573V44.2727H134.63ZM139.766 51.2102V50.3409L143.601 44.2727H144.232V45.6193H143.806L140.908 50.2045V50.2727H146.073V51.2102H139.766ZM143.874 53V50.946V50.5412V44.2727H144.88V53H143.874ZM150.567 53.1193C150.21 53.1136 149.852 53.0455 149.494 52.9148C149.136 52.7841 148.809 52.5639 148.514 52.2543C148.218 51.9418 147.981 51.5199 147.802 50.9886C147.623 50.4545 147.533 49.7841 147.533 48.9773C147.533 48.2045 147.606 47.5199 147.751 46.9233C147.896 46.3239 148.106 45.8196 148.381 45.4105C148.657 44.9986 148.989 44.6861 149.379 44.473C149.771 44.2599 150.212 44.1534 150.704 44.1534C151.192 44.1534 151.627 44.2514 152.008 44.4474C152.391 44.6406 152.704 44.9105 152.945 45.2571C153.187 45.6037 153.343 46.0028 153.414 46.4545H152.374C152.278 46.0625 152.09 45.7372 151.812 45.4787C151.533 45.2202 151.164 45.0909 150.704 45.0909C150.028 45.0909 149.495 45.3849 149.106 45.973C148.719 46.5611 148.525 47.3864 148.522 48.4489H148.59C148.749 48.2074 148.938 48.0014 149.157 47.831C149.379 47.6577 149.623 47.5241 149.89 47.4304C150.157 47.3366 150.44 47.2898 150.738 47.2898C151.238 47.2898 151.695 47.4148 152.11 47.6648C152.525 47.9119 152.857 48.2543 153.107 48.6918C153.357 49.1264 153.482 49.625 153.482 50.1875C153.482 50.7273 153.362 51.2216 153.12 51.6705C152.879 52.1165 152.539 52.4716 152.102 52.7358C151.667 52.9972 151.156 53.125 150.567 53.1193ZM150.567 52.1818C150.925 52.1818 151.246 52.0923 151.531 51.9134C151.817 51.7344 152.043 51.4943 152.208 51.1932C152.376 50.892 152.46 50.5568 152.46 50.1875C152.46 49.8267 152.379 49.4986 152.217 49.2031C152.058 48.9048 151.837 48.6676 151.556 48.4915C151.278 48.3153 150.96 48.2273 150.602 48.2273C150.332 48.2273 150.08 48.2812 149.847 48.3892C149.614 48.4943 149.41 48.6392 149.234 48.8239C149.06 49.0085 148.924 49.2202 148.825 49.4588C148.725 49.6946 148.675 49.9432 148.675 50.2045C148.675 50.5511 148.756 50.875 148.918 51.1761C149.083 51.4773 149.308 51.7202 149.592 51.9048C149.879 52.0895 150.204 52.1818 150.567 52.1818ZM158.226 44.2727V53H157.169V45.3807H157.118L154.988 46.7955V45.7216L157.169 44.2727H158.226ZM166.054 53.1534C165.64 53.1534 165.263 53.0753 164.925 52.919C164.587 52.7599 164.319 52.5312 164.12 52.233C163.921 51.9318 163.821 51.5682 163.821 51.142C163.821 50.767 163.895 50.4631 164.043 50.2301C164.191 49.9943 164.388 49.8097 164.635 49.6761C164.882 49.5426 165.155 49.4432 165.454 49.3778C165.755 49.3097 166.057 49.2557 166.361 49.2159C166.759 49.1648 167.081 49.1264 167.329 49.1009C167.579 49.0724 167.76 49.0256 167.874 48.9602C167.99 48.8949 168.049 48.7812 168.049 48.6193V48.5852C168.049 48.1648 167.934 47.8381 167.704 47.6051C167.476 47.3722 167.131 47.2557 166.668 47.2557C166.188 47.2557 165.811 47.3608 165.539 47.571C165.266 47.7812 165.074 48.0057 164.963 48.2443L164.009 47.9034C164.179 47.5057 164.407 47.196 164.691 46.9744C164.978 46.75 165.29 46.5937 165.628 46.5057C165.969 46.4148 166.304 46.3693 166.634 46.3693C166.844 46.3693 167.086 46.3949 167.358 46.446C167.634 46.4943 167.9 46.5952 168.155 46.7486C168.414 46.902 168.628 47.1335 168.799 47.4432C168.969 47.7528 169.054 48.1676 169.054 48.6875V53H168.049V52.1136H167.998C167.929 52.2557 167.816 52.4077 167.657 52.5696C167.498 52.7315 167.286 52.8693 167.022 52.983C166.757 53.0966 166.435 53.1534 166.054 53.1534ZM166.208 52.25C166.605 52.25 166.941 52.1719 167.213 52.0156C167.489 51.8594 167.696 51.6577 167.836 51.4105C167.978 51.1634 168.049 50.9034 168.049 50.6307V49.7102C168.006 49.7614 167.912 49.8082 167.767 49.8509C167.625 49.8906 167.461 49.9261 167.273 49.9574C167.088 49.9858 166.908 50.0114 166.732 50.0341C166.559 50.054 166.418 50.071 166.31 50.0852C166.049 50.1193 165.804 50.1747 165.577 50.2514C165.353 50.3253 165.171 50.4375 165.032 50.5881C164.895 50.7358 164.827 50.9375 164.827 51.1932C164.827 51.5426 164.956 51.8068 165.215 51.9858C165.476 52.1619 165.807 52.25 166.208 52.25ZM173.737 46.4545V47.3068H170.344V46.4545H173.737ZM171.333 44.8864H172.339V51.125C172.339 51.4091 172.38 51.6222 172.462 51.7642C172.548 51.9034 172.656 51.9972 172.786 52.0455C172.92 52.0909 173.06 52.1136 173.208 52.1136C173.319 52.1136 173.41 52.108 173.481 52.0966C173.552 52.0824 173.609 52.071 173.651 52.0625L173.856 52.9659C173.788 52.9915 173.692 53.017 173.57 53.0426C173.448 53.071 173.293 53.0852 173.106 53.0852C172.822 53.0852 172.543 53.0241 172.271 52.902C172.001 52.7798 171.776 52.5938 171.597 52.3438C171.421 52.0938 171.333 51.7784 171.333 51.3977V44.8864ZM181.454 53H178.761V44.2727H181.573C182.42 44.2727 183.144 44.4474 183.746 44.7969C184.349 45.1435 184.81 45.642 185.131 46.2926C185.452 46.9403 185.613 47.7159 185.613 48.6193C185.613 49.5284 185.451 50.3111 185.127 50.9673C184.803 51.6207 184.332 52.1236 183.712 52.4759C183.093 52.8253 182.34 53 181.454 53ZM179.817 52.0625H181.386C182.107 52.0625 182.705 51.9233 183.18 51.6449C183.654 51.3665 184.008 50.9702 184.241 50.456C184.474 49.9418 184.59 49.3295 184.59 48.6193C184.59 47.9148 184.475 47.3082 184.245 46.7997C184.015 46.2884 183.671 45.8963 183.214 45.6236C182.756 45.348 182.187 45.2102 181.505 45.2102H179.817V52.0625ZM187.249 53V46.4545H188.221V47.4432H188.289C188.408 47.1193 188.624 46.8565 188.937 46.6548C189.249 46.4531 189.602 46.3523 189.994 46.3523C190.067 46.3523 190.16 46.3537 190.271 46.3565C190.381 46.3594 190.465 46.3636 190.522 46.3693V47.392C190.488 47.3835 190.41 47.3707 190.288 47.3537C190.168 47.3338 190.042 47.3239 189.908 47.3239C189.59 47.3239 189.306 47.3906 189.056 47.5241C188.809 47.6548 188.613 47.8366 188.468 48.0696C188.326 48.2997 188.255 48.5625 188.255 48.858V53H187.249ZM195.839 50.3239V46.4545H196.845V53H195.839V51.892H195.771C195.618 52.2244 195.379 52.5071 195.055 52.7401C194.731 52.9702 194.322 53.0852 193.828 53.0852C193.419 53.0852 193.055 52.9957 192.737 52.8168C192.419 52.6349 192.169 52.3622 191.987 51.9986C191.805 51.6321 191.714 51.1705 191.714 50.6136V46.4545H192.72V50.5455C192.72 51.0227 192.853 51.4034 193.12 51.6875C193.39 51.9716 193.734 52.1136 194.152 52.1136C194.402 52.1136 194.656 52.0497 194.914 51.9219C195.176 51.794 195.395 51.598 195.571 51.3338C195.75 51.0696 195.839 50.733 195.839 50.3239ZM198.687 53V46.4545H199.658V47.4432H199.727C199.846 47.1193 200.062 46.8565 200.374 46.6548C200.687 46.4531 201.039 46.3523 201.431 46.3523C201.505 46.3523 201.597 46.3537 201.708 46.3565C201.819 46.3594 201.903 46.3636 201.96 46.3693V47.392C201.925 47.3835 201.847 47.3707 201.725 47.3537C201.606 47.3338 201.479 47.3239 201.346 47.3239C201.028 47.3239 200.744 47.3906 200.494 47.5241C200.246 47.6548 200.05 47.8366 199.906 48.0696C199.764 48.2997 199.692 48.5625 199.692 48.858V53H198.687ZM203.999 55.4545C203.828 55.4545 203.676 55.4403 203.543 55.4119C203.409 55.3864 203.317 55.3608 203.266 55.3352L203.521 54.4489C203.766 54.5114 203.982 54.5341 204.169 54.517C204.357 54.5 204.523 54.4162 204.668 54.2656C204.815 54.1179 204.95 53.8778 205.072 53.5455L205.26 53.0341L202.84 46.4545H203.93L205.737 51.6705H205.805L207.612 46.4545H208.703L205.925 53.9545C205.8 54.2926 205.645 54.5724 205.46 54.794C205.276 55.0185 205.061 55.1847 204.817 55.2926C204.575 55.4006 204.303 55.4545 203.999 55.4545ZM219.269 44.2727H220.326V50.0511C220.326 50.6477 220.185 51.1804 219.904 51.6491C219.626 52.1151 219.232 52.483 218.724 52.7528C218.215 53.0199 217.619 53.1534 216.934 53.1534C216.249 53.1534 215.653 53.0199 215.144 52.7528C214.636 52.483 214.241 52.1151 213.96 51.6491C213.681 51.1804 213.542 50.6477 213.542 50.0511V44.2727H214.599V49.9659C214.599 50.392 214.692 50.7713 214.88 51.1037C215.067 51.4332 215.335 51.6932 215.681 51.8835C216.031 52.071 216.448 52.1648 216.934 52.1648C217.42 52.1648 217.837 52.071 218.187 51.8835C218.536 51.6932 218.803 51.4332 218.988 51.1037C219.175 50.7713 219.269 50.392 219.269 49.9659V44.2727ZM223.306 49.0625V53H222.3V46.4545H223.272V47.4773H223.357C223.51 47.1449 223.743 46.8778 224.056 46.6761C224.368 46.4716 224.772 46.3693 225.266 46.3693C225.709 46.3693 226.097 46.4602 226.429 46.642C226.762 46.821 227.02 47.0938 227.205 47.4602C227.39 47.8239 227.482 48.2841 227.482 48.8409V53H226.476V48.9091C226.476 48.3949 226.343 47.9943 226.076 47.7074C225.809 47.4176 225.442 47.2727 224.976 47.2727C224.655 47.2727 224.368 47.3423 224.115 47.4815C223.865 47.6207 223.668 47.8239 223.523 48.0909C223.378 48.358 223.306 48.6818 223.306 49.0625ZM229.32 53V46.4545H230.325V53H229.32ZM229.831 45.3636C229.635 45.3636 229.466 45.2969 229.324 45.1634C229.185 45.0298 229.115 44.8693 229.115 44.6818C229.115 44.4943 229.185 44.3338 229.324 44.2003C229.466 44.0668 229.635 44 229.831 44C230.027 44 230.195 44.0668 230.334 44.2003C230.476 44.3338 230.547 44.4943 230.547 44.6818C230.547 44.8693 230.476 45.0298 230.334 45.1634C230.195 45.2969 230.027 45.3636 229.831 45.3636ZM237.52 46.4545L235.099 53H234.076L231.656 46.4545H232.747L234.554 51.6705H234.622L236.429 46.4545H237.52ZM241.357 53.1364C240.726 53.1364 240.182 52.9972 239.725 52.7188C239.27 52.4375 238.919 52.0455 238.672 51.5426C238.428 51.0369 238.306 50.4489 238.306 49.7784C238.306 49.108 238.428 48.517 238.672 48.0057C238.919 47.4915 239.263 47.0909 239.704 46.804C240.147 46.5142 240.664 46.3693 241.255 46.3693C241.596 46.3693 241.932 46.4261 242.265 46.5398C242.597 46.6534 242.9 46.8381 243.172 47.0938C243.445 47.3466 243.662 47.6818 243.824 48.0994C243.986 48.517 244.067 49.0312 244.067 49.642V50.0682H239.022V49.1989H243.044C243.044 48.8295 242.971 48.5 242.823 48.2102C242.678 47.9205 242.471 47.6918 242.201 47.5241C241.934 47.3565 241.618 47.2727 241.255 47.2727C240.854 47.2727 240.507 47.3722 240.215 47.571C239.925 47.767 239.702 48.0227 239.546 48.3381C239.39 48.6534 239.311 48.9915 239.311 49.3523V49.9318C239.311 50.4261 239.397 50.8452 239.567 51.1889C239.74 51.5298 239.98 51.7898 240.287 51.9688C240.594 52.1449 240.951 52.233 241.357 52.233C241.621 52.233 241.86 52.196 242.073 52.1222C242.289 52.0455 242.475 51.9318 242.631 51.7812C242.787 51.6278 242.908 51.4375 242.993 51.2102L243.965 51.483C243.863 51.8125 243.691 52.1023 243.449 52.3523C243.208 52.5994 242.909 52.7926 242.554 52.9318C242.199 53.0682 241.8 53.1364 241.357 53.1364ZM245.597 53V46.4545H246.569V47.4432H246.637C246.756 47.1193 246.972 46.8565 247.284 46.6548C247.597 46.4531 247.949 46.3523 248.341 46.3523C248.415 46.3523 248.507 46.3537 248.618 46.3565C248.729 46.3594 248.813 46.3636 248.87 46.3693V47.392C248.836 47.3835 248.757 47.3707 248.635 47.3537C248.516 47.3338 248.39 47.3239 248.256 47.3239C247.938 47.3239 247.654 47.3906 247.404 47.5241C247.157 47.6548 246.961 47.8366 246.816 48.0696C246.674 48.2997 246.603 48.5625 246.603 48.858V53H245.597ZM254.698 47.9205L253.795 48.1761C253.738 48.0256 253.654 47.8793 253.543 47.7372C253.435 47.5923 253.288 47.473 253.1 47.3793C252.913 47.2855 252.673 47.2386 252.38 47.2386C251.979 47.2386 251.646 47.331 251.379 47.5156C251.114 47.6974 250.982 47.929 250.982 48.2102C250.982 48.4602 251.073 48.6577 251.255 48.8026C251.437 48.9474 251.721 49.0682 252.107 49.1648L253.079 49.4034C253.664 49.5455 254.1 49.7628 254.387 50.0554C254.674 50.3452 254.817 50.7187 254.817 51.1761C254.817 51.5511 254.71 51.8864 254.494 52.1818C254.281 52.4773 253.982 52.7102 253.599 52.8807C253.215 53.0511 252.769 53.1364 252.261 53.1364C251.593 53.1364 251.041 52.9915 250.603 52.7017C250.166 52.4119 249.889 51.9886 249.772 51.4318L250.727 51.1932C250.817 51.5455 250.989 51.8097 251.242 51.9858C251.498 52.1619 251.832 52.25 252.244 52.25C252.712 52.25 253.085 52.1506 253.36 51.9517C253.639 51.75 253.778 51.5085 253.778 51.2273C253.778 51 253.698 50.8097 253.539 50.6562C253.38 50.5 253.136 50.3835 252.806 50.3068L251.715 50.0511C251.116 49.9091 250.675 49.6889 250.394 49.3906C250.116 49.0895 249.977 48.7131 249.977 48.2614C249.977 47.892 250.08 47.5653 250.288 47.2812C250.498 46.9972 250.783 46.7741 251.144 46.6122C251.508 46.4503 251.92 46.3693 252.38 46.3693C253.028 46.3693 253.536 46.5114 253.906 46.7955C254.278 47.0795 254.542 47.4545 254.698 47.9205ZM256.331 53V46.4545H257.337V53H256.331ZM256.843 45.3636C256.647 45.3636 256.478 45.2969 256.336 45.1634C256.196 45.0298 256.127 44.8693 256.127 44.6818C256.127 44.4943 256.196 44.3338 256.336 44.2003C256.478 44.0668 256.647 44 256.843 44C257.039 44 257.206 44.0668 257.346 44.2003C257.488 44.3338 257.559 44.4943 257.559 44.6818C257.559 44.8693 257.488 45.0298 257.346 45.1634C257.206 45.2969 257.039 45.3636 256.843 45.3636ZM262.026 46.4545V47.3068H258.634V46.4545H262.026ZM259.622 44.8864H260.628V51.125C260.628 51.4091 260.669 51.6222 260.751 51.7642C260.837 51.9034 260.945 51.9972 261.075 52.0455C261.209 52.0909 261.349 52.1136 261.497 52.1136C261.608 52.1136 261.699 52.108 261.77 52.0966C261.841 52.0824 261.898 52.071 261.94 52.0625L262.145 52.9659C262.077 52.9915 261.982 53.017 261.859 53.0426C261.737 53.071 261.582 53.0852 261.395 53.0852C261.111 53.0852 260.832 53.0241 260.56 52.902C260.29 52.7798 260.065 52.5938 259.886 52.3438C259.71 52.0938 259.622 51.7784 259.622 51.3977V44.8864ZM264.186 55.4545C264.016 55.4545 263.864 55.4403 263.73 55.4119C263.597 55.3864 263.504 55.3608 263.453 55.3352L263.709 54.4489C263.953 54.5114 264.169 54.5341 264.357 54.517C264.544 54.5 264.71 54.4162 264.855 54.2656C265.003 54.1179 265.138 53.8778 265.26 53.5455L265.447 53.0341L263.027 46.4545H264.118L265.925 51.6705H265.993L267.8 46.4545H268.891L266.112 53.9545C265.987 54.2926 265.832 54.5724 265.648 54.794C265.463 55.0185 265.249 55.1847 265.004 55.2926C264.763 55.4006 264.49 55.4545 264.186 55.4545Z" fill="#768395"/>
<circle cx="18.2" cy="79" r="6" fill="#3572A5"/>
<circle cx="18.2" cy="79" r="5.5" stroke="white" stroke-opacity="0.14902"/>
<path d="M33.2568 83.5V74.7727H36.2056C36.8903 74.7727 37.45 74.8963 37.8846 75.1435C38.3221 75.3878 38.646 75.7188 38.8562 76.1364C39.0664 76.554 39.1715 77.0199 39.1715 77.5341C39.1715 78.0483 39.0664 78.5156 38.8562 78.9361C38.6488 79.3565 38.3278 79.6918 37.8931 79.9418C37.4585 80.1889 36.9017 80.3125 36.2227 80.3125H34.109V79.375H36.1886C36.6573 79.375 37.0338 79.294 37.3178 79.1321C37.6019 78.9702 37.8079 78.7514 37.9357 78.4759C38.0664 78.1974 38.1318 77.8835 38.1318 77.5341C38.1318 77.1847 38.0664 76.8722 37.9357 76.5966C37.8079 76.321 37.6005 76.1051 37.3136 75.9489C37.0267 75.7898 36.646 75.7102 36.1715 75.7102H34.3136V83.5H33.2568ZM41.3853 85.9545C41.2149 85.9545 41.0629 85.9403 40.9294 85.9119C40.7958 85.8864 40.7035 85.8608 40.6524 85.8352L40.908 84.9489C41.1524 85.0114 41.3683 85.0341 41.5558 85.017C41.7433 85 41.9095 84.9162 42.0544 84.7656C42.2021 84.6179 42.337 84.3778 42.4592 84.0455L42.6467 83.5341L40.2262 76.9545H41.3171L43.124 82.1705H43.1921L44.999 76.9545H46.0899L43.3115 84.4545C43.1865 84.7926 43.0316 85.0724 42.847 85.294C42.6623 85.5185 42.4478 85.6847 42.2035 85.7926C41.962 85.9006 41.6893 85.9545 41.3853 85.9545ZM50.2639 76.9545V77.8068H46.8718V76.9545H50.2639ZM47.8605 75.3864H48.8661V81.625C48.8661 81.9091 48.9073 82.1222 48.9897 82.2642C49.075 82.4034 49.1829 82.4972 49.3136 82.5455C49.4471 82.5909 49.5877 82.6136 49.7355 82.6136C49.8463 82.6136 49.9372 82.608 50.0082 82.5966C50.0792 82.5824 50.136 82.571 50.1786 82.5625L50.3832 83.4659C50.315 83.4915 50.2198 83.517 50.0977 83.5426C49.9755 83.571 49.8207 83.5852 49.6332 83.5852C49.3491 83.5852 49.0707 83.5241 48.798 83.402C48.5281 83.2798 48.3036 83.0938 48.1247 82.8438C47.9485 82.5938 47.8605 82.2784 47.8605 81.8977V75.3864ZM52.923 79.5625V83.5H51.9173V74.7727H52.923V77.9773H53.0082C53.1616 77.6392 53.3917 77.3707 53.6985 77.1719C54.0082 76.9702 54.4201 76.8693 54.9343 76.8693C55.3803 76.8693 55.771 76.9588 56.1062 77.1378C56.4414 77.3139 56.7014 77.5852 56.886 77.9517C57.0735 78.3153 57.1673 78.7784 57.1673 79.3409V83.5H56.1616V79.4091C56.1616 78.8892 56.0267 78.4872 55.7568 78.2031C55.4897 77.9162 55.119 77.7727 54.6446 77.7727C54.315 77.7727 54.0196 77.8423 53.7582 77.9815C53.4997 78.1207 53.2951 78.3239 53.1446 78.5909C52.9968 78.858 52.923 79.1818 52.923 79.5625ZM61.6662 83.6364C61.0753 83.6364 60.5568 83.4957 60.1108 83.2145C59.6676 82.9332 59.321 82.5398 59.071 82.0341C58.8239 81.5284 58.7003 80.9375 58.7003 80.2614C58.7003 79.5795 58.8239 78.9844 59.071 78.4759C59.321 77.9673 59.6676 77.5724 60.1108 77.2912C60.5568 77.0099 61.0753 76.8693 61.6662 76.8693C62.2571 76.8693 62.7742 77.0099 63.2174 77.2912C63.6634 77.5724 64.01 77.9673 64.2571 78.4759C64.5071 78.9844 64.6321 79.5795 64.6321 80.2614C64.6321 80.9375 64.5071 81.5284 64.2571 82.0341C64.01 82.5398 63.6634 82.9332 63.2174 83.2145C62.7742 83.4957 62.2571 83.6364 61.6662 83.6364ZM61.6662 82.733C62.1151 82.733 62.4844 82.6179 62.7742 82.3878C63.0639 82.1577 63.2784 81.8551 63.4176 81.4801C63.5568 81.1051 63.6264 80.6989 63.6264 80.2614C63.6264 79.8239 63.5568 79.4162 63.4176 79.0384C63.2784 78.6605 63.0639 78.3551 62.7742 78.1222C62.4844 77.8892 62.1151 77.7727 61.6662 77.7727C61.2174 77.7727 60.848 77.8892 60.5583 78.1222C60.2685 78.3551 60.054 78.6605 59.9148 79.0384C59.7756 79.4162 59.706 79.8239 59.706 80.2614C59.706 80.6989 59.7756 81.1051 59.9148 81.4801C60.054 81.8551 60.2685 82.1577 60.5583 82.3878C60.848 82.6179 61.2174 82.733 61.6662 82.733ZM67.173 79.5625V83.5H66.1673V76.9545H67.1389V77.9773H67.2241C67.3775 77.6449 67.6105 77.3778 67.923 77.1761C68.2355 76.9716 68.6389 76.8693 69.1332 76.8693C69.5764 76.8693 69.9642 76.9602 70.2965 77.142C70.6289 77.321 70.8875 77.5938 71.0721 77.9602C71.2568 78.3239 71.3491 78.7841 71.3491 79.3409V83.5H70.3434V79.4091C70.3434 78.8949 70.2099 78.4943 69.9428 78.2074C69.6758 77.9176 69.3093 77.7727 68.8434 77.7727C68.5224 77.7727 68.2355 77.8423 67.9826 77.9815C67.7326 78.1207 67.5352 78.3239 67.3903 78.5909C67.2454 78.858 67.173 79.1818 67.173 79.5625Z" fill="#768395"/>
<rect x="85.2" y="68" width="60" height="22" rx="11" fill="#388BFD" fill-opacity="0.101961"/>
<path d="M95.7795 75.7102V74.7727H102.325V75.7102H99.5806V83.5H98.5238V75.7102H95.7795ZM104.757 81.1136L104.74 79.8693H104.945L107.808 76.9545H109.053L106.001 80.0398H105.916L104.757 81.1136ZM103.82 83.5V74.7727H104.825V83.5H103.82ZM107.979 83.5L105.422 80.2614L106.138 79.5625L109.257 83.5H107.979ZM110.347 83.5V76.9545H111.353V83.5H110.347ZM110.858 75.8636C110.662 75.8636 110.493 75.7969 110.351 75.6634C110.212 75.5298 110.142 75.3693 110.142 75.1818C110.142 74.9943 110.212 74.8338 110.351 74.7003C110.493 74.5668 110.662 74.5 110.858 74.5C111.054 74.5 111.222 74.5668 111.361 74.7003C111.503 74.8338 111.574 74.9943 111.574 75.1818C111.574 75.3693 111.503 75.5298 111.361 75.6634C111.222 75.7969 111.054 75.8636 110.858 75.8636ZM114.2 79.5625V83.5H113.195V76.9545H114.166V77.9773H114.251C114.405 77.6449 114.638 77.3778 114.95 77.1761C115.263 76.9716 115.666 76.8693 116.161 76.8693C116.604 76.8693 116.991 76.9602 117.324 77.142C117.656 77.321 117.915 77.5938 118.099 77.9602C118.284 78.3239 118.376 78.7841 118.376 79.3409V83.5H117.371V79.4091C117.371 78.8949 117.237 78.4943 116.97 78.2074C116.703 77.9176 116.337 77.7727 115.871 77.7727C115.55 77.7727 115.263 77.8423 115.01 77.9815C114.76 78.1207 114.563 78.3239 114.418 78.5909C114.273 78.858 114.2 79.1818 114.2 79.5625ZM123.061 76.9545V77.8068H119.669V76.9545H123.061ZM120.657 75.3864H121.663V81.625C121.663 81.9091 121.704 82.1222 121.787 82.2642C121.872 82.4034 121.98 82.4972 122.11 82.5455C122.244 82.5909 122.385 82.6136 122.532 82.6136C122.643 82.6136 122.734 82.608 122.805 82.5966C122.876 82.5824 122.933 82.571 122.976 82.5625L123.18 83.4659C123.112 83.4915 123.017 83.517 122.895 83.5426C122.772 83.571 122.618 83.5852 122.43 83.5852C122.146 83.5852 121.868 83.5241 121.595 83.402C121.325 83.2798 121.101 83.0938 120.922 82.8438C120.745 82.5938 120.657 82.2784 120.657 81.8977V75.3864ZM127.248 83.6364C126.617 83.6364 126.073 83.4972 125.615 83.2188C125.161 82.9375 124.81 82.5455 124.563 82.0426C124.319 81.5369 124.196 80.9489 124.196 80.2784C124.196 79.608 124.319 79.017 124.563 78.5057C124.81 77.9915 125.154 77.5909 125.594 77.304C126.037 77.0142 126.554 76.8693 127.145 76.8693C127.486 76.8693 127.823 76.9261 128.155 77.0398C128.488 77.1534 128.79 77.3381 129.063 77.5938C129.336 77.8466 129.553 78.1818 129.715 78.5994C129.877 79.017 129.958 79.5312 129.958 80.142V80.5682H124.912V79.6989H128.935C128.935 79.3295 128.861 79 128.713 78.7102C128.569 78.4205 128.361 78.1918 128.091 78.0241C127.824 77.8565 127.509 77.7727 127.145 77.7727C126.745 77.7727 126.398 77.8722 126.105 78.071C125.816 78.267 125.593 78.5227 125.436 78.8381C125.28 79.1534 125.202 79.4915 125.202 79.8523V80.4318C125.202 80.9261 125.287 81.3452 125.458 81.6889C125.631 82.0298 125.871 82.2898 126.178 82.4688C126.485 82.6449 126.841 82.733 127.248 82.733C127.512 82.733 127.75 82.696 127.963 82.6222C128.179 82.5455 128.365 82.4318 128.522 82.2812C128.678 82.1278 128.799 81.9375 128.884 81.7102L129.855 81.983C129.753 82.3125 129.581 82.6023 129.34 82.8523C129.098 83.0994 128.8 83.2926 128.445 83.4318C128.09 83.5682 127.691 83.6364 127.248 83.6364ZM131.488 83.5V76.9545H132.459V77.9432H132.527C132.647 77.6193 132.863 77.3565 133.175 77.1548C133.488 76.9531 133.84 76.8523 134.232 76.8523C134.306 76.8523 134.398 76.8537 134.509 76.8565C134.62 76.8594 134.704 76.8636 134.76 76.8693V77.892C134.726 77.8835 134.648 77.8707 134.526 77.8537C134.407 77.8338 134.28 77.8239 134.147 77.8239C133.829 77.8239 133.544 77.8906 133.294 78.0241C133.047 78.1548 132.851 78.3366 132.706 78.5696C132.564 78.7997 132.493 79.0625 132.493 79.358V83.5H131.488Z" fill="#4493F8"/>
</svg>
