<svg width="399" height="118" viewBox="0 0 399 118" fill="none" xmlns="http://www.w3.org/2000/svg">
<rect width="383" height="102" rx="6" fill="#768395" fill-opacity="0.1"/>
<path d="M16.4545 26H13.0043V15.8182H16.5241C17.535 15.8182 18.4034 16.022 19.1293 16.4297C19.8584 16.834 20.4186 17.4157 20.8097 18.1747C21.2008 18.9337 21.3963 19.8419 21.3963 20.8991C21.3963 21.9598 21.1991 22.8712 20.8047 23.6335C20.4136 24.3958 19.8485 24.9808 19.1094 25.3885C18.3736 25.7962 17.4886 26 16.4545 26ZM14.8487 24.4041H16.3651C17.0743 24.4041 17.666 24.2749 18.1399 24.0163C18.6139 23.7545 18.9702 23.3651 19.2088 22.848C19.4474 22.3277 19.5668 21.678 19.5668 20.8991C19.5668 20.1203 19.4474 19.474 19.2088 18.9602C18.9702 18.4432 18.6172 18.0571 18.1499 17.8018C17.6858 17.5433 17.1091 17.4141 16.4197 17.4141H14.8487V24.4041ZM27.9364 22.7884V18.3636H29.7362V26H27.9911V24.6428H27.9116C27.7392 25.0703 27.4558 25.42 27.0614 25.6918C26.6703 25.9635 26.1881 26.0994 25.6147 26.0994C25.1142 26.0994 24.6718 25.9884 24.2873 25.7663C23.9061 25.541 23.6078 25.2145 23.3924 24.7869C23.177 24.3561 23.0692 23.8357 23.0692 23.2259V18.3636H24.869V22.9474C24.869 23.4313 25.0015 23.8158 25.2667 24.1009C25.5318 24.3859 25.8799 24.5284 26.3107 24.5284C26.5759 24.5284 26.8327 24.4638 27.0813 24.3345C27.3299 24.2053 27.5337 24.013 27.6928 23.7578C27.8552 23.4993 27.9364 23.1761 27.9364 22.7884ZM34.9078 29.0227C34.2615 29.0227 33.7064 28.9349 33.2424 28.7592C32.7784 28.5869 32.4055 28.3549 32.1238 28.0632C31.842 27.7715 31.6465 27.4484 31.5371 27.0938L33.1578 26.701C33.2308 26.8501 33.3368 26.9976 33.476 27.1435C33.6152 27.2926 33.8025 27.4152 34.0378 27.5114C34.2765 27.6108 34.5764 27.6605 34.9377 27.6605C35.4481 27.6605 35.8707 27.5362 36.2054 27.2876C36.5402 27.0424 36.7076 26.638 36.7076 26.0746V24.6278H36.6181C36.5253 24.8134 36.3894 25.004 36.2104 25.1996C36.0347 25.3951 35.8011 25.5592 35.5094 25.6918C35.2211 25.8243 34.8581 25.8906 34.4206 25.8906C33.834 25.8906 33.302 25.7531 32.8248 25.478C32.3508 25.1996 31.973 24.7853 31.6912 24.2351C31.4128 23.6816 31.2736 22.9889 31.2736 22.157C31.2736 21.3184 31.4128 20.6108 31.6912 20.0341C31.973 19.4541 32.3525 19.0149 32.8297 18.7166C33.307 18.415 33.839 18.2642 34.4256 18.2642C34.873 18.2642 35.2409 18.3404 35.5293 18.4929C35.821 18.642 36.053 18.8227 36.2253 19.0348C36.3977 19.2436 36.5286 19.4408 36.6181 19.6264H36.7175V18.3636H38.4924V26.1243C38.4924 26.7772 38.3366 27.3175 38.025 27.745C37.7135 28.1726 37.2876 28.4924 36.7473 28.7045C36.2071 28.9167 35.5939 29.0227 34.9078 29.0227ZM34.9228 24.4787C35.3039 24.4787 35.6287 24.3859 35.8972 24.2003C36.1657 24.0147 36.3695 23.7479 36.5087 23.3999C36.6479 23.0518 36.7175 22.6342 36.7175 22.147C36.7175 21.6664 36.6479 21.2455 36.5087 20.8842C36.3728 20.523 36.1706 20.2429 35.9022 20.044C35.637 19.8419 35.3105 19.7408 34.9228 19.7408C34.5217 19.7408 34.187 19.8452 33.9185 20.054C33.65 20.2628 33.4479 20.5495 33.312 20.9141C33.1761 21.2753 33.1081 21.6863 33.1081 22.147C33.1081 22.6143 33.1761 23.0237 33.312 23.375C33.4512 23.723 33.655 23.9948 33.9235 24.1903C34.1953 24.3826 34.5284 24.4787 34.9228 24.4787ZM40.3368 26V18.3636H42.1365V26H40.3368ZM41.2417 17.2798C40.9566 17.2798 40.7114 17.1854 40.5059 16.9964C40.3004 16.8042 40.1976 16.5739 40.1976 16.3054C40.1976 16.0336 40.3004 15.8033 40.5059 15.6143C40.7114 15.4221 40.9566 15.326 41.2417 15.326C41.53 15.326 41.7753 15.4221 41.9775 15.6143C42.1829 15.8033 42.2857 16.0336 42.2857 16.3054C42.2857 16.5739 42.1829 16.8042 41.9775 16.9964C41.7753 17.1854 41.53 17.2798 41.2417 17.2798ZM47.8004 18.3636V19.7557H43.4105V18.3636H47.8004ZM44.4943 16.5341H46.294V23.7031C46.294 23.9451 46.3305 24.1307 46.4034 24.2599C46.4796 24.3859 46.5791 24.4721 46.7017 24.5185C46.8243 24.5649 46.9602 24.5881 47.1094 24.5881C47.2221 24.5881 47.3248 24.5798 47.4176 24.5632C47.5137 24.5466 47.5866 24.5317 47.6364 24.5185L47.9396 25.9254C47.8435 25.9586 47.706 25.995 47.527 26.0348C47.3513 26.0746 47.1359 26.0978 46.8807 26.1044C46.4299 26.1177 46.0239 26.0497 45.6626 25.9006C45.3014 25.7481 45.0147 25.5128 44.8026 25.1946C44.5938 24.8764 44.491 24.4787 44.4943 24.0014V16.5341Z" fill="#4493F8"/>
<path d="M19.0227 47C18.929 46.7131 18.8054 46.456 18.652 46.2287C18.5014 45.9986 18.321 45.8026 18.1108 45.6406C17.9034 45.4787 17.6676 45.3551 17.4034 45.2699C17.1392 45.1847 16.8494 45.142 16.5341 45.142C16.017 45.142 15.5469 45.2756 15.1236 45.5426C14.7003 45.8097 14.3636 46.2031 14.1136 46.723C13.8636 47.2429 13.7386 47.8807 13.7386 48.6364C13.7386 49.392 13.8651 50.0298 14.1179 50.5497C14.3707 51.0696 14.7131 51.4631 15.1449 51.7301C15.5767 51.9972 16.0625 52.1307 16.6023 52.1307C17.1023 52.1307 17.5426 52.0241 17.9233 51.8111C18.3068 51.5952 18.6051 51.2912 18.8182 50.8991C19.0341 50.5043 19.142 50.0398 19.142 49.5057L19.4659 49.5739H16.8409V48.6364H20.1648V49.5739C20.1648 50.2926 20.0114 50.9176 19.7045 51.4489C19.4006 51.9801 18.9801 52.392 18.4432 52.6847C17.9091 52.9744 17.2955 53.1193 16.6023 53.1193C15.8295 53.1193 15.1506 52.9375 14.5653 52.5739C13.983 52.2102 13.5284 51.6932 13.2017 51.0227C12.8778 50.3523 12.7159 49.5568 12.7159 48.6364C12.7159 47.946 12.8082 47.3253 12.9929 46.7741C13.1804 46.2202 13.4446 45.7486 13.7855 45.3594C14.1264 44.9702 14.5298 44.6719 14.9957 44.4645C15.4616 44.2571 15.9744 44.1534 16.5341 44.1534C16.9943 44.1534 17.4233 44.223 17.821 44.3622C18.2216 44.4986 18.5781 44.6932 18.8906 44.946C19.206 45.196 19.4688 45.4957 19.679 45.8452C19.8892 46.1918 20.0341 46.5767 20.1136 47H19.0227ZM22.2486 53V46.4545H23.2543V53H22.2486ZM22.7599 45.3636C22.5639 45.3636 22.3949 45.2969 22.2528 45.1634C22.1136 45.0298 22.044 44.8693 22.044 44.6818C22.044 44.4943 22.1136 44.3338 22.2528 44.2003C22.3949 44.0668 22.5639 44 22.7599 44C22.956 44 23.1236 44.0668 23.2628 44.2003C23.4048 44.3338 23.4759 44.4943 23.4759 44.6818C23.4759 44.8693 23.4048 45.0298 23.2628 45.1634C23.1236 45.2969 22.956 45.3636 22.7599 45.3636ZM27.9428 46.4545V47.3068H24.5508V46.4545H27.9428ZM25.5394 44.8864H26.5451V51.125C26.5451 51.4091 26.5863 51.6222 26.6687 51.7642C26.7539 51.9034 26.8619 51.9972 26.9925 52.0455C27.1261 52.0909 27.2667 52.1136 27.4144 52.1136C27.5252 52.1136 27.6161 52.108 27.6871 52.0966C27.7582 52.0824 27.815 52.071 27.8576 52.0625L28.0621 52.9659C27.994 52.9915 27.8988 53.017 27.7766 53.0426C27.6545 53.071 27.4996 53.0852 27.3121 53.0852C27.0281 53.0852 26.7496 53.0241 26.4769 52.902C26.207 52.7798 25.9826 52.5938 25.8036 52.3438C25.6275 52.0938 25.5394 51.7784 25.5394 51.3977V44.8864ZM29.7326 53V44.2727H30.7894V48.1591H35.4428V44.2727H36.4996V53H35.4428V49.0966H30.7894V53H29.7326ZM42.604 50.3239V46.4545H43.6097V53H42.604V51.892H42.5359C42.3825 52.2244 42.1438 52.5071 41.82 52.7401C41.4961 52.9702 41.087 53.0852 40.5927 53.0852C40.1836 53.0852 39.82 52.9957 39.5018 52.8168C39.1836 52.6349 38.9336 52.3622 38.7518 51.9986C38.57 51.6321 38.479 51.1705 38.479 50.6136V46.4545H39.4847V50.5455C39.4847 51.0227 39.6183 51.4034 39.8853 51.6875C40.1552 51.9716 40.4989 52.1136 40.9165 52.1136C41.1665 52.1136 41.4208 52.0497 41.6793 51.9219C41.9407 51.794 42.1594 51.598 42.3356 51.3338C42.5146 51.0696 42.604 50.733 42.604 50.3239ZM45.5881 53V44.2727H46.5938V47.4943H46.679C46.7528 47.3807 46.8551 47.2358 46.9858 47.0597C47.1193 46.8807 47.3097 46.7216 47.5568 46.5824C47.8068 46.4403 48.1449 46.3693 48.571 46.3693C49.1222 46.3693 49.608 46.5071 50.0284 46.7827C50.4489 47.0582 50.777 47.4489 51.0128 47.9545C51.2486 48.4602 51.3665 49.0568 51.3665 49.7443C51.3665 50.4375 51.2486 51.0384 51.0128 51.5469C50.777 52.0526 50.4503 52.4446 50.0327 52.723C49.6151 52.9986 49.1335 53.1364 48.5881 53.1364C48.1676 53.1364 47.831 53.0668 47.5781 52.9276C47.3253 52.7855 47.1307 52.625 46.9943 52.446C46.858 52.2642 46.7528 52.1136 46.679 51.9943H46.5597V53H45.5881ZM46.5767 49.7273C46.5767 50.2216 46.6491 50.6577 46.794 51.0355C46.9389 51.4105 47.1506 51.7045 47.429 51.9176C47.7074 52.1278 48.0483 52.233 48.4517 52.233C48.8722 52.233 49.223 52.1222 49.5043 51.9006C49.7884 51.6761 50.0014 51.375 50.1435 50.9972C50.2884 50.6165 50.3608 50.1932 50.3608 49.7273C50.3608 49.267 50.2898 48.8523 50.1477 48.483C50.0085 48.1108 49.7969 47.8168 49.5128 47.6009C49.2315 47.3821 48.8778 47.2727 48.4517 47.2727C48.0426 47.2727 47.6989 47.3764 47.4205 47.5838C47.142 47.7884 46.9318 48.0753 46.7898 48.4446C46.6477 48.8111 46.5767 49.2386 46.5767 49.7273ZM63.4389 47H62.3821C62.3196 46.696 62.2102 46.429 62.054 46.1989C61.9006 45.9688 61.7131 45.7756 61.4915 45.6193C61.2727 45.4602 61.0298 45.3409 60.7628 45.2614C60.4957 45.1818 60.2173 45.142 59.9276 45.142C59.3991 45.142 58.9205 45.2756 58.4915 45.5426C58.0653 45.8097 57.7259 46.2031 57.473 46.723C57.223 47.2429 57.098 47.8807 57.098 48.6364C57.098 49.392 57.223 50.0298 57.473 50.5497C57.7259 51.0696 58.0653 51.4631 58.4915 51.7301C58.9205 51.9972 59.3991 52.1307 59.9276 52.1307C60.2173 52.1307 60.4957 52.0909 60.7628 52.0114C61.0298 51.9318 61.2727 51.8139 61.4915 51.6577C61.7131 51.4986 61.9006 51.304 62.054 51.0739C62.2102 50.8409 62.3196 50.5739 62.3821 50.2727H63.4389C63.3594 50.7187 63.2145 51.1179 63.0043 51.4702C62.794 51.8224 62.5327 52.1222 62.2202 52.3693C61.9077 52.6136 61.5568 52.7997 61.1676 52.9276C60.7813 53.0554 60.3679 53.1193 59.9276 53.1193C59.1832 53.1193 58.5213 52.9375 57.9418 52.5739C57.3622 52.2102 56.9063 51.6932 56.5739 51.0227C56.2415 50.3523 56.0753 49.5568 56.0753 48.6364C56.0753 47.7159 56.2415 46.9205 56.5739 46.25C56.9063 45.5795 57.3622 45.0625 57.9418 44.6989C58.5213 44.3352 59.1832 44.1534 59.9276 44.1534C60.3679 44.1534 60.7813 44.2173 61.1676 44.3452C61.5568 44.473 61.9077 44.6605 62.2202 44.9077C62.5327 45.152 62.794 45.4503 63.0043 45.8026C63.2145 46.152 63.3594 46.5511 63.4389 47ZM66.016 44.2727V53H65.0103V44.2727H66.016ZM69.7841 53.1534C69.3693 53.1534 68.9929 53.0753 68.6548 52.919C68.3168 52.7599 68.0483 52.5312 67.8494 52.233C67.6506 51.9318 67.5511 51.5682 67.5511 51.142C67.5511 50.767 67.625 50.4631 67.7727 50.2301C67.9205 49.9943 68.1179 49.8097 68.3651 49.6761C68.6122 49.5426 68.8849 49.4432 69.1832 49.3778C69.4844 49.3097 69.7869 49.2557 70.0909 49.2159C70.4886 49.1648 70.8111 49.1264 71.0582 49.1009C71.3082 49.0724 71.4901 49.0256 71.6037 48.9602C71.7202 48.8949 71.7784 48.7812 71.7784 48.6193V48.5852C71.7784 48.1648 71.6634 47.8381 71.4332 47.6051C71.206 47.3722 70.8608 47.2557 70.3977 47.2557C69.9176 47.2557 69.5412 47.3608 69.2685 47.571C68.9957 47.7812 68.804 48.0057 68.6932 48.2443L67.7386 47.9034C67.9091 47.5057 68.1364 47.196 68.4205 46.9744C68.7074 46.75 69.0199 46.5937 69.358 46.5057C69.6989 46.4148 70.0341 46.3693 70.3636 46.3693C70.5739 46.3693 70.8153 46.3949 71.0881 46.446C71.3636 46.4943 71.6293 46.5952 71.8849 46.7486C72.1435 46.902 72.358 47.1335 72.5284 47.4432C72.6989 47.7528 72.7841 48.1676 72.7841 48.6875V53H71.7784V52.1136H71.7273C71.6591 52.2557 71.5455 52.4077 71.3864 52.5696C71.2273 52.7315 71.0156 52.8693 70.7514 52.983C70.4872 53.0966 70.1648 53.1534 69.7841 53.1534ZM69.9375 52.25C70.3352 52.25 70.6705 52.1719 70.9432 52.0156C71.2188 51.8594 71.4261 51.6577 71.5653 51.4105C71.7074 51.1634 71.7784 50.9034 71.7784 50.6307V49.7102C71.7358 49.7614 71.642 49.8082 71.4972 49.8509C71.3551 49.8906 71.1903 49.9261 71.0028 49.9574C70.8182 49.9858 70.6378 50.0114 70.4616 50.0341C70.2884 50.054 70.1477 50.071 70.0398 50.0852C69.7784 50.1193 69.5341 50.1747 69.3068 50.2514C69.0824 50.3253 68.9006 50.4375 68.7614 50.5881C68.625 50.7358 68.5568 50.9375 68.5568 51.1932C68.5568 51.5426 68.6861 51.8068 68.9446 51.9858C69.206 52.1619 69.5369 52.25 69.9375 52.25ZM79.256 47.9205L78.3526 48.1761C78.2958 48.0256 78.212 47.8793 78.1012 47.7372C77.9933 47.5923 77.8455 47.473 77.658 47.3793C77.4705 47.2855 77.2305 47.2386 76.9379 47.2386C76.5373 47.2386 76.2035 47.331 75.9364 47.5156C75.6722 47.6974 75.5401 47.929 75.5401 48.2102C75.5401 48.4602 75.631 48.6577 75.8129 48.8026C75.9947 48.9474 76.2788 49.0682 76.6651 49.1648L77.6367 49.4034C78.2219 49.5455 78.658 49.7628 78.945 50.0554C79.2319 50.3452 79.3754 50.7187 79.3754 51.1761C79.3754 51.5511 79.2674 51.8864 79.0515 52.1818C78.8384 52.4773 78.5401 52.7102 78.1566 52.8807C77.7731 53.0511 77.3271 53.1364 76.8185 53.1364C76.1509 53.1364 75.5984 52.9915 75.1609 52.7017C74.7234 52.4119 74.4464 51.9886 74.3299 51.4318L75.2844 51.1932C75.3754 51.5455 75.5472 51.8097 75.8001 51.9858C76.0558 52.1619 76.3896 52.25 76.8015 52.25C77.2702 52.25 77.6424 52.1506 77.918 51.9517C78.1964 51.75 78.3356 51.5085 78.3356 51.2273C78.3356 51 78.256 50.8097 78.0969 50.6562C77.9379 50.5 77.6935 50.3835 77.364 50.3068L76.2731 50.0511C75.6737 49.9091 75.2333 49.6889 74.9521 49.3906C74.6737 49.0895 74.5344 48.7131 74.5344 48.2614C74.5344 47.892 74.6381 47.5653 74.8455 47.2812C75.0558 46.9972 75.3413 46.7741 75.7021 46.6122C76.0657 46.4503 76.4776 46.3693 76.9379 46.3693C77.5856 46.3693 78.0941 46.5114 78.4634 46.7955C78.8356 47.0795 79.0998 47.4545 79.256 47.9205ZM85.5256 47.9205L84.6222 48.1761C84.5653 48.0256 84.4815 47.8793 84.3707 47.7372C84.2628 47.5923 84.1151 47.473 83.9276 47.3793C83.7401 47.2855 83.5 47.2386 83.2074 47.2386C82.8068 47.2386 82.473 47.331 82.206 47.5156C81.9418 47.6974 81.8097 47.929 81.8097 48.2102C81.8097 48.4602 81.9006 48.6577 82.0824 48.8026C82.2642 48.9474 82.5483 49.0682 82.9347 49.1648L83.9062 49.4034C84.4915 49.5455 84.9276 49.7628 85.2145 50.0554C85.5014 50.3452 85.6449 50.7187 85.6449 51.1761C85.6449 51.5511 85.5369 51.8864 85.321 52.1818C85.108 52.4773 84.8097 52.7102 84.4261 52.8807C84.0426 53.0511 83.5966 53.1364 83.0881 53.1364C82.4205 53.1364 81.8679 52.9915 81.4304 52.7017C80.9929 52.4119 80.7159 51.9886 80.5994 51.4318L81.554 51.1932C81.6449 51.5455 81.8168 51.8097 82.0696 51.9858C82.3253 52.1619 82.6591 52.25 83.071 52.25C83.5398 52.25 83.9119 52.1506 84.1875 51.9517C84.4659 51.75 84.6051 51.5085 84.6051 51.2273C84.6051 51 84.5256 50.8097 84.3665 50.6562C84.2074 50.5 83.9631 50.3835 83.6335 50.3068L82.5426 50.0511C81.9432 49.9091 81.5028 49.6889 81.2216 49.3906C80.9432 49.0895 80.804 48.7131 80.804 48.2614C80.804 47.892 80.9077 47.5653 81.1151 47.2812C81.3253 46.9972 81.6108 46.7741 81.9716 46.6122C82.3352 46.4503 82.7472 46.3693 83.2074 46.3693C83.8551 46.3693 84.3636 46.5114 84.733 46.7955C85.1051 47.0795 85.3693 47.4545 85.5256 47.9205ZM87.1587 53V46.4545H88.1303V47.4432H88.1985C88.3178 47.1193 88.5337 46.8565 88.8462 46.6548C89.1587 46.4531 89.511 46.3523 89.9031 46.3523C89.9769 46.3523 90.0692 46.3537 90.18 46.3565C90.2908 46.3594 90.3746 46.3636 90.4315 46.3693V47.392C90.3974 47.3835 90.3192 47.3707 90.1971 47.3537C90.0778 47.3338 89.9513 47.3239 89.8178 47.3239C89.4996 47.3239 89.2156 47.3906 88.9656 47.5241C88.7184 47.6548 88.5224 47.8366 88.3775 48.0696C88.2354 48.2997 88.1644 48.5625 88.1644 48.858V53H87.1587ZM94.0835 53.1364C93.4925 53.1364 92.9741 52.9957 92.5281 52.7145C92.0849 52.4332 91.7383 52.0398 91.4883 51.5341C91.2411 51.0284 91.1175 50.4375 91.1175 49.7614C91.1175 49.0795 91.2411 48.4844 91.4883 47.9759C91.7383 47.4673 92.0849 47.0724 92.5281 46.7912C92.9741 46.5099 93.4925 46.3693 94.0835 46.3693C94.6744 46.3693 95.1914 46.5099 95.6346 46.7912C96.0806 47.0724 96.4272 47.4673 96.6744 47.9759C96.9244 48.4844 97.0494 49.0795 97.0494 49.7614C97.0494 50.4375 96.9244 51.0284 96.6744 51.5341C96.4272 52.0398 96.0806 52.4332 95.6346 52.7145C95.1914 52.9957 94.6744 53.1364 94.0835 53.1364ZM94.0835 52.233C94.5323 52.233 94.9016 52.1179 95.1914 51.8878C95.4812 51.6577 95.6957 51.3551 95.8349 50.9801C95.9741 50.6051 96.0437 50.1989 96.0437 49.7614C96.0437 49.3239 95.9741 48.9162 95.8349 48.5384C95.6957 48.1605 95.4812 47.8551 95.1914 47.6222C94.9016 47.3892 94.5323 47.2727 94.0835 47.2727C93.6346 47.2727 93.2653 47.3892 92.9755 47.6222C92.6857 47.8551 92.4712 48.1605 92.332 48.5384C92.1928 48.9162 92.1232 49.3239 92.1232 49.7614C92.1232 50.1989 92.1928 50.6051 92.332 50.9801C92.4712 51.3551 92.6857 51.6577 92.9755 51.8878C93.2653 52.1179 93.6346 52.233 94.0835 52.233ZM101.244 53.1364C100.653 53.1364 100.134 52.9957 99.6882 52.7145C99.245 52.4332 98.8984 52.0398 98.6484 51.5341C98.4013 51.0284 98.2777 50.4375 98.2777 49.7614C98.2777 49.0795 98.4013 48.4844 98.6484 47.9759C98.8984 47.4673 99.245 47.0724 99.6882 46.7912C100.134 46.5099 100.653 46.3693 101.244 46.3693C101.835 46.3693 102.352 46.5099 102.795 46.7912C103.241 47.0724 103.587 47.4673 103.835 47.9759C104.085 48.4844 104.21 49.0795 104.21 49.7614C104.21 50.4375 104.085 51.0284 103.835 51.5341C103.587 52.0398 103.241 52.4332 102.795 52.7145C102.352 52.9957 101.835 53.1364 101.244 53.1364ZM101.244 52.233C101.692 52.233 102.062 52.1179 102.352 51.8878C102.641 51.6577 102.856 51.3551 102.995 50.9801C103.134 50.6051 103.204 50.1989 103.204 49.7614C103.204 49.3239 103.134 48.9162 102.995 48.5384C102.856 48.1605 102.641 47.8551 102.352 47.6222C102.062 47.3892 101.692 47.2727 101.244 47.2727C100.795 47.2727 100.425 47.3892 100.136 47.6222C99.8459 47.8551 99.6314 48.1605 99.4922 48.5384C99.353 48.9162 99.2834 49.3239 99.2834 49.7614C99.2834 50.1989 99.353 50.6051 99.4922 50.9801C99.6314 51.3551 99.8459 51.6577 100.136 51.8878C100.425 52.1179 100.795 52.233 101.244 52.233ZM105.745 53V46.4545H106.716V47.4773H106.801C106.938 47.1278 107.158 46.8565 107.462 46.6634C107.766 46.4673 108.131 46.3693 108.557 46.3693C108.989 46.3693 109.348 46.4673 109.635 46.6634C109.925 46.8565 110.151 47.1278 110.313 47.4773H110.381C110.549 47.1392 110.8 46.8707 111.135 46.6719C111.471 46.4702 111.873 46.3693 112.341 46.3693C112.926 46.3693 113.405 46.5526 113.777 46.919C114.15 47.2827 114.336 47.8494 114.336 48.6193V53H113.33V48.6193C113.33 48.1364 113.198 47.7912 112.934 47.5838C112.669 47.3764 112.358 47.2727 112 47.2727C111.54 47.2727 111.184 47.4119 110.931 47.6903C110.678 47.9659 110.551 48.3153 110.551 48.7386V53H109.529V48.517C109.529 48.1449 109.408 47.8452 109.167 47.6179C108.925 47.3878 108.614 47.2727 108.233 47.2727C107.972 47.2727 107.728 47.3423 107.5 47.4815C107.276 47.6207 107.094 47.8139 106.955 48.0611C106.819 48.3054 106.75 48.5881 106.75 48.9091V53H105.745ZM122.396 46.4545V47.3068H119.004V46.4545H122.396ZM119.993 44.8864H120.998V51.125C120.998 51.4091 121.039 51.6222 121.122 51.7642C121.207 51.9034 121.315 51.9972 121.446 52.0455C121.579 52.0909 121.72 52.1136 121.868 52.1136C121.978 52.1136 122.069 52.108 122.14 52.0966C122.211 52.0824 122.268 52.071 122.311 52.0625L122.515 52.9659C122.447 52.9915 122.352 53.017 122.23 53.0426C122.108 53.071 121.953 53.0852 121.765 53.0852C121.481 53.0852 121.203 53.0241 120.93 52.902C120.66 52.7798 120.436 52.5938 120.257 52.3438C120.081 52.0938 119.993 51.7784 119.993 51.3977V44.8864ZM126.498 53.1364C125.907 53.1364 125.388 52.9957 124.942 52.7145C124.499 52.4332 124.152 52.0398 123.902 51.5341C123.655 51.0284 123.532 50.4375 123.532 49.7614C123.532 49.0795 123.655 48.4844 123.902 47.9759C124.152 47.4673 124.499 47.0724 124.942 46.7912C125.388 46.5099 125.907 46.3693 126.498 46.3693C127.088 46.3693 127.605 46.5099 128.049 46.7912C128.495 47.0724 128.841 47.4673 129.088 47.9759C129.338 48.4844 129.463 49.0795 129.463 49.7614C129.463 50.4375 129.338 51.0284 129.088 51.5341C128.841 52.0398 128.495 52.4332 128.049 52.7145C127.605 52.9957 127.088 53.1364 126.498 53.1364ZM126.498 52.233C126.946 52.233 127.316 52.1179 127.605 51.8878C127.895 51.6577 128.11 51.3551 128.249 50.9801C128.388 50.6051 128.458 50.1989 128.458 49.7614C128.458 49.3239 128.388 48.9162 128.249 48.5384C128.11 48.1605 127.895 47.8551 127.605 47.6222C127.316 47.3892 126.946 47.2727 126.498 47.2727C126.049 47.2727 125.679 47.3892 125.39 47.6222C125.1 47.8551 124.885 48.1605 124.746 48.5384C124.607 48.9162 124.537 49.3239 124.537 49.7614C124.537 50.1989 124.607 50.6051 124.746 50.9801C124.885 51.3551 125.1 51.6577 125.39 51.8878C125.679 52.1179 126.049 52.233 126.498 52.233ZM133.658 53.1364C133.067 53.1364 132.548 52.9957 132.102 52.7145C131.659 52.4332 131.312 52.0398 131.062 51.5341C130.815 51.0284 130.692 50.4375 130.692 49.7614C130.692 49.0795 130.815 48.4844 131.062 47.9759C131.312 47.4673 131.659 47.0724 132.102 46.7912C132.548 46.5099 133.067 46.3693 133.658 46.3693C134.249 46.3693 134.766 46.5099 135.209 46.7912C135.655 47.0724 136.001 47.4673 136.249 47.9759C136.499 48.4844 136.624 49.0795 136.624 49.7614C136.624 50.4375 136.499 51.0284 136.249 51.5341C136.001 52.0398 135.655 52.4332 135.209 52.7145C134.766 52.9957 134.249 53.1364 133.658 53.1364ZM133.658 52.233C134.107 52.233 134.476 52.1179 134.766 51.8878C135.055 51.6577 135.27 51.3551 135.409 50.9801C135.548 50.6051 135.618 50.1989 135.618 49.7614C135.618 49.3239 135.548 48.9162 135.409 48.5384C135.27 48.1605 135.055 47.8551 134.766 47.6222C134.476 47.3892 134.107 47.2727 133.658 47.2727C133.209 47.2727 132.839 47.3892 132.55 47.6222C132.26 47.8551 132.045 48.1605 131.906 48.5384C131.767 48.9162 131.697 49.3239 131.697 49.7614C131.697 50.1989 131.767 50.6051 131.906 50.9801C132.045 51.3551 132.26 51.6577 132.55 51.8878C132.839 52.1179 133.209 52.233 133.658 52.233ZM139.164 44.2727V53H138.159V44.2727H139.164ZM145.643 47.9205L144.739 48.1761C144.683 48.0256 144.599 47.8793 144.488 47.7372C144.38 47.5923 144.232 47.473 144.045 47.3793C143.857 47.2855 143.617 47.2386 143.325 47.2386C142.924 47.2386 142.59 47.331 142.323 47.5156C142.059 47.6974 141.927 47.929 141.927 48.2102C141.927 48.4602 142.018 48.6577 142.2 48.8026C142.381 48.9474 142.665 49.0682 143.052 49.1648L144.023 49.4034C144.609 49.5455 145.045 49.7628 145.332 50.0554C145.619 50.3452 145.762 50.7187 145.762 51.1761C145.762 51.5511 145.654 51.8864 145.438 52.1818C145.225 52.4773 144.927 52.7102 144.543 52.8807C144.16 53.0511 143.714 53.1364 143.205 53.1364C142.538 53.1364 141.985 52.9915 141.548 52.7017C141.11 52.4119 140.833 51.9886 140.717 51.4318L141.671 51.1932C141.762 51.5455 141.934 51.8097 142.187 51.9858C142.442 52.1619 142.776 52.25 143.188 52.25C143.657 52.25 144.029 52.1506 144.305 51.9517C144.583 51.75 144.722 51.5085 144.722 51.2273C144.722 51 144.643 50.8097 144.484 50.6562C144.325 50.5 144.08 50.3835 143.751 50.3068L142.66 50.0511C142.06 49.9091 141.62 49.6889 141.339 49.3906C141.06 49.0895 140.921 48.7131 140.921 48.2614C140.921 47.892 141.025 47.5653 141.232 47.2812C141.442 46.9972 141.728 46.7741 142.089 46.6122C142.452 46.4503 142.864 46.3693 143.325 46.3693C143.972 46.3693 144.481 46.5114 144.85 46.7955C145.222 47.0795 145.487 47.4545 145.643 47.9205ZM153.566 46.4545V47.3068H150.037V46.4545H153.566ZM151.094 53V45.5511C151.094 45.1761 151.182 44.8636 151.358 44.6136C151.534 44.3636 151.763 44.1761 152.044 44.0511C152.326 43.9261 152.623 43.8636 152.935 43.8636C153.182 43.8636 153.384 43.8835 153.54 43.9233C153.696 43.9631 153.813 44 153.89 44.0341L153.6 44.9034C153.549 44.8864 153.478 44.8651 153.387 44.8395C153.299 44.8139 153.182 44.8011 153.037 44.8011C152.705 44.8011 152.465 44.8849 152.317 45.0526C152.172 45.2202 152.1 45.4659 152.1 45.7898V53H151.094ZM157.365 53.1364C156.774 53.1364 156.255 52.9957 155.809 52.7145C155.366 52.4332 155.02 52.0398 154.77 51.5341C154.522 51.0284 154.399 50.4375 154.399 49.7614C154.399 49.0795 154.522 48.4844 154.77 47.9759C155.02 47.4673 155.366 47.0724 155.809 46.7912C156.255 46.5099 156.774 46.3693 157.365 46.3693C157.956 46.3693 158.473 46.5099 158.916 46.7912C159.362 47.0724 159.708 47.4673 159.956 47.9759C160.206 48.4844 160.331 49.0795 160.331 49.7614C160.331 50.4375 160.206 51.0284 159.956 51.5341C159.708 52.0398 159.362 52.4332 158.916 52.7145C158.473 52.9957 157.956 53.1364 157.365 53.1364ZM157.365 52.233C157.814 52.233 158.183 52.1179 158.473 51.8878C158.762 51.6577 158.977 51.3551 159.116 50.9801C159.255 50.6051 159.325 50.1989 159.325 49.7614C159.325 49.3239 159.255 48.9162 159.116 48.5384C158.977 48.1605 158.762 47.8551 158.473 47.6222C158.183 47.3892 157.814 47.2727 157.365 47.2727C156.916 47.2727 156.547 47.3892 156.257 47.6222C155.967 47.8551 155.752 48.1605 155.613 48.5384C155.474 48.9162 155.404 49.3239 155.404 49.7614C155.404 50.1989 155.474 50.6051 155.613 50.9801C155.752 51.3551 155.967 51.6577 156.257 51.8878C156.547 52.1179 156.916 52.233 157.365 52.233ZM161.866 53V46.4545H162.837V47.4432H162.906C163.025 47.1193 163.241 46.8565 163.553 46.6548C163.866 46.4531 164.218 46.3523 164.61 46.3523C164.684 46.3523 164.776 46.3537 164.887 46.3565C164.998 46.3594 165.082 46.3636 165.138 46.3693V47.392C165.104 47.3835 165.026 47.3707 164.904 47.3537C164.785 47.3338 164.658 47.3239 164.525 47.3239C164.207 47.3239 163.923 47.3906 163.673 47.5241C163.425 47.6548 163.229 47.8366 163.085 48.0696C162.942 48.2997 162.871 48.5625 162.871 48.858V53H161.866ZM172.535 53H169.842V44.2727H172.654C173.501 44.2727 174.225 44.4474 174.828 44.7969C175.43 45.1435 175.892 45.642 176.213 46.2926C176.534 46.9403 176.694 47.7159 176.694 48.6193C176.694 49.5284 176.532 50.3111 176.208 50.9673C175.885 51.6207 175.413 52.1236 174.794 52.4759C174.174 52.8253 173.422 53 172.535 53ZM170.899 52.0625H172.467C173.189 52.0625 173.787 51.9233 174.261 51.6449C174.735 51.3665 175.089 50.9702 175.322 50.456C175.555 49.9418 175.672 49.3295 175.672 48.6193C175.672 47.9148 175.556 47.3082 175.326 46.7997C175.096 46.2884 174.752 45.8963 174.295 45.6236C173.838 45.348 173.268 45.2102 172.586 45.2102H170.899V52.0625ZM178.331 53V46.4545H179.302V47.4432H179.37C179.49 47.1193 179.706 46.8565 180.018 46.6548C180.331 46.4531 180.683 46.3523 181.075 46.3523C181.149 46.3523 181.241 46.3537 181.352 46.3565C181.463 46.3594 181.547 46.3636 181.603 46.3693V47.392C181.569 47.3835 181.491 47.3707 181.369 47.3537C181.25 47.3338 181.123 47.3239 180.99 47.3239C180.672 47.3239 180.387 47.3906 180.137 47.5241C179.89 47.6548 179.694 47.8366 179.549 48.0696C179.407 48.2997 179.336 48.5625 179.336 48.858V53H178.331ZM186.92 50.3239V46.4545H187.926V53H186.92V51.892H186.852C186.699 52.2244 186.46 52.5071 186.136 52.7401C185.813 52.9702 185.403 53.0852 184.909 53.0852C184.5 53.0852 184.136 52.9957 183.818 52.8168C183.5 52.6349 183.25 52.3622 183.068 51.9986C182.886 51.6321 182.795 51.1705 182.795 50.6136V46.4545H183.801V50.5455C183.801 51.0227 183.935 51.4034 184.202 51.6875C184.472 51.9716 184.815 52.1136 185.233 52.1136C185.483 52.1136 185.737 52.0497 185.996 51.9219C186.257 51.794 186.476 51.598 186.652 51.3338C186.831 51.0696 186.92 50.733 186.92 50.3239ZM189.768 53V46.4545H190.74V47.4432H190.808C190.927 47.1193 191.143 46.8565 191.456 46.6548C191.768 46.4531 192.12 46.3523 192.512 46.3523C192.586 46.3523 192.679 46.3537 192.789 46.3565C192.9 46.3594 192.984 46.3636 193.041 46.3693V47.392C193.007 47.3835 192.929 47.3707 192.806 47.3537C192.687 47.3338 192.561 47.3239 192.427 47.3239C192.109 47.3239 191.825 47.3906 191.575 47.5241C191.328 47.6548 191.132 47.8366 190.987 48.0696C190.845 48.2997 190.774 48.5625 190.774 48.858V53H189.768ZM195.08 55.4545C194.909 55.4545 194.757 55.4403 194.624 55.4119C194.49 55.3864 194.398 55.3608 194.347 55.3352L194.603 54.4489C194.847 54.5114 195.063 54.5341 195.25 54.517C195.438 54.5 195.604 54.4162 195.749 54.2656C195.897 54.1179 196.032 53.8778 196.154 53.5455L196.341 53.0341L193.921 46.4545H195.012L196.819 51.6705H196.887L198.694 46.4545H199.784L197.006 53.9545C196.881 54.2926 196.726 54.5724 196.542 54.794C196.357 55.0185 196.142 55.1847 195.898 55.2926C195.657 55.4006 195.384 55.4545 195.08 55.4545ZM210.35 44.2727H211.407V50.0511C211.407 50.6477 211.267 51.1804 210.985 51.6491C210.707 52.1151 210.314 52.483 209.805 52.7528C209.297 53.0199 208.7 53.1534 208.015 53.1534C207.331 53.1534 206.734 53.0199 206.225 52.7528C205.717 52.483 205.322 52.1151 205.041 51.6491C204.762 51.1804 204.623 50.6477 204.623 50.0511V44.2727H205.68V49.9659C205.68 50.392 205.774 50.7713 205.961 51.1037C206.149 51.4332 206.416 51.6932 206.762 51.8835C207.112 52.071 207.529 52.1648 208.015 52.1648C208.501 52.1648 208.919 52.071 209.268 51.8835C209.618 51.6932 209.885 51.4332 210.069 51.1037C210.257 50.7713 210.35 50.392 210.35 49.9659V44.2727ZM214.387 49.0625V53H213.381V46.4545H214.353V47.4773H214.438C214.592 47.1449 214.825 46.8778 215.137 46.6761C215.45 46.4716 215.853 46.3693 216.347 46.3693C216.79 46.3693 217.178 46.4602 217.511 46.642C217.843 46.821 218.102 47.0938 218.286 47.4602C218.471 47.8239 218.563 48.2841 218.563 48.8409V53H217.558V48.9091C217.558 48.3949 217.424 47.9943 217.157 47.7074C216.89 47.4176 216.523 47.2727 216.058 47.2727C215.737 47.2727 215.45 47.3423 215.197 47.4815C214.947 47.6207 214.749 47.8239 214.604 48.0909C214.46 48.358 214.387 48.6818 214.387 49.0625ZM220.401 53V46.4545H221.407V53H220.401ZM220.912 45.3636C220.716 45.3636 220.547 45.2969 220.405 45.1634C220.266 45.0298 220.196 44.8693 220.196 44.6818C220.196 44.4943 220.266 44.3338 220.405 44.2003C220.547 44.0668 220.716 44 220.912 44C221.108 44 221.276 44.0668 221.415 44.2003C221.557 44.3338 221.628 44.4943 221.628 44.6818C221.628 44.8693 221.557 45.0298 221.415 45.1634C221.276 45.2969 221.108 45.3636 220.912 45.3636ZM228.601 46.4545L226.18 53H225.158L222.737 46.4545H223.828L225.635 51.6705H225.703L227.51 46.4545H228.601ZM232.438 53.1364C231.808 53.1364 231.263 52.9972 230.806 52.7188C230.352 52.4375 230.001 52.0455 229.754 51.5426C229.509 51.0369 229.387 50.4489 229.387 49.7784C229.387 49.108 229.509 48.517 229.754 48.0057C230.001 47.4915 230.344 47.0909 230.785 46.804C231.228 46.5142 231.745 46.3693 232.336 46.3693C232.677 46.3693 233.013 46.4261 233.346 46.5398C233.678 46.6534 233.981 46.8381 234.254 47.0938C234.526 47.3466 234.744 47.6818 234.906 48.0994C235.067 48.517 235.148 49.0312 235.148 49.642V50.0682H230.103V49.1989H234.126C234.126 48.8295 234.052 48.5 233.904 48.2102C233.759 47.9205 233.552 47.6918 233.282 47.5241C233.015 47.3565 232.7 47.2727 232.336 47.2727C231.935 47.2727 231.589 47.3722 231.296 47.571C231.006 47.767 230.783 48.0227 230.627 48.3381C230.471 48.6534 230.393 48.9915 230.393 49.3523V49.9318C230.393 50.4261 230.478 50.8452 230.648 51.1889C230.822 51.5298 231.062 51.7898 231.369 51.9688C231.675 52.1449 232.032 52.233 232.438 52.233C232.702 52.233 232.941 52.196 233.154 52.1222C233.37 52.0455 233.556 51.9318 233.712 51.7812C233.869 51.6278 233.989 51.4375 234.075 51.2102L235.046 51.483C234.944 51.8125 234.772 52.1023 234.531 52.3523C234.289 52.5994 233.991 52.7926 233.636 52.9318C233.281 53.0682 232.881 53.1364 232.438 53.1364ZM236.678 53V46.4545H237.65V47.4432H237.718C237.837 47.1193 238.053 46.8565 238.366 46.6548C238.678 46.4531 239.031 46.3523 239.423 46.3523C239.496 46.3523 239.589 46.3537 239.7 46.3565C239.81 46.3594 239.894 46.3636 239.951 46.3693V47.392C239.917 47.3835 239.839 47.3707 239.717 47.3537C239.597 47.3338 239.471 47.3239 239.337 47.3239C239.019 47.3239 238.735 47.3906 238.485 47.5241C238.238 47.6548 238.042 47.8366 237.897 48.0696C237.755 48.2997 237.684 48.5625 237.684 48.858V53H236.678ZM245.779 47.9205L244.876 48.1761C244.819 48.0256 244.735 47.8793 244.625 47.7372C244.517 47.5923 244.369 47.473 244.181 47.3793C243.994 47.2855 243.754 47.2386 243.461 47.2386C243.061 47.2386 242.727 47.331 242.46 47.5156C242.196 47.6974 242.064 47.929 242.064 48.2102C242.064 48.4602 242.154 48.6577 242.336 48.8026C242.518 48.9474 242.802 49.0682 243.189 49.1648L244.16 49.4034C244.745 49.5455 245.181 49.7628 245.468 50.0554C245.755 50.3452 245.899 50.7187 245.899 51.1761C245.899 51.5511 245.791 51.8864 245.575 52.1818C245.362 52.4773 245.064 52.7102 244.68 52.8807C244.297 53.0511 243.85 53.1364 243.342 53.1364C242.674 53.1364 242.122 52.9915 241.684 52.7017C241.247 52.4119 240.97 51.9886 240.853 51.4318L241.808 51.1932C241.899 51.5455 242.071 51.8097 242.324 51.9858C242.579 52.1619 242.913 52.25 243.325 52.25C243.794 52.25 244.166 52.1506 244.441 51.9517C244.72 51.75 244.859 51.5085 244.859 51.2273C244.859 51 244.779 50.8097 244.62 50.6562C244.461 50.5 244.217 50.3835 243.887 50.3068L242.797 50.0511C242.197 49.9091 241.757 49.6889 241.475 49.3906C241.197 49.0895 241.058 48.7131 241.058 48.2614C241.058 47.892 241.162 47.5653 241.369 47.2812C241.579 46.9972 241.865 46.7741 242.225 46.6122C242.589 46.4503 243.001 46.3693 243.461 46.3693C244.109 46.3693 244.618 46.5114 244.987 46.7955C245.359 47.0795 245.623 47.4545 245.779 47.9205ZM247.413 53V46.4545H248.418V53H247.413ZM247.924 45.3636C247.728 45.3636 247.559 45.2969 247.417 45.1634C247.278 45.0298 247.208 44.8693 247.208 44.6818C247.208 44.4943 247.278 44.3338 247.417 44.2003C247.559 44.0668 247.728 44 247.924 44C248.12 44 248.288 44.0668 248.427 44.2003C248.569 44.3338 248.64 44.4943 248.64 44.6818C248.64 44.8693 248.569 45.0298 248.427 45.1634C248.288 45.2969 248.12 45.3636 247.924 45.3636ZM253.107 46.4545V47.3068H249.715V46.4545H253.107ZM250.703 44.8864H251.709V51.125C251.709 51.4091 251.75 51.6222 251.833 51.7642C251.918 51.9034 252.026 51.9972 252.157 52.0455C252.29 52.0909 252.431 52.1136 252.578 52.1136C252.689 52.1136 252.78 52.108 252.851 52.0966C252.922 52.0824 252.979 52.071 253.022 52.0625L253.226 52.9659C253.158 52.9915 253.063 53.017 252.941 53.0426C252.819 53.071 252.664 53.0852 252.476 53.0852C252.192 53.0852 251.914 53.0241 251.641 52.902C251.371 52.7798 251.147 52.5938 250.968 52.3438C250.792 52.0938 250.703 51.7784 250.703 51.3977V44.8864ZM255.267 55.4545C255.097 55.4545 254.945 55.4403 254.811 55.4119C254.678 55.3864 254.586 55.3608 254.534 55.3352L254.79 54.4489C255.034 54.5114 255.25 54.5341 255.438 54.517C255.625 54.5 255.792 54.4162 255.936 54.2656C256.084 54.1179 256.219 53.8778 256.341 53.5455L256.529 53.0341L254.108 46.4545H255.199L257.006 51.6705H257.074L258.881 46.4545H259.972L257.194 53.9545C257.069 54.2926 256.914 54.5724 256.729 54.794C256.544 55.0185 256.33 55.1847 256.086 55.2926C255.844 55.4006 255.571 55.4545 255.267 55.4545Z" fill="#768395"/>
<circle cx="18" cy="79" r="6" fill="#3178C6"/>
<circle cx="18" cy="79" r="5.5" stroke="white" stroke-opacity="0.14902"/>
<path d="M32.5795 75.7102V74.7727H39.125V75.7102H36.3807V83.5H35.3239V75.7102H32.5795ZM40.5174 85.9545C40.3469 85.9545 40.195 85.9403 40.0614 85.9119C39.9279 85.8864 39.8356 85.8608 39.7844 85.8352L40.0401 84.9489C40.2844 85.0114 40.5004 85.0341 40.6879 85.017C40.8754 85 41.0415 84.9162 41.1864 84.7656C41.3342 84.6179 41.4691 84.3778 41.5913 84.0455L41.7788 83.5341L39.3583 76.9545H40.4492L42.256 82.1705H42.3242L44.131 76.9545H45.2219L42.4435 84.4545C42.3185 84.7926 42.1637 85.0724 41.979 85.294C41.7944 85.5185 41.5799 85.6847 41.3356 85.7926C41.0941 85.9006 40.8214 85.9545 40.5174 85.9545ZM46.5494 85.9545V76.9545H47.521V77.9943H47.6403C47.7141 77.8807 47.8164 77.7358 47.9471 77.5597C48.0806 77.3807 48.271 77.2216 48.5181 77.0824C48.7681 76.9403 49.1062 76.8693 49.5323 76.8693C50.0835 76.8693 50.5692 77.0071 50.9897 77.2827C51.4102 77.5582 51.7383 77.9489 51.9741 78.4545C52.2099 78.9602 52.3278 79.5568 52.3278 80.2443C52.3278 80.9375 52.2099 81.5384 51.9741 82.0469C51.7383 82.5526 51.4116 82.9446 50.994 83.223C50.5763 83.4986 50.0948 83.6364 49.5494 83.6364C49.1289 83.6364 48.7923 83.5668 48.5394 83.4276C48.2866 83.2855 48.092 83.125 47.9556 82.946C47.8192 82.7642 47.7141 82.6136 47.6403 82.4943H47.555V85.9545H46.5494ZM47.538 80.2273C47.538 80.7216 47.6104 81.1577 47.7553 81.5355C47.9002 81.9105 48.1119 82.2045 48.3903 82.4176C48.6687 82.6278 49.0096 82.733 49.413 82.733C49.8335 82.733 50.1843 82.6222 50.4656 82.4006C50.7496 82.1761 50.9627 81.875 51.1048 81.4972C51.2496 81.1165 51.3221 80.6932 51.3221 80.2273C51.3221 79.767 51.2511 79.3523 51.109 78.983C50.9698 78.6108 50.7582 78.3168 50.4741 78.1009C50.1928 77.8821 49.8391 77.7727 49.413 77.7727C49.0039 77.7727 48.6602 77.8764 48.3817 78.0838C48.1033 78.2884 47.8931 78.5753 47.7511 78.9446C47.609 79.3111 47.538 79.7386 47.538 80.2273ZM56.6062 83.6364C55.9755 83.6364 55.4315 83.4972 54.9741 83.2188C54.5195 82.9375 54.1687 82.5455 53.9215 82.0426C53.6772 81.5369 53.555 80.9489 53.555 80.2784C53.555 79.608 53.6772 79.017 53.9215 78.5057C54.1687 77.9915 54.5124 77.5909 54.9528 77.304C55.396 77.0142 55.913 76.8693 56.5039 76.8693C56.8448 76.8693 57.1815 76.9261 57.5138 77.0398C57.8462 77.1534 58.1488 77.3381 58.4215 77.5938C58.6942 77.8466 58.9116 78.1818 59.0735 78.5994C59.2354 79.017 59.3164 79.5312 59.3164 80.142V80.5682H54.271V79.6989H58.2937C58.2937 79.3295 58.2198 79 58.0721 78.7102C57.9272 78.4205 57.7198 78.1918 57.4499 78.0241C57.1829 77.8565 56.8675 77.7727 56.5039 77.7727C56.1033 77.7727 55.7567 77.8722 55.4641 78.071C55.1744 78.267 54.9513 78.5227 54.7951 78.8381C54.6388 79.1534 54.5607 79.4915 54.5607 79.8523V80.4318C54.5607 80.9261 54.646 81.3452 54.8164 81.6889C54.9897 82.0298 55.2298 82.2898 55.5366 82.4688C55.8434 82.6449 56.1999 82.733 56.6062 82.733C56.8704 82.733 57.109 82.696 57.3221 82.6222C57.538 82.5455 57.7241 82.4318 57.8803 82.2812C58.0366 82.1278 58.1573 81.9375 58.2425 81.7102L59.2141 81.983C59.1119 82.3125 58.94 82.6023 58.6985 82.8523C58.457 83.0994 58.1587 83.2926 57.8036 83.4318C57.4485 83.5682 57.0494 83.6364 56.6062 83.6364ZM65.7553 76.9545C65.7042 76.5227 65.4968 76.1875 65.1332 75.9489C64.7695 75.7102 64.3235 75.5909 63.7951 75.5909C63.4087 75.5909 63.0707 75.6534 62.7809 75.7784C62.494 75.9034 62.2695 76.0753 62.1076 76.294C61.9485 76.5128 61.869 76.7614 61.869 77.0398C61.869 77.2727 61.9244 77.473 62.0352 77.6406C62.1488 77.8054 62.2937 77.9432 62.4698 78.054C62.646 78.1619 62.8306 78.2514 63.0238 78.3224C63.217 78.3906 63.3945 78.446 63.5565 78.4886L64.4428 78.7273C64.6701 78.7869 64.9229 78.8693 65.2013 78.9744C65.4826 79.0795 65.7511 79.223 66.0067 79.4048C66.2653 79.5838 66.4783 79.8139 66.646 80.0952C66.8136 80.3764 66.8974 80.7216 66.8974 81.1307C66.8974 81.6023 66.7738 82.0284 66.5266 82.4091C66.2823 82.7898 65.9244 83.0923 65.4528 83.3168C64.984 83.5412 64.4144 83.6534 63.744 83.6534C63.119 83.6534 62.5778 83.5526 62.1204 83.3509C61.6658 83.1491 61.3079 82.8679 61.0465 82.5071C60.788 82.1463 60.6417 81.7273 60.6076 81.25H61.6985C61.7269 81.5795 61.8377 81.8523 62.0309 82.0682C62.2269 82.2812 62.4741 82.4403 62.7724 82.5455C63.0735 82.6477 63.3974 82.6989 63.744 82.6989C64.1474 82.6989 64.5096 82.6335 64.8306 82.5028C65.1516 82.3693 65.4059 82.1847 65.5934 81.9489C65.7809 81.7102 65.8746 81.4318 65.8746 81.1136C65.8746 80.8239 65.7937 80.5881 65.6317 80.4062C65.4698 80.2244 65.2567 80.0767 64.9925 79.9631C64.7283 79.8494 64.4428 79.75 64.136 79.6648L63.0621 79.358C62.3803 79.1619 61.8406 78.8821 61.4428 78.5185C61.0451 78.1548 60.8462 77.679 60.8462 77.0909C60.8462 76.6023 60.9783 76.1761 61.2425 75.8125C61.5096 75.446 61.8675 75.1619 62.3164 74.9602C62.7681 74.7557 63.2724 74.6534 63.8292 74.6534C64.3917 74.6534 64.8917 74.7543 65.3292 74.956C65.7667 75.1548 66.1133 75.4276 66.369 75.7741C66.6275 76.1207 66.7638 76.5142 66.7781 76.9545H65.7553ZM71.1577 83.6364C70.544 83.6364 70.0156 83.4915 69.5724 83.2017C69.1293 82.9119 68.7884 82.5128 68.5497 82.0043C68.3111 81.4957 68.1918 80.9148 68.1918 80.2614C68.1918 79.5966 68.3139 79.0099 68.5582 78.5014C68.8054 77.9901 69.1491 77.5909 69.5895 77.304C70.0327 77.0142 70.5497 76.8693 71.1406 76.8693C71.6009 76.8693 72.0156 76.9545 72.3849 77.125C72.7543 77.2955 73.0568 77.5341 73.2926 77.8409C73.5284 78.1477 73.6747 78.5057 73.7315 78.9148H72.7259C72.6491 78.6165 72.4787 78.3523 72.2145 78.1222C71.9531 77.8892 71.6009 77.7727 71.1577 77.7727C70.7656 77.7727 70.4219 77.875 70.1264 78.0795C69.8338 78.2812 69.6051 78.5668 69.4403 78.9361C69.2784 79.3026 69.1974 79.733 69.1974 80.2273C69.1974 80.733 69.277 81.1733 69.4361 81.5483C69.598 81.9233 69.8253 82.2145 70.1179 82.4219C70.4134 82.6293 70.7599 82.733 71.1577 82.733C71.419 82.733 71.6562 82.6875 71.8693 82.5966C72.0824 82.5057 72.2628 82.375 72.4105 82.2045C72.5582 82.0341 72.6634 81.8295 72.7259 81.5909H73.7315C73.6747 81.9773 73.5341 82.3253 73.3097 82.6349C73.0881 82.9418 72.794 83.1861 72.4276 83.3679C72.0639 83.5469 71.6406 83.6364 71.1577 83.6364ZM75.2017 83.5V76.9545H76.1733V77.9432H76.2415C76.3608 77.6193 76.5767 77.3565 76.8892 77.1548C77.2017 76.9531 77.554 76.8523 77.946 76.8523C78.0199 76.8523 78.1122 76.8537 78.223 76.8565C78.3338 76.8594 78.4176 76.8636 78.4744 76.8693V77.892C78.4403 77.8835 78.3622 77.8707 78.2401 77.8537C78.1207 77.8338 77.9943 77.8239 77.8608 77.8239C77.5426 77.8239 77.2585 77.8906 77.0085 78.0241C76.7614 78.1548 76.5653 78.3366 76.4205 78.5696C76.2784 78.7997 76.2074 79.0625 76.2074 79.358V83.5H75.2017ZM79.6665 83.5V76.9545H80.6722V83.5H79.6665ZM80.1779 75.8636C79.9819 75.8636 79.8129 75.7969 79.6708 75.6634C79.5316 75.5298 79.462 75.3693 79.462 75.1818C79.462 74.9943 79.5316 74.8338 79.6708 74.7003C79.8129 74.5668 79.9819 74.5 80.1779 74.5C80.3739 74.5 80.5415 74.5668 80.6808 74.7003C80.8228 74.8338 80.8938 74.9943 80.8938 75.1818C80.8938 75.3693 80.8228 75.5298 80.6808 75.6634C80.5415 75.7969 80.3739 75.8636 80.1779 75.8636ZM82.5142 85.9545V76.9545H83.4858V77.9943H83.6051C83.679 77.8807 83.7813 77.7358 83.9119 77.5597C84.0455 77.3807 84.2358 77.2216 84.483 77.0824C84.733 76.9403 85.071 76.8693 85.4972 76.8693C86.0483 76.8693 86.5341 77.0071 86.9545 77.2827C87.375 77.5582 87.7031 77.9489 87.9389 78.4545C88.1747 78.9602 88.2926 79.5568 88.2926 80.2443C88.2926 80.9375 88.1747 81.5384 87.9389 82.0469C87.7031 82.5526 87.3764 82.9446 86.9588 83.223C86.5412 83.4986 86.0597 83.6364 85.5142 83.6364C85.0938 83.6364 84.7571 83.5668 84.5043 83.4276C84.2514 83.2855 84.0568 83.125 83.9205 82.946C83.7841 82.7642 83.679 82.6136 83.6051 82.4943H83.5199V85.9545H82.5142ZM83.5028 80.2273C83.5028 80.7216 83.5753 81.1577 83.7202 81.5355C83.8651 81.9105 84.0767 82.2045 84.3551 82.4176C84.6335 82.6278 84.9744 82.733 85.3778 82.733C85.7983 82.733 86.1491 82.6222 86.4304 82.4006C86.7145 82.1761 86.9276 81.875 87.0696 81.4972C87.2145 81.1165 87.2869 80.6932 87.2869 80.2273C87.2869 79.767 87.2159 79.3523 87.0739 78.983C86.9347 78.6108 86.723 78.3168 86.4389 78.1009C86.1577 77.8821 85.804 77.7727 85.3778 77.7727C84.9688 77.7727 84.625 77.8764 84.3466 78.0838C84.0682 78.2884 83.858 78.5753 83.7159 78.9446C83.5739 79.3111 83.5028 79.7386 83.5028 80.2273ZM92.6733 76.9545V77.8068H89.2812V76.9545H92.6733ZM90.2699 75.3864H91.2756V81.625C91.2756 81.9091 91.3168 82.1222 91.3991 82.2642C91.4844 82.4034 91.5923 82.4972 91.723 82.5455C91.8565 82.5909 91.9972 82.6136 92.1449 82.6136C92.2557 82.6136 92.3466 82.608 92.4176 82.5966C92.4886 82.5824 92.5455 82.571 92.5881 82.5625L92.7926 83.4659C92.7244 83.4915 92.6293 83.517 92.5071 83.5426C92.3849 83.571 92.2301 83.5852 92.0426 83.5852C91.7585 83.5852 91.4801 83.5241 91.2074 83.402C90.9375 83.2798 90.7131 83.0938 90.5341 82.8438C90.358 82.5938 90.2699 82.2784 90.2699 81.8977V75.3864Z" fill="#768395"/>
<rect x="106" y="68" width="83" height="22" rx="11" fill="#388BFD" fill-opacity="0.101961"/>
<path d="M123.023 77.5C122.929 77.2131 122.805 76.956 122.652 76.7287C122.501 76.4986 122.321 76.3026 122.111 76.1406C121.903 75.9787 121.668 75.8551 121.403 75.7699C121.139 75.6847 120.849 75.642 120.534 75.642C120.017 75.642 119.547 75.7756 119.124 76.0426C118.7 76.3097 118.364 76.7031 118.114 77.223C117.864 77.7429 117.739 78.3807 117.739 79.1364C117.739 79.892 117.865 80.5298 118.118 81.0497C118.371 81.5696 118.713 81.9631 119.145 82.2301C119.577 82.4972 120.063 82.6307 120.602 82.6307C121.102 82.6307 121.543 82.5241 121.923 82.3111C122.307 82.0952 122.605 81.7912 122.818 81.3991C123.034 81.0043 123.142 80.5398 123.142 80.0057L123.466 80.0739H120.841V79.1364H124.165V80.0739C124.165 80.7926 124.011 81.4176 123.705 81.9489C123.401 82.4801 122.98 82.892 122.443 83.1847C121.909 83.4744 121.295 83.6193 120.602 83.6193C119.83 83.6193 119.151 83.4375 118.565 83.0739C117.983 82.7102 117.528 82.1932 117.202 81.5227C116.878 80.8523 116.716 80.0568 116.716 79.1364C116.716 78.446 116.808 77.8253 116.993 77.2741C117.18 76.7202 117.445 76.2486 117.786 75.8594C118.126 75.4702 118.53 75.1719 118.996 74.9645C119.462 74.7571 119.974 74.6534 120.534 74.6534C120.994 74.6534 121.423 74.723 121.821 74.8622C122.222 74.9986 122.578 75.1932 122.891 75.446C123.206 75.696 123.469 75.9957 123.679 76.3452C123.889 76.6918 124.034 77.0767 124.114 77.5H123.023ZM126.249 83.5V76.9545H127.254V83.5H126.249ZM126.76 75.8636C126.564 75.8636 126.395 75.7969 126.253 75.6634C126.114 75.5298 126.044 75.3693 126.044 75.1818C126.044 74.9943 126.114 74.8338 126.253 74.7003C126.395 74.5668 126.564 74.5 126.76 74.5C126.956 74.5 127.124 74.5668 127.263 74.7003C127.405 74.8338 127.476 74.9943 127.476 75.1818C127.476 75.3693 127.405 75.5298 127.263 75.6634C127.124 75.7969 126.956 75.8636 126.76 75.8636ZM131.943 76.9545V77.8068H128.551V76.9545H131.943ZM129.539 75.3864H130.545V81.625C130.545 81.9091 130.586 82.1222 130.669 82.2642C130.754 82.4034 130.862 82.4972 130.993 82.5455C131.126 82.5909 131.267 82.6136 131.414 82.6136C131.525 82.6136 131.616 82.608 131.687 82.5966C131.758 82.5824 131.815 82.571 131.858 82.5625L132.062 83.4659C131.994 83.4915 131.899 83.517 131.777 83.5426C131.654 83.571 131.5 83.5852 131.312 83.5852C131.028 83.5852 130.75 83.5241 130.477 83.402C130.207 83.2798 129.983 83.0938 129.804 82.8438C129.627 82.5938 129.539 82.2784 129.539 81.8977V75.3864ZM133.733 83.5V74.7727H134.789V78.6591H139.443V74.7727H140.5V83.5H139.443V79.5966H134.789V83.5H133.733ZM146.604 80.8239V76.9545H147.61V83.5H146.604V82.392H146.536C146.382 82.7244 146.144 83.0071 145.82 83.2401C145.496 83.4702 145.087 83.5852 144.593 83.5852C144.184 83.5852 143.82 83.4957 143.502 83.3168C143.184 83.1349 142.934 82.8622 142.752 82.4986C142.57 82.1321 142.479 81.6705 142.479 81.1136V76.9545H143.485V81.0455C143.485 81.5227 143.618 81.9034 143.885 82.1875C144.155 82.4716 144.499 82.6136 144.917 82.6136C145.167 82.6136 145.421 82.5497 145.679 82.4219C145.941 82.294 146.159 82.098 146.336 81.8338C146.515 81.5696 146.604 81.233 146.604 80.8239ZM149.588 83.5V74.7727H150.594V77.9943H150.679C150.753 77.8807 150.855 77.7358 150.986 77.5597C151.119 77.3807 151.31 77.2216 151.557 77.0824C151.807 76.9403 152.145 76.8693 152.571 76.8693C153.122 76.8693 153.608 77.0071 154.028 77.2827C154.449 77.5582 154.777 77.9489 155.013 78.4545C155.249 78.9602 155.366 79.5568 155.366 80.2443C155.366 80.9375 155.249 81.5384 155.013 82.0469C154.777 82.5526 154.45 82.9446 154.033 83.223C153.615 83.4986 153.134 83.6364 152.588 83.6364C152.168 83.6364 151.831 83.5668 151.578 83.4276C151.325 83.2855 151.131 83.125 150.994 82.946C150.858 82.7642 150.753 82.6136 150.679 82.4943H150.56V83.5H149.588ZM150.577 80.2273C150.577 80.7216 150.649 81.1577 150.794 81.5355C150.939 81.9105 151.151 82.2045 151.429 82.4176C151.707 82.6278 152.048 82.733 152.452 82.733C152.872 82.733 153.223 82.6222 153.504 82.4006C153.788 82.1761 154.001 81.875 154.143 81.4972C154.288 81.1165 154.361 80.6932 154.361 80.2273C154.361 79.767 154.29 79.3523 154.148 78.983C154.009 78.6108 153.797 78.3168 153.513 78.1009C153.232 77.8821 152.878 77.7727 152.452 77.7727C152.043 77.7727 151.699 77.8764 151.42 78.0838C151.142 78.2884 150.932 78.5753 150.79 78.9446C150.648 79.3111 150.577 79.7386 150.577 80.2273ZM160.774 83.5H159.666L162.871 74.7727H163.962L167.166 83.5H166.058L163.45 76.1534H163.382L160.774 83.5ZM161.183 80.0909H165.649V81.0284H161.183V80.0909ZM168.526 83.5V74.7727H171.474C172.159 74.7727 172.719 74.8963 173.153 75.1435C173.591 75.3878 173.915 75.7188 174.125 76.1364C174.335 76.554 174.44 77.0199 174.44 77.5341C174.44 78.0483 174.335 78.5156 174.125 78.9361C173.918 79.3565 173.597 79.6918 173.162 79.9418C172.727 80.1889 172.17 80.3125 171.491 80.3125H169.378V79.375H171.457C171.926 79.375 172.303 79.294 172.587 79.1321C172.871 78.9702 173.077 78.7514 173.205 78.4759C173.335 78.1974 173.401 77.8835 173.401 77.5341C173.401 77.1847 173.335 76.8722 173.205 76.5966C173.077 76.321 172.869 76.1051 172.582 75.9489C172.295 75.7898 171.915 75.7102 171.44 75.7102H169.582V83.5H168.526ZM177.2 74.7727V83.5H176.143V74.7727H177.2Z" fill="#4493F8"/>
<rect x="201" y="68" width="75" height="22" rx="11" fill="#388BFD" fill-opacity="0.101961"/>
<path d="M213.114 74.7727V83.5H212.057V74.7727H213.114ZM216.102 79.5625V83.5H215.096V76.9545H216.068V77.9773H216.153C216.306 77.6449 216.539 77.3778 216.852 77.1761C217.164 76.9716 217.568 76.8693 218.062 76.8693C218.505 76.8693 218.893 76.9602 219.225 77.142C219.558 77.321 219.816 77.5938 220.001 77.9602C220.186 78.3239 220.278 78.7841 220.278 79.3409V83.5H219.272V79.4091C219.272 78.8949 219.139 78.4943 218.872 78.2074C218.605 77.9176 218.238 77.7727 217.772 77.7727C217.451 77.7727 217.164 77.8423 216.912 77.9815C216.662 78.1207 216.464 78.3239 216.319 78.5909C216.174 78.858 216.102 79.1818 216.102 79.5625ZM226.582 85.9545V82.4943H226.496C226.423 82.6136 226.317 82.7642 226.181 82.946C226.045 83.125 225.85 83.2855 225.597 83.4276C225.344 83.5668 225.008 83.6364 224.587 83.6364C224.042 83.6364 223.56 83.4986 223.143 83.223C222.725 82.9446 222.398 82.5526 222.163 82.0469C221.927 81.5384 221.809 80.9375 221.809 80.2443C221.809 79.5568 221.927 78.9602 222.163 78.4545C222.398 77.9489 222.727 77.5582 223.147 77.2827C223.567 77.0071 224.053 76.8693 224.604 76.8693C225.031 76.8693 225.367 76.9403 225.614 77.0824C225.864 77.2216 226.055 77.3807 226.185 77.5597C226.319 77.7358 226.423 77.8807 226.496 77.9943H226.616V76.9545H227.587V85.9545H226.582ZM224.724 82.733C225.127 82.733 225.468 82.6278 225.746 82.4176C226.025 82.2045 226.237 81.9105 226.381 81.5355C226.526 81.1577 226.599 80.7216 226.599 80.2273C226.599 79.7386 226.528 79.3111 226.386 78.9446C226.244 78.5753 226.033 78.2884 225.755 78.0838C225.477 77.8764 225.133 77.7727 224.724 77.7727C224.298 77.7727 223.942 77.8821 223.658 78.1009C223.377 78.3168 223.165 78.6108 223.023 78.983C222.884 79.3523 222.815 79.767 222.815 80.2273C222.815 80.6932 222.886 81.1165 223.028 81.4972C223.173 81.875 223.386 82.1761 223.667 82.4006C223.951 82.6222 224.303 82.733 224.724 82.733ZM233.553 80.8239V76.9545H234.559V83.5H233.553V82.392H233.485C233.332 82.7244 233.093 83.0071 232.769 83.2401C232.445 83.4702 232.036 83.5852 231.542 83.5852C231.133 83.5852 230.769 83.4957 230.451 83.3168C230.133 83.1349 229.883 82.8622 229.701 82.4986C229.519 82.1321 229.428 81.6705 229.428 81.1136V76.9545H230.434V81.0455C230.434 81.5227 230.567 81.9034 230.835 82.1875C231.104 82.4716 231.448 82.6136 231.866 82.6136C232.116 82.6136 232.37 82.5497 232.629 82.4219C232.89 82.294 233.109 82.098 233.285 81.8338C233.464 81.5696 233.553 81.233 233.553 80.8239ZM236.401 83.5V76.9545H237.407V83.5H236.401ZM236.912 75.8636C236.716 75.8636 236.547 75.7969 236.405 75.6634C236.266 75.5298 236.196 75.3693 236.196 75.1818C236.196 74.9943 236.266 74.8338 236.405 74.7003C236.547 74.5668 236.716 74.5 236.912 74.5C237.108 74.5 237.276 74.5668 237.415 74.7003C237.557 74.8338 237.628 74.9943 237.628 75.1818C237.628 75.3693 237.557 75.5298 237.415 75.6634C237.276 75.7969 237.108 75.8636 236.912 75.8636ZM239.249 83.5V76.9545H240.22V77.9432H240.288C240.408 77.6193 240.624 77.3565 240.936 77.1548C241.249 76.9531 241.601 76.8523 241.993 76.8523C242.067 76.8523 242.159 76.8537 242.27 76.8565C242.381 76.8594 242.464 76.8636 242.521 76.8693V77.892C242.487 77.8835 242.409 77.8707 242.287 77.8537C242.168 77.8338 242.041 77.8239 241.908 77.8239C241.589 77.8239 241.305 77.8906 241.055 78.0241C240.808 78.1548 240.612 78.3366 240.467 78.5696C240.325 78.7997 240.254 79.0625 240.254 79.358V83.5H239.249ZM246.259 83.6364C245.628 83.6364 245.084 83.4972 244.626 83.2188C244.172 82.9375 243.821 82.5455 243.574 82.0426C243.33 81.5369 243.207 80.9489 243.207 80.2784C243.207 79.608 243.33 79.017 243.574 78.5057C243.821 77.9915 244.165 77.5909 244.605 77.304C245.048 77.0142 245.565 76.8693 246.156 76.8693C246.497 76.8693 246.834 76.9261 247.166 77.0398C247.499 77.1534 247.801 77.3381 248.074 77.5938C248.347 77.8466 248.564 78.1818 248.726 78.5994C248.888 79.017 248.969 79.5312 248.969 80.142V80.5682H243.923V79.6989H247.946C247.946 79.3295 247.872 79 247.724 78.7102C247.58 78.4205 247.372 78.1918 247.102 78.0241C246.835 77.8565 246.52 77.7727 246.156 77.7727C245.756 77.7727 245.409 77.8722 245.116 78.071C244.827 78.267 244.604 78.5227 244.447 78.8381C244.291 79.1534 244.213 79.4915 244.213 79.8523V80.4318C244.213 80.9261 244.298 81.3452 244.469 81.6889C244.642 82.0298 244.882 82.2898 245.189 82.4688C245.496 82.6449 245.852 82.733 246.259 82.733C246.523 82.733 246.761 82.696 246.974 82.6222C247.19 82.5455 247.376 82.4318 247.533 82.2812C247.689 82.1278 247.81 81.9375 247.895 81.7102L248.866 81.983C248.764 82.3125 248.592 82.6023 248.351 82.8523C248.109 83.0994 247.811 83.2926 247.456 83.4318C247.101 83.5682 246.702 83.6364 246.259 83.6364ZM250.499 83.5V76.9545H251.47V77.9432H251.538C251.658 77.6193 251.874 77.3565 252.186 77.1548C252.499 76.9531 252.851 76.8523 253.243 76.8523C253.317 76.8523 253.409 76.8537 253.52 76.8565C253.631 76.8594 253.714 76.8636 253.771 76.8693V77.892C253.737 77.8835 253.659 77.8707 253.537 77.8537C253.418 77.8338 253.291 77.8239 253.158 77.8239C252.839 77.8239 252.555 77.8906 252.305 78.0241C252.058 78.1548 251.862 78.3366 251.717 78.5696C251.575 78.7997 251.504 79.0625 251.504 79.358V83.5H250.499ZM254.946 83.5682C254.736 83.5682 254.556 83.4929 254.405 83.3423C254.255 83.1918 254.179 83.0114 254.179 82.8011C254.179 82.5909 254.255 82.4105 254.405 82.2599C254.556 82.1094 254.736 82.0341 254.946 82.0341C255.157 82.0341 255.337 82.1094 255.488 82.2599C255.638 82.4105 255.713 82.5909 255.713 82.8011C255.713 82.9403 255.678 83.0682 255.607 83.1847C255.539 83.3011 255.446 83.3949 255.33 83.4659C255.216 83.5341 255.088 83.5682 254.946 83.5682ZM257.518 76.9545H258.524V83.9773C258.524 84.3807 258.454 84.7301 258.315 85.0256C258.179 85.321 257.971 85.5497 257.693 85.7116C257.417 85.8736 257.069 85.9545 256.649 85.9545C256.615 85.9545 256.581 85.9545 256.547 85.9545C256.512 85.9545 256.478 85.9545 256.444 85.9545V85.017C256.478 85.017 256.51 85.017 256.538 85.017C256.566 85.017 256.598 85.017 256.632 85.017C256.939 85.017 257.163 84.9261 257.305 84.7443C257.447 84.5653 257.518 84.3097 257.518 83.9773V76.9545ZM258.012 75.8636C257.816 75.8636 257.647 75.7969 257.505 75.6634C257.366 75.5298 257.297 75.3693 257.297 75.1818C257.297 74.9943 257.366 74.8338 257.505 74.7003C257.647 74.5668 257.816 74.5 258.012 74.5C258.208 74.5 258.376 74.5668 258.515 74.7003C258.657 74.8338 258.728 74.9943 258.728 75.1818C258.728 75.3693 258.657 75.5298 258.515 75.6634C258.376 75.7969 258.208 75.8636 258.012 75.8636ZM265.002 78.4205L264.099 78.6761C264.042 78.5256 263.958 78.3793 263.847 78.2372C263.739 78.0923 263.592 77.973 263.404 77.8793C263.217 77.7855 262.977 77.7386 262.684 77.7386C262.283 77.7386 261.95 77.831 261.683 78.0156C261.418 78.1974 261.286 78.429 261.286 78.7102C261.286 78.9602 261.377 79.1577 261.559 79.3026C261.741 79.4474 262.025 79.5682 262.411 79.6648L263.383 79.9034C263.968 80.0455 264.404 80.2628 264.691 80.5554C264.978 80.8452 265.121 81.2187 265.121 81.6761C265.121 82.0511 265.013 82.3864 264.798 82.6818C264.585 82.9773 264.286 83.2102 263.903 83.3807C263.519 83.5511 263.073 83.6364 262.565 83.6364C261.897 83.6364 261.344 83.4915 260.907 83.2017C260.469 82.9119 260.192 82.4886 260.076 81.9318L261.031 81.6932C261.121 82.0455 261.293 82.3097 261.546 82.4858C261.802 82.6619 262.136 82.75 262.548 82.75C263.016 82.75 263.388 82.6506 263.664 82.4517C263.942 82.25 264.082 82.0085 264.082 81.7273C264.082 81.5 264.002 81.3097 263.843 81.1562C263.684 81 263.44 80.8835 263.11 80.8068L262.019 80.5511C261.42 80.4091 260.979 80.1889 260.698 79.8906C260.42 79.5895 260.281 79.2131 260.281 78.7614C260.281 78.392 260.384 78.0653 260.592 77.7812C260.802 77.4972 261.087 77.2741 261.448 77.1122C261.812 76.9503 262.224 76.8693 262.684 76.8693C263.332 76.8693 263.84 77.0114 264.21 77.2955C264.582 77.5795 264.846 77.9545 265.002 78.4205Z" fill="#4493F8"/>
</svg>
