<svg width="418" height="114" viewBox="0 0 418 114" fill="none" xmlns="http://www.w3.org/2000/svg">
<rect x="0.199951" width="417.2" height="102" rx="6" fill="#768395" fill-opacity="0.1"/>
<path d="M15.0487 15.8182V26H13.2042V15.8182H15.0487ZM18.7662 21.5256V26H16.9665V18.3636H18.6866V19.6612H18.7761C18.9518 19.2337 19.2319 18.8939 19.6163 18.642C20.0041 18.3902 20.483 18.2642 21.0531 18.2642C21.5801 18.2642 22.0391 18.3769 22.4302 18.6023C22.8247 18.8277 23.1296 19.1541 23.345 19.5817C23.5638 20.0092 23.6715 20.5279 23.6682 21.1378V26H21.8685V21.4162C21.8685 20.9058 21.7359 20.5064 21.4707 20.218C21.2089 19.9297 20.846 19.7855 20.3819 19.7855C20.0671 19.7855 19.787 19.8551 19.5417 19.9943C19.2998 20.1302 19.1092 20.3274 18.97 20.5859C18.8341 20.8445 18.7662 21.1577 18.7662 21.5256ZM28.3315 26.1342C27.7316 26.1342 27.1947 25.9801 26.7207 25.6719C26.2468 25.3636 25.8722 24.9162 25.5971 24.3295C25.3221 23.7429 25.1845 23.0303 25.1845 22.1918C25.1845 21.3433 25.3237 20.6274 25.6021 20.044C25.8838 19.4574 26.2633 19.0149 26.7406 18.7166C27.2179 18.415 27.7498 18.2642 28.3365 18.2642C28.7839 18.2642 29.1518 18.3404 29.4402 18.4929C29.7285 18.642 29.9572 18.8227 30.1263 19.0348C30.2953 19.2436 30.4262 19.4408 30.519 19.6264H30.5936V15.8182H32.3983V26H30.6284V24.7969H30.519C30.4262 24.9825 30.292 25.1797 30.1163 25.3885C29.9407 25.594 29.7087 25.7696 29.4203 25.9155C29.1319 26.0613 28.769 26.1342 28.3315 26.1342ZM28.8337 24.6577C29.2148 24.6577 29.5396 24.5549 29.8081 24.3494C30.0765 24.1406 30.2804 23.8506 30.4196 23.4794C30.5588 23.1082 30.6284 22.6757 30.6284 22.1818C30.6284 21.688 30.5588 21.2588 30.4196 20.8942C30.2837 20.5296 30.0815 20.2462 29.8131 20.044C29.5479 19.8419 29.2214 19.7408 28.8337 19.7408C28.4326 19.7408 28.0979 19.8452 27.8294 20.054C27.5609 20.2628 27.3587 20.5511 27.2229 20.919C27.087 21.2869 27.019 21.7079 27.019 22.1818C27.019 22.6591 27.087 23.085 27.2229 23.4595C27.3621 23.8307 27.5659 24.1241 27.8344 24.3395C28.1061 24.5516 28.4392 24.6577 28.8337 24.6577ZM34.3161 26V18.3636H36.1158V26H34.3161ZM35.2209 17.2798C34.9359 17.2798 34.6906 17.1854 34.4851 16.9964C34.2796 16.8042 34.1769 16.5739 34.1769 16.3054C34.1769 16.0336 34.2796 15.8033 34.4851 15.6143C34.6906 15.4221 34.9359 15.326 35.2209 15.326C35.5093 15.326 35.7545 15.4221 35.9567 15.6143C36.1622 15.8033 36.2649 16.0336 36.2649 16.3054C36.2649 16.5739 36.1622 16.8042 35.9567 16.9964C35.7545 17.1854 35.5093 17.2798 35.2209 17.2798ZM39.8867 15.8182L42.5366 23.8324H42.641L45.2859 15.8182H47.3143L43.7248 26H41.4478L37.8633 15.8182H39.8867ZM48.5758 26V18.3636H50.3756V26H48.5758ZM49.4807 17.2798C49.1956 17.2798 48.9504 17.1854 48.7449 16.9964C48.5394 16.8042 48.4366 16.5739 48.4366 16.3054C48.4366 16.0336 48.5394 15.8033 48.7449 15.6143C48.9504 15.4221 49.1956 15.326 49.4807 15.326C49.769 15.326 50.0143 15.4221 50.2165 15.6143C50.422 15.8033 50.5247 16.0336 50.5247 16.3054C50.5247 16.5739 50.422 16.8042 50.2165 16.9964C50.0143 17.1854 49.769 17.2798 49.4807 17.2798ZM58.2617 20.3821L56.6211 20.5611C56.5747 20.3954 56.4935 20.2396 56.3775 20.0938C56.2648 19.9479 56.1124 19.8303 55.9201 19.7408C55.7279 19.6513 55.4926 19.6065 55.2142 19.6065C54.8396 19.6065 54.5248 19.6877 54.2696 19.8501C54.0177 20.0125 53.8934 20.223 53.8967 20.4815C53.8934 20.7036 53.9746 20.8842 54.1403 21.0234C54.3093 21.1626 54.5877 21.277 54.9755 21.3665L56.2781 21.6449C57.0006 21.8007 57.5375 22.0476 57.8889 22.3857C58.2435 22.7237 58.4225 23.1662 58.4258 23.7131C58.4225 24.1937 58.2816 24.6179 58.0032 24.9858C57.7281 25.3504 57.3453 25.6354 56.8548 25.8409C56.3643 26.0464 55.8008 26.1491 55.1644 26.1491C54.2298 26.1491 53.4774 25.9536 52.9073 25.5625C52.3373 25.1681 51.9975 24.6196 51.8882 23.9169L53.6431 23.7479C53.7227 24.0926 53.8917 24.3527 54.1502 24.5284C54.4088 24.7041 54.7452 24.7919 55.1595 24.7919C55.587 24.7919 55.9301 24.7041 56.1886 24.5284C56.4504 24.3527 56.5813 24.1357 56.5813 23.8771C56.5813 23.6584 56.4968 23.4777 56.3278 23.3352C56.1621 23.1927 55.9035 23.0833 55.5522 23.0071L54.2497 22.7337C53.5172 22.5812 52.9753 22.3243 52.624 21.9631C52.2726 21.5985 52.0986 21.1378 52.1019 20.581C52.0986 20.1103 52.2262 19.7027 52.4848 19.358C52.7466 19.0099 53.1095 18.7415 53.5735 18.5526C54.0409 18.3603 54.5794 18.2642 55.1893 18.2642C56.0842 18.2642 56.7885 18.4548 57.3022 18.8359C57.8193 19.2171 58.1391 19.7325 58.2617 20.3821ZM64.777 22.7884V18.3636H66.5767V26H64.8317V24.6428H64.7522C64.5798 25.0703 64.2964 25.42 63.902 25.6918C63.5109 25.9635 63.0287 26.0994 62.4553 26.0994C61.9548 26.0994 61.5123 25.9884 61.1279 25.7663C60.7467 25.541 60.4484 25.2145 60.233 24.7869C60.0175 24.3561 59.9098 23.8357 59.9098 23.2259V18.3636H61.7095V22.9474C61.7095 23.4313 61.8421 23.8158 62.1073 24.1009C62.3724 24.3859 62.7204 24.5284 63.1513 24.5284C63.4165 24.5284 63.6733 24.4638 63.9219 24.3345C64.1705 24.2053 64.3743 24.013 64.5334 23.7578C64.6958 23.4993 64.777 23.1761 64.777 22.7884ZM70.6248 26.1541C70.1409 26.1541 69.7051 26.0679 69.3173 25.8956C68.9328 25.7199 68.6279 25.4614 68.4025 25.12C68.1805 24.7786 68.0694 24.3577 68.0694 23.8572C68.0694 23.4264 68.149 23.0701 68.3081 22.7884C68.4672 22.5066 68.6843 22.2812 68.9594 22.1122C69.2345 21.9432 69.5444 21.8156 69.889 21.7294C70.2371 21.6399 70.5967 21.5753 70.9679 21.5355C71.4153 21.4891 71.7783 21.4477 72.0567 21.4112C72.3351 21.3714 72.5373 21.3118 72.6632 21.2322C72.7925 21.1494 72.8571 21.0218 72.8571 20.8494V20.8196C72.8571 20.4451 72.7461 20.1551 72.524 19.9496C72.3019 19.7441 71.9821 19.6413 71.5645 19.6413C71.1237 19.6413 70.774 19.7375 70.5155 19.9297C70.2603 20.1219 70.0879 20.349 69.9984 20.6108L68.318 20.3722C68.4506 19.9081 68.6694 19.5204 68.9743 19.2088C69.2792 18.8939 69.6521 18.6586 70.0929 18.5028C70.5337 18.3438 71.0209 18.2642 71.5545 18.2642C71.9224 18.2642 72.2887 18.3073 72.6533 18.3935C73.0178 18.4796 73.3509 18.6222 73.6525 18.821C73.9542 19.0166 74.1961 19.2834 74.3784 19.6214C74.564 19.9595 74.6568 20.3821 74.6568 20.8892V26H72.9267V24.951H72.867C72.7577 25.1631 72.6035 25.362 72.4047 25.5476C72.2091 25.7299 71.9622 25.8774 71.6639 25.9901C71.3689 26.0994 71.0226 26.1541 70.6248 26.1541ZM71.0922 24.8317C71.4534 24.8317 71.7667 24.7604 72.0318 24.6179C72.297 24.4721 72.5008 24.2798 72.6433 24.0412C72.7891 23.8026 72.8621 23.5424 72.8621 23.2607V22.3608C72.8057 22.4072 72.7096 22.4503 72.5737 22.4901C72.4411 22.5298 72.292 22.5646 72.1263 22.5945C71.9605 22.6243 71.7965 22.6508 71.6341 22.674C71.4717 22.6972 71.3308 22.7171 71.2115 22.7337C70.943 22.7701 70.7027 22.8298 70.4906 22.9126C70.2785 22.9955 70.1111 23.1115 69.9885 23.2607C69.8658 23.4065 69.8045 23.5954 69.8045 23.8274C69.8045 24.1589 69.9255 24.4091 70.1675 24.5781C70.4094 24.7472 70.7176 24.8317 71.0922 24.8317ZM78.2662 15.8182V26H76.4665V15.8182H78.2662ZM83.6691 26V15.8182H90.2912V17.3643H85.5135V20.1286H89.9482V21.6747H85.5135V24.4538H90.331V26H83.6691ZM93.212 28.8636C92.9668 28.8636 92.7397 28.8438 92.5309 28.804C92.3254 28.7675 92.1614 28.7244 92.0387 28.6747L92.4563 27.2727C92.7182 27.349 92.9518 27.3854 93.1573 27.3821C93.3628 27.3788 93.5435 27.3142 93.6992 27.1882C93.8583 27.0656 93.9926 26.8601 94.1019 26.5717L94.2561 26.1591L91.4869 18.3636H93.396L95.1559 24.1307H95.2355L97.0004 18.3636H98.9144L95.8569 26.9247C95.7144 27.3291 95.5255 27.6754 95.2902 27.9638C95.0548 28.2554 94.7665 28.4775 94.4251 28.63C94.087 28.7857 93.6827 28.8636 93.212 28.8636ZM103.281 26.1491C102.515 26.1491 101.854 25.9901 101.297 25.6719C100.744 25.3504 100.318 24.8963 100.019 24.3097C99.7211 23.7197 99.5719 23.0253 99.5719 22.2266C99.5719 21.4411 99.7211 20.7517 100.019 20.1584C100.321 19.5618 100.742 19.0978 101.282 18.7663C101.822 18.4316 102.457 18.2642 103.186 18.2642C103.657 18.2642 104.101 18.3404 104.519 18.4929C104.94 18.642 105.311 18.8741 105.632 19.1889C105.957 19.5038 106.212 19.9048 106.398 20.392C106.584 20.8759 106.676 21.4527 106.676 22.1222V22.674H100.417V21.4609H104.951C104.948 21.1162 104.873 20.8097 104.727 20.5412C104.582 20.2694 104.378 20.0556 104.116 19.8999C103.857 19.7441 103.556 19.6662 103.211 19.6662C102.843 19.6662 102.52 19.7557 102.242 19.9347C101.963 20.1103 101.746 20.3423 101.59 20.6307C101.438 20.9157 101.36 21.2289 101.357 21.5703V22.6293C101.357 23.0734 101.438 23.4545 101.6 23.7727C101.763 24.0876 101.99 24.3295 102.281 24.4986C102.573 24.6643 102.914 24.7472 103.306 24.7472C103.567 24.7472 103.804 24.7107 104.017 24.6378C104.229 24.5616 104.413 24.4505 104.568 24.3047C104.724 24.1589 104.842 23.9782 104.921 23.7628L106.602 23.9517C106.496 24.3958 106.294 24.7836 105.995 25.1151C105.7 25.4432 105.322 25.6984 104.862 25.8807C104.401 26.0597 103.874 26.1491 103.281 26.1491ZM114.234 20.3821L112.594 20.5611C112.547 20.3954 112.466 20.2396 112.35 20.0938C112.237 19.9479 112.085 19.8303 111.893 19.7408C111.701 19.6513 111.465 19.6065 111.187 19.6065C110.812 19.6065 110.497 19.6877 110.242 19.8501C109.99 20.0125 109.866 20.223 109.869 20.4815C109.866 20.7036 109.947 20.8842 110.113 21.0234C110.282 21.1626 110.56 21.277 110.948 21.3665L112.251 21.6449C112.973 21.8007 113.51 22.0476 113.862 22.3857C114.216 22.7237 114.395 23.1662 114.398 23.7131C114.395 24.1937 114.254 24.6179 113.976 24.9858C113.701 25.3504 113.318 25.6354 112.827 25.8409C112.337 26.0464 111.773 26.1491 111.137 26.1491C110.202 26.1491 109.45 25.9536 108.88 25.5625C108.31 25.1681 107.97 24.6196 107.861 23.9169L109.616 23.7479C109.695 24.0926 109.864 24.3527 110.123 24.5284C110.381 24.7041 110.718 24.7919 111.132 24.7919C111.56 24.7919 111.903 24.7041 112.161 24.5284C112.423 24.3527 112.554 24.1357 112.554 23.8771C112.554 23.6584 112.469 23.4777 112.3 23.3352C112.135 23.1927 111.876 23.0833 111.525 23.0071L110.222 22.7337C109.49 22.5812 108.948 22.3243 108.597 21.9631C108.245 21.5985 108.071 21.1378 108.075 20.581C108.071 20.1103 108.199 19.7027 108.457 19.358C108.719 19.0099 109.082 18.7415 109.546 18.5526C110.014 18.3603 110.552 18.2642 111.162 18.2642C112.057 18.2642 112.761 18.4548 113.275 18.8359C113.792 19.2171 114.112 19.7325 114.234 20.3821ZM120.742 26H118.773L122.358 15.8182H124.635L128.224 26H126.256L123.536 17.9062H123.457L120.742 26ZM120.807 22.0078H126.176V23.4893H120.807V22.0078ZM129.486 28.8636V18.3636H131.256V19.6264H131.36C131.453 19.4408 131.584 19.2436 131.753 19.0348C131.922 18.8227 132.151 18.642 132.439 18.4929C132.727 18.3404 133.095 18.2642 133.543 18.2642C134.133 18.2642 134.665 18.415 135.139 18.7166C135.616 19.0149 135.994 19.4574 136.272 20.044C136.554 20.6274 136.695 21.3433 136.695 22.1918C136.695 23.0303 136.557 23.7429 136.282 24.3295C136.007 24.9162 135.633 25.3636 135.159 25.6719C134.685 25.9801 134.148 26.1342 133.548 26.1342C133.11 26.1342 132.747 26.0613 132.459 25.9155C132.171 25.7696 131.939 25.594 131.763 25.3885C131.591 25.1797 131.456 24.9825 131.36 24.7969H131.286V28.8636H129.486ZM131.251 22.1818C131.251 22.6757 131.321 23.1082 131.46 23.4794C131.602 23.8506 131.806 24.1406 132.071 24.3494C132.34 24.5549 132.664 24.6577 133.046 24.6577C133.443 24.6577 133.776 24.5516 134.045 24.3395C134.313 24.1241 134.516 23.8307 134.651 23.4595C134.791 23.085 134.86 22.6591 134.86 22.1818C134.86 21.7079 134.792 21.2869 134.656 20.919C134.521 20.5511 134.318 20.2628 134.05 20.054C133.781 19.8452 133.447 19.7408 133.046 19.7408C132.661 19.7408 132.335 19.8419 132.066 20.044C131.798 20.2462 131.594 20.5296 131.455 20.8942C131.319 21.2588 131.251 21.688 131.251 22.1818ZM138.236 28.8636V18.3636H140.006V19.6264H140.11C140.203 19.4408 140.334 19.2436 140.503 19.0348C140.672 18.8227 140.901 18.642 141.189 18.4929C141.477 18.3404 141.845 18.2642 142.293 18.2642C142.883 18.2642 143.415 18.415 143.889 18.7166C144.366 19.0149 144.744 19.4574 145.022 20.044C145.304 20.6274 145.445 21.3433 145.445 22.1918C145.445 23.0303 145.307 23.7429 145.032 24.3295C144.757 24.9162 144.383 25.3636 143.909 25.6719C143.435 25.9801 142.898 26.1342 142.298 26.1342C141.86 26.1342 141.497 26.0613 141.209 25.9155C140.921 25.7696 140.689 25.594 140.513 25.3885C140.341 25.1797 140.206 24.9825 140.11 24.7969H140.036V28.8636H138.236ZM140.001 22.1818C140.001 22.6757 140.071 23.1082 140.21 23.4794C140.352 23.8506 140.556 24.1406 140.821 24.3494C141.09 24.5549 141.414 24.6577 141.796 24.6577C142.193 24.6577 142.526 24.5516 142.795 24.3395C143.063 24.1241 143.266 23.8307 143.401 23.4595C143.541 23.085 143.61 22.6591 143.61 22.1818C143.61 21.7079 143.542 21.2869 143.406 20.919C143.271 20.5511 143.068 20.2628 142.8 20.054C142.531 19.8452 142.197 19.7408 141.796 19.7408C141.411 19.7408 141.085 19.8419 140.816 20.044C140.548 20.2462 140.344 20.5296 140.205 20.8942C140.069 21.2588 140.001 21.688 140.001 22.1818Z" fill="#4493F8"/>
<path d="M13.2568 53V44.2727H18.4897V45.2102H14.3136V48.1591H18.0977V49.0966H14.3136V53H13.2568ZM20.0931 53V46.4545H21.0647V47.4432H21.1328C21.2522 47.1193 21.4681 46.8565 21.7806 46.6548C22.0931 46.4531 22.4453 46.3523 22.8374 46.3523C22.9112 46.3523 23.0036 46.3537 23.1144 46.3565C23.2252 46.3594 23.309 46.3636 23.3658 46.3693V47.392C23.3317 47.3835 23.2536 47.3707 23.1314 47.3537C23.0121 47.3338 22.8857 47.3239 22.7522 47.3239C22.434 47.3239 22.1499 47.3906 21.8999 47.5241C21.6527 47.6548 21.4567 47.8366 21.3118 48.0696C21.1698 48.2997 21.0987 48.5625 21.0987 48.858V53H20.0931ZM27.0178 53.1364C26.4269 53.1364 25.9084 52.9957 25.4624 52.7145C25.0192 52.4332 24.6726 52.0398 24.4226 51.5341C24.1754 51.0284 24.0519 50.4375 24.0519 49.7614C24.0519 49.0795 24.1754 48.4844 24.4226 47.9759C24.6726 47.4673 25.0192 47.0724 25.4624 46.7912C25.9084 46.5099 26.4269 46.3693 27.0178 46.3693C27.6087 46.3693 28.1257 46.5099 28.5689 46.7912C29.0149 47.0724 29.3615 47.4673 29.6087 47.9759C29.8587 48.4844 29.9837 49.0795 29.9837 49.7614C29.9837 50.4375 29.8587 51.0284 29.6087 51.5341C29.3615 52.0398 29.0149 52.4332 28.5689 52.7145C28.1257 52.9957 27.6087 53.1364 27.0178 53.1364ZM27.0178 52.233C27.4666 52.233 27.836 52.1179 28.1257 51.8878C28.4155 51.6577 28.63 51.3551 28.7692 50.9801C28.9084 50.6051 28.978 50.1989 28.978 49.7614C28.978 49.3239 28.9084 48.9162 28.7692 48.5384C28.63 48.1605 28.4155 47.8551 28.1257 47.6222C27.836 47.3892 27.4666 47.2727 27.0178 47.2727C26.5689 47.2727 26.1996 47.3892 25.9098 47.6222C25.6201 47.8551 25.4056 48.1605 25.2664 48.5384C25.1272 48.9162 25.0576 49.3239 25.0576 49.7614C25.0576 50.1989 25.1272 50.6051 25.2664 50.9801C25.4056 51.3551 25.6201 51.6577 25.9098 51.8878C26.1996 52.1179 26.5689 52.233 27.0178 52.233ZM32.5245 49.0625V53H31.5188V46.4545H32.4904V47.4773H32.5757C32.7291 47.1449 32.962 46.8778 33.2745 46.6761C33.587 46.4716 33.9904 46.3693 34.4848 46.3693C34.9279 46.3693 35.3157 46.4602 35.6481 46.642C35.9805 46.821 36.239 47.0938 36.4237 47.4602C36.6083 47.8239 36.7007 48.2841 36.7007 48.8409V53H35.695V48.9091C35.695 48.3949 35.5615 47.9943 35.2944 47.7074C35.0274 47.4176 34.6609 47.2727 34.195 47.2727C33.874 47.2727 33.587 47.3423 33.3342 47.4815C33.0842 47.6207 32.8867 47.8239 32.7419 48.0909C32.597 48.358 32.5245 48.6818 32.5245 49.0625ZM41.385 46.4545V47.3068H37.9929V46.4545H41.385ZM38.9816 44.8864H39.9872V51.125C39.9872 51.4091 40.0284 51.6222 40.1108 51.7642C40.196 51.9034 40.304 51.9972 40.4347 52.0455C40.5682 52.0909 40.7088 52.1136 40.8566 52.1136C40.9674 52.1136 41.0583 52.108 41.1293 52.0966C41.2003 52.0824 41.2571 52.071 41.2997 52.0625L41.5043 52.9659C41.4361 52.9915 41.3409 53.017 41.2188 53.0426C41.0966 53.071 40.9418 53.0852 40.7543 53.0852C40.4702 53.0852 40.1918 53.0241 39.9191 52.902C39.6492 52.7798 39.4247 52.5938 39.2458 52.3438C39.0696 52.0938 38.9816 51.7784 38.9816 51.3977V44.8864ZM45.5718 53.1364C44.9411 53.1364 44.397 52.9972 43.9397 52.7188C43.4851 52.4375 43.1343 52.0455 42.8871 51.5426C42.6428 51.0369 42.5206 50.4489 42.5206 49.7784C42.5206 49.108 42.6428 48.517 42.8871 48.0057C43.1343 47.4915 43.478 47.0909 43.9183 46.804C44.3615 46.5142 44.8786 46.3693 45.4695 46.3693C45.8104 46.3693 46.147 46.4261 46.4794 46.5398C46.8118 46.6534 47.1144 46.8381 47.3871 47.0938C47.6598 47.3466 47.8772 47.6818 48.0391 48.0994C48.201 48.517 48.282 49.0312 48.282 49.642V50.0682H43.2365V49.1989H47.2593C47.2593 48.8295 47.1854 48.5 47.0377 48.2102C46.8928 47.9205 46.6854 47.6918 46.4155 47.5241C46.1485 47.3565 45.8331 47.2727 45.4695 47.2727C45.0689 47.2727 44.7223 47.3722 44.4297 47.571C44.1399 47.767 43.9169 48.0227 43.7607 48.3381C43.6044 48.6534 43.5263 48.9915 43.5263 49.3523V49.9318C43.5263 50.4261 43.6115 50.8452 43.782 51.1889C43.9553 51.5298 44.1953 51.7898 44.5022 51.9688C44.809 52.1449 45.1655 52.233 45.5718 52.233C45.836 52.233 46.0746 52.196 46.2877 52.1222C46.5036 52.0455 46.6897 51.9318 46.8459 51.7812C47.0022 51.6278 47.1229 51.4375 47.2081 51.2102L48.1797 51.483C48.0774 51.8125 47.9056 52.1023 47.6641 52.3523C47.4226 52.5994 47.1243 52.7926 46.7692 52.9318C46.4141 53.0682 46.0149 53.1364 45.5718 53.1364ZM50.8175 49.0625V53H49.8118V46.4545H50.7834V47.4773H50.8686C51.022 47.1449 51.255 46.8778 51.5675 46.6761C51.88 46.4716 52.2834 46.3693 52.7777 46.3693C53.2209 46.3693 53.6087 46.4602 53.9411 46.642C54.2735 46.821 54.532 47.0938 54.7166 47.4602C54.9013 47.8239 54.9936 48.2841 54.9936 48.8409V53H53.9879V48.9091C53.9879 48.3949 53.8544 47.9943 53.5874 47.7074C53.3203 47.4176 52.9539 47.2727 52.4879 47.2727C52.1669 47.2727 51.88 47.3423 51.6272 47.4815C51.3772 47.6207 51.1797 47.8239 51.0348 48.0909C50.8899 48.358 50.8175 48.6818 50.8175 49.0625ZM59.3029 53.1364C58.7575 53.1364 58.2759 52.9986 57.8583 52.723C57.4407 52.4446 57.114 52.0526 56.8782 51.5469C56.6424 51.0384 56.5245 50.4375 56.5245 49.7443C56.5245 49.0568 56.6424 48.4602 56.8782 47.9545C57.114 47.4489 57.4421 47.0582 57.8626 46.7827C58.283 46.5071 58.7688 46.3693 59.32 46.3693C59.7461 46.3693 60.0828 46.4403 60.3299 46.5824C60.5799 46.7216 60.7703 46.8807 60.9009 47.0597C61.0345 47.2358 61.1382 47.3807 61.212 47.4943H61.2973V44.2727H62.3029V53H61.3313V51.9943H61.212C61.1382 52.1136 61.033 52.2642 60.8967 52.446C60.7603 52.625 60.5657 52.7855 60.3129 52.9276C60.06 53.0668 59.7234 53.1364 59.3029 53.1364ZM59.4393 52.233C59.8427 52.233 60.1836 52.1278 60.462 51.9176C60.7404 51.7045 60.9521 51.4105 61.097 51.0355C61.2419 50.6577 61.3143 50.2216 61.3143 49.7273C61.3143 49.2386 61.2433 48.8111 61.1012 48.4446C60.9592 48.0753 60.749 47.7884 60.4705 47.5838C60.1921 47.3764 59.8484 47.2727 59.4393 47.2727C59.0132 47.2727 58.658 47.3821 58.374 47.6009C58.0927 47.8168 57.8811 48.1108 57.739 48.483C57.5998 48.8523 57.5302 49.267 57.5302 49.7273C57.5302 50.1932 57.6012 50.6165 57.7433 50.9972C57.8882 51.375 58.1012 51.6761 58.3825 51.9006C58.6666 52.1222 59.0188 52.233 59.4393 52.233ZM70.5742 46.4545V47.3068H67.0458V46.4545H70.5742ZM68.1027 53V45.5511C68.1027 45.1761 68.1907 44.8636 68.3669 44.6136C68.543 44.3636 68.7717 44.1761 69.0529 44.0511C69.3342 43.9261 69.6311 43.8636 69.9436 43.8636C70.1907 43.8636 70.3924 43.8835 70.5487 43.9233C70.7049 43.9631 70.8214 44 70.8981 44.0341L70.6083 44.9034C70.5572 44.8864 70.4862 44.8651 70.3953 44.8395C70.3072 44.8139 70.1907 44.8011 70.0458 44.8011C69.7134 44.8011 69.4734 44.8849 69.3257 45.0526C69.1808 45.2202 69.1083 45.4659 69.1083 45.7898V53H68.1027ZM74.3732 53.1364C73.7823 53.1364 73.2639 52.9957 72.8178 52.7145C72.3747 52.4332 72.0281 52.0398 71.7781 51.5341C71.5309 51.0284 71.4073 50.4375 71.4073 49.7614C71.4073 49.0795 71.5309 48.4844 71.7781 47.9759C72.0281 47.4673 72.3747 47.0724 72.8178 46.7912C73.2639 46.5099 73.7823 46.3693 74.3732 46.3693C74.9642 46.3693 75.4812 46.5099 75.9244 46.7912C76.3704 47.0724 76.717 47.4673 76.9642 47.9759C77.2142 48.4844 77.3392 49.0795 77.3392 49.7614C77.3392 50.4375 77.2142 51.0284 76.9642 51.5341C76.717 52.0398 76.3704 52.4332 75.9244 52.7145C75.4812 52.9957 74.9642 53.1364 74.3732 53.1364ZM74.3732 52.233C74.8221 52.233 75.1914 52.1179 75.4812 51.8878C75.771 51.6577 75.9855 51.3551 76.1247 50.9801C76.2639 50.6051 76.3335 50.1989 76.3335 49.7614C76.3335 49.3239 76.2639 48.9162 76.1247 48.5384C75.9855 48.1605 75.771 47.8551 75.4812 47.6222C75.1914 47.3892 74.8221 47.2727 74.3732 47.2727C73.9244 47.2727 73.5551 47.3892 73.2653 47.6222C72.9755 47.8551 72.761 48.1605 72.6218 48.5384C72.4826 48.9162 72.413 49.3239 72.413 49.7614C72.413 50.1989 72.4826 50.6051 72.6218 50.9801C72.761 51.3551 72.9755 51.6577 73.2653 51.8878C73.5551 52.1179 73.9244 52.233 74.3732 52.233ZM78.8743 53V46.4545H79.8459V47.4432H79.9141C80.0334 47.1193 80.2493 46.8565 80.5618 46.6548C80.8743 46.4531 81.2266 46.3523 81.6186 46.3523C81.6925 46.3523 81.7848 46.3537 81.8956 46.3565C82.0064 46.3594 82.0902 46.3636 82.147 46.3693V47.392C82.1129 47.3835 82.0348 47.3707 81.9127 47.3537C81.7933 47.3338 81.6669 47.3239 81.5334 47.3239C81.2152 47.3239 80.9311 47.3906 80.6811 47.5241C80.434 47.6548 80.2379 47.8366 80.0931 48.0696C79.951 48.2997 79.88 48.5625 79.88 48.858V53H78.8743ZM89.5607 46.4545V47.3068H86.1687V46.4545H89.5607ZM87.1573 44.8864H88.163V51.125C88.163 51.4091 88.2042 51.6222 88.2866 51.7642C88.3718 51.9034 88.4798 51.9972 88.6105 52.0455C88.744 52.0909 88.8846 52.1136 89.0323 52.1136C89.1431 52.1136 89.234 52.108 89.3051 52.0966C89.3761 52.0824 89.4329 52.071 89.4755 52.0625L89.6801 52.9659C89.6119 52.9915 89.5167 53.017 89.3946 53.0426C89.2724 53.071 89.1176 53.0852 88.9301 53.0852C88.646 53.0852 88.3676 53.0241 88.0948 52.902C87.825 52.7798 87.6005 52.5938 87.4215 52.3438C87.2454 52.0938 87.1573 51.7784 87.1573 51.3977V44.8864ZM92.2198 49.0625V53H91.2142V44.2727H92.2198V47.4773H92.3051C92.4585 47.1392 92.6886 46.8707 92.9954 46.6719C93.3051 46.4702 93.717 46.3693 94.2312 46.3693C94.6772 46.3693 95.0678 46.4588 95.4031 46.6378C95.7383 46.8139 95.9982 47.0852 96.1829 47.4517C96.3704 47.8153 96.4642 48.2784 96.4642 48.8409V53H95.4585V48.9091C95.4585 48.3892 95.3235 47.9872 95.0536 47.7031C94.7866 47.4162 94.4159 47.2727 93.9414 47.2727C93.6119 47.2727 93.3164 47.3423 93.0551 47.4815C92.7965 47.6207 92.592 47.8239 92.4414 48.0909C92.2937 48.358 92.2198 48.6818 92.2198 49.0625ZM101.048 53.1364C100.418 53.1364 99.8736 52.9972 99.4162 52.7188C98.9617 52.4375 98.6108 52.0455 98.3637 51.5426C98.1193 51.0369 97.9972 50.4489 97.9972 49.7784C97.9972 49.108 98.1193 48.517 98.3637 48.0057C98.6108 47.4915 98.9546 47.0909 99.3949 46.804C99.8381 46.5142 100.355 46.3693 100.946 46.3693C101.287 46.3693 101.624 46.4261 101.956 46.5398C102.288 46.6534 102.591 46.8381 102.864 47.0938C103.136 47.3466 103.354 47.6818 103.516 48.0994C103.678 48.517 103.759 49.0312 103.759 49.642V50.0682H98.7131V49.1989H102.736C102.736 48.8295 102.662 48.5 102.514 48.2102C102.369 47.9205 102.162 47.6918 101.892 47.5241C101.625 47.3565 101.31 47.2727 100.946 47.2727C100.545 47.2727 100.199 47.3722 99.9063 47.571C99.6165 47.767 99.3935 48.0227 99.2372 48.3381C99.081 48.6534 99.0029 48.9915 99.0029 49.3523V49.9318C99.0029 50.4261 99.0881 50.8452 99.2585 51.1889C99.4318 51.5298 99.6719 51.7898 99.9787 51.9688C100.286 52.1449 100.642 52.233 101.048 52.233C101.313 52.233 101.551 52.196 101.764 52.1222C101.98 52.0455 102.166 51.9318 102.322 51.7812C102.479 51.6278 102.599 51.4375 102.685 51.2102L103.656 51.483C103.554 51.8125 103.382 52.1023 103.141 52.3523C102.899 52.5994 102.601 52.7926 102.246 52.9318C101.891 53.0682 101.491 53.1364 101.048 53.1364ZM109.857 44.2727V53H108.8V44.2727H109.857ZM112.845 49.0625V53H111.839V46.4545H112.811V47.4773H112.896C113.049 47.1449 113.282 46.8778 113.595 46.6761C113.907 46.4716 114.311 46.3693 114.805 46.3693C115.248 46.3693 115.636 46.4602 115.968 46.642C116.301 46.821 116.559 47.0938 116.744 47.4602C116.929 47.8239 117.021 48.2841 117.021 48.8409V53H116.015V48.9091C116.015 48.3949 115.882 47.9943 115.615 47.7074C115.348 47.4176 114.981 47.2727 114.515 47.2727C114.194 47.2727 113.907 47.3423 113.654 47.4815C113.404 47.6207 113.207 47.8239 113.062 48.0909C112.917 48.358 112.845 48.6818 112.845 49.0625ZM121.33 53.1364C120.785 53.1364 120.303 52.9986 119.886 52.723C119.468 52.4446 119.141 52.0526 118.906 51.5469C118.67 51.0384 118.552 50.4375 118.552 49.7443C118.552 49.0568 118.67 48.4602 118.906 47.9545C119.141 47.4489 119.469 47.0582 119.89 46.7827C120.31 46.5071 120.796 46.3693 121.347 46.3693C121.773 46.3693 122.11 46.4403 122.357 46.5824C122.607 46.7216 122.798 46.8807 122.928 47.0597C123.062 47.2358 123.166 47.3807 123.239 47.4943H123.325V44.2727H124.33V53H123.359V51.9943H123.239C123.166 52.1136 123.06 52.2642 122.924 52.446C122.788 52.625 122.593 52.7855 122.34 52.9276C122.087 53.0668 121.751 53.1364 121.33 53.1364ZM121.467 52.233C121.87 52.233 122.211 52.1278 122.489 51.9176C122.768 51.7045 122.979 51.4105 123.124 51.0355C123.269 50.6577 123.342 50.2216 123.342 49.7273C123.342 49.2386 123.271 48.8111 123.129 48.4446C122.987 48.0753 122.776 47.7884 122.498 47.5838C122.219 47.3764 121.876 47.2727 121.467 47.2727C121.041 47.2727 120.685 47.3821 120.401 47.6009C120.12 47.8168 119.908 48.1108 119.766 48.483C119.627 48.8523 119.558 49.267 119.558 49.7273C119.558 50.1932 119.629 50.6165 119.771 50.9972C119.916 51.375 120.129 51.6761 120.41 51.9006C120.694 52.1222 121.046 52.233 121.467 52.233ZM126.312 53V46.4545H127.317V53H126.312ZM126.823 45.3636C126.627 45.3636 126.458 45.2969 126.316 45.1634C126.177 45.0298 126.107 44.8693 126.107 44.6818C126.107 44.4943 126.177 44.3338 126.316 44.2003C126.458 44.0668 126.627 44 126.823 44C127.019 44 127.187 44.0668 127.326 44.2003C127.468 44.3338 127.539 44.4943 127.539 44.6818C127.539 44.8693 127.468 45.0298 127.326 45.1634C127.187 45.2969 127.019 45.3636 126.823 45.3636ZM130.064 44.2727L132.655 51.6193H132.757L135.348 44.2727H136.456L133.251 53H132.161L128.956 44.2727H130.064ZM137.679 53V46.4545H138.685V53H137.679ZM138.19 45.3636C137.994 45.3636 137.825 45.2969 137.683 45.1634C137.544 45.0298 137.474 44.8693 137.474 44.6818C137.474 44.4943 137.544 44.3338 137.683 44.2003C137.825 44.0668 137.994 44 138.19 44C138.386 44 138.554 44.0668 138.693 44.2003C138.835 44.3338 138.906 44.4943 138.906 44.6818C138.906 44.8693 138.835 45.0298 138.693 45.1634C138.554 45.2969 138.386 45.3636 138.19 45.3636ZM145.163 47.9205L144.26 48.1761C144.203 48.0256 144.119 47.8793 144.008 47.7372C143.9 47.5923 143.753 47.473 143.565 47.3793C143.378 47.2855 143.137 47.2386 142.845 47.2386C142.444 47.2386 142.11 47.331 141.843 47.5156C141.579 47.6974 141.447 47.929 141.447 48.2102C141.447 48.4602 141.538 48.6577 141.72 48.8026C141.902 48.9474 142.186 49.0682 142.572 49.1648L143.544 49.4034C144.129 49.5455 144.565 49.7628 144.852 50.0554C145.139 50.3452 145.282 50.7187 145.282 51.1761C145.282 51.5511 145.174 51.8864 144.958 52.1818C144.745 52.4773 144.447 52.7102 144.064 52.8807C143.68 53.0511 143.234 53.1364 142.726 53.1364C142.058 53.1364 141.505 52.9915 141.068 52.7017C140.63 52.4119 140.353 51.9886 140.237 51.4318L141.191 51.1932C141.282 51.5455 141.454 51.8097 141.707 51.9858C141.963 52.1619 142.297 52.25 142.708 52.25C143.177 52.25 143.549 52.1506 143.825 51.9517C144.103 51.75 144.243 51.5085 144.243 51.2273C144.243 51 144.163 50.8097 144.004 50.6562C143.845 50.5 143.601 50.3835 143.271 50.3068L142.18 50.0511C141.581 49.9091 141.14 49.6889 140.859 49.3906C140.581 49.0895 140.441 48.7131 140.441 48.2614C140.441 47.892 140.545 47.5653 140.753 47.2812C140.963 46.9972 141.248 46.7741 141.609 46.6122C141.973 46.4503 142.385 46.3693 142.845 46.3693C143.493 46.3693 144.001 46.5114 144.37 46.7955C144.743 47.0795 145.007 47.4545 145.163 47.9205ZM150.921 50.3239V46.4545H151.927V53H150.921V51.892H150.853C150.7 52.2244 150.461 52.5071 150.137 52.7401C149.813 52.9702 149.404 53.0852 148.91 53.0852C148.501 53.0852 148.137 52.9957 147.819 52.8168C147.501 52.6349 147.251 52.3622 147.069 51.9986C146.887 51.6321 146.796 51.1705 146.796 50.6136V46.4545H147.802V50.5455C147.802 51.0227 147.935 51.4034 148.202 51.6875C148.472 51.9716 148.816 52.1136 149.234 52.1136C149.484 52.1136 149.738 52.0497 149.996 51.9219C150.258 51.794 150.477 51.598 150.653 51.3338C150.832 51.0696 150.921 50.733 150.921 50.3239ZM155.695 53.1534C155.28 53.1534 154.904 53.0753 154.566 52.919C154.228 52.7599 153.959 52.5312 153.76 52.233C153.561 51.9318 153.462 51.5682 153.462 51.142C153.462 50.767 153.536 50.4631 153.684 50.2301C153.831 49.9943 154.029 49.8097 154.276 49.6761C154.523 49.5426 154.796 49.4432 155.094 49.3778C155.395 49.3097 155.698 49.2557 156.002 49.2159C156.4 49.1648 156.722 49.1264 156.969 49.1009C157.219 49.0724 157.401 49.0256 157.515 48.9602C157.631 48.8949 157.689 48.7812 157.689 48.6193V48.5852C157.689 48.1648 157.574 47.8381 157.344 47.6051C157.117 47.3722 156.772 47.2557 156.309 47.2557C155.829 47.2557 155.452 47.3608 155.179 47.571C154.907 47.7812 154.715 48.0057 154.604 48.2443L153.65 47.9034C153.82 47.5057 154.047 47.196 154.331 46.9744C154.618 46.75 154.931 46.5937 155.269 46.5057C155.61 46.4148 155.945 46.3693 156.275 46.3693C156.485 46.3693 156.726 46.3949 156.999 46.446C157.275 46.4943 157.54 46.5952 157.796 46.7486C158.054 46.902 158.269 47.1335 158.439 47.4432C158.61 47.7528 158.695 48.1676 158.695 48.6875V53H157.689V52.1136H157.638C157.57 52.2557 157.456 52.4077 157.297 52.5696C157.138 52.7315 156.927 52.8693 156.662 52.983C156.398 53.0966 156.076 53.1534 155.695 53.1534ZM155.848 52.25C156.246 52.25 156.581 52.1719 156.854 52.0156C157.13 51.8594 157.337 51.6577 157.476 51.4105C157.618 51.1634 157.689 50.9034 157.689 50.6307V49.7102C157.647 49.7614 157.553 49.8082 157.408 49.8509C157.266 49.8906 157.101 49.9261 156.914 49.9574C156.729 49.9858 156.549 50.0114 156.373 50.0341C156.199 50.054 156.059 50.071 155.951 50.0852C155.689 50.1193 155.445 50.1747 155.218 50.2514C154.993 50.3253 154.811 50.4375 154.672 50.5881C154.536 50.7358 154.468 50.9375 154.468 51.1932C154.468 51.5426 154.597 51.8068 154.855 51.9858C155.117 52.1619 155.448 52.25 155.848 52.25ZM161.536 44.2727V53H160.531V44.2727H161.536ZM166.89 53V44.2727H172.157V45.2102H167.946V48.1591H171.884V49.0966H167.946V52.0625H172.225V53H166.89ZM174.573 55.4545C174.402 55.4545 174.25 55.4403 174.117 55.4119C173.983 55.3864 173.891 55.3608 173.84 55.3352L174.096 54.4489C174.34 54.5114 174.556 54.5341 174.743 54.517C174.931 54.5 175.097 54.4162 175.242 54.2656C175.39 54.1179 175.525 53.8778 175.647 53.5455L175.834 53.0341L173.414 46.4545H174.505L176.311 51.6705H176.38L178.186 46.4545H179.277L176.499 53.9545C176.374 54.2926 176.219 54.5724 176.034 54.794C175.85 55.0185 175.635 55.1847 175.391 55.2926C175.15 55.4006 174.877 55.4545 174.573 55.4545ZM183.115 53.1364C182.484 53.1364 181.94 52.9972 181.483 52.7188C181.028 52.4375 180.677 52.0455 180.43 51.5426C180.186 51.0369 180.064 50.4489 180.064 49.7784C180.064 49.108 180.186 48.517 180.43 48.0057C180.677 47.4915 181.021 47.0909 181.461 46.804C181.904 46.5142 182.422 46.3693 183.012 46.3693C183.353 46.3693 183.69 46.4261 184.022 46.5398C184.355 46.6534 184.657 46.8381 184.93 47.0938C185.203 47.3466 185.42 47.6818 185.582 48.0994C185.744 48.517 185.825 49.0312 185.825 49.642V50.0682H180.779V49.1989H184.802C184.802 48.8295 184.728 48.5 184.581 48.2102C184.436 47.9205 184.228 47.6918 183.958 47.5241C183.691 47.3565 183.376 47.2727 183.012 47.2727C182.612 47.2727 182.265 47.3722 181.973 47.571C181.683 47.767 181.46 48.0227 181.304 48.3381C181.147 48.6534 181.069 48.9915 181.069 49.3523V49.9318C181.069 50.4261 181.154 50.8452 181.325 51.1889C181.498 51.5298 181.738 51.7898 182.045 51.9688C182.352 52.1449 182.708 52.233 183.115 52.233C183.379 52.233 183.618 52.196 183.831 52.1222C184.047 52.0455 184.233 51.9318 184.389 51.7812C184.545 51.6278 184.666 51.4375 184.751 51.2102L185.723 51.483C185.62 51.8125 185.449 52.1023 185.207 52.3523C184.966 52.5994 184.667 52.7926 184.312 52.9318C183.957 53.0682 183.558 53.1364 183.115 53.1364ZM191.991 47.9205L191.088 48.1761C191.031 48.0256 190.947 47.8793 190.836 47.7372C190.728 47.5923 190.581 47.473 190.393 47.3793C190.206 47.2855 189.966 47.2386 189.673 47.2386C189.272 47.2386 188.939 47.331 188.672 47.5156C188.407 47.6974 188.275 47.929 188.275 48.2102C188.275 48.4602 188.366 48.6577 188.548 48.8026C188.73 48.9474 189.014 49.0682 189.4 49.1648L190.372 49.4034C190.957 49.5455 191.393 49.7628 191.68 50.0554C191.967 50.3452 192.11 50.7187 192.11 51.1761C192.11 51.5511 192.003 51.8864 191.787 52.1818C191.574 52.4773 191.275 52.7102 190.892 52.8807C190.508 53.0511 190.062 53.1364 189.554 53.1364C188.886 53.1364 188.333 52.9915 187.896 52.7017C187.458 52.4119 187.181 51.9886 187.065 51.4318L188.02 51.1932C188.11 51.5455 188.282 51.8097 188.535 51.9858C188.791 52.1619 189.125 52.25 189.537 52.25C190.005 52.25 190.378 52.1506 190.653 51.9517C190.931 51.75 191.071 51.5085 191.071 51.2273C191.071 51 190.991 50.8097 190.832 50.6562C190.673 50.5 190.429 50.3835 190.099 50.3068L189.008 50.0511C188.409 49.9091 187.968 49.6889 187.687 49.3906C187.409 49.0895 187.27 48.7131 187.27 48.2614C187.27 47.892 187.373 47.5653 187.581 47.2812C187.791 46.9972 188.076 46.7741 188.437 46.6122C188.801 46.4503 189.213 46.3693 189.673 46.3693C190.321 46.3693 190.829 46.5114 191.199 46.7955C191.571 47.0795 191.835 47.4545 191.991 47.9205ZM198.925 53.1534C198.511 53.1534 198.134 53.0753 197.796 52.919C197.458 52.7599 197.19 52.5312 196.991 52.233C196.792 51.9318 196.692 51.5682 196.692 51.142C196.692 50.767 196.766 50.4631 196.914 50.2301C197.062 49.9943 197.259 49.8097 197.506 49.6761C197.754 49.5426 198.026 49.4432 198.325 49.3778C198.626 49.3097 198.928 49.2557 199.232 49.2159C199.63 49.1648 199.952 49.1264 200.2 49.1009C200.45 49.0724 200.631 49.0256 200.745 48.9602C200.862 48.8949 200.92 48.7812 200.92 48.6193V48.5852C200.92 48.1648 200.805 47.8381 200.575 47.6051C200.347 47.3722 200.002 47.2557 199.539 47.2557C199.059 47.2557 198.683 47.3608 198.41 47.571C198.137 47.7812 197.945 48.0057 197.835 48.2443L196.88 47.9034C197.05 47.5057 197.278 47.196 197.562 46.9744C197.849 46.75 198.161 46.5937 198.499 46.5057C198.84 46.4148 199.175 46.3693 199.505 46.3693C199.715 46.3693 199.957 46.3949 200.229 46.446C200.505 46.4943 200.771 46.5952 201.026 46.7486C201.285 46.902 201.499 47.1335 201.67 47.4432C201.84 47.7528 201.925 48.1676 201.925 48.6875V53H200.92V52.1136H200.869C200.8 52.2557 200.687 52.4077 200.528 52.5696C200.369 52.7315 200.157 52.8693 199.893 52.983C199.629 53.0966 199.306 53.1534 198.925 53.1534ZM199.079 52.25C199.477 52.25 199.812 52.1719 200.085 52.0156C200.36 51.8594 200.567 51.6577 200.707 51.4105C200.849 51.1634 200.92 50.9034 200.92 50.6307V49.7102C200.877 49.7614 200.783 49.8082 200.639 49.8509C200.496 49.8906 200.332 49.9261 200.144 49.9574C199.96 49.9858 199.779 50.0114 199.603 50.0341C199.43 50.054 199.289 50.071 199.181 50.0852C198.92 50.1193 198.675 50.1747 198.448 50.2514C198.224 50.3253 198.042 50.4375 197.903 50.5881C197.766 50.7358 197.698 50.9375 197.698 51.1932C197.698 51.5426 197.827 51.8068 198.086 51.9858C198.347 52.1619 198.678 52.25 199.079 52.25ZM203.761 55.4545V46.4545H204.733V47.4943H204.852C204.926 47.3807 205.028 47.2358 205.159 47.0597C205.292 46.8807 205.483 46.7216 205.73 46.5824C205.98 46.4403 206.318 46.3693 206.744 46.3693C207.295 46.3693 207.781 46.5071 208.201 46.7827C208.622 47.0582 208.95 47.4489 209.186 47.9545C209.422 48.4602 209.539 49.0568 209.539 49.7443C209.539 50.4375 209.422 51.0384 209.186 51.5469C208.95 52.0526 208.623 52.4446 208.206 52.723C207.788 52.9986 207.306 53.1364 206.761 53.1364C206.341 53.1364 206.004 53.0668 205.751 52.9276C205.498 52.7855 205.304 52.625 205.167 52.446C205.031 52.2642 204.926 52.1136 204.852 51.9943H204.767V55.4545H203.761ZM204.75 49.7273C204.75 50.2216 204.822 50.6577 204.967 51.0355C205.112 51.4105 205.324 51.7045 205.602 51.9176C205.88 52.1278 206.221 52.233 206.625 52.233C207.045 52.233 207.396 52.1222 207.677 51.9006C207.961 51.6761 208.174 51.375 208.316 50.9972C208.461 50.6165 208.534 50.1932 208.534 49.7273C208.534 49.267 208.463 48.8523 208.321 48.483C208.181 48.1108 207.97 47.8168 207.686 47.6009C207.404 47.3821 207.051 47.2727 206.625 47.2727C206.216 47.2727 205.872 47.3764 205.593 47.5838C205.315 47.7884 205.105 48.0753 204.963 48.4446C204.821 48.8111 204.75 49.2386 204.75 49.7273ZM211.074 55.4545V46.4545H212.045V47.4943H212.164C212.238 47.3807 212.341 47.2358 212.471 47.0597C212.605 46.8807 212.795 46.7216 213.042 46.5824C213.292 46.4403 213.63 46.3693 214.056 46.3693C214.608 46.3693 215.093 46.5071 215.514 46.7827C215.934 47.0582 216.262 47.4489 216.498 47.9545C216.734 48.4602 216.852 49.0568 216.852 49.7443C216.852 50.4375 216.734 51.0384 216.498 51.5469C216.262 52.0526 215.936 52.4446 215.518 52.723C215.101 52.9986 214.619 53.1364 214.074 53.1364C213.653 53.1364 213.316 53.0668 213.064 52.9276C212.811 52.7855 212.616 52.625 212.48 52.446C212.343 52.2642 212.238 52.1136 212.164 51.9943H212.079V55.4545H211.074ZM212.062 49.7273C212.062 50.2216 212.135 50.6577 212.279 51.0355C212.424 51.4105 212.636 51.7045 212.914 51.9176C213.193 52.1278 213.534 52.233 213.937 52.233C214.358 52.233 214.708 52.1222 214.99 51.9006C215.274 51.6761 215.487 51.375 215.629 50.9972C215.774 50.6165 215.846 50.1932 215.846 49.7273C215.846 49.267 215.775 48.8523 215.633 48.483C215.494 48.1108 215.282 47.8168 214.998 47.6009C214.717 47.3821 214.363 47.2727 213.937 47.2727C213.528 47.2727 213.184 47.3764 212.906 47.5838C212.628 47.7884 212.417 48.0753 212.275 48.4446C212.133 48.8111 212.062 49.2386 212.062 49.7273Z" fill="#768395"/>
<circle cx="18.2" cy="79" r="6" fill="#3178C6"/>
<circle cx="18.2" cy="79" r="5.5" stroke="white" stroke-opacity="0.14902"/>
<path d="M32.7795 75.7102V74.7727H39.325V75.7102H36.5806V83.5H35.5238V75.7102H32.7795ZM40.7174 85.9545C40.5469 85.9545 40.3949 85.9403 40.2614 85.9119C40.1279 85.8864 40.0355 85.8608 39.9844 85.8352L40.2401 84.9489C40.4844 85.0114 40.7003 85.0341 40.8878 85.017C41.0753 85 41.2415 84.9162 41.3864 84.7656C41.5341 84.6179 41.6691 84.3778 41.7912 84.0455L41.9787 83.5341L39.5583 76.9545H40.6492L42.456 82.1705H42.5242L44.331 76.9545H45.4219L42.6435 84.4545C42.5185 84.7926 42.3637 85.0724 42.179 85.294C41.9943 85.5185 41.7799 85.6847 41.5355 85.7926C41.2941 85.9006 41.0213 85.9545 40.7174 85.9545ZM46.7493 85.9545V76.9545H47.7209V77.9943H47.8402C47.9141 77.8807 48.0164 77.7358 48.147 77.5597C48.2806 77.3807 48.4709 77.2216 48.7181 77.0824C48.9681 76.9403 49.3061 76.8693 49.7323 76.8693C50.2834 76.8693 50.7692 77.0071 51.1897 77.2827C51.6101 77.5582 51.9382 77.9489 52.174 78.4545C52.4098 78.9602 52.5277 79.5568 52.5277 80.2443C52.5277 80.9375 52.4098 81.5384 52.174 82.0469C51.9382 82.5526 51.6115 82.9446 51.1939 83.223C50.7763 83.4986 50.2948 83.6364 49.7493 83.6364C49.3289 83.6364 48.9922 83.5668 48.7394 83.4276C48.4865 83.2855 48.2919 83.125 48.1556 82.946C48.0192 82.7642 47.9141 82.6136 47.8402 82.4943H47.755V85.9545H46.7493ZM47.7379 80.2273C47.7379 80.7216 47.8104 81.1577 47.9553 81.5355C48.1002 81.9105 48.3118 82.2045 48.5902 82.4176C48.8686 82.6278 49.2095 82.733 49.6129 82.733C50.0334 82.733 50.3843 82.6222 50.6655 82.4006C50.9496 82.1761 51.1627 81.875 51.3047 81.4972C51.4496 81.1165 51.522 80.6932 51.522 80.2273C51.522 79.767 51.451 79.3523 51.309 78.983C51.1698 78.6108 50.9581 78.3168 50.674 78.1009C50.3928 77.8821 50.0391 77.7727 49.6129 77.7727C49.2039 77.7727 48.8601 77.8764 48.5817 78.0838C48.3033 78.2884 48.0931 78.5753 47.951 78.9446C47.809 79.3111 47.7379 79.7386 47.7379 80.2273ZM56.8061 83.6364C56.1754 83.6364 55.6314 83.4972 55.174 83.2188C54.7195 82.9375 54.3686 82.5455 54.1215 82.0426C53.8772 81.5369 53.755 80.9489 53.755 80.2784C53.755 79.608 53.8772 79.017 54.1215 78.5057C54.3686 77.9915 54.7124 77.5909 55.1527 77.304C55.5959 77.0142 56.1129 76.8693 56.7039 76.8693C57.0448 76.8693 57.3814 76.9261 57.7138 77.0398C58.0462 77.1534 58.3487 77.3381 58.6215 77.5938C58.8942 77.8466 59.1115 78.1818 59.2735 78.5994C59.4354 79.017 59.5164 79.5312 59.5164 80.142V80.5682H54.4709V79.6989H58.4936C58.4936 79.3295 58.4198 79 58.272 78.7102C58.1272 78.4205 57.9198 78.1918 57.6499 78.0241C57.3828 77.8565 57.0675 77.7727 56.7039 77.7727C56.3033 77.7727 55.9567 77.8722 55.6641 78.071C55.3743 78.267 55.1513 78.5227 54.9951 78.8381C54.8388 79.1534 54.7607 79.4915 54.7607 79.8523V80.4318C54.7607 80.9261 54.8459 81.3452 55.0164 81.6889C55.1897 82.0298 55.4297 82.2898 55.7365 82.4688C56.0433 82.6449 56.3999 82.733 56.8061 82.733C57.0703 82.733 57.309 82.696 57.522 82.6222C57.7379 82.5455 57.924 82.4318 58.0803 82.2812C58.2365 82.1278 58.3573 81.9375 58.4425 81.7102L59.4141 81.983C59.3118 82.3125 59.1399 82.6023 58.8985 82.8523C58.657 83.0994 58.3587 83.2926 58.0036 83.4318C57.6485 83.5682 57.2493 83.6364 56.8061 83.6364ZM65.9553 76.9545C65.9041 76.5227 65.6968 76.1875 65.3331 75.9489C64.9695 75.7102 64.5235 75.5909 63.9951 75.5909C63.6087 75.5909 63.2706 75.6534 62.9808 75.7784C62.6939 75.9034 62.4695 76.0753 62.3076 76.294C62.1485 76.5128 62.0689 76.7614 62.0689 77.0398C62.0689 77.2727 62.1243 77.473 62.2351 77.6406C62.3487 77.8054 62.4936 77.9432 62.6698 78.054C62.8459 78.1619 63.0306 78.2514 63.2237 78.3224C63.4169 78.3906 63.5945 78.446 63.7564 78.4886L64.6428 78.7273C64.8701 78.7869 65.1229 78.8693 65.4013 78.9744C65.6826 79.0795 65.951 79.223 66.2067 79.4048C66.4652 79.5838 66.6783 79.8139 66.8459 80.0952C67.0135 80.3764 67.0973 80.7216 67.0973 81.1307C67.0973 81.6023 66.9737 82.0284 66.7266 82.4091C66.4823 82.7898 66.1243 83.0923 65.6527 83.3168C65.184 83.5412 64.6144 83.6534 63.9439 83.6534C63.3189 83.6534 62.7777 83.5526 62.3203 83.3509C61.8658 83.1491 61.5078 82.8679 61.2465 82.5071C60.9879 82.1463 60.8416 81.7273 60.8076 81.25H61.8985C61.9269 81.5795 62.0377 81.8523 62.2308 82.0682C62.4269 82.2812 62.674 82.4403 62.9723 82.5455C63.2735 82.6477 63.5973 82.6989 63.9439 82.6989C64.3473 82.6989 64.7095 82.6335 65.0306 82.5028C65.3516 82.3693 65.6058 82.1847 65.7933 81.9489C65.9808 81.7102 66.0746 81.4318 66.0746 81.1136C66.0746 80.8239 65.9936 80.5881 65.8317 80.4062C65.6698 80.2244 65.4567 80.0767 65.1925 79.9631C64.9283 79.8494 64.6428 79.75 64.336 79.6648L63.2621 79.358C62.5803 79.1619 62.0405 78.8821 61.6428 78.5185C61.2451 78.1548 61.0462 77.679 61.0462 77.0909C61.0462 76.6023 61.1783 76.1761 61.4425 75.8125C61.7095 75.446 62.0675 75.1619 62.5164 74.9602C62.9681 74.7557 63.4723 74.6534 64.0291 74.6534C64.5916 74.6534 65.0916 74.7543 65.5291 74.956C65.9666 75.1548 66.3132 75.4276 66.5689 75.7741C66.8274 76.1207 66.9638 76.5142 66.978 76.9545H65.9553ZM71.3576 83.6364C70.744 83.6364 70.2156 83.4915 69.7724 83.2017C69.3292 82.9119 68.9883 82.5128 68.7497 82.0043C68.511 81.4957 68.3917 80.9148 68.3917 80.2614C68.3917 79.5966 68.5139 79.0099 68.7582 78.5014C69.0053 77.9901 69.3491 77.5909 69.7894 77.304C70.2326 77.0142 70.7497 76.8693 71.3406 76.8693C71.8008 76.8693 72.2156 76.9545 72.5849 77.125C72.9542 77.2955 73.2568 77.5341 73.4926 77.8409C73.7284 78.1477 73.8747 78.5057 73.9315 78.9148H72.9258C72.8491 78.6165 72.6786 78.3523 72.4144 78.1222C72.1531 77.8892 71.8008 77.7727 71.3576 77.7727C70.9656 77.7727 70.6218 77.875 70.3264 78.0795C70.0338 78.2812 69.8051 78.5668 69.6403 78.9361C69.4784 79.3026 69.3974 79.733 69.3974 80.2273C69.3974 80.733 69.4769 81.1733 69.636 81.5483C69.798 81.9233 70.0252 82.2145 70.3178 82.4219C70.6133 82.6293 70.9599 82.733 71.3576 82.733C71.619 82.733 71.8562 82.6875 72.0693 82.5966C72.2823 82.5057 72.4627 82.375 72.6105 82.2045C72.7582 82.0341 72.8633 81.8295 72.9258 81.5909H73.9315C73.8747 81.9773 73.734 82.3253 73.5096 82.6349C73.288 82.9418 72.994 83.1861 72.6275 83.3679C72.2639 83.5469 71.8406 83.6364 71.3576 83.6364ZM75.4017 83.5V76.9545H76.3732V77.9432H76.4414C76.5607 77.6193 76.7767 77.3565 77.0892 77.1548C77.4017 76.9531 77.7539 76.8523 78.146 76.8523C78.2198 76.8523 78.3122 76.8537 78.423 76.8565C78.5338 76.8594 78.6176 76.8636 78.6744 76.8693V77.892C78.6403 77.8835 78.5622 77.8707 78.44 77.8537C78.3207 77.8338 78.1943 77.8239 78.0607 77.8239C77.7426 77.8239 77.4585 77.8906 77.2085 78.0241C76.9613 78.1548 76.7653 78.3366 76.6204 78.5696C76.4784 78.7997 76.4073 79.0625 76.4073 79.358V83.5H75.4017ZM79.8665 83.5V76.9545H80.8722V83.5H79.8665ZM80.3779 75.8636C80.1818 75.8636 80.0128 75.7969 79.8708 75.6634C79.7316 75.5298 79.662 75.3693 79.662 75.1818C79.662 74.9943 79.7316 74.8338 79.8708 74.7003C80.0128 74.5668 80.1818 74.5 80.3779 74.5C80.5739 74.5 80.7415 74.5668 80.8807 74.7003C81.0227 74.8338 81.0938 74.9943 81.0938 75.1818C81.0938 75.3693 81.0227 75.5298 80.8807 75.6634C80.7415 75.7969 80.5739 75.8636 80.3779 75.8636ZM82.7142 85.9545V76.9545H83.6857V77.9943H83.8051C83.8789 77.8807 83.9812 77.7358 84.1119 77.5597C84.2454 77.3807 84.4357 77.2216 84.6829 77.0824C84.9329 76.9403 85.271 76.8693 85.6971 76.8693C86.2482 76.8693 86.734 77.0071 87.1545 77.2827C87.575 77.5582 87.9031 77.9489 88.1389 78.4545C88.3747 78.9602 88.4926 79.5568 88.4926 80.2443C88.4926 80.9375 88.3747 81.5384 88.1389 82.0469C87.9031 82.5526 87.5764 82.9446 87.1588 83.223C86.7411 83.4986 86.2596 83.6364 85.7142 83.6364C85.2937 83.6364 84.9571 83.5668 84.7042 83.4276C84.4514 83.2855 84.2568 83.125 84.1204 82.946C83.984 82.7642 83.8789 82.6136 83.8051 82.4943H83.7198V85.9545H82.7142ZM83.7028 80.2273C83.7028 80.7216 83.7752 81.1577 83.9201 81.5355C84.065 81.9105 84.2767 82.2045 84.5551 82.4176C84.8335 82.6278 85.1744 82.733 85.5778 82.733C85.9982 82.733 86.3491 82.6222 86.6303 82.4006C86.9144 82.1761 87.1275 81.875 87.2696 81.4972C87.4144 81.1165 87.4869 80.6932 87.4869 80.2273C87.4869 79.767 87.4159 79.3523 87.2738 78.983C87.1346 78.6108 86.923 78.3168 86.6389 78.1009C86.3576 77.8821 86.0039 77.7727 85.5778 77.7727C85.1687 77.7727 84.825 77.8764 84.5465 78.0838C84.2681 78.2884 84.0579 78.5753 83.9159 78.9446C83.7738 79.3111 83.7028 79.7386 83.7028 80.2273ZM92.8732 76.9545V77.8068H89.4812V76.9545H92.8732ZM90.4698 75.3864H91.4755V81.625C91.4755 81.9091 91.5167 82.1222 91.5991 82.2642C91.6843 82.4034 91.7923 82.4972 91.923 82.5455C92.0565 82.5909 92.1971 82.6136 92.3448 82.6136C92.4556 82.6136 92.5465 82.608 92.6176 82.5966C92.6886 82.5824 92.7454 82.571 92.788 82.5625L92.9926 83.4659C92.9244 83.4915 92.8292 83.517 92.7071 83.5426C92.5849 83.571 92.4301 83.5852 92.2426 83.5852C91.9585 83.5852 91.6801 83.5241 91.4073 83.402C91.1375 83.2798 90.913 83.0938 90.734 82.8438C90.5579 82.5938 90.4698 82.2784 90.4698 81.8977V75.3864Z" fill="#768395"/>
<rect x="106.2" y="68" width="93" height="22" rx="11" fill="#388BFD" fill-opacity="0.101961"/>
<path d="M117.257 83.5V74.7727H120.206C120.887 74.7727 121.447 74.8892 121.885 75.1222C122.322 75.3523 122.646 75.669 122.856 76.0724C123.066 76.4759 123.172 76.9347 123.172 77.4489C123.172 77.9631 123.066 78.419 122.856 78.8168C122.646 79.2145 122.324 79.527 121.889 79.7543C121.454 79.9787 120.899 80.0909 120.223 80.0909H117.836V79.1364H120.189C120.654 79.1364 121.029 79.0682 121.314 78.9318C121.601 78.7955 121.808 78.6023 121.936 78.3523C122.066 78.0994 122.132 77.7983 122.132 77.4489C122.132 77.0994 122.066 76.794 121.936 76.5327C121.805 76.2713 121.596 76.0696 121.309 75.9276C121.022 75.7827 120.643 75.7102 120.172 75.7102H118.314V83.5H117.257ZM121.365 79.5795L123.512 83.5H122.285L120.172 79.5795H121.365ZM127.47 83.6364C126.84 83.6364 126.295 83.4972 125.838 83.2188C125.384 82.9375 125.033 82.5455 124.786 82.0426C124.541 81.5369 124.419 80.9489 124.419 80.2784C124.419 79.608 124.541 79.017 124.786 78.5057C125.033 77.9915 125.376 77.5909 125.817 77.304C126.26 77.0142 126.777 76.8693 127.368 76.8693C127.709 76.8693 128.045 76.9261 128.378 77.0398C128.71 77.1534 129.013 77.3381 129.286 77.5938C129.558 77.8466 129.776 78.1818 129.938 78.5994C130.099 79.017 130.18 79.5312 130.18 80.142V80.5682H125.135V79.6989H129.158C129.158 79.3295 129.084 79 128.936 78.7102C128.791 78.4205 128.584 78.1918 128.314 78.0241C128.047 77.8565 127.732 77.7727 127.368 77.7727C126.967 77.7727 126.621 77.8722 126.328 78.071C126.038 78.267 125.815 78.5227 125.659 78.8381C125.503 79.1534 125.425 79.4915 125.425 79.8523V80.4318C125.425 80.9261 125.51 81.3452 125.68 81.6889C125.854 82.0298 126.094 82.2898 126.401 82.4688C126.707 82.6449 127.064 82.733 127.47 82.733C127.734 82.733 127.973 82.696 128.186 82.6222C128.402 82.5455 128.588 82.4318 128.744 82.2812C128.901 82.1278 129.021 81.9375 129.107 81.7102L130.078 81.983C129.976 82.3125 129.804 82.6023 129.563 82.8523C129.321 83.0994 129.023 83.2926 128.668 83.4318C128.313 83.5682 127.913 83.6364 127.47 83.6364ZM133.636 83.6534C133.222 83.6534 132.845 83.5753 132.507 83.419C132.169 83.2599 131.901 83.0312 131.702 82.733C131.503 82.4318 131.403 82.0682 131.403 81.642C131.403 81.267 131.477 80.9631 131.625 80.7301C131.773 80.4943 131.97 80.3097 132.217 80.1761C132.465 80.0426 132.737 79.9432 133.036 79.8778C133.337 79.8097 133.639 79.7557 133.943 79.7159C134.341 79.6648 134.663 79.6264 134.911 79.6009C135.161 79.5724 135.342 79.5256 135.456 79.4602C135.572 79.3949 135.631 79.2812 135.631 79.1193V79.0852C135.631 78.6648 135.516 78.3381 135.286 78.1051C135.058 77.8722 134.713 77.7557 134.25 77.7557C133.77 77.7557 133.393 77.8608 133.121 78.071C132.848 78.2812 132.656 78.5057 132.545 78.7443L131.591 78.4034C131.761 78.0057 131.989 77.696 132.273 77.4744C132.56 77.25 132.872 77.0937 133.21 77.0057C133.551 76.9148 133.886 76.8693 134.216 76.8693C134.426 76.8693 134.668 76.8949 134.94 76.946C135.216 76.9943 135.482 77.0952 135.737 77.2486C135.996 77.402 136.21 77.6335 136.381 77.9432C136.551 78.2528 136.636 78.6676 136.636 79.1875V83.5H135.631V82.6136H135.58C135.511 82.7557 135.398 82.9077 135.239 83.0696C135.08 83.2315 134.868 83.3693 134.604 83.483C134.34 83.5966 134.017 83.6534 133.636 83.6534ZM133.79 82.75C134.188 82.75 134.523 82.6719 134.795 82.5156C135.071 82.3594 135.278 82.1577 135.418 81.9105C135.56 81.6634 135.631 81.4034 135.631 81.1307V80.2102C135.588 80.2614 135.494 80.3082 135.349 80.3509C135.207 80.3906 135.043 80.4261 134.855 80.4574C134.67 80.4858 134.49 80.5114 134.314 80.5341C134.141 80.554 134 80.571 133.892 80.5852C133.631 80.6193 133.386 80.6747 133.159 80.7514C132.935 80.8253 132.753 80.9375 132.614 81.0881C132.477 81.2358 132.409 81.4375 132.409 81.6932C132.409 82.0426 132.538 82.3068 132.797 82.4858C133.058 82.6619 133.389 82.75 133.79 82.75ZM141.131 83.6364C140.517 83.6364 139.989 83.4915 139.546 83.2017C139.103 82.9119 138.762 82.5128 138.523 82.0043C138.284 81.4957 138.165 80.9148 138.165 80.2614C138.165 79.5966 138.287 79.0099 138.532 78.5014C138.779 77.9901 139.123 77.5909 139.563 77.304C140.006 77.0142 140.523 76.8693 141.114 76.8693C141.574 76.8693 141.989 76.9545 142.358 77.125C142.728 77.2955 143.03 77.5341 143.266 77.8409C143.502 78.1477 143.648 78.5057 143.705 78.9148H142.699C142.623 78.6165 142.452 78.3523 142.188 78.1222C141.927 77.8892 141.574 77.7727 141.131 77.7727C140.739 77.7727 140.395 77.875 140.1 78.0795C139.807 78.2812 139.579 78.5668 139.414 78.9361C139.252 79.3026 139.171 79.733 139.171 80.2273C139.171 80.733 139.25 81.1733 139.409 81.5483C139.571 81.9233 139.799 82.2145 140.091 82.4219C140.387 82.6293 140.733 82.733 141.131 82.733C141.392 82.733 141.63 82.6875 141.843 82.5966C142.056 82.5057 142.236 82.375 142.384 82.2045C142.532 82.0341 142.637 81.8295 142.699 81.5909H143.705C143.648 81.9773 143.507 82.3253 143.283 82.6349C143.061 82.9418 142.767 83.1861 142.401 83.3679C142.037 83.5469 141.614 83.6364 141.131 83.6364ZM148.022 76.9545V77.8068H144.63V76.9545H148.022ZM145.618 75.3864H146.624V81.625C146.624 81.9091 146.665 82.1222 146.748 82.2642C146.833 82.4034 146.941 82.4972 147.071 82.5455C147.205 82.5909 147.346 82.6136 147.493 82.6136C147.604 82.6136 147.695 82.608 147.766 82.5966C147.837 82.5824 147.894 82.571 147.936 82.5625L148.141 83.4659C148.073 83.4915 147.978 83.517 147.855 83.5426C147.733 83.571 147.579 83.5852 147.391 83.5852C147.107 83.5852 146.829 83.5241 146.556 83.402C146.286 83.2798 146.061 83.0938 145.882 82.8438C145.706 82.5938 145.618 82.2784 145.618 81.8977V75.3864ZM159.966 74.7727V83.5H158.944L154.188 76.6477H154.103V83.5H153.046V74.7727H154.069L158.841 81.642H158.927V74.7727H159.966ZM163.871 83.6534C163.456 83.6534 163.08 83.5753 162.741 83.419C162.403 83.2599 162.135 83.0312 161.936 82.733C161.737 82.4318 161.638 82.0682 161.638 81.642C161.638 81.267 161.712 80.9631 161.859 80.7301C162.007 80.4943 162.205 80.3097 162.452 80.1761C162.699 80.0426 162.972 79.9432 163.27 79.8778C163.571 79.8097 163.874 79.7557 164.178 79.7159C164.575 79.6648 164.898 79.6264 165.145 79.6009C165.395 79.5724 165.577 79.5256 165.69 79.4602C165.807 79.3949 165.865 79.2812 165.865 79.1193V79.0852C165.865 78.6648 165.75 78.3381 165.52 78.1051C165.293 77.8722 164.947 77.7557 164.484 77.7557C164.004 77.7557 163.628 77.8608 163.355 78.071C163.082 78.2812 162.891 78.5057 162.78 78.7443L161.825 78.4034C161.996 78.0057 162.223 77.696 162.507 77.4744C162.794 77.25 163.107 77.0937 163.445 77.0057C163.786 76.9148 164.121 76.8693 164.45 76.8693C164.661 76.8693 164.902 76.8949 165.175 76.946C165.45 76.9943 165.716 77.0952 165.972 77.2486C166.23 77.402 166.445 77.6335 166.615 77.9432C166.786 78.2528 166.871 78.6676 166.871 79.1875V83.5H165.865V82.6136H165.814C165.746 82.7557 165.632 82.9077 165.473 83.0696C165.314 83.2315 165.102 83.3693 164.838 83.483C164.574 83.5966 164.251 83.6534 163.871 83.6534ZM164.024 82.75C164.422 82.75 164.757 82.6719 165.03 82.5156C165.305 82.3594 165.513 82.1577 165.652 81.9105C165.794 81.6634 165.865 81.4034 165.865 81.1307V80.2102C165.822 80.2614 165.729 80.3082 165.584 80.3509C165.442 80.3906 165.277 80.4261 165.09 80.4574C164.905 80.4858 164.724 80.5114 164.548 80.5341C164.375 80.554 164.234 80.571 164.126 80.5852C163.865 80.6193 163.621 80.6747 163.393 80.7514C163.169 80.8253 162.987 80.9375 162.848 81.0881C162.712 81.2358 162.643 81.4375 162.643 81.6932C162.643 82.0426 162.773 82.3068 163.031 82.4858C163.293 82.6619 163.624 82.75 164.024 82.75ZM171.553 76.9545V77.8068H168.161V76.9545H171.553ZM169.15 75.3864H170.155V81.625C170.155 81.9091 170.196 82.1222 170.279 82.2642C170.364 82.4034 170.472 82.4972 170.603 82.5455C170.736 82.5909 170.877 82.6136 171.025 82.6136C171.135 82.6136 171.226 82.608 171.297 82.5966C171.368 82.5824 171.425 82.571 171.468 82.5625L171.672 83.4659C171.604 83.4915 171.509 83.517 171.387 83.5426C171.265 83.571 171.11 83.5852 170.922 83.5852C170.638 83.5852 170.36 83.5241 170.087 83.402C169.817 83.2798 169.593 83.0938 169.414 82.8438C169.238 82.5938 169.15 82.2784 169.15 81.8977V75.3864ZM173.066 83.5V76.9545H174.071V83.5H173.066ZM173.577 75.8636C173.381 75.8636 173.212 75.7969 173.07 75.6634C172.931 75.5298 172.861 75.3693 172.861 75.1818C172.861 74.9943 172.931 74.8338 173.07 74.7003C173.212 74.5668 173.381 74.5 173.577 74.5C173.773 74.5 173.941 74.5668 174.08 74.7003C174.222 74.8338 174.293 74.9943 174.293 75.1818C174.293 75.3693 174.222 75.5298 174.08 75.6634C173.941 75.7969 173.773 75.8636 173.577 75.8636ZM181.266 76.9545L178.845 83.5H177.822L175.402 76.9545H176.493L178.3 82.1705H178.368L180.175 76.9545H181.266ZM185.103 83.6364C184.472 83.6364 183.928 83.4972 183.471 83.2188C183.016 82.9375 182.666 82.5455 182.418 82.0426C182.174 81.5369 182.052 80.9489 182.052 80.2784C182.052 79.608 182.174 79.017 182.418 78.5057C182.666 77.9915 183.009 77.5909 183.45 77.304C183.893 77.0142 184.41 76.8693 185.001 76.8693C185.342 76.8693 185.678 76.9261 186.011 77.0398C186.343 77.1534 186.646 77.3381 186.918 77.5938C187.191 77.8466 187.408 78.1818 187.57 78.5994C187.732 79.017 187.813 79.5312 187.813 80.142V80.5682H182.768V79.6989H186.791C186.791 79.3295 186.717 79 186.569 78.7102C186.424 78.4205 186.217 78.1918 185.947 78.0241C185.68 77.8565 185.364 77.7727 185.001 77.7727C184.6 77.7727 184.254 77.8722 183.961 78.071C183.671 78.267 183.448 78.5227 183.292 78.8381C183.136 79.1534 183.058 79.4915 183.058 79.8523V80.4318C183.058 80.9261 183.143 81.3452 183.313 81.6889C183.487 82.0298 183.727 82.2898 184.033 82.4688C184.34 82.6449 184.697 82.733 185.103 82.733C185.367 82.733 185.606 82.696 185.819 82.6222C186.035 82.5455 186.221 82.4318 186.377 82.2812C186.533 82.1278 186.654 81.9375 186.739 81.7102L187.711 81.983C187.609 82.3125 187.437 82.6023 187.195 82.8523C186.954 83.0994 186.656 83.2926 186.3 83.4318C185.945 83.5682 185.546 83.6364 185.103 83.6364Z" fill="#4493F8"/>
</svg>
