<svg width="416" height="114" viewBox="0 0 416 114" fill="none" xmlns="http://www.w3.org/2000/svg">
<rect width="416" height="102" rx="6" fill="#768395" fill-opacity="0.1"/>
<path d="M14.8487 15.8182V26H13.0043V15.8182H14.8487ZM18.5662 21.5256V26H16.7665V18.3636H18.4867V19.6612H18.5762C18.7518 19.2337 19.0319 18.8939 19.4164 18.642C19.8042 18.3902 20.2831 18.2642 20.8532 18.2642C21.3801 18.2642 21.8392 18.3769 22.2303 18.6023C22.6247 18.8277 22.9296 19.1541 23.1451 19.5817C23.3638 20.0092 23.4715 20.5279 23.4682 21.1378V26H21.6685V21.4162C21.6685 20.9058 21.5359 20.5064 21.2708 20.218C21.0089 19.9297 20.646 19.7855 20.182 19.7855C19.8671 19.7855 19.5871 19.8551 19.3418 19.9943C19.0998 20.1302 18.9093 20.3274 18.7701 20.5859C18.6342 20.8445 18.5662 21.1577 18.5662 21.5256ZM28.1316 26.1342C27.5317 26.1342 26.9947 25.9801 26.5208 25.6719C26.0468 25.3636 25.6723 24.9162 25.3972 24.3295C25.1221 23.7429 24.9846 23.0303 24.9846 22.1918C24.9846 21.3433 25.1238 20.6274 25.4022 20.044C25.6839 19.4574 26.0634 19.0149 26.5407 18.7166C27.0179 18.415 27.5499 18.2642 28.1365 18.2642C28.584 18.2642 28.9519 18.3404 29.2402 18.4929C29.5286 18.642 29.7573 18.8227 29.9263 19.0348C30.0953 19.2436 30.2263 19.4408 30.3191 19.6264H30.3936V15.8182H32.1983V26H30.4284V24.7969H30.3191C30.2263 24.9825 30.092 25.1797 29.9164 25.3885C29.7407 25.594 29.5087 25.7696 29.2203 25.9155C28.932 26.0613 28.5691 26.1342 28.1316 26.1342ZM28.6337 24.6577C29.0149 24.6577 29.3397 24.5549 29.6081 24.3494C29.8766 24.1406 30.0804 23.8506 30.2196 23.4794C30.3588 23.1082 30.4284 22.6757 30.4284 22.1818C30.4284 21.688 30.3588 21.2588 30.2196 20.8942C30.0837 20.5296 29.8816 20.2462 29.6131 20.044C29.348 19.8419 29.0215 19.7408 28.6337 19.7408C28.2327 19.7408 27.8979 19.8452 27.6294 20.054C27.361 20.2628 27.1588 20.5511 27.0229 20.919C26.887 21.2869 26.8191 21.7079 26.8191 22.1818C26.8191 22.6591 26.887 23.085 27.0229 23.4595C27.1621 23.8307 27.3659 24.1241 27.6344 24.3395C27.9062 24.5516 28.2393 24.6577 28.6337 24.6577ZM34.1161 26V18.3636H35.9158V26H34.1161ZM35.021 17.2798C34.7359 17.2798 34.4906 17.1854 34.2852 16.9964C34.0797 16.8042 33.9769 16.5739 33.9769 16.3054C33.9769 16.0336 34.0797 15.8033 34.2852 15.6143C34.4906 15.4221 34.7359 15.326 35.021 15.326C35.3093 15.326 35.5546 15.4221 35.7567 15.6143C35.9622 15.8033 36.065 16.0336 36.065 16.3054C36.065 16.5739 35.9622 16.8042 35.7567 16.9964C35.5546 17.1854 35.3093 17.2798 35.021 17.2798ZM39.6868 15.8182L42.3366 23.8324H42.4411L45.0859 15.8182H47.1143L43.5249 26H41.2479L37.6634 15.8182H39.6868ZM48.3759 26V18.3636H50.1756V26H48.3759ZM49.2807 17.2798C48.9957 17.2798 48.7504 17.1854 48.5449 16.9964C48.3394 16.8042 48.2367 16.5739 48.2367 16.3054C48.2367 16.0336 48.3394 15.8033 48.5449 15.6143C48.7504 15.4221 48.9957 15.326 49.2807 15.326C49.5691 15.326 49.8143 15.4221 50.0165 15.6143C50.222 15.8033 50.3248 16.0336 50.3248 16.3054C50.3248 16.5739 50.222 16.8042 50.0165 16.9964C49.8143 17.1854 49.5691 17.2798 49.2807 17.2798ZM58.0618 20.3821L56.4212 20.5611C56.3748 20.3954 56.2936 20.2396 56.1776 20.0938C56.0649 19.9479 55.9124 19.8303 55.7202 19.7408C55.5279 19.6513 55.2926 19.6065 55.0142 19.6065C54.6397 19.6065 54.3248 19.6877 54.0696 19.8501C53.8177 20.0125 53.6934 20.223 53.6967 20.4815C53.6934 20.7036 53.7746 20.8842 53.9403 21.0234C54.1094 21.1626 54.3878 21.277 54.7756 21.3665L56.0781 21.6449C56.8007 21.8007 57.3376 22.0476 57.6889 22.3857C58.0436 22.7237 58.2225 23.1662 58.2259 23.7131C58.2225 24.1937 58.0817 24.6179 57.8033 24.9858C57.5282 25.3504 57.1454 25.6354 56.6548 25.8409C56.1643 26.0464 55.6009 26.1491 54.9645 26.1491C54.0298 26.1491 53.2775 25.9536 52.7074 25.5625C52.1373 25.1681 51.7976 24.6196 51.6882 23.9169L53.4432 23.7479C53.5227 24.0926 53.6918 24.3527 53.9503 24.5284C54.2088 24.7041 54.5452 24.7919 54.9595 24.7919C55.3871 24.7919 55.7301 24.7041 55.9886 24.5284C56.2505 24.3527 56.3814 24.1357 56.3814 23.8771C56.3814 23.6584 56.2969 23.4777 56.1278 23.3352C55.9621 23.1927 55.7036 23.0833 55.3523 23.0071L54.0497 22.7337C53.3172 22.5812 52.7753 22.3243 52.424 21.9631C52.0727 21.5985 51.8987 21.1378 51.902 20.581C51.8987 20.1103 52.0263 19.7027 52.2848 19.358C52.5466 19.0099 52.9096 18.7415 53.3736 18.5526C53.8409 18.3603 54.3795 18.2642 54.9893 18.2642C55.8842 18.2642 56.5885 18.4548 57.1023 18.8359C57.6193 19.2171 57.9392 19.7325 58.0618 20.3821ZM64.5771 22.7884V18.3636H66.3768V26H64.6317V24.6428H64.5522C64.3799 25.0703 64.0965 25.42 63.7021 25.6918C63.311 25.9635 62.8287 26.0994 62.2553 26.0994C61.7549 26.0994 61.3124 25.9884 60.9279 25.7663C60.5468 25.541 60.2485 25.2145 60.033 24.7869C59.8176 24.3561 59.7099 23.8357 59.7099 23.2259V18.3636H61.5096V22.9474C61.5096 23.4313 61.6422 23.8158 61.9073 24.1009C62.1725 24.3859 62.5205 24.5284 62.9513 24.5284C63.2165 24.5284 63.4734 24.4638 63.7219 24.3345C63.9705 24.2053 64.1744 24.013 64.3335 23.7578C64.4959 23.4993 64.5771 23.1761 64.5771 22.7884ZM70.4249 26.1541C69.941 26.1541 69.5051 26.0679 69.1174 25.8956C68.7329 25.7199 68.428 25.4614 68.2026 25.12C67.9805 24.7786 67.8695 24.3577 67.8695 23.8572C67.8695 23.4264 67.949 23.0701 68.1081 22.7884C68.2672 22.5066 68.4843 22.2812 68.7594 22.1122C69.0345 21.9432 69.3444 21.8156 69.6891 21.7294C70.0371 21.6399 70.3967 21.5753 70.7679 21.5355C71.2154 21.4891 71.5783 21.4477 71.8567 21.4112C72.1351 21.3714 72.3373 21.3118 72.4632 21.2322C72.5925 21.1494 72.6571 21.0218 72.6571 20.8494V20.8196C72.6571 20.4451 72.5461 20.1551 72.324 19.9496C72.102 19.7441 71.7821 19.6413 71.3645 19.6413C70.9237 19.6413 70.574 19.7375 70.3155 19.9297C70.0603 20.1219 69.888 20.349 69.7985 20.6108L68.1181 20.3722C68.2507 19.9081 68.4694 19.5204 68.7743 19.2088C69.0792 18.8939 69.4521 18.6586 69.8929 18.5028C70.3337 18.3438 70.821 18.2642 71.3546 18.2642C71.7225 18.2642 72.0887 18.3073 72.4533 18.3935C72.8179 18.4796 73.151 18.6222 73.4526 18.821C73.7542 19.0166 73.9962 19.2834 74.1784 19.6214C74.3641 19.9595 74.4569 20.3821 74.4569 20.8892V26H72.7267V24.951H72.6671C72.5577 25.1631 72.4036 25.362 72.2047 25.5476C72.0092 25.7299 71.7623 25.8774 71.464 25.9901C71.169 26.0994 70.8226 26.1541 70.4249 26.1541ZM70.8922 24.8317C71.2535 24.8317 71.5667 24.7604 71.8319 24.6179C72.097 24.4721 72.3008 24.2798 72.4434 24.0412C72.5892 23.8026 72.6621 23.5424 72.6621 23.2607V22.3608C72.6058 22.4072 72.5096 22.4503 72.3738 22.4901C72.2412 22.5298 72.092 22.5646 71.9263 22.5945C71.7606 22.6243 71.5965 22.6508 71.4341 22.674C71.2717 22.6972 71.1309 22.7171 71.0115 22.7337C70.7431 22.7701 70.5028 22.8298 70.2907 22.9126C70.0785 22.9955 69.9112 23.1115 69.7885 23.2607C69.6659 23.4065 69.6046 23.5954 69.6046 23.8274C69.6046 24.1589 69.7256 24.4091 69.9675 24.5781C70.2095 24.7472 70.5177 24.8317 70.8922 24.8317ZM78.0662 15.8182V26H76.2665V15.8182H78.0662ZM83.4691 26V15.8182H90.0913V17.3643H85.3136V20.1286H89.7482V21.6747H85.3136V24.4538H90.131V26H83.4691ZM93.0121 28.8636C92.7668 28.8636 92.5398 28.8438 92.331 28.804C92.1255 28.7675 91.9614 28.7244 91.8388 28.6747L92.2564 27.2727C92.5182 27.349 92.7519 27.3854 92.9574 27.3821C93.1629 27.3788 93.3435 27.3142 93.4993 27.1882C93.6584 27.0656 93.7926 26.8601 93.902 26.5717L94.0561 26.1591L91.2869 18.3636H93.196L94.956 24.1307H95.0355L96.8004 18.3636H98.7145L95.657 26.9247C95.5144 27.3291 95.3255 27.6754 95.0902 27.9638C94.8549 28.2554 94.5665 28.4775 94.2251 28.63C93.8871 28.7857 93.4827 28.8636 93.0121 28.8636ZM103.081 26.1491C102.315 26.1491 101.654 25.9901 101.097 25.6719C100.544 25.3504 100.118 24.8963 99.8194 24.3097C99.5211 23.7197 99.372 23.0253 99.372 22.2266C99.372 21.4411 99.5211 20.7517 99.8194 20.1584C100.121 19.5618 100.542 19.0978 101.082 18.7663C101.622 18.4316 102.257 18.2642 102.986 18.2642C103.457 18.2642 103.901 18.3404 104.319 18.4929C104.74 18.642 105.111 18.8741 105.432 19.1889C105.757 19.5038 106.012 19.9048 106.198 20.392C106.384 20.8759 106.476 21.4527 106.476 22.1222V22.674H100.217V21.4609H104.751C104.748 21.1162 104.673 20.8097 104.528 20.5412C104.382 20.2694 104.178 20.0556 103.916 19.8999C103.657 19.7441 103.356 19.6662 103.011 19.6662C102.643 19.6662 102.32 19.7557 102.042 19.9347C101.763 20.1103 101.546 20.3423 101.39 20.6307C101.238 20.9157 101.16 21.2289 101.157 21.5703V22.6293C101.157 23.0734 101.238 23.4545 101.4 23.7727C101.563 24.0876 101.79 24.3295 102.081 24.4986C102.373 24.6643 102.715 24.7472 103.106 24.7472C103.367 24.7472 103.604 24.7107 103.817 24.6378C104.029 24.5616 104.213 24.4505 104.368 24.3047C104.524 24.1589 104.642 23.9782 104.721 23.7628L106.402 23.9517C106.296 24.3958 106.094 24.7836 105.795 25.1151C105.5 25.4432 105.122 25.6984 104.662 25.8807C104.201 26.0597 103.674 26.1491 103.081 26.1491ZM114.034 20.3821L112.394 20.5611C112.347 20.3954 112.266 20.2396 112.15 20.0938C112.038 19.9479 111.885 19.8303 111.693 19.7408C111.501 19.6513 111.265 19.6065 110.987 19.6065C110.612 19.6065 110.297 19.6877 110.042 19.8501C109.79 20.0125 109.666 20.223 109.669 20.4815C109.666 20.7036 109.747 20.8842 109.913 21.0234C110.082 21.1626 110.36 21.277 110.748 21.3665L112.051 21.6449C112.773 21.8007 113.31 22.0476 113.662 22.3857C114.016 22.7237 114.195 23.1662 114.199 23.7131C114.195 24.1937 114.054 24.6179 113.776 24.9858C113.501 25.3504 113.118 25.6354 112.627 25.8409C112.137 26.0464 111.574 26.1491 110.937 26.1491C110.002 26.1491 109.25 25.9536 108.68 25.5625C108.11 25.1681 107.77 24.6196 107.661 23.9169L109.416 23.7479C109.495 24.0926 109.664 24.3527 109.923 24.5284C110.181 24.7041 110.518 24.7919 110.932 24.7919C111.36 24.7919 111.703 24.7041 111.961 24.5284C112.223 24.3527 112.354 24.1357 112.354 23.8771C112.354 23.6584 112.27 23.4777 112.1 23.3352C111.935 23.1927 111.676 23.0833 111.325 23.0071L110.022 22.7337C109.29 22.5812 108.748 22.3243 108.397 21.9631C108.045 21.5985 107.871 21.1378 107.875 20.581C107.871 20.1103 107.999 19.7027 108.257 19.358C108.519 19.0099 108.882 18.7415 109.346 18.5526C109.814 18.3603 110.352 18.2642 110.962 18.2642C111.857 18.2642 112.561 18.4548 113.075 18.8359C113.592 19.2171 113.912 19.7325 114.034 20.3821ZM120.542 26H118.574L122.158 15.8182H124.435L128.025 26H126.056L123.336 17.9062H123.257L120.542 26ZM120.607 22.0078H125.976V23.4893H120.607V22.0078ZM129.286 28.8636V18.3636H131.056V19.6264H131.16C131.253 19.4408 131.384 19.2436 131.553 19.0348C131.722 18.8227 131.951 18.642 132.239 18.4929C132.528 18.3404 132.895 18.2642 133.343 18.2642C133.933 18.2642 134.465 18.415 134.939 18.7166C135.416 19.0149 135.794 19.4574 136.072 20.044C136.354 20.6274 136.495 21.3433 136.495 22.1918C136.495 23.0303 136.357 23.7429 136.082 24.3295C135.807 24.9162 135.433 25.3636 134.959 25.6719C134.485 25.9801 133.948 26.1342 133.348 26.1342C132.91 26.1342 132.547 26.0613 132.259 25.9155C131.971 25.7696 131.739 25.594 131.563 25.3885C131.391 25.1797 131.256 24.9825 131.16 24.7969H131.086V28.8636H129.286ZM131.051 22.1818C131.051 22.6757 131.121 23.1082 131.26 23.4794C131.402 23.8506 131.606 24.1406 131.871 24.3494C132.14 24.5549 132.465 24.6577 132.846 24.6577C133.243 24.6577 133.577 24.5516 133.845 24.3395C134.113 24.1241 134.316 23.8307 134.452 23.4595C134.591 23.085 134.66 22.6591 134.66 22.1818C134.66 21.7079 134.592 21.2869 134.456 20.919C134.321 20.5511 134.118 20.2628 133.85 20.054C133.581 19.8452 133.247 19.7408 132.846 19.7408C132.461 19.7408 132.135 19.8419 131.866 20.044C131.598 20.2462 131.394 20.5296 131.255 20.8942C131.119 21.2588 131.051 21.688 131.051 22.1818ZM138.036 28.8636V18.3636H139.806V19.6264H139.91C140.003 19.4408 140.134 19.2436 140.303 19.0348C140.472 18.8227 140.701 18.642 140.989 18.4929C141.278 18.3404 141.645 18.2642 142.093 18.2642C142.683 18.2642 143.215 18.415 143.689 18.7166C144.166 19.0149 144.544 19.4574 144.822 20.044C145.104 20.6274 145.245 21.3433 145.245 22.1918C145.245 23.0303 145.107 23.7429 144.832 24.3295C144.557 24.9162 144.183 25.3636 143.709 25.6719C143.235 25.9801 142.698 26.1342 142.098 26.1342C141.66 26.1342 141.297 26.0613 141.009 25.9155C140.721 25.7696 140.489 25.594 140.313 25.3885C140.141 25.1797 140.006 24.9825 139.91 24.7969H139.836V28.8636H138.036ZM139.801 22.1818C139.801 22.6757 139.871 23.1082 140.01 23.4794C140.152 23.8506 140.356 24.1406 140.621 24.3494C140.89 24.5549 141.215 24.6577 141.596 24.6577C141.993 24.6577 142.327 24.5516 142.595 24.3395C142.863 24.1241 143.066 23.8307 143.202 23.4595C143.341 23.085 143.41 22.6591 143.41 22.1818C143.41 21.7079 143.342 21.2869 143.206 20.919C143.071 20.5511 142.868 20.2628 142.6 20.054C142.331 19.8452 141.997 19.7408 141.596 19.7408C141.211 19.7408 140.885 19.8419 140.616 20.044C140.348 20.2462 140.144 20.5296 140.005 20.8942C139.869 21.2588 139.801 21.688 139.801 22.1818Z" fill="#4493F8"/>
<path d="M13.0568 53V44.2727H18.2898V45.2102H14.1136V48.1591H17.8977V49.0966H14.1136V53H13.0568ZM19.8931 53V46.4545H20.8647V47.4432H20.9329C21.0522 47.1193 21.2681 46.8565 21.5806 46.6548C21.8931 46.4531 22.2454 46.3523 22.6374 46.3523C22.7113 46.3523 22.8036 46.3537 22.9144 46.3565C23.0252 46.3594 23.109 46.3636 23.1658 46.3693V47.392C23.1317 47.3835 23.0536 47.3707 22.9315 47.3537C22.8121 47.3338 22.6857 47.3239 22.5522 47.3239C22.234 47.3239 21.9499 47.3906 21.6999 47.5241C21.4528 47.6548 21.2567 47.8366 21.1119 48.0696C20.9698 48.2997 20.8988 48.5625 20.8988 48.858V53H19.8931ZM26.8178 53.1364C26.2269 53.1364 25.7085 52.9957 25.2624 52.7145C24.8192 52.4332 24.4727 52.0398 24.2227 51.5341C23.9755 51.0284 23.8519 50.4375 23.8519 49.7614C23.8519 49.0795 23.9755 48.4844 24.2227 47.9759C24.4727 47.4673 24.8192 47.0724 25.2624 46.7912C25.7085 46.5099 26.2269 46.3693 26.8178 46.3693C27.4087 46.3693 27.9258 46.5099 28.369 46.7912C28.815 47.0724 29.1616 47.4673 29.4087 47.9759C29.6587 48.4844 29.7837 49.0795 29.7837 49.7614C29.7837 50.4375 29.6587 51.0284 29.4087 51.5341C29.1616 52.0398 28.815 52.4332 28.369 52.7145C27.9258 52.9957 27.4087 53.1364 26.8178 53.1364ZM26.8178 52.233C27.2667 52.233 27.636 52.1179 27.9258 51.8878C28.2156 51.6577 28.43 51.3551 28.5692 50.9801C28.7085 50.6051 28.7781 50.1989 28.7781 49.7614C28.7781 49.3239 28.7085 48.9162 28.5692 48.5384C28.43 48.1605 28.2156 47.8551 27.9258 47.6222C27.636 47.3892 27.2667 47.2727 26.8178 47.2727C26.369 47.2727 25.9996 47.3892 25.7099 47.6222C25.4201 47.8551 25.2056 48.1605 25.0664 48.5384C24.9272 48.9162 24.8576 49.3239 24.8576 49.7614C24.8576 50.1989 24.9272 50.6051 25.0664 50.9801C25.2056 51.3551 25.4201 51.6577 25.7099 51.8878C25.9996 52.1179 26.369 52.233 26.8178 52.233ZM32.3246 49.0625V53H31.3189V46.4545H32.2905V47.4773H32.3757C32.5291 47.1449 32.7621 46.8778 33.0746 46.6761C33.3871 46.4716 33.7905 46.3693 34.2848 46.3693C34.728 46.3693 35.1158 46.4602 35.4482 46.642C35.7805 46.821 36.0391 47.0938 36.2237 47.4602C36.4084 47.8239 36.5007 48.2841 36.5007 48.8409V53H35.495V48.9091C35.495 48.3949 35.3615 47.9943 35.0945 47.7074C34.8274 47.4176 34.4609 47.2727 33.995 47.2727C33.674 47.2727 33.3871 47.3423 33.1342 47.4815C32.8842 47.6207 32.6868 47.8239 32.5419 48.0909C32.397 48.358 32.3246 48.6818 32.3246 49.0625ZM41.185 46.4545V47.3068H37.793V46.4545H41.185ZM38.7816 44.8864H39.7873V51.125C39.7873 51.4091 39.8285 51.6222 39.9109 51.7642C39.9961 51.9034 40.104 51.9972 40.2347 52.0455C40.3683 52.0909 40.5089 52.1136 40.6566 52.1136C40.7674 52.1136 40.8583 52.108 40.9293 52.0966C41.0004 52.0824 41.0572 52.071 41.0998 52.0625L41.3043 52.9659C41.2362 52.9915 41.141 53.017 41.0188 53.0426C40.8967 53.071 40.7418 53.0852 40.5543 53.0852C40.2702 53.0852 39.9918 53.0241 39.7191 52.902C39.4492 52.7798 39.2248 52.5938 39.0458 52.3438C38.8697 52.0938 38.7816 51.7784 38.7816 51.3977V44.8864ZM45.3718 53.1364C44.7411 53.1364 44.1971 52.9972 43.7397 52.7188C43.2852 52.4375 42.9343 52.0455 42.6871 51.5426C42.4428 51.0369 42.3207 50.4489 42.3207 49.7784C42.3207 49.108 42.4428 48.517 42.6871 48.0057C42.9343 47.4915 43.2781 47.0909 43.7184 46.804C44.1616 46.5142 44.6786 46.3693 45.2695 46.3693C45.6104 46.3693 45.9471 46.4261 46.2795 46.5398C46.6119 46.6534 46.9144 46.8381 47.1871 47.0938C47.4599 47.3466 47.6772 47.6818 47.8391 48.0994C48.0011 48.517 48.082 49.0312 48.082 49.642V50.0682H43.0366V49.1989H47.0593C47.0593 48.8295 46.9854 48.5 46.8377 48.2102C46.6928 47.9205 46.4854 47.6918 46.2156 47.5241C45.9485 47.3565 45.6332 47.2727 45.2695 47.2727C44.869 47.2727 44.5224 47.3722 44.2298 47.571C43.94 47.767 43.717 48.0227 43.5607 48.3381C43.4045 48.6534 43.3263 48.9915 43.3263 49.3523V49.9318C43.3263 50.4261 43.4116 50.8452 43.582 51.1889C43.7553 51.5298 43.9954 51.7898 44.3022 51.9688C44.609 52.1449 44.9656 52.233 45.3718 52.233C45.636 52.233 45.8746 52.196 46.0877 52.1222C46.3036 52.0455 46.4897 51.9318 46.646 51.7812C46.8022 51.6278 46.9229 51.4375 47.0082 51.2102L47.9798 51.483C47.8775 51.8125 47.7056 52.1023 47.4641 52.3523C47.2227 52.5994 46.9244 52.7926 46.5692 52.9318C46.2141 53.0682 45.815 53.1364 45.3718 53.1364ZM50.6175 49.0625V53H49.6119V46.4545H50.5835V47.4773H50.6687C50.8221 47.1449 51.055 46.8778 51.3675 46.6761C51.68 46.4716 52.0835 46.3693 52.5778 46.3693C53.021 46.3693 53.4087 46.4602 53.7411 46.642C54.0735 46.821 54.332 47.0938 54.5167 47.4602C54.7013 47.8239 54.7937 48.2841 54.7937 48.8409V53H53.788V48.9091C53.788 48.3949 53.6545 47.9943 53.3874 47.7074C53.1204 47.4176 52.7539 47.2727 52.288 47.2727C51.967 47.2727 51.68 47.3423 51.4272 47.4815C51.1772 47.6207 50.9798 47.8239 50.8349 48.0909C50.69 48.358 50.6175 48.6818 50.6175 49.0625ZM59.103 53.1364C58.5575 53.1364 58.076 52.9986 57.6584 52.723C57.2408 52.4446 56.9141 52.0526 56.6783 51.5469C56.4425 51.0384 56.3246 50.4375 56.3246 49.7443C56.3246 49.0568 56.4425 48.4602 56.6783 47.9545C56.9141 47.4489 57.2422 47.0582 57.6626 46.7827C58.0831 46.5071 58.5689 46.3693 59.12 46.3693C59.5462 46.3693 59.8828 46.4403 60.13 46.5824C60.38 46.7216 60.5703 46.8807 60.701 47.0597C60.8345 47.2358 60.9382 47.3807 61.0121 47.4943H61.0973V44.2727H62.103V53H61.1314V51.9943H61.0121C60.9382 52.1136 60.8331 52.2642 60.6967 52.446C60.5604 52.625 60.3658 52.7855 60.1129 52.9276C59.8601 53.0668 59.5234 53.1364 59.103 53.1364ZM59.2393 52.233C59.6428 52.233 59.9837 52.1278 60.2621 51.9176C60.5405 51.7045 60.7521 51.4105 60.897 51.0355C61.0419 50.6577 61.1143 50.2216 61.1143 49.7273C61.1143 49.2386 61.0433 48.8111 60.9013 48.4446C60.7592 48.0753 60.549 47.7884 60.2706 47.5838C59.9922 47.3764 59.6484 47.2727 59.2393 47.2727C58.8132 47.2727 58.4581 47.3821 58.174 47.6009C57.8928 47.8168 57.6811 48.1108 57.5391 48.483C57.3999 48.8523 57.3303 49.267 57.3303 49.7273C57.3303 50.1932 57.4013 50.6165 57.5433 50.9972C57.6882 51.375 57.9013 51.6761 58.1825 51.9006C58.4666 52.1222 58.8189 52.233 59.2393 52.233ZM70.3743 46.4545V47.3068H66.8459V46.4545H70.3743ZM67.9027 53V45.5511C67.9027 45.1761 67.9908 44.8636 68.1669 44.6136C68.343 44.3636 68.5717 44.1761 68.853 44.0511C69.1342 43.9261 69.4311 43.8636 69.7436 43.8636C69.9908 43.8636 70.1925 43.8835 70.3487 43.9233C70.505 43.9631 70.6214 44 70.6982 44.0341L70.4084 44.9034C70.3572 44.8864 70.2862 44.8651 70.1953 44.8395C70.1072 44.8139 69.9908 44.8011 69.8459 44.8011C69.5135 44.8011 69.2734 44.8849 69.1257 45.0526C68.9808 45.2202 68.9084 45.4659 68.9084 45.7898V53H67.9027ZM74.1733 53.1364C73.5824 53.1364 73.0639 52.9957 72.6179 52.7145C72.1747 52.4332 71.8281 52.0398 71.5781 51.5341C71.331 51.0284 71.2074 50.4375 71.2074 49.7614C71.2074 49.0795 71.331 48.4844 71.5781 47.9759C71.8281 47.4673 72.1747 47.0724 72.6179 46.7912C73.0639 46.5099 73.5824 46.3693 74.1733 46.3693C74.7642 46.3693 75.2813 46.5099 75.7244 46.7912C76.1705 47.0724 76.517 47.4673 76.7642 47.9759C77.0142 48.4844 77.1392 49.0795 77.1392 49.7614C77.1392 50.4375 77.0142 51.0284 76.7642 51.5341C76.517 52.0398 76.1705 52.4332 75.7244 52.7145C75.2813 52.9957 74.7642 53.1364 74.1733 53.1364ZM74.1733 52.233C74.6222 52.233 74.9915 52.1179 75.2812 51.8878C75.571 51.6577 75.7855 51.3551 75.9247 50.9801C76.0639 50.6051 76.1335 50.1989 76.1335 49.7614C76.1335 49.3239 76.0639 48.9162 75.9247 48.5384C75.7855 48.1605 75.571 47.8551 75.2812 47.6222C74.9915 47.3892 74.6222 47.2727 74.1733 47.2727C73.7244 47.2727 73.3551 47.3892 73.0653 47.6222C72.7756 47.8551 72.5611 48.1605 72.4219 48.5384C72.2827 48.9162 72.2131 49.3239 72.2131 49.7614C72.2131 50.1989 72.2827 50.6051 72.4219 50.9801C72.5611 51.3551 72.7756 51.6577 73.0653 51.8878C73.3551 52.1179 73.7244 52.233 74.1733 52.233ZM78.6744 53V46.4545H79.646V47.4432H79.7141C79.8335 47.1193 80.0494 46.8565 80.3619 46.6548C80.6744 46.4531 81.0266 46.3523 81.4187 46.3523C81.4925 46.3523 81.5849 46.3537 81.6957 46.3565C81.8065 46.3594 81.8903 46.3636 81.9471 46.3693V47.392C81.913 47.3835 81.8349 47.3707 81.7127 47.3537C81.5934 47.3338 81.467 47.3239 81.3335 47.3239C81.0153 47.3239 80.7312 47.3906 80.4812 47.5241C80.234 47.6548 80.038 47.8366 79.8931 48.0696C79.7511 48.2997 79.68 48.5625 79.68 48.858V53H78.6744ZM89.3608 46.4545V47.3068H85.9688V46.4545H89.3608ZM86.9574 44.8864H87.9631V51.125C87.9631 51.4091 88.0043 51.6222 88.0866 51.7642C88.1719 51.9034 88.2798 51.9972 88.4105 52.0455C88.544 52.0909 88.6847 52.1136 88.8324 52.1136C88.9432 52.1136 89.0341 52.108 89.1051 52.0966C89.1761 52.0824 89.233 52.071 89.2756 52.0625L89.4801 52.9659C89.4119 52.9915 89.3168 53.017 89.1946 53.0426C89.0724 53.071 88.9176 53.0852 88.7301 53.0852C88.446 53.0852 88.1676 53.0241 87.8949 52.902C87.625 52.7798 87.4006 52.5938 87.2216 52.3438C87.0455 52.0938 86.9574 51.7784 86.9574 51.3977V44.8864ZM92.0199 49.0625V53H91.0142V44.2727H92.0199V47.4773H92.1051C92.2585 47.1392 92.4886 46.8707 92.7955 46.6719C93.1051 46.4702 93.517 46.3693 94.0312 46.3693C94.4773 46.3693 94.8679 46.4588 95.2031 46.6378C95.5384 46.8139 95.7983 47.0852 95.983 47.4517C96.1705 47.8153 96.2642 48.2784 96.2642 48.8409V53H95.2585V48.9091C95.2585 48.3892 95.1236 47.9872 94.8537 47.7031C94.5866 47.4162 94.2159 47.2727 93.7415 47.2727C93.4119 47.2727 93.1165 47.3423 92.8551 47.4815C92.5966 47.6207 92.392 47.8239 92.2415 48.0909C92.0938 48.358 92.0199 48.6818 92.0199 49.0625ZM100.848 53.1364C100.218 53.1364 99.6737 52.9972 99.2163 52.7188C98.7617 52.4375 98.4109 52.0455 98.1637 51.5426C97.9194 51.0369 97.7972 50.4489 97.7972 49.7784C97.7972 49.108 97.9194 48.517 98.1637 48.0057C98.4109 47.4915 98.7546 47.0909 99.195 46.804C99.6381 46.5142 100.155 46.3693 100.746 46.3693C101.087 46.3693 101.424 46.4261 101.756 46.5398C102.088 46.6534 102.391 46.8381 102.664 47.0938C102.936 47.3466 103.154 47.6818 103.316 48.0994C103.478 48.517 103.559 49.0312 103.559 49.642V50.0682H98.5131V49.1989H102.536C102.536 48.8295 102.462 48.5 102.314 48.2102C102.169 47.9205 101.962 47.6918 101.692 47.5241C101.425 47.3565 101.11 47.2727 100.746 47.2727C100.346 47.2727 99.9989 47.3722 99.7063 47.571C99.4165 47.767 99.1935 48.0227 99.0373 48.3381C98.881 48.6534 98.8029 48.9915 98.8029 49.3523V49.9318C98.8029 50.4261 98.8881 50.8452 99.0586 51.1889C99.2319 51.5298 99.4719 51.7898 99.7788 51.9688C100.086 52.1449 100.442 52.233 100.848 52.233C101.113 52.233 101.351 52.196 101.564 52.1222C101.78 52.0455 101.966 51.9318 102.123 51.7812C102.279 51.6278 102.4 51.4375 102.485 51.2102L103.456 51.483C103.354 51.8125 103.182 52.1023 102.941 52.3523C102.699 52.5994 102.401 52.7926 102.046 52.9318C101.691 53.0682 101.292 53.1364 100.848 53.1364ZM109.657 44.2727V53H108.6V44.2727H109.657ZM112.645 49.0625V53H111.639V46.4545H112.611V47.4773H112.696C112.849 47.1449 113.082 46.8778 113.395 46.6761C113.707 46.4716 114.111 46.3693 114.605 46.3693C115.048 46.3693 115.436 46.4602 115.768 46.642C116.101 46.821 116.359 47.0938 116.544 47.4602C116.729 47.8239 116.821 48.2841 116.821 48.8409V53H115.815V48.9091C115.815 48.3949 115.682 47.9943 115.415 47.7074C115.148 47.4176 114.781 47.2727 114.315 47.2727C113.994 47.2727 113.707 47.3423 113.455 47.4815C113.205 47.6207 113.007 47.8239 112.862 48.0909C112.717 48.358 112.645 48.6818 112.645 49.0625ZM121.13 53.1364C120.585 53.1364 120.103 52.9986 119.686 52.723C119.268 52.4446 118.941 52.0526 118.706 51.5469C118.47 51.0384 118.352 50.4375 118.352 49.7443C118.352 49.0568 118.47 48.4602 118.706 47.9545C118.941 47.4489 119.27 47.0582 119.69 46.7827C120.11 46.5071 120.596 46.3693 121.147 46.3693C121.574 46.3693 121.91 46.4403 122.157 46.5824C122.407 46.7216 122.598 46.8807 122.728 47.0597C122.862 47.2358 122.966 47.3807 123.039 47.4943H123.125V44.2727H124.13V53H123.159V51.9943H123.039C122.966 52.1136 122.86 52.2642 122.724 52.446C122.588 52.625 122.393 52.7855 122.14 52.9276C121.887 53.0668 121.551 53.1364 121.13 53.1364ZM121.267 52.233C121.67 52.233 122.011 52.1278 122.289 51.9176C122.568 51.7045 122.779 51.4105 122.924 51.0355C123.069 50.6577 123.142 50.2216 123.142 49.7273C123.142 49.2386 123.071 48.8111 122.929 48.4446C122.787 48.0753 122.576 47.7884 122.298 47.5838C122.02 47.3764 121.676 47.2727 121.267 47.2727C120.841 47.2727 120.485 47.3821 120.201 47.6009C119.92 47.8168 119.708 48.1108 119.566 48.483C119.427 48.8523 119.358 49.267 119.358 49.7273C119.358 50.1932 119.429 50.6165 119.571 50.9972C119.716 51.375 119.929 51.6761 120.21 51.9006C120.494 52.1222 120.846 52.233 121.267 52.233ZM126.112 53V46.4545H127.118V53H126.112ZM126.623 45.3636C126.427 45.3636 126.258 45.2969 126.116 45.1634C125.977 45.0298 125.907 44.8693 125.907 44.6818C125.907 44.4943 125.977 44.3338 126.116 44.2003C126.258 44.0668 126.427 44 126.623 44C126.819 44 126.987 44.0668 127.126 44.2003C127.268 44.3338 127.339 44.4943 127.339 44.6818C127.339 44.8693 127.268 45.0298 127.126 45.1634C126.987 45.2969 126.819 45.3636 126.623 45.3636ZM129.864 44.2727L132.455 51.6193H132.557L135.148 44.2727H136.256L133.051 53H131.961L128.756 44.2727H129.864ZM137.479 53V46.4545H138.485V53H137.479ZM137.99 45.3636C137.794 45.3636 137.625 45.2969 137.483 45.1634C137.344 45.0298 137.275 44.8693 137.275 44.6818C137.275 44.4943 137.344 44.3338 137.483 44.2003C137.625 44.0668 137.794 44 137.99 44C138.186 44 138.354 44.0668 138.493 44.2003C138.635 44.3338 138.706 44.4943 138.706 44.6818C138.706 44.8693 138.635 45.0298 138.493 45.1634C138.354 45.2969 138.186 45.3636 137.99 45.3636ZM144.963 47.9205L144.06 48.1761C144.003 48.0256 143.919 47.8793 143.808 47.7372C143.7 47.5923 143.553 47.473 143.365 47.3793C143.178 47.2855 142.938 47.2386 142.645 47.2386C142.244 47.2386 141.911 47.331 141.643 47.5156C141.379 47.6974 141.247 47.929 141.247 48.2102C141.247 48.4602 141.338 48.6577 141.52 48.8026C141.702 48.9474 141.986 49.0682 142.372 49.1648L143.344 49.4034C143.929 49.5455 144.365 49.7628 144.652 50.0554C144.939 50.3452 145.082 50.7187 145.082 51.1761C145.082 51.5511 144.974 51.8864 144.759 52.1818C144.545 52.4773 144.247 52.7102 143.864 52.8807C143.48 53.0511 143.034 53.1364 142.526 53.1364C141.858 53.1364 141.305 52.9915 140.868 52.7017C140.43 52.4119 140.153 51.9886 140.037 51.4318L140.991 51.1932C141.082 51.5455 141.254 51.8097 141.507 51.9858C141.763 52.1619 142.097 52.25 142.509 52.25C142.977 52.25 143.349 52.1506 143.625 51.9517C143.903 51.75 144.043 51.5085 144.043 51.2273C144.043 51 143.963 50.8097 143.804 50.6562C143.645 50.5 143.401 50.3835 143.071 50.3068L141.98 50.0511C141.381 49.9091 140.94 49.6889 140.659 49.3906C140.381 49.0895 140.241 48.7131 140.241 48.2614C140.241 47.892 140.345 47.5653 140.553 47.2812C140.763 46.9972 141.048 46.7741 141.409 46.6122C141.773 46.4503 142.185 46.3693 142.645 46.3693C143.293 46.3693 143.801 46.5114 144.17 46.7955C144.543 47.0795 144.807 47.4545 144.963 47.9205ZM150.721 50.3239V46.4545H151.727V53H150.721V51.892H150.653C150.5 52.2244 150.261 52.5071 149.937 52.7401C149.613 52.9702 149.204 53.0852 148.71 53.0852C148.301 53.0852 147.937 52.9957 147.619 52.8168C147.301 52.6349 147.051 52.3622 146.869 51.9986C146.687 51.6321 146.596 51.1705 146.596 50.6136V46.4545H147.602V50.5455C147.602 51.0227 147.735 51.4034 148.002 51.6875C148.272 51.9716 148.616 52.1136 149.034 52.1136C149.284 52.1136 149.538 52.0497 149.797 51.9219C150.058 51.794 150.277 51.598 150.453 51.3338C150.632 51.0696 150.721 50.733 150.721 50.3239ZM155.495 53.1534C155.08 53.1534 154.704 53.0753 154.366 52.919C154.028 52.7599 153.759 52.5312 153.56 52.233C153.362 51.9318 153.262 51.5682 153.262 51.142C153.262 50.767 153.336 50.4631 153.484 50.2301C153.631 49.9943 153.829 49.8097 154.076 49.6761C154.323 49.5426 154.596 49.4432 154.894 49.3778C155.195 49.3097 155.498 49.2557 155.802 49.2159C156.2 49.1648 156.522 49.1264 156.769 49.1009C157.019 49.0724 157.201 49.0256 157.315 48.9602C157.431 48.8949 157.489 48.7812 157.489 48.6193V48.5852C157.489 48.1648 157.374 47.8381 157.144 47.6051C156.917 47.3722 156.572 47.2557 156.109 47.2557C155.629 47.2557 155.252 47.3608 154.979 47.571C154.707 47.7812 154.515 48.0057 154.404 48.2443L153.45 47.9034C153.62 47.5057 153.847 47.196 154.131 46.9744C154.418 46.75 154.731 46.5937 155.069 46.5057C155.41 46.4148 155.745 46.3693 156.075 46.3693C156.285 46.3693 156.526 46.3949 156.799 46.446C157.075 46.4943 157.34 46.5952 157.596 46.7486C157.854 46.902 158.069 47.1335 158.239 47.4432C158.41 47.7528 158.495 48.1676 158.495 48.6875V53H157.489V52.1136H157.438C157.37 52.2557 157.256 52.4077 157.097 52.5696C156.938 52.7315 156.727 52.8693 156.462 52.983C156.198 53.0966 155.876 53.1534 155.495 53.1534ZM155.648 52.25C156.046 52.25 156.381 52.1719 156.654 52.0156C156.93 51.8594 157.137 51.6577 157.276 51.4105C157.418 51.1634 157.489 50.9034 157.489 50.6307V49.7102C157.447 49.7614 157.353 49.8082 157.208 49.8509C157.066 49.8906 156.901 49.9261 156.714 49.9574C156.529 49.9858 156.349 50.0114 156.173 50.0341C155.999 50.054 155.859 50.071 155.751 50.0852C155.489 50.1193 155.245 50.1747 155.018 50.2514C154.793 50.3253 154.612 50.4375 154.472 50.5881C154.336 50.7358 154.268 50.9375 154.268 51.1932C154.268 51.5426 154.397 51.8068 154.656 51.9858C154.917 52.1619 155.248 52.25 155.648 52.25ZM161.336 44.2727V53H160.331V44.2727H161.336ZM166.69 53V44.2727H171.957V45.2102H167.746V48.1591H171.684V49.0966H167.746V52.0625H172.025V53H166.69ZM174.373 55.4545C174.202 55.4545 174.05 55.4403 173.917 55.4119C173.783 55.3864 173.691 55.3608 173.64 55.3352L173.896 54.4489C174.14 54.5114 174.356 54.5341 174.543 54.517C174.731 54.5 174.897 54.4162 175.042 54.2656C175.19 54.1179 175.325 53.8778 175.447 53.5455L175.634 53.0341L173.214 46.4545H174.305L176.112 51.6705H176.18L177.987 46.4545H179.077L176.299 53.9545C176.174 54.2926 176.019 54.5724 175.835 54.794C175.65 55.0185 175.435 55.1847 175.191 55.2926C174.95 55.4006 174.677 55.4545 174.373 55.4545ZM182.915 53.1364C182.284 53.1364 181.74 52.9972 181.283 52.7188C180.828 52.4375 180.477 52.0455 180.23 51.5426C179.986 51.0369 179.864 50.4489 179.864 49.7784C179.864 49.108 179.986 48.517 180.23 48.0057C180.477 47.4915 180.821 47.0909 181.261 46.804C181.705 46.5142 182.222 46.3693 182.812 46.3693C183.153 46.3693 183.49 46.4261 183.822 46.5398C184.155 46.6534 184.457 46.8381 184.73 47.0938C185.003 47.3466 185.22 47.6818 185.382 48.0994C185.544 48.517 185.625 49.0312 185.625 49.642V50.0682H180.58V49.1989H184.602C184.602 48.8295 184.528 48.5 184.381 48.2102C184.236 47.9205 184.028 47.6918 183.759 47.5241C183.491 47.3565 183.176 47.2727 182.812 47.2727C182.412 47.2727 182.065 47.3722 181.773 47.571C181.483 47.767 181.26 48.0227 181.104 48.3381C180.947 48.6534 180.869 48.9915 180.869 49.3523V49.9318C180.869 50.4261 180.955 50.8452 181.125 51.1889C181.298 51.5298 181.538 51.7898 181.845 51.9688C182.152 52.1449 182.509 52.233 182.915 52.233C183.179 52.233 183.418 52.196 183.631 52.1222C183.847 52.0455 184.033 51.9318 184.189 51.7812C184.345 51.6278 184.466 51.4375 184.551 51.2102L185.523 51.483C185.42 51.8125 185.249 52.1023 185.007 52.3523C184.766 52.5994 184.467 52.7926 184.112 52.9318C183.757 53.0682 183.358 53.1364 182.915 53.1364ZM191.791 47.9205L190.888 48.1761C190.831 48.0256 190.747 47.8793 190.636 47.7372C190.528 47.5923 190.381 47.473 190.193 47.3793C190.006 47.2855 189.766 47.2386 189.473 47.2386C189.072 47.2386 188.739 47.331 188.472 47.5156C188.207 47.6974 188.075 47.929 188.075 48.2102C188.075 48.4602 188.166 48.6577 188.348 48.8026C188.53 48.9474 188.814 49.0682 189.2 49.1648L190.172 49.4034C190.757 49.5455 191.193 49.7628 191.48 50.0554C191.767 50.3452 191.911 50.7187 191.911 51.1761C191.911 51.5511 191.803 51.8864 191.587 52.1818C191.374 52.4773 191.075 52.7102 190.692 52.8807C190.308 53.0511 189.862 53.1364 189.354 53.1364C188.686 53.1364 188.134 52.9915 187.696 52.7017C187.259 52.4119 186.982 51.9886 186.865 51.4318L187.82 51.1932C187.911 51.5455 188.082 51.8097 188.335 51.9858C188.591 52.1619 188.925 52.25 189.337 52.25C189.805 52.25 190.178 52.1506 190.453 51.9517C190.732 51.75 190.871 51.5085 190.871 51.2273C190.871 51 190.791 50.8097 190.632 50.6562C190.473 50.5 190.229 50.3835 189.899 50.3068L188.808 50.0511C188.209 49.9091 187.768 49.6889 187.487 49.3906C187.209 49.0895 187.07 48.7131 187.07 48.2614C187.07 47.892 187.173 47.5653 187.381 47.2812C187.591 46.9972 187.876 46.7741 188.237 46.6122C188.601 46.4503 189.013 46.3693 189.473 46.3693C190.121 46.3693 190.629 46.5114 190.999 46.7955C191.371 47.0795 191.635 47.4545 191.791 47.9205ZM198.725 53.1534C198.311 53.1534 197.934 53.0753 197.596 52.919C197.258 52.7599 196.99 52.5312 196.791 52.233C196.592 51.9318 196.493 51.5682 196.493 51.142C196.493 50.767 196.566 50.4631 196.714 50.2301C196.862 49.9943 197.059 49.8097 197.306 49.6761C197.554 49.5426 197.826 49.4432 198.125 49.3778C198.426 49.3097 198.728 49.2557 199.032 49.2159C199.43 49.1648 199.752 49.1264 200 49.1009C200.25 49.0724 200.431 49.0256 200.545 48.9602C200.662 48.8949 200.72 48.7812 200.72 48.6193V48.5852C200.72 48.1648 200.605 47.8381 200.375 47.6051C200.147 47.3722 199.802 47.2557 199.339 47.2557C198.859 47.2557 198.483 47.3608 198.21 47.571C197.937 47.7812 197.745 48.0057 197.635 48.2443L196.68 47.9034C196.85 47.5057 197.078 47.196 197.362 46.9744C197.649 46.75 197.961 46.5937 198.299 46.5057C198.64 46.4148 198.975 46.3693 199.305 46.3693C199.515 46.3693 199.757 46.3949 200.029 46.446C200.305 46.4943 200.571 46.5952 200.826 46.7486C201.085 46.902 201.299 47.1335 201.47 47.4432C201.64 47.7528 201.725 48.1676 201.725 48.6875V53H200.72V52.1136H200.669C200.6 52.2557 200.487 52.4077 200.328 52.5696C200.169 52.7315 199.957 52.8693 199.693 52.983C199.429 53.0966 199.106 53.1534 198.725 53.1534ZM198.879 52.25C199.277 52.25 199.612 52.1719 199.885 52.0156C200.16 51.8594 200.368 51.6577 200.507 51.4105C200.649 51.1634 200.72 50.9034 200.72 50.6307V49.7102C200.677 49.7614 200.583 49.8082 200.439 49.8509C200.297 49.8906 200.132 49.9261 199.944 49.9574C199.76 49.9858 199.579 50.0114 199.403 50.0341C199.23 50.054 199.089 50.071 198.981 50.0852C198.72 50.1193 198.475 50.1747 198.248 50.2514C198.024 50.3253 197.842 50.4375 197.703 50.5881C197.566 50.7358 197.498 50.9375 197.498 51.1932C197.498 51.5426 197.627 51.8068 197.886 51.9858C198.147 52.1619 198.478 52.25 198.879 52.25ZM203.561 55.4545V46.4545H204.533V47.4943H204.652C204.726 47.3807 204.828 47.2358 204.959 47.0597C205.092 46.8807 205.283 46.7216 205.53 46.5824C205.78 46.4403 206.118 46.3693 206.544 46.3693C207.095 46.3693 207.581 46.5071 208.001 46.7827C208.422 47.0582 208.75 47.4489 208.986 47.9545C209.222 48.4602 209.339 49.0568 209.339 49.7443C209.339 50.4375 209.222 51.0384 208.986 51.5469C208.75 52.0526 208.423 52.4446 208.006 52.723C207.588 52.9986 207.107 53.1364 206.561 53.1364C206.141 53.1364 205.804 53.0668 205.551 52.9276C205.298 52.7855 205.104 52.625 204.967 52.446C204.831 52.2642 204.726 52.1136 204.652 51.9943H204.567V55.4545H203.561ZM204.55 49.7273C204.55 50.2216 204.622 50.6577 204.767 51.0355C204.912 51.4105 205.124 51.7045 205.402 51.9176C205.68 52.1278 206.021 52.233 206.425 52.233C206.845 52.233 207.196 52.1222 207.477 51.9006C207.761 51.6761 207.974 51.375 208.116 50.9972C208.261 50.6165 208.334 50.1932 208.334 49.7273C208.334 49.267 208.263 48.8523 208.121 48.483C207.982 48.1108 207.77 47.8168 207.486 47.6009C207.205 47.3821 206.851 47.2727 206.425 47.2727C206.016 47.2727 205.672 47.3764 205.393 47.5838C205.115 47.7884 204.905 48.0753 204.763 48.4446C204.621 48.8111 204.55 49.2386 204.55 49.7273ZM210.874 55.4545V46.4545H211.845V47.4943H211.964C212.038 47.3807 212.141 47.2358 212.271 47.0597C212.405 46.8807 212.595 46.7216 212.842 46.5824C213.092 46.4403 213.43 46.3693 213.857 46.3693C214.408 46.3693 214.893 46.5071 215.314 46.7827C215.734 47.0582 216.063 47.4489 216.298 47.9545C216.534 48.4602 216.652 49.0568 216.652 49.7443C216.652 50.4375 216.534 51.0384 216.298 51.5469C216.063 52.0526 215.736 52.4446 215.318 52.723C214.901 52.9986 214.419 53.1364 213.874 53.1364C213.453 53.1364 213.116 53.0668 212.864 52.9276C212.611 52.7855 212.416 52.625 212.28 52.446C212.143 52.2642 212.038 52.1136 211.964 51.9943H211.879V55.4545H210.874ZM211.862 49.7273C211.862 50.2216 211.935 50.6577 212.08 51.0355C212.224 51.4105 212.436 51.7045 212.714 51.9176C212.993 52.1278 213.334 52.233 213.737 52.233C214.158 52.233 214.509 52.1222 214.79 51.9006C215.074 51.6761 215.287 51.375 215.429 50.9972C215.574 50.6165 215.646 50.1932 215.646 49.7273C215.646 49.267 215.575 48.8523 215.433 48.483C215.294 48.1108 215.082 47.8168 214.798 47.6009C214.517 47.3821 214.163 47.2727 213.737 47.2727C213.328 47.2727 212.984 47.3764 212.706 47.5838C212.428 47.7884 212.217 48.0753 212.075 48.4446C211.933 48.8111 211.862 49.2386 211.862 49.7273Z" fill="#768395"/>
<circle cx="18" cy="79" r="6" fill="#3178C6"/>
<circle cx="18" cy="79" r="5.5" stroke="white" stroke-opacity="0.14902"/>
<path d="M32.5795 75.7102V74.7727H39.125V75.7102H36.3807V83.5H35.3239V75.7102H32.5795ZM40.5174 85.9545C40.3469 85.9545 40.195 85.9403 40.0614 85.9119C39.9279 85.8864 39.8356 85.8608 39.7844 85.8352L40.0401 84.9489C40.2844 85.0114 40.5004 85.0341 40.6879 85.017C40.8754 85 41.0415 84.9162 41.1864 84.7656C41.3342 84.6179 41.4691 84.3778 41.5913 84.0455L41.7788 83.5341L39.3583 76.9545H40.4492L42.256 82.1705H42.3242L44.131 76.9545H45.2219L42.4435 84.4545C42.3185 84.7926 42.1637 85.0724 41.979 85.294C41.7944 85.5185 41.5799 85.6847 41.3356 85.7926C41.0941 85.9006 40.8214 85.9545 40.5174 85.9545ZM46.5494 85.9545V76.9545H47.521V77.9943H47.6403C47.7141 77.8807 47.8164 77.7358 47.9471 77.5597C48.0806 77.3807 48.271 77.2216 48.5181 77.0824C48.7681 76.9403 49.1062 76.8693 49.5323 76.8693C50.0835 76.8693 50.5692 77.0071 50.9897 77.2827C51.4102 77.5582 51.7383 77.9489 51.9741 78.4545C52.2099 78.9602 52.3278 79.5568 52.3278 80.2443C52.3278 80.9375 52.2099 81.5384 51.9741 82.0469C51.7383 82.5526 51.4116 82.9446 50.994 83.223C50.5763 83.4986 50.0948 83.6364 49.5494 83.6364C49.1289 83.6364 48.7923 83.5668 48.5394 83.4276C48.2866 83.2855 48.092 83.125 47.9556 82.946C47.8192 82.7642 47.7141 82.6136 47.6403 82.4943H47.555V85.9545H46.5494ZM47.538 80.2273C47.538 80.7216 47.6104 81.1577 47.7553 81.5355C47.9002 81.9105 48.1119 82.2045 48.3903 82.4176C48.6687 82.6278 49.0096 82.733 49.413 82.733C49.8335 82.733 50.1843 82.6222 50.4656 82.4006C50.7496 82.1761 50.9627 81.875 51.1048 81.4972C51.2496 81.1165 51.3221 80.6932 51.3221 80.2273C51.3221 79.767 51.2511 79.3523 51.109 78.983C50.9698 78.6108 50.7582 78.3168 50.4741 78.1009C50.1928 77.8821 49.8391 77.7727 49.413 77.7727C49.0039 77.7727 48.6602 77.8764 48.3817 78.0838C48.1033 78.2884 47.8931 78.5753 47.7511 78.9446C47.609 79.3111 47.538 79.7386 47.538 80.2273ZM56.6062 83.6364C55.9755 83.6364 55.4315 83.4972 54.9741 83.2188C54.5195 82.9375 54.1687 82.5455 53.9215 82.0426C53.6772 81.5369 53.555 80.9489 53.555 80.2784C53.555 79.608 53.6772 79.017 53.9215 78.5057C54.1687 77.9915 54.5124 77.5909 54.9528 77.304C55.396 77.0142 55.913 76.8693 56.5039 76.8693C56.8448 76.8693 57.1815 76.9261 57.5138 77.0398C57.8462 77.1534 58.1488 77.3381 58.4215 77.5938C58.6942 77.8466 58.9116 78.1818 59.0735 78.5994C59.2354 79.017 59.3164 79.5312 59.3164 80.142V80.5682H54.271V79.6989H58.2937C58.2937 79.3295 58.2198 79 58.0721 78.7102C57.9272 78.4205 57.7198 78.1918 57.4499 78.0241C57.1829 77.8565 56.8675 77.7727 56.5039 77.7727C56.1033 77.7727 55.7567 77.8722 55.4641 78.071C55.1744 78.267 54.9513 78.5227 54.7951 78.8381C54.6388 79.1534 54.5607 79.4915 54.5607 79.8523V80.4318C54.5607 80.9261 54.646 81.3452 54.8164 81.6889C54.9897 82.0298 55.2298 82.2898 55.5366 82.4688C55.8434 82.6449 56.1999 82.733 56.6062 82.733C56.8704 82.733 57.109 82.696 57.3221 82.6222C57.538 82.5455 57.7241 82.4318 57.8803 82.2812C58.0366 82.1278 58.1573 81.9375 58.2425 81.7102L59.2141 81.983C59.1119 82.3125 58.94 82.6023 58.6985 82.8523C58.457 83.0994 58.1587 83.2926 57.8036 83.4318C57.4485 83.5682 57.0494 83.6364 56.6062 83.6364ZM65.7553 76.9545C65.7042 76.5227 65.4968 76.1875 65.1332 75.9489C64.7695 75.7102 64.3235 75.5909 63.7951 75.5909C63.4087 75.5909 63.0707 75.6534 62.7809 75.7784C62.494 75.9034 62.2695 76.0753 62.1076 76.294C61.9485 76.5128 61.869 76.7614 61.869 77.0398C61.869 77.2727 61.9244 77.473 62.0352 77.6406C62.1488 77.8054 62.2937 77.9432 62.4698 78.054C62.646 78.1619 62.8306 78.2514 63.0238 78.3224C63.217 78.3906 63.3945 78.446 63.5565 78.4886L64.4428 78.7273C64.6701 78.7869 64.9229 78.8693 65.2013 78.9744C65.4826 79.0795 65.7511 79.223 66.0067 79.4048C66.2653 79.5838 66.4783 79.8139 66.646 80.0952C66.8136 80.3764 66.8974 80.7216 66.8974 81.1307C66.8974 81.6023 66.7738 82.0284 66.5266 82.4091C66.2823 82.7898 65.9244 83.0923 65.4528 83.3168C64.984 83.5412 64.4144 83.6534 63.744 83.6534C63.119 83.6534 62.5778 83.5526 62.1204 83.3509C61.6658 83.1491 61.3079 82.8679 61.0465 82.5071C60.788 82.1463 60.6417 81.7273 60.6076 81.25H61.6985C61.7269 81.5795 61.8377 81.8523 62.0309 82.0682C62.2269 82.2812 62.4741 82.4403 62.7724 82.5455C63.0735 82.6477 63.3974 82.6989 63.744 82.6989C64.1474 82.6989 64.5096 82.6335 64.8306 82.5028C65.1516 82.3693 65.4059 82.1847 65.5934 81.9489C65.7809 81.7102 65.8746 81.4318 65.8746 81.1136C65.8746 80.8239 65.7937 80.5881 65.6317 80.4062C65.4698 80.2244 65.2567 80.0767 64.9925 79.9631C64.7283 79.8494 64.4428 79.75 64.136 79.6648L63.0621 79.358C62.3803 79.1619 61.8406 78.8821 61.4428 78.5185C61.0451 78.1548 60.8462 77.679 60.8462 77.0909C60.8462 76.6023 60.9783 76.1761 61.2425 75.8125C61.5096 75.446 61.8675 75.1619 62.3164 74.9602C62.7681 74.7557 63.2724 74.6534 63.8292 74.6534C64.3917 74.6534 64.8917 74.7543 65.3292 74.956C65.7667 75.1548 66.1133 75.4276 66.369 75.7741C66.6275 76.1207 66.7638 76.5142 66.7781 76.9545H65.7553ZM71.1577 83.6364C70.544 83.6364 70.0156 83.4915 69.5724 83.2017C69.1293 82.9119 68.7884 82.5128 68.5497 82.0043C68.3111 81.4957 68.1918 80.9148 68.1918 80.2614C68.1918 79.5966 68.3139 79.0099 68.5582 78.5014C68.8054 77.9901 69.1491 77.5909 69.5895 77.304C70.0327 77.0142 70.5497 76.8693 71.1406 76.8693C71.6009 76.8693 72.0156 76.9545 72.3849 77.125C72.7543 77.2955 73.0568 77.5341 73.2926 77.8409C73.5284 78.1477 73.6747 78.5057 73.7315 78.9148H72.7259C72.6491 78.6165 72.4787 78.3523 72.2145 78.1222C71.9531 77.8892 71.6009 77.7727 71.1577 77.7727C70.7656 77.7727 70.4219 77.875 70.1264 78.0795C69.8338 78.2812 69.6051 78.5668 69.4403 78.9361C69.2784 79.3026 69.1974 79.733 69.1974 80.2273C69.1974 80.733 69.277 81.1733 69.4361 81.5483C69.598 81.9233 69.8253 82.2145 70.1179 82.4219C70.4134 82.6293 70.7599 82.733 71.1577 82.733C71.419 82.733 71.6562 82.6875 71.8693 82.5966C72.0824 82.5057 72.2628 82.375 72.4105 82.2045C72.5582 82.0341 72.6634 81.8295 72.7259 81.5909H73.7315C73.6747 81.9773 73.5341 82.3253 73.3097 82.6349C73.0881 82.9418 72.794 83.1861 72.4276 83.3679C72.0639 83.5469 71.6406 83.6364 71.1577 83.6364ZM75.2017 83.5V76.9545H76.1733V77.9432H76.2415C76.3608 77.6193 76.5767 77.3565 76.8892 77.1548C77.2017 76.9531 77.554 76.8523 77.946 76.8523C78.0199 76.8523 78.1122 76.8537 78.223 76.8565C78.3338 76.8594 78.4176 76.8636 78.4744 76.8693V77.892C78.4403 77.8835 78.3622 77.8707 78.2401 77.8537C78.1207 77.8338 77.9943 77.8239 77.8608 77.8239C77.5426 77.8239 77.2585 77.8906 77.0085 78.0241C76.7614 78.1548 76.5653 78.3366 76.4205 78.5696C76.2784 78.7997 76.2074 79.0625 76.2074 79.358V83.5H75.2017ZM79.6665 83.5V76.9545H80.6722V83.5H79.6665ZM80.1779 75.8636C79.9819 75.8636 79.8129 75.7969 79.6708 75.6634C79.5316 75.5298 79.462 75.3693 79.462 75.1818C79.462 74.9943 79.5316 74.8338 79.6708 74.7003C79.8129 74.5668 79.9819 74.5 80.1779 74.5C80.3739 74.5 80.5415 74.5668 80.6808 74.7003C80.8228 74.8338 80.8938 74.9943 80.8938 75.1818C80.8938 75.3693 80.8228 75.5298 80.6808 75.6634C80.5415 75.7969 80.3739 75.8636 80.1779 75.8636ZM82.5142 85.9545V76.9545H83.4858V77.9943H83.6051C83.679 77.8807 83.7813 77.7358 83.9119 77.5597C84.0455 77.3807 84.2358 77.2216 84.483 77.0824C84.733 76.9403 85.071 76.8693 85.4972 76.8693C86.0483 76.8693 86.5341 77.0071 86.9545 77.2827C87.375 77.5582 87.7031 77.9489 87.9389 78.4545C88.1747 78.9602 88.2926 79.5568 88.2926 80.2443C88.2926 80.9375 88.1747 81.5384 87.9389 82.0469C87.7031 82.5526 87.3764 82.9446 86.9588 83.223C86.5412 83.4986 86.0597 83.6364 85.5142 83.6364C85.0938 83.6364 84.7571 83.5668 84.5043 83.4276C84.2514 83.2855 84.0568 83.125 83.9205 82.946C83.7841 82.7642 83.679 82.6136 83.6051 82.4943H83.5199V85.9545H82.5142ZM83.5028 80.2273C83.5028 80.7216 83.5753 81.1577 83.7202 81.5355C83.8651 81.9105 84.0767 82.2045 84.3551 82.4176C84.6335 82.6278 84.9744 82.733 85.3778 82.733C85.7983 82.733 86.1491 82.6222 86.4304 82.4006C86.7145 82.1761 86.9276 81.875 87.0696 81.4972C87.2145 81.1165 87.2869 80.6932 87.2869 80.2273C87.2869 79.767 87.2159 79.3523 87.0739 78.983C86.9347 78.6108 86.723 78.3168 86.4389 78.1009C86.1577 77.8821 85.804 77.7727 85.3778 77.7727C84.9688 77.7727 84.625 77.8764 84.3466 78.0838C84.0682 78.2884 83.858 78.5753 83.7159 78.9446C83.5739 79.3111 83.5028 79.7386 83.5028 80.2273ZM92.6733 76.9545V77.8068H89.2812V76.9545H92.6733ZM90.2699 75.3864H91.2756V81.625C91.2756 81.9091 91.3168 82.1222 91.3991 82.2642C91.4844 82.4034 91.5923 82.4972 91.723 82.5455C91.8565 82.5909 91.9972 82.6136 92.1449 82.6136C92.2557 82.6136 92.3466 82.608 92.4176 82.5966C92.4886 82.5824 92.5455 82.571 92.5881 82.5625L92.7926 83.4659C92.7244 83.4915 92.6293 83.517 92.5071 83.5426C92.3849 83.571 92.2301 83.5852 92.0426 83.5852C91.7585 83.5852 91.4801 83.5241 91.2074 83.402C90.9375 83.2798 90.7131 83.0938 90.5341 82.8438C90.358 82.5938 90.2699 82.2784 90.2699 81.8977V75.3864Z" fill="#768395"/>
<rect x="106" y="68" width="93" height="22" rx="11" fill="#388BFD" fill-opacity="0.101961"/>
<path d="M117.057 83.5V74.7727H120.006C120.688 74.7727 121.247 74.8892 121.685 75.1222C122.122 75.3523 122.446 75.669 122.656 76.0724C122.866 76.4759 122.972 76.9347 122.972 77.4489C122.972 77.9631 122.866 78.419 122.656 78.8168C122.446 79.2145 122.124 79.527 121.689 79.7543C121.254 79.9787 120.699 80.0909 120.023 80.0909H117.636V79.1364H119.989C120.455 79.1364 120.83 79.0682 121.114 78.9318C121.401 78.7955 121.608 78.6023 121.736 78.3523C121.866 78.0994 121.932 77.7983 121.932 77.4489C121.932 77.0994 121.866 76.794 121.736 76.5327C121.605 76.2713 121.396 76.0696 121.109 75.9276C120.822 75.7827 120.443 75.7102 119.972 75.7102H118.114V83.5H117.057ZM121.165 79.5795L123.312 83.5H122.085L119.972 79.5795H121.165ZM127.27 83.6364C126.64 83.6364 126.096 83.4972 125.638 83.2188C125.184 82.9375 124.833 82.5455 124.586 82.0426C124.341 81.5369 124.219 80.9489 124.219 80.2784C124.219 79.608 124.341 79.017 124.586 78.5057C124.833 77.9915 125.176 77.5909 125.617 77.304C126.06 77.0142 126.577 76.8693 127.168 76.8693C127.509 76.8693 127.846 76.9261 128.178 77.0398C128.51 77.1534 128.813 77.3381 129.086 77.5938C129.358 77.8466 129.576 78.1818 129.738 78.5994C129.9 79.017 129.98 79.5312 129.98 80.142V80.5682H124.935V79.6989H128.958C128.958 79.3295 128.884 79 128.736 78.7102C128.591 78.4205 128.384 78.1918 128.114 78.0241C127.847 77.8565 127.532 77.7727 127.168 77.7727C126.767 77.7727 126.421 77.8722 126.128 78.071C125.838 78.267 125.615 78.5227 125.459 78.8381C125.303 79.1534 125.225 79.4915 125.225 79.8523V80.4318C125.225 80.9261 125.31 81.3452 125.48 81.6889C125.654 82.0298 125.894 82.2898 126.201 82.4688C126.507 82.6449 126.864 82.733 127.27 82.733C127.534 82.733 127.773 82.696 127.986 82.6222C128.202 82.5455 128.388 82.4318 128.544 82.2812C128.701 82.1278 128.821 81.9375 128.907 81.7102L129.878 81.983C129.776 82.3125 129.604 82.6023 129.363 82.8523C129.121 83.0994 128.823 83.2926 128.468 83.4318C128.113 83.5682 127.713 83.6364 127.27 83.6364ZM133.436 83.6534C133.022 83.6534 132.645 83.5753 132.307 83.419C131.969 83.2599 131.701 83.0312 131.502 82.733C131.303 82.4318 131.203 82.0682 131.203 81.642C131.203 81.267 131.277 80.9631 131.425 80.7301C131.573 80.4943 131.77 80.3097 132.017 80.1761C132.265 80.0426 132.537 79.9432 132.836 79.8778C133.137 79.8097 133.439 79.7557 133.743 79.7159C134.141 79.6648 134.463 79.6264 134.711 79.6009C134.961 79.5724 135.142 79.5256 135.256 79.4602C135.373 79.3949 135.431 79.2812 135.431 79.1193V79.0852C135.431 78.6648 135.316 78.3381 135.086 78.1051C134.858 77.8722 134.513 77.7557 134.05 77.7557C133.57 77.7557 133.194 77.8608 132.921 78.071C132.648 78.2812 132.456 78.5057 132.346 78.7443L131.391 78.4034C131.561 78.0057 131.789 77.696 132.073 77.4744C132.36 77.25 132.672 77.0937 133.01 77.0057C133.351 76.9148 133.686 76.8693 134.016 76.8693C134.226 76.8693 134.468 76.8949 134.74 76.946C135.016 76.9943 135.282 77.0952 135.537 77.2486C135.796 77.402 136.01 77.6335 136.181 77.9432C136.351 78.2528 136.436 78.6676 136.436 79.1875V83.5H135.431V82.6136H135.38C135.311 82.7557 135.198 82.9077 135.039 83.0696C134.88 83.2315 134.668 83.3693 134.404 83.483C134.14 83.5966 133.817 83.6534 133.436 83.6534ZM133.59 82.75C133.988 82.75 134.323 82.6719 134.596 82.5156C134.871 82.3594 135.078 82.1577 135.218 81.9105C135.36 81.6634 135.431 81.4034 135.431 81.1307V80.2102C135.388 80.2614 135.294 80.3082 135.15 80.3509C135.007 80.3906 134.843 80.4261 134.655 80.4574C134.471 80.4858 134.29 80.5114 134.114 80.5341C133.941 80.554 133.8 80.571 133.692 80.5852C133.431 80.6193 133.186 80.6747 132.959 80.7514C132.735 80.8253 132.553 80.9375 132.414 81.0881C132.277 81.2358 132.209 81.4375 132.209 81.6932C132.209 82.0426 132.338 82.3068 132.597 82.4858C132.858 82.6619 133.189 82.75 133.59 82.75ZM140.931 83.6364C140.317 83.6364 139.789 83.4915 139.346 83.2017C138.903 82.9119 138.562 82.5128 138.323 82.0043C138.085 81.4957 137.965 80.9148 137.965 80.2614C137.965 79.5966 138.087 79.0099 138.332 78.5014C138.579 77.9901 138.923 77.5909 139.363 77.304C139.806 77.0142 140.323 76.8693 140.914 76.8693C141.374 76.8693 141.789 76.9545 142.158 77.125C142.528 77.2955 142.83 77.5341 143.066 77.8409C143.302 78.1477 143.448 78.5057 143.505 78.9148H142.499C142.423 78.6165 142.252 78.3523 141.988 78.1222C141.727 77.8892 141.374 77.7727 140.931 77.7727C140.539 77.7727 140.195 77.875 139.9 78.0795C139.607 78.2812 139.379 78.5668 139.214 78.9361C139.052 79.3026 138.971 79.733 138.971 80.2273C138.971 80.733 139.05 81.1733 139.21 81.5483C139.371 81.9233 139.599 82.2145 139.891 82.4219C140.187 82.6293 140.533 82.733 140.931 82.733C141.192 82.733 141.43 82.6875 141.643 82.5966C141.856 82.5057 142.036 82.375 142.184 82.2045C142.332 82.0341 142.437 81.8295 142.499 81.5909H143.505C143.448 81.9773 143.308 82.3253 143.083 82.6349C142.862 82.9418 142.567 83.1861 142.201 83.3679C141.837 83.5469 141.414 83.6364 140.931 83.6364ZM147.822 76.9545V77.8068H144.43V76.9545H147.822ZM145.418 75.3864H146.424V81.625C146.424 81.9091 146.465 82.1222 146.548 82.2642C146.633 82.4034 146.741 82.4972 146.871 82.5455C147.005 82.5909 147.146 82.6136 147.293 82.6136C147.404 82.6136 147.495 82.608 147.566 82.5966C147.637 82.5824 147.694 82.571 147.737 82.5625L147.941 83.4659C147.873 83.4915 147.778 83.517 147.656 83.5426C147.533 83.571 147.379 83.5852 147.191 83.5852C146.907 83.5852 146.629 83.5241 146.356 83.402C146.086 83.2798 145.862 83.0938 145.683 82.8438C145.506 82.5938 145.418 82.2784 145.418 81.8977V75.3864ZM159.766 74.7727V83.5H158.744L153.988 76.6477H153.903V83.5H152.846V74.7727H153.869L158.641 81.642H158.727V74.7727H159.766ZM163.671 83.6534C163.256 83.6534 162.88 83.5753 162.542 83.419C162.203 83.2599 161.935 83.0312 161.736 82.733C161.537 82.4318 161.438 82.0682 161.438 81.642C161.438 81.267 161.512 80.9631 161.659 80.7301C161.807 80.4943 162.005 80.3097 162.252 80.1761C162.499 80.0426 162.772 79.9432 163.07 79.8778C163.371 79.8097 163.674 79.7557 163.978 79.7159C164.375 79.6648 164.698 79.6264 164.945 79.6009C165.195 79.5724 165.377 79.5256 165.49 79.4602C165.607 79.3949 165.665 79.2812 165.665 79.1193V79.0852C165.665 78.6648 165.55 78.3381 165.32 78.1051C165.093 77.8722 164.748 77.7557 164.284 77.7557C163.804 77.7557 163.428 77.8608 163.155 78.071C162.882 78.2812 162.691 78.5057 162.58 78.7443L161.625 78.4034C161.796 78.0057 162.023 77.696 162.307 77.4744C162.594 77.25 162.907 77.0937 163.245 77.0057C163.586 76.9148 163.921 76.8693 164.25 76.8693C164.461 76.8693 164.702 76.8949 164.975 76.946C165.25 76.9943 165.516 77.0952 165.772 77.2486C166.03 77.402 166.245 77.6335 166.415 77.9432C166.586 78.2528 166.671 78.6676 166.671 79.1875V83.5H165.665V82.6136H165.614C165.546 82.7557 165.432 82.9077 165.273 83.0696C165.114 83.2315 164.902 83.3693 164.638 83.483C164.374 83.5966 164.051 83.6534 163.671 83.6534ZM163.824 82.75C164.222 82.75 164.557 82.6719 164.83 82.5156C165.105 82.3594 165.313 82.1577 165.452 81.9105C165.594 81.6634 165.665 81.4034 165.665 81.1307V80.2102C165.623 80.2614 165.529 80.3082 165.384 80.3509C165.242 80.3906 165.077 80.4261 164.89 80.4574C164.705 80.4858 164.525 80.5114 164.348 80.5341C164.175 80.554 164.034 80.571 163.926 80.5852C163.665 80.6193 163.421 80.6747 163.194 80.7514C162.969 80.8253 162.787 80.9375 162.648 81.0881C162.512 81.2358 162.444 81.4375 162.444 81.6932C162.444 82.0426 162.573 82.3068 162.831 82.4858C163.093 82.6619 163.424 82.75 163.824 82.75ZM171.353 76.9545V77.8068H167.961V76.9545H171.353ZM168.95 75.3864H169.955V81.625C169.955 81.9091 169.996 82.1222 170.079 82.2642C170.164 82.4034 170.272 82.4972 170.403 82.5455C170.536 82.5909 170.677 82.6136 170.825 82.6136C170.935 82.6136 171.026 82.608 171.097 82.5966C171.168 82.5824 171.225 82.571 171.268 82.5625L171.472 83.4659C171.404 83.4915 171.309 83.517 171.187 83.5426C171.065 83.571 170.91 83.5852 170.722 83.5852C170.438 83.5852 170.16 83.5241 169.887 83.402C169.617 83.2798 169.393 83.0938 169.214 82.8438C169.038 82.5938 168.95 82.2784 168.95 81.8977V75.3864ZM172.866 83.5V76.9545H173.871V83.5H172.866ZM173.377 75.8636C173.181 75.8636 173.012 75.7969 172.87 75.6634C172.731 75.5298 172.661 75.3693 172.661 75.1818C172.661 74.9943 172.731 74.8338 172.87 74.7003C173.012 74.5668 173.181 74.5 173.377 74.5C173.573 74.5 173.741 74.5668 173.88 74.7003C174.022 74.8338 174.093 74.9943 174.093 75.1818C174.093 75.3693 174.022 75.5298 173.88 75.6634C173.741 75.7969 173.573 75.8636 173.377 75.8636ZM181.066 76.9545L178.645 83.5H177.623L175.202 76.9545H176.293L178.1 82.1705H178.168L179.975 76.9545H181.066ZM184.903 83.6364C184.272 83.6364 183.728 83.4972 183.271 83.2188C182.816 82.9375 182.466 82.5455 182.218 82.0426C181.974 81.5369 181.852 80.9489 181.852 80.2784C181.852 79.608 181.974 79.017 182.218 78.5057C182.466 77.9915 182.809 77.5909 183.25 77.304C183.693 77.0142 184.21 76.8693 184.801 76.8693C185.142 76.8693 185.478 76.9261 185.811 77.0398C186.143 77.1534 186.446 77.3381 186.718 77.5938C186.991 77.8466 187.208 78.1818 187.37 78.5994C187.532 79.017 187.613 79.5312 187.613 80.142V80.5682H182.568V79.6989H186.591C186.591 79.3295 186.517 79 186.369 78.7102C186.224 78.4205 186.017 78.1918 185.747 78.0241C185.48 77.8565 185.164 77.7727 184.801 77.7727C184.4 77.7727 184.054 77.8722 183.761 78.071C183.471 78.267 183.248 78.5227 183.092 78.8381C182.936 79.1534 182.858 79.4915 182.858 79.8523V80.4318C182.858 80.9261 182.943 81.3452 183.113 81.6889C183.287 82.0298 183.527 82.2898 183.833 82.4688C184.14 82.6449 184.497 82.733 184.903 82.733C185.167 82.733 185.406 82.696 185.619 82.6222C185.835 82.5455 186.021 82.4318 186.177 82.2812C186.333 82.1278 186.454 81.9375 186.539 81.7102L187.511 81.983C187.409 82.3125 187.237 82.6023 186.995 82.8523C186.754 83.0994 186.456 83.2926 186.1 83.4318C185.745 83.5682 185.346 83.6364 184.903 83.6364Z" fill="#4493F8"/>
</svg>
