<svg width="384" height="102" viewBox="0 0 384 102" fill="none" xmlns="http://www.w3.org/2000/svg">
<rect x="0.5" y="0.5" width="382.2" height="101" rx="5.5" stroke="#768395"/>
<path d="M14.8487 15.8182V26H13.0043V15.8182H14.8487ZM18.5662 21.5256V26H16.7665V18.3636H18.4867V19.6612H18.5762C18.7518 19.2337 19.0319 18.8939 19.4164 18.642C19.8042 18.3902 20.2831 18.2642 20.8532 18.2642C21.3801 18.2642 21.8392 18.3769 22.2303 18.6023C22.6247 18.8277 22.9296 19.1541 23.1451 19.5817C23.3638 20.0092 23.4715 20.5279 23.4682 21.1378V26H21.6685V21.4162C21.6685 20.9058 21.5359 20.5064 21.2708 20.218C21.0089 19.9297 20.646 19.7855 20.182 19.7855C19.8671 19.7855 19.5871 19.8551 19.3418 19.9943C19.0998 20.1302 18.9093 20.3274 18.7701 20.5859C18.6342 20.8445 18.5662 21.1577 18.5662 21.5256ZM28.1316 26.1342C27.5317 26.1342 26.9947 25.9801 26.5208 25.6719C26.0468 25.3636 25.6723 24.9162 25.3972 24.3295C25.1221 23.7429 24.9846 23.0303 24.9846 22.1918C24.9846 21.3433 25.1238 20.6274 25.4022 20.044C25.6839 19.4574 26.0634 19.0149 26.5407 18.7166C27.0179 18.415 27.5499 18.2642 28.1365 18.2642C28.584 18.2642 28.9519 18.3404 29.2402 18.4929C29.5286 18.642 29.7573 18.8227 29.9263 19.0348C30.0953 19.2436 30.2263 19.4408 30.3191 19.6264H30.3936V15.8182H32.1983V26H30.4284V24.7969H30.3191C30.2263 24.9825 30.092 25.1797 29.9164 25.3885C29.7407 25.594 29.5087 25.7696 29.2203 25.9155C28.932 26.0613 28.5691 26.1342 28.1316 26.1342ZM28.6337 24.6577C29.0149 24.6577 29.3397 24.5549 29.6081 24.3494C29.8766 24.1406 30.0804 23.8506 30.2196 23.4794C30.3588 23.1082 30.4284 22.6757 30.4284 22.1818C30.4284 21.688 30.3588 21.2588 30.2196 20.8942C30.0837 20.5296 29.8816 20.2462 29.6131 20.044C29.348 19.8419 29.0215 19.7408 28.6337 19.7408C28.2327 19.7408 27.8979 19.8452 27.6294 20.054C27.361 20.2628 27.1588 20.5511 27.0229 20.919C26.887 21.2869 26.8191 21.7079 26.8191 22.1818C26.8191 22.6591 26.887 23.085 27.0229 23.4595C27.1621 23.8307 27.3659 24.1241 27.6344 24.3395C27.9062 24.5516 28.2393 24.6577 28.6337 24.6577ZM34.1161 26V18.3636H35.9158V26H34.1161ZM35.021 17.2798C34.7359 17.2798 34.4906 17.1854 34.2852 16.9964C34.0797 16.8042 33.9769 16.5739 33.9769 16.3054C33.9769 16.0336 34.0797 15.8033 34.2852 15.6143C34.4906 15.4221 34.7359 15.326 35.021 15.326C35.3093 15.326 35.5546 15.4221 35.7567 15.6143C35.9622 15.8033 36.065 16.0336 36.065 16.3054C36.065 16.5739 35.9622 16.8042 35.7567 16.9964C35.5546 17.1854 35.3093 17.2798 35.021 17.2798ZM39.6868 15.8182L42.3366 23.8324H42.4411L45.0859 15.8182H47.1143L43.5249 26H41.2479L37.6634 15.8182H39.6868ZM48.3759 26V18.3636H50.1756V26H48.3759ZM49.2807 17.2798C48.9957 17.2798 48.7504 17.1854 48.5449 16.9964C48.3394 16.8042 48.2367 16.5739 48.2367 16.3054C48.2367 16.0336 48.3394 15.8033 48.5449 15.6143C48.7504 15.4221 48.9957 15.326 49.2807 15.326C49.5691 15.326 49.8143 15.4221 50.0165 15.6143C50.222 15.8033 50.3248 16.0336 50.3248 16.3054C50.3248 16.5739 50.222 16.8042 50.0165 16.9964C49.8143 17.1854 49.5691 17.2798 49.2807 17.2798ZM58.0618 20.3821L56.4212 20.5611C56.3748 20.3954 56.2936 20.2396 56.1776 20.0938C56.0649 19.9479 55.9124 19.8303 55.7202 19.7408C55.5279 19.6513 55.2926 19.6065 55.0142 19.6065C54.6397 19.6065 54.3248 19.6877 54.0696 19.8501C53.8177 20.0125 53.6934 20.223 53.6967 20.4815C53.6934 20.7036 53.7746 20.8842 53.9403 21.0234C54.1094 21.1626 54.3878 21.277 54.7756 21.3665L56.0781 21.6449C56.8007 21.8007 57.3376 22.0476 57.6889 22.3857C58.0436 22.7237 58.2225 23.1662 58.2259 23.7131C58.2225 24.1937 58.0817 24.6179 57.8033 24.9858C57.5282 25.3504 57.1454 25.6354 56.6548 25.8409C56.1643 26.0464 55.6009 26.1491 54.9645 26.1491C54.0298 26.1491 53.2775 25.9536 52.7074 25.5625C52.1373 25.1681 51.7976 24.6196 51.6882 23.9169L53.4432 23.7479C53.5227 24.0926 53.6918 24.3527 53.9503 24.5284C54.2088 24.7041 54.5452 24.7919 54.9595 24.7919C55.3871 24.7919 55.7301 24.7041 55.9886 24.5284C56.2505 24.3527 56.3814 24.1357 56.3814 23.8771C56.3814 23.6584 56.2969 23.4777 56.1278 23.3352C55.9621 23.1927 55.7036 23.0833 55.3523 23.0071L54.0497 22.7337C53.3172 22.5812 52.7753 22.3243 52.424 21.9631C52.0727 21.5985 51.8987 21.1378 51.902 20.581C51.8987 20.1103 52.0263 19.7027 52.2848 19.358C52.5466 19.0099 52.9096 18.7415 53.3736 18.5526C53.8409 18.3603 54.3795 18.2642 54.9893 18.2642C55.8842 18.2642 56.5885 18.4548 57.1023 18.8359C57.6193 19.2171 57.9392 19.7325 58.0618 20.3821ZM64.5771 22.7884V18.3636H66.3768V26H64.6317V24.6428H64.5522C64.3799 25.0703 64.0965 25.42 63.7021 25.6918C63.311 25.9635 62.8287 26.0994 62.2553 26.0994C61.7549 26.0994 61.3124 25.9884 60.9279 25.7663C60.5468 25.541 60.2485 25.2145 60.033 24.7869C59.8176 24.3561 59.7099 23.8357 59.7099 23.2259V18.3636H61.5096V22.9474C61.5096 23.4313 61.6422 23.8158 61.9073 24.1009C62.1725 24.3859 62.5205 24.5284 62.9513 24.5284C63.2165 24.5284 63.4734 24.4638 63.7219 24.3345C63.9705 24.2053 64.1744 24.013 64.3335 23.7578C64.4959 23.4993 64.5771 23.1761 64.5771 22.7884ZM70.4249 26.1541C69.941 26.1541 69.5051 26.0679 69.1174 25.8956C68.7329 25.7199 68.428 25.4614 68.2026 25.12C67.9805 24.7786 67.8695 24.3577 67.8695 23.8572C67.8695 23.4264 67.949 23.0701 68.1081 22.7884C68.2672 22.5066 68.4843 22.2812 68.7594 22.1122C69.0345 21.9432 69.3444 21.8156 69.6891 21.7294C70.0371 21.6399 70.3967 21.5753 70.7679 21.5355C71.2154 21.4891 71.5783 21.4477 71.8567 21.4112C72.1351 21.3714 72.3373 21.3118 72.4632 21.2322C72.5925 21.1494 72.6571 21.0218 72.6571 20.8494V20.8196C72.6571 20.4451 72.5461 20.1551 72.324 19.9496C72.102 19.7441 71.7821 19.6413 71.3645 19.6413C70.9237 19.6413 70.574 19.7375 70.3155 19.9297C70.0603 20.1219 69.888 20.349 69.7985 20.6108L68.1181 20.3722C68.2507 19.9081 68.4694 19.5204 68.7743 19.2088C69.0792 18.8939 69.4521 18.6586 69.8929 18.5028C70.3337 18.3438 70.821 18.2642 71.3546 18.2642C71.7225 18.2642 72.0887 18.3073 72.4533 18.3935C72.8179 18.4796 73.151 18.6222 73.4526 18.821C73.7542 19.0166 73.9962 19.2834 74.1784 19.6214C74.3641 19.9595 74.4569 20.3821 74.4569 20.8892V26H72.7267V24.951H72.6671C72.5577 25.1631 72.4036 25.362 72.2047 25.5476C72.0092 25.7299 71.7623 25.8774 71.464 25.9901C71.169 26.0994 70.8226 26.1541 70.4249 26.1541ZM70.8922 24.8317C71.2535 24.8317 71.5667 24.7604 71.8319 24.6179C72.097 24.4721 72.3008 24.2798 72.4434 24.0412C72.5892 23.8026 72.6621 23.5424 72.6621 23.2607V22.3608C72.6058 22.4072 72.5096 22.4503 72.3738 22.4901C72.2412 22.5298 72.092 22.5646 71.9263 22.5945C71.7606 22.6243 71.5965 22.6508 71.4341 22.674C71.2717 22.6972 71.1309 22.7171 71.0115 22.7337C70.7431 22.7701 70.5028 22.8298 70.2907 22.9126C70.0785 22.9955 69.9112 23.1115 69.7885 23.2607C69.6659 23.4065 69.6046 23.5954 69.6046 23.8274C69.6046 24.1589 69.7256 24.4091 69.9675 24.5781C70.2095 24.7472 70.5177 24.8317 70.8922 24.8317ZM78.0662 15.8182V26H76.2665V15.8182H78.0662ZM83.4691 26V15.8182H90.0913V17.3643H85.3136V20.1286H89.7482V21.6747H85.3136V24.4538H90.131V26H83.4691ZM93.0121 28.8636C92.7668 28.8636 92.5398 28.8438 92.331 28.804C92.1255 28.7675 91.9614 28.7244 91.8388 28.6747L92.2564 27.2727C92.5182 27.349 92.7519 27.3854 92.9574 27.3821C93.1629 27.3788 93.3435 27.3142 93.4993 27.1882C93.6584 27.0656 93.7926 26.8601 93.902 26.5717L94.0561 26.1591L91.2869 18.3636H93.196L94.956 24.1307H95.0355L96.8004 18.3636H98.7145L95.657 26.9247C95.5144 27.3291 95.3255 27.6754 95.0902 27.9638C94.8549 28.2554 94.5665 28.4775 94.2251 28.63C93.8871 28.7857 93.4827 28.8636 93.0121 28.8636ZM103.081 26.1491C102.315 26.1491 101.654 25.9901 101.097 25.6719C100.544 25.3504 100.118 24.8963 99.8194 24.3097C99.5211 23.7197 99.372 23.0253 99.372 22.2266C99.372 21.4411 99.5211 20.7517 99.8194 20.1584C100.121 19.5618 100.542 19.0978 101.082 18.7663C101.622 18.4316 102.257 18.2642 102.986 18.2642C103.457 18.2642 103.901 18.3404 104.319 18.4929C104.74 18.642 105.111 18.8741 105.432 19.1889C105.757 19.5038 106.012 19.9048 106.198 20.392C106.384 20.8759 106.476 21.4527 106.476 22.1222V22.674H100.217V21.4609H104.751C104.748 21.1162 104.673 20.8097 104.528 20.5412C104.382 20.2694 104.178 20.0556 103.916 19.8999C103.657 19.7441 103.356 19.6662 103.011 19.6662C102.643 19.6662 102.32 19.7557 102.042 19.9347C101.763 20.1103 101.546 20.3423 101.39 20.6307C101.238 20.9157 101.16 21.2289 101.157 21.5703V22.6293C101.157 23.0734 101.238 23.4545 101.4 23.7727C101.563 24.0876 101.79 24.3295 102.081 24.4986C102.373 24.6643 102.715 24.7472 103.106 24.7472C103.367 24.7472 103.604 24.7107 103.817 24.6378C104.029 24.5616 104.213 24.4505 104.368 24.3047C104.524 24.1589 104.642 23.9782 104.721 23.7628L106.402 23.9517C106.296 24.3958 106.094 24.7836 105.795 25.1151C105.5 25.4432 105.122 25.6984 104.662 25.8807C104.201 26.0597 103.674 26.1491 103.081 26.1491ZM114.034 20.3821L112.394 20.5611C112.347 20.3954 112.266 20.2396 112.15 20.0938C112.038 19.9479 111.885 19.8303 111.693 19.7408C111.501 19.6513 111.265 19.6065 110.987 19.6065C110.612 19.6065 110.297 19.6877 110.042 19.8501C109.79 20.0125 109.666 20.223 109.669 20.4815C109.666 20.7036 109.747 20.8842 109.913 21.0234C110.082 21.1626 110.36 21.277 110.748 21.3665L112.051 21.6449C112.773 21.8007 113.31 22.0476 113.662 22.3857C114.016 22.7237 114.195 23.1662 114.199 23.7131C114.195 24.1937 114.054 24.6179 113.776 24.9858C113.501 25.3504 113.118 25.6354 112.627 25.8409C112.137 26.0464 111.574 26.1491 110.937 26.1491C110.002 26.1491 109.25 25.9536 108.68 25.5625C108.11 25.1681 107.77 24.6196 107.661 23.9169L109.416 23.7479C109.495 24.0926 109.664 24.3527 109.923 24.5284C110.181 24.7041 110.518 24.7919 110.932 24.7919C111.36 24.7919 111.703 24.7041 111.961 24.5284C112.223 24.3527 112.354 24.1357 112.354 23.8771C112.354 23.6584 112.27 23.4777 112.1 23.3352C111.935 23.1927 111.676 23.0833 111.325 23.0071L110.022 22.7337C109.29 22.5812 108.748 22.3243 108.397 21.9631C108.045 21.5985 107.871 21.1378 107.875 20.581C107.871 20.1103 107.999 19.7027 108.257 19.358C108.519 19.0099 108.882 18.7415 109.346 18.5526C109.814 18.3603 110.352 18.2642 110.962 18.2642C111.857 18.2642 112.561 18.4548 113.075 18.8359C113.592 19.2171 113.912 19.7325 114.034 20.3821ZM119.235 26V15.8182H123.132C123.868 15.8182 124.48 15.9342 124.967 16.1662C125.458 16.3949 125.824 16.7081 126.066 17.1058C126.311 17.5036 126.434 17.9543 126.434 18.4581C126.434 18.8724 126.354 19.227 126.195 19.522C126.036 19.8137 125.822 20.0507 125.554 20.233C125.285 20.4152 124.985 20.5462 124.654 20.6257V20.7251C125.015 20.745 125.361 20.8561 125.693 21.0582C126.028 21.2571 126.301 21.5388 126.513 21.9034C126.725 22.268 126.831 22.7088 126.831 23.2259C126.831 23.7528 126.704 24.2268 126.449 24.6477C126.193 25.0653 125.809 25.3951 125.295 25.6371C124.781 25.879 124.135 26 123.356 26H119.235ZM121.079 24.4588H123.063C123.732 24.4588 124.215 24.3312 124.51 24.076C124.808 23.8175 124.957 23.486 124.957 23.0817C124.957 22.7801 124.882 22.5083 124.733 22.2663C124.584 22.0211 124.372 21.8288 124.097 21.6896C123.822 21.5471 123.494 21.4759 123.113 21.4759H121.079V24.4588ZM121.079 20.1484H122.904C123.222 20.1484 123.509 20.0904 123.764 19.9744C124.019 19.8551 124.22 19.6877 124.365 19.4723C124.515 19.2536 124.589 18.995 124.589 18.6967C124.589 18.3023 124.45 17.9775 124.172 17.7223C123.896 17.4671 123.487 17.3395 122.944 17.3395H121.079V20.1484ZM130.554 26.1541C130.07 26.1541 129.634 26.0679 129.246 25.8956C128.862 25.7199 128.557 25.4614 128.331 25.12C128.109 24.7786 127.998 24.3577 127.998 23.8572C127.998 23.4264 128.078 23.0701 128.237 22.7884C128.396 22.5066 128.613 22.2812 128.888 22.1122C129.163 21.9432 129.473 21.8156 129.818 21.7294C130.166 21.6399 130.526 21.5753 130.897 21.5355C131.344 21.4891 131.707 21.4477 131.986 21.4112C132.264 21.3714 132.466 21.3118 132.592 21.2322C132.721 21.1494 132.786 21.0218 132.786 20.8494V20.8196C132.786 20.4451 132.675 20.1551 132.453 19.9496C132.231 19.7441 131.911 19.6413 131.493 19.6413C131.053 19.6413 130.703 19.7375 130.444 19.9297C130.189 20.1219 130.017 20.349 129.927 20.6108L128.247 20.3722C128.38 19.9081 128.598 19.5204 128.903 19.2088C129.208 18.8939 129.581 18.6586 130.022 18.5028C130.463 18.3438 130.95 18.2642 131.483 18.2642C131.851 18.2642 132.218 18.3073 132.582 18.3935C132.947 18.4796 133.28 18.6222 133.581 18.821C133.883 19.0166 134.125 19.2834 134.307 19.6214C134.493 19.9595 134.586 20.3821 134.586 20.8892V26H132.856V24.951H132.796C132.687 25.1631 132.532 25.362 132.334 25.5476C132.138 25.7299 131.891 25.8774 131.593 25.9901C131.298 26.0994 130.952 26.1541 130.554 26.1541ZM131.021 24.8317C131.382 24.8317 131.696 24.7604 131.961 24.6179C132.226 24.4721 132.43 24.2798 132.572 24.0412C132.718 23.8026 132.791 23.5424 132.791 23.2607V22.3608C132.735 22.4072 132.639 22.4503 132.503 22.4901C132.37 22.5298 132.221 22.5646 132.055 22.5945C131.89 22.6243 131.725 22.6508 131.563 22.674C131.401 22.6972 131.26 22.7171 131.14 22.7337C130.872 22.7701 130.632 22.8298 130.42 22.9126C130.207 22.9955 130.04 23.1115 129.917 23.2607C129.795 23.4065 129.733 23.5954 129.733 23.8274C129.733 24.1589 129.854 24.4091 130.096 24.5781C130.338 24.7472 130.647 24.8317 131.021 24.8317ZM139.726 26.1491C138.964 26.1491 138.309 25.9818 137.763 25.647C137.219 25.3123 136.8 24.8499 136.505 24.2599C136.213 23.6667 136.067 22.9839 136.067 22.2116C136.067 21.4361 136.216 20.7517 136.515 20.1584C136.813 19.5618 137.234 19.0978 137.778 18.7663C138.324 18.4316 138.971 18.2642 139.716 18.2642C140.336 18.2642 140.885 18.3786 141.362 18.6072C141.843 18.8326 142.225 19.1525 142.51 19.5668C142.796 19.9777 142.958 20.4583 142.998 21.0085H141.278C141.208 20.6406 141.042 20.334 140.78 20.0888C140.522 19.8402 140.175 19.7159 139.741 19.7159C139.373 19.7159 139.05 19.8153 138.772 20.0142C138.493 20.2098 138.276 20.4915 138.121 20.8594C137.968 21.2273 137.892 21.6681 137.892 22.1818C137.892 22.7022 137.968 23.1496 138.121 23.5241C138.273 23.8954 138.487 24.1821 138.762 24.3842C139.04 24.5831 139.367 24.6825 139.741 24.6825C140.006 24.6825 140.243 24.6328 140.452 24.5334C140.664 24.4306 140.842 24.2831 140.984 24.0909C141.127 23.8987 141.224 23.665 141.278 23.3899H142.998C142.955 23.9302 142.796 24.4091 142.52 24.8267C142.245 25.241 141.871 25.5658 141.397 25.8011C140.923 26.0331 140.366 26.1491 139.726 26.1491ZM146.116 23.6037L146.111 21.4311H146.4L149.144 18.3636H151.247L147.871 22.1222H147.498L146.116 23.6037ZM144.475 26V15.8182H146.275V26H144.475ZM149.268 26L146.782 22.5249L147.995 21.2571L151.421 26H149.268ZM155.512 26.1491C154.747 26.1491 154.086 25.9901 153.529 25.6719C152.975 25.3504 152.549 24.8963 152.251 24.3097C151.953 23.7197 151.804 23.0253 151.804 22.2266C151.804 21.4411 151.953 20.7517 152.251 20.1584C152.553 19.5618 152.974 19.0978 153.514 18.7663C154.054 18.4316 154.689 18.2642 155.418 18.2642C155.889 18.2642 156.333 18.3404 156.75 18.4929C157.171 18.642 157.542 18.8741 157.864 19.1889C158.189 19.5038 158.444 19.9048 158.63 20.392C158.815 20.8759 158.908 21.4527 158.908 22.1222V22.674H152.649V21.4609H157.183C157.18 21.1162 157.105 20.8097 156.959 20.5412C156.813 20.2694 156.609 20.0556 156.348 19.8999C156.089 19.7441 155.788 19.6662 155.443 19.6662C155.075 19.6662 154.752 19.7557 154.473 19.9347C154.195 20.1103 153.978 20.3423 153.822 20.6307C153.67 20.9157 153.592 21.2289 153.588 21.5703V22.6293C153.588 23.0734 153.67 23.4545 153.832 23.7727C153.994 24.0876 154.221 24.3295 154.513 24.4986C154.805 24.6643 155.146 24.7472 155.537 24.7472C155.799 24.7472 156.036 24.7107 156.248 24.6378C156.46 24.5616 156.644 24.4505 156.8 24.3047C156.956 24.1589 157.074 23.9782 157.153 23.7628L158.833 23.9517C158.727 24.3958 158.525 24.7836 158.227 25.1151C157.932 25.4432 157.554 25.6984 157.093 25.8807C156.633 26.0597 156.106 26.1491 155.512 26.1491ZM162.23 21.5256V26H160.431V18.3636H162.151V19.6612H162.24C162.416 19.2337 162.696 18.8939 163.08 18.642C163.468 18.3902 163.947 18.2642 164.517 18.2642C165.044 18.2642 165.503 18.3769 165.894 18.6023C166.289 18.8277 166.594 19.1541 166.809 19.5817C167.028 20.0092 167.136 20.5279 167.132 21.1378V26H165.333V21.4162C165.333 20.9058 165.2 20.5064 164.935 20.218C164.673 19.9297 164.31 19.7855 163.846 19.7855C163.531 19.7855 163.251 19.8551 163.006 19.9943C162.764 20.1302 162.573 20.3274 162.434 20.5859C162.298 20.8445 162.23 21.1577 162.23 21.5256ZM171.796 26.1342C171.196 26.1342 170.659 25.9801 170.185 25.6719C169.711 25.3636 169.336 24.9162 169.061 24.3295C168.786 23.7429 168.649 23.0303 168.649 22.1918C168.649 21.3433 168.788 20.6274 169.066 20.044C169.348 19.4574 169.727 19.0149 170.205 18.7166C170.682 18.415 171.214 18.2642 171.801 18.2642C172.248 18.2642 172.616 18.3404 172.904 18.4929C173.193 18.642 173.421 18.8227 173.59 19.0348C173.759 19.2436 173.89 19.4408 173.983 19.6264H174.058V15.8182H175.862V26H174.093V24.7969H173.983C173.89 24.9825 173.756 25.1797 173.58 25.3885C173.405 25.594 173.173 25.7696 172.884 25.9155C172.596 26.0613 172.233 26.1342 171.796 26.1342ZM172.298 24.6577C172.679 24.6577 173.004 24.5549 173.272 24.3494C173.541 24.1406 173.744 23.8506 173.884 23.4794C174.023 23.1082 174.093 22.6757 174.093 22.1818C174.093 21.688 174.023 21.2588 173.884 20.8942C173.748 20.5296 173.546 20.2462 173.277 20.044C173.012 19.8419 172.686 19.7408 172.298 19.7408C171.897 19.7408 171.562 19.8452 171.294 20.054C171.025 20.2628 170.823 20.5511 170.687 20.919C170.551 21.2869 170.483 21.7079 170.483 22.1818C170.483 22.6591 170.551 23.085 170.687 23.4595C170.826 23.8307 171.03 24.1241 171.298 24.3395C171.57 24.5516 171.903 24.6577 172.298 24.6577Z" fill="#4493F8"/>
<path d="M13.0568 53V44.2727H16.108C16.7159 44.2727 17.2173 44.3778 17.6122 44.5881C18.0071 44.7955 18.3011 45.0753 18.4943 45.4276C18.6875 45.777 18.7841 46.1648 18.7841 46.5909C18.7841 46.9659 18.7173 47.2756 18.5838 47.5199C18.4531 47.7642 18.2798 47.9574 18.0639 48.0994C17.8509 48.2415 17.6193 48.3466 17.3693 48.4148V48.5C17.6364 48.517 17.9048 48.6108 18.1747 48.7812C18.4446 48.9517 18.6705 49.196 18.8523 49.5142C19.0341 49.8324 19.125 50.2216 19.125 50.6818C19.125 51.1193 19.0256 51.5128 18.8267 51.8622C18.6278 52.2116 18.3139 52.4886 17.8849 52.6932C17.456 52.8977 16.8977 53 16.2102 53H13.0568ZM14.1136 52.0625H16.2102C16.9006 52.0625 17.3906 51.929 17.6804 51.6619C17.973 51.392 18.1193 51.0653 18.1193 50.6818C18.1193 50.3864 18.044 50.1136 17.8935 49.8636C17.7429 49.6108 17.5284 49.4091 17.25 49.2585C16.9716 49.1051 16.642 49.0284 16.2614 49.0284H14.1136V52.0625ZM14.1136 48.108H16.0739C16.392 48.108 16.679 48.0455 16.9347 47.9205C17.1932 47.7955 17.3977 47.6193 17.5483 47.392C17.7017 47.1648 17.7784 46.8977 17.7784 46.5909C17.7784 46.2074 17.6449 45.8821 17.3778 45.6151C17.1108 45.3452 16.6875 45.2102 16.108 45.2102H14.1136V48.108ZM22.6513 53.1534C22.2365 53.1534 21.8601 53.0753 21.522 52.919C21.1839 52.7599 20.9155 52.5312 20.7166 52.233C20.5178 51.9318 20.4183 51.5682 20.4183 51.142C20.4183 50.767 20.4922 50.4631 20.6399 50.2301C20.7876 49.9943 20.9851 49.8097 21.2322 49.6761C21.4794 49.5426 21.7521 49.4432 22.0504 49.3778C22.3516 49.3097 22.6541 49.2557 22.9581 49.2159C23.3558 49.1648 23.6783 49.1264 23.9254 49.1009C24.1754 49.0724 24.3572 49.0256 24.4709 48.9602C24.5874 48.8949 24.6456 48.7812 24.6456 48.6193V48.5852C24.6456 48.1648 24.5305 47.8381 24.3004 47.6051C24.0732 47.3722 23.728 47.2557 23.2649 47.2557C22.7848 47.2557 22.4084 47.3608 22.1357 47.571C21.8629 47.7812 21.6712 48.0057 21.5604 48.2443L20.6058 47.9034C20.7763 47.5057 21.0036 47.196 21.2876 46.9744C21.5746 46.75 21.8871 46.5937 22.2251 46.5057C22.5661 46.4148 22.9013 46.3693 23.2308 46.3693C23.4411 46.3693 23.6825 46.3949 23.9553 46.446C24.2308 46.4943 24.4964 46.5952 24.7521 46.7486C25.0107 46.902 25.2251 47.1335 25.3956 47.4432C25.5661 47.7528 25.6513 48.1676 25.6513 48.6875V53H24.6456V52.1136H24.5945C24.5263 52.2557 24.4126 52.4077 24.2536 52.5696C24.0945 52.7315 23.8828 52.8693 23.6186 52.983C23.3544 53.0966 23.032 53.1534 22.6513 53.1534ZM22.8047 52.25C23.2024 52.25 23.5376 52.1719 23.8104 52.0156C24.0859 51.8594 24.2933 51.6577 24.4325 51.4105C24.5746 51.1634 24.6456 50.9034 24.6456 50.6307V49.7102C24.603 49.7614 24.5092 49.8082 24.3643 49.8509C24.2223 49.8906 24.0575 49.9261 23.87 49.9574C23.6854 49.9858 23.505 50.0114 23.3288 50.0341C23.1555 50.054 23.0149 50.071 22.907 50.0852C22.6456 50.1193 22.4013 50.1747 22.174 50.2514C21.9496 50.3253 21.7678 50.4375 21.6286 50.5881C21.4922 50.7358 21.424 50.9375 21.424 51.1932C21.424 51.5426 21.5533 51.8068 21.8118 51.9858C22.0732 52.1619 22.4041 52.25 22.8047 52.25ZM30.146 53.1364C29.5323 53.1364 29.0039 52.9915 28.5607 52.7017C28.1175 52.4119 27.7766 52.0128 27.538 51.5043C27.2994 50.9957 27.18 50.4148 27.18 49.7614C27.18 49.0966 27.3022 48.5099 27.5465 48.0014C27.7937 47.4901 28.1374 47.0909 28.5778 46.804C29.021 46.5142 29.538 46.3693 30.1289 46.3693C30.5891 46.3693 31.0039 46.4545 31.3732 46.625C31.7425 46.7955 32.0451 47.0341 32.2809 47.3409C32.5167 47.6477 32.663 48.0057 32.7198 48.4148H31.7141C31.6374 48.1165 31.467 47.8523 31.2028 47.6222C30.9414 47.3892 30.5891 47.2727 30.146 47.2727C29.7539 47.2727 29.4102 47.375 29.1147 47.5795C28.8221 47.7812 28.5934 48.0668 28.4286 48.4361C28.2667 48.8026 28.1857 49.233 28.1857 49.7273C28.1857 50.233 28.2653 50.6733 28.4244 51.0483C28.5863 51.4233 28.8136 51.7145 29.1062 51.9219C29.4016 52.1293 29.7482 52.233 30.146 52.233C30.4073 52.233 30.6445 52.1875 30.8576 52.0966C31.0707 52.0057 31.2511 51.875 31.3988 51.7045C31.5465 51.5341 31.6516 51.3295 31.7141 51.0909H32.7198C32.663 51.4773 32.5224 51.8253 32.2979 52.1349C32.0763 52.4418 31.7823 52.6861 31.4158 52.8679C31.0522 53.0469 30.6289 53.1364 30.146 53.1364ZM35.1275 50.6136L35.1104 49.3693H35.315L38.1786 46.4545H39.4229L36.3718 49.5398H36.2866L35.1275 50.6136ZM34.19 53V44.2727H35.1957V53H34.19ZM38.3491 53L35.7923 49.7614L36.5082 49.0625L39.6275 53H38.3491ZM43.1921 53.1364C42.5614 53.1364 42.0174 52.9972 41.56 52.7188C41.1055 52.4375 40.7546 52.0455 40.5075 51.5426C40.2631 51.0369 40.141 50.4489 40.141 49.7784C40.141 49.108 40.2631 48.517 40.5075 48.0057C40.7546 47.4915 41.0984 47.0909 41.5387 46.804C41.9819 46.5142 42.4989 46.3693 43.0898 46.3693C43.4308 46.3693 43.7674 46.4261 44.0998 46.5398C44.4322 46.6534 44.7347 46.8381 45.0075 47.0938C45.2802 47.3466 45.4975 47.6818 45.6594 48.0994C45.8214 48.517 45.9023 49.0312 45.9023 49.642V50.0682H40.8569V49.1989H44.8796C44.8796 48.8295 44.8058 48.5 44.658 48.2102C44.5131 47.9205 44.3058 47.6918 44.0359 47.5241C43.7688 47.3565 43.4535 47.2727 43.0898 47.2727C42.6893 47.2727 42.3427 47.3722 42.0501 47.571C41.7603 47.767 41.5373 48.0227 41.381 48.3381C41.2248 48.6534 41.1467 48.9915 41.1467 49.3523V49.9318C41.1467 50.4261 41.2319 50.8452 41.4023 51.1889C41.5756 51.5298 41.8157 51.7898 42.1225 51.9688C42.4293 52.1449 42.7859 52.233 43.1921 52.233C43.4563 52.233 43.695 52.196 43.908 52.1222C44.1239 52.0455 44.31 51.9318 44.4663 51.7812C44.6225 51.6278 44.7433 51.4375 44.8285 51.2102L45.8001 51.483C45.6978 51.8125 45.5259 52.1023 45.2844 52.3523C45.043 52.5994 44.7447 52.7926 44.3896 52.9318C44.0344 53.0682 43.6353 53.1364 43.1921 53.1364ZM48.4379 49.0625V53H47.4322V46.4545H48.4038V47.4773H48.489C48.6424 47.1449 48.8754 46.8778 49.1879 46.6761C49.5004 46.4716 49.9038 46.3693 50.3981 46.3693C50.8413 46.3693 51.229 46.4602 51.5614 46.642C51.8938 46.821 52.1523 47.0938 52.337 47.4602C52.5217 47.8239 52.614 48.2841 52.614 48.8409V53H51.6083V48.9091C51.6083 48.3949 51.4748 47.9943 51.2077 47.7074C50.9407 47.4176 50.5742 47.2727 50.1083 47.2727C49.7873 47.2727 49.5004 47.3423 49.2475 47.4815C48.9975 47.6207 48.8001 47.8239 48.6552 48.0909C48.5103 48.358 48.4379 48.6818 48.4379 49.0625ZM56.9233 53.1364C56.3778 53.1364 55.8963 52.9986 55.4787 52.723C55.0611 52.4446 54.7344 52.0526 54.4986 51.5469C54.2628 51.0384 54.1449 50.4375 54.1449 49.7443C54.1449 49.0568 54.2628 48.4602 54.4986 47.9545C54.7344 47.4489 55.0625 47.0582 55.483 46.7827C55.9034 46.5071 56.3892 46.3693 56.9403 46.3693C57.3665 46.3693 57.7031 46.4403 57.9503 46.5824C58.2003 46.7216 58.3906 46.8807 58.5213 47.0597C58.6548 47.2358 58.7585 47.3807 58.8324 47.4943H58.9176V44.2727H59.9233V53H58.9517V51.9943H58.8324C58.7585 52.1136 58.6534 52.2642 58.517 52.446C58.3807 52.625 58.1861 52.7855 57.9332 52.9276C57.6804 53.0668 57.3438 53.1364 56.9233 53.1364ZM57.0597 52.233C57.4631 52.233 57.804 52.1278 58.0824 51.9176C58.3608 51.7045 58.5724 51.4105 58.7173 51.0355C58.8622 50.6577 58.9347 50.2216 58.9347 49.7273C58.9347 49.2386 58.8636 48.8111 58.7216 48.4446C58.5795 48.0753 58.3693 47.7884 58.0909 47.5838C57.8125 47.3764 57.4688 47.2727 57.0597 47.2727C56.6335 47.2727 56.2784 47.3821 55.9943 47.6009C55.7131 47.8168 55.5014 48.1108 55.3594 48.483C55.2202 48.8523 55.1506 49.267 55.1506 49.7273C55.1506 50.1932 55.2216 50.6165 55.3636 50.9972C55.5085 51.375 55.7216 51.6761 56.0028 51.9006C56.2869 52.1222 56.6392 52.233 57.0597 52.233ZM65.4162 53V44.2727H68.3651C69.0469 44.2727 69.6065 44.3892 70.044 44.6222C70.4815 44.8523 70.8054 45.169 71.0156 45.5724C71.2259 45.9759 71.331 46.4347 71.331 46.9489C71.331 47.4631 71.2259 47.919 71.0156 48.3168C70.8054 48.7145 70.483 49.027 70.0483 49.2543C69.6136 49.4787 69.0582 49.5909 68.3821 49.5909H65.9957V48.6364H68.348C68.8139 48.6364 69.1889 48.5682 69.473 48.4318C69.7599 48.2955 69.9673 48.1023 70.0952 47.8523C70.2259 47.5994 70.2912 47.2983 70.2912 46.9489C70.2912 46.5994 70.2259 46.294 70.0952 46.0327C69.9645 45.7713 69.7557 45.5696 69.4688 45.4276C69.1818 45.2827 68.8026 45.2102 68.331 45.2102H66.473V53H65.4162ZM69.5241 49.0795L71.6719 53H70.4446L68.331 49.0795H69.5241ZM73.092 53V44.2727H78.359V45.2102H74.1488V48.1591H78.0863V49.0966H74.1488V52.0625H78.4272V53H73.092ZM85.0366 46.4545C84.9854 46.0227 84.7781 45.6875 84.4144 45.4489C84.0508 45.2102 83.6048 45.0909 83.0763 45.0909C82.69 45.0909 82.3519 45.1534 82.0621 45.2784C81.7752 45.4034 81.5508 45.5753 81.3888 45.794C81.2298 46.0128 81.1502 46.2614 81.1502 46.5398C81.1502 46.7727 81.2056 46.973 81.3164 47.1406C81.43 47.3054 81.5749 47.4432 81.7511 47.554C81.9272 47.6619 82.1119 47.7514 82.305 47.8224C82.4982 47.8906 82.6758 47.946 82.8377 47.9886L83.7241 48.2273C83.9513 48.2869 84.2042 48.3693 84.4826 48.4744C84.7638 48.5795 85.0323 48.723 85.288 48.9048C85.5465 49.0838 85.7596 49.3139 85.9272 49.5952C86.0948 49.8764 86.1786 50.2216 86.1786 50.6307C86.1786 51.1023 86.055 51.5284 85.8079 51.9091C85.5636 52.2898 85.2056 52.5923 84.734 52.8168C84.2653 53.0412 83.6957 53.1534 83.0252 53.1534C82.4002 53.1534 81.859 53.0526 81.4016 52.8509C80.9471 52.6491 80.5891 52.3679 80.3278 52.0071C80.0692 51.6463 79.9229 51.2273 79.8888 50.75H80.9798C81.0082 51.0795 81.119 51.3523 81.3121 51.5682C81.5082 51.7812 81.7553 51.9403 82.0536 52.0455C82.3548 52.1477 82.6786 52.1989 83.0252 52.1989C83.4286 52.1989 83.7908 52.1335 84.1119 52.0028C84.4329 51.8693 84.6871 51.6847 84.8746 51.4489C85.0621 51.2102 85.1559 50.9318 85.1559 50.6136C85.1559 50.3239 85.0749 50.0881 84.913 49.9062C84.7511 49.7244 84.538 49.5767 84.2738 49.4631C84.0096 49.3494 83.7241 49.25 83.4173 49.1648L82.3434 48.858C81.6616 48.6619 81.1218 48.3821 80.7241 48.0185C80.3263 47.6548 80.1275 47.179 80.1275 46.5909C80.1275 46.1023 80.2596 45.6761 80.5238 45.3125C80.7908 44.946 81.1488 44.6619 81.5977 44.4602C82.0494 44.2557 82.5536 44.1534 83.1104 44.1534C83.6729 44.1534 84.1729 44.2543 84.6104 44.456C85.0479 44.6548 85.3945 44.9276 85.6502 45.2741C85.9087 45.6207 86.0451 46.0142 86.0593 46.4545H85.0366ZM87.4389 45.2102V44.2727H93.9844V45.2102H91.2401V53H90.1832V45.2102H87.4389ZM99.3484 53H98.2404L101.445 44.2727H102.536L105.74 53H104.632L102.025 45.6534H101.956L99.3484 53ZM99.7575 49.5909H104.223V50.5284H99.7575V49.5909ZM107.1 53V44.2727H110.049C110.733 44.2727 111.293 44.3963 111.728 44.6435C112.165 44.8878 112.489 45.2188 112.699 45.6364C112.909 46.054 113.015 46.5199 113.015 47.0341C113.015 47.5483 112.909 48.0156 112.699 48.4361C112.492 48.8565 112.171 49.1918 111.736 49.4418C111.301 49.6889 110.745 49.8125 110.066 49.8125H107.952V48.875H110.032C110.5 48.875 110.877 48.794 111.161 48.6321C111.445 48.4702 111.651 48.2514 111.779 47.9759C111.909 47.6974 111.975 47.3835 111.975 47.0341C111.975 46.6847 111.909 46.3722 111.779 46.0966C111.651 45.821 111.444 45.6051 111.157 45.4489C110.87 45.2898 110.489 45.2102 110.015 45.2102H108.157V53H107.1ZM115.774 44.2727V53H114.717V44.2727H115.774ZM124.046 46.4545V47.3068H120.518V46.4545H124.046ZM121.575 53V45.5511C121.575 45.1761 121.663 44.8636 121.839 44.6136C122.015 44.3636 122.244 44.1761 122.525 44.0511C122.806 43.9261 123.103 43.8636 123.415 43.8636C123.663 43.8636 123.864 43.8835 124.021 43.9233C124.177 43.9631 124.293 44 124.37 44.0341L124.08 44.9034C124.029 44.8864 123.958 44.8651 123.867 44.8395C123.779 44.8139 123.663 44.8011 123.518 44.8011C123.185 44.8011 122.945 44.8849 122.798 45.0526C122.653 45.2202 122.58 45.4659 122.58 45.7898V53H121.575ZM127.845 53.1364C127.254 53.1364 126.736 52.9957 126.29 52.7145C125.847 52.4332 125.5 52.0398 125.25 51.5341C125.003 51.0284 124.879 50.4375 124.879 49.7614C124.879 49.0795 125.003 48.4844 125.25 47.9759C125.5 47.4673 125.847 47.0724 126.29 46.7912C126.736 46.5099 127.254 46.3693 127.845 46.3693C128.436 46.3693 128.953 46.5099 129.396 46.7912C129.842 47.0724 130.189 47.4673 130.436 47.9759C130.686 48.4844 130.811 49.0795 130.811 49.7614C130.811 50.4375 130.686 51.0284 130.436 51.5341C130.189 52.0398 129.842 52.4332 129.396 52.7145C128.953 52.9957 128.436 53.1364 127.845 53.1364ZM127.845 52.233C128.294 52.233 128.663 52.1179 128.953 51.8878C129.243 51.6577 129.457 51.3551 129.597 50.9801C129.736 50.6051 129.805 50.1989 129.805 49.7614C129.805 49.3239 129.736 48.9162 129.597 48.5384C129.457 48.1605 129.243 47.8551 128.953 47.6222C128.663 47.3892 128.294 47.2727 127.845 47.2727C127.396 47.2727 127.027 47.3892 126.737 47.6222C126.447 47.8551 126.233 48.1605 126.094 48.5384C125.955 48.9162 125.885 49.3239 125.885 49.7614C125.885 50.1989 125.955 50.6051 126.094 50.9801C126.233 51.3551 126.447 51.6577 126.737 51.8878C127.027 52.1179 127.396 52.233 127.845 52.233ZM132.346 53V46.4545H133.318V47.4432H133.386C133.505 47.1193 133.721 46.8565 134.034 46.6548C134.346 46.4531 134.699 46.3523 135.091 46.3523C135.164 46.3523 135.257 46.3537 135.368 46.3565C135.478 46.3594 135.562 46.3636 135.619 46.3693V47.392C135.585 47.3835 135.507 47.3707 135.385 47.3537C135.265 47.3338 135.139 47.3239 135.005 47.3239C134.687 47.3239 134.403 47.3906 134.153 47.5241C133.906 47.6548 133.71 47.8366 133.565 48.0696C133.423 48.2997 133.352 48.5625 133.352 48.858V53H132.346ZM143.033 46.4545V47.3068H139.641V46.4545H143.033ZM140.629 44.8864H141.635V51.125C141.635 51.4091 141.676 51.6222 141.759 51.7642C141.844 51.9034 141.952 51.9972 142.082 52.0455C142.216 52.0909 142.357 52.1136 142.504 52.1136C142.615 52.1136 142.706 52.108 142.777 52.0966C142.848 52.0824 142.905 52.071 142.947 52.0625L143.152 52.9659C143.084 52.9915 142.989 53.017 142.866 53.0426C142.744 53.071 142.589 53.0852 142.402 53.0852C142.118 53.0852 141.839 53.0241 141.567 52.902C141.297 52.7798 141.072 52.5938 140.893 52.3438C140.717 52.0938 140.629 51.7784 140.629 51.3977V44.8864ZM145.692 49.0625V53H144.686V44.2727H145.692V47.4773H145.777C145.93 47.1392 146.161 46.8707 146.467 46.6719C146.777 46.4702 147.189 46.3693 147.703 46.3693C148.149 46.3693 148.54 46.4588 148.875 46.6378C149.21 46.8139 149.47 47.0852 149.655 47.4517C149.842 47.8153 149.936 48.2784 149.936 48.8409V53H148.93V48.9091C148.93 48.3892 148.795 47.9872 148.526 47.7031C148.259 47.4162 147.888 47.2727 147.413 47.2727C147.084 47.2727 146.788 47.3423 146.527 47.4815C146.268 47.6207 146.064 47.8239 145.913 48.0909C145.766 48.358 145.692 48.6818 145.692 49.0625ZM154.52 53.1364C153.89 53.1364 153.346 52.9972 152.888 52.7188C152.434 52.4375 152.083 52.0455 151.836 51.5426C151.591 51.0369 151.469 50.4489 151.469 49.7784C151.469 49.108 151.591 48.517 151.836 48.0057C152.083 47.4915 152.426 47.0909 152.867 46.804C153.31 46.5142 153.827 46.3693 154.418 46.3693C154.759 46.3693 155.096 46.4261 155.428 46.5398C155.76 46.6534 156.063 46.8381 156.336 47.0938C156.608 47.3466 156.826 47.6818 156.988 48.0994C157.15 48.517 157.23 49.0312 157.23 49.642V50.0682H152.185V49.1989H156.208C156.208 48.8295 156.134 48.5 155.986 48.2102C155.841 47.9205 155.634 47.6918 155.364 47.5241C155.097 47.3565 154.782 47.2727 154.418 47.2727C154.017 47.2727 153.671 47.3722 153.378 47.571C153.088 47.767 152.865 48.0227 152.709 48.3381C152.553 48.6534 152.475 48.9915 152.475 49.3523V49.9318C152.475 50.4261 152.56 50.8452 152.73 51.1889C152.904 51.5298 153.144 51.7898 153.451 51.9688C153.757 52.1449 154.114 52.233 154.52 52.233C154.784 52.233 155.023 52.196 155.236 52.1222C155.452 52.0455 155.638 51.9318 155.794 51.7812C155.951 51.6278 156.071 51.4375 156.157 51.2102L157.128 51.483C157.026 51.8125 156.854 52.1023 156.613 52.3523C156.371 52.5994 156.073 52.7926 155.718 52.9318C155.363 53.0682 154.963 53.1364 154.52 53.1364ZM163.328 44.2727V53H162.272V44.2727H163.328ZM166.317 49.0625V53H165.311V46.4545H166.283V47.4773H166.368C166.521 47.1449 166.754 46.8778 167.067 46.6761C167.379 46.4716 167.783 46.3693 168.277 46.3693C168.72 46.3693 169.108 46.4602 169.44 46.642C169.773 46.821 170.031 47.0938 170.216 47.4602C170.401 47.8239 170.493 48.2841 170.493 48.8409V53H169.487V48.9091C169.487 48.3949 169.354 47.9943 169.087 47.7074C168.82 47.4176 168.453 47.2727 167.987 47.2727C167.666 47.2727 167.379 47.3423 167.126 47.4815C166.876 47.6207 166.679 47.8239 166.534 48.0909C166.389 48.358 166.317 48.6818 166.317 49.0625ZM174.802 53.1364C174.257 53.1364 173.775 52.9986 173.358 52.723C172.94 52.4446 172.613 52.0526 172.377 51.5469C172.142 51.0384 172.024 50.4375 172.024 49.7443C172.024 49.0568 172.142 48.4602 172.377 47.9545C172.613 47.4489 172.941 47.0582 173.362 46.7827C173.782 46.5071 174.268 46.3693 174.819 46.3693C175.245 46.3693 175.582 46.4403 175.829 46.5824C176.079 46.7216 176.27 46.8807 176.4 47.0597C176.534 47.2358 176.637 47.3807 176.711 47.4943H176.797V44.2727H177.802V53H176.831V51.9943H176.711C176.637 52.1136 176.532 52.2642 176.396 52.446C176.26 52.625 176.065 52.7855 175.812 52.9276C175.559 53.0668 175.223 53.1364 174.802 53.1364ZM174.939 52.233C175.342 52.233 175.683 52.1278 175.961 51.9176C176.24 51.7045 176.451 51.4105 176.596 51.0355C176.741 50.6577 176.814 50.2216 176.814 49.7273C176.814 49.2386 176.743 48.8111 176.6 48.4446C176.458 48.0753 176.248 47.7884 175.97 47.5838C175.691 47.3764 175.348 47.2727 174.939 47.2727C174.512 47.2727 174.157 47.3821 173.873 47.6009C173.592 47.8168 173.38 48.1108 173.238 48.483C173.099 48.8523 173.029 49.267 173.029 49.7273C173.029 50.1932 173.1 50.6165 173.243 50.9972C173.387 51.375 173.6 51.6761 173.882 51.9006C174.166 52.1222 174.518 52.233 174.939 52.233ZM179.784 53V46.4545H180.789V53H179.784ZM180.295 45.3636C180.099 45.3636 179.93 45.2969 179.788 45.1634C179.649 45.0298 179.579 44.8693 179.579 44.6818C179.579 44.4943 179.649 44.3338 179.788 44.2003C179.93 44.0668 180.099 44 180.295 44C180.491 44 180.659 44.0668 180.798 44.2003C180.94 44.3338 181.011 44.4943 181.011 44.6818C181.011 44.8693 180.94 45.0298 180.798 45.1634C180.659 45.2969 180.491 45.3636 180.295 45.3636ZM183.536 44.2727L186.127 51.6193H186.229L188.82 44.2727H189.928L186.723 53H185.632L182.428 44.2727H183.536ZM191.151 53V46.4545H192.157V53H191.151ZM191.662 45.3636C191.466 45.3636 191.297 45.2969 191.155 45.1634C191.016 45.0298 190.946 44.8693 190.946 44.6818C190.946 44.4943 191.016 44.3338 191.155 44.2003C191.297 44.0668 191.466 44 191.662 44C191.858 44 192.026 44.0668 192.165 44.2003C192.307 44.3338 192.378 44.4943 192.378 44.6818C192.378 44.8693 192.307 45.0298 192.165 45.1634C192.026 45.2969 191.858 45.3636 191.662 45.3636ZM198.635 47.9205L197.732 48.1761C197.675 48.0256 197.591 47.8793 197.48 47.7372C197.372 47.5923 197.224 47.473 197.037 47.3793C196.849 47.2855 196.609 47.2386 196.317 47.2386C195.916 47.2386 195.582 47.331 195.315 47.5156C195.051 47.6974 194.919 47.929 194.919 48.2102C194.919 48.4602 195.01 48.6577 195.192 48.8026C195.374 48.9474 195.658 49.0682 196.044 49.1648L197.016 49.4034C197.601 49.5455 198.037 49.7628 198.324 50.0554C198.611 50.3452 198.754 50.7187 198.754 51.1761C198.754 51.5511 198.646 51.8864 198.43 52.1818C198.217 52.4773 197.919 52.7102 197.536 52.8807C197.152 53.0511 196.706 53.1364 196.197 53.1364C195.53 53.1364 194.977 52.9915 194.54 52.7017C194.102 52.4119 193.825 51.9886 193.709 51.4318L194.663 51.1932C194.754 51.5455 194.926 51.8097 195.179 51.9858C195.435 52.1619 195.768 52.25 196.18 52.25C196.649 52.25 197.021 52.1506 197.297 51.9517C197.575 51.75 197.714 51.5085 197.714 51.2273C197.714 51 197.635 50.8097 197.476 50.6562C197.317 50.5 197.072 50.3835 196.743 50.3068L195.652 50.0511C195.053 49.9091 194.612 49.6889 194.331 49.3906C194.053 49.0895 193.913 48.7131 193.913 48.2614C193.913 47.892 194.017 47.5653 194.224 47.2812C194.435 46.9972 194.72 46.7741 195.081 46.6122C195.445 46.4503 195.857 46.3693 196.317 46.3693C196.964 46.3693 197.473 46.5114 197.842 46.7955C198.214 47.0795 198.479 47.4545 198.635 47.9205ZM204.393 50.3239V46.4545H205.399V53H204.393V51.892H204.325C204.172 52.2244 203.933 52.5071 203.609 52.7401C203.285 52.9702 202.876 53.0852 202.382 53.0852C201.973 53.0852 201.609 52.9957 201.291 52.8168C200.973 52.6349 200.723 52.3622 200.541 51.9986C200.359 51.6321 200.268 51.1705 200.268 50.6136V46.4545H201.274V50.5455C201.274 51.0227 201.407 51.4034 201.674 51.6875C201.944 51.9716 202.288 52.1136 202.706 52.1136C202.956 52.1136 203.21 52.0497 203.468 51.9219C203.73 51.794 203.949 51.598 204.125 51.3338C204.304 51.0696 204.393 50.733 204.393 50.3239ZM209.167 53.1534C208.752 53.1534 208.376 53.0753 208.038 52.919C207.7 52.7599 207.431 52.5312 207.232 52.233C207.033 51.9318 206.934 51.5682 206.934 51.142C206.934 50.767 207.008 50.4631 207.156 50.2301C207.303 49.9943 207.501 49.8097 207.748 49.6761C207.995 49.5426 208.268 49.4432 208.566 49.3778C208.867 49.3097 209.17 49.2557 209.474 49.2159C209.871 49.1648 210.194 49.1264 210.441 49.1009C210.691 49.0724 210.873 49.0256 210.987 48.9602C211.103 48.8949 211.161 48.7812 211.161 48.6193V48.5852C211.161 48.1648 211.046 47.8381 210.816 47.6051C210.589 47.3722 210.244 47.2557 209.781 47.2557C209.3 47.2557 208.924 47.3608 208.651 47.571C208.379 47.7812 208.187 48.0057 208.076 48.2443L207.121 47.9034C207.292 47.5057 207.519 47.196 207.803 46.9744C208.09 46.75 208.403 46.5937 208.741 46.5057C209.082 46.4148 209.417 46.3693 209.746 46.3693C209.957 46.3693 210.198 46.3949 210.471 46.446C210.746 46.4943 211.012 46.5952 211.268 46.7486C211.526 46.902 211.741 47.1335 211.911 47.4432C212.082 47.7528 212.167 48.1676 212.167 48.6875V53H211.161V52.1136H211.11C211.042 52.2557 210.928 52.4077 210.769 52.5696C210.61 52.7315 210.398 52.8693 210.134 52.983C209.87 53.0966 209.548 53.1534 209.167 53.1534ZM209.32 52.25C209.718 52.25 210.053 52.1719 210.326 52.0156C210.602 51.8594 210.809 51.6577 210.948 51.4105C211.09 51.1634 211.161 50.9034 211.161 50.6307V49.7102C211.119 49.7614 211.025 49.8082 210.88 49.8509C210.738 49.8906 210.573 49.9261 210.386 49.9574C210.201 49.9858 210.021 50.0114 209.844 50.0341C209.671 50.054 209.531 50.071 209.423 50.0852C209.161 50.1193 208.917 50.1747 208.69 50.2514C208.465 50.3253 208.283 50.4375 208.144 50.5881C208.008 50.7358 207.94 50.9375 207.94 51.1932C207.94 51.5426 208.069 51.8068 208.327 51.9858C208.589 52.1619 208.92 52.25 209.32 52.25ZM215.008 44.2727V53H214.002V44.2727H215.008ZM220.362 53V44.2727H225.629V45.2102H221.418V48.1591H225.356V49.0966H221.418V52.0625H225.697V53H220.362ZM228.045 55.4545C227.874 55.4545 227.722 55.4403 227.589 55.4119C227.455 55.3864 227.363 55.3608 227.312 55.3352L227.567 54.4489C227.812 54.5114 228.028 54.5341 228.215 54.517C228.403 54.5 228.569 54.4162 228.714 54.2656C228.862 54.1179 228.996 53.8778 229.119 53.5455L229.306 53.0341L226.886 46.4545H227.977L229.783 51.6705H229.852L231.658 46.4545H232.749L229.971 53.9545C229.846 54.2926 229.691 54.5724 229.506 54.794C229.322 55.0185 229.107 55.1847 228.863 55.2926C228.621 55.4006 228.349 55.4545 228.045 55.4545ZM236.587 53.1364C235.956 53.1364 235.412 52.9972 234.955 52.7188C234.5 52.4375 234.149 52.0455 233.902 51.5426C233.658 51.0369 233.536 50.4489 233.536 49.7784C233.536 49.108 233.658 48.517 233.902 48.0057C234.149 47.4915 234.493 47.0909 234.933 46.804C235.376 46.5142 235.893 46.3693 236.484 46.3693C236.825 46.3693 237.162 46.4261 237.494 46.5398C237.827 46.6534 238.129 46.8381 238.402 47.0938C238.675 47.3466 238.892 47.6818 239.054 48.0994C239.216 48.517 239.297 49.0312 239.297 49.642V50.0682H234.251V49.1989H238.274C238.274 48.8295 238.2 48.5 238.053 48.2102C237.908 47.9205 237.7 47.6918 237.43 47.5241C237.163 47.3565 236.848 47.2727 236.484 47.2727C236.084 47.2727 235.737 47.3722 235.445 47.571C235.155 47.767 234.932 48.0227 234.776 48.3381C234.619 48.6534 234.541 48.9915 234.541 49.3523V49.9318C234.541 50.4261 234.626 50.8452 234.797 51.1889C234.97 51.5298 235.21 51.7898 235.517 51.9688C235.824 52.1449 236.18 52.233 236.587 52.233C236.851 52.233 237.089 52.196 237.303 52.1222C237.518 52.0455 237.705 51.9318 237.861 51.7812C238.017 51.6278 238.138 51.4375 238.223 51.2102L239.195 51.483C239.092 51.8125 238.92 52.1023 238.679 52.3523C238.438 52.5994 238.139 52.7926 237.784 52.9318C237.429 53.0682 237.03 53.1364 236.587 53.1364ZM245.463 47.9205L244.56 48.1761C244.503 48.0256 244.419 47.8793 244.308 47.7372C244.2 47.5923 244.053 47.473 243.865 47.3793C243.678 47.2855 243.438 47.2386 243.145 47.2386C242.744 47.2386 242.411 47.331 242.143 47.5156C241.879 47.6974 241.747 47.929 241.747 48.2102C241.747 48.4602 241.838 48.6577 242.02 48.8026C242.202 48.9474 242.486 49.0682 242.872 49.1648L243.844 49.4034C244.429 49.5455 244.865 49.7628 245.152 50.0554C245.439 50.3452 245.582 50.7187 245.582 51.1761C245.582 51.5511 245.474 51.8864 245.259 52.1818C245.045 52.4773 244.747 52.7102 244.364 52.8807C243.98 53.0511 243.534 53.1364 243.026 53.1364C242.358 53.1364 241.805 52.9915 241.368 52.7017C240.93 52.4119 240.653 51.9886 240.537 51.4318L241.491 51.1932C241.582 51.5455 241.754 51.8097 242.007 51.9858C242.263 52.1619 242.597 52.25 243.009 52.25C243.477 52.25 243.849 52.1506 244.125 51.9517C244.403 51.75 244.543 51.5085 244.543 51.2273C244.543 51 244.463 50.8097 244.304 50.6562C244.145 50.5 243.901 50.3835 243.571 50.3068L242.48 50.0511C241.881 49.9091 241.44 49.6889 241.159 49.3906C240.881 49.0895 240.741 48.7131 240.741 48.2614C240.741 47.892 240.845 47.5653 241.053 47.2812C241.263 46.9972 241.548 46.7741 241.909 46.6122C242.273 46.4503 242.685 46.3693 243.145 46.3693C243.793 46.3693 244.301 46.5114 244.67 46.7955C245.043 47.0795 245.307 47.4545 245.463 47.9205ZM252.397 53.1534C251.983 53.1534 251.606 53.0753 251.268 52.919C250.93 52.7599 250.662 52.5312 250.463 52.233C250.264 51.9318 250.164 51.5682 250.164 51.142C250.164 50.767 250.238 50.4631 250.386 50.2301C250.534 49.9943 250.731 49.8097 250.978 49.6761C251.225 49.5426 251.498 49.4432 251.797 49.3778C252.098 49.3097 252.4 49.2557 252.704 49.2159C253.102 49.1648 253.424 49.1264 253.672 49.1009C253.922 49.0724 254.103 49.0256 254.217 48.9602C254.333 48.8949 254.392 48.7812 254.392 48.6193V48.5852C254.392 48.1648 254.277 47.8381 254.047 47.6051C253.819 47.3722 253.474 47.2557 253.011 47.2557C252.531 47.2557 252.154 47.3608 251.882 47.571C251.609 47.7812 251.417 48.0057 251.306 48.2443L250.352 47.9034C250.522 47.5057 250.75 47.196 251.034 46.9744C251.321 46.75 251.633 46.5937 251.971 46.5057C252.312 46.4148 252.647 46.3693 252.977 46.3693C253.187 46.3693 253.429 46.3949 253.701 46.446C253.977 46.4943 254.243 46.5952 254.498 46.7486C254.757 46.902 254.971 47.1335 255.142 47.4432C255.312 47.7528 255.397 48.1676 255.397 48.6875V53H254.392V52.1136H254.341C254.272 52.2557 254.159 52.4077 254 52.5696C253.841 52.7315 253.629 52.8693 253.365 52.983C253.1 53.0966 252.778 53.1534 252.397 53.1534ZM252.551 52.25C252.949 52.25 253.284 52.1719 253.556 52.0156C253.832 51.8594 254.039 51.6577 254.179 51.4105C254.321 51.1634 254.392 50.9034 254.392 50.6307V49.7102C254.349 49.7614 254.255 49.8082 254.11 49.8509C253.968 49.8906 253.804 49.9261 253.616 49.9574C253.431 49.9858 253.251 50.0114 253.075 50.0341C252.902 50.054 252.761 50.071 252.653 50.0852C252.392 50.1193 252.147 50.1747 251.92 50.2514C251.696 50.3253 251.514 50.4375 251.375 50.5881C251.238 50.7358 251.17 50.9375 251.17 51.1932C251.17 51.5426 251.299 51.8068 251.558 51.9858C251.819 52.1619 252.15 52.25 252.551 52.25ZM257.233 55.4545V46.4545H258.205V47.4943H258.324C258.398 47.3807 258.5 47.2358 258.631 47.0597C258.764 46.8807 258.955 46.7216 259.202 46.5824C259.452 46.4403 259.79 46.3693 260.216 46.3693C260.767 46.3693 261.253 46.5071 261.673 46.7827C262.094 47.0582 262.422 47.4489 262.658 47.9545C262.893 48.4602 263.011 49.0568 263.011 49.7443C263.011 50.4375 262.893 51.0384 262.658 51.5469C262.422 52.0526 262.095 52.4446 261.678 52.723C261.26 52.9986 260.778 53.1364 260.233 53.1364C259.813 53.1364 259.476 53.0668 259.223 52.9276C258.97 52.7855 258.776 52.625 258.639 52.446C258.503 52.2642 258.398 52.1136 258.324 51.9943H258.239V55.4545H257.233ZM258.222 49.7273C258.222 50.2216 258.294 50.6577 258.439 51.0355C258.584 51.4105 258.795 51.7045 259.074 51.9176C259.352 52.1278 259.693 52.233 260.097 52.233C260.517 52.233 260.868 52.1222 261.149 51.9006C261.433 51.6761 261.646 51.375 261.788 50.9972C261.933 50.6165 262.006 50.1932 262.006 49.7273C262.006 49.267 261.935 48.8523 261.793 48.483C261.653 48.1108 261.442 47.8168 261.158 47.6009C260.876 47.3821 260.523 47.2727 260.097 47.2727C259.688 47.2727 259.344 47.3764 259.065 47.5838C258.787 47.7884 258.577 48.0753 258.435 48.4446C258.293 48.8111 258.222 49.2386 258.222 49.7273ZM264.545 55.4545V46.4545H265.517V47.4943H265.636C265.71 47.3807 265.813 47.2358 265.943 47.0597C266.077 46.8807 266.267 46.7216 266.514 46.5824C266.764 46.4403 267.102 46.3693 267.528 46.3693C268.08 46.3693 268.565 46.5071 268.986 46.7827C269.406 47.0582 269.734 47.4489 269.97 47.9545C270.206 48.4602 270.324 49.0568 270.324 49.7443C270.324 50.4375 270.206 51.0384 269.97 51.5469C269.734 52.0526 269.408 52.4446 268.99 52.723C268.572 52.9986 268.091 53.1364 267.545 53.1364C267.125 53.1364 266.788 53.0668 266.536 52.9276C266.283 52.7855 266.088 52.625 265.952 52.446C265.815 52.2642 265.71 52.1136 265.636 51.9943H265.551V55.4545H264.545ZM265.534 49.7273C265.534 50.2216 265.607 50.6577 265.751 51.0355C265.896 51.4105 266.108 51.7045 266.386 51.9176C266.665 52.1278 267.006 52.233 267.409 52.233C267.83 52.233 268.18 52.1222 268.462 51.9006C268.746 51.6761 268.959 51.375 269.101 50.9972C269.246 50.6165 269.318 50.1932 269.318 49.7273C269.318 49.267 269.247 48.8523 269.105 48.483C268.966 48.1108 268.754 47.8168 268.47 47.6009C268.189 47.3821 267.835 47.2727 267.409 47.2727C267 47.2727 266.656 47.3764 266.378 47.5838C266.099 47.7884 265.889 48.0753 265.747 48.4446C265.605 48.8111 265.534 49.2386 265.534 49.7273Z" fill="#768395"/>
<circle cx="18" cy="79" r="6" fill="#3572A5"/>
<circle cx="18" cy="79" r="5.5" stroke="white" stroke-opacity="0.14902"/>
<path d="M33.0568 83.5V74.7727H36.0057C36.6903 74.7727 37.25 74.8963 37.6847 75.1435C38.1222 75.3878 38.446 75.7188 38.6562 76.1364C38.8665 76.554 38.9716 77.0199 38.9716 77.5341C38.9716 78.0483 38.8665 78.5156 38.6562 78.9361C38.4489 79.3565 38.1278 79.6918 37.6932 79.9418C37.2585 80.1889 36.7017 80.3125 36.0227 80.3125H33.9091V79.375H35.9886C36.4574 79.375 36.8338 79.294 37.1179 79.1321C37.402 78.9702 37.608 78.7514 37.7358 78.4759C37.8665 78.1974 37.9318 77.8835 37.9318 77.5341C37.9318 77.1847 37.8665 76.8722 37.7358 76.5966C37.608 76.321 37.4006 76.1051 37.1136 75.9489C36.8267 75.7898 36.446 75.7102 35.9716 75.7102H34.1136V83.5H33.0568ZM41.1854 85.9545C41.0149 85.9545 40.8629 85.9403 40.7294 85.9119C40.5959 85.8864 40.5036 85.8608 40.4524 85.8352L40.7081 84.9489C40.9524 85.0114 41.1683 85.0341 41.3558 85.017C41.5433 85 41.7095 84.9162 41.8544 84.7656C42.0021 84.6179 42.1371 84.3778 42.2592 84.0455L42.4467 83.5341L40.0263 76.9545H41.1172L42.924 82.1705H42.9922L44.799 76.9545H45.8899L43.1115 84.4545C42.9865 84.7926 42.8317 85.0724 42.647 85.294C42.4624 85.5185 42.2479 85.6847 42.0036 85.7926C41.7621 85.9006 41.4893 85.9545 41.1854 85.9545ZM50.0639 76.9545V77.8068H46.6719V76.9545H50.0639ZM47.6605 75.3864H48.6662V81.625C48.6662 81.9091 48.7074 82.1222 48.7898 82.2642C48.875 82.4034 48.983 82.4972 49.1136 82.5455C49.2472 82.5909 49.3878 82.6136 49.5355 82.6136C49.6463 82.6136 49.7372 82.608 49.8082 82.5966C49.8793 82.5824 49.9361 82.571 49.9787 82.5625L50.1832 83.4659C50.1151 83.4915 50.0199 83.517 49.8977 83.5426C49.7756 83.571 49.6207 83.5852 49.4332 83.5852C49.1491 83.5852 48.8707 83.5241 48.598 83.402C48.3281 83.2798 48.1037 83.0938 47.9247 82.8438C47.7486 82.5938 47.6605 82.2784 47.6605 81.8977V75.3864ZM52.723 79.5625V83.5H51.7173V74.7727H52.723V77.9773H52.8082C52.9616 77.6392 53.1918 77.3707 53.4986 77.1719C53.8082 76.9702 54.2202 76.8693 54.7344 76.8693C55.1804 76.8693 55.571 76.9588 55.9062 77.1378C56.2415 77.3139 56.5014 77.5852 56.6861 77.9517C56.8736 78.3153 56.9673 78.7784 56.9673 79.3409V83.5H55.9616V79.4091C55.9616 78.8892 55.8267 78.4872 55.5568 78.2031C55.2898 77.9162 54.919 77.7727 54.4446 77.7727C54.1151 77.7727 53.8196 77.8423 53.5582 77.9815C53.2997 78.1207 53.0952 78.3239 52.9446 78.5909C52.7969 78.858 52.723 79.1818 52.723 79.5625ZM61.4663 83.6364C60.8754 83.6364 60.3569 83.4957 59.9109 83.2145C59.4677 82.9332 59.1211 82.5398 58.8711 82.0341C58.6239 81.5284 58.5004 80.9375 58.5004 80.2614C58.5004 79.5795 58.6239 78.9844 58.8711 78.4759C59.1211 77.9673 59.4677 77.5724 59.9109 77.2912C60.3569 77.0099 60.8754 76.8693 61.4663 76.8693C62.0572 76.8693 62.5742 77.0099 63.0174 77.2912C63.4634 77.5724 63.81 77.9673 64.0572 78.4759C64.3072 78.9844 64.4322 79.5795 64.4322 80.2614C64.4322 80.9375 64.3072 81.5284 64.0572 82.0341C63.81 82.5398 63.4634 82.9332 63.0174 83.2145C62.5742 83.4957 62.0572 83.6364 61.4663 83.6364ZM61.4663 82.733C61.9151 82.733 62.2844 82.6179 62.5742 82.3878C62.864 82.1577 63.0785 81.8551 63.2177 81.4801C63.3569 81.1051 63.4265 80.6989 63.4265 80.2614C63.4265 79.8239 63.3569 79.4162 63.2177 79.0384C63.0785 78.6605 62.864 78.3551 62.5742 78.1222C62.2844 77.8892 61.9151 77.7727 61.4663 77.7727C61.0174 77.7727 60.6481 77.8892 60.3583 78.1222C60.0685 78.3551 59.854 78.6605 59.7148 79.0384C59.5756 79.4162 59.506 79.8239 59.506 80.2614C59.506 80.6989 59.5756 81.1051 59.7148 81.4801C59.854 81.8551 60.0685 82.1577 60.3583 82.3878C60.6481 82.6179 61.0174 82.733 61.4663 82.733ZM66.973 79.5625V83.5H65.9673V76.9545H66.9389V77.9773H67.0241C67.1776 77.6449 67.4105 77.3778 67.723 77.1761C68.0355 76.9716 68.4389 76.8693 68.9332 76.8693C69.3764 76.8693 69.7642 76.9602 70.0966 77.142C70.429 77.321 70.6875 77.5938 70.8722 77.9602C71.0568 78.3239 71.1491 78.7841 71.1491 79.3409V83.5H70.1435V79.4091C70.1435 78.8949 70.0099 78.4943 69.7429 78.2074C69.4759 77.9176 69.1094 77.7727 68.6435 77.7727C68.3224 77.7727 68.0355 77.8423 67.7827 77.9815C67.5327 78.1207 67.3352 78.3239 67.1903 78.5909C67.0455 78.858 66.973 79.1818 66.973 79.5625Z" fill="#768395"/>
<rect x="85" y="68" width="64" height="22" rx="11" fill="#388BFD" fill-opacity="0.101961"/>
<path d="M96.0568 83.5V74.7727H101.29V75.7102H97.1136V78.6591H100.898V79.5966H97.1136V83.5H96.0568ZM104.89 83.6534C104.475 83.6534 104.098 83.5753 103.76 83.419C103.422 83.2599 103.154 83.0312 102.955 82.733C102.756 82.4318 102.657 82.0682 102.657 81.642C102.657 81.267 102.73 80.9631 102.878 80.7301C103.026 80.4943 103.223 80.3097 103.471 80.1761C103.718 80.0426 103.99 79.9432 104.289 79.8778C104.59 79.8097 104.892 79.7557 105.196 79.7159C105.594 79.6648 105.917 79.6264 106.164 79.6009C106.414 79.5724 106.596 79.5256 106.709 79.4602C106.826 79.3949 106.884 79.2812 106.884 79.1193V79.0852C106.884 78.6648 106.769 78.3381 106.539 78.1051C106.311 77.8722 105.966 77.7557 105.503 77.7557C105.023 77.7557 104.647 77.8608 104.374 78.071C104.101 78.2812 103.909 78.5057 103.799 78.7443L102.844 78.4034C103.015 78.0057 103.242 77.696 103.526 77.4744C103.813 77.25 104.125 77.0937 104.463 77.0057C104.804 76.9148 105.14 76.8693 105.469 76.8693C105.679 76.8693 105.921 76.8949 106.194 76.946C106.469 76.9943 106.735 77.0952 106.99 77.2486C107.249 77.402 107.463 77.6335 107.634 77.9432C107.804 78.2528 107.89 78.6676 107.89 79.1875V83.5H106.884V82.6136H106.833C106.765 82.7557 106.651 82.9077 106.492 83.0696C106.333 83.2315 106.121 83.3693 105.857 83.483C105.593 83.5966 105.27 83.6534 104.89 83.6534ZM105.043 82.75C105.441 82.75 105.776 82.6719 106.049 82.5156C106.324 82.3594 106.532 82.1577 106.671 81.9105C106.813 81.6634 106.884 81.4034 106.884 81.1307V80.2102C106.841 80.2614 106.748 80.3082 106.603 80.3509C106.461 80.3906 106.296 80.4261 106.108 80.4574C105.924 80.4858 105.743 80.5114 105.567 80.5341C105.394 80.554 105.253 80.571 105.145 80.5852C104.884 80.6193 104.64 80.6747 104.412 80.7514C104.188 80.8253 104.006 80.9375 103.867 81.0881C103.73 81.2358 103.662 81.4375 103.662 81.6932C103.662 82.0426 103.792 82.3068 104.05 82.4858C104.311 82.6619 104.642 82.75 105.043 82.75ZM114.362 78.4205L113.458 78.6761C113.401 78.5256 113.317 78.3793 113.207 78.2372C113.099 78.0923 112.951 77.973 112.763 77.8793C112.576 77.7855 112.336 77.7386 112.043 77.7386C111.643 77.7386 111.309 77.831 111.042 78.0156C110.778 78.1974 110.646 78.429 110.646 78.7102C110.646 78.9602 110.737 79.1577 110.918 79.3026C111.1 79.4474 111.384 79.5682 111.771 79.6648L112.742 79.9034C113.327 80.0455 113.763 80.2628 114.05 80.5554C114.337 80.8452 114.481 81.2187 114.481 81.6761C114.481 82.0511 114.373 82.3864 114.157 82.6818C113.944 82.9773 113.646 83.2102 113.262 83.3807C112.879 83.5511 112.433 83.6364 111.924 83.6364C111.256 83.6364 110.704 83.4915 110.266 83.2017C109.829 82.9119 109.552 82.4886 109.435 81.9318L110.39 81.6932C110.481 82.0455 110.653 82.3097 110.906 82.4858C111.161 82.6619 111.495 82.75 111.907 82.75C112.376 82.75 112.748 82.6506 113.023 82.4517C113.302 82.25 113.441 82.0085 113.441 81.7273C113.441 81.5 113.362 81.3097 113.202 81.1562C113.043 81 112.799 80.8835 112.469 80.8068L111.379 80.5511C110.779 80.4091 110.339 80.1889 110.058 79.8906C109.779 79.5895 109.64 79.2131 109.64 78.7614C109.64 78.392 109.744 78.0653 109.951 77.7812C110.161 77.4972 110.447 77.2741 110.808 77.1122C111.171 76.9503 111.583 76.8693 112.043 76.8693C112.691 76.8693 113.2 77.0114 113.569 77.2955C113.941 77.5795 114.205 77.9545 114.362 78.4205ZM118.841 76.9545V77.8068H115.449V76.9545H118.841ZM116.438 75.3864H117.444V81.625C117.444 81.9091 117.485 82.1222 117.567 82.2642C117.652 82.4034 117.76 82.4972 117.891 82.5455C118.025 82.5909 118.165 82.6136 118.313 82.6136C118.424 82.6136 118.515 82.608 118.586 82.5966C118.657 82.5824 118.713 82.571 118.756 82.5625L118.961 83.4659C118.892 83.4915 118.797 83.517 118.675 83.5426C118.553 83.571 118.398 83.5852 118.211 83.5852C117.926 83.5852 117.648 83.5241 117.375 83.402C117.105 83.2798 116.881 83.0938 116.702 82.8438C116.526 82.5938 116.438 82.2784 116.438 81.8977V75.3864ZM120.848 83.5H119.74L122.945 74.7727H124.036L127.24 83.5H126.132L123.525 76.1534H123.456L120.848 83.5ZM121.257 80.0909H125.723V81.0284H121.257V80.0909ZM128.6 83.5V74.7727H131.549C132.233 74.7727 132.793 74.8963 133.228 75.1435C133.665 75.3878 133.989 75.7188 134.199 76.1364C134.409 76.554 134.515 77.0199 134.515 77.5341C134.515 78.0483 134.409 78.5156 134.199 78.9361C133.992 79.3565 133.671 79.6918 133.236 79.9418C132.801 80.1889 132.245 80.3125 131.566 80.3125H129.452V79.375H131.532C132 79.375 132.377 79.294 132.661 79.1321C132.945 78.9702 133.151 78.7514 133.279 78.4759C133.409 78.1974 133.475 77.8835 133.475 77.5341C133.475 77.1847 133.409 76.8722 133.279 76.5966C133.151 76.321 132.944 76.1051 132.657 75.9489C132.37 75.7898 131.989 75.7102 131.515 75.7102H129.657V83.5H128.6ZM137.274 74.7727V83.5H136.217V74.7727H137.274Z" fill="#4493F8"/>
<rect x="161" y="68" width="85" height="22" rx="11" fill="#388BFD" fill-opacity="0.101961"/>
<path d="M176.83 76.9545C176.778 76.5227 176.571 76.1875 176.207 75.9489C175.844 75.7102 175.398 75.5909 174.869 75.5909C174.483 75.5909 174.145 75.6534 173.855 75.7784C173.568 75.9034 173.344 76.0753 173.182 76.294C173.023 76.5128 172.943 76.7614 172.943 77.0398C172.943 77.2727 172.999 77.473 173.109 77.6406C173.223 77.8054 173.368 77.9432 173.544 78.054C173.72 78.1619 173.905 78.2514 174.098 78.3224C174.291 78.3906 174.469 78.446 174.631 78.4886L175.517 78.7273C175.744 78.7869 175.997 78.8693 176.276 78.9744C176.557 79.0795 176.825 79.223 177.081 79.4048C177.339 79.5838 177.553 79.8139 177.72 80.0952C177.888 80.3764 177.972 80.7216 177.972 81.1307C177.972 81.6023 177.848 82.0284 177.601 82.4091C177.357 82.7898 176.999 83.0923 176.527 83.3168C176.058 83.5412 175.489 83.6534 174.818 83.6534C174.193 83.6534 173.652 83.5526 173.195 83.3509C172.74 83.1491 172.382 82.8679 172.121 82.5071C171.862 82.1463 171.716 81.7273 171.682 81.25H172.773C172.801 81.5795 172.912 81.8523 173.105 82.0682C173.301 82.2812 173.548 82.4403 173.847 82.5455C174.148 82.6477 174.472 82.6989 174.818 82.6989C175.222 82.6989 175.584 82.6335 175.905 82.5028C176.226 82.3693 176.48 82.1847 176.668 81.9489C176.855 81.7102 176.949 81.4318 176.949 81.1136C176.949 80.8239 176.868 80.5881 176.706 80.4062C176.544 80.2244 176.331 80.0767 176.067 79.9631C175.803 79.8494 175.517 79.75 175.21 79.6648L174.136 79.358C173.455 79.1619 172.915 78.8821 172.517 78.5185C172.119 78.1548 171.92 77.679 171.92 77.0909C171.92 76.6023 172.053 76.1761 172.317 75.8125C172.584 75.446 172.942 75.1619 173.391 74.9602C173.842 74.7557 174.347 74.6534 174.903 74.6534C175.466 74.6534 175.966 74.7543 176.403 74.956C176.841 75.1548 177.188 75.4276 177.443 75.7741C177.702 76.1207 177.838 76.5142 177.852 76.9545H176.83ZM182.232 83.6364C181.618 83.6364 181.09 83.4915 180.647 83.2017C180.203 82.9119 179.863 82.5128 179.624 82.0043C179.385 81.4957 179.266 80.9148 179.266 80.2614C179.266 79.5966 179.388 79.0099 179.632 78.5014C179.88 77.9901 180.223 77.5909 180.664 77.304C181.107 77.0142 181.624 76.8693 182.215 76.8693C182.675 76.8693 183.09 76.9545 183.459 77.125C183.828 77.2955 184.131 77.5341 184.367 77.8409C184.603 78.1477 184.749 78.5057 184.806 78.9148H183.8C183.723 78.6165 183.553 78.3523 183.289 78.1222C183.027 77.8892 182.675 77.7727 182.232 77.7727C181.84 77.7727 181.496 77.875 181.201 78.0795C180.908 78.2812 180.679 78.5668 180.515 78.9361C180.353 79.3026 180.272 79.733 180.272 80.2273C180.272 80.733 180.351 81.1733 180.51 81.5483C180.672 81.9233 180.9 82.2145 181.192 82.4219C181.488 82.6293 181.834 82.733 182.232 82.733C182.493 82.733 182.73 82.6875 182.944 82.5966C183.157 82.5057 183.337 82.375 183.485 82.2045C183.632 82.0341 183.738 81.8295 183.8 81.5909H184.806C184.749 81.9773 184.608 82.3253 184.384 82.6349C184.162 82.9418 183.868 83.1861 183.502 83.3679C183.138 83.5469 182.715 83.6364 182.232 83.6364ZM186.276 83.5V76.9545H187.282V83.5H186.276ZM186.787 75.8636C186.591 75.8636 186.422 75.7969 186.28 75.6634C186.141 75.5298 186.071 75.3693 186.071 75.1818C186.071 74.9943 186.141 74.8338 186.28 74.7003C186.422 74.5668 186.591 74.5 186.787 74.5C186.983 74.5 187.151 74.5668 187.29 74.7003C187.432 74.8338 187.503 74.9943 187.503 75.1818C187.503 75.3693 187.432 75.5298 187.29 75.6634C187.151 75.7969 186.983 75.8636 186.787 75.8636ZM190.061 81.1136L190.044 79.8693H190.249L193.112 76.9545H194.357L191.305 80.0398H191.22L190.061 81.1136ZM189.124 83.5V74.7727H190.129V83.5H189.124ZM193.283 83.5L190.726 80.2614L191.442 79.5625L194.561 83.5H193.283ZM195.651 83.5V76.9545H196.657V83.5H195.651ZM196.162 75.8636C195.966 75.8636 195.797 75.7969 195.655 75.6634C195.516 75.5298 195.446 75.3693 195.446 75.1818C195.446 74.9943 195.516 74.8338 195.655 74.7003C195.797 74.5668 195.966 74.5 196.162 74.5C196.358 74.5 196.526 74.5668 196.665 74.7003C196.807 74.8338 196.878 74.9943 196.878 75.1818C196.878 75.3693 196.807 75.5298 196.665 75.6634C196.526 75.7969 196.358 75.8636 196.162 75.8636ZM201.345 76.9545V77.8068H197.953V76.9545H201.345ZM198.942 75.3864H199.947V81.625C199.947 81.9091 199.989 82.1222 200.071 82.2642C200.156 82.4034 200.264 82.4972 200.395 82.5455C200.528 82.5909 200.669 82.6136 200.817 82.6136C200.928 82.6136 201.018 82.608 201.089 82.5966C201.161 82.5824 201.217 82.571 201.26 82.5625L201.464 83.4659C201.396 83.4915 201.301 83.517 201.179 83.5426C201.057 83.571 200.902 83.5852 200.714 83.5852C200.43 83.5852 200.152 83.5241 199.879 83.402C199.609 83.2798 199.385 83.0938 199.206 82.8438C199.03 82.5938 198.942 82.2784 198.942 81.8977V75.3864ZM206.374 79.2898V80.2273H202.555V79.2898H206.374ZM209.149 74.7727V83.5H208.143V74.7727H209.149ZM213.735 83.6364C213.104 83.6364 212.56 83.4972 212.103 83.2188C211.648 82.9375 211.298 82.5455 211.05 82.0426C210.806 81.5369 210.684 80.9489 210.684 80.2784C210.684 79.608 210.806 79.017 211.05 78.5057C211.298 77.9915 211.641 77.5909 212.082 77.304C212.525 77.0142 213.042 76.8693 213.633 76.8693C213.974 76.8693 214.31 76.9261 214.643 77.0398C214.975 77.1534 215.278 77.3381 215.55 77.5938C215.823 77.8466 216.04 78.1818 216.202 78.5994C216.364 79.017 216.445 79.5312 216.445 80.142V80.5682H211.4V79.6989H215.423C215.423 79.3295 215.349 79 215.201 78.7102C215.056 78.4205 214.849 78.1918 214.579 78.0241C214.312 77.8565 213.996 77.7727 213.633 77.7727C213.232 77.7727 212.886 77.8722 212.593 78.071C212.303 78.267 212.08 78.5227 211.924 78.8381C211.768 79.1534 211.69 79.4915 211.69 79.8523V80.4318C211.69 80.9261 211.775 81.3452 211.945 81.6889C212.119 82.0298 212.359 82.2898 212.665 82.4688C212.972 82.6449 213.329 82.733 213.735 82.733C213.999 82.733 214.238 82.696 214.451 82.6222C214.667 82.5455 214.853 82.4318 215.009 82.2812C215.165 82.1278 215.286 81.9375 215.371 81.7102L216.343 81.983C216.241 82.3125 216.069 82.6023 215.827 82.8523C215.586 83.0994 215.288 83.2926 214.933 83.4318C214.577 83.5682 214.178 83.6364 213.735 83.6364ZM219.901 83.6534C219.487 83.6534 219.11 83.5753 218.772 83.419C218.434 83.2599 218.165 83.0312 217.967 82.733C217.768 82.4318 217.668 82.0682 217.668 81.642C217.668 81.267 217.742 80.9631 217.89 80.7301C218.038 80.4943 218.235 80.3097 218.482 80.1761C218.729 80.0426 219.002 79.9432 219.3 79.8778C219.602 79.8097 219.904 79.7557 220.208 79.7159C220.606 79.6648 220.928 79.6264 221.175 79.6009C221.425 79.5724 221.607 79.5256 221.721 79.4602C221.837 79.3949 221.896 79.2812 221.896 79.1193V79.0852C221.896 78.6648 221.781 78.3381 221.55 78.1051C221.323 77.8722 220.978 77.7557 220.515 77.7557C220.035 77.7557 219.658 77.8608 219.386 78.071C219.113 78.2812 218.921 78.5057 218.81 78.7443L217.856 78.4034C218.026 78.0057 218.254 77.696 218.538 77.4744C218.825 77.25 219.137 77.0937 219.475 77.0057C219.816 76.9148 220.151 76.8693 220.481 76.8693C220.691 76.8693 220.933 76.8949 221.205 76.946C221.481 76.9943 221.746 77.0952 222.002 77.2486C222.261 77.402 222.475 77.6335 222.646 77.9432C222.816 78.2528 222.901 78.6676 222.901 79.1875V83.5H221.896V82.6136H221.844C221.776 82.7557 221.663 82.9077 221.504 83.0696C221.344 83.2315 221.133 83.3693 220.869 83.483C220.604 83.5966 220.282 83.6534 219.901 83.6534ZM220.055 82.75C220.452 82.75 220.788 82.6719 221.06 82.5156C221.336 82.3594 221.543 82.1577 221.683 81.9105C221.825 81.6634 221.896 81.4034 221.896 81.1307V80.2102C221.853 80.2614 221.759 80.3082 221.614 80.3509C221.472 80.3906 221.308 80.4261 221.12 80.4574C220.935 80.4858 220.755 80.5114 220.579 80.5341C220.406 80.554 220.265 80.571 220.157 80.5852C219.896 80.6193 219.651 80.6747 219.424 80.7514C219.2 80.8253 219.018 80.9375 218.879 81.0881C218.742 81.2358 218.674 81.4375 218.674 81.6932C218.674 82.0426 218.803 82.3068 219.062 82.4858C219.323 82.6619 219.654 82.75 220.055 82.75ZM224.737 83.5V76.9545H225.708V77.9432H225.777C225.896 77.6193 226.112 77.3565 226.424 77.1548C226.737 76.9531 227.089 76.8523 227.481 76.8523C227.555 76.8523 227.647 76.8537 227.758 76.8565C227.869 76.8594 227.953 76.8636 228.01 76.8693V77.892C227.975 77.8835 227.897 77.8707 227.775 77.8537C227.656 77.8338 227.529 77.8239 227.396 77.8239C227.078 77.8239 226.794 77.8906 226.544 78.0241C226.297 78.1548 226.1 78.3366 225.956 78.5696C225.814 78.7997 225.743 79.0625 225.743 79.358V83.5H224.737ZM230.207 79.5625V83.5H229.202V76.9545H230.173V77.9773H230.259C230.412 77.6449 230.645 77.3778 230.957 77.1761C231.27 76.9716 231.673 76.8693 232.168 76.8693C232.611 76.8693 232.999 76.9602 233.331 77.142C233.663 77.321 233.922 77.5938 234.107 77.9602C234.291 78.3239 234.384 78.7841 234.384 79.3409V83.5H233.378V79.4091C233.378 78.8949 233.244 78.4943 232.977 78.2074C232.71 77.9176 232.344 77.7727 231.878 77.7727C231.557 77.7727 231.27 77.8423 231.017 77.9815C230.767 78.1207 230.57 78.3239 230.425 78.5909C230.28 78.858 230.207 79.1818 230.207 79.5625Z" fill="#4493F8"/>
</svg>
