<svg width="418" height="114" viewBox="0 0 418 114" fill="none" xmlns="http://www.w3.org/2000/svg">
<path d="M0.199951 6C0.199951 2.68629 2.88624 0 6.19995 0H411.4C414.714 0 417.4 2.68629 417.4 6V96C417.4 99.3137 414.714 102 411.4 102H6.19995C2.88624 102 0.199951 99.3137 0.199951 96V6Z" fill="#768395" fill-opacity="0.1"/>
<path d="M13.2042 26V15.8182H15.0487V24.4538H19.533V26H13.2042ZM24.435 26.1491C23.6694 26.1491 23.0082 25.9901 22.4514 25.6719C21.8979 25.3504 21.472 24.8963 21.1737 24.3097C20.8754 23.7197 20.7262 23.0253 20.7262 22.2266C20.7262 21.4411 20.8754 20.7517 21.1737 20.1584C21.4753 19.5618 21.8962 19.0978 22.4365 18.7663C22.9767 18.4316 23.6114 18.2642 24.3406 18.2642C24.8112 18.2642 25.2553 18.3404 25.673 18.4929C26.0939 18.642 26.4651 18.8741 26.7866 19.1889C27.1114 19.5038 27.3666 19.9048 27.5522 20.392C27.7378 20.8759 27.8306 21.4527 27.8306 22.1222V22.674H21.5714V21.4609H26.1055C26.1022 21.1162 26.0276 20.8097 25.8818 20.5412C25.7359 20.2694 25.5321 20.0556 25.2703 19.8999C25.0117 19.7441 24.7101 19.6662 24.3654 19.6662C23.9975 19.6662 23.6744 19.7557 23.396 19.9347C23.1176 20.1103 22.9005 20.3423 22.7447 20.6307C22.5922 20.9157 22.5143 21.2289 22.511 21.5703V22.6293C22.511 23.0734 22.5922 23.4545 22.7546 23.7727C22.917 24.0876 23.1441 24.3295 23.4357 24.4986C23.7274 24.6643 24.0688 24.7472 24.4599 24.7472C24.7217 24.7472 24.9587 24.7107 25.1708 24.6378C25.383 24.5616 25.5669 24.4505 25.7227 24.3047C25.8785 24.1589 25.9961 23.9782 26.0757 23.7628L27.7561 23.9517C27.65 24.3958 27.4478 24.7836 27.1495 25.1151C26.8545 25.4432 26.4767 25.6984 26.016 25.8807C25.5553 26.0597 25.0283 26.1491 24.435 26.1491ZM31.5506 26.1541C31.0667 26.1541 30.6309 26.0679 30.2431 25.8956C29.8586 25.7199 29.5537 25.4614 29.3283 25.12C29.1063 24.7786 28.9952 24.3577 28.9952 23.8572C28.9952 23.4264 29.0748 23.0701 29.2339 22.7884C29.393 22.5066 29.61 22.2812 29.8851 22.1122C30.1602 21.9432 30.4701 21.8156 30.8148 21.7294C31.1628 21.6399 31.5225 21.5753 31.8937 21.5355C32.3411 21.4891 32.704 21.4477 32.9824 21.4112C33.2609 21.3714 33.463 21.3118 33.589 21.2322C33.7182 21.1494 33.7829 21.0218 33.7829 20.8494V20.8196C33.7829 20.4451 33.6718 20.1551 33.4498 19.9496C33.2277 19.7441 32.9079 19.6413 32.4903 19.6413C32.0494 19.6413 31.6998 19.7375 31.4413 19.9297C31.186 20.1219 31.0137 20.349 30.9242 20.6108L29.2438 20.3722C29.3764 19.9081 29.5951 19.5204 29.9001 19.2088C30.205 18.8939 30.5779 18.6586 31.0187 18.5028C31.4595 18.3438 31.9467 18.2642 32.4803 18.2642C32.8482 18.2642 33.2145 18.3073 33.579 18.3935C33.9436 18.4796 34.2767 18.6222 34.5783 18.821C34.8799 19.0166 35.1219 19.2834 35.3042 19.6214C35.4898 19.9595 35.5826 20.3821 35.5826 20.8892V26H33.8525V24.951H33.7928C33.6834 25.1631 33.5293 25.362 33.3305 25.5476C33.1349 25.7299 32.888 25.8774 32.5897 25.9901C32.2947 26.0994 31.9484 26.1541 31.5506 26.1541ZM32.018 24.8317C32.3792 24.8317 32.6924 24.7604 32.9576 24.6179C33.2227 24.4721 33.4266 24.2798 33.5691 24.0412C33.7149 23.8026 33.7878 23.5424 33.7878 23.2607V22.3608C33.7315 22.4072 33.6354 22.4503 33.4995 22.4901C33.3669 22.5298 33.2178 22.5646 33.052 22.5945C32.8863 22.6243 32.7223 22.6508 32.5599 22.674C32.3975 22.6972 32.2566 22.7171 32.1373 22.7337C31.8688 22.7701 31.6285 22.8298 31.4164 22.9126C31.2043 22.9955 31.0369 23.1115 30.9143 23.2607C30.7916 23.4065 30.7303 23.5954 30.7303 23.8274C30.7303 24.1589 30.8513 24.4091 31.0932 24.5781C31.3352 24.7472 31.6434 24.8317 32.018 24.8317ZM37.3922 26V18.3636H39.1373V19.6364H39.2168C39.356 19.1955 39.5947 18.8558 39.9327 18.6172C40.2741 18.3752 40.6636 18.2543 41.1011 18.2543C41.2005 18.2543 41.3115 18.2592 41.4341 18.2692C41.5601 18.2758 41.6645 18.2874 41.7474 18.304V19.9595C41.6711 19.933 41.5502 19.9098 41.3844 19.8899C41.222 19.8667 41.0646 19.8551 40.9121 19.8551C40.584 19.8551 40.289 19.9264 40.0272 20.0689C39.7687 20.2081 39.5648 20.402 39.4157 20.6506C39.2665 20.8991 39.192 21.1858 39.192 21.5107V26H37.3922ZM44.7427 21.5256V26H42.943V18.3636H44.6632V19.6612H44.7527C44.9283 19.2337 45.2084 18.8939 45.5929 18.642C45.9807 18.3902 46.4596 18.2642 47.0297 18.2642C47.5567 18.2642 48.0157 18.3769 48.4068 18.6023C48.8012 18.8277 49.1061 19.1541 49.3216 19.5817C49.5403 20.0092 49.648 20.5279 49.6447 21.1378V26H47.845V21.4162C47.845 20.9058 47.7124 20.5064 47.4473 20.218C47.1855 19.9297 46.8225 19.7855 46.3585 19.7855C46.0436 19.7855 45.7636 19.8551 45.5183 19.9943C45.2764 20.1302 45.0858 20.3274 44.9466 20.5859C44.8107 20.8445 44.7427 21.1577 44.7427 21.5256ZM51.4743 26V18.3636H53.274V26H51.4743ZM52.3791 17.2798C52.0941 17.2798 51.8488 17.1854 51.6433 16.9964C51.4378 16.8042 51.3351 16.5739 51.3351 16.3054C51.3351 16.0336 51.4378 15.8033 51.6433 15.6143C51.8488 15.4221 52.0941 15.326 52.3791 15.326C52.6675 15.326 52.9127 15.4221 53.1149 15.6143C53.3204 15.8033 53.4231 16.0336 53.4231 16.3054C53.4231 16.5739 53.3204 16.8042 53.1149 16.9964C52.9127 17.1854 52.6675 17.2798 52.3791 17.2798ZM56.9244 21.5256V26H55.1247V18.3636H56.8448V19.6612H56.9343C57.11 19.2337 57.3901 18.8939 57.7745 18.642C58.1623 18.3902 58.6412 18.2642 59.2113 18.2642C59.7383 18.2642 60.1973 18.3769 60.5884 18.6023C60.9829 18.8277 61.2878 19.1541 61.5032 19.5817C61.722 20.0092 61.8297 20.5279 61.8264 21.1378V26H60.0267V21.4162C60.0267 20.9058 59.8941 20.5064 59.6289 20.218C59.3671 19.9297 59.0042 19.7855 58.5402 19.7855C58.2253 19.7855 57.9452 19.8551 57.7 19.9943C57.458 20.1302 57.2674 20.3274 57.1282 20.5859C56.9923 20.8445 56.9244 21.1577 56.9244 21.5256ZM66.9769 29.0227C66.3306 29.0227 65.7755 28.9349 65.3115 28.7592C64.8474 28.5869 64.4746 28.3549 64.1928 28.0632C63.9111 27.7715 63.7156 27.4484 63.6062 27.0938L65.2269 26.701C65.2999 26.8501 65.4059 26.9976 65.5451 27.1435C65.6843 27.2926 65.8716 27.4152 66.1069 27.5114C66.3455 27.6108 66.6455 27.6605 67.0068 27.6605C67.5172 27.6605 67.9398 27.5362 68.2745 27.2876C68.6093 27.0424 68.7767 26.638 68.7767 26.0746V24.6278H68.6872C68.5944 24.8134 68.4585 25.004 68.2795 25.1996C68.1038 25.3951 67.8702 25.5592 67.5785 25.6918C67.2902 25.8243 66.9272 25.8906 66.4897 25.8906C65.9031 25.8906 65.3711 25.7531 64.8938 25.478C64.4199 25.1996 64.042 24.7853 63.7603 24.2351C63.4819 23.6816 63.3427 22.9889 63.3427 22.157C63.3427 21.3184 63.4819 20.6108 63.7603 20.0341C64.042 19.4541 64.4215 19.0149 64.8988 18.7166C65.3761 18.415 65.908 18.2642 66.4947 18.2642C66.9421 18.2642 67.31 18.3404 67.5984 18.4929C67.8901 18.642 68.1221 18.8227 68.2944 19.0348C68.4668 19.2436 68.5977 19.4408 68.6872 19.6264H68.7866V18.3636H70.5615V26.1243C70.5615 26.7772 70.4057 27.3175 70.0941 27.745C69.7826 28.1726 69.3567 28.4924 68.8164 28.7045C68.2762 28.9167 67.663 29.0227 66.9769 29.0227ZM66.9919 24.4787C67.373 24.4787 67.6978 24.3859 67.9663 24.2003C68.2348 24.0147 68.4386 23.7479 68.5778 23.3999C68.717 23.0518 68.7866 22.6342 68.7866 22.147C68.7866 21.6664 68.717 21.2455 68.5778 20.8842C68.4419 20.523 68.2397 20.2429 67.9713 20.044C67.7061 19.8419 67.3796 19.7408 66.9919 19.7408C66.5908 19.7408 66.2561 19.8452 65.9876 20.054C65.7191 20.2628 65.5169 20.5495 65.3811 20.9141C65.2452 21.2753 65.1772 21.6863 65.1772 22.147C65.1772 22.6143 65.2452 23.0237 65.3811 23.375C65.5203 23.723 65.7241 23.9948 65.9926 24.1903C66.2643 24.3826 66.5974 24.4787 66.9919 24.4787ZM84.6733 19.2536H82.8139C82.7609 18.9486 82.6631 18.6785 82.5206 18.4432C82.3781 18.2045 82.2008 18.0024 81.9887 17.8366C81.7765 17.6709 81.5346 17.5466 81.2628 17.4638C80.9943 17.3776 80.7043 17.3345 80.3928 17.3345C79.8393 17.3345 79.3487 17.4737 78.9212 17.7521C78.4936 18.0272 78.1589 18.4316 77.9169 18.9652C77.675 19.4955 77.554 20.1435 77.554 20.9091C77.554 21.688 77.675 22.3442 77.9169 22.8778C78.1622 23.4081 78.4969 23.8092 78.9212 24.081C79.3487 24.3494 79.8376 24.4837 80.3878 24.4837C80.6927 24.4837 80.9778 24.4439 81.2429 24.3643C81.5114 24.2815 81.7517 24.1605 81.9638 24.0014C82.1792 23.8423 82.3599 23.6468 82.5057 23.4148C82.6549 23.1828 82.7576 22.9176 82.8139 22.6193L84.6733 22.6293C84.6037 23.1132 84.4529 23.5672 84.2209 23.9915C83.9922 24.4157 83.6923 24.7902 83.321 25.1151C82.9498 25.4366 82.5156 25.6884 82.0185 25.8707C81.5213 26.0497 80.9695 26.1392 80.3629 26.1392C79.4681 26.1392 78.6693 25.9321 77.9666 25.5178C77.264 25.1035 76.7105 24.5052 76.3061 23.723C75.9018 22.9408 75.6996 22.0028 75.6996 20.9091C75.6996 19.812 75.9034 18.8741 76.3111 18.0952C76.7188 17.313 77.2739 16.7147 77.9766 16.3004C78.6792 15.8861 79.4747 15.679 80.3629 15.679C80.9297 15.679 81.4567 15.7585 81.9439 15.9176C82.4311 16.0767 82.8653 16.3104 83.2465 16.6186C83.6276 16.9235 83.9408 17.2981 84.1861 17.7422C84.4347 18.183 84.5971 18.6868 84.6733 19.2536ZM89.6138 26.1491C88.8681 26.1491 88.2218 25.9851 87.6749 25.657C87.128 25.3288 86.7038 24.8698 86.4022 24.2798C86.1039 23.6899 85.9547 23.0005 85.9547 22.2116C85.9547 21.4228 86.1039 20.7318 86.4022 20.1385C86.7038 19.5452 87.128 19.0845 87.6749 18.7564C88.2218 18.4283 88.8681 18.2642 89.6138 18.2642C90.3596 18.2642 91.0059 18.4283 91.5528 18.7564C92.0996 19.0845 92.5222 19.5452 92.8205 20.1385C93.1221 20.7318 93.2729 21.4228 93.2729 22.2116C93.2729 23.0005 93.1221 23.6899 92.8205 24.2798C92.5222 24.8698 92.0996 25.3288 91.5528 25.657C91.0059 25.9851 90.3596 26.1491 89.6138 26.1491ZM89.6238 24.7074C90.0281 24.7074 90.3662 24.5964 90.638 24.3743C90.9098 24.1489 91.1119 23.8473 91.2445 23.4695C91.3804 23.0916 91.4484 22.6707 91.4484 22.2067C91.4484 21.7393 91.3804 21.3168 91.2445 20.9389C91.1119 20.5578 90.9098 20.2545 90.638 20.0291C90.3662 19.8037 90.0281 19.6911 89.6238 19.6911C89.2095 19.6911 88.8648 19.8037 88.5897 20.0291C88.3179 20.2545 88.1141 20.5578 87.9782 20.9389C87.8456 21.3168 87.7793 21.7393 87.7793 22.2067C87.7793 22.6707 87.8456 23.0916 87.9782 23.4695C88.1141 23.8473 88.3179 24.1489 88.5897 24.3743C88.8648 24.5964 89.2095 24.7074 89.6238 24.7074ZM94.8004 26V18.3636H96.5206V19.6612H96.6101C96.7692 19.2237 97.0327 18.8823 97.4006 18.6371C97.7685 18.3885 98.2076 18.2642 98.7181 18.2642C99.2351 18.2642 99.671 18.3902 100.026 18.642C100.384 18.8906 100.635 19.2304 100.781 19.6612H100.861C101.03 19.237 101.315 18.8989 101.716 18.647C102.12 18.3918 102.599 18.2642 103.153 18.2642C103.855 18.2642 104.429 18.4863 104.873 18.9304C105.317 19.3745 105.539 20.0225 105.539 20.8743V26H103.734V21.1527C103.734 20.6787 103.608 20.3324 103.357 20.1136C103.105 19.8916 102.796 19.7805 102.432 19.7805C101.998 19.7805 101.658 19.9164 101.413 20.1882C101.171 20.4567 101.05 20.8063 101.05 21.2372V26H99.2848V21.0781C99.2848 20.6837 99.1655 20.3688 98.9269 20.1335C98.6915 19.8982 98.3833 19.7805 98.0022 19.7805C97.7436 19.7805 97.5083 19.8468 97.2962 19.9794C97.0841 20.1087 96.915 20.2926 96.7891 20.5312C96.6631 20.7666 96.6002 21.0417 96.6002 21.3565V26H94.8004ZM107.365 28.8636V18.3636H109.135V19.6264H109.239C109.332 19.4408 109.463 19.2436 109.632 19.0348C109.801 18.8227 110.03 18.642 110.318 18.4929C110.606 18.3404 110.974 18.2642 111.422 18.2642C112.012 18.2642 112.544 18.415 113.018 18.7166C113.495 19.0149 113.873 19.4574 114.151 20.044C114.433 20.6274 114.574 21.3433 114.574 22.1918C114.574 23.0303 114.436 23.7429 114.161 24.3295C113.886 24.9162 113.511 25.3636 113.037 25.6719C112.564 25.9801 112.027 26.1342 111.427 26.1342C110.989 26.1342 110.626 26.0613 110.338 25.9155C110.05 25.7696 109.818 25.594 109.642 25.3885C109.47 25.1797 109.335 24.9825 109.239 24.7969H109.165V28.8636H107.365ZM109.13 22.1818C109.13 22.6757 109.199 23.1082 109.339 23.4794C109.481 23.8506 109.685 24.1406 109.95 24.3494C110.219 24.5549 110.543 24.6577 110.925 24.6577C111.322 24.6577 111.655 24.5516 111.924 24.3395C112.192 24.1241 112.394 23.8307 112.53 23.4595C112.67 23.085 112.739 22.6591 112.739 22.1818C112.739 21.7079 112.671 21.2869 112.535 20.919C112.399 20.5511 112.197 20.2628 111.929 20.054C111.66 19.8452 111.326 19.7408 110.925 19.7408C110.54 19.7408 110.214 19.8419 109.945 20.044C109.677 20.2462 109.473 20.5296 109.334 20.8942C109.198 21.2588 109.13 21.688 109.13 22.1818ZM120.982 22.7884V18.3636H122.782V26H121.037V24.6428H120.957C120.785 25.0703 120.502 25.42 120.107 25.6918C119.716 25.9635 119.234 26.0994 118.66 26.0994C118.16 26.0994 117.717 25.9884 117.333 25.7663C116.952 25.541 116.653 25.2145 116.438 24.7869C116.223 24.3561 116.115 23.8357 116.115 23.2259V18.3636H117.915V22.9474C117.915 23.4313 118.047 23.8158 118.312 24.1009C118.577 24.3859 118.926 24.5284 119.356 24.5284C119.622 24.5284 119.878 24.4638 120.127 24.3345C120.376 24.2053 120.579 24.013 120.738 23.7578C120.901 23.4993 120.982 23.1761 120.982 22.7884ZM128.446 18.3636V19.7557H124.056V18.3636H128.446ZM125.14 16.5341H126.939V23.7031C126.939 23.9451 126.976 24.1307 127.049 24.2599C127.125 24.3859 127.224 24.4721 127.347 24.5185C127.47 24.5649 127.605 24.5881 127.755 24.5881C127.867 24.5881 127.97 24.5798 128.063 24.5632C128.159 24.5466 128.232 24.5317 128.282 24.5185L128.585 25.9254C128.489 25.9586 128.351 25.995 128.172 26.0348C127.997 26.0746 127.781 26.0978 127.526 26.1044C127.075 26.1177 126.669 26.0497 126.308 25.9006C125.947 25.7481 125.66 25.5128 125.448 25.1946C125.239 24.8764 125.136 24.4787 125.14 24.0014V16.5341ZM133.249 26.1491C132.484 26.1491 131.823 25.9901 131.266 25.6719C130.712 25.3504 130.286 24.8963 129.988 24.3097C129.69 23.7197 129.541 23.0253 129.541 22.2266C129.541 21.4411 129.69 20.7517 129.988 20.1584C130.29 19.5618 130.711 19.0978 131.251 18.7663C131.791 18.4316 132.426 18.2642 133.155 18.2642C133.626 18.2642 134.07 18.3404 134.487 18.4929C134.908 18.642 135.28 18.8741 135.601 19.1889C135.926 19.5038 136.181 19.9048 136.367 20.392C136.552 20.8759 136.645 21.4527 136.645 22.1222V22.674H130.386V21.4609H134.92C134.917 21.1162 134.842 20.8097 134.696 20.5412C134.55 20.2694 134.347 20.0556 134.085 19.8999C133.826 19.7441 133.525 19.6662 133.18 19.6662C132.812 19.6662 132.489 19.7557 132.21 19.9347C131.932 20.1103 131.715 20.3423 131.559 20.6307C131.407 20.9157 131.329 21.2289 131.325 21.5703V22.6293C131.325 23.0734 131.407 23.4545 131.569 23.7727C131.731 24.0876 131.959 24.3295 132.25 24.4986C132.542 24.6643 132.883 24.7472 133.274 24.7472C133.536 24.7472 133.773 24.7107 133.985 24.6378C134.197 24.5616 134.381 24.4505 134.537 24.3047C134.693 24.1589 134.811 23.9782 134.89 23.7628L136.571 23.9517C136.464 24.3958 136.262 24.7836 135.964 25.1151C135.669 25.4432 135.291 25.6984 134.83 25.8807C134.37 26.0597 133.843 26.1491 133.249 26.1491ZM138.168 26V18.3636H139.913V19.6364H139.992C140.131 19.1955 140.37 18.8558 140.708 18.6172C141.05 18.3752 141.439 18.2543 141.876 18.2543C141.976 18.2543 142.087 18.2592 142.21 18.2692C142.335 18.2758 142.44 18.2874 142.523 18.304V19.9595C142.447 19.933 142.326 19.9098 142.16 19.8899C141.997 19.8667 141.84 19.8551 141.688 19.8551C141.359 19.8551 141.064 19.9264 140.803 20.0689C140.544 20.2081 140.34 20.402 140.191 20.6506C140.042 20.8991 139.967 21.1858 139.967 21.5107V26H138.168ZM154.092 19.0696C154.009 18.8011 153.894 18.5608 153.749 18.3487C153.606 18.1333 153.434 17.9493 153.232 17.7969C153.033 17.6444 152.804 17.5301 152.545 17.4538C152.287 17.3743 152.005 17.3345 151.7 17.3345C151.153 17.3345 150.666 17.4721 150.239 17.7472C149.811 18.0223 149.475 18.4266 149.229 18.9602C148.987 19.4905 148.866 20.1368 148.866 20.8991C148.866 21.6681 148.987 22.3194 149.229 22.853C149.471 23.3866 149.808 23.7926 150.239 24.071C150.67 24.3461 151.17 24.4837 151.74 24.4837C152.257 24.4837 152.705 24.3842 153.082 24.1854C153.464 23.9865 153.757 23.7048 153.962 23.3402C154.168 22.9723 154.271 22.5414 154.271 22.0476L154.688 22.1122H151.924V20.6705H156.055V21.8935C156.055 22.7652 155.87 23.5192 155.499 24.1555C155.127 24.7919 154.617 25.2824 153.967 25.6271C153.318 25.9685 152.572 26.1392 151.73 26.1392C150.792 26.1392 149.969 25.9287 149.259 25.5078C148.553 25.0836 148.001 24.482 147.604 23.7031C147.209 22.9209 147.012 21.9929 147.012 20.919C147.012 20.0971 147.128 19.3629 147.36 18.7166C147.595 18.0703 147.924 17.5218 148.344 17.071C148.765 16.617 149.259 16.2723 149.826 16.0369C150.393 15.7983 151.009 15.679 151.675 15.679C152.239 15.679 152.764 15.7618 153.251 15.9276C153.739 16.09 154.171 16.322 154.549 16.6236C154.93 16.9252 155.243 17.2831 155.489 17.6974C155.734 18.1117 155.895 18.5691 155.971 19.0696H154.092ZM157.759 26V18.3636H159.504V19.6364H159.584C159.723 19.1955 159.962 18.8558 160.3 18.6172C160.641 18.3752 161.031 18.2543 161.468 18.2543C161.568 18.2543 161.679 18.2592 161.801 18.2692C161.927 18.2758 162.032 18.2874 162.115 18.304V19.9595C162.038 19.933 161.917 19.9098 161.752 19.8899C161.589 19.8667 161.432 19.8551 161.279 19.8551C160.951 19.8551 160.656 19.9264 160.394 20.0689C160.136 20.2081 159.932 20.402 159.783 20.6506C159.634 20.8991 159.559 21.1858 159.559 21.5107V26H157.759ZM165.371 26.1541C164.887 26.1541 164.451 26.0679 164.063 25.8956C163.679 25.7199 163.374 25.4614 163.149 25.12C162.927 24.7786 162.816 24.3577 162.816 23.8572C162.816 23.4264 162.895 23.0701 163.054 22.7884C163.213 22.5066 163.43 22.2812 163.705 22.1122C163.981 21.9432 164.29 21.8156 164.635 21.7294C164.983 21.6399 165.343 21.5753 165.714 21.5355C166.161 21.4891 166.524 21.4477 166.803 21.4112C167.081 21.3714 167.283 21.3118 167.409 21.2322C167.539 21.1494 167.603 21.0218 167.603 20.8494V20.8196C167.603 20.4451 167.492 20.1551 167.27 19.9496C167.048 19.7441 166.728 19.6413 166.311 19.6413C165.87 19.6413 165.52 19.7375 165.262 19.9297C165.006 20.1219 164.834 20.349 164.745 20.6108L163.064 20.3722C163.197 19.9081 163.415 19.5204 163.72 19.2088C164.025 18.8939 164.398 18.6586 164.839 18.5028C165.28 18.3438 165.767 18.2642 166.301 18.2642C166.669 18.2642 167.035 18.3073 167.399 18.3935C167.764 18.4796 168.097 18.6222 168.399 18.821C168.7 19.0166 168.942 19.2834 169.124 19.6214C169.31 19.9595 169.403 20.3821 169.403 20.8892V26H167.673V24.951H167.613C167.504 25.1631 167.35 25.362 167.151 25.5476C166.955 25.7299 166.708 25.8774 166.41 25.9901C166.115 26.0994 165.769 26.1541 165.371 26.1541ZM165.838 24.8317C166.2 24.8317 166.513 24.7604 166.778 24.6179C167.043 24.4721 167.247 24.2798 167.389 24.0412C167.535 23.8026 167.608 23.5424 167.608 23.2607V22.3608C167.552 22.4072 167.456 22.4503 167.32 22.4901C167.187 22.5298 167.038 22.5646 166.872 22.5945C166.707 22.6243 166.543 22.6508 166.38 22.674C166.218 22.6972 166.077 22.7171 165.958 22.7337C165.689 22.7701 165.449 22.8298 165.237 22.9126C165.025 22.9955 164.857 23.1115 164.735 23.2607C164.612 23.4065 164.551 23.5954 164.551 23.8274C164.551 24.1589 164.672 24.4091 164.914 24.5781C165.156 24.7472 165.464 24.8317 165.838 24.8317ZM171.213 28.8636V18.3636H172.982V19.6264H173.087C173.18 19.4408 173.311 19.2436 173.48 19.0348C173.649 18.8227 173.877 18.642 174.166 18.4929C174.454 18.3404 174.822 18.2642 175.269 18.2642C175.859 18.2642 176.391 18.415 176.865 18.7166C177.343 19.0149 177.72 19.4574 177.999 20.044C178.281 20.6274 178.421 21.3433 178.421 22.1918C178.421 23.0303 178.284 23.7429 178.009 24.3295C177.734 24.9162 177.359 25.3636 176.885 25.6719C176.411 25.9801 175.874 26.1342 175.274 26.1342C174.837 26.1342 174.474 26.0613 174.186 25.9155C173.897 25.7696 173.665 25.594 173.49 25.3885C173.317 25.1797 173.183 24.9825 173.087 24.7969H173.012V28.8636H171.213ZM172.977 22.1818C172.977 22.6757 173.047 23.1082 173.186 23.4794C173.329 23.8506 173.533 24.1406 173.798 24.3494C174.066 24.5549 174.391 24.6577 174.772 24.6577C175.17 24.6577 175.503 24.5516 175.772 24.3395C176.04 24.1241 176.242 23.8307 176.378 23.4595C176.517 23.085 176.587 22.6591 176.587 22.1818C176.587 21.7079 176.519 21.2869 176.383 20.919C176.247 20.5511 176.045 20.2628 175.776 20.054C175.508 19.8452 175.173 19.7408 174.772 19.7408C174.388 19.7408 174.061 19.8419 173.793 20.044C173.524 20.2462 173.321 20.5296 173.181 20.8942C173.045 21.2588 172.977 21.688 172.977 22.1818ZM181.762 21.5256V26H179.963V15.8182H181.723V19.6612H181.812C181.991 19.2304 182.268 18.8906 182.642 18.642C183.02 18.3902 183.501 18.2642 184.084 18.2642C184.614 18.2642 185.077 18.3752 185.471 18.5973C185.865 18.8194 186.17 19.1442 186.386 19.5717C186.605 19.9993 186.714 20.5213 186.714 21.1378V26H184.914V21.4162C184.914 20.9025 184.782 20.5031 184.517 20.218C184.255 19.9297 183.887 19.7855 183.413 19.7855C183.095 19.7855 182.81 19.8551 182.558 19.9943C182.309 20.1302 182.114 20.3274 181.971 20.5859C181.832 20.8445 181.762 21.1577 181.762 21.5256ZM188.548 26V18.3636H190.348V26H188.548ZM189.453 17.2798C189.168 17.2798 188.923 17.1854 188.718 16.9964C188.512 16.8042 188.409 16.5739 188.409 16.3054C188.409 16.0336 188.512 15.8033 188.718 15.6143C188.923 15.4221 189.168 15.326 189.453 15.326C189.742 15.326 189.987 15.4221 190.189 15.6143C190.395 15.8033 190.497 16.0336 190.497 16.3054C190.497 16.5739 190.395 16.8042 190.189 16.9964C189.987 17.1854 189.742 17.2798 189.453 17.2798ZM195.53 26.1491C194.768 26.1491 194.113 25.9818 193.566 25.647C193.023 25.3123 192.603 24.8499 192.308 24.2599C192.017 23.6667 191.871 22.9839 191.871 22.2116C191.871 21.4361 192.02 20.7517 192.318 20.1584C192.616 19.5618 193.037 19.0978 193.581 18.7663C194.128 18.4316 194.774 18.2642 195.52 18.2642C196.14 18.2642 196.688 18.3786 197.166 18.6072C197.646 18.8326 198.029 19.1525 198.314 19.5668C198.599 19.9777 198.761 20.4583 198.801 21.0085H197.081C197.011 20.6406 196.846 20.334 196.584 20.0888C196.325 19.8402 195.979 19.7159 195.545 19.7159C195.177 19.7159 194.854 19.8153 194.575 20.0142C194.297 20.2098 194.08 20.4915 193.924 20.8594C193.772 21.2273 193.695 21.6681 193.695 22.1818C193.695 22.7022 193.772 23.1496 193.924 23.5241C194.076 23.8954 194.29 24.1821 194.565 24.3842C194.844 24.5831 195.17 24.6825 195.545 24.6825C195.81 24.6825 196.047 24.6328 196.256 24.5334C196.468 24.4306 196.645 24.2831 196.788 24.0909C196.93 23.8987 197.028 23.665 197.081 23.3899H198.801C198.758 23.9302 198.599 24.4091 198.324 24.8267C198.049 25.241 197.674 25.5658 197.2 25.8011C196.726 26.0331 196.17 26.1491 195.53 26.1491ZM206.314 20.3821L204.674 20.5611C204.627 20.3954 204.546 20.2396 204.43 20.0938C204.318 19.9479 204.165 19.8303 203.973 19.7408C203.781 19.6513 203.545 19.6065 203.267 19.6065C202.892 19.6065 202.577 19.6877 202.322 19.8501C202.07 20.0125 201.946 20.223 201.949 20.4815C201.946 20.7036 202.027 20.8842 202.193 21.0234C202.362 21.1626 202.64 21.277 203.028 21.3665L204.331 21.6449C205.053 21.8007 205.59 22.0476 205.942 22.3857C206.296 22.7237 206.475 23.1662 206.479 23.7131C206.475 24.1937 206.334 24.6179 206.056 24.9858C205.781 25.3504 205.398 25.6354 204.908 25.8409C204.417 26.0464 203.854 26.1491 203.217 26.1491C202.283 26.1491 201.53 25.9536 200.96 25.5625C200.39 25.1681 200.05 24.6196 199.941 23.9169L201.696 23.7479C201.775 24.0926 201.944 24.3527 202.203 24.5284C202.461 24.7041 202.798 24.7919 203.212 24.7919C203.64 24.7919 203.983 24.7041 204.241 24.5284C204.503 24.3527 204.634 24.1357 204.634 23.8771C204.634 23.6584 204.55 23.4777 204.381 23.3352C204.215 23.1927 203.956 23.0833 203.605 23.0071L202.302 22.7337C201.57 22.5812 201.028 22.3243 200.677 21.9631C200.325 21.5985 200.151 21.1378 200.155 20.581C200.151 20.1103 200.279 19.7027 200.537 19.358C200.799 19.0099 201.162 18.7415 201.626 18.5526C202.094 18.3603 202.632 18.2642 203.242 18.2642C204.137 18.2642 204.841 18.4548 205.355 18.8359C205.872 19.2171 206.192 19.7325 206.314 20.3821Z" fill="#4493F8"/>
<path d="M18.984 44.2727H20.0409V50.0511C20.0409 50.6477 19.9002 51.1804 19.619 51.6491C19.3406 52.1151 18.9471 52.483 18.4386 52.7528C17.9301 53.0199 17.3335 53.1534 16.6488 53.1534C15.9642 53.1534 15.3676 53.0199 14.859 52.7528C14.3505 52.483 13.9556 52.1151 13.6744 51.6491C13.396 51.1804 13.2568 50.6477 13.2568 50.0511V44.2727H14.3136V49.9659C14.3136 50.392 14.4073 50.7713 14.5948 51.1037C14.7823 51.4332 15.0494 51.6932 15.396 51.8835C15.7454 52.071 16.163 52.1648 16.6488 52.1648C17.1346 52.1648 17.5522 52.071 17.9017 51.8835C18.2511 51.6932 18.5181 51.4332 18.7028 51.1037C18.8903 50.7713 18.984 50.392 18.984 49.9659V44.2727ZM23.0206 49.0625V53H22.0149V46.4545H22.9865V47.4773H23.0718C23.2252 47.1449 23.4581 46.8778 23.7706 46.6761C24.0831 46.4716 24.4865 46.3693 24.9808 46.3693C25.424 46.3693 25.8118 46.4602 26.1442 46.642C26.4766 46.821 26.7351 47.0938 26.9198 47.4602C27.1044 47.8239 27.1968 48.2841 27.1968 48.8409V53H26.1911V48.9091C26.1911 48.3949 26.0576 47.9943 25.7905 47.7074C25.5235 47.4176 25.157 47.2727 24.6911 47.2727C24.3701 47.2727 24.0831 47.3423 23.8303 47.4815C23.5803 47.6207 23.3828 47.8239 23.2379 48.0909C23.0931 48.358 23.0206 48.6818 23.0206 49.0625ZM31.5061 53.1364C30.9606 53.1364 30.4791 52.9986 30.0615 52.723C29.6438 52.4446 29.3171 52.0526 29.0813 51.5469C28.8455 51.0384 28.7277 50.4375 28.7277 49.7443C28.7277 49.0568 28.8455 48.4602 29.0813 47.9545C29.3171 47.4489 29.6453 47.0582 30.0657 46.7827C30.4862 46.5071 30.972 46.3693 31.5231 46.3693C31.9492 46.3693 32.2859 46.4403 32.533 46.5824C32.783 46.7216 32.9734 46.8807 33.1041 47.0597C33.2376 47.2358 33.3413 47.3807 33.4152 47.4943H33.5004V44.2727H34.5061V53H33.5345V51.9943H33.4152C33.3413 52.1136 33.2362 52.2642 33.0998 52.446C32.9634 52.625 32.7688 52.7855 32.516 52.9276C32.2632 53.0668 31.9265 53.1364 31.5061 53.1364ZM31.6424 52.233C32.0458 52.233 32.3867 52.1278 32.6652 51.9176C32.9436 51.7045 33.1552 51.4105 33.3001 51.0355C33.445 50.6577 33.5174 50.2216 33.5174 49.7273C33.5174 49.2386 33.4464 48.8111 33.3044 48.4446C33.1623 48.0753 32.9521 47.7884 32.6737 47.5838C32.3953 47.3764 32.0515 47.2727 31.6424 47.2727C31.2163 47.2727 30.8612 47.3821 30.5771 47.6009C30.2958 47.8168 30.0842 48.1108 29.9421 48.483C29.8029 48.8523 29.7333 49.267 29.7333 49.7273C29.7333 50.1932 29.8044 50.6165 29.9464 50.9972C30.0913 51.375 30.3044 51.6761 30.5856 51.9006C30.8697 52.1222 31.222 52.233 31.6424 52.233ZM39.2319 53.1364C38.6012 53.1364 38.0572 52.9972 37.5998 52.7188C37.1453 52.4375 36.7944 52.0455 36.5473 51.5426C36.3029 51.0369 36.1808 50.4489 36.1808 49.7784C36.1808 49.108 36.3029 48.517 36.5473 48.0057C36.7944 47.4915 37.1382 47.0909 37.5785 46.804C38.0217 46.5142 38.5387 46.3693 39.1296 46.3693C39.4705 46.3693 39.8072 46.4261 40.1396 46.5398C40.472 46.6534 40.7745 46.8381 41.0473 47.0938C41.32 47.3466 41.5373 47.6818 41.6992 48.0994C41.8612 48.517 41.9421 49.0312 41.9421 49.642V50.0682H36.8967V49.1989H40.9194C40.9194 48.8295 40.8455 48.5 40.6978 48.2102C40.5529 47.9205 40.3455 47.6918 40.0757 47.5241C39.8086 47.3565 39.4933 47.2727 39.1296 47.2727C38.7291 47.2727 38.3825 47.3722 38.0899 47.571C37.8001 47.767 37.5771 48.0227 37.4208 48.3381C37.2646 48.6534 37.1865 48.9915 37.1865 49.3523V49.9318C37.1865 50.4261 37.2717 50.8452 37.4421 51.1889C37.6154 51.5298 37.8555 51.7898 38.1623 51.9688C38.4691 52.1449 38.8257 52.233 39.2319 52.233C39.4961 52.233 39.7348 52.196 39.9478 52.1222C40.1637 52.0455 40.3498 51.9318 40.5061 51.7812C40.6623 51.6278 40.783 51.4375 40.8683 51.2102L41.8399 51.483C41.7376 51.8125 41.5657 52.1023 41.3242 52.3523C41.0828 52.5994 40.7845 52.7926 40.4294 52.9318C40.0742 53.0682 39.6751 53.1364 39.2319 53.1364ZM43.472 53V46.4545H44.4436V47.4432H44.5117C44.6311 47.1193 44.847 46.8565 45.1595 46.6548C45.472 46.4531 45.8242 46.3523 46.2163 46.3523C46.2902 46.3523 46.3825 46.3537 46.4933 46.3565C46.6041 46.3594 46.6879 46.3636 46.7447 46.3693V47.392C46.7106 47.3835 46.6325 47.3707 46.5103 47.3537C46.391 47.3338 46.2646 47.3239 46.1311 47.3239C45.8129 47.3239 45.5288 47.3906 45.2788 47.5241C45.0316 47.6548 44.8356 47.8366 44.6907 48.0696C44.5487 48.2997 44.4777 48.5625 44.4777 48.858V53H43.472ZM52.5732 47.9205L51.6698 48.1761C51.6129 48.0256 51.5291 47.8793 51.4183 47.7372C51.3104 47.5923 51.1627 47.473 50.9752 47.3793C50.7877 47.2855 50.5476 47.2386 50.255 47.2386C49.8544 47.2386 49.5206 47.331 49.2536 47.5156C48.9894 47.6974 48.8573 47.929 48.8573 48.2102C48.8573 48.4602 48.9482 48.6577 49.13 48.8026C49.3118 48.9474 49.5959 49.0682 49.9823 49.1648L50.9539 49.4034C51.5391 49.5455 51.9752 49.7628 52.2621 50.0554C52.549 50.3452 52.6925 50.7187 52.6925 51.1761C52.6925 51.5511 52.5845 51.8864 52.3686 52.1818C52.1556 52.4773 51.8573 52.7102 51.4737 52.8807C51.0902 53.0511 50.6442 53.1364 50.1357 53.1364C49.4681 53.1364 48.9155 52.9915 48.478 52.7017C48.0405 52.4119 47.7635 51.9886 47.647 51.4318L48.6016 51.1932C48.6925 51.5455 48.8644 51.8097 49.1172 51.9858C49.3729 52.1619 49.7067 52.25 50.1186 52.25C50.5874 52.25 50.9595 52.1506 51.2351 51.9517C51.5135 51.75 51.6527 51.5085 51.6527 51.2273C51.6527 51 51.5732 50.8097 51.4141 50.6562C51.255 50.5 51.0107 50.3835 50.6811 50.3068L49.5902 50.0511C48.9908 49.9091 48.5504 49.6889 48.2692 49.3906C47.9908 49.0895 47.8516 48.7131 47.8516 48.2614C47.8516 47.892 47.9553 47.5653 48.1627 47.2812C48.3729 46.9972 48.6584 46.7741 49.0192 46.6122C49.3828 46.4503 49.7948 46.3693 50.255 46.3693C50.9027 46.3693 51.4112 46.5114 51.7806 46.7955C52.1527 47.0795 52.4169 47.4545 52.5732 47.9205ZM57.0529 46.4545V47.3068H53.6609V46.4545H57.0529ZM54.6495 44.8864H55.6552V51.125C55.6552 51.4091 55.6964 51.6222 55.7788 51.7642C55.864 51.9034 55.972 51.9972 56.1027 52.0455C56.2362 52.0909 56.3768 52.1136 56.5245 52.1136C56.6353 52.1136 56.7262 52.108 56.7973 52.0966C56.8683 52.0824 56.9251 52.071 56.9677 52.0625L57.1723 52.9659C57.1041 52.9915 57.0089 53.017 56.8867 53.0426C56.7646 53.071 56.6098 53.0852 56.4223 53.0852C56.1382 53.0852 55.8598 53.0241 55.587 52.902C55.3171 52.7798 55.0927 52.5938 54.9137 52.3438C54.7376 52.0938 54.6495 51.7784 54.6495 51.3977V44.8864ZM60.4919 53.1534C60.0771 53.1534 59.7007 53.0753 59.3626 52.919C59.0245 52.7599 58.7561 52.5312 58.5572 52.233C58.3583 51.9318 58.2589 51.5682 58.2589 51.142C58.2589 50.767 58.3328 50.4631 58.4805 50.2301C58.6282 49.9943 58.8257 49.8097 59.0728 49.6761C59.32 49.5426 59.5927 49.4432 59.891 49.3778C60.1921 49.3097 60.4947 49.2557 60.7987 49.2159C61.1964 49.1648 61.5188 49.1264 61.766 49.1009C62.016 49.0724 62.1978 49.0256 62.3115 48.9602C62.4279 48.8949 62.4862 48.7812 62.4862 48.6193V48.5852C62.4862 48.1648 62.3711 47.8381 62.141 47.6051C61.9137 47.3722 61.5686 47.2557 61.1055 47.2557C60.6254 47.2557 60.249 47.3608 59.9762 47.571C59.7035 47.7812 59.5117 48.0057 59.4009 48.2443L58.4464 47.9034C58.6169 47.5057 58.8441 47.196 59.1282 46.9744C59.4152 46.75 59.7277 46.5937 60.0657 46.5057C60.4066 46.4148 60.7419 46.3693 61.0714 46.3693C61.2816 46.3693 61.5231 46.3949 61.7958 46.446C62.0714 46.4943 62.337 46.5952 62.5927 46.7486C62.8512 46.902 63.0657 47.1335 63.2362 47.4432C63.4066 47.7528 63.4919 48.1676 63.4919 48.6875V53H62.4862V52.1136H62.435C62.3669 52.2557 62.2532 52.4077 62.0941 52.5696C61.935 52.7315 61.7234 52.8693 61.4592 52.983C61.195 53.0966 60.8725 53.1534 60.4919 53.1534ZM60.6453 52.25C61.043 52.25 61.3782 52.1719 61.6509 52.0156C61.9265 51.8594 62.1339 51.6577 62.2731 51.4105C62.4152 51.1634 62.4862 50.9034 62.4862 50.6307V49.7102C62.4436 49.7614 62.3498 49.8082 62.2049 49.8509C62.0629 49.8906 61.8981 49.9261 61.7106 49.9574C61.5259 49.9858 61.3455 50.0114 61.1694 50.0341C60.9961 50.054 60.8555 50.071 60.7475 50.0852C60.4862 50.1193 60.2419 50.1747 60.0146 50.2514C59.7902 50.3253 59.6083 50.4375 59.4691 50.5881C59.3328 50.7358 59.2646 50.9375 59.2646 51.1932C59.2646 51.5426 59.3938 51.8068 59.6524 51.9858C59.9137 52.1619 60.2447 52.25 60.6453 52.25ZM66.3331 49.0625V53H65.3274V46.4545H66.299V47.4773H66.3843C66.5377 47.1449 66.7706 46.8778 67.0831 46.6761C67.3956 46.4716 67.799 46.3693 68.2933 46.3693C68.7365 46.3693 69.1243 46.4602 69.4567 46.642C69.7891 46.821 70.0476 47.0938 70.2323 47.4602C70.4169 47.8239 70.5093 48.2841 70.5093 48.8409V53H69.5036V48.9091C69.5036 48.3949 69.3701 47.9943 69.103 47.7074C68.836 47.4176 68.4695 47.2727 68.0036 47.2727C67.6826 47.2727 67.3956 47.3423 67.1428 47.4815C66.8928 47.6207 66.6953 47.8239 66.5504 48.0909C66.4056 48.358 66.3331 48.6818 66.3331 49.0625ZM74.8186 53.1364C74.2731 53.1364 73.7916 52.9986 73.374 52.723C72.9563 52.4446 72.6296 52.0526 72.3938 51.5469C72.158 51.0384 72.0402 50.4375 72.0402 49.7443C72.0402 49.0568 72.158 48.4602 72.3938 47.9545C72.6296 47.4489 72.9578 47.0582 73.3782 46.7827C73.7987 46.5071 74.2845 46.3693 74.8356 46.3693C75.2617 46.3693 75.5984 46.4403 75.8455 46.5824C76.0955 46.7216 76.2859 46.8807 76.4166 47.0597C76.5501 47.2358 76.6538 47.3807 76.7277 47.4943H76.8129V44.2727H77.8186V53H76.847V51.9943H76.7277C76.6538 52.1136 76.5487 52.2642 76.4123 52.446C76.2759 52.625 76.0813 52.7855 75.8285 52.9276C75.5757 53.0668 75.239 53.1364 74.8186 53.1364ZM74.9549 52.233C75.3583 52.233 75.6992 52.1278 75.9777 51.9176C76.2561 51.7045 76.4677 51.4105 76.6126 51.0355C76.7575 50.6577 76.8299 50.2216 76.8299 49.7273C76.8299 49.2386 76.7589 48.8111 76.6169 48.4446C76.4748 48.0753 76.2646 47.7884 75.9862 47.5838C75.7078 47.3764 75.364 47.2727 74.9549 47.2727C74.5288 47.2727 74.1737 47.3821 73.8896 47.6009C73.6083 47.8168 73.3967 48.1108 73.2546 48.483C73.1154 48.8523 73.0458 49.267 73.0458 49.7273C73.0458 50.1932 73.1169 50.6165 73.2589 50.9972C73.4038 51.375 73.6169 51.6761 73.8981 51.9006C74.1822 52.1222 74.5345 52.233 74.9549 52.233ZM79.8001 53V46.4545H80.8058V53H79.8001ZM80.3115 45.3636C80.1154 45.3636 79.9464 45.2969 79.8044 45.1634C79.6652 45.0298 79.5955 44.8693 79.5955 44.6818C79.5955 44.4943 79.6652 44.3338 79.8044 44.2003C79.9464 44.0668 80.1154 44 80.3115 44C80.5075 44 80.6751 44.0668 80.8143 44.2003C80.9563 44.3338 81.0274 44.4943 81.0274 44.6818C81.0274 44.8693 80.9563 45.0298 80.8143 45.1634C80.6751 45.2969 80.5075 45.3636 80.3115 45.3636ZM83.6534 49.0625V53H82.6477V46.4545H83.6193V47.4773H83.7046C83.858 47.1449 84.0909 46.8778 84.4034 46.6761C84.7159 46.4716 85.1193 46.3693 85.6137 46.3693C86.0568 46.3693 86.4446 46.4602 86.777 46.642C87.1094 46.821 87.3679 47.0938 87.5526 47.4602C87.7372 47.8239 87.8296 48.2841 87.8296 48.8409V53H86.8239V48.9091C86.8239 48.3949 86.6904 47.9943 86.4233 47.7074C86.1563 47.4176 85.7898 47.2727 85.3239 47.2727C85.0029 47.2727 84.7159 47.3423 84.4631 47.4815C84.2131 47.6207 84.0156 47.8239 83.8708 48.0909C83.7259 48.358 83.6534 48.6818 83.6534 49.0625ZM92.3093 55.5909C91.8235 55.5909 91.4059 55.5284 91.0565 55.4034C90.7071 55.2812 90.4159 55.1193 90.1829 54.9176C89.9528 54.7188 89.7696 54.5057 89.6332 54.2784L90.4343 53.7159C90.5252 53.8352 90.6403 53.9716 90.7795 54.125C90.9187 54.2812 91.109 54.4162 91.3505 54.5298C91.5948 54.6463 91.9144 54.7045 92.3093 54.7045C92.8377 54.7045 93.2738 54.5767 93.6176 54.321C93.9613 54.0653 94.1332 53.6648 94.1332 53.1193V51.7898H94.048C93.9741 51.9091 93.869 52.0568 93.7326 52.233C93.5991 52.4062 93.4059 52.5611 93.1531 52.6974C92.9031 52.831 92.565 52.8977 92.1389 52.8977C91.6105 52.8977 91.136 52.7727 90.7156 52.5227C90.298 52.2727 89.967 51.9091 89.7227 51.4318C89.4812 50.9545 89.3605 50.375 89.3605 49.6932C89.3605 49.0227 89.4784 48.4389 89.7142 47.9418C89.95 47.4418 90.2781 47.0554 90.6985 46.7827C91.119 46.5071 91.6048 46.3693 92.1559 46.3693C92.5821 46.3693 92.9201 46.4403 93.1701 46.5824C93.423 46.7216 93.6161 46.8807 93.7497 47.0597C93.886 47.2358 93.9911 47.3807 94.065 47.4943H94.1673V46.4545H95.1389V53.1875C95.1389 53.75 95.011 54.2074 94.7553 54.5597C94.5025 54.9148 94.1616 55.1747 93.7326 55.3395C93.3065 55.5071 92.8321 55.5909 92.3093 55.5909ZM92.2752 51.9943C92.6786 51.9943 93.0196 51.902 93.298 51.7173C93.5764 51.5327 93.788 51.267 93.9329 50.9205C94.0778 50.5739 94.1502 50.1591 94.1502 49.6761C94.1502 49.2045 94.0792 48.7884 93.9372 48.4276C93.7951 48.0668 93.5849 47.7841 93.3065 47.5795C93.0281 47.375 92.6843 47.2727 92.2752 47.2727C91.8491 47.2727 91.494 47.3807 91.2099 47.5966C90.9286 47.8125 90.717 48.1023 90.575 48.4659C90.4357 48.8295 90.3661 49.233 90.3661 49.6761C90.3661 50.1307 90.4372 50.5327 90.5792 50.8821C90.7241 51.2287 90.9372 51.5014 91.2184 51.7003C91.5025 51.8963 91.8548 51.9943 92.2752 51.9943ZM102.281 53.1534C101.866 53.1534 101.49 53.0753 101.152 52.919C100.814 52.7599 100.545 52.5312 100.346 52.233C100.147 51.9318 100.048 51.5682 100.048 51.142C100.048 50.767 100.122 50.4631 100.27 50.2301C100.417 49.9943 100.615 49.8097 100.862 49.6761C101.109 49.5426 101.382 49.4432 101.68 49.3778C101.981 49.3097 102.284 49.2557 102.588 49.2159C102.985 49.1648 103.308 49.1264 103.555 49.1009C103.805 49.0724 103.987 49.0256 104.101 48.9602C104.217 48.8949 104.275 48.7812 104.275 48.6193V48.5852C104.275 48.1648 104.16 47.8381 103.93 47.6051C103.703 47.3722 103.358 47.2557 102.895 47.2557C102.414 47.2557 102.038 47.3608 101.765 47.571C101.493 47.7812 101.301 48.0057 101.19 48.2443L100.235 47.9034C100.406 47.5057 100.633 47.196 100.917 46.9744C101.204 46.75 101.517 46.5937 101.855 46.5057C102.196 46.4148 102.531 46.3693 102.86 46.3693C103.071 46.3693 103.312 46.3949 103.585 46.446C103.86 46.4943 104.126 46.5952 104.382 46.7486C104.64 46.902 104.855 47.1335 105.025 47.4432C105.196 47.7528 105.281 48.1676 105.281 48.6875V53H104.275V52.1136H104.224C104.156 52.2557 104.042 52.4077 103.883 52.5696C103.724 52.7315 103.512 52.8693 103.248 52.983C102.984 53.0966 102.662 53.1534 102.281 53.1534ZM102.434 52.25C102.832 52.25 103.167 52.1719 103.44 52.0156C103.716 51.8594 103.923 51.6577 104.062 51.4105C104.204 51.1634 104.275 50.9034 104.275 50.6307V49.7102C104.233 49.7614 104.139 49.8082 103.994 49.8509C103.852 49.8906 103.687 49.9261 103.5 49.9574C103.315 49.9858 103.135 50.0114 102.958 50.0341C102.785 50.054 102.645 50.071 102.537 50.0852C102.275 50.1193 102.031 50.1747 101.804 50.2514C101.579 50.3253 101.397 50.4375 101.258 50.5881C101.122 50.7358 101.054 50.9375 101.054 51.1932C101.054 51.5426 101.183 51.8068 101.441 51.9858C101.703 52.1619 102.034 52.25 102.434 52.25ZM108.122 49.0625V53H107.116V46.4545H108.088V47.4773H108.173C108.327 47.1449 108.56 46.8778 108.872 46.6761C109.185 46.4716 109.588 46.3693 110.082 46.3693C110.526 46.3693 110.913 46.4602 111.246 46.642C111.578 46.821 111.837 47.0938 112.021 47.4602C112.206 47.8239 112.298 48.2841 112.298 48.8409V53H111.293V48.9091C111.293 48.3949 111.159 47.9943 110.892 47.7074C110.625 47.4176 110.259 47.2727 109.793 47.2727C109.472 47.2727 109.185 47.3423 108.932 47.4815C108.682 47.6207 108.484 47.8239 108.34 48.0909C108.195 48.358 108.122 48.6818 108.122 49.0625ZM116.608 53.1364C116.062 53.1364 115.581 52.9986 115.163 52.723C114.745 52.4446 114.419 52.0526 114.183 51.5469C113.947 51.0384 113.829 50.4375 113.829 49.7443C113.829 49.0568 113.947 48.4602 114.183 47.9545C114.419 47.4489 114.747 47.0582 115.167 46.7827C115.588 46.5071 116.074 46.3693 116.625 46.3693C117.051 46.3693 117.387 46.4403 117.635 46.5824C117.885 46.7216 118.075 46.8807 118.206 47.0597C118.339 47.2358 118.443 47.3807 118.517 47.4943H118.602V44.2727H119.608V53H118.636V51.9943H118.517C118.443 52.1136 118.338 52.2642 118.201 52.446C118.065 52.625 117.87 52.7855 117.618 52.9276C117.365 53.0668 117.028 53.1364 116.608 53.1364ZM116.744 52.233C117.147 52.233 117.488 52.1278 117.767 51.9176C118.045 51.7045 118.257 51.4105 118.402 51.0355C118.547 50.6577 118.619 50.2216 118.619 49.7273C118.619 49.2386 118.548 48.8111 118.406 48.4446C118.264 48.0753 118.054 47.7884 117.775 47.5838C117.497 47.3764 117.153 47.2727 116.744 47.2727C116.318 47.2727 115.963 47.3821 115.679 47.6009C115.397 47.8168 115.186 48.1108 115.044 48.483C114.904 48.8523 114.835 49.267 114.835 49.7273C114.835 50.1932 114.906 50.6165 115.048 50.9972C115.193 51.375 115.406 51.6761 115.687 51.9006C115.971 52.1222 116.324 52.233 116.744 52.233ZM124.964 53V46.4545H125.97V53H124.964ZM125.476 45.3636C125.279 45.3636 125.11 45.2969 124.968 45.1634C124.829 45.0298 124.76 44.8693 124.76 44.6818C124.76 44.4943 124.829 44.3338 124.968 44.2003C125.11 44.0668 125.279 44 125.476 44C125.672 44 125.839 44.0668 125.978 44.2003C126.12 44.3338 126.191 44.4943 126.191 44.6818C126.191 44.8693 126.12 45.0298 125.978 45.1634C125.839 45.2969 125.672 45.3636 125.476 45.3636ZM127.812 53V46.4545H128.783V47.4773H128.869C129.005 47.1278 129.225 46.8565 129.529 46.6634C129.833 46.4673 130.198 46.3693 130.624 46.3693C131.056 46.3693 131.416 46.4673 131.702 46.6634C131.992 46.8565 132.218 47.1278 132.38 47.4773H132.448C132.616 47.1392 132.867 46.8707 133.202 46.6719C133.538 46.4702 133.94 46.3693 134.408 46.3693C134.994 46.3693 135.472 46.5526 135.844 46.919C136.217 47.2827 136.403 47.8494 136.403 48.6193V53H135.397V48.6193C135.397 48.1364 135.265 47.7912 135.001 47.5838C134.737 47.3764 134.425 47.2727 134.067 47.2727C133.607 47.2727 133.251 47.4119 132.998 47.6903C132.745 47.9659 132.619 48.3153 132.619 48.7386V53H131.596V48.517C131.596 48.1449 131.475 47.8452 131.234 47.6179C130.992 47.3878 130.681 47.2727 130.3 47.2727C130.039 47.2727 129.795 47.3423 129.567 47.4815C129.343 47.6207 129.161 47.8139 129.022 48.0611C128.886 48.3054 128.817 48.5881 128.817 48.9091V53H127.812ZM138.241 55.4545V46.4545H139.213V47.4943H139.332C139.406 47.3807 139.509 47.2358 139.639 47.0597C139.773 46.8807 139.963 46.7216 140.21 46.5824C140.46 46.4403 140.798 46.3693 141.224 46.3693C141.776 46.3693 142.261 46.5071 142.682 46.7827C143.102 47.0582 143.43 47.4489 143.666 47.9545C143.902 48.4602 144.02 49.0568 144.02 49.7443C144.02 50.4375 143.902 51.0384 143.666 51.5469C143.43 52.0526 143.104 52.4446 142.686 52.723C142.268 52.9986 141.787 53.1364 141.241 53.1364C140.821 53.1364 140.484 53.0668 140.232 52.9276C139.979 52.7855 139.784 52.625 139.648 52.446C139.511 52.2642 139.406 52.1136 139.332 51.9943H139.247V55.4545H138.241ZM139.23 49.7273C139.23 50.2216 139.303 50.6577 139.447 51.0355C139.592 51.4105 139.804 51.7045 140.082 51.9176C140.361 52.1278 140.702 52.233 141.105 52.233C141.526 52.233 141.876 52.1222 142.158 51.9006C142.442 51.6761 142.655 51.375 142.797 50.9972C142.942 50.6165 143.014 50.1932 143.014 49.7273C143.014 49.267 142.943 48.8523 142.801 48.483C142.662 48.1108 142.45 47.8168 142.166 47.6009C141.885 47.3821 141.531 47.2727 141.105 47.2727C140.696 47.2727 140.352 47.3764 140.074 47.5838C139.795 47.7884 139.585 48.0753 139.443 48.4446C139.301 48.8111 139.23 49.2386 139.23 49.7273ZM146.56 44.2727V53H145.554V44.2727H146.56ZM151.146 53.1364C150.515 53.1364 149.971 52.9972 149.514 52.7188C149.059 52.4375 148.708 52.0455 148.461 51.5426C148.217 51.0369 148.095 50.4489 148.095 49.7784C148.095 49.108 148.217 48.517 148.461 48.0057C148.708 47.4915 149.052 47.0909 149.493 46.804C149.936 46.5142 150.453 46.3693 151.044 46.3693C151.385 46.3693 151.721 46.4261 152.054 46.5398C152.386 46.6534 152.689 46.8381 152.961 47.0938C153.234 47.3466 153.451 47.6818 153.613 48.0994C153.775 48.517 153.856 49.0312 153.856 49.642V50.0682H148.811V49.1989H152.833C152.833 48.8295 152.76 48.5 152.612 48.2102C152.467 47.9205 152.26 47.6918 151.99 47.5241C151.723 47.3565 151.407 47.2727 151.044 47.2727C150.643 47.2727 150.297 47.3722 150.004 47.571C149.714 47.767 149.491 48.0227 149.335 48.3381C149.179 48.6534 149.101 48.9915 149.101 49.3523V49.9318C149.101 50.4261 149.186 50.8452 149.356 51.1889C149.529 51.5298 149.77 51.7898 150.076 51.9688C150.383 52.1449 150.74 52.233 151.146 52.233C151.41 52.233 151.649 52.196 151.862 52.1222C152.078 52.0455 152.264 51.9318 152.42 51.7812C152.576 51.6278 152.697 51.4375 152.782 51.2102L153.754 51.483C153.652 51.8125 153.48 52.1023 153.238 52.3523C152.997 52.5994 152.699 52.7926 152.343 52.9318C151.988 53.0682 151.589 53.1364 151.146 53.1364ZM155.386 53V46.4545H156.358V47.4773H156.443C156.579 47.1278 156.799 46.8565 157.103 46.6634C157.407 46.4673 157.772 46.3693 158.199 46.3693C158.63 46.3693 158.99 46.4673 159.277 46.6634C159.566 46.8565 159.792 47.1278 159.954 47.4773H160.022C160.19 47.1392 160.441 46.8707 160.777 46.6719C161.112 46.4702 161.514 46.3693 161.983 46.3693C162.568 46.3693 163.047 46.5526 163.419 46.919C163.791 47.2827 163.977 47.8494 163.977 48.6193V53H162.971V48.6193C162.971 48.1364 162.839 47.7912 162.575 47.5838C162.311 47.3764 162 47.2727 161.642 47.2727C161.181 47.2727 160.825 47.4119 160.572 47.6903C160.319 47.9659 160.193 48.3153 160.193 48.7386V53H159.17V48.517C159.17 48.1449 159.049 47.8452 158.808 47.6179C158.566 47.3878 158.255 47.2727 157.875 47.2727C157.613 47.2727 157.369 47.3423 157.142 47.4815C156.917 47.6207 156.735 47.8139 156.596 48.0611C156.46 48.3054 156.392 48.5881 156.392 48.9091V53H155.386ZM168.56 53.1364C167.929 53.1364 167.385 52.9972 166.928 52.7188C166.473 52.4375 166.123 52.0455 165.875 51.5426C165.631 51.0369 165.509 50.4489 165.509 49.7784C165.509 49.108 165.631 48.517 165.875 48.0057C166.123 47.4915 166.466 47.0909 166.907 46.804C167.35 46.5142 167.867 46.3693 168.458 46.3693C168.799 46.3693 169.135 46.4261 169.468 46.5398C169.8 46.6534 170.103 46.8381 170.375 47.0938C170.648 47.3466 170.865 47.6818 171.027 48.0994C171.189 48.517 171.27 49.0312 171.27 49.642V50.0682H166.225V49.1989H170.248C170.248 48.8295 170.174 48.5 170.026 48.2102C169.881 47.9205 169.674 47.6918 169.404 47.5241C169.137 47.3565 168.821 47.2727 168.458 47.2727C168.057 47.2727 167.711 47.3722 167.418 47.571C167.128 47.767 166.905 48.0227 166.749 48.3381C166.593 48.6534 166.515 48.9915 166.515 49.3523V49.9318C166.515 50.4261 166.6 50.8452 166.77 51.1889C166.944 51.5298 167.184 51.7898 167.49 51.9688C167.797 52.1449 168.154 52.233 168.56 52.233C168.824 52.233 169.063 52.196 169.276 52.1222C169.492 52.0455 169.678 51.9318 169.834 51.7812C169.99 51.6278 170.111 51.4375 170.196 51.2102L171.168 51.483C171.066 51.8125 170.894 52.1023 170.652 52.3523C170.411 52.5994 170.113 52.7926 169.757 52.9318C169.402 53.0682 169.003 53.1364 168.56 53.1364ZM173.806 49.0625V53H172.8V46.4545H173.772V47.4773H173.857C174.01 47.1449 174.243 46.8778 174.556 46.6761C174.868 46.4716 175.272 46.3693 175.766 46.3693C176.209 46.3693 176.597 46.4602 176.929 46.642C177.262 46.821 177.52 47.0938 177.705 47.4602C177.89 47.8239 177.982 48.2841 177.982 48.8409V53H176.976V48.9091C176.976 48.3949 176.843 47.9943 176.576 47.7074C176.309 47.4176 175.942 47.2727 175.476 47.2727C175.155 47.2727 174.868 47.3423 174.615 47.4815C174.365 47.6207 174.168 47.8239 174.023 48.0909C173.878 48.358 173.806 48.6818 173.806 49.0625ZM182.666 46.4545V47.3068H179.274V46.4545H182.666ZM180.263 44.8864H181.268V51.125C181.268 51.4091 181.31 51.6222 181.392 51.7642C181.477 51.9034 181.585 51.9972 181.716 52.0455C181.849 52.0909 181.99 52.1136 182.138 52.1136C182.249 52.1136 182.34 52.108 182.411 52.0966C182.482 52.0824 182.538 52.071 182.581 52.0625L182.786 52.9659C182.717 52.9915 182.622 53.017 182.5 53.0426C182.378 53.071 182.223 53.0852 182.036 53.0852C181.751 53.0852 181.473 53.0241 181.2 52.902C180.93 52.7798 180.706 52.5938 180.527 52.3438C180.351 52.0938 180.263 51.7784 180.263 51.3977V44.8864ZM184.179 53V46.4545H185.185V53H184.179ZM184.69 45.3636C184.494 45.3636 184.325 45.2969 184.183 45.1634C184.044 45.0298 183.974 44.8693 183.974 44.6818C183.974 44.4943 184.044 44.3338 184.183 44.2003C184.325 44.0668 184.494 44 184.69 44C184.886 44 185.054 44.0668 185.193 44.2003C185.335 44.3338 185.406 44.4943 185.406 44.6818C185.406 44.8693 185.335 45.0298 185.193 45.1634C185.054 45.2969 184.886 45.3636 184.69 45.3636ZM188.032 49.0625V53H187.027V46.4545H187.998V47.4773H188.083C188.237 47.1449 188.47 46.8778 188.782 46.6761C189.095 46.4716 189.498 46.3693 189.993 46.3693C190.436 46.3693 190.824 46.4602 191.156 46.642C191.488 46.821 191.747 47.0938 191.931 47.4602C192.116 47.8239 192.208 48.2841 192.208 48.8409V53H191.203V48.9091C191.203 48.3949 191.069 47.9943 190.802 47.7074C190.535 47.4176 190.169 47.2727 189.703 47.2727C189.382 47.2727 189.095 47.3423 188.842 47.4815C188.592 47.6207 188.395 47.8239 188.25 48.0909C188.105 48.358 188.032 48.6818 188.032 49.0625ZM196.688 55.5909C196.202 55.5909 195.785 55.5284 195.435 55.4034C195.086 55.2812 194.795 55.1193 194.562 54.9176C194.332 54.7188 194.148 54.5057 194.012 54.2784L194.813 53.7159C194.904 53.8352 195.019 53.9716 195.158 54.125C195.298 54.2812 195.488 54.4162 195.729 54.5298C195.974 54.6463 196.293 54.7045 196.688 54.7045C197.217 54.7045 197.653 54.5767 197.996 54.321C198.34 54.0653 198.512 53.6648 198.512 53.1193V51.7898H198.427C198.353 51.9091 198.248 52.0568 198.112 52.233C197.978 52.4062 197.785 52.5611 197.532 52.6974C197.282 52.831 196.944 52.8977 196.518 52.8977C195.989 52.8977 195.515 52.7727 195.094 52.5227C194.677 52.2727 194.346 51.9091 194.102 51.4318C193.86 50.9545 193.739 50.375 193.739 49.6932C193.739 49.0227 193.857 48.4389 194.093 47.9418C194.329 47.4418 194.657 47.0554 195.077 46.7827C195.498 46.5071 195.984 46.3693 196.535 46.3693C196.961 46.3693 197.299 46.4403 197.549 46.5824C197.802 46.7216 197.995 46.8807 198.129 47.0597C198.265 47.2358 198.37 47.3807 198.444 47.4943H198.546V46.4545H199.518V53.1875C199.518 53.75 199.39 54.2074 199.134 54.5597C198.881 54.9148 198.541 55.1747 198.112 55.3395C197.685 55.5071 197.211 55.5909 196.688 55.5909ZM196.654 51.9943C197.058 51.9943 197.398 51.902 197.677 51.7173C197.955 51.5327 198.167 51.267 198.312 50.9205C198.457 50.5739 198.529 50.1591 198.529 49.6761C198.529 49.2045 198.458 48.7884 198.316 48.4276C198.174 48.0668 197.964 47.7841 197.685 47.5795C197.407 47.375 197.063 47.2727 196.654 47.2727C196.228 47.2727 195.873 47.3807 195.589 47.5966C195.308 47.8125 195.096 48.1023 194.954 48.4659C194.815 48.8295 194.745 49.233 194.745 49.6761C194.745 50.1307 194.816 50.5327 194.958 50.8821C195.103 51.2287 195.316 51.5014 195.597 51.7003C195.881 51.8963 196.234 51.9943 196.654 51.9943ZM207.666 53.1193C207.103 53.1193 206.602 53.0227 206.161 52.8295C205.724 52.6364 205.376 52.3679 205.117 52.0241C204.862 51.6776 204.722 51.2756 204.7 50.8182H205.773C205.796 51.0994 205.893 51.3423 206.063 51.5469C206.234 51.7486 206.457 51.9048 206.732 52.0156C207.008 52.1264 207.313 52.1818 207.648 52.1818C208.023 52.1818 208.356 52.1165 208.646 51.9858C208.935 51.8551 209.163 51.6733 209.327 51.4403C209.492 51.2074 209.575 50.9375 209.575 50.6307C209.575 50.3097 209.495 50.027 209.336 49.7827C209.177 49.5355 208.944 49.3423 208.637 49.2031C208.33 49.0639 207.955 48.9943 207.512 48.9943H206.813V48.0568H207.512C207.859 48.0568 208.163 47.9943 208.424 47.8693C208.688 47.7443 208.894 47.5682 209.042 47.3409C209.192 47.1136 209.268 46.8466 209.268 46.5398C209.268 46.2443 209.202 45.9872 209.072 45.7685C208.941 45.5497 208.756 45.3793 208.518 45.2571C208.282 45.1349 208.004 45.0739 207.683 45.0739C207.381 45.0739 207.097 45.1293 206.83 45.2401C206.566 45.348 206.35 45.5057 206.183 45.7131C206.015 45.9176 205.924 46.1648 205.91 46.4545H204.887C204.904 45.9972 205.042 45.5966 205.3 45.2528C205.559 44.9062 205.897 44.6364 206.315 44.4432C206.735 44.25 207.197 44.1534 207.7 44.1534C208.239 44.1534 208.702 44.2628 209.089 44.4815C209.475 44.6974 209.772 44.983 209.979 45.3381C210.187 45.6932 210.291 46.0767 210.291 46.4886C210.291 46.9801 210.161 47.3991 209.903 47.7457C209.647 48.0923 209.299 48.3324 208.859 48.4659V48.5341C209.41 48.625 209.84 48.8594 210.15 49.2372C210.46 49.6122 210.614 50.0767 210.614 50.6307C210.614 51.1051 210.485 51.5312 210.227 51.9091C209.971 52.2841 209.621 52.5795 209.178 52.7955C208.735 53.0114 208.231 53.1193 207.666 53.1193ZM215.204 53H212.511V44.2727H215.323C216.17 44.2727 216.894 44.4474 217.496 44.7969C218.099 45.1435 218.56 45.642 218.881 46.2926C219.202 46.9403 219.363 47.7159 219.363 48.6193C219.363 49.5284 219.201 50.3111 218.877 50.9673C218.553 51.6207 218.082 52.1236 217.462 52.4759C216.843 52.8253 216.09 53 215.204 53ZM213.567 52.0625H215.136C215.857 52.0625 216.455 51.9233 216.93 51.6449C217.404 51.3665 217.758 50.9702 217.991 50.456C218.224 49.9418 218.34 49.3295 218.34 48.6193C218.34 47.9148 218.225 47.3082 217.995 46.7997C217.765 46.2884 217.421 45.8963 216.964 45.6236C216.506 45.348 215.937 45.2102 215.255 45.2102H213.567V52.0625ZM227.016 55.5909C226.531 55.5909 226.113 55.5284 225.764 55.4034C225.414 55.2812 225.123 55.1193 224.89 54.9176C224.66 54.7188 224.477 54.5057 224.34 54.2784L225.141 53.7159C225.232 53.8352 225.347 53.9716 225.487 54.125C225.626 54.2812 225.816 54.4162 226.058 54.5298C226.302 54.6463 226.621 54.7045 227.016 54.7045C227.545 54.7045 227.981 54.5767 228.325 54.321C228.668 54.0653 228.84 53.6648 228.84 53.1193V51.7898H228.755C228.681 51.9091 228.576 52.0568 228.44 52.233C228.306 52.4062 228.113 52.5611 227.86 52.6974C227.61 52.831 227.272 52.8977 226.846 52.8977C226.317 52.8977 225.843 52.7727 225.423 52.5227C225.005 52.2727 224.674 51.9091 224.43 51.4318C224.188 50.9545 224.067 50.375 224.067 49.6932C224.067 49.0227 224.185 48.4389 224.421 47.9418C224.657 47.4418 224.985 47.0554 225.406 46.7827C225.826 46.5071 226.312 46.3693 226.863 46.3693C227.289 46.3693 227.627 46.4403 227.877 46.5824C228.13 46.7216 228.323 46.8807 228.457 47.0597C228.593 47.2358 228.698 47.3807 228.772 47.4943H228.874V46.4545H229.846V53.1875C229.846 53.75 229.718 54.2074 229.462 54.5597C229.21 54.9148 228.869 55.1747 228.44 55.3395C228.014 55.5071 227.539 55.5909 227.016 55.5909ZM226.982 51.9943C227.386 51.9943 227.727 51.902 228.005 51.7173C228.283 51.5327 228.495 51.267 228.64 50.9205C228.785 50.5739 228.857 50.1591 228.857 49.6761C228.857 49.2045 228.786 48.7884 228.644 48.4276C228.502 48.0668 228.292 47.7841 228.014 47.5795C227.735 47.375 227.391 47.2727 226.982 47.2727C226.556 47.2727 226.201 47.3807 225.917 47.5966C225.636 47.8125 225.424 48.1023 225.282 48.4659C225.143 48.8295 225.073 49.233 225.073 49.6761C225.073 50.1307 225.144 50.5327 225.286 50.8821C225.431 51.2287 225.644 51.5014 225.925 51.7003C226.21 51.8963 226.562 51.9943 226.982 51.9943ZM231.687 53V46.4545H232.658V47.4432H232.727C232.846 47.1193 233.062 46.8565 233.374 46.6548C233.687 46.4531 234.039 46.3523 234.431 46.3523C234.505 46.3523 234.597 46.3537 234.708 46.3565C234.819 46.3594 234.903 46.3636 234.96 46.3693V47.392C234.925 47.3835 234.847 47.3707 234.725 47.3537C234.606 47.3338 234.479 47.3239 234.346 47.3239C234.028 47.3239 233.744 47.3906 233.494 47.5241C233.246 47.6548 233.05 47.8366 232.906 48.0696C232.764 48.2997 232.692 48.5625 232.692 48.858V53H231.687ZM238.078 53.1534C237.663 53.1534 237.287 53.0753 236.949 52.919C236.61 52.7599 236.342 52.5312 236.143 52.233C235.944 51.9318 235.845 51.5682 235.845 51.142C235.845 50.767 235.919 50.4631 236.066 50.2301C236.214 49.9943 236.412 49.8097 236.659 49.6761C236.906 49.5426 237.179 49.4432 237.477 49.3778C237.778 49.3097 238.081 49.2557 238.385 49.2159C238.782 49.1648 239.105 49.1264 239.352 49.1009C239.602 49.0724 239.784 49.0256 239.897 48.9602C240.014 48.8949 240.072 48.7812 240.072 48.6193V48.5852C240.072 48.1648 239.957 47.8381 239.727 47.6051C239.5 47.3722 239.154 47.2557 238.691 47.2557C238.211 47.2557 237.835 47.3608 237.562 47.571C237.289 47.7812 237.098 48.0057 236.987 48.2443L236.032 47.9034C236.203 47.5057 236.43 47.196 236.714 46.9744C237.001 46.75 237.314 46.5937 237.652 46.5057C237.993 46.4148 238.328 46.3693 238.657 46.3693C238.868 46.3693 239.109 46.3949 239.382 46.446C239.657 46.4943 239.923 46.5952 240.179 46.7486C240.437 46.902 240.652 47.1335 240.822 47.4432C240.993 47.7528 241.078 48.1676 241.078 48.6875V53H240.072V52.1136H240.021C239.953 52.2557 239.839 52.4077 239.68 52.5696C239.521 52.7315 239.309 52.8693 239.045 52.983C238.781 53.0966 238.458 53.1534 238.078 53.1534ZM238.231 52.25C238.629 52.25 238.964 52.1719 239.237 52.0156C239.512 51.8594 239.72 51.6577 239.859 51.4105C240.001 51.1634 240.072 50.9034 240.072 50.6307V49.7102C240.029 49.7614 239.936 49.8082 239.791 49.8509C239.649 49.8906 239.484 49.9261 239.297 49.9574C239.112 49.9858 238.931 50.0114 238.755 50.0341C238.582 50.054 238.441 50.071 238.333 50.0852C238.072 50.1193 237.828 50.1747 237.601 50.2514C237.376 50.3253 237.194 50.4375 237.055 50.5881C236.919 50.7358 236.851 50.9375 236.851 51.1932C236.851 51.5426 236.98 51.8068 237.238 51.9858C237.5 52.1619 237.831 52.25 238.231 52.25ZM242.913 55.4545V46.4545H243.885V47.4943H244.004C244.078 47.3807 244.18 47.2358 244.311 47.0597C244.445 46.8807 244.635 46.7216 244.882 46.5824C245.132 46.4403 245.47 46.3693 245.896 46.3693C246.447 46.3693 246.933 46.5071 247.354 46.7827C247.774 47.0582 248.102 47.4489 248.338 47.9545C248.574 48.4602 248.692 49.0568 248.692 49.7443C248.692 50.4375 248.574 51.0384 248.338 51.5469C248.102 52.0526 247.776 52.4446 247.358 52.723C246.94 52.9986 246.459 53.1364 245.913 53.1364C245.493 53.1364 245.156 53.0668 244.903 52.9276C244.651 52.7855 244.456 52.625 244.32 52.446C244.183 52.2642 244.078 52.1136 244.004 51.9943H243.919V55.4545H242.913ZM243.902 49.7273C243.902 50.2216 243.974 50.6577 244.119 51.0355C244.264 51.4105 244.476 51.7045 244.754 51.9176C245.033 52.1278 245.374 52.233 245.777 52.233C246.197 52.233 246.548 52.1222 246.83 51.9006C247.114 51.6761 247.327 51.375 247.469 50.9972C247.614 50.6165 247.686 50.1932 247.686 49.7273C247.686 49.267 247.615 48.8523 247.473 48.483C247.334 48.1108 247.122 47.8168 246.838 47.6009C246.557 47.3821 246.203 47.2727 245.777 47.2727C245.368 47.2727 245.024 47.3764 244.746 47.5838C244.467 47.7884 244.257 48.0753 244.115 48.4446C243.973 48.8111 243.902 49.2386 243.902 49.7273ZM251.232 49.0625V53H250.226V44.2727H251.232V47.4773H251.317C251.47 47.1392 251.7 46.8707 252.007 46.6719C252.317 46.4702 252.729 46.3693 253.243 46.3693C253.689 46.3693 254.08 46.4588 254.415 46.6378C254.75 46.8139 255.01 47.0852 255.195 47.4517C255.382 47.8153 255.476 48.2784 255.476 48.8409V53H254.47V48.9091C254.47 48.3892 254.335 47.9872 254.065 47.7031C253.798 47.4162 253.428 47.2727 252.953 47.2727C252.624 47.2727 252.328 47.3423 252.067 47.4815C251.808 47.6207 251.604 47.8239 251.453 48.0909C251.305 48.358 251.232 48.6818 251.232 49.0625ZM257.316 53V46.4545H258.321V53H257.316ZM257.827 45.3636C257.631 45.3636 257.462 45.2969 257.32 45.1634C257.181 45.0298 257.111 44.8693 257.111 44.6818C257.111 44.4943 257.181 44.3338 257.32 44.2003C257.462 44.0668 257.631 44 257.827 44C258.023 44 258.191 44.0668 258.33 44.2003C258.472 44.3338 258.543 44.4943 258.543 44.6818C258.543 44.8693 258.472 45.0298 258.33 45.1634C258.191 45.2969 258.023 45.3636 257.827 45.3636ZM262.822 53.1364C262.209 53.1364 261.68 52.9915 261.237 52.7017C260.794 52.4119 260.453 52.0128 260.215 51.5043C259.976 50.9957 259.857 50.4148 259.857 49.7614C259.857 49.0966 259.979 48.5099 260.223 48.0014C260.47 47.4901 260.814 47.0909 261.254 46.804C261.697 46.5142 262.215 46.3693 262.805 46.3693C263.266 46.3693 263.68 46.4545 264.05 46.625C264.419 46.7955 264.722 47.0341 264.957 47.3409C265.193 47.6477 265.34 48.0057 265.396 48.4148H264.391C264.314 48.1165 264.143 47.8523 263.879 47.6222C263.618 47.3892 263.266 47.2727 262.822 47.2727C262.43 47.2727 262.087 47.375 261.791 47.5795C261.499 47.7812 261.27 48.0668 261.105 48.4361C260.943 48.8026 260.862 49.233 260.862 49.7273C260.862 50.233 260.942 50.6733 261.101 51.0483C261.263 51.4233 261.49 51.7145 261.783 51.9219C262.078 52.1293 262.425 52.233 262.822 52.233C263.084 52.233 263.321 52.1875 263.534 52.0966C263.747 52.0057 263.928 51.875 264.075 51.7045C264.223 51.5341 264.328 51.3295 264.391 51.0909H265.396C265.34 51.4773 265.199 51.8253 264.974 52.1349C264.753 52.4418 264.459 52.6861 264.092 52.8679C263.729 53.0469 263.305 53.1364 262.822 53.1364ZM271.503 47.9205L270.599 48.1761C270.543 48.0256 270.459 47.8793 270.348 47.7372C270.24 47.5923 270.092 47.473 269.905 47.3793C269.717 47.2855 269.477 47.2386 269.185 47.2386C268.784 47.2386 268.45 47.331 268.183 47.5156C267.919 47.6974 267.787 47.929 267.787 48.2102C267.787 48.4602 267.878 48.6577 268.06 48.8026C268.241 48.9474 268.526 49.0682 268.912 49.1648L269.884 49.4034C270.469 49.5455 270.905 49.7628 271.192 50.0554C271.479 50.3452 271.622 50.7187 271.622 51.1761C271.622 51.5511 271.514 51.8864 271.298 52.1818C271.085 52.4773 270.787 52.7102 270.403 52.8807C270.02 53.0511 269.574 53.1364 269.065 53.1364C268.398 53.1364 267.845 52.9915 267.408 52.7017C266.97 52.4119 266.693 51.9886 266.577 51.4318L267.531 51.1932C267.622 51.5455 267.794 51.8097 268.047 51.9858C268.303 52.1619 268.636 52.25 269.048 52.25C269.517 52.25 269.889 52.1506 270.165 51.9517C270.443 51.75 270.582 51.5085 270.582 51.2273C270.582 51 270.503 50.8097 270.344 50.6562C270.185 50.5 269.94 50.3835 269.611 50.3068L268.52 50.0511C267.92 49.9091 267.48 49.6889 267.199 49.3906C266.92 49.0895 266.781 48.7131 266.781 48.2614C266.781 47.892 266.885 47.5653 267.092 47.2812C267.303 46.9972 267.588 46.7741 267.949 46.6122C268.313 46.4503 268.724 46.3693 269.185 46.3693C269.832 46.3693 270.341 46.5114 270.71 46.7955C271.082 47.0795 271.347 47.4545 271.503 47.9205Z" fill="#768395"/>
<circle cx="18.2" cy="79" r="6" fill="#F34B7D"/>
<circle cx="18.2" cy="79" r="5.5" stroke="white" stroke-opacity="0.14902"/>
<path d="M40.2795 77.5H39.2227C39.1602 77.196 39.0508 76.929 38.8946 76.6989C38.7411 76.4688 38.5536 76.2756 38.3321 76.1193C38.1133 75.9602 37.8704 75.8409 37.6034 75.7614C37.3363 75.6818 37.0579 75.642 36.7681 75.642C36.2397 75.642 35.761 75.7756 35.3321 76.0426C34.9059 76.3097 34.5664 76.7031 34.3136 77.223C34.0636 77.7429 33.9386 78.3807 33.9386 79.1364C33.9386 79.892 34.0636 80.5298 34.3136 81.0497C34.5664 81.5696 34.9059 81.9631 35.3321 82.2301C35.761 82.4972 36.2397 82.6307 36.7681 82.6307C37.0579 82.6307 37.3363 82.5909 37.6034 82.5114C37.8704 82.4318 38.1133 82.3139 38.3321 82.1577C38.5536 81.9986 38.7411 81.804 38.8946 81.5739C39.0508 81.3409 39.1602 81.0739 39.2227 80.7727H40.2795C40.2 81.2187 40.0551 81.6179 39.8448 81.9702C39.6346 82.3224 39.3732 82.6222 39.0607 82.8693C38.7482 83.1136 38.3974 83.2997 38.0082 83.4276C37.6218 83.5554 37.2085 83.6193 36.7681 83.6193C36.0238 83.6193 35.3619 83.4375 34.7823 83.0739C34.2028 82.7102 33.7468 82.1932 33.4144 81.5227C33.0821 80.8523 32.9159 80.0568 32.9159 79.1364C32.9159 78.2159 33.0821 77.4205 33.4144 76.75C33.7468 76.0795 34.2028 75.5625 34.7823 75.1989C35.3619 74.8352 36.0238 74.6534 36.7681 74.6534C37.2085 74.6534 37.6218 74.7173 38.0082 74.8452C38.3974 74.973 38.7482 75.1605 39.0607 75.4077C39.3732 75.652 39.6346 75.9503 39.8448 76.3026C40.0551 76.652 40.2 77.0511 40.2795 77.5ZM44.4077 81.9659V76.3409H45.3622V81.9659H44.4077ZM42.0725 79.6307V78.6761H47.6975V79.6307H42.0725ZM52.3178 81.9659V76.3409H53.2724V81.9659H52.3178ZM49.9826 79.6307V78.6761H55.6076V79.6307H49.9826Z" fill="#768395"/>
<circle cx="75.2" cy="79" r="6" fill="#F1E05A"/>
<circle cx="75.2" cy="79" r="5.5" stroke="white" stroke-opacity="0.14902"/>
<path d="M93.5977 74.7727H94.6545V81.0114C94.6545 81.5682 94.5522 82.0412 94.3477 82.4304C94.1431 82.8196 93.8548 83.1151 93.4826 83.3168C93.1105 83.5185 92.6715 83.6193 92.1659 83.6193C91.6886 83.6193 91.2639 83.5327 90.8917 83.3594C90.5196 83.1832 90.2269 82.9332 90.0139 82.6094C89.8008 82.2855 89.6943 81.9006 89.6943 81.4545H90.734C90.734 81.7017 90.7951 81.9176 90.9173 82.1023C91.0423 82.2841 91.2127 82.4261 91.4286 82.5284C91.6446 82.6307 91.8903 82.6818 92.1659 82.6818C92.4698 82.6818 92.7284 82.6179 92.9414 82.4901C93.1545 82.3622 93.3164 82.1747 93.4272 81.9276C93.5409 81.6776 93.5977 81.3722 93.5977 81.0114V74.7727ZM98.5622 83.6534C98.1474 83.6534 97.771 83.5753 97.4329 83.419C97.0948 83.2599 96.8264 83.0312 96.6275 82.733C96.4286 82.4318 96.3292 82.0682 96.3292 81.642C96.3292 81.267 96.4031 80.9631 96.5508 80.7301C96.6985 80.4943 96.896 80.3097 97.1431 80.1761C97.3903 80.0426 97.663 79.9432 97.9613 79.8778C98.2625 79.8097 98.565 79.7557 98.869 79.7159C99.2667 79.6648 99.5892 79.6264 99.8363 79.6009C100.086 79.5724 100.268 79.5256 100.382 79.4602C100.498 79.3949 100.556 79.2812 100.556 79.1193V79.0852C100.556 78.6648 100.441 78.3381 100.211 78.1051C99.984 77.8722 99.6389 77.7557 99.1758 77.7557C98.6957 77.7557 98.3193 77.8608 98.0465 78.071C97.7738 78.2812 97.5821 78.5057 97.4713 78.7443L96.5167 78.4034C96.6872 78.0057 96.9144 77.696 97.1985 77.4744C97.4855 77.25 97.798 77.0937 98.136 77.0057C98.4769 76.9148 98.8122 76.8693 99.1417 76.8693C99.3519 76.8693 99.5934 76.8949 99.8661 76.946C100.142 76.9943 100.407 77.0952 100.663 77.2486C100.922 77.402 101.136 77.6335 101.306 77.9432C101.477 78.2528 101.562 78.6676 101.562 79.1875V83.5H100.556V82.6136H100.505C100.437 82.7557 100.324 82.9077 100.164 83.0696C100.005 83.2315 99.7937 83.3693 99.5295 83.483C99.2653 83.5966 98.9428 83.6534 98.5622 83.6534ZM98.7156 82.75C99.1133 82.75 99.4485 82.6719 99.7213 82.5156C99.9968 82.3594 100.204 82.1577 100.343 81.9105C100.485 81.6634 100.556 81.4034 100.556 81.1307V80.2102C100.514 80.2614 100.42 80.3082 100.275 80.3509C100.133 80.3906 99.9684 80.4261 99.7809 80.4574C99.5963 80.4858 99.4159 80.5114 99.2397 80.5341C99.0664 80.554 98.9258 80.571 98.8178 80.5852C98.5565 80.6193 98.3122 80.6747 98.0849 80.7514C97.8605 80.8253 97.6786 80.9375 97.5394 81.0881C97.4031 81.2358 97.3349 81.4375 97.3349 81.6932C97.3349 82.0426 97.4642 82.3068 97.7227 82.4858C97.984 82.6619 98.315 82.75 98.7156 82.75ZM108.516 76.9545L106.095 83.5H105.072L102.652 76.9545H103.743L105.55 82.1705H105.618L107.425 76.9545H108.516ZM111.57 83.6534C111.155 83.6534 110.779 83.5753 110.441 83.419C110.103 83.2599 109.834 83.0312 109.635 82.733C109.436 82.4318 109.337 82.0682 109.337 81.642C109.337 81.267 109.411 80.9631 109.559 80.7301C109.706 80.4943 109.904 80.3097 110.151 80.1761C110.398 80.0426 110.671 79.9432 110.969 79.8778C111.27 79.8097 111.573 79.7557 111.877 79.7159C112.275 79.6648 112.597 79.6264 112.844 79.6009C113.094 79.5724 113.276 79.5256 113.39 79.4602C113.506 79.3949 113.564 79.2812 113.564 79.1193V79.0852C113.564 78.6648 113.449 78.3381 113.219 78.1051C112.992 77.8722 112.647 77.7557 112.184 77.7557C111.704 77.7557 111.327 77.8608 111.054 78.071C110.782 78.2812 110.59 78.5057 110.479 78.7443L109.525 78.4034C109.695 78.0057 109.922 77.696 110.206 77.4744C110.493 77.25 110.806 77.0937 111.144 77.0057C111.485 76.9148 111.82 76.8693 112.15 76.8693C112.36 76.8693 112.601 76.8949 112.874 76.946C113.15 76.9943 113.415 77.0952 113.671 77.2486C113.929 77.402 114.144 77.6335 114.314 77.9432C114.485 78.2528 114.57 78.6676 114.57 79.1875V83.5H113.564V82.6136H113.513C113.445 82.7557 113.331 82.9077 113.172 83.0696C113.013 83.2315 112.802 83.3693 112.537 83.483C112.273 83.5966 111.951 83.6534 111.57 83.6534ZM111.723 82.75C112.121 82.75 112.456 82.6719 112.729 82.5156C113.005 82.3594 113.212 82.1577 113.351 81.9105C113.493 81.6634 113.564 81.4034 113.564 81.1307V80.2102C113.522 80.2614 113.428 80.3082 113.283 80.3509C113.141 80.3906 112.976 80.4261 112.789 80.4574C112.604 80.4858 112.424 80.5114 112.248 80.5341C112.074 80.554 111.934 80.571 111.826 80.5852C111.564 80.6193 111.32 80.6747 111.093 80.7514C110.868 80.8253 110.686 80.9375 110.547 81.0881C110.411 81.2358 110.343 81.4375 110.343 81.6932C110.343 82.0426 110.472 82.3068 110.73 82.4858C110.992 82.6619 111.323 82.75 111.723 82.75ZM121.315 76.9545C121.264 76.5227 121.056 76.1875 120.692 75.9489C120.329 75.7102 119.883 75.5909 119.354 75.5909C118.968 75.5909 118.63 75.6534 118.34 75.7784C118.053 75.9034 117.829 76.0753 117.667 76.294C117.508 76.5128 117.428 76.7614 117.428 77.0398C117.428 77.2727 117.484 77.473 117.594 77.6406C117.708 77.8054 117.853 77.9432 118.029 78.054C118.205 78.1619 118.39 78.2514 118.583 78.3224C118.776 78.3906 118.954 78.446 119.116 78.4886L120.002 78.7273C120.229 78.7869 120.482 78.8693 120.761 78.9744C121.042 79.0795 121.31 79.223 121.566 79.4048C121.825 79.5838 122.038 79.8139 122.205 80.0952C122.373 80.3764 122.457 80.7216 122.457 81.1307C122.457 81.6023 122.333 82.0284 122.086 82.4091C121.842 82.7898 121.484 83.0923 121.012 83.3168C120.543 83.5412 119.974 83.6534 119.303 83.6534C118.678 83.6534 118.137 83.5526 117.68 83.3509C117.225 83.1491 116.867 82.8679 116.606 82.5071C116.347 82.1463 116.201 81.7273 116.167 81.25H117.258C117.286 81.5795 117.397 81.8523 117.59 82.0682C117.786 82.2812 118.033 82.4403 118.332 82.5455C118.633 82.6477 118.957 82.6989 119.303 82.6989C119.707 82.6989 120.069 82.6335 120.39 82.5028C120.711 82.3693 120.965 82.1847 121.153 81.9489C121.34 81.7102 121.434 81.4318 121.434 81.1136C121.434 80.8239 121.353 80.5881 121.191 80.4062C121.029 80.2244 120.816 80.0767 120.552 79.9631C120.288 79.8494 120.002 79.75 119.695 79.6648L118.621 79.358C117.94 79.1619 117.4 78.8821 117.002 78.5185C116.604 78.1548 116.406 77.679 116.406 77.0909C116.406 76.6023 116.538 76.1761 116.802 75.8125C117.069 75.446 117.427 75.1619 117.876 74.9602C118.327 74.7557 118.832 74.6534 119.389 74.6534C119.951 74.6534 120.451 74.7543 120.889 74.956C121.326 75.1548 121.673 75.4276 121.928 75.7741C122.187 76.1207 122.323 76.5142 122.337 76.9545H121.315ZM126.717 83.6364C126.103 83.6364 125.575 83.4915 125.132 83.2017C124.689 82.9119 124.348 82.5128 124.109 82.0043C123.87 81.4957 123.751 80.9148 123.751 80.2614C123.751 79.5966 123.873 79.0099 124.118 78.5014C124.365 77.9901 124.708 77.5909 125.149 77.304C125.592 77.0142 126.109 76.8693 126.7 76.8693C127.16 76.8693 127.575 76.9545 127.944 77.125C128.314 77.2955 128.616 77.5341 128.852 77.8409C129.088 78.1477 129.234 78.5057 129.291 78.9148H128.285C128.208 78.6165 128.038 78.3523 127.774 78.1222C127.512 77.8892 127.16 77.7727 126.717 77.7727C126.325 77.7727 125.981 77.875 125.686 78.0795C125.393 78.2812 125.164 78.5668 125 78.9361C124.838 79.3026 124.757 79.733 124.757 80.2273C124.757 80.733 124.836 81.1733 124.995 81.5483C125.157 81.9233 125.385 82.2145 125.677 82.4219C125.973 82.6293 126.319 82.733 126.717 82.733C126.978 82.733 127.216 82.6875 127.429 82.5966C127.642 82.5057 127.822 82.375 127.97 82.2045C128.118 82.0341 128.223 81.8295 128.285 81.5909H129.291C129.234 81.9773 129.093 82.3253 128.869 82.6349C128.647 82.9418 128.353 83.1861 127.987 83.3679C127.623 83.5469 127.2 83.6364 126.717 83.6364ZM130.761 83.5V76.9545H131.733V77.9432H131.801C131.92 77.6193 132.136 77.3565 132.449 77.1548C132.761 76.9531 133.113 76.8523 133.505 76.8523C133.579 76.8523 133.672 76.8537 133.782 76.8565C133.893 76.8594 133.977 76.8636 134.034 76.8693V77.892C134 77.8835 133.922 77.8707 133.799 77.8537C133.68 77.8338 133.554 77.8239 133.42 77.8239C133.102 77.8239 132.818 77.8906 132.568 78.0241C132.321 78.1548 132.125 78.3366 131.98 78.5696C131.838 78.7997 131.767 79.0625 131.767 79.358V83.5H130.761ZM135.226 83.5V76.9545H136.232V83.5H135.226ZM135.737 75.8636C135.541 75.8636 135.372 75.7969 135.23 75.6634C135.091 75.5298 135.021 75.3693 135.021 75.1818C135.021 74.9943 135.091 74.8338 135.23 74.7003C135.372 74.5668 135.541 74.5 135.737 74.5C135.933 74.5 136.101 74.5668 136.24 74.7003C136.382 74.8338 136.453 74.9943 136.453 75.1818C136.453 75.3693 136.382 75.5298 136.24 75.6634C136.101 75.7969 135.933 75.8636 135.737 75.8636ZM138.074 85.9545V76.9545H139.045V77.9943H139.164C139.238 77.8807 139.341 77.7358 139.471 77.5597C139.605 77.3807 139.795 77.2216 140.042 77.0824C140.292 76.9403 140.63 76.8693 141.056 76.8693C141.608 76.8693 142.093 77.0071 142.514 77.2827C142.934 77.5582 143.262 77.9489 143.498 78.4545C143.734 78.9602 143.852 79.5568 143.852 80.2443C143.852 80.9375 143.734 81.5384 143.498 82.0469C143.262 82.5526 142.936 82.9446 142.518 83.223C142.101 83.4986 141.619 83.6364 141.074 83.6364C140.653 83.6364 140.316 83.5668 140.064 83.4276C139.811 83.2855 139.616 83.125 139.48 82.946C139.343 82.7642 139.238 82.6136 139.164 82.4943H139.079V85.9545H138.074ZM139.062 80.2273C139.062 80.7216 139.135 81.1577 139.279 81.5355C139.424 81.9105 139.636 82.2045 139.914 82.4176C140.193 82.6278 140.534 82.733 140.937 82.733C141.358 82.733 141.708 82.6222 141.99 82.4006C142.274 82.1761 142.487 81.875 142.629 81.4972C142.774 81.1165 142.846 80.6932 142.846 80.2273C142.846 79.767 142.775 79.3523 142.633 78.983C142.494 78.6108 142.282 78.3168 141.998 78.1009C141.717 77.8821 141.363 77.7727 140.937 77.7727C140.528 77.7727 140.184 77.8764 139.906 78.0838C139.628 78.2884 139.417 78.5753 139.275 78.9446C139.133 79.3111 139.062 79.7386 139.062 80.2273ZM148.233 76.9545V77.8068H144.841V76.9545H148.233ZM145.829 75.3864H146.835V81.625C146.835 81.9091 146.876 82.1222 146.958 82.2642C147.044 82.4034 147.152 82.4972 147.282 82.5455C147.416 82.5909 147.556 82.6136 147.704 82.6136C147.815 82.6136 147.906 82.608 147.977 82.5966C148.048 82.5824 148.105 82.571 148.147 82.5625L148.352 83.4659C148.284 83.4915 148.189 83.517 148.066 83.5426C147.944 83.571 147.789 83.5852 147.602 83.5852C147.318 83.5852 147.039 83.5241 146.767 83.402C146.497 83.2798 146.272 83.0938 146.093 82.8438C145.917 82.5938 145.829 82.2784 145.829 81.8977V75.3864Z" fill="#768395"/>
<rect x="161.2" y="68" width="67" height="22" rx="11" fill="#388BFD" fill-opacity="0.101961"/>
<path d="M179.62 79.1364C179.62 80.0568 179.454 80.8523 179.122 81.5227C178.789 82.1932 178.333 82.7102 177.754 83.0739C177.174 83.4375 176.512 83.6193 175.768 83.6193C175.024 83.6193 174.362 83.4375 173.782 83.0739C173.203 82.7102 172.747 82.1932 172.414 81.5227C172.082 80.8523 171.916 80.0568 171.916 79.1364C171.916 78.2159 172.082 77.4205 172.414 76.75C172.747 76.0795 173.203 75.5625 173.782 75.1989C174.362 74.8352 175.024 74.6534 175.768 74.6534C176.512 74.6534 177.174 74.8352 177.754 75.1989C178.333 75.5625 178.789 76.0795 179.122 76.75C179.454 77.4205 179.62 78.2159 179.62 79.1364ZM178.598 79.1364C178.598 78.3807 178.471 77.7429 178.218 77.223C177.968 76.7031 177.629 76.3097 177.2 76.0426C176.774 75.7756 176.297 75.642 175.768 75.642C175.24 75.642 174.761 75.7756 174.332 76.0426C173.906 76.3097 173.566 76.7031 173.314 77.223C173.064 77.7429 172.939 78.3807 172.939 79.1364C172.939 79.892 173.064 80.5298 173.314 81.0497C173.566 81.5696 173.906 81.9631 174.332 82.2301C174.761 82.4972 175.24 82.6307 175.768 82.6307C176.297 82.6307 176.774 82.4972 177.2 82.2301C177.629 81.9631 177.968 81.5696 178.218 81.0497C178.471 80.5298 178.598 79.892 178.598 79.1364ZM181.261 85.9545V76.9545H182.233V77.9943H182.352C182.426 77.8807 182.528 77.7358 182.659 77.5597C182.792 77.3807 182.983 77.2216 183.23 77.0824C183.48 76.9403 183.818 76.8693 184.244 76.8693C184.795 76.8693 185.281 77.0071 185.701 77.2827C186.122 77.5582 186.45 77.9489 186.686 78.4545C186.922 78.9602 187.039 79.5568 187.039 80.2443C187.039 80.9375 186.922 81.5384 186.686 82.0469C186.45 82.5526 186.123 82.9446 185.706 83.223C185.288 83.4986 184.806 83.6364 184.261 83.6364C183.841 83.6364 183.504 83.5668 183.251 83.4276C182.998 83.2855 182.804 83.125 182.667 82.946C182.531 82.7642 182.426 82.6136 182.352 82.4943H182.267V85.9545H181.261ZM182.25 80.2273C182.25 80.7216 182.322 81.1577 182.467 81.5355C182.612 81.9105 182.824 82.2045 183.102 82.4176C183.38 82.6278 183.721 82.733 184.125 82.733C184.545 82.733 184.896 82.6222 185.177 82.4006C185.461 82.1761 185.674 81.875 185.816 81.4972C185.961 81.1165 186.034 80.6932 186.034 80.2273C186.034 79.767 185.963 79.3523 185.821 78.983C185.681 78.6108 185.47 78.3168 185.186 78.1009C184.904 77.8821 184.551 77.7727 184.125 77.7727C183.716 77.7727 183.372 77.8764 183.093 78.0838C182.815 78.2884 182.605 78.5753 182.463 78.9446C182.321 79.3111 182.25 79.7386 182.25 80.2273ZM191.318 83.6364C190.687 83.6364 190.143 83.4972 189.686 83.2188C189.231 82.9375 188.88 82.5455 188.633 82.0426C188.389 81.5369 188.267 80.9489 188.267 80.2784C188.267 79.608 188.389 79.017 188.633 78.5057C188.88 77.9915 189.224 77.5909 189.664 77.304C190.108 77.0142 190.625 76.8693 191.216 76.8693C191.556 76.8693 191.893 76.9261 192.226 77.0398C192.558 77.1534 192.86 77.3381 193.133 77.5938C193.406 77.8466 193.623 78.1818 193.785 78.5994C193.947 79.017 194.028 79.5312 194.028 80.142V80.5682H188.983V79.6989H193.005C193.005 79.3295 192.931 79 192.784 78.7102C192.639 78.4205 192.431 78.1918 192.162 78.0241C191.895 77.8565 191.579 77.7727 191.216 77.7727C190.815 77.7727 190.468 77.8722 190.176 78.071C189.886 78.267 189.663 78.5227 189.507 78.8381C189.351 79.1534 189.272 79.4915 189.272 79.8523V80.4318C189.272 80.9261 189.358 81.3452 189.528 81.6889C189.701 82.0298 189.941 82.2898 190.248 82.4688C190.555 82.6449 190.912 82.733 191.318 82.733C191.582 82.733 191.821 82.696 192.034 82.6222C192.25 82.5455 192.436 82.4318 192.592 82.2812C192.748 82.1278 192.869 81.9375 192.954 81.7102L193.926 81.983C193.824 82.3125 193.652 82.6023 193.41 82.8523C193.169 83.0994 192.87 83.2926 192.515 83.4318C192.16 83.5682 191.761 83.6364 191.318 83.6364ZM196.564 79.5625V83.5H195.558V76.9545H196.529V77.9773H196.615C196.768 77.6449 197.001 77.3778 197.314 77.1761C197.626 76.9716 198.029 76.8693 198.524 76.8693C198.967 76.8693 199.355 76.9602 199.687 77.142C200.02 77.321 200.278 77.5938 200.463 77.9602C200.647 78.3239 200.74 78.7841 200.74 79.3409V83.5H199.734V79.4091C199.734 78.8949 199.601 78.4943 199.333 78.2074C199.066 77.9176 198.7 77.7727 198.234 77.7727C197.913 77.7727 197.626 77.8423 197.373 77.9815C197.123 78.1207 196.926 78.3239 196.781 78.5909C196.636 78.858 196.564 79.1818 196.564 79.5625ZM208.68 77.5C208.586 77.2131 208.462 76.956 208.309 76.7287C208.158 76.4986 207.978 76.3026 207.768 76.1406C207.56 75.9787 207.325 75.8551 207.06 75.7699C206.796 75.6847 206.506 75.642 206.191 75.642C205.674 75.642 205.204 75.7756 204.781 76.0426C204.357 76.3097 204.021 76.7031 203.771 77.223C203.521 77.7429 203.396 78.3807 203.396 79.1364C203.396 79.892 203.522 80.5298 203.775 81.0497C204.028 81.5696 204.37 81.9631 204.802 82.2301C205.234 82.4972 205.719 82.6307 206.259 82.6307C206.759 82.6307 207.2 82.5241 207.58 82.3111C207.964 82.0952 208.262 81.7912 208.475 81.3991C208.691 81.0043 208.799 80.5398 208.799 80.0057L209.123 80.0739H206.498V79.1364H209.822V80.0739C209.822 80.7926 209.668 81.4176 209.362 81.9489C209.058 82.4801 208.637 82.892 208.1 83.1847C207.566 83.4744 206.952 83.6193 206.259 83.6193C205.487 83.6193 204.808 83.4375 204.222 83.0739C203.64 82.7102 203.185 82.1932 202.859 81.5227C202.535 80.8523 202.373 80.0568 202.373 79.1364C202.373 78.446 202.465 77.8253 202.65 77.2741C202.837 76.7202 203.102 76.2486 203.442 75.8594C203.783 75.4702 204.187 75.1719 204.653 74.9645C205.119 74.7571 205.631 74.6534 206.191 74.6534C206.651 74.6534 207.08 74.723 207.478 74.8622C207.879 74.9986 208.235 75.1932 208.548 75.446C208.863 75.696 209.126 75.9957 209.336 76.3452C209.546 76.6918 209.691 77.0767 209.771 77.5H208.68ZM211.632 83.5V74.7727H212.689V82.5625H216.745V83.5H211.632Z" fill="#4493F8"/>
</svg>
