<svg width="416" height="114" viewBox="0 0 416 114" fill="none" xmlns="http://www.w3.org/2000/svg">
<path d="M0 6C0 2.68629 2.68629 0 6 0H410C413.314 0 416 2.68629 416 6V96C416 99.3137 413.314 102 410 102H6C2.68629 102 0 99.3137 0 96V6Z" fill="#768395" fill-opacity="0.1"/>
<path d="M13.0043 26V15.8182H14.8487V24.4538H19.3331V26H13.0043ZM24.2351 26.1491C23.4695 26.1491 22.8082 25.9901 22.2514 25.6719C21.6979 25.3504 21.272 24.8963 20.9737 24.3097C20.6754 23.7197 20.5263 23.0253 20.5263 22.2266C20.5263 21.4411 20.6754 20.7517 20.9737 20.1584C21.2753 19.5618 21.6963 19.0978 22.2365 18.7663C22.7768 18.4316 23.4115 18.2642 24.1406 18.2642C24.6113 18.2642 25.0554 18.3404 25.473 18.4929C25.8939 18.642 26.2652 18.8741 26.5866 19.1889C26.9115 19.5038 27.1667 19.9048 27.3523 20.392C27.5379 20.8759 27.6307 21.4527 27.6307 22.1222V22.674H21.3714V21.4609H25.9055C25.9022 21.1162 25.8277 20.8097 25.6818 20.5412C25.536 20.2694 25.3321 20.0556 25.0703 19.8999C24.8118 19.7441 24.5102 19.6662 24.1655 19.6662C23.7976 19.6662 23.4744 19.7557 23.196 19.9347C22.9176 20.1103 22.7005 20.3423 22.5447 20.6307C22.3923 20.9157 22.3144 21.2289 22.3111 21.5703V22.6293C22.3111 23.0734 22.3923 23.4545 22.5547 23.7727C22.7171 24.0876 22.9441 24.3295 23.2358 24.4986C23.5275 24.6643 23.8688 24.7472 24.2599 24.7472C24.5218 24.7472 24.7588 24.7107 24.9709 24.6378C25.183 24.5616 25.367 24.4505 25.5227 24.3047C25.6785 24.1589 25.7962 23.9782 25.8757 23.7628L27.5561 23.9517C27.45 24.3958 27.2479 24.7836 26.9496 25.1151C26.6546 25.4432 26.2768 25.6984 25.8161 25.8807C25.3554 26.0597 24.8284 26.1491 24.2351 26.1491ZM31.3507 26.1541C30.8668 26.1541 30.4309 26.0679 30.0431 25.8956C29.6587 25.7199 29.3538 25.4614 29.1284 25.12C28.9063 24.7786 28.7953 24.3577 28.7953 23.8572C28.7953 23.4264 28.8748 23.0701 29.0339 22.7884C29.193 22.5066 29.4101 22.2812 29.6852 22.1122C29.9603 21.9432 30.2702 21.8156 30.6149 21.7294C30.9629 21.6399 31.3225 21.5753 31.6937 21.5355C32.1412 21.4891 32.5041 21.4477 32.7825 21.4112C33.0609 21.3714 33.2631 21.3118 33.389 21.2322C33.5183 21.1494 33.5829 21.0218 33.5829 20.8494V20.8196C33.5829 20.4451 33.4719 20.1551 33.2498 19.9496C33.0278 19.7441 32.7079 19.6413 32.2903 19.6413C31.8495 19.6413 31.4998 19.7375 31.2413 19.9297C30.9861 20.1219 30.8137 20.349 30.7243 20.6108L29.0439 20.3722C29.1764 19.9081 29.3952 19.5204 29.7001 19.2088C30.005 18.8939 30.3779 18.6586 30.8187 18.5028C31.2595 18.3438 31.7467 18.2642 32.2804 18.2642C32.6483 18.2642 33.0145 18.3073 33.3791 18.3935C33.7437 18.4796 34.0768 18.6222 34.3784 18.821C34.68 19.0166 34.9219 19.2834 35.1042 19.6214C35.2898 19.9595 35.3826 20.3821 35.3826 20.8892V26H33.6525V24.951H33.5929C33.4835 25.1631 33.3294 25.362 33.1305 25.5476C32.935 25.7299 32.688 25.8774 32.3897 25.9901C32.0948 26.0994 31.7484 26.1541 31.3507 26.1541ZM31.818 24.8317C32.1793 24.8317 32.4925 24.7604 32.7576 24.6179C33.0228 24.4721 33.2266 24.2798 33.3691 24.0412C33.515 23.8026 33.5879 23.5424 33.5879 23.2607V22.3608C33.5315 22.4072 33.4354 22.4503 33.2995 22.4901C33.167 22.5298 33.0178 22.5646 32.8521 22.5945C32.6864 22.6243 32.5223 22.6508 32.3599 22.674C32.1975 22.6972 32.0566 22.7171 31.9373 22.7337C31.6689 22.7701 31.4286 22.8298 31.2164 22.9126C31.0043 22.9955 30.8369 23.1115 30.7143 23.2607C30.5917 23.4065 30.5304 23.5954 30.5304 23.8274C30.5304 24.1589 30.6513 24.4091 30.8933 24.5781C31.1352 24.7472 31.4435 24.8317 31.818 24.8317ZM37.1923 26V18.3636H38.9373V19.6364H39.0169C39.1561 19.1955 39.3947 18.8558 39.7328 18.6172C40.0742 18.3752 40.4636 18.2543 40.9011 18.2543C41.0005 18.2543 41.1116 18.2592 41.2342 18.2692C41.3601 18.2758 41.4645 18.2874 41.5474 18.304V19.9595C41.4712 19.933 41.3502 19.9098 41.1845 19.8899C41.0221 19.8667 40.8646 19.8551 40.7122 19.8551C40.3841 19.8551 40.0891 19.9264 39.8272 20.0689C39.5687 20.2081 39.3649 20.402 39.2157 20.6506C39.0666 20.8991 38.992 21.1858 38.992 21.5107V26H37.1923ZM44.5428 21.5256V26H42.7431V18.3636H44.4632V19.6612H44.5527C44.7284 19.2337 45.0085 18.8939 45.3929 18.642C45.7807 18.3902 46.2596 18.2642 46.8297 18.2642C47.3567 18.2642 47.8158 18.3769 48.2069 18.6023C48.6013 18.8277 48.9062 19.1541 49.1216 19.5817C49.3404 20.0092 49.4481 20.5279 49.4448 21.1378V26H47.6451V21.4162C47.6451 20.9058 47.5125 20.5064 47.2473 20.218C46.9855 19.9297 46.6226 19.7855 46.1586 19.7855C45.8437 19.7855 45.5636 19.8551 45.3184 19.9943C45.0764 20.1302 44.8858 20.3274 44.7466 20.5859C44.6107 20.8445 44.5428 21.1577 44.5428 21.5256ZM51.2743 26V18.3636H53.074V26H51.2743ZM52.1792 17.2798C51.8941 17.2798 51.6489 17.1854 51.4434 16.9964C51.2379 16.8042 51.1351 16.5739 51.1351 16.3054C51.1351 16.0336 51.2379 15.8033 51.4434 15.6143C51.6489 15.4221 51.8941 15.326 52.1792 15.326C52.4675 15.326 52.7128 15.4221 52.915 15.6143C53.1204 15.8033 53.2232 16.0336 53.2232 16.3054C53.2232 16.5739 53.1204 16.8042 52.915 16.9964C52.7128 17.1854 52.4675 17.2798 52.1792 17.2798ZM56.7244 21.5256V26H54.9247V18.3636H56.6449V19.6612H56.7344C56.91 19.2337 57.1901 18.8939 57.5746 18.642C57.9624 18.3902 58.4413 18.2642 59.0114 18.2642C59.5384 18.2642 59.9974 18.3769 60.3885 18.6023C60.7829 18.8277 61.0878 19.1541 61.3033 19.5817C61.522 20.0092 61.6297 20.5279 61.6264 21.1378V26H59.8267V21.4162C59.8267 20.9058 59.6941 20.5064 59.429 20.218C59.1671 19.9297 58.8042 19.7855 58.3402 19.7855C58.0253 19.7855 57.7453 19.8551 57.5 19.9943C57.258 20.1302 57.0675 20.3274 56.9283 20.5859C56.7924 20.8445 56.7244 21.1577 56.7244 21.5256ZM66.777 29.0227C66.1307 29.0227 65.5755 28.9349 65.1115 28.7592C64.6475 28.5869 64.2746 28.3549 63.9929 28.0632C63.7112 27.7715 63.5156 27.4484 63.4062 27.0938L65.027 26.701C65.0999 26.8501 65.206 26.9976 65.3452 27.1435C65.4844 27.2926 65.6716 27.4152 65.907 27.5114C66.1456 27.6108 66.4455 27.6605 66.8068 27.6605C67.3172 27.6605 67.7398 27.5362 68.0746 27.2876C68.4093 27.0424 68.5767 26.638 68.5767 26.0746V24.6278H68.4872C68.3944 24.8134 68.2585 25.004 68.0795 25.1996C67.9039 25.3951 67.6702 25.5592 67.3786 25.6918C67.0902 25.8243 66.7273 25.8906 66.2898 25.8906C65.7031 25.8906 65.1712 25.7531 64.6939 25.478C64.2199 25.1996 63.8421 24.7853 63.5604 24.2351C63.282 23.6816 63.1428 22.9889 63.1428 22.157C63.1428 21.3184 63.282 20.6108 63.5604 20.0341C63.8421 19.4541 64.2216 19.0149 64.6989 18.7166C65.1761 18.415 65.7081 18.2642 66.2947 18.2642C66.7422 18.2642 67.1101 18.3404 67.3984 18.4929C67.6901 18.642 67.9221 18.8227 68.0945 19.0348C68.2668 19.2436 68.3977 19.4408 68.4872 19.6264H68.5866V18.3636H70.3615V26.1243C70.3615 26.7772 70.2057 27.3175 69.8942 27.745C69.5826 28.1726 69.1567 28.4924 68.6165 28.7045C68.0762 28.9167 67.4631 29.0227 66.777 29.0227ZM66.7919 24.4787C67.1731 24.4787 67.4979 24.3859 67.7663 24.2003C68.0348 24.0147 68.2386 23.7479 68.3778 23.3999C68.517 23.0518 68.5866 22.6342 68.5866 22.147C68.5866 21.6664 68.517 21.2455 68.3778 20.8842C68.242 20.523 68.0398 20.2429 67.7713 20.044C67.5062 19.8419 67.1797 19.7408 66.7919 19.7408C66.3909 19.7408 66.0561 19.8452 65.7876 20.054C65.5192 20.2628 65.317 20.5495 65.1811 20.9141C65.0452 21.2753 64.9773 21.6863 64.9773 22.147C64.9773 22.6143 65.0452 23.0237 65.1811 23.375C65.3203 23.723 65.5241 23.9948 65.7926 24.1903C66.0644 24.3826 66.3975 24.4787 66.7919 24.4787ZM84.4734 19.2536H82.614C82.561 18.9486 82.4632 18.6785 82.3207 18.4432C82.1781 18.2045 82.0008 18.0024 81.7887 17.8366C81.5766 17.6709 81.3346 17.5466 81.0629 17.4638C80.7944 17.3776 80.5044 17.3345 80.1928 17.3345C79.6393 17.3345 79.1488 17.4737 78.7212 17.7521C78.2937 18.0272 77.9589 18.4316 77.717 18.9652C77.475 19.4955 77.354 20.1435 77.354 20.9091C77.354 21.688 77.475 22.3442 77.717 22.8778C77.9622 23.4081 78.297 23.8092 78.7212 24.081C79.1488 24.3494 79.6377 24.4837 80.1879 24.4837C80.4928 24.4837 80.7778 24.4439 81.043 24.3643C81.3114 24.2815 81.5517 24.1605 81.7638 24.0014C81.9793 23.8423 82.1599 23.6468 82.3058 23.4148C82.4549 23.1828 82.5576 22.9176 82.614 22.6193L84.4734 22.6293C84.4038 23.1132 84.253 23.5672 84.021 23.9915C83.7923 24.4157 83.4923 24.7902 83.1211 25.1151C82.7499 25.4366 82.3157 25.6884 81.8185 25.8707C81.3214 26.0497 80.7695 26.1392 80.163 26.1392C79.2681 26.1392 78.4693 25.9321 77.7667 25.5178C77.064 25.1035 76.5105 24.5052 76.1062 23.723C75.7018 22.9408 75.4996 22.0028 75.4996 20.9091C75.4996 19.812 75.7035 18.8741 76.1112 18.0952C76.5188 17.313 77.074 16.7147 77.7766 16.3004C78.4793 15.8861 79.2747 15.679 80.163 15.679C80.7298 15.679 81.2567 15.7585 81.744 15.9176C82.2312 16.0767 82.6654 16.3104 83.0465 16.6186C83.4277 16.9235 83.7409 17.2981 83.9862 17.7422C84.2347 18.183 84.3971 18.6868 84.4734 19.2536ZM89.4139 26.1491C88.6681 26.1491 88.0218 25.9851 87.475 25.657C86.9281 25.3288 86.5038 24.8698 86.2022 24.2798C85.9039 23.6899 85.7548 23.0005 85.7548 22.2116C85.7548 21.4228 85.9039 20.7318 86.2022 20.1385C86.5038 19.5452 86.9281 19.0845 87.475 18.7564C88.0218 18.4283 88.6681 18.2642 89.4139 18.2642C90.1596 18.2642 90.8059 18.4283 91.3528 18.7564C91.8997 19.0845 92.3223 19.5452 92.6206 20.1385C92.9222 20.7318 93.073 21.4228 93.073 22.2116C93.073 23.0005 92.9222 23.6899 92.6206 24.2798C92.3223 24.8698 91.8997 25.3288 91.3528 25.657C90.8059 25.9851 90.1596 26.1491 89.4139 26.1491ZM89.4238 24.7074C89.8282 24.7074 90.1663 24.5964 90.438 24.3743C90.7098 24.1489 90.912 23.8473 91.0446 23.4695C91.1805 23.0916 91.2484 22.6707 91.2484 22.2067C91.2484 21.7393 91.1805 21.3168 91.0446 20.9389C90.912 20.5578 90.7098 20.2545 90.438 20.0291C90.1663 19.8037 89.8282 19.6911 89.4238 19.6911C89.0095 19.6911 88.6648 19.8037 88.3897 20.0291C88.118 20.2545 87.9141 20.5578 87.7782 20.9389C87.6457 21.3168 87.5794 21.7393 87.5794 22.2067C87.5794 22.6707 87.6457 23.0916 87.7782 23.4695C87.9141 23.8473 88.118 24.1489 88.3897 24.3743C88.6648 24.5964 89.0095 24.7074 89.4238 24.7074ZM94.6005 26V18.3636H96.3207V19.6612H96.4102C96.5692 19.2237 96.8327 18.8823 97.2006 18.6371C97.5685 18.3885 98.0077 18.2642 98.5181 18.2642C99.0352 18.2642 99.471 18.3902 99.8256 18.642C100.184 18.8906 100.435 19.2304 100.581 19.6612H100.661C100.83 19.237 101.115 18.8989 101.516 18.647C101.92 18.3918 102.399 18.2642 102.953 18.2642C103.655 18.2642 104.229 18.4863 104.673 18.9304C105.117 19.3745 105.339 20.0225 105.339 20.8743V26H103.534V21.1527C103.534 20.6787 103.408 20.3324 103.157 20.1136C102.905 19.8916 102.596 19.7805 102.232 19.7805C101.798 19.7805 101.458 19.9164 101.213 20.1882C100.971 20.4567 100.85 20.8063 100.85 21.2372V26H99.0849V21.0781C99.0849 20.6837 98.9656 20.3688 98.7269 20.1335C98.4916 19.8982 98.1834 19.7805 97.8022 19.7805C97.5437 19.7805 97.3084 19.8468 97.0962 19.9794C96.8841 20.1087 96.7151 20.2926 96.5891 20.5312C96.4632 20.7666 96.4002 21.0417 96.4002 21.3565V26H94.6005ZM107.165 28.8636V18.3636H108.935V19.6264H109.039C109.132 19.4408 109.263 19.2436 109.432 19.0348C109.601 18.8227 109.83 18.642 110.118 18.4929C110.406 18.3404 110.774 18.2642 111.222 18.2642C111.812 18.2642 112.344 18.415 112.818 18.7166C113.295 19.0149 113.673 19.4574 113.951 20.044C114.233 20.6274 114.374 21.3433 114.374 22.1918C114.374 23.0303 114.236 23.7429 113.961 24.3295C113.686 24.9162 113.311 25.3636 112.838 25.6719C112.364 25.9801 111.827 26.1342 111.227 26.1342C110.789 26.1342 110.426 26.0613 110.138 25.9155C109.85 25.7696 109.618 25.594 109.442 25.3885C109.27 25.1797 109.135 24.9825 109.039 24.7969H108.965V28.8636H107.165ZM108.93 22.1818C108.93 22.6757 108.999 23.1082 109.139 23.4794C109.281 23.8506 109.485 24.1406 109.75 24.3494C110.019 24.5549 110.343 24.6577 110.725 24.6577C111.122 24.6577 111.455 24.5516 111.724 24.3395C111.992 24.1241 112.195 23.8307 112.33 23.4595C112.47 23.085 112.539 22.6591 112.539 22.1818C112.539 21.7079 112.471 21.2869 112.335 20.919C112.2 20.5511 111.997 20.2628 111.729 20.054C111.46 19.8452 111.126 19.7408 110.725 19.7408C110.34 19.7408 110.014 19.8419 109.745 20.044C109.477 20.2462 109.273 20.5296 109.134 20.8942C108.998 21.2588 108.93 21.688 108.93 22.1818ZM120.782 22.7884V18.3636H122.582V26H120.837V24.6428H120.757C120.585 25.0703 120.302 25.42 119.907 25.6918C119.516 25.9635 119.034 26.0994 118.46 26.0994C117.96 26.0994 117.517 25.9884 117.133 25.7663C116.752 25.541 116.454 25.2145 116.238 24.7869C116.023 24.3561 115.915 23.8357 115.915 23.2259V18.3636H117.715V22.9474C117.715 23.4313 117.847 23.8158 118.112 24.1009C118.378 24.3859 118.726 24.5284 119.156 24.5284C119.422 24.5284 119.678 24.4638 119.927 24.3345C120.176 24.2053 120.379 24.013 120.539 23.7578C120.701 23.4993 120.782 23.1761 120.782 22.7884ZM128.246 18.3636V19.7557H123.856V18.3636H128.246ZM124.94 16.5341H126.739V23.7031C126.739 23.9451 126.776 24.1307 126.849 24.2599C126.925 24.3859 127.024 24.4721 127.147 24.5185C127.27 24.5649 127.406 24.5881 127.555 24.5881C127.667 24.5881 127.77 24.5798 127.863 24.5632C127.959 24.5466 128.032 24.5317 128.082 24.5185L128.385 25.9254C128.289 25.9586 128.151 25.995 127.972 26.0348C127.797 26.0746 127.581 26.0978 127.326 26.1044C126.875 26.1177 126.469 26.0497 126.108 25.9006C125.747 25.7481 125.46 25.5128 125.248 25.1946C125.039 24.8764 124.936 24.4787 124.94 24.0014V16.5341ZM133.05 26.1491C132.284 26.1491 131.623 25.9901 131.066 25.6719C130.512 25.3504 130.086 24.8963 129.788 24.3097C129.49 23.7197 129.341 23.0253 129.341 22.2266C129.341 21.4411 129.49 20.7517 129.788 20.1584C130.09 19.5618 130.511 19.0978 131.051 18.7663C131.591 18.4316 132.226 18.2642 132.955 18.2642C133.426 18.2642 133.87 18.3404 134.287 18.4929C134.708 18.642 135.08 18.8741 135.401 19.1889C135.726 19.5038 135.981 19.9048 136.167 20.392C136.352 20.8759 136.445 21.4527 136.445 22.1222V22.674H130.186V21.4609H134.72C134.717 21.1162 134.642 20.8097 134.496 20.5412C134.35 20.2694 134.147 20.0556 133.885 19.8999C133.626 19.7441 133.325 19.6662 132.98 19.6662C132.612 19.6662 132.289 19.7557 132.01 19.9347C131.732 20.1103 131.515 20.3423 131.359 20.6307C131.207 20.9157 131.129 21.2289 131.126 21.5703V22.6293C131.126 23.0734 131.207 23.4545 131.369 23.7727C131.532 24.0876 131.759 24.3295 132.05 24.4986C132.342 24.6643 132.683 24.7472 133.074 24.7472C133.336 24.7472 133.573 24.7107 133.785 24.6378C133.997 24.5616 134.181 24.4505 134.337 24.3047C134.493 24.1589 134.611 23.9782 134.69 23.7628L136.371 23.9517C136.265 24.3958 136.062 24.7836 135.764 25.1151C135.469 25.4432 135.091 25.6984 134.631 25.8807C134.17 26.0597 133.643 26.1491 133.05 26.1491ZM137.968 26V18.3636H139.713V19.6364H139.792C139.931 19.1955 140.17 18.8558 140.508 18.6172C140.85 18.3752 141.239 18.2543 141.676 18.2543C141.776 18.2543 141.887 18.2592 142.01 18.2692C142.136 18.2758 142.24 18.2874 142.323 18.304V19.9595C142.247 19.933 142.126 19.9098 141.96 19.8899C141.797 19.8667 141.64 19.8551 141.488 19.8551C141.159 19.8551 140.864 19.9264 140.603 20.0689C140.344 20.2081 140.14 20.402 139.991 20.6506C139.842 20.8991 139.767 21.1858 139.767 21.5107V26H137.968ZM153.892 19.0696C153.809 18.8011 153.694 18.5608 153.549 18.3487C153.406 18.1333 153.234 17.9493 153.032 17.7969C152.833 17.6444 152.604 17.5301 152.346 17.4538C152.087 17.3743 151.805 17.3345 151.5 17.3345C150.953 17.3345 150.466 17.4721 150.039 17.7472C149.611 18.0223 149.275 18.4266 149.029 18.9602C148.788 19.4905 148.667 20.1368 148.667 20.8991C148.667 21.6681 148.788 22.3194 149.029 22.853C149.271 23.3866 149.608 23.7926 150.039 24.071C150.47 24.3461 150.97 24.4837 151.54 24.4837C152.057 24.4837 152.505 24.3842 152.882 24.1854C153.264 23.9865 153.557 23.7048 153.762 23.3402C153.968 22.9723 154.071 22.5414 154.071 22.0476L154.488 22.1122H151.724V20.6705H155.855V21.8935C155.855 22.7652 155.67 23.5192 155.299 24.1555C154.927 24.7919 154.417 25.2824 153.767 25.6271C153.118 25.9685 152.372 26.1392 151.53 26.1392C150.592 26.1392 149.769 25.9287 149.059 25.5078C148.353 25.0836 147.801 24.482 147.404 23.7031C147.009 22.9209 146.812 21.9929 146.812 20.919C146.812 20.0971 146.928 19.3629 147.16 18.7166C147.395 18.0703 147.724 17.5218 148.145 17.071C148.565 16.617 149.059 16.2723 149.626 16.0369C150.193 15.7983 150.809 15.679 151.475 15.679C152.039 15.679 152.564 15.7618 153.051 15.9276C153.539 16.09 153.971 16.322 154.349 16.6236C154.73 16.9252 155.043 17.2831 155.289 17.6974C155.534 18.1117 155.695 18.5691 155.771 19.0696H153.892ZM157.559 26V18.3636H159.305V19.6364H159.384C159.523 19.1955 159.762 18.8558 160.1 18.6172C160.441 18.3752 160.831 18.2543 161.268 18.2543C161.368 18.2543 161.479 18.2592 161.601 18.2692C161.727 18.2758 161.832 18.2874 161.915 18.304V19.9595C161.838 19.933 161.717 19.9098 161.552 19.8899C161.389 19.8667 161.232 19.8551 161.079 19.8551C160.751 19.8551 160.456 19.9264 160.194 20.0689C159.936 20.2081 159.732 20.402 159.583 20.6506C159.434 20.8991 159.359 21.1858 159.359 21.5107V26H157.559ZM165.171 26.1541C164.687 26.1541 164.251 26.0679 163.863 25.8956C163.479 25.7199 163.174 25.4614 162.949 25.12C162.727 24.7786 162.616 24.3577 162.616 23.8572C162.616 23.4264 162.695 23.0701 162.854 22.7884C163.013 22.5066 163.23 22.2812 163.506 22.1122C163.781 21.9432 164.09 21.8156 164.435 21.7294C164.783 21.6399 165.143 21.5753 165.514 21.5355C165.961 21.4891 166.324 21.4477 166.603 21.4112C166.881 21.3714 167.083 21.3118 167.209 21.2322C167.339 21.1494 167.403 21.0218 167.403 20.8494V20.8196C167.403 20.4451 167.292 20.1551 167.07 19.9496C166.848 19.7441 166.528 19.6413 166.111 19.6413C165.67 19.6413 165.32 19.7375 165.062 19.9297C164.806 20.1219 164.634 20.349 164.545 20.6108L162.864 20.3722C162.997 19.9081 163.215 19.5204 163.52 19.2088C163.825 18.8939 164.198 18.6586 164.639 18.5028C165.08 18.3438 165.567 18.2642 166.101 18.2642C166.469 18.2642 166.835 18.3073 167.199 18.3935C167.564 18.4796 167.897 18.6222 168.199 18.821C168.5 19.0166 168.742 19.2834 168.925 19.6214C169.11 19.9595 169.203 20.3821 169.203 20.8892V26H167.473V24.951H167.413C167.304 25.1631 167.15 25.362 166.951 25.5476C166.755 25.7299 166.508 25.8774 166.21 25.9901C165.915 26.0994 165.569 26.1541 165.171 26.1541ZM165.638 24.8317C166 24.8317 166.313 24.7604 166.578 24.6179C166.843 24.4721 167.047 24.2798 167.189 24.0412C167.335 23.8026 167.408 23.5424 167.408 23.2607V22.3608C167.352 22.4072 167.256 22.4503 167.12 22.4901C166.987 22.5298 166.838 22.5646 166.672 22.5945C166.507 22.6243 166.343 22.6508 166.18 22.674C166.018 22.6972 165.877 22.7171 165.758 22.7337C165.489 22.7701 165.249 22.8298 165.037 22.9126C164.825 22.9955 164.657 23.1115 164.535 23.2607C164.412 23.4065 164.351 23.5954 164.351 23.8274C164.351 24.1589 164.472 24.4091 164.714 24.5781C164.956 24.7472 165.264 24.8317 165.638 24.8317ZM171.013 28.8636V18.3636H172.782V19.6264H172.887C172.98 19.4408 173.111 19.2436 173.28 19.0348C173.449 18.8227 173.677 18.642 173.966 18.4929C174.254 18.3404 174.622 18.2642 175.069 18.2642C175.659 18.2642 176.191 18.415 176.665 18.7166C177.143 19.0149 177.52 19.4574 177.799 20.044C178.081 20.6274 178.221 21.3433 178.221 22.1918C178.221 23.0303 178.084 23.7429 177.809 24.3295C177.534 24.9162 177.159 25.3636 176.685 25.6719C176.211 25.9801 175.674 26.1342 175.074 26.1342C174.637 26.1342 174.274 26.0613 173.986 25.9155C173.697 25.7696 173.465 25.594 173.29 25.3885C173.117 25.1797 172.983 24.9825 172.887 24.7969H172.812V28.8636H171.013ZM172.778 22.1818C172.778 22.6757 172.847 23.1082 172.986 23.4794C173.129 23.8506 173.333 24.1406 173.598 24.3494C173.866 24.5549 174.191 24.6577 174.572 24.6577C174.97 24.6577 175.303 24.5516 175.572 24.3395C175.84 24.1241 176.042 23.8307 176.178 23.4595C176.317 23.085 176.387 22.6591 176.387 22.1818C176.387 21.7079 176.319 21.2869 176.183 20.919C176.047 20.5511 175.845 20.2628 175.577 20.054C175.308 19.8452 174.973 19.7408 174.572 19.7408C174.188 19.7408 173.861 19.8419 173.593 20.044C173.324 20.2462 173.121 20.5296 172.981 20.8942C172.845 21.2588 172.778 21.688 172.778 22.1818ZM181.562 21.5256V26H179.763V15.8182H181.523V19.6612H181.612C181.791 19.2304 182.068 18.8906 182.442 18.642C182.82 18.3902 183.301 18.2642 183.884 18.2642C184.414 18.2642 184.877 18.3752 185.271 18.5973C185.666 18.8194 185.97 19.1442 186.186 19.5717C186.405 19.9993 186.514 20.5213 186.514 21.1378V26H184.714V21.4162C184.714 20.9025 184.582 20.5031 184.317 20.218C184.055 19.9297 183.687 19.7855 183.213 19.7855C182.895 19.7855 182.61 19.8551 182.358 19.9943C182.109 20.1302 181.914 20.3274 181.771 20.5859C181.632 20.8445 181.562 21.1577 181.562 21.5256ZM188.349 26V18.3636H190.148V26H188.349ZM189.253 17.2798C188.968 17.2798 188.723 17.1854 188.518 16.9964C188.312 16.8042 188.209 16.5739 188.209 16.3054C188.209 16.0336 188.312 15.8033 188.518 15.6143C188.723 15.4221 188.968 15.326 189.253 15.326C189.542 15.326 189.787 15.4221 189.989 15.6143C190.195 15.8033 190.297 16.0336 190.297 16.3054C190.297 16.5739 190.195 16.8042 189.989 16.9964C189.787 17.1854 189.542 17.2798 189.253 17.2798ZM195.33 26.1491C194.568 26.1491 193.913 25.9818 193.366 25.647C192.823 25.3123 192.403 24.8499 192.108 24.2599C191.817 23.6667 191.671 22.9839 191.671 22.2116C191.671 21.4361 191.82 20.7517 192.118 20.1584C192.417 19.5618 192.837 19.0978 193.381 18.7663C193.928 18.4316 194.574 18.2642 195.32 18.2642C195.94 18.2642 196.488 18.3786 196.966 18.6072C197.446 18.8326 197.829 19.1525 198.114 19.5668C198.399 19.9777 198.561 20.4583 198.601 21.0085H196.881C196.811 20.6406 196.646 20.334 196.384 20.0888C196.125 19.8402 195.779 19.7159 195.345 19.7159C194.977 19.7159 194.654 19.8153 194.375 20.0142C194.097 20.2098 193.88 20.4915 193.724 20.8594C193.572 21.2273 193.495 21.6681 193.495 22.1818C193.495 22.7022 193.572 23.1496 193.724 23.5241C193.877 23.8954 194.09 24.1821 194.365 24.3842C194.644 24.5831 194.97 24.6825 195.345 24.6825C195.61 24.6825 195.847 24.6328 196.056 24.5334C196.268 24.4306 196.445 24.2831 196.588 24.0909C196.73 23.8987 196.828 23.665 196.881 23.3899H198.601C198.558 23.9302 198.399 24.4091 198.124 24.8267C197.849 25.241 197.474 25.5658 197 25.8011C196.526 26.0331 195.97 26.1491 195.33 26.1491ZM206.115 20.3821L204.474 20.5611C204.427 20.3954 204.346 20.2396 204.23 20.0938C204.118 19.9479 203.965 19.8303 203.773 19.7408C203.581 19.6513 203.345 19.6065 203.067 19.6065C202.692 19.6065 202.378 19.6877 202.122 19.8501C201.87 20.0125 201.746 20.223 201.749 20.4815C201.746 20.7036 201.827 20.8842 201.993 21.0234C202.162 21.1626 202.441 21.277 202.828 21.3665L204.131 21.6449C204.853 21.8007 205.39 22.0476 205.742 22.3857C206.096 22.7237 206.275 23.1662 206.279 23.7131C206.275 24.1937 206.134 24.6179 205.856 24.9858C205.581 25.3504 205.198 25.6354 204.708 25.8409C204.217 26.0464 203.654 26.1491 203.017 26.1491C202.083 26.1491 201.33 25.9536 200.76 25.5625C200.19 25.1681 199.85 24.6196 199.741 23.9169L201.496 23.7479C201.575 24.0926 201.744 24.3527 202.003 24.5284C202.262 24.7041 202.598 24.7919 203.012 24.7919C203.44 24.7919 203.783 24.7041 204.041 24.5284C204.303 24.3527 204.434 24.1357 204.434 23.8771C204.434 23.6584 204.35 23.4777 204.181 23.3352C204.015 23.1927 203.756 23.0833 203.405 23.0071L202.102 22.7337C201.37 22.5812 200.828 22.3243 200.477 21.9631C200.125 21.5985 199.951 21.1378 199.955 20.581C199.951 20.1103 200.079 19.7027 200.338 19.358C200.599 19.0099 200.962 18.7415 201.426 18.5526C201.894 18.3603 202.432 18.2642 203.042 18.2642C203.937 18.2642 204.641 18.4548 205.155 18.8359C205.672 19.2171 205.992 19.7325 206.115 20.3821Z" fill="#4493F8"/>
<path d="M18.7841 44.2727H19.8409V50.0511C19.8409 50.6477 19.7003 51.1804 19.419 51.6491C19.1406 52.1151 18.7472 52.483 18.2386 52.7528C17.7301 53.0199 17.1335 53.1534 16.4489 53.1534C15.7642 53.1534 15.1676 53.0199 14.6591 52.7528C14.1506 52.483 13.7557 52.1151 13.4744 51.6491C13.196 51.1804 13.0568 50.6477 13.0568 50.0511V44.2727H14.1136V49.9659C14.1136 50.392 14.2074 50.7713 14.3949 51.1037C14.5824 51.4332 14.8494 51.6932 15.196 51.8835C15.5455 52.071 15.9631 52.1648 16.4489 52.1648C16.9347 52.1648 17.3523 52.071 17.7017 51.8835C18.0511 51.6932 18.3182 51.4332 18.5028 51.1037C18.6903 50.7713 18.7841 50.392 18.7841 49.9659V44.2727ZM22.8207 49.0625V53H21.815V46.4545H22.7866V47.4773H22.8718C23.0252 47.1449 23.2582 46.8778 23.5707 46.6761C23.8832 46.4716 24.2866 46.3693 24.7809 46.3693C25.2241 46.3693 25.6119 46.4602 25.9442 46.642C26.2766 46.821 26.5352 47.0938 26.7198 47.4602C26.9045 47.8239 26.9968 48.2841 26.9968 48.8409V53H25.9911V48.9091C25.9911 48.3949 25.8576 47.9943 25.5906 47.7074C25.3235 47.4176 24.957 47.2727 24.4911 47.2727C24.1701 47.2727 23.8832 47.3423 23.6303 47.4815C23.3803 47.6207 23.1829 47.8239 23.038 48.0909C22.8931 48.358 22.8207 48.6818 22.8207 49.0625ZM31.3061 53.1364C30.7607 53.1364 30.2791 52.9986 29.8615 52.723C29.4439 52.4446 29.1172 52.0526 28.8814 51.5469C28.6456 51.0384 28.5277 50.4375 28.5277 49.7443C28.5277 49.0568 28.6456 48.4602 28.8814 47.9545C29.1172 47.4489 29.4453 47.0582 29.8658 46.7827C30.2862 46.5071 30.772 46.3693 31.3232 46.3693C31.7493 46.3693 32.0859 46.4403 32.3331 46.5824C32.5831 46.7216 32.7734 46.8807 32.9041 47.0597C33.0376 47.2358 33.1413 47.3807 33.2152 47.4943H33.3004V44.2727H34.3061V53H33.3345V51.9943H33.2152C33.1413 52.1136 33.0362 52.2642 32.8999 52.446C32.7635 52.625 32.5689 52.7855 32.3161 52.9276C32.0632 53.0668 31.7266 53.1364 31.3061 53.1364ZM31.4425 52.233C31.8459 52.233 32.1868 52.1278 32.4652 51.9176C32.7436 51.7045 32.9553 51.4105 33.1001 51.0355C33.245 50.6577 33.3175 50.2216 33.3175 49.7273C33.3175 49.2386 33.2464 48.8111 33.1044 48.4446C32.9624 48.0753 32.7521 47.7884 32.4737 47.5838C32.1953 47.3764 31.8516 47.2727 31.4425 47.2727C31.0163 47.2727 30.6612 47.3821 30.3771 47.6009C30.0959 47.8168 29.8842 48.1108 29.7422 48.483C29.603 48.8523 29.5334 49.267 29.5334 49.7273C29.5334 50.1932 29.6044 50.6165 29.7464 50.9972C29.8913 51.375 30.1044 51.6761 30.3857 51.9006C30.6697 52.1222 31.022 52.233 31.4425 52.233ZM39.032 53.1364C38.4013 53.1364 37.8572 52.9972 37.3999 52.7188C36.9453 52.4375 36.5945 52.0455 36.3473 51.5426C36.103 51.0369 35.9808 50.4489 35.9808 49.7784C35.9808 49.108 36.103 48.517 36.3473 48.0057C36.5945 47.4915 36.9382 47.0909 37.3786 46.804C37.8217 46.5142 38.3388 46.3693 38.9297 46.3693C39.2706 46.3693 39.6072 46.4261 39.9396 46.5398C40.272 46.6534 40.5746 46.8381 40.8473 47.0938C41.12 47.3466 41.3374 47.6818 41.4993 48.0994C41.6612 48.517 41.7422 49.0312 41.7422 49.642V50.0682H36.6967V49.1989H40.7195C40.7195 48.8295 40.6456 48.5 40.4979 48.2102C40.353 47.9205 40.1456 47.6918 39.8757 47.5241C39.6087 47.3565 39.2933 47.2727 38.9297 47.2727C38.5291 47.2727 38.1825 47.3722 37.8899 47.571C37.6001 47.767 37.3771 48.0227 37.2209 48.3381C37.0646 48.6534 36.9865 48.9915 36.9865 49.3523V49.9318C36.9865 50.4261 37.0717 50.8452 37.2422 51.1889C37.4155 51.5298 37.6555 51.7898 37.9624 51.9688C38.2692 52.1449 38.6257 52.233 39.032 52.233C39.2962 52.233 39.5348 52.196 39.7479 52.1222C39.9638 52.0455 40.1499 51.9318 40.3061 51.7812C40.4624 51.6278 40.5831 51.4375 40.6683 51.2102L41.6399 51.483C41.5376 51.8125 41.3658 52.1023 41.1243 52.3523C40.8828 52.5994 40.5845 52.7926 40.2294 52.9318C39.8743 53.0682 39.4751 53.1364 39.032 53.1364ZM43.272 53V46.4545H44.2436V47.4432H44.3118C44.4311 47.1193 44.647 46.8565 44.9595 46.6548C45.272 46.4531 45.6243 46.3523 46.0163 46.3523C46.0902 46.3523 46.1825 46.3537 46.2933 46.3565C46.4041 46.3594 46.4879 46.3636 46.5447 46.3693V47.392C46.5107 47.3835 46.4325 47.3707 46.3104 47.3537C46.1911 47.3338 46.0646 47.3239 45.9311 47.3239C45.6129 47.3239 45.3288 47.3906 45.0788 47.5241C44.8317 47.6548 44.6357 47.8366 44.4908 48.0696C44.3487 48.2997 44.2777 48.5625 44.2777 48.858V53H43.272ZM52.3732 47.9205L51.4698 48.1761C51.413 48.0256 51.3292 47.8793 51.2184 47.7372C51.1104 47.5923 50.9627 47.473 50.7752 47.3793C50.5877 47.2855 50.3477 47.2386 50.055 47.2386C49.6545 47.2386 49.3207 47.331 49.0536 47.5156C48.7894 47.6974 48.6573 47.929 48.6573 48.2102C48.6573 48.4602 48.7482 48.6577 48.93 48.8026C49.1119 48.9474 49.396 49.0682 49.7823 49.1648L50.7539 49.4034C51.3391 49.5455 51.7752 49.7628 52.0621 50.0554C52.3491 50.3452 52.4925 50.7187 52.4925 51.1761C52.4925 51.5511 52.3846 51.8864 52.1687 52.1818C51.9556 52.4773 51.6573 52.7102 51.2738 52.8807C50.8903 53.0511 50.4442 53.1364 49.9357 53.1364C49.2681 53.1364 48.7156 52.9915 48.2781 52.7017C47.8406 52.4119 47.5636 51.9886 47.4471 51.4318L48.4016 51.1932C48.4925 51.5455 48.6644 51.8097 48.9173 51.9858C49.1729 52.1619 49.5067 52.25 49.9187 52.25C50.3874 52.25 50.7596 52.1506 51.0352 51.9517C51.3136 51.75 51.4528 51.5085 51.4528 51.2273C51.4528 51 51.3732 50.8097 51.2141 50.6562C51.055 50.5 50.8107 50.3835 50.4812 50.3068L49.3903 50.0511C48.7908 49.9091 48.3505 49.6889 48.0692 49.3906C47.7908 49.0895 47.6516 48.7131 47.6516 48.2614C47.6516 47.892 47.7553 47.5653 47.9627 47.2812C48.1729 46.9972 48.4585 46.7741 48.8192 46.6122C49.1829 46.4503 49.5948 46.3693 50.055 46.3693C50.7028 46.3693 51.2113 46.5114 51.5806 46.7955C51.9528 47.0795 52.217 47.4545 52.3732 47.9205ZM56.853 46.4545V47.3068H53.4609V46.4545H56.853ZM54.4496 44.8864H55.4553V51.125C55.4553 51.4091 55.4964 51.6222 55.5788 51.7642C55.6641 51.9034 55.772 51.9972 55.9027 52.0455C56.0362 52.0909 56.1768 52.1136 56.3246 52.1136C56.4354 52.1136 56.5263 52.108 56.5973 52.0966C56.6683 52.0824 56.7251 52.071 56.7678 52.0625L56.9723 52.9659C56.9041 52.9915 56.8089 53.017 56.6868 53.0426C56.5646 53.071 56.4098 53.0852 56.2223 53.0852C55.9382 53.0852 55.6598 53.0241 55.3871 52.902C55.1172 52.7798 54.8928 52.5938 54.7138 52.3438C54.5376 52.0938 54.4496 51.7784 54.4496 51.3977V44.8864ZM60.2919 53.1534C59.8771 53.1534 59.5007 53.0753 59.1626 52.919C58.8246 52.7599 58.5561 52.5312 58.3572 52.233C58.1584 51.9318 58.0589 51.5682 58.0589 51.142C58.0589 50.767 58.1328 50.4631 58.2805 50.2301C58.4283 49.9943 58.6257 49.8097 58.8729 49.6761C59.12 49.5426 59.3928 49.4432 59.6911 49.3778C59.9922 49.3097 60.2947 49.2557 60.5987 49.2159C60.9964 49.1648 61.3189 49.1264 61.5661 49.1009C61.8161 49.0724 61.9979 49.0256 62.1115 48.9602C62.228 48.8949 62.2862 48.7812 62.2862 48.6193V48.5852C62.2862 48.1648 62.1712 47.8381 61.9411 47.6051C61.7138 47.3722 61.3686 47.2557 60.9055 47.2557C60.4254 47.2557 60.049 47.3608 59.7763 47.571C59.5036 47.7812 59.3118 48.0057 59.201 48.2443L58.2464 47.9034C58.4169 47.5057 58.6442 47.196 58.9283 46.9744C59.2152 46.75 59.5277 46.5937 59.8658 46.5057C60.2067 46.4148 60.5419 46.3693 60.8714 46.3693C61.0817 46.3693 61.3232 46.3949 61.5959 46.446C61.8714 46.4943 62.1371 46.5952 62.3928 46.7486C62.6513 46.902 62.8658 47.1335 63.0362 47.4432C63.2067 47.7528 63.2919 48.1676 63.2919 48.6875V53H62.2862V52.1136H62.2351C62.1669 52.2557 62.0533 52.4077 61.8942 52.5696C61.7351 52.7315 61.5234 52.8693 61.2592 52.983C60.995 53.0966 60.6726 53.1534 60.2919 53.1534ZM60.4453 52.25C60.843 52.25 61.1783 52.1719 61.451 52.0156C61.7266 51.8594 61.9339 51.6577 62.0732 51.4105C62.2152 51.1634 62.2862 50.9034 62.2862 50.6307V49.7102C62.2436 49.7614 62.1499 49.8082 62.005 49.8509C61.8629 49.8906 61.6982 49.9261 61.5107 49.9574C61.326 49.9858 61.1456 50.0114 60.9695 50.0341C60.7962 50.054 60.6555 50.071 60.5476 50.0852C60.2862 50.1193 60.0419 50.1747 59.8146 50.2514C59.5902 50.3253 59.4084 50.4375 59.2692 50.5881C59.1328 50.7358 59.0646 50.9375 59.0646 51.1932C59.0646 51.5426 59.1939 51.8068 59.4524 51.9858C59.7138 52.1619 60.0447 52.25 60.4453 52.25ZM66.1332 49.0625V53H65.1275V46.4545H66.0991V47.4773H66.1843C66.3377 47.1449 66.5707 46.8778 66.8832 46.6761C67.1957 46.4716 67.5991 46.3693 68.0934 46.3693C68.5366 46.3693 68.9244 46.4602 69.2567 46.642C69.5891 46.821 69.8477 47.0938 70.0323 47.4602C70.217 47.8239 70.3093 48.2841 70.3093 48.8409V53H69.3036V48.9091C69.3036 48.3949 69.1701 47.9943 68.9031 47.7074C68.636 47.4176 68.2695 47.2727 67.8036 47.2727C67.4826 47.2727 67.1957 47.3423 66.9428 47.4815C66.6928 47.6207 66.4954 47.8239 66.3505 48.0909C66.2056 48.358 66.1332 48.6818 66.1332 49.0625ZM74.6186 53.1364C74.0732 53.1364 73.5916 52.9986 73.174 52.723C72.7564 52.4446 72.4297 52.0526 72.1939 51.5469C71.9581 51.0384 71.8402 50.4375 71.8402 49.7443C71.8402 49.0568 71.9581 48.4602 72.1939 47.9545C72.4297 47.4489 72.7578 47.0582 73.1783 46.7827C73.5987 46.5071 74.0845 46.3693 74.6357 46.3693C75.0618 46.3693 75.3984 46.4403 75.6456 46.5824C75.8956 46.7216 76.0859 46.8807 76.2166 47.0597C76.3501 47.2358 76.4538 47.3807 76.5277 47.4943H76.6129V44.2727H77.6186V53H76.647V51.9943H76.5277C76.4538 52.1136 76.3487 52.2642 76.2124 52.446C76.076 52.625 75.8814 52.7855 75.6286 52.9276C75.3757 53.0668 75.0391 53.1364 74.6186 53.1364ZM74.755 52.233C75.1584 52.233 75.4993 52.1278 75.7777 51.9176C76.0561 51.7045 76.2678 51.4105 76.4126 51.0355C76.5575 50.6577 76.63 50.2216 76.63 49.7273C76.63 49.2386 76.5589 48.8111 76.4169 48.4446C76.2749 48.0753 76.0646 47.7884 75.7862 47.5838C75.5078 47.3764 75.1641 47.2727 74.755 47.2727C74.3288 47.2727 73.9737 47.3821 73.6896 47.6009C73.4084 47.8168 73.1967 48.1108 73.0547 48.483C72.9155 48.8523 72.8459 49.267 72.8459 49.7273C72.8459 50.1932 72.9169 50.6165 73.0589 50.9972C73.2038 51.375 73.4169 51.6761 73.6982 51.9006C73.9822 52.1222 74.3345 52.233 74.755 52.233ZM79.6001 53V46.4545H80.6058V53H79.6001ZM80.1115 45.3636C79.9155 45.3636 79.7464 45.2969 79.6044 45.1634C79.4652 45.0298 79.3956 44.8693 79.3956 44.6818C79.3956 44.4943 79.4652 44.3338 79.6044 44.2003C79.7464 44.0668 79.9155 44 80.1115 44C80.3075 44 80.4751 44.0668 80.6143 44.2003C80.7564 44.3338 80.8274 44.4943 80.8274 44.6818C80.8274 44.8693 80.7564 45.0298 80.6143 45.1634C80.4751 45.2969 80.3075 45.3636 80.1115 45.3636ZM83.4535 49.0625V53H82.4478V46.4545H83.4194V47.4773H83.5046C83.658 47.1449 83.891 46.8778 84.2035 46.6761C84.516 46.4716 84.9194 46.3693 85.4137 46.3693C85.8569 46.3693 86.2447 46.4602 86.5771 46.642C86.9094 46.821 87.168 47.0938 87.3526 47.4602C87.5373 47.8239 87.6296 48.2841 87.6296 48.8409V53H86.6239V48.9091C86.6239 48.3949 86.4904 47.9943 86.2234 47.7074C85.9563 47.4176 85.5898 47.2727 85.1239 47.2727C84.8029 47.2727 84.516 47.3423 84.2631 47.4815C84.0131 47.6207 83.8157 47.8239 83.6708 48.0909C83.5259 48.358 83.4535 48.6818 83.4535 49.0625ZM92.1094 55.5909C91.6236 55.5909 91.206 55.5284 90.8565 55.4034C90.5071 55.2812 90.2159 55.1193 89.983 54.9176C89.7528 54.7188 89.5696 54.5057 89.4332 54.2784L90.2344 53.7159C90.3253 53.8352 90.4403 53.9716 90.5795 54.125C90.7188 54.2812 90.9091 54.4162 91.1506 54.5298C91.3949 54.6463 91.7145 54.7045 92.1094 54.7045C92.6378 54.7045 93.0739 54.5767 93.4176 54.321C93.7614 54.0653 93.9332 53.6648 93.9332 53.1193V51.7898H93.848C93.7741 51.9091 93.669 52.0568 93.5327 52.233C93.3991 52.4062 93.206 52.5611 92.9531 52.6974C92.7031 52.831 92.3651 52.8977 91.9389 52.8977C91.4105 52.8977 90.9361 52.7727 90.5156 52.5227C90.098 52.2727 89.767 51.9091 89.5227 51.4318C89.2813 50.9545 89.1605 50.375 89.1605 49.6932C89.1605 49.0227 89.2784 48.4389 89.5142 47.9418C89.75 47.4418 90.0781 47.0554 90.4986 46.7827C90.919 46.5071 91.4048 46.3693 91.956 46.3693C92.3821 46.3693 92.7202 46.4403 92.9702 46.5824C93.223 46.7216 93.4162 46.8807 93.5497 47.0597C93.6861 47.2358 93.7912 47.3807 93.8651 47.4943H93.9673V46.4545H94.9389V53.1875C94.9389 53.75 94.8111 54.2074 94.5554 54.5597C94.3026 54.9148 93.9616 55.1747 93.5327 55.3395C93.1065 55.5071 92.6321 55.5909 92.1094 55.5909ZM92.0753 51.9943C92.4787 51.9943 92.8196 51.902 93.098 51.7173C93.3764 51.5327 93.5881 51.267 93.733 50.9205C93.8778 50.5739 93.9503 50.1591 93.9503 49.6761C93.9503 49.2045 93.8793 48.7884 93.7372 48.4276C93.5952 48.0668 93.3849 47.7841 93.1065 47.5795C92.8281 47.375 92.4844 47.2727 92.0753 47.2727C91.6491 47.2727 91.294 47.3807 91.0099 47.5966C90.7287 47.8125 90.517 48.1023 90.375 48.4659C90.2358 48.8295 90.1662 49.233 90.1662 49.6761C90.1662 50.1307 90.2372 50.5327 90.3793 50.8821C90.5241 51.2287 90.7372 51.5014 91.0185 51.7003C91.3026 51.8963 91.6548 51.9943 92.0753 51.9943ZM102.081 53.1534C101.666 53.1534 101.29 53.0753 100.952 52.919C100.614 52.7599 100.345 52.5312 100.146 52.233C99.9474 51.9318 99.848 51.5682 99.848 51.142C99.848 50.767 99.9219 50.4631 100.07 50.2301C100.217 49.9943 100.415 49.8097 100.662 49.6761C100.909 49.5426 101.182 49.4432 101.48 49.3778C101.781 49.3097 102.084 49.2557 102.388 49.2159C102.786 49.1648 103.108 49.1264 103.355 49.1009C103.605 49.0724 103.787 49.0256 103.901 48.9602C104.017 48.8949 104.075 48.7812 104.075 48.6193V48.5852C104.075 48.1648 103.96 47.8381 103.73 47.6051C103.503 47.3722 103.158 47.2557 102.695 47.2557C102.214 47.2557 101.838 47.3608 101.565 47.571C101.293 47.7812 101.101 48.0057 100.99 48.2443L100.036 47.9034C100.206 47.5057 100.433 47.196 100.717 46.9744C101.004 46.75 101.317 46.5937 101.655 46.5057C101.996 46.4148 102.331 46.3693 102.661 46.3693C102.871 46.3693 103.112 46.3949 103.385 46.446C103.661 46.4943 103.926 46.5952 104.182 46.7486C104.44 46.902 104.655 47.1335 104.825 47.4432C104.996 47.7528 105.081 48.1676 105.081 48.6875V53H104.075V52.1136H104.024C103.956 52.2557 103.842 52.4077 103.683 52.5696C103.524 52.7315 103.313 52.8693 103.048 52.983C102.784 53.0966 102.462 53.1534 102.081 53.1534ZM102.234 52.25C102.632 52.25 102.967 52.1719 103.24 52.0156C103.516 51.8594 103.723 51.6577 103.862 51.4105C104.004 51.1634 104.075 50.9034 104.075 50.6307V49.7102C104.033 49.7614 103.939 49.8082 103.794 49.8509C103.652 49.8906 103.487 49.9261 103.3 49.9574C103.115 49.9858 102.935 50.0114 102.759 50.0341C102.585 50.054 102.445 50.071 102.337 50.0852C102.075 50.1193 101.831 50.1747 101.604 50.2514C101.379 50.3253 101.197 50.4375 101.058 50.5881C100.922 50.7358 100.854 50.9375 100.854 51.1932C100.854 51.5426 100.983 51.8068 101.241 51.9858C101.503 52.1619 101.834 52.25 102.234 52.25ZM107.922 49.0625V53H106.917V46.4545H107.888V47.4773H107.973C108.127 47.1449 108.36 46.8778 108.672 46.6761C108.985 46.4716 109.388 46.3693 109.882 46.3693C110.326 46.3693 110.713 46.4602 111.046 46.642C111.378 46.821 111.637 47.0938 111.821 47.4602C112.006 47.8239 112.098 48.2841 112.098 48.8409V53H111.093V48.9091C111.093 48.3949 110.959 47.9943 110.692 47.7074C110.425 47.4176 110.059 47.2727 109.593 47.2727C109.272 47.2727 108.985 47.3423 108.732 47.4815C108.482 47.6207 108.284 47.8239 108.14 48.0909C107.995 48.358 107.922 48.6818 107.922 49.0625ZM116.408 53.1364C115.862 53.1364 115.381 52.9986 114.963 52.723C114.545 52.4446 114.219 52.0526 113.983 51.5469C113.747 51.0384 113.629 50.4375 113.629 49.7443C113.629 49.0568 113.747 48.4602 113.983 47.9545C114.219 47.4489 114.547 47.0582 114.967 46.7827C115.388 46.5071 115.874 46.3693 116.425 46.3693C116.851 46.3693 117.188 46.4403 117.435 46.5824C117.685 46.7216 117.875 46.8807 118.006 47.0597C118.139 47.2358 118.243 47.3807 118.317 47.4943H118.402V44.2727H119.408V53H118.436V51.9943H118.317C118.243 52.1136 118.138 52.2642 118.001 52.446C117.865 52.625 117.67 52.7855 117.418 52.9276C117.165 53.0668 116.828 53.1364 116.408 53.1364ZM116.544 52.233C116.947 52.233 117.288 52.1278 117.567 51.9176C117.845 51.7045 118.057 51.4105 118.202 51.0355C118.347 50.6577 118.419 50.2216 118.419 49.7273C118.419 49.2386 118.348 48.8111 118.206 48.4446C118.064 48.0753 117.854 47.7884 117.575 47.5838C117.297 47.3764 116.953 47.2727 116.544 47.2727C116.118 47.2727 115.763 47.3821 115.479 47.6009C115.197 47.8168 114.986 48.1108 114.844 48.483C114.705 48.8523 114.635 49.267 114.635 49.7273C114.635 50.1932 114.706 50.6165 114.848 50.9972C114.993 51.375 115.206 51.6761 115.487 51.9006C115.771 52.1222 116.124 52.233 116.544 52.233ZM124.764 53V46.4545H125.77V53H124.764ZM125.276 45.3636C125.08 45.3636 124.911 45.2969 124.768 45.1634C124.629 45.0298 124.56 44.8693 124.56 44.6818C124.56 44.4943 124.629 44.3338 124.768 44.2003C124.911 44.0668 125.08 44 125.276 44C125.472 44 125.639 44.0668 125.778 44.2003C125.92 44.3338 125.991 44.4943 125.991 44.6818C125.991 44.8693 125.92 45.0298 125.778 45.1634C125.639 45.2969 125.472 45.3636 125.276 45.3636ZM127.612 53V46.4545H128.583V47.4773H128.669C128.805 47.1278 129.025 46.8565 129.329 46.6634C129.633 46.4673 129.998 46.3693 130.424 46.3693C130.856 46.3693 131.216 46.4673 131.502 46.6634C131.792 46.8565 132.018 47.1278 132.18 47.4773H132.248C132.416 47.1392 132.667 46.8707 133.002 46.6719C133.338 46.4702 133.74 46.3693 134.208 46.3693C134.794 46.3693 135.272 46.5526 135.645 46.919C136.017 47.2827 136.203 47.8494 136.203 48.6193V53H135.197V48.6193C135.197 48.1364 135.065 47.7912 134.801 47.5838C134.537 47.3764 134.225 47.2727 133.868 47.2727C133.407 47.2727 133.051 47.4119 132.798 47.6903C132.545 47.9659 132.419 48.3153 132.419 48.7386V53H131.396V48.517C131.396 48.1449 131.275 47.8452 131.034 47.6179C130.792 47.3878 130.481 47.2727 130.1 47.2727C129.839 47.2727 129.595 47.3423 129.368 47.4815C129.143 47.6207 128.961 47.8139 128.822 48.0611C128.686 48.3054 128.618 48.5881 128.618 48.9091V53H127.612ZM138.042 55.4545V46.4545H139.013V47.4943H139.132C139.206 47.3807 139.309 47.2358 139.439 47.0597C139.573 46.8807 139.763 46.7216 140.01 46.5824C140.26 46.4403 140.598 46.3693 141.025 46.3693C141.576 46.3693 142.061 46.5071 142.482 46.7827C142.902 47.0582 143.23 47.4489 143.466 47.9545C143.702 48.4602 143.82 49.0568 143.82 49.7443C143.82 50.4375 143.702 51.0384 143.466 51.5469C143.23 52.0526 142.904 52.4446 142.486 52.723C142.069 52.9986 141.587 53.1364 141.042 53.1364C140.621 53.1364 140.284 53.0668 140.032 52.9276C139.779 52.7855 139.584 52.625 139.448 52.446C139.311 52.2642 139.206 52.1136 139.132 51.9943H139.047V55.4545H138.042ZM139.03 49.7273C139.03 50.2216 139.103 50.6577 139.248 51.0355C139.392 51.4105 139.604 51.7045 139.882 51.9176C140.161 52.1278 140.502 52.233 140.905 52.233C141.326 52.233 141.676 52.1222 141.958 51.9006C142.242 51.6761 142.455 51.375 142.597 50.9972C142.742 50.6165 142.814 50.1932 142.814 49.7273C142.814 49.267 142.743 48.8523 142.601 48.483C142.462 48.1108 142.25 47.8168 141.966 47.6009C141.685 47.3821 141.331 47.2727 140.905 47.2727C140.496 47.2727 140.152 47.3764 139.874 47.5838C139.596 47.7884 139.385 48.0753 139.243 48.4446C139.101 48.8111 139.03 49.2386 139.03 49.7273ZM146.36 44.2727V53H145.354V44.2727H146.36ZM150.946 53.1364C150.315 53.1364 149.771 52.9972 149.314 52.7188C148.859 52.4375 148.509 52.0455 148.261 51.5426C148.017 51.0369 147.895 50.4489 147.895 49.7784C147.895 49.108 148.017 48.517 148.261 48.0057C148.509 47.4915 148.852 47.0909 149.293 46.804C149.736 46.5142 150.253 46.3693 150.844 46.3693C151.185 46.3693 151.521 46.4261 151.854 46.5398C152.186 46.6534 152.489 46.8381 152.761 47.0938C153.034 47.3466 153.251 47.6818 153.413 48.0994C153.575 48.517 153.656 49.0312 153.656 49.642V50.0682H148.611V49.1989H152.634C152.634 48.8295 152.56 48.5 152.412 48.2102C152.267 47.9205 152.06 47.6918 151.79 47.5241C151.523 47.3565 151.207 47.2727 150.844 47.2727C150.443 47.2727 150.097 47.3722 149.804 47.571C149.514 47.767 149.291 48.0227 149.135 48.3381C148.979 48.6534 148.901 48.9915 148.901 49.3523V49.9318C148.901 50.4261 148.986 50.8452 149.156 51.1889C149.33 51.5298 149.57 51.7898 149.876 51.9688C150.183 52.1449 150.54 52.233 150.946 52.233C151.21 52.233 151.449 52.196 151.662 52.1222C151.878 52.0455 152.064 51.9318 152.22 51.7812C152.376 51.6278 152.497 51.4375 152.582 51.2102L153.554 51.483C153.452 51.8125 153.28 52.1023 153.038 52.3523C152.797 52.5994 152.499 52.7926 152.143 52.9318C151.788 53.0682 151.389 53.1364 150.946 53.1364ZM155.186 53V46.4545H156.158V47.4773H156.243C156.379 47.1278 156.599 46.8565 156.903 46.6634C157.207 46.4673 157.572 46.3693 157.999 46.3693C158.43 46.3693 158.79 46.4673 159.077 46.6634C159.366 46.8565 159.592 47.1278 159.754 47.4773H159.822C159.99 47.1392 160.241 46.8707 160.577 46.6719C160.912 46.4702 161.314 46.3693 161.783 46.3693C162.368 46.3693 162.847 46.5526 163.219 46.919C163.591 47.2827 163.777 47.8494 163.777 48.6193V53H162.771V48.6193C162.771 48.1364 162.639 47.7912 162.375 47.5838C162.111 47.3764 161.8 47.2727 161.442 47.2727C160.982 47.2727 160.625 47.4119 160.372 47.6903C160.119 47.9659 159.993 48.3153 159.993 48.7386V53H158.97V48.517C158.97 48.1449 158.849 47.8452 158.608 47.6179C158.366 47.3878 158.055 47.2727 157.675 47.2727C157.413 47.2727 157.169 47.3423 156.942 47.4815C156.717 47.6207 156.536 47.8139 156.396 48.0611C156.26 48.3054 156.192 48.5881 156.192 48.9091V53H155.186ZM168.36 53.1364C167.729 53.1364 167.185 52.9972 166.728 52.7188C166.273 52.4375 165.923 52.0455 165.675 51.5426C165.431 51.0369 165.309 50.4489 165.309 49.7784C165.309 49.108 165.431 48.517 165.675 48.0057C165.923 47.4915 166.266 47.0909 166.707 46.804C167.15 46.5142 167.667 46.3693 168.258 46.3693C168.599 46.3693 168.935 46.4261 169.268 46.5398C169.6 46.6534 169.903 46.8381 170.175 47.0938C170.448 47.3466 170.665 47.6818 170.827 48.0994C170.989 48.517 171.07 49.0312 171.07 49.642V50.0682H166.025V49.1989H170.048C170.048 48.8295 169.974 48.5 169.826 48.2102C169.681 47.9205 169.474 47.6918 169.204 47.5241C168.937 47.3565 168.621 47.2727 168.258 47.2727C167.857 47.2727 167.511 47.3722 167.218 47.571C166.928 47.767 166.705 48.0227 166.549 48.3381C166.393 48.6534 166.315 48.9915 166.315 49.3523V49.9318C166.315 50.4261 166.4 50.8452 166.57 51.1889C166.744 51.5298 166.984 51.7898 167.29 51.9688C167.597 52.1449 167.954 52.233 168.36 52.233C168.624 52.233 168.863 52.196 169.076 52.1222C169.292 52.0455 169.478 51.9318 169.634 51.7812C169.79 51.6278 169.911 51.4375 169.996 51.2102L170.968 51.483C170.866 51.8125 170.694 52.1023 170.452 52.3523C170.211 52.5994 169.913 52.7926 169.558 52.9318C169.202 53.0682 168.803 53.1364 168.36 53.1364ZM173.606 49.0625V53H172.6V46.4545H173.572V47.4773H173.657C173.81 47.1449 174.043 46.8778 174.356 46.6761C174.668 46.4716 175.072 46.3693 175.566 46.3693C176.009 46.3693 176.397 46.4602 176.729 46.642C177.062 46.821 177.32 47.0938 177.505 47.4602C177.69 47.8239 177.782 48.2841 177.782 48.8409V53H176.776V48.9091C176.776 48.3949 176.643 47.9943 176.376 47.7074C176.109 47.4176 175.742 47.2727 175.276 47.2727C174.955 47.2727 174.668 47.3423 174.415 47.4815C174.165 47.6207 173.968 47.8239 173.823 48.0909C173.678 48.358 173.606 48.6818 173.606 49.0625ZM182.466 46.4545V47.3068H179.074V46.4545H182.466ZM180.063 44.8864H181.069V51.125C181.069 51.4091 181.11 51.6222 181.192 51.7642C181.277 51.9034 181.385 51.9972 181.516 52.0455C181.65 52.0909 181.79 52.1136 181.938 52.1136C182.049 52.1136 182.14 52.108 182.211 52.0966C182.282 52.0824 182.338 52.071 182.381 52.0625L182.586 52.9659C182.517 52.9915 182.422 53.017 182.3 53.0426C182.178 53.071 182.023 53.0852 181.836 53.0852C181.551 53.0852 181.273 53.0241 181 52.902C180.73 52.7798 180.506 52.5938 180.327 52.3438C180.151 52.0938 180.063 51.7784 180.063 51.3977V44.8864ZM183.979 53V46.4545H184.985V53H183.979ZM184.49 45.3636C184.294 45.3636 184.125 45.2969 183.983 45.1634C183.844 45.0298 183.775 44.8693 183.775 44.6818C183.775 44.4943 183.844 44.3338 183.983 44.2003C184.125 44.0668 184.294 44 184.49 44C184.686 44 184.854 44.0668 184.993 44.2003C185.135 44.3338 185.206 44.4943 185.206 44.6818C185.206 44.8693 185.135 45.0298 184.993 45.1634C184.854 45.2969 184.686 45.3636 184.49 45.3636ZM187.832 49.0625V53H186.827V46.4545H187.798V47.4773H187.884C188.037 47.1449 188.27 46.8778 188.582 46.6761C188.895 46.4716 189.298 46.3693 189.793 46.3693C190.236 46.3693 190.624 46.4602 190.956 46.642C191.288 46.821 191.547 47.0938 191.732 47.4602C191.916 47.8239 192.009 48.2841 192.009 48.8409V53H191.003V48.9091C191.003 48.3949 190.869 47.9943 190.602 47.7074C190.335 47.4176 189.969 47.2727 189.503 47.2727C189.182 47.2727 188.895 47.3423 188.642 47.4815C188.392 47.6207 188.195 47.8239 188.05 48.0909C187.905 48.358 187.832 48.6818 187.832 49.0625ZM196.488 55.5909C196.002 55.5909 195.585 55.5284 195.235 55.4034C194.886 55.2812 194.595 55.1193 194.362 54.9176C194.132 54.7188 193.949 54.5057 193.812 54.2784L194.613 53.7159C194.704 53.8352 194.819 53.9716 194.958 54.125C195.098 54.2812 195.288 54.4162 195.529 54.5298C195.774 54.6463 196.093 54.7045 196.488 54.7045C197.017 54.7045 197.453 54.5767 197.797 54.321C198.14 54.0653 198.312 53.6648 198.312 53.1193V51.7898H198.227C198.153 51.9091 198.048 52.0568 197.912 52.233C197.778 52.4062 197.585 52.5611 197.332 52.6974C197.082 52.831 196.744 52.8977 196.318 52.8977C195.789 52.8977 195.315 52.7727 194.895 52.5227C194.477 52.2727 194.146 51.9091 193.902 51.4318C193.66 50.9545 193.539 50.375 193.539 49.6932C193.539 49.0227 193.657 48.4389 193.893 47.9418C194.129 47.4418 194.457 47.0554 194.877 46.7827C195.298 46.5071 195.784 46.3693 196.335 46.3693C196.761 46.3693 197.099 46.4403 197.349 46.5824C197.602 46.7216 197.795 46.8807 197.929 47.0597C198.065 47.2358 198.17 47.3807 198.244 47.4943H198.346V46.4545H199.318V53.1875C199.318 53.75 199.19 54.2074 198.934 54.5597C198.681 54.9148 198.341 55.1747 197.912 55.3395C197.485 55.5071 197.011 55.5909 196.488 55.5909ZM196.454 51.9943C196.858 51.9943 197.199 51.902 197.477 51.7173C197.755 51.5327 197.967 51.267 198.112 50.9205C198.257 50.5739 198.329 50.1591 198.329 49.6761C198.329 49.2045 198.258 48.7884 198.116 48.4276C197.974 48.0668 197.764 47.7841 197.485 47.5795C197.207 47.375 196.863 47.2727 196.454 47.2727C196.028 47.2727 195.673 47.3807 195.389 47.5966C195.108 47.8125 194.896 48.1023 194.754 48.4659C194.615 48.8295 194.545 49.233 194.545 49.6761C194.545 50.1307 194.616 50.5327 194.758 50.8821C194.903 51.2287 195.116 51.5014 195.397 51.7003C195.681 51.8963 196.034 51.9943 196.454 51.9943ZM207.466 53.1193C206.903 53.1193 206.402 53.0227 205.961 52.8295C205.524 52.6364 205.176 52.3679 204.917 52.0241C204.662 51.6776 204.522 51.2756 204.5 50.8182H205.574C205.596 51.0994 205.693 51.3423 205.863 51.5469C206.034 51.7486 206.257 51.9048 206.532 52.0156C206.808 52.1264 207.113 52.1818 207.449 52.1818C207.824 52.1818 208.156 52.1165 208.446 51.9858C208.735 51.8551 208.963 51.6733 209.127 51.4403C209.292 51.2074 209.375 50.9375 209.375 50.6307C209.375 50.3097 209.295 50.027 209.136 49.7827C208.977 49.5355 208.744 49.3423 208.437 49.2031C208.13 49.0639 207.755 48.9943 207.312 48.9943H206.613V48.0568H207.312C207.659 48.0568 207.963 47.9943 208.224 47.8693C208.488 47.7443 208.694 47.5682 208.842 47.3409C208.993 47.1136 209.068 46.8466 209.068 46.5398C209.068 46.2443 209.002 45.9872 208.872 45.7685C208.741 45.5497 208.556 45.3793 208.318 45.2571C208.082 45.1349 207.804 45.0739 207.483 45.0739C207.181 45.0739 206.897 45.1293 206.63 45.2401C206.366 45.348 206.15 45.5057 205.983 45.7131C205.815 45.9176 205.724 46.1648 205.71 46.4545H204.687C204.704 45.9972 204.842 45.5966 205.1 45.2528C205.359 44.9062 205.697 44.6364 206.115 44.4432C206.535 44.25 206.997 44.1534 207.5 44.1534C208.039 44.1534 208.502 44.2628 208.889 44.4815C209.275 44.6974 209.572 44.983 209.779 45.3381C209.987 45.6932 210.091 46.0767 210.091 46.4886C210.091 46.9801 209.961 47.3991 209.703 47.7457C209.447 48.0923 209.099 48.3324 208.659 48.4659V48.5341C209.21 48.625 209.64 48.8594 209.95 49.2372C210.26 49.6122 210.414 50.0767 210.414 50.6307C210.414 51.1051 210.285 51.5312 210.027 51.9091C209.771 52.2841 209.422 52.5795 208.978 52.7955C208.535 53.0114 208.031 53.1193 207.466 53.1193ZM215.004 53H212.311V44.2727H215.123C215.97 44.2727 216.694 44.4474 217.297 44.7969C217.899 45.1435 218.36 45.642 218.681 46.2926C219.002 46.9403 219.163 47.7159 219.163 48.6193C219.163 49.5284 219.001 50.3111 218.677 50.9673C218.353 51.6207 217.882 52.1236 217.262 52.4759C216.643 52.8253 215.89 53 215.004 53ZM213.368 52.0625H214.936C215.657 52.0625 216.255 51.9233 216.73 51.6449C217.204 51.3665 217.558 50.9702 217.791 50.456C218.024 49.9418 218.14 49.3295 218.14 48.6193C218.14 47.9148 218.025 47.3082 217.795 46.7997C217.565 46.2884 217.221 45.8963 216.764 45.6236C216.306 45.348 215.737 45.2102 215.055 45.2102H213.368V52.0625ZM226.816 55.5909C226.331 55.5909 225.913 55.5284 225.564 55.4034C225.214 55.2812 224.923 55.1193 224.69 54.9176C224.46 54.7188 224.277 54.5057 224.14 54.2784L224.941 53.7159C225.032 53.8352 225.147 53.9716 225.287 54.125C225.426 54.2812 225.616 54.4162 225.858 54.5298C226.102 54.6463 226.422 54.7045 226.816 54.7045C227.345 54.7045 227.781 54.5767 228.125 54.321C228.468 54.0653 228.64 53.6648 228.64 53.1193V51.7898H228.555C228.481 51.9091 228.376 52.0568 228.24 52.233C228.106 52.4062 227.913 52.5611 227.66 52.6974C227.41 52.831 227.072 52.8977 226.646 52.8977C226.118 52.8977 225.643 52.7727 225.223 52.5227C224.805 52.2727 224.474 51.9091 224.23 51.4318C223.988 50.9545 223.868 50.375 223.868 49.6932C223.868 49.0227 223.985 48.4389 224.221 47.9418C224.457 47.4418 224.785 47.0554 225.206 46.7827C225.626 46.5071 226.112 46.3693 226.663 46.3693C227.089 46.3693 227.427 46.4403 227.677 46.5824C227.93 46.7216 228.123 46.8807 228.257 47.0597C228.393 47.2358 228.498 47.3807 228.572 47.4943H228.674V46.4545H229.646V53.1875C229.646 53.75 229.518 54.2074 229.262 54.5597C229.01 54.9148 228.669 55.1747 228.24 55.3395C227.814 55.5071 227.339 55.5909 226.816 55.5909ZM226.782 51.9943C227.186 51.9943 227.527 51.902 227.805 51.7173C228.083 51.5327 228.295 51.267 228.44 50.9205C228.585 50.5739 228.657 50.1591 228.657 49.6761C228.657 49.2045 228.586 48.7884 228.444 48.4276C228.302 48.0668 228.092 47.7841 227.814 47.5795C227.535 47.375 227.191 47.2727 226.782 47.2727C226.356 47.2727 226.001 47.3807 225.717 47.5966C225.436 47.8125 225.224 48.1023 225.082 48.4659C224.943 48.8295 224.873 49.233 224.873 49.6761C224.873 50.1307 224.944 50.5327 225.086 50.8821C225.231 51.2287 225.444 51.5014 225.725 51.7003C226.01 51.8963 226.362 51.9943 226.782 51.9943ZM231.487 53V46.4545H232.458V47.4432H232.527C232.646 47.1193 232.862 46.8565 233.174 46.6548C233.487 46.4531 233.839 46.3523 234.231 46.3523C234.305 46.3523 234.397 46.3537 234.508 46.3565C234.619 46.3594 234.703 46.3636 234.76 46.3693V47.392C234.725 47.3835 234.647 47.3707 234.525 47.3537C234.406 47.3338 234.279 47.3239 234.146 47.3239C233.828 47.3239 233.544 47.3906 233.294 47.5241C233.047 47.6548 232.85 47.8366 232.706 48.0696C232.564 48.2997 232.493 48.5625 232.493 48.858V53H231.487ZM237.878 53.1534C237.463 53.1534 237.087 53.0753 236.749 52.919C236.411 52.7599 236.142 52.5312 235.943 52.233C235.744 51.9318 235.645 51.5682 235.645 51.142C235.645 50.767 235.719 50.4631 235.866 50.2301C236.014 49.9943 236.212 49.8097 236.459 49.6761C236.706 49.5426 236.979 49.4432 237.277 49.3778C237.578 49.3097 237.881 49.2557 238.185 49.2159C238.582 49.1648 238.905 49.1264 239.152 49.1009C239.402 49.0724 239.584 49.0256 239.697 48.9602C239.814 48.8949 239.872 48.7812 239.872 48.6193V48.5852C239.872 48.1648 239.757 47.8381 239.527 47.6051C239.3 47.3722 238.955 47.2557 238.491 47.2557C238.011 47.2557 237.635 47.3608 237.362 47.571C237.089 47.7812 236.898 48.0057 236.787 48.2443L235.832 47.9034C236.003 47.5057 236.23 47.196 236.514 46.9744C236.801 46.75 237.114 46.5937 237.452 46.5057C237.793 46.4148 238.128 46.3693 238.457 46.3693C238.668 46.3693 238.909 46.3949 239.182 46.446C239.457 46.4943 239.723 46.5952 239.979 46.7486C240.237 46.902 240.452 47.1335 240.622 47.4432C240.793 47.7528 240.878 48.1676 240.878 48.6875V53H239.872V52.1136H239.821C239.753 52.2557 239.639 52.4077 239.48 52.5696C239.321 52.7315 239.109 52.8693 238.845 52.983C238.581 53.0966 238.259 53.1534 237.878 53.1534ZM238.031 52.25C238.429 52.25 238.764 52.1719 239.037 52.0156C239.313 51.8594 239.52 51.6577 239.659 51.4105C239.801 51.1634 239.872 50.9034 239.872 50.6307V49.7102C239.83 49.7614 239.736 49.8082 239.591 49.8509C239.449 49.8906 239.284 49.9261 239.097 49.9574C238.912 49.9858 238.732 50.0114 238.555 50.0341C238.382 50.054 238.241 50.071 238.134 50.0852C237.872 50.1193 237.628 50.1747 237.401 50.2514C237.176 50.3253 236.994 50.4375 236.855 50.5881C236.719 50.7358 236.651 50.9375 236.651 51.1932C236.651 51.5426 236.78 51.8068 237.038 51.9858C237.3 52.1619 237.631 52.25 238.031 52.25ZM242.713 55.4545V46.4545H243.685V47.4943H243.804C243.878 47.3807 243.98 47.2358 244.111 47.0597C244.245 46.8807 244.435 46.7216 244.682 46.5824C244.932 46.4403 245.27 46.3693 245.696 46.3693C246.248 46.3693 246.733 46.5071 247.154 46.7827C247.574 47.0582 247.902 47.4489 248.138 47.9545C248.374 48.4602 248.492 49.0568 248.492 49.7443C248.492 50.4375 248.374 51.0384 248.138 51.5469C247.902 52.0526 247.576 52.4446 247.158 52.723C246.74 52.9986 246.259 53.1364 245.713 53.1364C245.293 53.1364 244.956 53.0668 244.703 52.9276C244.451 52.7855 244.256 52.625 244.12 52.446C243.983 52.2642 243.878 52.1136 243.804 51.9943H243.719V55.4545H242.713ZM243.702 49.7273C243.702 50.2216 243.775 50.6577 243.919 51.0355C244.064 51.4105 244.276 51.7045 244.554 51.9176C244.833 52.1278 245.174 52.233 245.577 52.233C245.998 52.233 246.348 52.1222 246.63 51.9006C246.914 51.6761 247.127 51.375 247.269 50.9972C247.414 50.6165 247.486 50.1932 247.486 49.7273C247.486 49.267 247.415 48.8523 247.273 48.483C247.134 48.1108 246.922 47.8168 246.638 47.6009C246.357 47.3821 246.003 47.2727 245.577 47.2727C245.168 47.2727 244.824 47.3764 244.546 47.5838C244.267 47.7884 244.057 48.0753 243.915 48.4446C243.773 48.8111 243.702 49.2386 243.702 49.7273ZM251.032 49.0625V53H250.026V44.2727H251.032V47.4773H251.117C251.27 47.1392 251.5 46.8707 251.807 46.6719C252.117 46.4702 252.529 46.3693 253.043 46.3693C253.489 46.3693 253.88 46.4588 254.215 46.6378C254.55 46.8139 254.81 47.0852 254.995 47.4517C255.182 47.8153 255.276 48.2784 255.276 48.8409V53H254.27V48.9091C254.27 48.3892 254.135 47.9872 253.865 47.7031C253.598 47.4162 253.228 47.2727 252.753 47.2727C252.424 47.2727 252.128 47.3423 251.867 47.4815C251.608 47.6207 251.404 47.8239 251.253 48.0909C251.105 48.358 251.032 48.6818 251.032 49.0625ZM257.116 53V46.4545H258.121V53H257.116ZM257.627 45.3636C257.431 45.3636 257.262 45.2969 257.12 45.1634C256.981 45.0298 256.911 44.8693 256.911 44.6818C256.911 44.4943 256.981 44.3338 257.12 44.2003C257.262 44.0668 257.431 44 257.627 44C257.823 44 257.991 44.0668 258.13 44.2003C258.272 44.3338 258.343 44.4943 258.343 44.6818C258.343 44.8693 258.272 45.0298 258.13 45.1634C257.991 45.2969 257.823 45.3636 257.627 45.3636ZM262.623 53.1364C262.009 53.1364 261.48 52.9915 261.037 52.7017C260.594 52.4119 260.253 52.0128 260.015 51.5043C259.776 50.9957 259.657 50.4148 259.657 49.7614C259.657 49.0966 259.779 48.5099 260.023 48.0014C260.27 47.4901 260.614 47.0909 261.054 46.804C261.498 46.5142 262.015 46.3693 262.605 46.3693C263.066 46.3693 263.48 46.4545 263.85 46.625C264.219 46.7955 264.522 47.0341 264.757 47.3409C264.993 47.6477 265.14 48.0057 265.196 48.4148H264.191C264.114 48.1165 263.944 47.8523 263.679 47.6222C263.418 47.3892 263.066 47.2727 262.623 47.2727C262.23 47.2727 261.887 47.375 261.591 47.5795C261.299 47.7812 261.07 48.0668 260.905 48.4361C260.743 48.8026 260.662 49.233 260.662 49.7273C260.662 50.233 260.742 50.6733 260.901 51.0483C261.063 51.4233 261.29 51.7145 261.583 51.9219C261.878 52.1293 262.225 52.233 262.623 52.233C262.884 52.233 263.121 52.1875 263.334 52.0966C263.547 52.0057 263.728 51.875 263.875 51.7045C264.023 51.5341 264.128 51.3295 264.191 51.0909H265.196C265.14 51.4773 264.999 51.8253 264.775 52.1349C264.553 52.4418 264.259 52.6861 263.892 52.8679C263.529 53.0469 263.105 53.1364 262.623 53.1364ZM271.303 47.9205L270.4 48.1761C270.343 48.0256 270.259 47.8793 270.148 47.7372C270.04 47.5923 269.892 47.473 269.705 47.3793C269.517 47.2855 269.277 47.2386 268.985 47.2386C268.584 47.2386 268.25 47.331 267.983 47.5156C267.719 47.6974 267.587 47.929 267.587 48.2102C267.587 48.4602 267.678 48.6577 267.86 48.8026C268.042 48.9474 268.326 49.0682 268.712 49.1648L269.684 49.4034C270.269 49.5455 270.705 49.7628 270.992 50.0554C271.279 50.3452 271.422 50.7187 271.422 51.1761C271.422 51.5511 271.314 51.8864 271.098 52.1818C270.885 52.4773 270.587 52.7102 270.203 52.8807C269.82 53.0511 269.374 53.1364 268.865 53.1364C268.198 53.1364 267.645 52.9915 267.208 52.7017C266.77 52.4119 266.493 51.9886 266.377 51.4318L267.331 51.1932C267.422 51.5455 267.594 51.8097 267.847 51.9858C268.103 52.1619 268.436 52.25 268.848 52.25C269.317 52.25 269.689 52.1506 269.965 51.9517C270.243 51.75 270.382 51.5085 270.382 51.2273C270.382 51 270.303 50.8097 270.144 50.6562C269.985 50.5 269.74 50.3835 269.411 50.3068L268.32 50.0511C267.721 49.9091 267.28 49.6889 266.999 49.3906C266.721 49.0895 266.581 48.7131 266.581 48.2614C266.581 47.892 266.685 47.5653 266.892 47.2812C267.103 46.9972 267.388 46.7741 267.749 46.6122C268.113 46.4503 268.525 46.3693 268.985 46.3693C269.632 46.3693 270.141 46.5114 270.51 46.7955C270.882 47.0795 271.147 47.4545 271.303 47.9205Z" fill="#768395"/>
<circle cx="18" cy="79" r="6" fill="#F34B7D"/>
<circle cx="18" cy="79" r="5.5" stroke="white" stroke-opacity="0.14902"/>
<path d="M40.0795 77.5H39.0227C38.9602 77.196 38.8509 76.929 38.6946 76.6989C38.5412 76.4688 38.3537 76.2756 38.1321 76.1193C37.9134 75.9602 37.6705 75.8409 37.4034 75.7614C37.1364 75.6818 36.858 75.642 36.5682 75.642C36.0398 75.642 35.5611 75.7756 35.1321 76.0426C34.706 76.3097 34.3665 76.7031 34.1136 77.223C33.8636 77.7429 33.7386 78.3807 33.7386 79.1364C33.7386 79.892 33.8636 80.5298 34.1136 81.0497C34.3665 81.5696 34.706 81.9631 35.1321 82.2301C35.5611 82.4972 36.0398 82.6307 36.5682 82.6307C36.858 82.6307 37.1364 82.5909 37.4034 82.5114C37.6705 82.4318 37.9134 82.3139 38.1321 82.1577C38.3537 81.9986 38.5412 81.804 38.6946 81.5739C38.8509 81.3409 38.9602 81.0739 39.0227 80.7727H40.0795C40 81.2187 39.8551 81.6179 39.6449 81.9702C39.4347 82.3224 39.1733 82.6222 38.8608 82.8693C38.5483 83.1136 38.1974 83.2997 37.8082 83.4276C37.4219 83.5554 37.0085 83.6193 36.5682 83.6193C35.8239 83.6193 35.1619 83.4375 34.5824 83.0739C34.0028 82.7102 33.5469 82.1932 33.2145 81.5227C32.8821 80.8523 32.7159 80.0568 32.7159 79.1364C32.7159 78.2159 32.8821 77.4205 33.2145 76.75C33.5469 76.0795 34.0028 75.5625 34.5824 75.1989C35.1619 74.8352 35.8239 74.6534 36.5682 74.6534C37.0085 74.6534 37.4219 74.7173 37.8082 74.8452C38.1974 74.973 38.5483 75.1605 38.8608 75.4077C39.1733 75.652 39.4347 75.9503 39.6449 76.3026C39.8551 76.652 40 77.0511 40.0795 77.5ZM44.2077 81.9659V76.3409H45.1623V81.9659H44.2077ZM41.8725 79.6307V78.6761H47.4975V79.6307H41.8725ZM52.1179 81.9659V76.3409H53.0724V81.9659H52.1179ZM49.7827 79.6307V78.6761H55.4077V79.6307H49.7827Z" fill="#768395"/>
<circle cx="75" cy="79" r="6" fill="#F1E05A"/>
<circle cx="75" cy="79" r="5.5" stroke="white" stroke-opacity="0.14902"/>
<path d="M93.3977 74.7727H94.4545V81.0114C94.4545 81.5682 94.3523 82.0412 94.1477 82.4304C93.9432 82.8196 93.6548 83.1151 93.2827 83.3168C92.9105 83.5185 92.4716 83.6193 91.9659 83.6193C91.4886 83.6193 91.0639 83.5327 90.6918 83.3594C90.3196 83.1832 90.027 82.9332 89.8139 82.6094C89.6009 82.2855 89.4943 81.9006 89.4943 81.4545H90.5341C90.5341 81.7017 90.5952 81.9176 90.7173 82.1023C90.8423 82.2841 91.0128 82.4261 91.2287 82.5284C91.4446 82.6307 91.6903 82.6818 91.9659 82.6818C92.2699 82.6818 92.5284 82.6179 92.7415 82.4901C92.9545 82.3622 93.1165 82.1747 93.2273 81.9276C93.3409 81.6776 93.3977 81.3722 93.3977 81.0114V74.7727ZM98.3622 83.6534C97.9474 83.6534 97.571 83.5753 97.233 83.419C96.8949 83.2599 96.6264 83.0312 96.4276 82.733C96.2287 82.4318 96.1293 82.0682 96.1293 81.642C96.1293 81.267 96.2031 80.9631 96.3509 80.7301C96.4986 80.4943 96.696 80.3097 96.9432 80.1761C97.1903 80.0426 97.4631 79.9432 97.7614 79.8778C98.0625 79.8097 98.3651 79.7557 98.669 79.7159C99.0668 79.6648 99.3892 79.6264 99.6364 79.6009C99.8864 79.5724 100.068 79.5256 100.182 79.4602C100.298 79.3949 100.357 79.2812 100.357 79.1193V79.0852C100.357 78.6648 100.241 78.3381 100.011 78.1051C99.7841 77.8722 99.4389 77.7557 98.9759 77.7557C98.4957 77.7557 98.1193 77.8608 97.8466 78.071C97.5739 78.2812 97.3821 78.5057 97.2713 78.7443L96.3168 78.4034C96.4872 78.0057 96.7145 77.696 96.9986 77.4744C97.2855 77.25 97.598 77.0937 97.9361 77.0057C98.277 76.9148 98.6122 76.8693 98.9418 76.8693C99.152 76.8693 99.3935 76.8949 99.6662 76.946C99.9418 76.9943 100.207 77.0952 100.463 77.2486C100.722 77.402 100.936 77.6335 101.107 77.9432C101.277 78.2528 101.362 78.6676 101.362 79.1875V83.5H100.357V82.6136H100.305C100.237 82.7557 100.124 82.9077 99.9645 83.0696C99.8054 83.2315 99.5938 83.3693 99.3295 83.483C99.0653 83.5966 98.7429 83.6534 98.3622 83.6534ZM98.5156 82.75C98.9134 82.75 99.2486 82.6719 99.5213 82.5156C99.7969 82.3594 100.004 82.1577 100.143 81.9105C100.286 81.6634 100.357 81.4034 100.357 81.1307V80.2102C100.314 80.2614 100.22 80.3082 100.075 80.3509C99.9332 80.3906 99.7685 80.4261 99.581 80.4574C99.3963 80.4858 99.2159 80.5114 99.0398 80.5341C98.8665 80.554 98.7259 80.571 98.6179 80.5852C98.3565 80.6193 98.1122 80.6747 97.8849 80.7514C97.6605 80.8253 97.4787 80.9375 97.3395 81.0881C97.2031 81.2358 97.1349 81.4375 97.1349 81.6932C97.1349 82.0426 97.2642 82.3068 97.5227 82.4858C97.7841 82.6619 98.1151 82.75 98.5156 82.75ZM108.316 76.9545L105.895 83.5H104.873L102.452 76.9545H103.543L105.35 82.1705H105.418L107.225 76.9545H108.316ZM111.37 83.6534C110.955 83.6534 110.579 83.5753 110.241 83.419C109.903 83.2599 109.634 83.0312 109.435 82.733C109.237 82.4318 109.137 82.0682 109.137 81.642C109.137 81.267 109.211 80.9631 109.359 80.7301C109.506 80.4943 109.704 80.3097 109.951 80.1761C110.198 80.0426 110.471 79.9432 110.769 79.8778C111.07 79.8097 111.373 79.7557 111.677 79.7159C112.075 79.6648 112.397 79.6264 112.644 79.6009C112.894 79.5724 113.076 79.5256 113.19 79.4602C113.306 79.3949 113.364 79.2812 113.364 79.1193V79.0852C113.364 78.6648 113.249 78.3381 113.019 78.1051C112.792 77.8722 112.447 77.7557 111.984 77.7557C111.504 77.7557 111.127 77.8608 110.854 78.071C110.582 78.2812 110.39 78.5057 110.279 78.7443L109.325 78.4034C109.495 78.0057 109.722 77.696 110.006 77.4744C110.293 77.25 110.606 77.0937 110.944 77.0057C111.285 76.9148 111.62 76.8693 111.95 76.8693C112.16 76.8693 112.401 76.8949 112.674 76.946C112.95 76.9943 113.215 77.0952 113.471 77.2486C113.729 77.402 113.944 77.6335 114.114 77.9432C114.285 78.2528 114.37 78.6676 114.37 79.1875V83.5H113.364V82.6136H113.313C113.245 82.7557 113.131 82.9077 112.972 83.0696C112.813 83.2315 112.602 83.3693 112.337 83.483C112.073 83.5966 111.751 83.6534 111.37 83.6534ZM111.523 82.75C111.921 82.75 112.256 82.6719 112.529 82.5156C112.805 82.3594 113.012 82.1577 113.151 81.9105C113.293 81.6634 113.364 81.4034 113.364 81.1307V80.2102C113.322 80.2614 113.228 80.3082 113.083 80.3509C112.941 80.3906 112.776 80.4261 112.589 80.4574C112.404 80.4858 112.224 80.5114 112.048 80.5341C111.874 80.554 111.734 80.571 111.626 80.5852C111.364 80.6193 111.12 80.6747 110.893 80.7514C110.668 80.8253 110.487 80.9375 110.347 81.0881C110.211 81.2358 110.143 81.4375 110.143 81.6932C110.143 82.0426 110.272 82.3068 110.531 82.4858C110.792 82.6619 111.123 82.75 111.523 82.75ZM121.115 76.9545C121.064 76.5227 120.856 76.1875 120.493 75.9489C120.129 75.7102 119.683 75.5909 119.154 75.5909C118.768 75.5909 118.43 75.6534 118.14 75.7784C117.853 75.9034 117.629 76.0753 117.467 76.294C117.308 76.5128 117.228 76.7614 117.228 77.0398C117.228 77.2727 117.284 77.473 117.395 77.6406C117.508 77.8054 117.653 77.9432 117.829 78.054C118.005 78.1619 118.19 78.2514 118.383 78.3224C118.576 78.3906 118.754 78.446 118.916 78.4886L119.802 78.7273C120.029 78.7869 120.282 78.8693 120.561 78.9744C120.842 79.0795 121.11 79.223 121.366 79.4048C121.625 79.5838 121.838 79.8139 122.005 80.0952C122.173 80.3764 122.257 80.7216 122.257 81.1307C122.257 81.6023 122.133 82.0284 121.886 82.4091C121.642 82.7898 121.284 83.0923 120.812 83.3168C120.343 83.5412 119.774 83.6534 119.103 83.6534C118.478 83.6534 117.937 83.5526 117.48 83.3509C117.025 83.1491 116.667 82.8679 116.406 82.5071C116.147 82.1463 116.001 81.7273 115.967 81.25H117.058C117.086 81.5795 117.197 81.8523 117.39 82.0682C117.586 82.2812 117.833 82.4403 118.132 82.5455C118.433 82.6477 118.757 82.6989 119.103 82.6989C119.507 82.6989 119.869 82.6335 120.19 82.5028C120.511 82.3693 120.765 82.1847 120.953 81.9489C121.14 81.7102 121.234 81.4318 121.234 81.1136C121.234 80.8239 121.153 80.5881 120.991 80.4062C120.829 80.2244 120.616 80.0767 120.352 79.9631C120.088 79.8494 119.802 79.75 119.495 79.6648L118.422 79.358C117.74 79.1619 117.2 78.8821 116.802 78.5185C116.404 78.1548 116.206 77.679 116.206 77.0909C116.206 76.6023 116.338 76.1761 116.602 75.8125C116.869 75.446 117.227 75.1619 117.676 74.9602C118.127 74.7557 118.632 74.6534 119.189 74.6534C119.751 74.6534 120.251 74.7543 120.689 74.956C121.126 75.1548 121.473 75.4276 121.728 75.7741C121.987 76.1207 122.123 76.5142 122.137 76.9545H121.115ZM126.517 83.6364C125.903 83.6364 125.375 83.4915 124.932 83.2017C124.489 82.9119 124.148 82.5128 123.909 82.0043C123.67 81.4957 123.551 80.9148 123.551 80.2614C123.551 79.5966 123.673 79.0099 123.918 78.5014C124.165 77.9901 124.509 77.5909 124.949 77.304C125.392 77.0142 125.909 76.8693 126.5 76.8693C126.96 76.8693 127.375 76.9545 127.744 77.125C128.114 77.2955 128.416 77.5341 128.652 77.8409C128.888 78.1477 129.034 78.5057 129.091 78.9148H128.085C128.009 78.6165 127.838 78.3523 127.574 78.1222C127.313 77.8892 126.96 77.7727 126.517 77.7727C126.125 77.7727 125.781 77.875 125.486 78.0795C125.193 78.2812 124.964 78.5668 124.8 78.9361C124.638 79.3026 124.557 79.733 124.557 80.2273C124.557 80.733 124.636 81.1733 124.795 81.5483C124.957 81.9233 125.185 82.2145 125.477 82.4219C125.773 82.6293 126.119 82.733 126.517 82.733C126.778 82.733 127.016 82.6875 127.229 82.5966C127.442 82.5057 127.622 82.375 127.77 82.2045C127.918 82.0341 128.023 81.8295 128.085 81.5909H129.091C129.034 81.9773 128.893 82.3253 128.669 82.6349C128.447 82.9418 128.153 83.1861 127.787 83.3679C127.423 83.5469 127 83.6364 126.517 83.6364ZM130.561 83.5V76.9545H131.533V77.9432H131.601C131.72 77.6193 131.936 77.3565 132.249 77.1548C132.561 76.9531 132.913 76.8523 133.305 76.8523C133.379 76.8523 133.472 76.8537 133.582 76.8565C133.693 76.8594 133.777 76.8636 133.834 76.8693V77.892C133.8 77.8835 133.722 77.8707 133.599 77.8537C133.48 77.8338 133.354 77.8239 133.22 77.8239C132.902 77.8239 132.618 77.8906 132.368 78.0241C132.121 78.1548 131.925 78.3366 131.78 78.5696C131.638 78.7997 131.567 79.0625 131.567 79.358V83.5H130.561ZM135.026 83.5V76.9545H136.032V83.5H135.026ZM135.537 75.8636C135.341 75.8636 135.172 75.7969 135.03 75.6634C134.891 75.5298 134.821 75.3693 134.821 75.1818C134.821 74.9943 134.891 74.8338 135.03 74.7003C135.172 74.5668 135.341 74.5 135.537 74.5C135.733 74.5 135.901 74.5668 136.04 74.7003C136.182 74.8338 136.253 74.9943 136.253 75.1818C136.253 75.3693 136.182 75.5298 136.04 75.6634C135.901 75.7969 135.733 75.8636 135.537 75.8636ZM137.874 85.9545V76.9545H138.845V77.9943H138.964C139.038 77.8807 139.141 77.7358 139.271 77.5597C139.405 77.3807 139.595 77.2216 139.842 77.0824C140.092 76.9403 140.43 76.8693 140.857 76.8693C141.408 76.8693 141.893 77.0071 142.314 77.2827C142.734 77.5582 143.063 77.9489 143.298 78.4545C143.534 78.9602 143.652 79.5568 143.652 80.2443C143.652 80.9375 143.534 81.5384 143.298 82.0469C143.063 82.5526 142.736 82.9446 142.318 83.223C141.901 83.4986 141.419 83.6364 140.874 83.6364C140.453 83.6364 140.116 83.5668 139.864 83.4276C139.611 83.2855 139.416 83.125 139.28 82.946C139.143 82.7642 139.038 82.6136 138.964 82.4943H138.879V85.9545H137.874ZM138.862 80.2273C138.862 80.7216 138.935 81.1577 139.08 81.5355C139.224 81.9105 139.436 82.2045 139.714 82.4176C139.993 82.6278 140.334 82.733 140.737 82.733C141.158 82.733 141.509 82.6222 141.79 82.4006C142.074 82.1761 142.287 81.875 142.429 81.4972C142.574 81.1165 142.646 80.6932 142.646 80.2273C142.646 79.767 142.575 79.3523 142.433 78.983C142.294 78.6108 142.082 78.3168 141.798 78.1009C141.517 77.8821 141.163 77.7727 140.737 77.7727C140.328 77.7727 139.984 77.8764 139.706 78.0838C139.428 78.2884 139.217 78.5753 139.075 78.9446C138.933 79.3111 138.862 79.7386 138.862 80.2273ZM148.033 76.9545V77.8068H144.641V76.9545H148.033ZM145.629 75.3864H146.635V81.625C146.635 81.9091 146.676 82.1222 146.759 82.2642C146.844 82.4034 146.952 82.4972 147.082 82.5455C147.216 82.5909 147.357 82.6136 147.504 82.6136C147.615 82.6136 147.706 82.608 147.777 82.5966C147.848 82.5824 147.905 82.571 147.947 82.5625L148.152 83.4659C148.084 83.4915 147.989 83.517 147.866 83.5426C147.744 83.571 147.589 83.5852 147.402 83.5852C147.118 83.5852 146.839 83.5241 146.567 83.402C146.297 83.2798 146.072 83.0938 145.893 82.8438C145.717 82.5938 145.629 82.2784 145.629 81.8977V75.3864Z" fill="#768395"/>
<rect x="161" y="68" width="67" height="22" rx="11" fill="#388BFD" fill-opacity="0.101961"/>
<path d="M179.42 79.1364C179.42 80.0568 179.254 80.8523 178.922 81.5227C178.589 82.1932 178.134 82.7102 177.554 83.0739C176.974 83.4375 176.313 83.6193 175.568 83.6193C174.824 83.6193 174.162 83.4375 173.582 83.0739C173.003 82.7102 172.547 82.1932 172.214 81.5227C171.882 80.8523 171.716 80.0568 171.716 79.1364C171.716 78.2159 171.882 77.4205 172.214 76.75C172.547 76.0795 173.003 75.5625 173.582 75.1989C174.162 74.8352 174.824 74.6534 175.568 74.6534C176.313 74.6534 176.974 74.8352 177.554 75.1989C178.134 75.5625 178.589 76.0795 178.922 76.75C179.254 77.4205 179.42 78.2159 179.42 79.1364ZM178.398 79.1364C178.398 78.3807 178.271 77.7429 178.018 77.223C177.768 76.7031 177.429 76.3097 177 76.0426C176.574 75.7756 176.097 75.642 175.568 75.642C175.04 75.642 174.561 75.7756 174.132 76.0426C173.706 76.3097 173.366 76.7031 173.114 77.223C172.864 77.7429 172.739 78.3807 172.739 79.1364C172.739 79.892 172.864 80.5298 173.114 81.0497C173.366 81.5696 173.706 81.9631 174.132 82.2301C174.561 82.4972 175.04 82.6307 175.568 82.6307C176.097 82.6307 176.574 82.4972 177 82.2301C177.429 81.9631 177.768 81.5696 178.018 81.0497C178.271 80.5298 178.398 79.892 178.398 79.1364ZM181.061 85.9545V76.9545H182.033V77.9943H182.152C182.226 77.8807 182.328 77.7358 182.459 77.5597C182.592 77.3807 182.783 77.2216 183.03 77.0824C183.28 76.9403 183.618 76.8693 184.044 76.8693C184.595 76.8693 185.081 77.0071 185.501 77.2827C185.922 77.5582 186.25 77.9489 186.486 78.4545C186.722 78.9602 186.839 79.5568 186.839 80.2443C186.839 80.9375 186.722 81.5384 186.486 82.0469C186.25 82.5526 185.923 82.9446 185.506 83.223C185.088 83.4986 184.607 83.6364 184.061 83.6364C183.641 83.6364 183.304 83.5668 183.051 83.4276C182.798 83.2855 182.604 83.125 182.467 82.946C182.331 82.7642 182.226 82.6136 182.152 82.4943H182.067V85.9545H181.061ZM182.05 80.2273C182.05 80.7216 182.122 81.1577 182.267 81.5355C182.412 81.9105 182.624 82.2045 182.902 82.4176C183.18 82.6278 183.521 82.733 183.925 82.733C184.345 82.733 184.696 82.6222 184.977 82.4006C185.261 82.1761 185.474 81.875 185.616 81.4972C185.761 81.1165 185.834 80.6932 185.834 80.2273C185.834 79.767 185.763 79.3523 185.621 78.983C185.482 78.6108 185.27 78.3168 184.986 78.1009C184.705 77.8821 184.351 77.7727 183.925 77.7727C183.516 77.7727 183.172 77.8764 182.893 78.0838C182.615 78.2884 182.405 78.5753 182.263 78.9446C182.121 79.3111 182.05 79.7386 182.05 80.2273ZM191.118 83.6364C190.487 83.6364 189.943 83.4972 189.486 83.2188C189.031 82.9375 188.68 82.5455 188.433 82.0426C188.189 81.5369 188.067 80.9489 188.067 80.2784C188.067 79.608 188.189 79.017 188.433 78.5057C188.68 77.9915 189.024 77.5909 189.464 77.304C189.908 77.0142 190.425 76.8693 191.016 76.8693C191.357 76.8693 191.693 76.9261 192.026 77.0398C192.358 77.1534 192.661 77.3381 192.933 77.5938C193.206 77.8466 193.423 78.1818 193.585 78.5994C193.747 79.017 193.828 79.5312 193.828 80.142V80.5682H188.783V79.6989H192.805C192.805 79.3295 192.732 79 192.584 78.7102C192.439 78.4205 192.232 78.1918 191.962 78.0241C191.695 77.8565 191.379 77.7727 191.016 77.7727C190.615 77.7727 190.268 77.8722 189.976 78.071C189.686 78.267 189.463 78.5227 189.307 78.8381C189.151 79.1534 189.072 79.4915 189.072 79.8523V80.4318C189.072 80.9261 189.158 81.3452 189.328 81.6889C189.501 82.0298 189.741 82.2898 190.048 82.4688C190.355 82.6449 190.712 82.733 191.118 82.733C191.382 82.733 191.621 82.696 191.834 82.6222C192.05 82.5455 192.236 82.4318 192.392 82.2812C192.548 82.1278 192.669 81.9375 192.754 81.7102L193.726 81.983C193.624 82.3125 193.452 82.6023 193.21 82.8523C192.969 83.0994 192.67 83.2926 192.315 83.4318C191.96 83.5682 191.561 83.6364 191.118 83.6364ZM196.364 79.5625V83.5H195.358V76.9545H196.33V77.9773H196.415C196.568 77.6449 196.801 77.3778 197.114 77.1761C197.426 76.9716 197.83 76.8693 198.324 76.8693C198.767 76.8693 199.155 76.9602 199.487 77.142C199.82 77.321 200.078 77.5938 200.263 77.9602C200.447 78.3239 200.54 78.7841 200.54 79.3409V83.5H199.534V79.4091C199.534 78.8949 199.401 78.4943 199.134 78.2074C198.866 77.9176 198.5 77.7727 198.034 77.7727C197.713 77.7727 197.426 77.8423 197.173 77.9815C196.923 78.1207 196.726 78.3239 196.581 78.5909C196.436 78.858 196.364 79.1818 196.364 79.5625ZM208.48 77.5C208.386 77.2131 208.262 76.956 208.109 76.7287C207.958 76.4986 207.778 76.3026 207.568 76.1406C207.36 75.9787 207.125 75.8551 206.86 75.7699C206.596 75.6847 206.306 75.642 205.991 75.642C205.474 75.642 205.004 75.7756 204.581 76.0426C204.157 76.3097 203.821 76.7031 203.571 77.223C203.321 77.7429 203.196 78.3807 203.196 79.1364C203.196 79.892 203.322 80.5298 203.575 81.0497C203.828 81.5696 204.17 81.9631 204.602 82.2301C205.034 82.4972 205.52 82.6307 206.059 82.6307C206.559 82.6307 207 82.5241 207.38 82.3111C207.764 82.0952 208.062 81.7912 208.275 81.3991C208.491 81.0043 208.599 80.5398 208.599 80.0057L208.923 80.0739H206.298V79.1364H209.622V80.0739C209.622 80.7926 209.468 81.4176 209.162 81.9489C208.858 82.4801 208.437 82.892 207.9 83.1847C207.366 83.4744 206.752 83.6193 206.059 83.6193C205.287 83.6193 204.608 83.4375 204.022 83.0739C203.44 82.7102 202.985 82.1932 202.659 81.5227C202.335 80.8523 202.173 80.0568 202.173 79.1364C202.173 78.446 202.265 77.8253 202.45 77.2741C202.637 76.7202 202.902 76.2486 203.243 75.8594C203.583 75.4702 203.987 75.1719 204.453 74.9645C204.919 74.7571 205.431 74.6534 205.991 74.6534C206.451 74.6534 206.88 74.723 207.278 74.8622C207.679 74.9986 208.035 75.1932 208.348 75.446C208.663 75.696 208.926 75.9957 209.136 76.3452C209.346 76.6918 209.491 77.0767 209.571 77.5H208.48ZM211.432 83.5V74.7727H212.489V82.5625H216.545V83.5H211.432Z" fill="#4493F8"/>
</svg>
