<svg width="422" height="114" viewBox="0 0 422 114" fill="none" xmlns="http://www.w3.org/2000/svg">
<rect width="416" height="102" rx="6" fill="#768395" fill-opacity="0.1"/>
<path d="M13.0043 15.8182H15.2614L18.2841 23.196H18.4034L21.4261 15.8182H23.6832V26H21.9134V19.005H21.8189L19.005 25.9702H17.6825L14.8686 18.9901H14.7741V26H13.0043V15.8182ZM27.8097 26.1541C27.3258 26.1541 26.8899 26.0679 26.5021 25.8956C26.1177 25.7199 25.8127 25.4614 25.5874 25.12C25.3653 24.7786 25.2543 24.3577 25.2543 23.8572C25.2543 23.4264 25.3338 23.0701 25.4929 22.7884C25.652 22.5066 25.8691 22.2812 26.1442 22.1122C26.4193 21.9432 26.7292 21.8156 27.0739 21.7294C27.4219 21.6399 27.7815 21.5753 28.1527 21.5355C28.6001 21.4891 28.9631 21.4477 29.2415 21.4112C29.5199 21.3714 29.7221 21.3118 29.848 21.2322C29.9773 21.1494 30.0419 21.0218 30.0419 20.8494V20.8196C30.0419 20.4451 29.9309 20.1551 29.7088 19.9496C29.4867 19.7441 29.1669 19.6413 28.7493 19.6413C28.3085 19.6413 27.9588 19.7375 27.7003 19.9297C27.4451 20.1219 27.2727 20.349 27.1832 20.6108L25.5028 20.3722C25.6354 19.9081 25.8542 19.5204 26.1591 19.2088C26.464 18.8939 26.8369 18.6586 27.2777 18.5028C27.7185 18.3438 28.2057 18.2642 28.7393 18.2642C29.1072 18.2642 29.4735 18.3073 29.8381 18.3935C30.2027 18.4796 30.5357 18.6222 30.8374 18.821C31.139 19.0166 31.3809 19.2834 31.5632 19.6214C31.7488 19.9595 31.8416 20.3821 31.8416 20.8892V26H30.1115V24.951H30.0518C29.9425 25.1631 29.7884 25.362 29.5895 25.5476C29.3939 25.7299 29.147 25.8774 28.8487 25.9901C28.5537 26.0994 28.2074 26.1541 27.8097 26.1541ZM28.277 24.8317C28.6383 24.8317 28.9515 24.7604 29.2166 24.6179C29.4818 24.4721 29.6856 24.2798 29.8281 24.0412C29.974 23.8026 30.0469 23.5424 30.0469 23.2607V22.3608C29.9905 22.4072 29.8944 22.4503 29.7585 22.4901C29.6259 22.5298 29.4768 22.5646 29.3111 22.5945C29.1454 22.6243 28.9813 22.6508 28.8189 22.674C28.6565 22.6972 28.5156 22.7171 28.3963 22.7337C28.1278 22.7701 27.8875 22.8298 27.6754 22.9126C27.4633 22.9955 27.2959 23.1115 27.1733 23.2607C27.0507 23.4065 26.9893 23.5954 26.9893 23.8274C26.9893 24.1589 27.1103 24.4091 27.3523 24.5781C27.5942 24.7472 27.9025 24.8317 28.277 24.8317ZM35.451 21.5256V26H33.6513V18.3636H35.3714V19.6612H35.4609C35.6366 19.2337 35.9167 18.8939 36.3011 18.642C36.6889 18.3902 37.1679 18.2642 37.7379 18.2642C38.2649 18.2642 38.724 18.3769 39.1151 18.6023C39.5095 18.8277 39.8144 19.1541 40.0298 19.5817C40.2486 20.0092 40.3563 20.5279 40.353 21.1378V26H38.5533V21.4162C38.5533 20.9058 38.4207 20.5064 38.1555 20.218C37.8937 19.9297 37.5308 19.7855 37.0668 19.7855C36.7519 19.7855 36.4718 19.8551 36.2266 19.9943C35.9846 20.1302 35.794 20.3274 35.6548 20.5859C35.5189 20.8445 35.451 21.1577 35.451 21.5256ZM45.0163 26.1342C44.4164 26.1342 43.8795 25.9801 43.4055 25.6719C42.9316 25.3636 42.5571 24.9162 42.282 24.3295C42.0069 23.7429 41.8693 23.0303 41.8693 22.1918C41.8693 21.3433 42.0085 20.6274 42.2869 20.044C42.5687 19.4574 42.9482 19.0149 43.4254 18.7166C43.9027 18.415 44.4347 18.2642 45.0213 18.2642C45.4688 18.2642 45.8366 18.3404 46.125 18.4929C46.4134 18.642 46.642 18.8227 46.8111 19.0348C46.9801 19.2436 47.111 19.4408 47.2038 19.6264H47.2784V15.8182H49.0831V26H47.3132V24.7969H47.2038C47.111 24.9825 46.9768 25.1797 46.8011 25.3885C46.6255 25.594 46.3935 25.7696 46.1051 25.9155C45.8168 26.0613 45.4538 26.1342 45.0163 26.1342ZM45.5185 24.6577C45.8996 24.6577 46.2244 24.5549 46.4929 24.3494C46.7614 24.1406 46.9652 23.8506 47.1044 23.4794C47.2436 23.1082 47.3132 22.6757 47.3132 22.1818C47.3132 21.688 47.2436 21.2588 47.1044 20.8942C46.9685 20.5296 46.7663 20.2462 46.4979 20.044C46.2327 19.8419 45.9063 19.7408 45.5185 19.7408C45.1174 19.7408 44.7827 19.8452 44.5142 20.054C44.2457 20.2628 44.0436 20.5511 43.9077 20.919C43.7718 21.2869 43.7038 21.7079 43.7038 22.1818C43.7038 22.6591 43.7718 23.085 43.9077 23.4595C44.0469 23.8307 44.2507 24.1241 44.5192 24.3395C44.791 24.5516 45.1241 24.6577 45.5185 24.6577ZM54.3816 26.1491C53.6159 26.1491 52.9547 25.9901 52.3979 25.6719C51.8444 25.3504 51.4185 24.8963 51.1202 24.3097C50.8219 23.7197 50.6728 23.0253 50.6728 22.2266C50.6728 21.4411 50.8219 20.7517 51.1202 20.1584C51.4218 19.5618 51.8427 19.0978 52.383 18.7663C52.9232 18.4316 53.5579 18.2642 54.2871 18.2642C54.7578 18.2642 55.2019 18.3404 55.6195 18.4929C56.0404 18.642 56.4116 18.8741 56.7331 19.1889C57.0579 19.5038 57.3132 19.9048 57.4988 20.392C57.6844 20.8759 57.7772 21.4527 57.7772 22.1222V22.674H51.5179V21.4609H56.052C56.0487 21.1162 55.9741 20.8097 55.8283 20.5412C55.6825 20.2694 55.4786 20.0556 55.2168 19.8999C54.9583 19.7441 54.6567 19.6662 54.312 19.6662C53.9441 19.6662 53.6209 19.7557 53.3425 19.9347C53.0641 20.1103 52.847 20.3423 52.6912 20.6307C52.5388 20.9157 52.4609 21.2289 52.4576 21.5703V22.6293C52.4576 23.0734 52.5388 23.4545 52.7012 23.7727C52.8636 24.0876 53.0906 24.3295 53.3823 24.4986C53.6739 24.6643 54.0153 24.7472 54.4064 24.7472C54.6683 24.7472 54.9052 24.7107 55.1174 24.6378C55.3295 24.5616 55.5134 24.4505 55.6692 24.3047C55.825 24.1589 55.9426 23.9782 56.0222 23.7628L57.7026 23.9517C57.5965 24.3958 57.3944 24.7836 57.0961 25.1151C56.8011 25.4432 56.4232 25.6984 55.9625 25.8807C55.5018 26.0597 54.9748 26.1491 54.3816 26.1491ZM61.0994 15.8182V26H59.2997V15.8182H61.0994ZM63.0297 26V15.8182H64.8294V19.6264H64.9039C64.9967 19.4408 65.1277 19.2436 65.2967 19.0348C65.4657 18.8227 65.6944 18.642 65.9828 18.4929C66.2711 18.3404 66.639 18.2642 67.0865 18.2642C67.6764 18.2642 68.2084 18.415 68.6824 18.7166C69.1596 19.0149 69.5375 19.4574 69.8159 20.044C70.0976 20.6274 70.2385 21.3433 70.2385 22.1918C70.2385 23.0303 70.1009 23.7429 69.8258 24.3295C69.5507 24.9162 69.1762 25.3636 68.7022 25.6719C68.2283 25.9801 67.6913 26.1342 67.0914 26.1342C66.6539 26.1342 66.291 26.0613 66.0027 25.9155C65.7143 25.7696 65.4823 25.594 65.3066 25.3885C65.1343 25.1797 65.0001 24.9825 64.9039 24.7969H64.7995V26H63.0297ZM64.7946 22.1818C64.7946 22.6757 64.8642 23.1082 65.0034 23.4794C65.1459 23.8506 65.3497 24.1406 65.6149 24.3494C65.8833 24.5549 66.2082 24.6577 66.5893 24.6577C66.987 24.6577 67.3201 24.5516 67.5886 24.3395C67.8571 24.1241 68.0592 23.8307 68.1951 23.4595C68.3343 23.085 68.4039 22.6591 68.4039 22.1818C68.4039 21.7079 68.336 21.2869 68.2001 20.919C68.0642 20.5511 67.862 20.2628 67.5936 20.054C67.3251 19.8452 66.9904 19.7408 66.5893 19.7408C66.2048 19.7408 65.8784 19.8419 65.6099 20.044C65.3414 20.2462 65.1376 20.5296 64.9984 20.8942C64.8625 21.2588 64.7946 21.688 64.7946 22.1818ZM71.7685 26V18.3636H73.5135V19.6364H73.593C73.7322 19.1955 73.9709 18.8558 74.3089 18.6172C74.6503 18.3752 75.0398 18.2543 75.4773 18.2543C75.5767 18.2543 75.6877 18.2592 75.8104 18.2692C75.9363 18.2758 76.0407 18.2874 76.1236 18.304V19.9595C76.0473 19.933 75.9264 19.9098 75.7607 19.8899C75.5982 19.8667 75.4408 19.8551 75.2884 19.8551C74.9602 19.8551 74.6652 19.9264 74.4034 20.0689C74.1449 20.2081 73.9411 20.402 73.7919 20.6506C73.6428 20.8991 73.5682 21.1858 73.5682 21.5107V26H71.7685ZM80.3358 26.1491C79.59 26.1491 78.9437 25.9851 78.3968 25.657C77.85 25.3288 77.4257 24.8698 77.1241 24.2798C76.8258 23.6899 76.6767 23.0005 76.6767 22.2116C76.6767 21.4228 76.8258 20.7318 77.1241 20.1385C77.4257 19.5452 77.85 19.0845 78.3968 18.7564C78.9437 18.4283 79.59 18.2642 80.3358 18.2642C81.0815 18.2642 81.7278 18.4283 82.2747 18.7564C82.8216 19.0845 83.2441 19.5452 83.5424 20.1385C83.844 20.7318 83.9949 21.4228 83.9949 22.2116C83.9949 23.0005 83.844 23.6899 83.5424 24.2798C83.2441 24.8698 82.8216 25.3288 82.2747 25.657C81.7278 25.9851 81.0815 26.1491 80.3358 26.1491ZM80.3457 24.7074C80.7501 24.7074 81.0881 24.5964 81.3599 24.3743C81.6317 24.1489 81.8339 23.8473 81.9664 23.4695C82.1023 23.0916 82.1703 22.6707 82.1703 22.2067C82.1703 21.7393 82.1023 21.3168 81.9664 20.9389C81.8339 20.5578 81.6317 20.2545 81.3599 20.0291C81.0881 19.8037 80.7501 19.6911 80.3457 19.6911C79.9314 19.6911 79.5867 19.8037 79.3116 20.0291C79.0398 20.2545 78.836 20.5578 78.7001 20.9389C78.5675 21.3168 78.5012 21.7393 78.5012 22.2067C78.5012 22.6707 78.5675 23.0916 78.7001 23.4695C78.836 23.8473 79.0398 24.1489 79.3116 24.3743C79.5867 24.5964 79.9314 24.7074 80.3457 24.7074ZM89.3356 18.3636V19.7557H84.9457V18.3636H89.3356ZM86.0295 16.5341H87.8292V23.7031C87.8292 23.9451 87.8656 24.1307 87.9386 24.2599C88.0148 24.3859 88.1142 24.4721 88.2369 24.5185C88.3595 24.5649 88.4954 24.5881 88.6445 24.5881C88.7572 24.5881 88.86 24.5798 88.9528 24.5632C89.0489 24.5466 89.1218 24.5317 89.1715 24.5185L89.4748 25.9254C89.3787 25.9586 89.2411 25.995 89.0621 26.0348C88.8865 26.0746 88.671 26.0978 88.4158 26.1044C87.9651 26.1177 87.5591 26.0497 87.1978 25.9006C86.8365 25.7481 86.5498 25.5128 86.3377 25.1946C86.1289 24.8764 86.0262 24.4787 86.0295 24.0014V16.5341ZM102.76 15.8182V26H101.119L96.3219 19.0646H96.2374V26H94.3929V15.8182H96.0435L100.836 22.7585H100.926V15.8182H102.76ZM106.888 26.1541C106.404 26.1541 105.968 26.0679 105.58 25.8956C105.196 25.7199 104.891 25.4614 104.665 25.12C104.443 24.7786 104.332 24.3577 104.332 23.8572C104.332 23.4264 104.412 23.0701 104.571 22.7884C104.73 22.5066 104.947 22.2812 105.222 22.1122C105.497 21.9432 105.807 21.8156 106.152 21.7294C106.5 21.6399 106.86 21.5753 107.231 21.5355C107.678 21.4891 108.041 21.4477 108.32 21.4112C108.598 21.3714 108.8 21.3118 108.926 21.2322C109.055 21.1494 109.12 21.0218 109.12 20.8494V20.8196C109.12 20.4451 109.009 20.1551 108.787 19.9496C108.565 19.7441 108.245 19.6413 107.827 19.6413C107.387 19.6413 107.037 19.7375 106.778 19.9297C106.523 20.1219 106.351 20.349 106.261 20.6108L104.581 20.3722C104.714 19.9081 104.932 19.5204 105.237 19.2088C105.542 18.8939 105.915 18.6586 106.356 18.5028C106.797 18.3438 107.284 18.2642 107.817 18.2642C108.185 18.2642 108.552 18.3073 108.916 18.3935C109.281 18.4796 109.614 18.6222 109.915 18.821C110.217 19.0166 110.459 19.2834 110.641 19.6214C110.827 19.9595 110.92 20.3821 110.92 20.8892V26H109.19V24.951H109.13C109.021 25.1631 108.866 25.362 108.668 25.5476C108.472 25.7299 108.225 25.8774 107.927 25.9901C107.632 26.0994 107.286 26.1541 106.888 26.1541ZM107.355 24.8317C107.716 24.8317 108.03 24.7604 108.295 24.6179C108.56 24.4721 108.764 24.2798 108.906 24.0412C109.052 23.8026 109.125 23.5424 109.125 23.2607V22.3608C109.069 22.4072 108.973 22.4503 108.837 22.4901C108.704 22.5298 108.555 22.5646 108.389 22.5945C108.223 22.6243 108.059 22.6508 107.897 22.674C107.735 22.6972 107.594 22.7171 107.474 22.7337C107.206 22.7701 106.966 22.8298 106.754 22.9126C106.541 22.9955 106.374 23.1115 106.251 23.2607C106.129 23.4065 106.067 23.5954 106.067 23.8274C106.067 24.1589 106.188 24.4091 106.43 24.5781C106.672 24.7472 106.981 24.8317 107.355 24.8317ZM119.277 18.3636L116.558 26H114.569L111.849 18.3636H113.768L115.523 24.0362H115.603L117.363 18.3636H119.277ZM120.522 26V18.3636H122.322V26H120.522ZM121.427 17.2798C121.142 17.2798 120.897 17.1854 120.691 16.9964C120.486 16.8042 120.383 16.5739 120.383 16.3054C120.383 16.0336 120.486 15.8033 120.691 15.6143C120.897 15.4221 121.142 15.326 121.427 15.326C121.716 15.326 121.961 15.4221 122.163 15.6143C122.368 15.8033 122.471 16.0336 122.471 16.3054C122.471 16.5739 122.368 16.8042 122.163 16.9964C121.961 17.1854 121.716 17.2798 121.427 17.2798ZM127.494 29.0227C126.847 29.0227 126.292 28.9349 125.828 28.7592C125.364 28.5869 124.991 28.3549 124.71 28.0632C124.428 27.7715 124.232 27.4484 124.123 27.0938L125.744 26.701C125.817 26.8501 125.923 26.9976 126.062 27.1435C126.201 27.2926 126.388 27.4152 126.624 27.5114C126.862 27.6108 127.162 27.6605 127.524 27.6605C128.034 27.6605 128.457 27.5362 128.791 27.2876C129.126 27.0424 129.294 26.638 129.294 26.0746V24.6278H129.204C129.111 24.8134 128.975 25.004 128.796 25.1996C128.621 25.3951 128.387 25.5592 128.095 25.6918C127.807 25.8243 127.444 25.8906 127.007 25.8906C126.42 25.8906 125.888 25.7531 125.411 25.478C124.937 25.1996 124.559 24.7853 124.277 24.2351C123.999 23.6816 123.86 22.9889 123.86 22.157C123.86 21.3184 123.999 20.6108 124.277 20.0341C124.559 19.4541 124.938 19.0149 125.416 18.7166C125.893 18.415 126.425 18.2642 127.012 18.2642C127.459 18.2642 127.827 18.3404 128.115 18.4929C128.407 18.642 128.639 18.8227 128.811 19.0348C128.984 19.2436 129.115 19.4408 129.204 19.6264H129.303V18.3636H131.078V26.1243C131.078 26.7772 130.923 27.3175 130.611 27.745C130.299 28.1726 129.874 28.4924 129.333 28.7045C128.793 28.9167 128.18 29.0227 127.494 29.0227ZM127.509 24.4787C127.89 24.4787 128.215 24.3859 128.483 24.2003C128.752 24.0147 128.955 23.7479 129.095 23.3999C129.234 23.0518 129.303 22.6342 129.303 22.147C129.303 21.6664 129.234 21.2455 129.095 20.8842C128.959 20.523 128.757 20.2429 128.488 20.044C128.223 19.8419 127.896 19.7408 127.509 19.7408C127.108 19.7408 126.773 19.8452 126.504 20.054C126.236 20.2628 126.034 20.5495 125.898 20.9141C125.762 21.2753 125.694 21.6863 125.694 22.147C125.694 22.6143 125.762 23.0237 125.898 23.375C126.037 23.723 126.241 23.9948 126.509 24.1903C126.781 24.3826 127.114 24.4787 127.509 24.4787ZM135.12 26.1541C134.636 26.1541 134.2 26.0679 133.813 25.8956C133.428 25.7199 133.123 25.4614 132.898 25.12C132.676 24.7786 132.565 24.3577 132.565 23.8572C132.565 23.4264 132.644 23.0701 132.803 22.7884C132.963 22.5066 133.18 22.2812 133.455 22.1122C133.73 21.9432 134.04 21.8156 134.384 21.7294C134.732 21.6399 135.092 21.5753 135.463 21.5355C135.911 21.4891 136.274 21.4477 136.552 21.4112C136.83 21.3714 137.033 21.3118 137.159 21.2322C137.288 21.1494 137.352 21.0218 137.352 20.8494V20.8196C137.352 20.4451 137.241 20.1551 137.019 19.9496C136.797 19.7441 136.477 19.6413 136.06 19.6413C135.619 19.6413 135.269 19.7375 135.011 19.9297C134.756 20.1219 134.583 20.349 134.494 20.6108L132.813 20.3722C132.946 19.9081 133.165 19.5204 133.47 19.2088C133.775 18.8939 134.147 18.6586 134.588 18.5028C135.029 18.3438 135.516 18.2642 136.05 18.2642C136.418 18.2642 136.784 18.3073 137.149 18.3935C137.513 18.4796 137.846 18.6222 138.148 18.821C138.45 19.0166 138.691 19.2834 138.874 19.6214C139.059 19.9595 139.152 20.3821 139.152 20.8892V26H137.422V24.951H137.362C137.253 25.1631 137.099 25.362 136.9 25.5476C136.704 25.7299 136.458 25.8774 136.159 25.9901C135.864 26.0994 135.518 26.1541 135.12 26.1541ZM135.588 24.8317C135.949 24.8317 136.262 24.7604 136.527 24.6179C136.792 24.4721 136.996 24.2798 137.139 24.0412C137.285 23.8026 137.357 23.5424 137.357 23.2607V22.3608C137.301 22.4072 137.205 22.4503 137.069 22.4901C136.936 22.5298 136.787 22.5646 136.622 22.5945C136.456 22.6243 136.292 22.6508 136.129 22.674C135.967 22.6972 135.826 22.7171 135.707 22.7337C135.438 22.7701 135.198 22.8298 134.986 22.9126C134.774 22.9955 134.606 23.1115 134.484 23.2607C134.361 23.4065 134.3 23.5954 134.3 23.8274C134.3 24.1589 134.421 24.4091 134.663 24.5781C134.905 24.7472 135.213 24.8317 135.588 24.8317ZM144.775 18.3636V19.7557H140.385V18.3636H144.775ZM141.469 16.5341H143.269V23.7031C143.269 23.9451 143.305 24.1307 143.378 24.2599C143.454 24.3859 143.554 24.4721 143.676 24.5185C143.799 24.5649 143.935 24.5881 144.084 24.5881C144.197 24.5881 144.299 24.5798 144.392 24.5632C144.488 24.5466 144.561 24.5317 144.611 24.5185L144.914 25.9254C144.818 25.9586 144.681 25.995 144.502 26.0348C144.326 26.0746 144.11 26.0978 143.855 26.1044C143.405 26.1177 142.999 26.0497 142.637 25.9006C142.276 25.7481 141.989 25.5128 141.777 25.1946C141.568 24.8764 141.466 24.4787 141.469 24.0014V16.5341ZM149.529 26.1491C148.783 26.1491 148.137 25.9851 147.59 25.657C147.043 25.3288 146.619 24.8698 146.317 24.2798C146.019 23.6899 145.87 23.0005 145.87 22.2116C145.87 21.4228 146.019 20.7318 146.317 20.1385C146.619 19.5452 147.043 19.0845 147.59 18.7564C148.137 18.4283 148.783 18.2642 149.529 18.2642C150.275 18.2642 150.921 18.4283 151.468 18.7564C152.015 19.0845 152.438 19.5452 152.736 20.1385C153.037 20.7318 153.188 21.4228 153.188 22.2116C153.188 23.0005 153.037 23.6899 152.736 24.2798C152.438 24.8698 152.015 25.3288 151.468 25.657C150.921 25.9851 150.275 26.1491 149.529 26.1491ZM149.539 24.7074C149.943 24.7074 150.281 24.5964 150.553 24.3743C150.825 24.1489 151.027 23.8473 151.16 23.4695C151.296 23.0916 151.364 22.6707 151.364 22.2067C151.364 21.7393 151.296 21.3168 151.16 20.9389C151.027 20.5578 150.825 20.2545 150.553 20.0291C150.281 19.8037 149.943 19.6911 149.539 19.6911C149.125 19.6911 148.78 19.8037 148.505 20.0291C148.233 20.2545 148.029 20.5578 147.893 20.9389C147.761 21.3168 147.695 21.7393 147.695 22.2067C147.695 22.6707 147.761 23.0916 147.893 23.4695C148.029 23.8473 148.233 24.1489 148.505 24.3743C148.78 24.5964 149.125 24.7074 149.539 24.7074ZM154.716 26V18.3636H156.461V19.6364H156.54C156.68 19.1955 156.918 18.8558 157.256 18.6172C157.598 18.3752 157.987 18.2543 158.425 18.2543C158.524 18.2543 158.635 18.2592 158.758 18.2692C158.884 18.2758 158.988 18.2874 159.071 18.304V19.9595C158.995 19.933 158.874 19.9098 158.708 19.8899C158.546 19.8667 158.388 19.8551 158.236 19.8551C157.907 19.8551 157.613 19.9264 157.351 20.0689C157.092 20.2081 156.888 20.402 156.739 20.6506C156.59 20.8991 156.515 21.1858 156.515 21.5107V26H154.716Z" fill="#4493F8"/>
<path d="M15.75 53H13.0568V44.2727H15.8693C16.7159 44.2727 17.4403 44.4474 18.0426 44.7969C18.6449 45.1435 19.1065 45.642 19.4276 46.2926C19.7486 46.9403 19.9091 47.7159 19.9091 48.6193C19.9091 49.5284 19.7472 50.3111 19.4233 50.9673C19.0994 51.6207 18.6278 52.1236 18.0085 52.4759C17.3892 52.8253 16.6364 53 15.75 53ZM14.1136 52.0625H15.6818C16.4034 52.0625 17.0014 51.9233 17.4759 51.6449C17.9503 51.3665 18.304 50.9702 18.5369 50.456C18.7699 49.9418 18.8864 49.3295 18.8864 48.6193C18.8864 47.9148 18.7713 47.3082 18.5412 46.7997C18.3111 46.2884 17.9673 45.8963 17.5099 45.6236C17.0526 45.348 16.483 45.2102 15.8011 45.2102H14.1136V52.0625ZM21.5455 53V46.4545H22.5511V53H21.5455ZM22.0568 45.3636C21.8608 45.3636 21.6918 45.2969 21.5497 45.1634C21.4105 45.0298 21.3409 44.8693 21.3409 44.6818C21.3409 44.4943 21.4105 44.3338 21.5497 44.2003C21.6918 44.0668 21.8608 44 22.0568 44C22.2528 44 22.4205 44.0668 22.5597 44.2003C22.7017 44.3338 22.7727 44.4943 22.7727 44.6818C22.7727 44.8693 22.7017 45.0298 22.5597 45.1634C22.4205 45.2969 22.2528 45.3636 22.0568 45.3636ZM29.0295 47.9205L28.1261 48.1761C28.0692 48.0256 27.9854 47.8793 27.8746 47.7372C27.7667 47.5923 27.619 47.473 27.4315 47.3793C27.244 47.2855 27.0039 47.2386 26.7113 47.2386C26.3107 47.2386 25.9769 47.331 25.7099 47.5156C25.4457 47.6974 25.3136 47.929 25.3136 48.2102C25.3136 48.4602 25.4045 48.6577 25.5863 48.8026C25.7681 48.9474 26.0522 49.0682 26.4386 49.1648L27.4102 49.4034C27.9954 49.5455 28.4315 49.7628 28.7184 50.0554C29.0053 50.3452 29.1488 50.7187 29.1488 51.1761C29.1488 51.5511 29.0408 51.8864 28.8249 52.1818C28.6119 52.4773 28.3136 52.7102 27.93 52.8807C27.5465 53.0511 27.1005 53.1364 26.592 53.1364C25.9244 53.1364 25.3718 52.9915 24.9343 52.7017C24.4968 52.4119 24.2198 51.9886 24.1033 51.4318L25.0579 51.1932C25.1488 51.5455 25.3207 51.8097 25.5735 51.9858C25.8292 52.1619 26.163 52.25 26.5749 52.25C27.0437 52.25 27.4158 52.1506 27.6914 51.9517C27.9698 51.75 28.109 51.5085 28.109 51.2273C28.109 51 28.0295 50.8097 27.8704 50.6562C27.7113 50.5 27.467 50.3835 27.1374 50.3068L26.0465 50.0511C25.4471 49.9091 25.0067 49.6889 24.7255 49.3906C24.4471 49.0895 24.3079 48.7131 24.3079 48.2614C24.3079 47.892 24.4116 47.5653 24.619 47.2812C24.8292 46.9972 25.1147 46.7741 25.4755 46.6122C25.8391 46.4503 26.2511 46.3693 26.7113 46.3693C27.359 46.3693 27.8675 46.5114 28.2369 46.7955C28.609 47.0795 28.8732 47.4545 29.0295 47.9205ZM30.6626 55.4545V46.4545H31.6342V47.4943H31.7536C31.8274 47.3807 31.9297 47.2358 32.0604 47.0597C32.1939 46.8807 32.3842 46.7216 32.6314 46.5824C32.8814 46.4403 33.2195 46.3693 33.6456 46.3693C34.1967 46.3693 34.6825 46.5071 35.103 46.7827C35.5234 47.0582 35.8516 47.4489 36.0874 47.9545C36.3232 48.4602 36.4411 49.0568 36.4411 49.7443C36.4411 50.4375 36.3232 51.0384 36.0874 51.5469C35.8516 52.0526 35.5249 52.4446 35.1072 52.723C34.6896 52.9986 34.2081 53.1364 33.6626 53.1364C33.2422 53.1364 32.9055 53.0668 32.6527 52.9276C32.3999 52.7855 32.2053 52.625 32.0689 52.446C31.9325 52.2642 31.8274 52.1136 31.7536 51.9943H31.6683V55.4545H30.6626ZM31.6513 49.7273C31.6513 50.2216 31.7237 50.6577 31.8686 51.0355C32.0135 51.4105 32.2251 51.7045 32.5036 51.9176C32.782 52.1278 33.1229 52.233 33.5263 52.233C33.9467 52.233 34.2976 52.1222 34.5788 51.9006C34.8629 51.6761 35.076 51.375 35.218 50.9972C35.3629 50.6165 35.4354 50.1932 35.4354 49.7273C35.4354 49.267 35.3643 48.8523 35.2223 48.483C35.0831 48.1108 34.8714 47.8168 34.5874 47.6009C34.3061 47.3821 33.9524 47.2727 33.5263 47.2727C33.1172 47.2727 32.7734 47.3764 32.495 47.5838C32.2166 47.7884 32.0064 48.0753 31.8643 48.4446C31.7223 48.8111 31.6513 49.2386 31.6513 49.7273ZM38.9808 44.2727V53H37.9751V44.2727H38.9808ZM42.7489 53.1534C42.3342 53.1534 41.9577 53.0753 41.6197 52.919C41.2816 52.7599 41.0131 52.5312 40.8143 52.233C40.6154 51.9318 40.516 51.5682 40.516 51.142C40.516 50.767 40.5898 50.4631 40.7376 50.2301C40.8853 49.9943 41.0827 49.8097 41.3299 49.6761C41.5771 49.5426 41.8498 49.4432 42.1481 49.3778C42.4492 49.3097 42.7518 49.2557 43.0558 49.2159C43.4535 49.1648 43.7759 49.1264 44.0231 49.1009C44.2731 49.0724 44.4549 49.0256 44.5685 48.9602C44.685 48.8949 44.7433 48.7812 44.7433 48.6193V48.5852C44.7433 48.1648 44.6282 47.8381 44.3981 47.6051C44.1708 47.3722 43.8256 47.2557 43.3626 47.2557C42.8825 47.2557 42.506 47.3608 42.2333 47.571C41.9606 47.7812 41.7688 48.0057 41.658 48.2443L40.7035 47.9034C40.8739 47.5057 41.1012 47.196 41.3853 46.9744C41.6722 46.75 41.9847 46.5937 42.3228 46.5057C42.6637 46.4148 42.9989 46.3693 43.3285 46.3693C43.5387 46.3693 43.7802 46.3949 44.0529 46.446C44.3285 46.4943 44.5941 46.5952 44.8498 46.7486C45.1083 46.902 45.3228 47.1335 45.4933 47.4432C45.6637 47.7528 45.7489 48.1676 45.7489 48.6875V53H44.7433V52.1136H44.6921C44.6239 52.2557 44.5103 52.4077 44.3512 52.5696C44.1921 52.7315 43.9805 52.8693 43.7163 52.983C43.4521 53.0966 43.1296 53.1534 42.7489 53.1534ZM42.9023 52.25C43.3001 52.25 43.6353 52.1719 43.908 52.0156C44.1836 51.8594 44.391 51.6577 44.5302 51.4105C44.6722 51.1634 44.7433 50.9034 44.7433 50.6307V49.7102C44.7006 49.7614 44.6069 49.8082 44.462 49.8509C44.32 49.8906 44.1552 49.9261 43.9677 49.9574C43.783 49.9858 43.6026 50.0114 43.4265 50.0341C43.2532 50.054 43.1126 50.071 43.0046 50.0852C42.7433 50.1193 42.4989 50.1747 42.2717 50.2514C42.0472 50.3253 41.8654 50.4375 41.7262 50.5881C41.5898 50.7358 41.5217 50.9375 41.5217 51.1932C41.5217 51.5426 41.6509 51.8068 41.9094 51.9858C42.1708 52.1619 42.5018 52.25 42.9023 52.25ZM47.9979 55.4545C47.8274 55.4545 47.6754 55.4403 47.5419 55.4119C47.4084 55.3864 47.3161 55.3608 47.2649 55.3352L47.5206 54.4489C47.7649 54.5114 47.9808 54.5341 48.1683 54.517C48.3558 54.5 48.522 54.4162 48.6669 54.2656C48.8146 54.1179 48.9496 53.8778 49.0717 53.5455L49.2592 53.0341L46.8388 46.4545H47.9297L49.7365 51.6705H49.8047L51.6115 46.4545H52.7024L49.924 53.9545C49.799 54.2926 49.6442 54.5724 49.4595 54.794C49.2749 55.0185 49.0604 55.1847 48.8161 55.2926C48.5746 55.4006 48.3018 55.4545 47.9979 55.4545ZM54.0298 53V46.4545H55.0355V53H54.0298ZM54.5412 45.3636C54.3452 45.3636 54.1761 45.2969 54.0341 45.1634C53.8949 45.0298 53.8253 44.8693 53.8253 44.6818C53.8253 44.4943 53.8949 44.3338 54.0341 44.2003C54.1761 44.0668 54.3452 44 54.5412 44C54.7372 44 54.9048 44.0668 55.044 44.2003C55.1861 44.3338 55.2571 44.4943 55.2571 44.6818C55.2571 44.8693 55.1861 45.0298 55.044 45.1634C54.9048 45.2969 54.7372 45.3636 54.5412 45.3636ZM57.8832 49.0625V53H56.8775V46.4545H57.8491V47.4773H57.9343C58.0877 47.1449 58.3207 46.8778 58.6332 46.6761C58.9457 46.4716 59.3491 46.3693 59.8434 46.3693C60.2866 46.3693 60.6744 46.4602 61.0067 46.642C61.3391 46.821 61.5977 47.0938 61.7823 47.4602C61.967 47.8239 62.0593 48.2841 62.0593 48.8409V53H61.0536V48.9091C61.0536 48.3949 60.9201 47.9943 60.6531 47.7074C60.386 47.4176 60.0195 47.2727 59.5536 47.2727C59.2326 47.2727 58.9457 47.3423 58.6928 47.4815C58.4428 47.6207 58.2454 47.8239 58.1005 48.0909C57.9556 48.358 57.8832 48.6818 57.8832 49.0625ZM66.5391 55.5909C66.0533 55.5909 65.6357 55.5284 65.2862 55.4034C64.9368 55.2812 64.6456 55.1193 64.4126 54.9176C64.1825 54.7188 63.9993 54.5057 63.8629 54.2784L64.6641 53.7159C64.755 53.8352 64.87 53.9716 65.0092 54.125C65.1484 54.2812 65.3388 54.4162 65.5803 54.5298C65.8246 54.6463 66.1442 54.7045 66.5391 54.7045C67.0675 54.7045 67.5036 54.5767 67.8473 54.321C68.1911 54.0653 68.3629 53.6648 68.3629 53.1193V51.7898H68.2777C68.2038 51.9091 68.0987 52.0568 67.9624 52.233C67.8288 52.4062 67.6357 52.5611 67.3828 52.6974C67.1328 52.831 66.7947 52.8977 66.3686 52.8977C65.8402 52.8977 65.3658 52.7727 64.9453 52.5227C64.5277 52.2727 64.1967 51.9091 63.9524 51.4318C63.7109 50.9545 63.5902 50.375 63.5902 49.6932C63.5902 49.0227 63.7081 48.4389 63.9439 47.9418C64.1797 47.4418 64.5078 47.0554 64.9283 46.7827C65.3487 46.5071 65.8345 46.3693 66.3857 46.3693C66.8118 46.3693 67.1499 46.4403 67.3999 46.5824C67.6527 46.7216 67.8459 46.8807 67.9794 47.0597C68.1158 47.2358 68.2209 47.3807 68.2947 47.4943H68.397V46.4545H69.3686V53.1875C69.3686 53.75 69.2408 54.2074 68.9851 54.5597C68.7322 54.9148 68.3913 55.1747 67.9624 55.3395C67.5362 55.5071 67.0618 55.5909 66.5391 55.5909ZM66.505 51.9943C66.9084 51.9943 67.2493 51.902 67.5277 51.7173C67.8061 51.5327 68.0178 51.267 68.1626 50.9205C68.3075 50.5739 68.38 50.1591 68.38 49.6761C68.38 49.2045 68.3089 48.7884 68.1669 48.4276C68.0249 48.0668 67.8146 47.7841 67.5362 47.5795C67.2578 47.375 66.9141 47.2727 66.505 47.2727C66.0788 47.2727 65.7237 47.3807 65.4396 47.5966C65.1584 47.8125 64.9467 48.1023 64.8047 48.4659C64.6655 48.8295 64.5959 49.233 64.5959 49.6761C64.5959 50.1307 64.6669 50.5327 64.8089 50.8821C64.9538 51.2287 65.1669 51.5014 65.4482 51.7003C65.7322 51.8963 66.0845 51.9943 66.505 51.9943ZM76.5107 53.1534C76.0959 53.1534 75.7195 53.0753 75.3814 52.919C75.0433 52.7599 74.7749 52.5312 74.576 52.233C74.3771 51.9318 74.2777 51.5682 74.2777 51.142C74.2777 50.767 74.3516 50.4631 74.4993 50.2301C74.647 49.9943 74.8445 49.8097 75.0916 49.6761C75.3388 49.5426 75.6115 49.4432 75.9098 49.3778C76.2109 49.3097 76.5135 49.2557 76.8175 49.2159C77.2152 49.1648 77.5376 49.1264 77.7848 49.1009C78.0348 49.0724 78.2166 49.0256 78.3303 48.9602C78.4467 48.8949 78.505 48.7812 78.505 48.6193V48.5852C78.505 48.1648 78.3899 47.8381 78.1598 47.6051C77.9325 47.3722 77.5874 47.2557 77.1243 47.2557C76.6442 47.2557 76.2678 47.3608 75.995 47.571C75.7223 47.7812 75.5305 48.0057 75.4197 48.2443L74.4652 47.9034C74.6357 47.5057 74.8629 47.196 75.147 46.9744C75.4339 46.75 75.7464 46.5937 76.0845 46.5057C76.4254 46.4148 76.7607 46.3693 77.0902 46.3693C77.3004 46.3693 77.5419 46.3949 77.8146 46.446C78.0902 46.4943 78.3558 46.5952 78.6115 46.7486C78.87 46.902 79.0845 47.1335 79.255 47.4432C79.4254 47.7528 79.5107 48.1676 79.5107 48.6875V53H78.505V52.1136H78.4538C78.3857 52.2557 78.272 52.4077 78.1129 52.5696C77.9538 52.7315 77.7422 52.8693 77.478 52.983C77.2138 53.0966 76.8913 53.1534 76.5107 53.1534ZM76.6641 52.25C77.0618 52.25 77.397 52.1719 77.6697 52.0156C77.9453 51.8594 78.1527 51.6577 78.2919 51.4105C78.4339 51.1634 78.505 50.9034 78.505 50.6307V49.7102C78.4624 49.7614 78.3686 49.8082 78.2237 49.8509C78.0817 49.8906 77.9169 49.9261 77.7294 49.9574C77.5447 49.9858 77.3643 50.0114 77.1882 50.0341C77.0149 50.054 76.8743 50.071 76.7663 50.0852C76.505 50.1193 76.2607 50.1747 76.0334 50.2514C75.8089 50.3253 75.6271 50.4375 75.4879 50.5881C75.3516 50.7358 75.2834 50.9375 75.2834 51.1932C75.2834 51.5426 75.4126 51.8068 75.6712 51.9858C75.9325 52.1619 76.2635 52.25 76.6641 52.25ZM82.3519 49.0625V53H81.3462V46.4545H82.3178V47.4773H82.4031C82.5565 47.1449 82.7894 46.8778 83.1019 46.6761C83.4144 46.4716 83.8178 46.3693 84.3121 46.3693C84.7553 46.3693 85.1431 46.4602 85.4755 46.642C85.8079 46.821 86.0664 47.0938 86.2511 47.4602C86.4357 47.8239 86.5281 48.2841 86.5281 48.8409V53H85.5224V48.9091C85.5224 48.3949 85.3888 47.9943 85.1218 47.7074C84.8548 47.4176 84.4883 47.2727 84.0224 47.2727C83.7013 47.2727 83.4144 47.3423 83.1616 47.4815C82.9116 47.6207 82.7141 47.8239 82.5692 48.0909C82.4244 48.358 82.3519 48.6818 82.3519 49.0625ZM90.8374 53.1364C90.2919 53.1364 89.8104 52.9986 89.3928 52.723C88.9751 52.4446 88.6484 52.0526 88.4126 51.5469C88.1768 51.0384 88.0589 50.4375 88.0589 49.7443C88.0589 49.0568 88.1768 48.4602 88.4126 47.9545C88.6484 47.4489 88.9766 47.0582 89.397 46.7827C89.8175 46.5071 90.3033 46.3693 90.8544 46.3693C91.2805 46.3693 91.6172 46.4403 91.8643 46.5824C92.1143 46.7216 92.3047 46.8807 92.4354 47.0597C92.5689 47.2358 92.6726 47.3807 92.7464 47.4943H92.8317V44.2727H93.8374V53H92.8658V51.9943H92.7464C92.6726 52.1136 92.5675 52.2642 92.4311 52.446C92.2947 52.625 92.1001 52.7855 91.8473 52.9276C91.5945 53.0668 91.2578 53.1364 90.8374 53.1364ZM90.9737 52.233C91.3771 52.233 91.718 52.1278 91.9964 51.9176C92.2749 51.7045 92.4865 51.4105 92.6314 51.0355C92.7763 50.6577 92.8487 50.2216 92.8487 49.7273C92.8487 49.2386 92.7777 48.8111 92.6357 48.4446C92.4936 48.0753 92.2834 47.7884 92.005 47.5838C91.7266 47.3764 91.3828 47.2727 90.9737 47.2727C90.5476 47.2727 90.1925 47.3821 89.9084 47.6009C89.6271 47.8168 89.4155 48.1108 89.2734 48.483C89.1342 48.8523 89.0646 49.267 89.0646 49.7273C89.0646 50.1932 89.1357 50.6165 89.2777 50.9972C89.4226 51.375 89.6357 51.6761 89.9169 51.9006C90.201 52.1222 90.5533 52.233 90.9737 52.233ZM100.2 49.0625V53H99.1939V46.4545H100.165V47.4773H100.251C100.404 47.1449 100.637 46.8778 100.95 46.6761C101.262 46.4716 101.665 46.3693 102.16 46.3693C102.603 46.3693 102.991 46.4602 103.323 46.642C103.656 46.821 103.914 47.0938 104.099 47.4602C104.283 47.8239 104.376 48.2841 104.376 48.8409V53H103.37V48.9091C103.37 48.3949 103.237 47.9943 102.969 47.7074C102.702 47.4176 102.336 47.2727 101.87 47.2727C101.549 47.2727 101.262 47.3423 101.009 47.4815C100.759 47.6207 100.562 47.8239 100.417 48.0909C100.272 48.358 100.2 48.6818 100.2 49.0625ZM108.14 53.1534C107.725 53.1534 107.348 53.0753 107.01 52.919C106.672 52.7599 106.404 52.5312 106.205 52.233C106.006 51.9318 105.907 51.5682 105.907 51.142C105.907 50.767 105.98 50.4631 106.128 50.2301C106.276 49.9943 106.473 49.8097 106.721 49.6761C106.968 49.5426 107.24 49.4432 107.539 49.3778C107.84 49.3097 108.142 49.2557 108.446 49.2159C108.844 49.1648 109.167 49.1264 109.414 49.1009C109.664 49.0724 109.846 49.0256 109.959 48.9602C110.076 48.8949 110.134 48.7812 110.134 48.6193V48.5852C110.134 48.1648 110.019 47.8381 109.789 47.6051C109.561 47.3722 109.216 47.2557 108.753 47.2557C108.273 47.2557 107.897 47.3608 107.624 47.571C107.351 47.7812 107.159 48.0057 107.049 48.2443L106.094 47.9034C106.265 47.5057 106.492 47.196 106.776 46.9744C107.063 46.75 107.375 46.5937 107.713 46.5057C108.054 46.4148 108.39 46.3693 108.719 46.3693C108.929 46.3693 109.171 46.3949 109.444 46.446C109.719 46.4943 109.985 46.5952 110.24 46.7486C110.499 46.902 110.713 47.1335 110.884 47.4432C111.054 47.7528 111.14 48.1676 111.14 48.6875V53H110.134V52.1136H110.083C110.015 52.2557 109.901 52.4077 109.742 52.5696C109.583 52.7315 109.371 52.8693 109.107 52.983C108.843 53.0966 108.52 53.1534 108.14 53.1534ZM108.293 52.25C108.691 52.25 109.026 52.1719 109.299 52.0156C109.574 51.8594 109.782 51.6577 109.921 51.4105C110.063 51.1634 110.134 50.9034 110.134 50.6307V49.7102C110.091 49.7614 109.998 49.8082 109.853 49.8509C109.711 49.8906 109.546 49.9261 109.358 49.9574C109.174 49.9858 108.993 50.0114 108.817 50.0341C108.644 50.054 108.503 50.071 108.395 50.0852C108.134 50.1193 107.89 50.1747 107.662 50.2514C107.438 50.3253 107.256 50.4375 107.117 50.5881C106.98 50.7358 106.912 50.9375 106.912 51.1932C106.912 51.5426 107.042 51.8068 107.3 51.9858C107.561 52.1619 107.892 52.25 108.293 52.25ZM118.093 46.4545L115.673 53H114.65L112.229 46.4545H113.32L115.127 51.6705H115.195L117.002 46.4545H118.093ZM119.42 53V46.4545H120.426V53H119.42ZM119.932 45.3636C119.736 45.3636 119.567 45.2969 119.425 45.1634C119.286 45.0298 119.216 44.8693 119.216 44.6818C119.216 44.4943 119.286 44.3338 119.425 44.2003C119.567 44.0668 119.736 44 119.932 44C120.128 44 120.295 44.0668 120.435 44.2003C120.577 44.3338 120.648 44.4943 120.648 44.6818C120.648 44.8693 120.577 45.0298 120.435 45.1634C120.295 45.2969 120.128 45.3636 119.932 45.3636ZM124.91 55.5909C124.424 55.5909 124.007 55.5284 123.657 55.4034C123.308 55.2812 123.017 55.1193 122.784 54.9176C122.554 54.7188 122.37 54.5057 122.234 54.2784L123.035 53.7159C123.126 53.8352 123.241 53.9716 123.38 54.125C123.52 54.2812 123.71 54.4162 123.951 54.5298C124.196 54.6463 124.515 54.7045 124.91 54.7045C125.439 54.7045 125.875 54.5767 126.218 54.321C126.562 54.0653 126.734 53.6648 126.734 53.1193V51.7898H126.649C126.575 51.9091 126.47 52.0568 126.333 52.233C126.2 52.4062 126.007 52.5611 125.754 52.6974C125.504 52.831 125.166 52.8977 124.74 52.8977C124.211 52.8977 123.737 52.7727 123.316 52.5227C122.899 52.2727 122.568 51.9091 122.324 51.4318C122.082 50.9545 121.961 50.375 121.961 49.6932C121.961 49.0227 122.079 48.4389 122.315 47.9418C122.551 47.4418 122.879 47.0554 123.299 46.7827C123.72 46.5071 124.206 46.3693 124.757 46.3693C125.183 46.3693 125.521 46.4403 125.771 46.5824C126.024 46.7216 126.217 46.8807 126.35 47.0597C126.487 47.2358 126.592 47.3807 126.666 47.4943H126.768V46.4545H127.74V53.1875C127.74 53.75 127.612 54.2074 127.356 54.5597C127.103 54.9148 126.762 55.1747 126.333 55.3395C125.907 55.5071 125.433 55.5909 124.91 55.5909ZM124.876 51.9943C125.279 51.9943 125.62 51.902 125.899 51.7173C126.177 51.5327 126.389 51.267 126.534 50.9205C126.679 50.5739 126.751 50.1591 126.751 49.6761C126.751 49.2045 126.68 48.7884 126.538 48.4276C126.396 48.0668 126.186 47.7841 125.907 47.5795C125.629 47.375 125.285 47.2727 124.876 47.2727C124.45 47.2727 124.095 47.3807 123.811 47.5966C123.529 47.8125 123.318 48.1023 123.176 48.4659C123.037 48.8295 122.967 49.233 122.967 49.6761C122.967 50.1307 123.038 50.5327 123.18 50.8821C123.325 51.2287 123.538 51.5014 123.819 51.7003C124.103 51.8963 124.456 51.9943 124.876 51.9943ZM131.507 53.1534C131.092 53.1534 130.716 53.0753 130.377 52.919C130.039 52.7599 129.771 52.5312 129.572 52.233C129.373 51.9318 129.274 51.5682 129.274 51.142C129.274 50.767 129.348 50.4631 129.495 50.2301C129.643 49.9943 129.841 49.8097 130.088 49.6761C130.335 49.5426 130.608 49.4432 130.906 49.3778C131.207 49.3097 131.51 49.2557 131.814 49.2159C132.211 49.1648 132.534 49.1264 132.781 49.1009C133.031 49.0724 133.213 49.0256 133.326 48.9602C133.443 48.8949 133.501 48.7812 133.501 48.6193V48.5852C133.501 48.1648 133.386 47.8381 133.156 47.6051C132.929 47.3722 132.583 47.2557 132.12 47.2557C131.64 47.2557 131.264 47.3608 130.991 47.571C130.718 47.7812 130.527 48.0057 130.416 48.2443L129.461 47.9034C129.632 47.5057 129.859 47.196 130.143 46.9744C130.43 46.75 130.743 46.5937 131.081 46.5057C131.422 46.4148 131.757 46.3693 132.086 46.3693C132.297 46.3693 132.538 46.3949 132.811 46.446C133.086 46.4943 133.352 46.5952 133.608 46.7486C133.866 46.902 134.081 47.1335 134.251 47.4432C134.422 47.7528 134.507 48.1676 134.507 48.6875V53H133.501V52.1136H133.45C133.382 52.2557 133.268 52.4077 133.109 52.5696C132.95 52.7315 132.738 52.8693 132.474 52.983C132.21 53.0966 131.887 53.1534 131.507 53.1534ZM131.66 52.25C132.058 52.25 132.393 52.1719 132.666 52.0156C132.941 51.8594 133.149 51.6577 133.288 51.4105C133.43 51.1634 133.501 50.9034 133.501 50.6307V49.7102C133.458 49.7614 133.365 49.8082 133.22 49.8509C133.078 49.8906 132.913 49.9261 132.725 49.9574C132.541 49.9858 132.36 50.0114 132.184 50.0341C132.011 50.054 131.87 50.071 131.762 50.0852C131.501 50.1193 131.257 50.1747 131.029 50.2514C130.805 50.3253 130.623 50.4375 130.484 50.5881C130.348 50.7358 130.279 50.9375 130.279 51.1932C130.279 51.5426 130.409 51.8068 130.667 51.9858C130.929 52.1619 131.26 52.25 131.66 52.25ZM139.189 46.4545V47.3068H135.797V46.4545H139.189ZM136.786 44.8864H137.791V51.125C137.791 51.4091 137.832 51.6222 137.915 51.7642C138 51.9034 138.108 51.9972 138.239 52.0455C138.372 52.0909 138.513 52.1136 138.661 52.1136C138.771 52.1136 138.862 52.108 138.933 52.0966C139.004 52.0824 139.061 52.071 139.104 52.0625L139.308 52.9659C139.24 52.9915 139.145 53.017 139.023 53.0426C138.901 53.071 138.746 53.0852 138.558 53.0852C138.274 53.0852 137.996 53.0241 137.723 52.902C137.453 52.7798 137.229 52.5938 137.05 52.3438C136.874 52.0938 136.786 51.7784 136.786 51.3977V44.8864ZM140.702 53V46.4545H141.707V53H140.702ZM141.213 45.3636C141.017 45.3636 140.848 45.2969 140.706 45.1634C140.567 45.0298 140.497 44.8693 140.497 44.6818C140.497 44.4943 140.567 44.3338 140.706 44.2003C140.848 44.0668 141.017 44 141.213 44C141.409 44 141.577 44.0668 141.716 44.2003C141.858 44.3338 141.929 44.4943 141.929 44.6818C141.929 44.8693 141.858 45.0298 141.716 45.1634C141.577 45.2969 141.409 45.3636 141.213 45.3636ZM144.555 49.0625V53H143.549V46.4545H144.521V47.4773H144.606C144.76 47.1449 144.993 46.8778 145.305 46.6761C145.618 46.4716 146.021 46.3693 146.515 46.3693C146.958 46.3693 147.346 46.4602 147.679 46.642C148.011 46.821 148.27 47.0938 148.454 47.4602C148.639 47.8239 148.731 48.2841 148.731 48.8409V53H147.725V48.9091C147.725 48.3949 147.592 47.9943 147.325 47.7074C147.058 47.4176 146.691 47.2727 146.225 47.2727C145.904 47.2727 145.618 47.3423 145.365 47.4815C145.115 47.6207 144.917 47.8239 144.772 48.0909C144.627 48.358 144.555 48.6818 144.555 49.0625ZM153.211 55.5909C152.725 55.5909 152.308 55.5284 151.958 55.4034C151.609 55.2812 151.317 55.1193 151.085 54.9176C150.854 54.7188 150.671 54.5057 150.535 54.2784L151.336 53.7159C151.427 53.8352 151.542 53.9716 151.681 54.125C151.82 54.2812 152.011 54.4162 152.252 54.5298C152.496 54.6463 152.816 54.7045 153.211 54.7045C153.739 54.7045 154.175 54.5767 154.519 54.321C154.863 54.0653 155.035 53.6648 155.035 53.1193V51.7898H154.95C154.876 51.9091 154.771 52.0568 154.634 52.233C154.501 52.4062 154.308 52.5611 154.055 52.6974C153.805 52.831 153.467 52.8977 153.04 52.8977C152.512 52.8977 152.038 52.7727 151.617 52.5227C151.2 52.2727 150.869 51.9091 150.624 51.4318C150.383 50.9545 150.262 50.375 150.262 49.6932C150.262 49.0227 150.38 48.4389 150.616 47.9418C150.852 47.4418 151.18 47.0554 151.6 46.7827C152.021 46.5071 152.506 46.3693 153.058 46.3693C153.484 46.3693 153.822 46.4403 154.072 46.5824C154.325 46.7216 154.518 46.8807 154.651 47.0597C154.788 47.2358 154.893 47.3807 154.967 47.4943H155.069V46.4545H156.04V53.1875C156.04 53.75 155.913 54.2074 155.657 54.5597C155.404 54.9148 155.063 55.1747 154.634 55.3395C154.208 55.5071 153.734 55.5909 153.211 55.5909ZM153.177 51.9943C153.58 51.9943 153.921 51.902 154.2 51.7173C154.478 51.5327 154.69 51.267 154.835 50.9205C154.979 50.5739 155.052 50.1591 155.052 49.6761C155.052 49.2045 154.981 48.7884 154.839 48.4276C154.697 48.0668 154.487 47.7841 154.208 47.5795C153.93 47.375 153.586 47.2727 153.177 47.2727C152.751 47.2727 152.396 47.3807 152.112 47.5966C151.83 47.8125 151.619 48.1023 151.477 48.4659C151.337 48.8295 151.268 49.233 151.268 49.6761C151.268 50.1307 151.339 50.5327 151.481 50.8821C151.626 51.2287 151.839 51.5014 152.12 51.7003C152.404 51.8963 152.756 51.9943 153.177 51.9943ZM164.103 46.4545V47.3068H160.711V46.4545H164.103ZM161.7 44.8864H162.705V51.125C162.705 51.4091 162.746 51.6222 162.829 51.7642C162.914 51.9034 163.022 51.9972 163.153 52.0455C163.286 52.0909 163.427 52.1136 163.575 52.1136C163.685 52.1136 163.776 52.108 163.847 52.0966C163.918 52.0824 163.975 52.071 164.018 52.0625L164.222 52.9659C164.154 52.9915 164.059 53.017 163.937 53.0426C163.815 53.071 163.66 53.0852 163.472 53.0852C163.188 53.0852 162.91 53.0241 162.637 52.902C162.367 52.7798 162.143 52.5938 161.964 52.3438C161.788 52.0938 161.7 51.7784 161.7 51.3977V44.8864ZM166.762 49.0625V53H165.756V44.2727H166.762V47.4773H166.847C167.001 47.1392 167.231 46.8707 167.538 46.6719C167.847 46.4702 168.259 46.3693 168.773 46.3693C169.219 46.3693 169.61 46.4588 169.945 46.6378C170.281 46.8139 170.54 47.0852 170.725 47.4517C170.913 47.8153 171.006 48.2784 171.006 48.8409V53H170.001V48.9091C170.001 48.3892 169.866 47.9872 169.596 47.7031C169.329 47.4162 168.958 47.2727 168.484 47.2727C168.154 47.2727 167.859 47.3423 167.597 47.4815C167.339 47.6207 167.134 47.8239 166.984 48.0909C166.836 48.358 166.762 48.6818 166.762 49.0625ZM175.591 53.1364C174.96 53.1364 174.416 52.9972 173.958 52.7188C173.504 52.4375 173.153 52.0455 172.906 51.5426C172.662 51.0369 172.539 50.4489 172.539 49.7784C172.539 49.108 172.662 48.517 172.906 48.0057C173.153 47.4915 173.497 47.0909 173.937 46.804C174.38 46.5142 174.897 46.3693 175.488 46.3693C175.829 46.3693 176.166 46.4261 176.498 46.5398C176.831 46.6534 177.133 46.8381 177.406 47.0938C177.679 47.3466 177.896 47.6818 178.058 48.0994C178.22 48.517 178.301 49.0312 178.301 49.642V50.0682H173.255V49.1989H177.278C177.278 48.8295 177.204 48.5 177.056 48.2102C176.912 47.9205 176.704 47.6918 176.434 47.5241C176.167 47.3565 175.852 47.2727 175.488 47.2727C175.088 47.2727 174.741 47.3722 174.449 47.571C174.159 47.767 173.936 48.0227 173.779 48.3381C173.623 48.6534 173.545 48.9915 173.545 49.3523V49.9318C173.545 50.4261 173.63 50.8452 173.801 51.1889C173.974 51.5298 174.214 51.7898 174.521 51.9688C174.828 52.1449 175.184 52.233 175.591 52.233C175.855 52.233 176.093 52.196 176.306 52.1222C176.522 52.0455 176.708 51.9318 176.865 51.7812C177.021 51.6278 177.142 51.4375 177.227 51.2102L178.199 51.483C178.096 51.8125 177.924 52.1023 177.683 52.3523C177.441 52.5994 177.143 52.7926 176.788 52.9318C176.433 53.0682 176.034 53.1364 175.591 53.1364ZM183.342 44.2727H184.603L187.569 51.517H187.672L190.637 44.2727H191.899V53H190.91V46.3693H190.825L188.098 53H187.143L184.416 46.3693H184.331V53H183.342V44.2727ZM195.808 53.1534C195.393 53.1534 195.016 53.0753 194.678 52.919C194.34 52.7599 194.072 52.5312 193.873 52.233C193.674 51.9318 193.575 51.5682 193.575 51.142C193.575 50.767 193.648 50.4631 193.796 50.2301C193.944 49.9943 194.141 49.8097 194.388 49.6761C194.636 49.5426 194.908 49.4432 195.207 49.3778C195.508 49.3097 195.81 49.2557 196.114 49.2159C196.512 49.1648 196.835 49.1264 197.082 49.1009C197.332 49.0724 197.513 49.0256 197.627 48.9602C197.744 48.8949 197.802 48.7812 197.802 48.6193V48.5852C197.802 48.1648 197.687 47.8381 197.457 47.6051C197.229 47.3722 196.884 47.2557 196.421 47.2557C195.941 47.2557 195.565 47.3608 195.292 47.571C195.019 47.7812 194.827 48.0057 194.717 48.2443L193.762 47.9034C193.933 47.5057 194.16 47.196 194.444 46.9744C194.731 46.75 195.043 46.5937 195.381 46.5057C195.722 46.4148 196.058 46.3693 196.387 46.3693C196.597 46.3693 196.839 46.3949 197.112 46.446C197.387 46.4943 197.653 46.5952 197.908 46.7486C198.167 46.902 198.381 47.1335 198.552 47.4432C198.722 47.7528 198.808 48.1676 198.808 48.6875V53H197.802V52.1136H197.751C197.683 52.2557 197.569 52.4077 197.41 52.5696C197.251 52.7315 197.039 52.8693 196.775 52.983C196.511 53.0966 196.188 53.1534 195.808 53.1534ZM195.961 52.25C196.359 52.25 196.694 52.1719 196.967 52.0156C197.242 51.8594 197.45 51.6577 197.589 51.4105C197.731 51.1634 197.802 50.9034 197.802 50.6307V49.7102C197.759 49.7614 197.665 49.8082 197.521 49.8509C197.379 49.8906 197.214 49.9261 197.026 49.9574C196.842 49.9858 196.661 50.0114 196.485 50.0341C196.312 50.054 196.171 50.071 196.063 50.0852C195.802 50.1193 195.558 50.1747 195.33 50.2514C195.106 50.3253 194.924 50.4375 194.785 50.5881C194.648 50.7358 194.58 50.9375 194.58 51.1932C194.58 51.5426 194.71 51.8068 194.968 51.9858C195.229 52.1619 195.56 52.25 195.961 52.25ZM201.649 49.0625V53H200.643V46.4545H201.615V47.4773H201.7C201.853 47.1449 202.086 46.8778 202.399 46.6761C202.711 46.4716 203.115 46.3693 203.609 46.3693C204.052 46.3693 204.44 46.4602 204.772 46.642C205.105 46.821 205.363 47.0938 205.548 47.4602C205.733 47.8239 205.825 48.2841 205.825 48.8409V53H204.819V48.9091C204.819 48.3949 204.686 47.9943 204.419 47.7074C204.152 47.4176 203.785 47.2727 203.319 47.2727C202.998 47.2727 202.711 47.3423 202.458 47.4815C202.208 47.6207 202.011 47.8239 201.866 48.0909C201.721 48.358 201.649 48.6818 201.649 49.0625ZM210.134 53.1364C209.589 53.1364 209.107 52.9986 208.69 52.723C208.272 52.4446 207.945 52.0526 207.71 51.5469C207.474 51.0384 207.356 50.4375 207.356 49.7443C207.356 49.0568 207.474 48.4602 207.71 47.9545C207.945 47.4489 208.273 47.0582 208.694 46.7827C209.114 46.5071 209.6 46.3693 210.151 46.3693C210.577 46.3693 210.914 46.4403 211.161 46.5824C211.411 46.7216 211.602 46.8807 211.732 47.0597C211.866 47.2358 211.969 47.3807 212.043 47.4943H212.129V44.2727H213.134V53H212.163V51.9943H212.043C211.969 52.1136 211.864 52.2642 211.728 52.446C211.592 52.625 211.397 52.7855 211.144 52.9276C210.891 53.0668 210.555 53.1364 210.134 53.1364ZM210.271 52.233C210.674 52.233 211.015 52.1278 211.293 51.9176C211.572 51.7045 211.783 51.4105 211.928 51.0355C212.073 50.6577 212.146 50.2216 212.146 49.7273C212.146 49.2386 212.075 48.8111 211.933 48.4446C211.79 48.0753 211.58 47.7884 211.302 47.5838C211.023 47.3764 210.68 47.2727 210.271 47.2727C209.844 47.2727 209.489 47.3821 209.205 47.6009C208.924 47.8168 208.712 48.1108 208.57 48.483C208.431 48.8523 208.362 49.267 208.362 49.7273C208.362 50.1932 208.433 50.6165 208.575 50.9972C208.719 51.375 208.933 51.6761 209.214 51.9006C209.498 52.1222 209.85 52.233 210.271 52.233ZM217.86 53.1364C217.229 53.1364 216.685 52.9972 216.228 52.7188C215.773 52.4375 215.423 52.0455 215.175 51.5426C214.931 51.0369 214.809 50.4489 214.809 49.7784C214.809 49.108 214.931 48.517 215.175 48.0057C215.423 47.4915 215.766 47.0909 216.207 46.804C216.65 46.5142 217.167 46.3693 217.758 46.3693C218.099 46.3693 218.435 46.4261 218.768 46.5398C219.1 46.6534 219.403 46.8381 219.675 47.0938C219.948 47.3466 220.165 47.6818 220.327 48.0994C220.489 48.517 220.57 49.0312 220.57 49.642V50.0682H215.525V49.1989H219.548C219.548 48.8295 219.474 48.5 219.326 48.2102C219.181 47.9205 218.974 47.6918 218.704 47.5241C218.437 47.3565 218.121 47.2727 217.758 47.2727C217.357 47.2727 217.011 47.3722 216.718 47.571C216.428 47.767 216.205 48.0227 216.049 48.3381C215.893 48.6534 215.815 48.9915 215.815 49.3523V49.9318C215.815 50.4261 215.9 50.8452 216.07 51.1889C216.244 51.5298 216.484 51.7898 216.79 51.9688C217.097 52.1449 217.454 52.233 217.86 52.233C218.124 52.233 218.363 52.196 218.576 52.1222C218.792 52.0455 218.978 51.9318 219.134 51.7812C219.29 51.6278 219.411 51.4375 219.496 51.2102L220.468 51.483C220.366 51.8125 220.194 52.1023 219.952 52.3523C219.711 52.5994 219.413 52.7926 219.058 52.9318C218.702 53.0682 218.303 53.1364 217.86 53.1364ZM223.106 44.2727V53H222.1V44.2727H223.106ZM225.084 53V44.2727H226.09V47.4943H226.175C226.249 47.3807 226.351 47.2358 226.482 47.0597C226.615 46.8807 226.806 46.7216 227.053 46.5824C227.303 46.4403 227.641 46.3693 228.067 46.3693C228.618 46.3693 229.104 46.5071 229.525 46.7827C229.945 47.0582 230.273 47.4489 230.509 47.9545C230.745 48.4602 230.863 49.0568 230.863 49.7443C230.863 50.4375 230.745 51.0384 230.509 51.5469C230.273 52.0526 229.946 52.4446 229.529 52.723C229.111 52.9986 228.63 53.1364 228.084 53.1364C227.664 53.1364 227.327 53.0668 227.074 52.9276C226.821 52.7855 226.627 52.625 226.49 52.446C226.354 52.2642 226.249 52.1136 226.175 51.9943H226.056V53H225.084ZM226.073 49.7273C226.073 50.2216 226.145 50.6577 226.29 51.0355C226.435 51.4105 226.647 51.7045 226.925 51.9176C227.203 52.1278 227.544 52.233 227.948 52.233C228.368 52.233 228.719 52.1222 229 51.9006C229.284 51.6761 229.498 51.375 229.64 50.9972C229.784 50.6165 229.857 50.1932 229.857 49.7273C229.857 49.267 229.786 48.8523 229.644 48.483C229.505 48.1108 229.293 47.8168 229.009 47.6009C228.728 47.3821 228.374 47.2727 227.948 47.2727C227.539 47.2727 227.195 47.3764 226.917 47.5838C226.638 47.7884 226.428 48.0753 226.286 48.4446C226.144 48.8111 226.073 49.2386 226.073 49.7273ZM232.401 53V46.4545H233.373V47.4432H233.441C233.56 47.1193 233.776 46.8565 234.088 46.6548C234.401 46.4531 234.753 46.3523 235.145 46.3523C235.219 46.3523 235.311 46.3537 235.422 46.3565C235.533 46.3594 235.617 46.3636 235.674 46.3693V47.392C235.64 47.3835 235.561 47.3707 235.439 47.3537C235.32 47.3338 235.194 47.3239 235.06 47.3239C234.742 47.3239 234.458 47.3906 234.208 47.5241C233.961 47.6548 233.765 47.8366 233.62 48.0696C233.478 48.2997 233.407 48.5625 233.407 48.858V53H232.401ZM239.326 53.1364C238.735 53.1364 238.216 52.9957 237.77 52.7145C237.327 52.4332 236.98 52.0398 236.73 51.5341C236.483 51.0284 236.36 50.4375 236.36 49.7614C236.36 49.0795 236.483 48.4844 236.73 47.9759C236.98 47.4673 237.327 47.0724 237.77 46.7912C238.216 46.5099 238.735 46.3693 239.326 46.3693C239.917 46.3693 240.434 46.5099 240.877 46.7912C241.323 47.0724 241.669 47.4673 241.917 47.9759C242.167 48.4844 242.292 49.0795 242.292 49.7614C242.292 50.4375 242.167 51.0284 241.917 51.5341C241.669 52.0398 241.323 52.4332 240.877 52.7145C240.434 52.9957 239.917 53.1364 239.326 53.1364ZM239.326 52.233C239.775 52.233 240.144 52.1179 240.434 51.8878C240.723 51.6577 240.938 51.3551 241.077 50.9801C241.216 50.6051 241.286 50.1989 241.286 49.7614C241.286 49.3239 241.216 48.9162 241.077 48.5384C240.938 48.1605 240.723 47.8551 240.434 47.6222C240.144 47.3892 239.775 47.2727 239.326 47.2727C238.877 47.2727 238.507 47.3892 238.218 47.6222C237.928 47.8551 237.713 48.1605 237.574 48.5384C237.435 48.9162 237.365 49.3239 237.365 49.7614C237.365 50.1989 237.435 50.6051 237.574 50.9801C237.713 51.3551 237.928 51.6577 238.218 51.8878C238.507 52.1179 238.877 52.233 239.326 52.233ZM246.673 46.4545V47.3068H243.281V46.4545H246.673ZM244.27 44.8864H245.276V51.125C245.276 51.4091 245.317 51.6222 245.399 51.7642C245.484 51.9034 245.592 51.9972 245.723 52.0455C245.857 52.0909 245.997 52.1136 246.145 52.1136C246.256 52.1136 246.347 52.108 246.418 52.0966C246.489 52.0824 246.545 52.071 246.588 52.0625L246.793 52.9659C246.724 52.9915 246.629 53.017 246.507 53.0426C246.385 53.071 246.23 53.0852 246.043 53.0852C245.759 53.0852 245.48 53.0241 245.207 52.902C244.938 52.7798 244.713 52.5938 244.534 52.3438C244.358 52.0938 244.27 51.7784 244.27 51.3977V44.8864ZM256.197 47.9205L255.294 48.1761C255.237 48.0256 255.153 47.8793 255.043 47.7372C254.935 47.5923 254.787 47.473 254.599 47.3793C254.412 47.2855 254.172 47.2386 253.879 47.2386C253.479 47.2386 253.145 47.331 252.878 47.5156C252.614 47.6974 252.482 47.929 252.482 48.2102C252.482 48.4602 252.572 48.6577 252.754 48.8026C252.936 48.9474 253.22 49.0682 253.607 49.1648L254.578 49.4034C255.163 49.5455 255.599 49.7628 255.886 50.0554C256.173 50.3452 256.317 50.7187 256.317 51.1761C256.317 51.5511 256.209 51.8864 255.993 52.1818C255.78 52.4773 255.482 52.7102 255.098 52.8807C254.714 53.0511 254.268 53.1364 253.76 53.1364C253.092 53.1364 252.54 52.9915 252.102 52.7017C251.665 52.4119 251.388 51.9886 251.271 51.4318L252.226 51.1932C252.317 51.5455 252.489 51.8097 252.741 51.9858C252.997 52.1619 253.331 52.25 253.743 52.25C254.212 52.25 254.584 52.1506 254.859 51.9517C255.138 51.75 255.277 51.5085 255.277 51.2273C255.277 51 255.197 50.8097 255.038 50.6562C254.879 50.5 254.635 50.3835 254.305 50.3068L253.214 50.0511C252.615 49.9091 252.175 49.6889 251.893 49.3906C251.615 49.0895 251.476 48.7131 251.476 48.2614C251.476 47.892 251.58 47.5653 251.787 47.2812C251.997 46.9972 252.283 46.7741 252.643 46.6122C253.007 46.4503 253.419 46.3693 253.879 46.3693C254.527 46.3693 255.036 46.5114 255.405 46.7955C255.777 47.0795 256.041 47.4545 256.197 47.9205ZM260.575 53.1364C259.944 53.1364 259.4 52.9972 258.943 52.7188C258.488 52.4375 258.137 52.0455 257.89 51.5426C257.646 51.0369 257.524 50.4489 257.524 49.7784C257.524 49.108 257.646 48.517 257.89 48.0057C258.137 47.4915 258.481 47.0909 258.922 46.804C259.365 46.5142 259.882 46.3693 260.473 46.3693C260.814 46.3693 261.15 46.4261 261.483 46.5398C261.815 46.6534 262.118 46.8381 262.39 47.0938C262.663 47.3466 262.88 47.6818 263.042 48.0994C263.204 48.517 263.285 49.0312 263.285 49.642V50.0682H258.24V49.1989H262.262C262.262 48.8295 262.189 48.5 262.041 48.2102C261.896 47.9205 261.689 47.6918 261.419 47.5241C261.152 47.3565 260.836 47.2727 260.473 47.2727C260.072 47.2727 259.725 47.3722 259.433 47.571C259.143 47.767 258.92 48.0227 258.764 48.3381C258.608 48.6534 258.529 48.9915 258.529 49.3523V49.9318C258.529 50.4261 258.615 50.8452 258.785 51.1889C258.958 51.5298 259.199 51.7898 259.505 51.9688C259.812 52.1449 260.169 52.233 260.575 52.233C260.839 52.233 261.078 52.196 261.291 52.1222C261.507 52.0455 261.693 51.9318 261.849 51.7812C262.005 51.6278 262.126 51.4375 262.211 51.2102L263.183 51.483C263.081 51.8125 262.909 52.1023 262.667 52.3523C262.426 52.5994 262.127 52.7926 261.772 52.9318C261.417 53.0682 261.018 53.1364 260.575 53.1364ZM267.662 46.4545V47.3068H264.27V46.4545H267.662ZM265.258 44.8864H266.264V51.125C266.264 51.4091 266.305 51.6222 266.387 51.7642C266.473 51.9034 266.581 51.9972 266.711 52.0455C266.845 52.0909 266.985 52.1136 267.133 52.1136C267.244 52.1136 267.335 52.108 267.406 52.0966C267.477 52.0824 267.534 52.071 267.576 52.0625L267.781 52.9659C267.713 52.9915 267.618 53.017 267.495 53.0426C267.373 53.071 267.218 53.0852 267.031 53.0852C266.747 53.0852 266.468 53.0241 266.196 52.902C265.926 52.7798 265.701 52.5938 265.522 52.3438C265.346 52.0938 265.258 51.7784 265.258 51.3977V44.8864Z" fill="#768395"/>
<circle cx="18" cy="79" r="6" fill="#B07219"/>
<circle cx="18" cy="79" r="5.5" stroke="white" stroke-opacity="0.14902"/>
<path d="M36.3977 74.7727H37.4545V81.0114C37.4545 81.5682 37.3523 82.0412 37.1477 82.4304C36.9432 82.8196 36.6548 83.1151 36.2827 83.3168C35.9105 83.5185 35.4716 83.6193 34.9659 83.6193C34.4886 83.6193 34.0639 83.5327 33.6918 83.3594C33.3196 83.1832 33.027 82.9332 32.8139 82.6094C32.6009 82.2855 32.4943 81.9006 32.4943 81.4545H33.5341C33.5341 81.7017 33.5952 81.9176 33.7173 82.1023C33.8423 82.2841 34.0128 82.4261 34.2287 82.5284C34.4446 82.6307 34.6903 82.6818 34.9659 82.6818C35.2699 82.6818 35.5284 82.6179 35.7415 82.4901C35.9545 82.3622 36.1165 82.1747 36.2273 81.9276C36.3409 81.6776 36.3977 81.3722 36.3977 81.0114V74.7727ZM41.3622 83.6534C40.9474 83.6534 40.571 83.5753 40.233 83.419C39.8949 83.2599 39.6264 83.0312 39.4276 82.733C39.2287 82.4318 39.1293 82.0682 39.1293 81.642C39.1293 81.267 39.2031 80.9631 39.3509 80.7301C39.4986 80.4943 39.696 80.3097 39.9432 80.1761C40.1903 80.0426 40.4631 79.9432 40.7614 79.8778C41.0625 79.8097 41.3651 79.7557 41.669 79.7159C42.0668 79.6648 42.3892 79.6264 42.6364 79.6009C42.8864 79.5724 43.0682 79.5256 43.1818 79.4602C43.2983 79.3949 43.3565 79.2812 43.3565 79.1193V79.0852C43.3565 78.6648 43.2415 78.3381 43.0114 78.1051C42.7841 77.8722 42.4389 77.7557 41.9759 77.7557C41.4957 77.7557 41.1193 77.8608 40.8466 78.071C40.5739 78.2812 40.3821 78.5057 40.2713 78.7443L39.3168 78.4034C39.4872 78.0057 39.7145 77.696 39.9986 77.4744C40.2855 77.25 40.598 77.0937 40.9361 77.0057C41.277 76.9148 41.6122 76.8693 41.9418 76.8693C42.152 76.8693 42.3935 76.8949 42.6662 76.946C42.9418 76.9943 43.2074 77.0952 43.4631 77.2486C43.7216 77.402 43.9361 77.6335 44.1065 77.9432C44.277 78.2528 44.3622 78.6676 44.3622 79.1875V83.5H43.3565V82.6136H43.3054C43.2372 82.7557 43.1236 82.9077 42.9645 83.0696C42.8054 83.2315 42.5938 83.3693 42.3295 83.483C42.0653 83.5966 41.7429 83.6534 41.3622 83.6534ZM41.5156 82.75C41.9134 82.75 42.2486 82.6719 42.5213 82.5156C42.7969 82.3594 43.0043 82.1577 43.1435 81.9105C43.2855 81.6634 43.3565 81.4034 43.3565 81.1307V80.2102C43.3139 80.2614 43.2202 80.3082 43.0753 80.3509C42.9332 80.3906 42.7685 80.4261 42.581 80.4574C42.3963 80.4858 42.2159 80.5114 42.0398 80.5341C41.8665 80.554 41.7259 80.571 41.6179 80.5852C41.3565 80.6193 41.1122 80.6747 40.8849 80.7514C40.6605 80.8253 40.4787 80.9375 40.3395 81.0881C40.2031 81.2358 40.1349 81.4375 40.1349 81.6932C40.1349 82.0426 40.2642 82.3068 40.5227 82.4858C40.7841 82.6619 41.1151 82.75 41.5156 82.75ZM51.3157 76.9545L48.8952 83.5H47.8725L45.4521 76.9545H46.543L48.3498 82.1705H48.418L50.2248 76.9545H51.3157ZM54.37 83.6534C53.9553 83.6534 53.5788 83.5753 53.2408 83.419C52.9027 83.2599 52.6342 83.0312 52.4354 82.733C52.2365 82.4318 52.1371 82.0682 52.1371 81.642C52.1371 81.267 52.2109 80.9631 52.3587 80.7301C52.5064 80.4943 52.7038 80.3097 52.951 80.1761C53.1982 80.0426 53.4709 79.9432 53.7692 79.8778C54.0703 79.8097 54.3729 79.7557 54.6768 79.7159C55.0746 79.6648 55.397 79.6264 55.6442 79.6009C55.8942 79.5724 56.076 79.5256 56.1896 79.4602C56.3061 79.3949 56.3643 79.2812 56.3643 79.1193V79.0852C56.3643 78.6648 56.2493 78.3381 56.0192 78.1051C55.7919 77.8722 55.4467 77.7557 54.9837 77.7557C54.5036 77.7557 54.1271 77.8608 53.8544 78.071C53.5817 78.2812 53.3899 78.5057 53.2791 78.7443L52.3246 78.4034C52.495 78.0057 52.7223 77.696 53.0064 77.4744C53.2933 77.25 53.6058 77.0937 53.9439 77.0057C54.2848 76.9148 54.62 76.8693 54.9496 76.8693C55.1598 76.8693 55.4013 76.8949 55.674 76.946C55.9496 76.9943 56.2152 77.0952 56.4709 77.2486C56.7294 77.402 56.9439 77.6335 57.1143 77.9432C57.2848 78.2528 57.37 78.6676 57.37 79.1875V83.5H56.3643V82.6136H56.3132C56.245 82.7557 56.1314 82.9077 55.9723 83.0696C55.8132 83.2315 55.6016 83.3693 55.3374 83.483C55.0732 83.5966 54.7507 83.6534 54.37 83.6534ZM54.5234 82.75C54.9212 82.75 55.2564 82.6719 55.5291 82.5156C55.8047 82.3594 56.0121 82.1577 56.1513 81.9105C56.2933 81.6634 56.3643 81.4034 56.3643 81.1307V80.2102C56.3217 80.2614 56.228 80.3082 56.0831 80.3509C55.9411 80.3906 55.7763 80.4261 55.5888 80.4574C55.4041 80.4858 55.2237 80.5114 55.0476 80.5341C54.8743 80.554 54.7337 80.571 54.6257 80.5852C54.3643 80.6193 54.12 80.6747 53.8928 80.7514C53.6683 80.8253 53.4865 80.9375 53.3473 81.0881C53.2109 81.2358 53.1428 81.4375 53.1428 81.6932C53.1428 82.0426 53.272 82.3068 53.5305 82.4858C53.7919 82.6619 54.1229 82.75 54.5234 82.75Z" fill="#768395"/>
<rect x="71" y="68" width="55" height="22" rx="11" fill="#388BFD" fill-opacity="0.101961"/>
<path d="M86.8295 76.9545C86.7784 76.5227 86.571 76.1875 86.2074 75.9489C85.8438 75.7102 85.3977 75.5909 84.8693 75.5909C84.483 75.5909 84.1449 75.6534 83.8551 75.7784C83.5682 75.9034 83.3438 76.0753 83.1818 76.294C83.0227 76.5128 82.9432 76.7614 82.9432 77.0398C82.9432 77.2727 82.9986 77.473 83.1094 77.6406C83.223 77.8054 83.3679 77.9432 83.544 78.054C83.7202 78.1619 83.9048 78.2514 84.098 78.3224C84.2912 78.3906 84.4688 78.446 84.6307 78.4886L85.517 78.7273C85.7443 78.7869 85.9972 78.8693 86.2756 78.9744C86.5568 79.0795 86.8253 79.223 87.081 79.4048C87.3395 79.5838 87.5526 79.8139 87.7202 80.0952C87.8878 80.3764 87.9716 80.7216 87.9716 81.1307C87.9716 81.6023 87.848 82.0284 87.6009 82.4091C87.3565 82.7898 86.9986 83.0923 86.527 83.3168C86.0582 83.5412 85.4886 83.6534 84.8182 83.6534C84.1932 83.6534 83.652 83.5526 83.1946 83.3509C82.7401 83.1491 82.3821 82.8679 82.1207 82.5071C81.8622 82.1463 81.7159 81.7273 81.6818 81.25H82.7727C82.8011 81.5795 82.9119 81.8523 83.1051 82.0682C83.3011 82.2812 83.5483 82.4403 83.8466 82.5455C84.1477 82.6477 84.4716 82.6989 84.8182 82.6989C85.2216 82.6989 85.5838 82.6335 85.9048 82.5028C86.2259 82.3693 86.4801 82.1847 86.6676 81.9489C86.8551 81.7102 86.9489 81.4318 86.9489 81.1136C86.9489 80.8239 86.8679 80.5881 86.706 80.4062C86.544 80.2244 86.331 80.0767 86.0668 79.9631C85.8026 79.8494 85.517 79.75 85.2102 79.6648L84.1364 79.358C83.4545 79.1619 82.9148 78.8821 82.517 78.5185C82.1193 78.1548 81.9205 77.679 81.9205 77.0909C81.9205 76.6023 82.0526 76.1761 82.3168 75.8125C82.5838 75.446 82.9418 75.1619 83.3906 74.9602C83.8423 74.7557 84.3466 74.6534 84.9034 74.6534C85.4659 74.6534 85.9659 74.7543 86.4034 74.956C86.8409 75.1548 87.1875 75.4276 87.4432 75.7741C87.7017 76.1207 87.8381 76.5142 87.8523 76.9545H86.8295ZM91.0558 83.5L89.0614 76.9545H90.1183L91.533 81.9659H91.6012L92.9989 76.9545H94.0728L95.4535 81.9489H95.5217L96.9364 76.9545H97.9933L95.9989 83.5H95.0103L93.5785 78.4716H93.4762L92.0444 83.5H91.0558ZM99.3228 83.5V76.9545H100.328V83.5H99.3228ZM99.8342 75.8636C99.6381 75.8636 99.4691 75.7969 99.3271 75.6634C99.1879 75.5298 99.1183 75.3693 99.1183 75.1818C99.1183 74.9943 99.1879 74.8338 99.3271 74.7003C99.4691 74.5668 99.6381 74.5 99.8342 74.5C100.03 74.5 100.198 74.5668 100.337 74.7003C100.479 74.8338 100.55 74.9943 100.55 75.1818C100.55 75.3693 100.479 75.5298 100.337 75.6634C100.198 75.7969 100.03 75.8636 99.8342 75.8636ZM103.176 79.5625V83.5H102.17V76.9545H103.142V77.9773H103.227C103.381 77.6449 103.614 77.3778 103.926 77.1761C104.239 76.9716 104.642 76.8693 105.136 76.8693C105.58 76.8693 105.967 76.9602 106.3 77.142C106.632 77.321 106.891 77.5938 107.075 77.9602C107.26 78.3239 107.352 78.7841 107.352 79.3409V83.5H106.347V79.4091C106.347 78.8949 106.213 78.4943 105.946 78.2074C105.679 77.9176 105.313 77.7727 104.847 77.7727C104.526 77.7727 104.239 77.8423 103.986 77.9815C103.736 78.1207 103.538 78.3239 103.393 78.5909C103.249 78.858 103.176 79.1818 103.176 79.5625ZM111.832 86.0909C111.346 86.0909 110.929 86.0284 110.579 85.9034C110.23 85.7812 109.939 85.6193 109.706 85.4176C109.475 85.2188 109.292 85.0057 109.156 84.7784L109.957 84.2159C110.048 84.3352 110.163 84.4716 110.302 84.625C110.441 84.7812 110.632 84.9162 110.873 85.0298C111.118 85.1463 111.437 85.2045 111.832 85.2045C112.36 85.2045 112.797 85.0767 113.14 84.821C113.484 84.5653 113.656 84.1648 113.656 83.6193V82.2898H113.571C113.497 82.4091 113.392 82.5568 113.255 82.733C113.122 82.9062 112.929 83.0611 112.676 83.1974C112.426 83.331 112.088 83.3977 111.662 83.3977C111.133 83.3977 110.659 83.2727 110.238 83.0227C109.821 82.7727 109.49 82.4091 109.245 81.9318C109.004 81.4545 108.883 80.875 108.883 80.1932C108.883 79.5227 109.001 78.9389 109.237 78.4418C109.473 77.9418 109.801 77.5554 110.221 77.2827C110.642 77.0071 111.127 76.8693 111.679 76.8693C112.105 76.8693 112.443 76.9403 112.693 77.0824C112.946 77.2216 113.139 77.3807 113.272 77.5597C113.409 77.7358 113.514 77.8807 113.588 77.9943H113.69V76.9545H114.662V83.6875C114.662 84.25 114.534 84.7074 114.278 85.0597C114.025 85.4148 113.684 85.6747 113.255 85.8395C112.829 86.0071 112.355 86.0909 111.832 86.0909ZM111.798 82.4943C112.201 82.4943 112.542 82.402 112.821 82.2173C113.099 82.0327 113.311 81.767 113.456 81.4205C113.6 81.0739 113.673 80.6591 113.673 80.1761C113.673 79.7045 113.602 79.2884 113.46 78.9276C113.318 78.5668 113.108 78.2841 112.829 78.0795C112.551 77.875 112.207 77.7727 111.798 77.7727C111.372 77.7727 111.017 77.8807 110.733 78.0966C110.451 78.3125 110.24 78.6023 110.098 78.9659C109.958 79.3295 109.889 79.733 109.889 80.1761C109.889 80.6307 109.96 81.0327 110.102 81.3821C110.247 81.7287 110.46 82.0014 110.741 82.2003C111.025 82.3963 111.377 82.4943 111.798 82.4943Z" fill="#4493F8"/>
</svg>
