<svg width="428" height="114" viewBox="0 0 428 114" fill="none" xmlns="http://www.w3.org/2000/svg">
<path d="M0 6C0 2.68629 2.68629 0 6 0H410C413.314 0 416 2.68629 416 6V96C416 99.3137 413.314 102 410 102H6C2.68629 102 0 99.3137 0 96V6Z" fill="#768395" fill-opacity="0.1"/>
<path d="M13.0043 15.8182H15.2614L18.2841 23.196H18.4034L21.4261 15.8182H23.6832V26H21.9134V19.005H21.8189L19.005 25.9702H17.6825L14.8686 18.9901H14.7741V26H13.0043V15.8182ZM25.6122 26V18.3636H27.4119V26H25.6122ZM26.517 17.2798C26.232 17.2798 25.9867 17.1854 25.7812 16.9964C25.5758 16.8042 25.473 16.5739 25.473 16.3054C25.473 16.0336 25.5758 15.8033 25.7812 15.6143C25.9867 15.4221 26.232 15.326 26.517 15.326C26.8054 15.326 27.0507 15.4221 27.2528 15.6143C27.4583 15.8033 27.5611 16.0336 27.5611 16.3054C27.5611 16.5739 27.4583 16.8042 27.2528 16.9964C27.0507 17.1854 26.8054 17.2798 26.517 17.2798ZM31.0623 21.5256V26H29.2626V18.3636H30.9828V19.6612H31.0723C31.2479 19.2337 31.528 18.8939 31.9125 18.642C32.3002 18.3902 32.7792 18.2642 33.3493 18.2642C33.8762 18.2642 34.3353 18.3769 34.7264 18.6023C35.1208 18.8277 35.4257 19.1541 35.6412 19.5817C35.8599 20.0092 35.9676 20.5279 35.9643 21.1378V26H34.1646V21.4162C34.1646 20.9058 34.032 20.5064 33.7669 20.218C33.505 19.9297 33.1421 19.7855 32.6781 19.7855C32.3632 19.7855 32.0832 19.8551 31.8379 19.9943C31.5959 20.1302 31.4054 20.3274 31.2662 20.5859C31.1303 20.8445 31.0623 21.1577 31.0623 21.5256ZM41.1745 26.1491C40.4089 26.1491 39.7477 25.9901 39.1909 25.6719C38.6374 25.3504 38.2115 24.8963 37.9132 24.3097C37.6149 23.7197 37.4657 23.0253 37.4657 22.2266C37.4657 21.4411 37.6149 20.7517 37.9132 20.1584C38.2148 19.5618 38.6357 19.0978 39.176 18.7663C39.7162 18.4316 40.3509 18.2642 41.0801 18.2642C41.5507 18.2642 41.9949 18.3404 42.4125 18.4929C42.8334 18.642 43.2046 18.8741 43.5261 19.1889C43.8509 19.5038 44.1061 19.9048 44.2917 20.392C44.4773 20.8759 44.5701 21.4527 44.5701 22.1222V22.674H38.3109V21.4609H42.845C42.8417 21.1162 42.7671 20.8097 42.6213 20.5412C42.4754 20.2694 42.2716 20.0556 42.0098 19.8999C41.7512 19.7441 41.4496 19.6662 41.1049 19.6662C40.737 19.6662 40.4139 19.7557 40.1355 19.9347C39.8571 20.1103 39.64 20.3423 39.4842 20.6307C39.3317 20.9157 39.2538 21.2289 39.2505 21.5703V22.6293C39.2505 23.0734 39.3317 23.4545 39.4941 23.7727C39.6565 24.0876 39.8836 24.3295 40.1752 24.4986C40.4669 24.6643 40.8083 24.7472 41.1994 24.7472C41.4612 24.7472 41.6982 24.7107 41.9103 24.6378C42.1225 24.5616 42.3064 24.4505 42.4622 24.3047C42.618 24.1589 42.7356 23.9782 42.8152 23.7628L44.4956 23.9517C44.3895 24.3958 44.1873 24.7836 43.889 25.1151C43.594 25.4432 43.2162 25.6984 42.7555 25.8807C42.2948 26.0597 41.7678 26.1491 41.1745 26.1491ZM49.4237 26.1491C48.6613 26.1491 48.0067 25.9818 47.4599 25.647C46.9163 25.3123 46.497 24.8499 46.2021 24.2599C45.9104 23.6667 45.7646 22.9839 45.7646 22.2116C45.7646 21.4361 45.9137 20.7517 46.212 20.1584C46.5103 19.5618 46.9312 19.0978 47.4748 18.7663C48.0217 18.4316 48.668 18.2642 49.4137 18.2642C50.0335 18.2642 50.582 18.3786 51.0593 18.6072C51.5399 18.8326 51.9227 19.1525 52.2077 19.5668C52.4928 19.9777 52.6552 20.4583 52.695 21.0085H50.9748C50.9052 20.6406 50.7395 20.334 50.4776 20.0888C50.2191 19.8402 49.8728 19.7159 49.4386 19.7159C49.0707 19.7159 48.7475 19.8153 48.4691 20.0142C48.1907 20.2098 47.9736 20.4915 47.8178 20.8594C47.6654 21.2273 47.5891 21.6681 47.5891 22.1818C47.5891 22.7022 47.6654 23.1496 47.8178 23.5241C47.9703 23.8954 48.1841 24.1821 48.4592 24.3842C48.7376 24.5831 49.064 24.6825 49.4386 24.6825C49.7037 24.6825 49.9407 24.6328 50.1495 24.5334C50.3616 24.4306 50.5389 24.2831 50.6815 24.0909C50.824 23.8987 50.9218 23.665 50.9748 23.3899H52.695C52.6519 23.9302 52.4928 24.4091 52.2177 24.8267C51.9426 25.241 51.5681 25.5658 51.0941 25.8011C50.6201 26.0331 50.0633 26.1491 49.4237 26.1491ZM54.1728 26V18.3636H55.9178V19.6364H55.9973C56.1365 19.1955 56.3752 18.8558 56.7132 18.6172C57.0546 18.3752 57.4441 18.2543 57.8816 18.2543C57.981 18.2543 58.092 18.2592 58.2147 18.2692C58.3406 18.2758 58.445 18.2874 58.5279 18.304V19.9595C58.4516 19.933 58.3307 19.9098 58.165 19.8899C58.0025 19.8667 57.8451 19.8551 57.6926 19.8551C57.3645 19.8551 57.0695 19.9264 56.8077 20.0689C56.5492 20.2081 56.3453 20.402 56.1962 20.6506C56.0471 20.8991 55.9725 21.1858 55.9725 21.5107V26H54.1728ZM61.7843 26.1541C61.3004 26.1541 60.8645 26.0679 60.4767 25.8956C60.0923 25.7199 59.7873 25.4614 59.562 25.12C59.3399 24.7786 59.2289 24.3577 59.2289 23.8572C59.2289 23.4264 59.3084 23.0701 59.4675 22.7884C59.6266 22.5066 59.8437 22.2812 60.1188 22.1122C60.3939 21.9432 60.7038 21.8156 61.0485 21.7294C61.3965 21.6399 61.7561 21.5753 62.1273 21.5355C62.5748 21.4891 62.9377 21.4477 63.2161 21.4112C63.4945 21.3714 63.6967 21.3118 63.8226 21.2322C63.9519 21.1494 64.0165 21.0218 64.0165 20.8494V20.8196C64.0165 20.4451 63.9055 20.1551 63.6834 19.9496C63.4614 19.7441 63.1415 19.6413 62.7239 19.6413C62.2831 19.6413 61.9334 19.7375 61.6749 19.9297C61.4197 20.1219 61.2473 20.349 61.1578 20.6108L59.4775 20.3722C59.61 19.9081 59.8288 19.5204 60.1337 19.2088C60.4386 18.8939 60.8115 18.6586 61.2523 18.5028C61.6931 18.3438 62.1803 18.2642 62.714 18.2642C63.0819 18.2642 63.4481 18.3073 63.8127 18.3935C64.1773 18.4796 64.5104 18.6222 64.812 18.821C65.1136 19.0166 65.3555 19.2834 65.5378 19.6214C65.7234 19.9595 65.8162 20.3821 65.8162 20.8892V26H64.0861V24.951H64.0265C63.9171 25.1631 63.763 25.362 63.5641 25.5476C63.3685 25.7299 63.1216 25.8774 62.8233 25.9901C62.5283 26.0994 62.182 26.1541 61.7843 26.1541ZM62.2516 24.8317C62.6129 24.8317 62.9261 24.7604 63.1912 24.6179C63.4564 24.4721 63.6602 24.2798 63.8027 24.0412C63.9486 23.8026 64.0215 23.5424 64.0215 23.2607V22.3608C63.9651 22.4072 63.869 22.4503 63.7331 22.4901C63.6006 22.5298 63.4514 22.5646 63.2857 22.5945C63.12 22.6243 62.9559 22.6508 62.7935 22.674C62.6311 22.6972 62.4902 22.7171 62.3709 22.7337C62.1025 22.7701 61.8622 22.8298 61.65 22.9126C61.4379 22.9955 61.2705 23.1115 61.1479 23.2607C61.0253 23.4065 60.964 23.5954 60.964 23.8274C60.964 24.1589 61.0849 24.4091 61.3269 24.5781C61.5688 24.7472 61.8771 24.8317 62.2516 24.8317ZM71.4938 18.3636V19.7557H66.9796V18.3636H71.4938ZM68.1081 26V17.6428C68.1081 17.129 68.2142 16.7015 68.4263 16.3601C68.6417 16.0187 68.9301 15.7635 69.2914 15.5945C69.6526 15.4254 70.0537 15.3409 70.4945 15.3409C70.806 15.3409 71.0828 15.3658 71.3248 15.4155C71.5667 15.4652 71.7457 15.5099 71.8617 15.5497L71.5037 16.9418C71.4275 16.9186 71.3314 16.8954 71.2154 16.8722C71.0994 16.8456 70.9701 16.8324 70.8276 16.8324C70.4928 16.8324 70.2559 16.9136 70.1167 17.076C69.9808 17.2351 69.9128 17.4638 69.9128 17.7621V26H68.1081ZM76.7164 18.3636V19.7557H72.3265V18.3636H76.7164ZM73.4103 16.5341H75.21V23.7031C75.21 23.9451 75.2465 24.1307 75.3194 24.2599C75.3957 24.3859 75.4951 24.4721 75.6177 24.5185C75.7404 24.5649 75.8762 24.5881 76.0254 24.5881C76.1381 24.5881 76.2408 24.5798 76.3336 24.5632C76.4297 24.5466 76.5027 24.5317 76.5524 24.5185L76.8556 25.9254C76.7595 25.9586 76.622 25.995 76.443 26.0348C76.2673 26.0746 76.0519 26.0978 75.7967 26.1044C75.3459 26.1177 74.9399 26.0497 74.5787 25.9006C74.2174 25.7481 73.9307 25.5128 73.7186 25.1946C73.5098 24.8764 73.407 24.4787 73.4103 24.0014V16.5341ZM90.489 19.2536H88.6296C88.5766 18.9486 88.4788 18.6785 88.3363 18.4432C88.1938 18.2045 88.0165 18.0024 87.8043 17.8366C87.5922 17.6709 87.3503 17.5466 87.0785 17.4638C86.81 17.3776 86.52 17.3345 86.2085 17.3345C85.6549 17.3345 85.1644 17.4737 84.7369 17.7521C84.3093 18.0272 83.9746 18.4316 83.7326 18.9652C83.4906 19.4955 83.3697 20.1435 83.3697 20.9091C83.3697 21.688 83.4906 22.3442 83.7326 22.8778C83.9779 23.4081 84.3126 23.8092 84.7369 24.081C85.1644 24.3494 85.6533 24.4837 86.2035 24.4837C86.5084 24.4837 86.7934 24.4439 87.0586 24.3643C87.3271 24.2815 87.5674 24.1605 87.7795 24.0014C87.9949 23.8423 88.1755 23.6468 88.3214 23.4148C88.4705 23.1828 88.5733 22.9176 88.6296 22.6193L90.489 22.6293C90.4194 23.1132 90.2686 23.5672 90.0366 23.9915C89.8079 24.4157 89.5079 24.7902 89.1367 25.1151C88.7655 25.4366 88.3313 25.6884 87.8342 25.8707C87.337 26.0497 86.7852 26.1392 86.1786 26.1392C85.2837 26.1392 84.485 25.9321 83.7823 25.5178C83.0797 25.1035 82.5262 24.5052 82.1218 23.723C81.7174 22.9408 81.5153 22.0028 81.5153 20.9091C81.5153 19.812 81.7191 18.8741 82.1268 18.0952C82.5344 17.313 83.0896 16.7147 83.7923 16.3004C84.4949 15.8861 85.2904 15.679 86.1786 15.679C86.7454 15.679 87.2724 15.7585 87.7596 15.9176C88.2468 16.0767 88.681 16.3104 89.0621 16.6186C89.4433 16.9235 89.7565 17.2981 90.0018 17.7422C90.2504 18.183 90.4128 18.6868 90.489 19.2536ZM93.8983 15.8182V26H92.0985V15.8182H93.8983ZM99.0799 26.1491C98.3342 26.1491 97.6879 25.9851 97.141 25.657C96.5941 25.3288 96.1699 24.8698 95.8683 24.2798C95.57 23.6899 95.4208 23.0005 95.4208 22.2116C95.4208 21.4228 95.57 20.7318 95.8683 20.1385C96.1699 19.5452 96.5941 19.0845 97.141 18.7564C97.6879 18.4283 98.3342 18.2642 99.0799 18.2642C99.8256 18.2642 100.472 18.4283 101.019 18.7564C101.566 19.0845 101.988 19.5452 102.287 20.1385C102.588 20.7318 102.739 21.4228 102.739 22.2116C102.739 23.0005 102.588 23.6899 102.287 24.2798C101.988 24.8698 101.566 25.3288 101.019 25.657C100.472 25.9851 99.8256 26.1491 99.0799 26.1491ZM99.0898 24.7074C99.4942 24.7074 99.8323 24.5964 100.104 24.3743C100.376 24.1489 100.578 23.8473 100.711 23.4695C100.846 23.0916 100.914 22.6707 100.914 22.2067C100.914 21.7393 100.846 21.3168 100.711 20.9389C100.578 20.5578 100.376 20.2545 100.104 20.0291C99.8323 19.8037 99.4942 19.6911 99.0898 19.6911C98.6755 19.6911 98.3308 19.8037 98.0558 20.0291C97.784 20.2545 97.5801 20.5578 97.4442 20.9389C97.3117 21.3168 97.2454 21.7393 97.2454 22.2067C97.2454 22.6707 97.3117 23.0916 97.4442 23.4695C97.5801 23.8473 97.784 24.1489 98.0558 24.3743C98.3308 24.5964 98.6755 24.7074 99.0898 24.7074ZM106.066 21.5256V26H104.267V18.3636H105.987V19.6612H106.076C106.252 19.2337 106.532 18.8939 106.916 18.642C107.304 18.3902 107.783 18.2642 108.353 18.2642C108.88 18.2642 109.339 18.3769 109.73 18.6023C110.125 18.8277 110.43 19.1541 110.645 19.5817C110.864 20.0092 110.972 20.5279 110.968 21.1378V26H109.169V21.4162C109.169 20.9058 109.036 20.5064 108.771 20.218C108.509 19.9297 108.146 19.7855 107.682 19.7855C107.367 19.7855 107.087 19.8551 106.842 19.9943C106.6 20.1302 106.409 20.3274 106.27 20.5859C106.134 20.8445 106.066 21.1577 106.066 21.5256ZM116.178 26.1491C115.413 26.1491 114.752 25.9901 114.195 25.6719C113.641 25.3504 113.215 24.8963 112.917 24.3097C112.619 23.7197 112.47 23.0253 112.47 22.2266C112.47 21.4411 112.619 20.7517 112.917 20.1584C113.219 19.5618 113.64 19.0978 114.18 18.7663C114.72 18.4316 115.355 18.2642 116.084 18.2642C116.555 18.2642 116.999 18.3404 117.416 18.4929C117.837 18.642 118.209 18.8741 118.53 19.1889C118.855 19.5038 119.11 19.9048 119.296 20.392C119.481 20.8759 119.574 21.4527 119.574 22.1222V22.674H113.315V21.4609H117.849C117.846 21.1162 117.771 20.8097 117.625 20.5412C117.479 20.2694 117.276 20.0556 117.014 19.8999C116.755 19.7441 116.454 19.6662 116.109 19.6662C115.741 19.6662 115.418 19.7557 115.139 19.9347C114.861 20.1103 114.644 20.3423 114.488 20.6307C114.336 20.9157 114.258 21.2289 114.254 21.5703V22.6293C114.254 23.0734 114.336 23.4545 114.498 23.7727C114.66 24.0876 114.887 24.3295 115.179 24.4986C115.471 24.6643 115.812 24.7472 116.203 24.7472C116.465 24.7472 116.702 24.7107 116.914 24.6378C117.126 24.5616 117.31 24.4505 117.466 24.3047C117.622 24.1589 117.74 23.9782 117.819 23.7628L119.499 23.9517C119.393 24.3958 119.191 24.7836 118.893 25.1151C118.598 25.4432 118.22 25.6984 117.759 25.8807C117.299 26.0597 116.772 26.1491 116.178 26.1491Z" fill="#4493F8"/>
<path d="M13.0568 44.2727H14.3182L17.2841 51.517H17.3864L20.3523 44.2727H21.6136V53H20.625V46.3693H20.5398L17.8125 53H16.858L14.1307 46.3693H14.0455V53H13.0568V44.2727ZM23.5962 53V46.4545H24.6019V53H23.5962ZM24.1076 45.3636C23.9116 45.3636 23.7425 45.2969 23.6005 45.1634C23.4613 45.0298 23.3917 44.8693 23.3917 44.6818C23.3917 44.4943 23.4613 44.3338 23.6005 44.2003C23.7425 44.0668 23.9116 44 24.1076 44C24.3036 44 24.4712 44.0668 24.6104 44.2003C24.7525 44.3338 24.8235 44.4943 24.8235 44.6818C24.8235 44.8693 24.7525 45.0298 24.6104 45.1634C24.4712 45.2969 24.3036 45.3636 24.1076 45.3636ZM27.4496 49.0625V53H26.4439V46.4545H27.4155V47.4773H27.5007C27.6541 47.1449 27.8871 46.8778 28.1996 46.6761C28.5121 46.4716 28.9155 46.3693 29.4098 46.3693C29.853 46.3693 30.2408 46.4602 30.5732 46.642C30.9055 46.821 31.1641 47.0938 31.3487 47.4602C31.5334 47.8239 31.6257 48.2841 31.6257 48.8409V53H30.62V48.9091C30.62 48.3949 30.4865 47.9943 30.2195 47.7074C29.9524 47.4176 29.5859 47.2727 29.12 47.2727C28.799 47.2727 28.5121 47.3423 28.2592 47.4815C28.0092 47.6207 27.8118 47.8239 27.6669 48.0909C27.522 48.358 27.4496 48.6818 27.4496 49.0625ZM36.2077 53.1364C35.5771 53.1364 35.033 52.9972 34.5756 52.7188C34.1211 52.4375 33.7702 52.0455 33.5231 51.5426C33.2788 51.0369 33.1566 50.4489 33.1566 49.7784C33.1566 49.108 33.2788 48.517 33.5231 48.0057C33.7702 47.4915 34.114 47.0909 34.5543 46.804C34.9975 46.5142 35.5146 46.3693 36.1055 46.3693C36.4464 46.3693 36.783 46.4261 37.1154 46.5398C37.4478 46.6534 37.7504 46.8381 38.0231 47.0938C38.2958 47.3466 38.5131 47.6818 38.6751 48.0994C38.837 48.517 38.918 49.0312 38.918 49.642V50.0682H33.8725V49.1989H37.8952C37.8952 48.8295 37.8214 48.5 37.6737 48.2102C37.5288 47.9205 37.3214 47.6918 37.0515 47.5241C36.7844 47.3565 36.4691 47.2727 36.1055 47.2727C35.7049 47.2727 35.3583 47.3722 35.0657 47.571C34.7759 47.767 34.5529 48.0227 34.3967 48.3381C34.2404 48.6534 34.1623 48.9915 34.1623 49.3523V49.9318C34.1623 50.4261 34.2475 50.8452 34.418 51.1889C34.5913 51.5298 34.8313 51.7898 35.1381 51.9688C35.445 52.1449 35.8015 52.233 36.2077 52.233C36.4719 52.233 36.7106 52.196 36.9237 52.1222C37.1396 52.0455 37.3256 51.9318 37.4819 51.7812C37.6381 51.6278 37.7589 51.4375 37.8441 51.2102L38.8157 51.483C38.7134 51.8125 38.5415 52.1023 38.3001 52.3523C38.0586 52.5994 37.7603 52.7926 37.4052 52.9318C37.0501 53.0682 36.6509 53.1364 36.2077 53.1364ZM43.1069 53.1364C42.4933 53.1364 41.9648 52.9915 41.5217 52.7017C41.0785 52.4119 40.7376 52.0128 40.4989 51.5043C40.2603 50.9957 40.141 50.4148 40.141 49.7614C40.141 49.0966 40.2631 48.5099 40.5075 48.0014C40.7546 47.4901 41.0984 47.0909 41.5387 46.804C41.9819 46.5142 42.4989 46.3693 43.0898 46.3693C43.5501 46.3693 43.9648 46.4545 44.3342 46.625C44.7035 46.7955 45.006 47.0341 45.2418 47.3409C45.4776 47.6477 45.6239 48.0057 45.6808 48.4148H44.6751C44.5984 48.1165 44.4279 47.8523 44.1637 47.6222C43.9023 47.3892 43.5501 47.2727 43.1069 47.2727C42.7148 47.2727 42.3711 47.375 42.0756 47.5795C41.783 47.7812 41.5543 48.0668 41.3896 48.4361C41.2276 48.8026 41.1467 49.233 41.1467 49.7273C41.1467 50.233 41.2262 50.6733 41.3853 51.0483C41.5472 51.4233 41.7745 51.7145 42.0671 51.9219C42.3626 52.1293 42.7092 52.233 43.1069 52.233C43.3683 52.233 43.6055 52.1875 43.8185 52.0966C44.0316 52.0057 44.212 51.875 44.3597 51.7045C44.5075 51.5341 44.6126 51.3295 44.6751 51.0909H45.6808C45.6239 51.4773 45.4833 51.8253 45.2589 52.1349C45.0373 52.4418 44.7433 52.6861 44.3768 52.8679C44.0131 53.0469 43.5898 53.1364 43.1069 53.1364ZM47.1509 53V46.4545H48.1225V47.4432H48.1907C48.31 47.1193 48.5259 46.8565 48.8384 46.6548C49.1509 46.4531 49.5032 46.3523 49.8952 46.3523C49.9691 46.3523 50.0614 46.3537 50.1722 46.3565C50.283 46.3594 50.3668 46.3636 50.4237 46.3693V47.392C50.3896 47.3835 50.3114 47.3707 50.1893 47.3537C50.07 47.3338 49.9435 47.3239 49.81 47.3239C49.4918 47.3239 49.2077 47.3906 48.9577 47.5241C48.7106 47.6548 48.5146 47.8366 48.3697 48.0696C48.2276 48.2997 48.1566 48.5625 48.1566 48.858V53H47.1509ZM53.5419 53.1534C53.1271 53.1534 52.7507 53.0753 52.4126 52.919C52.0746 52.7599 51.8061 52.5312 51.6072 52.233C51.4084 51.9318 51.3089 51.5682 51.3089 51.142C51.3089 50.767 51.3828 50.4631 51.5305 50.2301C51.6783 49.9943 51.8757 49.8097 52.1229 49.6761C52.37 49.5426 52.6428 49.4432 52.9411 49.3778C53.2422 49.3097 53.5447 49.2557 53.8487 49.2159C54.2464 49.1648 54.5689 49.1264 54.8161 49.1009C55.0661 49.0724 55.2479 49.0256 55.3615 48.9602C55.478 48.8949 55.5362 48.7812 55.5362 48.6193V48.5852C55.5362 48.1648 55.4212 47.8381 55.1911 47.6051C54.9638 47.3722 54.6186 47.2557 54.1555 47.2557C53.6754 47.2557 53.299 47.3608 53.0263 47.571C52.7536 47.7812 52.5618 48.0057 52.451 48.2443L51.4964 47.9034C51.6669 47.5057 51.8942 47.196 52.1783 46.9744C52.4652 46.75 52.7777 46.5937 53.1158 46.5057C53.4567 46.4148 53.7919 46.3693 54.1214 46.3693C54.3317 46.3693 54.5732 46.3949 54.8459 46.446C55.1214 46.4943 55.3871 46.5952 55.6428 46.7486C55.9013 46.902 56.1158 47.1335 56.2862 47.4432C56.4567 47.7528 56.5419 48.1676 56.5419 48.6875V53H55.5362V52.1136H55.4851C55.4169 52.2557 55.3033 52.4077 55.1442 52.5696C54.9851 52.7315 54.7734 52.8693 54.5092 52.983C54.245 53.0966 53.9226 53.1534 53.5419 53.1534ZM53.6953 52.25C54.093 52.25 54.4283 52.1719 54.701 52.0156C54.9766 51.8594 55.1839 51.6577 55.3232 51.4105C55.4652 51.1634 55.5362 50.9034 55.5362 50.6307V49.7102C55.4936 49.7614 55.3999 49.8082 55.255 49.8509C55.1129 49.8906 54.9482 49.9261 54.7607 49.9574C54.576 49.9858 54.3956 50.0114 54.2195 50.0341C54.0462 50.054 53.9055 50.071 53.7976 50.0852C53.5362 50.1193 53.2919 50.1747 53.0646 50.2514C52.8402 50.3253 52.6584 50.4375 52.5192 50.5881C52.3828 50.7358 52.3146 50.9375 52.3146 51.1932C52.3146 51.5426 52.4439 51.8068 52.7024 51.9858C52.9638 52.1619 53.2947 52.25 53.6953 52.25ZM61.2923 46.4545V47.3068H57.7638V46.4545H61.2923ZM58.8207 53V45.5511C58.8207 45.1761 58.9087 44.8636 59.0849 44.6136C59.261 44.3636 59.4897 44.1761 59.771 44.0511C60.0522 43.9261 60.3491 43.8636 60.6616 43.8636C60.9087 43.8636 61.1104 43.8835 61.2667 43.9233C61.4229 43.9631 61.5394 44 61.6161 44.0341L61.3263 44.9034C61.2752 44.8864 61.2042 44.8651 61.1133 44.8395C61.0252 44.8139 60.9087 44.8011 60.7638 44.8011C60.4315 44.8011 60.1914 44.8849 60.0437 45.0526C59.8988 45.2202 59.8263 45.4659 59.8263 45.7898V53H58.8207ZM65.5483 46.4545V47.3068H62.1562V46.4545H65.5483ZM63.1449 44.8864H64.1506V51.125C64.1506 51.4091 64.1918 51.6222 64.2741 51.7642C64.3594 51.9034 64.4673 51.9972 64.598 52.0455C64.7315 52.0909 64.8722 52.1136 65.0199 52.1136C65.1307 52.1136 65.2216 52.108 65.2926 52.0966C65.3636 52.0824 65.4205 52.071 65.4631 52.0625L65.6676 52.9659C65.5994 52.9915 65.5043 53.017 65.3821 53.0426C65.2599 53.071 65.1051 53.0852 64.9176 53.0852C64.6335 53.0852 64.3551 53.0241 64.0824 52.902C63.8125 52.7798 63.5881 52.5938 63.4091 52.3438C63.233 52.0938 63.1449 51.7784 63.1449 51.3977V44.8864ZM73.0952 53.1364C72.4815 53.1364 71.9531 52.9915 71.5099 52.7017C71.0668 52.4119 70.7259 52.0128 70.4872 51.5043C70.2486 50.9957 70.1293 50.4148 70.1293 49.7614C70.1293 49.0966 70.2514 48.5099 70.4957 48.0014C70.7429 47.4901 71.0866 47.0909 71.527 46.804C71.9702 46.5142 72.4872 46.3693 73.0781 46.3693C73.5384 46.3693 73.9531 46.4545 74.3224 46.625C74.6918 46.7955 74.9943 47.0341 75.2301 47.3409C75.4659 47.6477 75.6122 48.0057 75.669 48.4148H74.6634C74.5866 48.1165 74.4162 47.8523 74.152 47.6222C73.8906 47.3892 73.5384 47.2727 73.0952 47.2727C72.7031 47.2727 72.3594 47.375 72.0639 47.5795C71.7713 47.7812 71.5426 48.0668 71.3778 48.4361C71.2159 48.8026 71.1349 49.233 71.1349 49.7273C71.1349 50.233 71.2145 50.6733 71.3736 51.0483C71.5355 51.4233 71.7628 51.7145 72.0554 51.9219C72.3509 52.1293 72.6974 52.233 73.0952 52.233C73.3565 52.233 73.5938 52.1875 73.8068 52.0966C74.0199 52.0057 74.2003 51.875 74.348 51.7045C74.4957 51.5341 74.6009 51.3295 74.6634 51.0909H75.669C75.6122 51.4773 75.4716 51.8253 75.2472 52.1349C75.0256 52.4418 74.7315 52.6861 74.3651 52.8679C74.0014 53.0469 73.5781 53.1364 73.0952 53.1364ZM78.1449 44.2727V53H77.1392V44.2727H78.1449ZM82.646 53.1364C82.055 53.1364 81.5366 52.9957 81.0906 52.7145C80.6474 52.4332 80.3008 52.0398 80.0508 51.5341C79.8036 51.0284 79.68 50.4375 79.68 49.7614C79.68 49.0795 79.8036 48.4844 80.0508 47.9759C80.3008 47.4673 80.6474 47.0724 81.0906 46.7912C81.5366 46.5099 82.055 46.3693 82.646 46.3693C83.2369 46.3693 83.7539 46.5099 84.1971 46.7912C84.6431 47.0724 84.9897 47.4673 85.2369 47.9759C85.4869 48.4844 85.6119 49.0795 85.6119 49.7614C85.6119 50.4375 85.4869 51.0284 85.2369 51.5341C84.9897 52.0398 84.6431 52.4332 84.1971 52.7145C83.7539 52.9957 83.2369 53.1364 82.646 53.1364ZM82.646 52.233C83.0948 52.233 83.4641 52.1179 83.7539 51.8878C84.0437 51.6577 84.2582 51.3551 84.3974 50.9801C84.5366 50.6051 84.6062 50.1989 84.6062 49.7614C84.6062 49.3239 84.5366 48.9162 84.3974 48.5384C84.2582 48.1605 84.0437 47.8551 83.7539 47.6222C83.4641 47.3892 83.0948 47.2727 82.646 47.2727C82.1971 47.2727 81.8278 47.3892 81.538 47.6222C81.2482 47.8551 81.0337 48.1605 80.8945 48.5384C80.7553 48.9162 80.6857 49.3239 80.6857 49.7614C80.6857 50.1989 80.7553 50.6051 80.8945 50.9801C81.0337 51.3551 81.2482 51.6577 81.538 51.8878C81.8278 52.1179 82.1971 52.233 82.646 52.233ZM88.1527 49.0625V53H87.147V46.4545H88.1186V47.4773H88.2038C88.3572 47.1449 88.5902 46.8778 88.9027 46.6761C89.2152 46.4716 89.6186 46.3693 90.1129 46.3693C90.5561 46.3693 90.9439 46.4602 91.2763 46.642C91.6087 46.821 91.8672 47.0938 92.0518 47.4602C92.2365 47.8239 92.3288 48.2841 92.3288 48.8409V53H91.3232V48.9091C91.3232 48.3949 91.1896 47.9943 90.9226 47.7074C90.6555 47.4176 90.2891 47.2727 89.8232 47.2727C89.5021 47.2727 89.2152 47.3423 88.9624 47.4815C88.7124 47.6207 88.5149 47.8239 88.37 48.0909C88.2251 48.358 88.1527 48.6818 88.1527 49.0625ZM96.9109 53.1364C96.2802 53.1364 95.7362 52.9972 95.2788 52.7188C94.8242 52.4375 94.4734 52.0455 94.2262 51.5426C93.9819 51.0369 93.8597 50.4489 93.8597 49.7784C93.8597 49.108 93.9819 48.517 94.2262 48.0057C94.4734 47.4915 94.8171 47.0909 95.2575 46.804C95.7006 46.5142 96.2177 46.3693 96.8086 46.3693C97.1495 46.3693 97.4862 46.4261 97.8185 46.5398C98.1509 46.6534 98.4535 46.8381 98.7262 47.0938C98.9989 47.3466 99.2163 47.6818 99.3782 48.0994C99.5401 48.517 99.6211 49.0312 99.6211 49.642V50.0682H94.5756V49.1989H98.5984C98.5984 48.8295 98.5245 48.5 98.3768 48.2102C98.2319 47.9205 98.0245 47.6918 97.7546 47.5241C97.4876 47.3565 97.1722 47.2727 96.8086 47.2727C96.408 47.2727 96.0614 47.3722 95.7688 47.571C95.479 47.767 95.256 48.0227 95.0998 48.3381C94.9435 48.6534 94.8654 48.9915 94.8654 49.3523V49.9318C94.8654 50.4261 94.9506 50.8452 95.1211 51.1889C95.2944 51.5298 95.5344 51.7898 95.8413 51.9688C96.1481 52.1449 96.5046 52.233 96.9109 52.233C97.1751 52.233 97.4137 52.196 97.6268 52.1222C97.8427 52.0455 98.0288 51.9318 98.185 51.7812C98.3413 51.6278 98.462 51.4375 98.5472 51.2102L99.5188 51.483C99.4165 51.8125 99.2447 52.1023 99.0032 52.3523C98.7617 52.5994 98.4634 52.7926 98.1083 52.9318C97.7532 53.0682 97.354 53.1364 96.9109 53.1364ZM106.009 53L104.015 46.4545H105.071L106.486 51.4659H106.554L107.952 46.4545H109.026L110.407 51.4489H110.475L111.89 46.4545H112.946L110.952 53H109.963L108.532 47.9716H108.429L106.998 53H106.009ZM114.276 53V46.4545H115.248V47.4432H115.316C115.435 47.1193 115.651 46.8565 115.963 46.6548C116.276 46.4531 116.628 46.3523 117.02 46.3523C117.094 46.3523 117.186 46.3537 117.297 46.3565C117.408 46.3594 117.492 46.3636 117.549 46.3693V47.392C117.515 47.3835 117.436 47.3707 117.314 47.3537C117.195 47.3338 117.069 47.3239 116.935 47.3239C116.617 47.3239 116.333 47.3906 116.083 47.5241C115.836 47.6548 115.64 47.8366 115.495 48.0696C115.353 48.2997 115.282 48.5625 115.282 48.858V53H114.276ZM118.741 53V46.4545H119.746V53H118.741ZM119.252 45.3636C119.056 45.3636 118.887 45.2969 118.745 45.1634C118.606 45.0298 118.536 44.8693 118.536 44.6818C118.536 44.4943 118.606 44.3338 118.745 44.2003C118.887 44.0668 119.056 44 119.252 44C119.448 44 119.616 44.0668 119.755 44.2003C119.897 44.3338 119.968 44.4943 119.968 44.6818C119.968 44.8693 119.897 45.0298 119.755 45.1634C119.616 45.2969 119.448 45.3636 119.252 45.3636ZM124.435 46.4545V47.3068H121.043V46.4545H124.435ZM122.032 44.8864H123.037V51.125C123.037 51.4091 123.078 51.6222 123.161 51.7642C123.246 51.9034 123.354 51.9972 123.485 52.0455C123.618 52.0909 123.759 52.1136 123.907 52.1136C124.017 52.1136 124.108 52.108 124.179 52.0966C124.25 52.0824 124.307 52.071 124.35 52.0625L124.554 52.9659C124.486 52.9915 124.391 53.017 124.269 53.0426C124.147 53.071 123.992 53.0852 123.804 53.0852C123.52 53.0852 123.242 53.0241 122.969 52.902C122.699 52.7798 122.475 52.5938 122.296 52.3438C122.12 52.0938 122.032 51.7784 122.032 51.3977V44.8864ZM128.794 46.4545V47.3068H125.402V46.4545H128.794ZM126.391 44.8864H127.397V51.125C127.397 51.4091 127.438 51.6222 127.52 51.7642C127.605 51.9034 127.713 51.9972 127.844 52.0455C127.978 52.0909 128.118 52.1136 128.266 52.1136C128.377 52.1136 128.468 52.108 128.539 52.0966C128.61 52.0824 128.667 52.071 128.709 52.0625L128.914 52.9659C128.846 52.9915 128.75 53.017 128.628 53.0426C128.506 53.071 128.351 53.0852 128.164 53.0852C127.88 53.0852 127.601 53.0241 127.328 52.902C127.059 52.7798 126.834 52.5938 126.655 52.3438C126.479 52.0938 126.391 51.7784 126.391 51.3977V44.8864ZM132.981 53.1364C132.35 53.1364 131.806 52.9972 131.349 52.7188C130.895 52.4375 130.544 52.0455 130.297 51.5426C130.052 51.0369 129.93 50.4489 129.93 49.7784C129.93 49.108 130.052 48.517 130.297 48.0057C130.544 47.4915 130.887 47.0909 131.328 46.804C131.771 46.5142 132.288 46.3693 132.879 46.3693C133.22 46.3693 133.556 46.4261 133.889 46.5398C134.221 46.6534 134.524 46.8381 134.797 47.0938C135.069 47.3466 135.287 47.6818 135.449 48.0994C135.61 48.517 135.691 49.0312 135.691 49.642V50.0682H130.646V49.1989H134.669C134.669 48.8295 134.595 48.5 134.447 48.2102C134.302 47.9205 134.095 47.6918 133.825 47.5241C133.558 47.3565 133.243 47.2727 132.879 47.2727C132.478 47.2727 132.132 47.3722 131.839 47.571C131.549 47.767 131.326 48.0227 131.17 48.3381C131.014 48.6534 130.936 48.9915 130.936 49.3523V49.9318C130.936 50.4261 131.021 50.8452 131.191 51.1889C131.365 51.5298 131.605 51.7898 131.912 51.9688C132.218 52.1449 132.575 52.233 132.981 52.233C133.245 52.233 133.484 52.196 133.697 52.1222C133.913 52.0455 134.099 51.9318 134.255 51.7812C134.412 51.6278 134.532 51.4375 134.618 51.2102L135.589 51.483C135.487 51.8125 135.315 52.1023 135.074 52.3523C134.832 52.5994 134.534 52.7926 134.179 52.9318C133.824 53.0682 133.424 53.1364 132.981 53.1364ZM138.227 49.0625V53H137.221V46.4545H138.193V47.4773H138.278C138.431 47.1449 138.664 46.8778 138.977 46.6761C139.289 46.4716 139.693 46.3693 140.187 46.3693C140.63 46.3693 141.018 46.4602 141.35 46.642C141.683 46.821 141.941 47.0938 142.126 47.4602C142.311 47.8239 142.403 48.2841 142.403 48.8409V53H141.397V48.9091C141.397 48.3949 141.264 47.9943 140.997 47.7074C140.73 47.4176 140.363 47.2727 139.897 47.2727C139.576 47.2727 139.289 47.3423 139.037 47.4815C138.787 47.6207 138.589 47.8239 138.444 48.0909C138.299 48.358 138.227 48.6818 138.227 49.0625ZM147.616 53V46.4545H148.621V53H147.616ZM148.127 45.3636C147.931 45.3636 147.762 45.2969 147.62 45.1634C147.481 45.0298 147.411 44.8693 147.411 44.6818C147.411 44.4943 147.481 44.3338 147.62 44.2003C147.762 44.0668 147.931 44 148.127 44C148.323 44 148.491 44.0668 148.63 44.2003C148.772 44.3338 148.843 44.4943 148.843 44.6818C148.843 44.8693 148.772 45.0298 148.63 45.1634C148.491 45.2969 148.323 45.3636 148.127 45.3636ZM151.469 49.0625V53H150.463V46.4545H151.435V47.4773H151.52C151.674 47.1449 151.907 46.8778 152.219 46.6761C152.532 46.4716 152.935 46.3693 153.429 46.3693C153.873 46.3693 154.26 46.4602 154.593 46.642C154.925 46.821 155.184 47.0938 155.368 47.4602C155.553 47.8239 155.645 48.2841 155.645 48.8409V53H154.64V48.9091C154.64 48.3949 154.506 47.9943 154.239 47.7074C153.972 47.4176 153.605 47.2727 153.14 47.2727C152.819 47.2727 152.532 47.3423 152.279 47.4815C152.029 47.6207 151.831 47.8239 151.686 48.0909C151.542 48.358 151.469 48.6818 151.469 49.0625ZM168.017 47H166.96C166.898 46.696 166.788 46.429 166.632 46.1989C166.479 45.9688 166.291 45.7756 166.07 45.6193C165.851 45.4602 165.608 45.3409 165.341 45.2614C165.074 45.1818 164.795 45.142 164.506 45.142C163.977 45.142 163.499 45.2756 163.07 45.5426C162.643 45.8097 162.304 46.2031 162.051 46.723C161.801 47.2429 161.676 47.8807 161.676 48.6364C161.676 49.392 161.801 50.0298 162.051 50.5497C162.304 51.0696 162.643 51.4631 163.07 51.7301C163.499 51.9972 163.977 52.1307 164.506 52.1307C164.795 52.1307 165.074 52.0909 165.341 52.0114C165.608 51.9318 165.851 51.8139 166.07 51.6577C166.291 51.4986 166.479 51.304 166.632 51.0739C166.788 50.8409 166.898 50.5739 166.96 50.2727H168.017C167.938 50.7187 167.793 51.1179 167.582 51.4702C167.372 51.8224 167.111 52.1222 166.798 52.3693C166.486 52.6136 166.135 52.7997 165.746 52.9276C165.359 53.0554 164.946 53.1193 164.506 53.1193C163.761 53.1193 163.099 52.9375 162.52 52.5739C161.94 52.2102 161.484 51.6932 161.152 51.0227C160.82 50.3523 160.653 49.5568 160.653 48.6364C160.653 47.7159 160.82 46.9205 161.152 46.25C161.484 45.5795 161.94 45.0625 162.52 44.6989C163.099 44.3352 163.761 44.1534 164.506 44.1534C164.946 44.1534 165.359 44.2173 165.746 44.3452C166.135 44.473 166.486 44.6605 166.798 44.9077C167.111 45.152 167.372 45.4503 167.582 45.8026C167.793 46.152 167.938 46.5511 168.017 47ZM172.145 51.4659V45.8409H173.1V51.4659H172.145ZM169.81 49.1307V48.1761H175.435V49.1307H169.81ZM180.055 51.4659V45.8409H181.01V51.4659H180.055ZM177.72 49.1307V48.1761H183.345V49.1307H177.72ZM192.909 50.3239V46.4545H193.914V53H192.909V51.892H192.841C192.687 52.2244 192.449 52.5071 192.125 52.7401C191.801 52.9702 191.392 53.0852 190.897 53.0852C190.488 53.0852 190.125 52.9957 189.806 52.8168C189.488 52.6349 189.238 52.3622 189.056 51.9986C188.875 51.6321 188.784 51.1705 188.784 50.6136V46.4545H189.789V50.5455C189.789 51.0227 189.923 51.4034 190.19 51.6875C190.46 51.9716 190.804 52.1136 191.221 52.1136C191.471 52.1136 191.725 52.0497 191.984 51.9219C192.245 51.794 192.464 51.598 192.64 51.3338C192.819 51.0696 192.909 50.733 192.909 50.3239ZM200.393 47.9205L199.489 48.1761C199.433 48.0256 199.349 47.8793 199.238 47.7372C199.13 47.5923 198.982 47.473 198.795 47.3793C198.607 47.2855 198.367 47.2386 198.075 47.2386C197.674 47.2386 197.34 47.331 197.073 47.5156C196.809 47.6974 196.677 47.929 196.677 48.2102C196.677 48.4602 196.768 48.6577 196.95 48.8026C197.131 48.9474 197.415 49.0682 197.802 49.1648L198.773 49.4034C199.359 49.5455 199.795 49.7628 200.082 50.0554C200.369 50.3452 200.512 50.7187 200.512 51.1761C200.512 51.5511 200.404 51.8864 200.188 52.1818C199.975 52.4773 199.677 52.7102 199.293 52.8807C198.91 53.0511 198.464 53.1364 197.955 53.1364C197.288 53.1364 196.735 52.9915 196.298 52.7017C195.86 52.4119 195.583 51.9886 195.467 51.4318L196.421 51.1932C196.512 51.5455 196.684 51.8097 196.937 51.9858C197.192 52.1619 197.526 52.25 197.938 52.25C198.407 52.25 198.779 52.1506 199.055 51.9517C199.333 51.75 199.472 51.5085 199.472 51.2273C199.472 51 199.393 50.8097 199.234 50.6562C199.075 50.5 198.83 50.3835 198.501 50.3068L197.41 50.0511C196.81 49.9091 196.37 49.6889 196.089 49.3906C195.81 49.0895 195.671 48.7131 195.671 48.2614C195.671 47.892 195.775 47.5653 195.982 47.2812C196.192 46.9972 196.478 46.7741 196.839 46.6122C197.202 46.4503 197.614 46.3693 198.075 46.3693C198.722 46.3693 199.231 46.5114 199.6 46.7955C199.972 47.0795 200.237 47.4545 200.393 47.9205ZM202.026 53V46.4545H203.032V53H202.026ZM202.537 45.3636C202.341 45.3636 202.172 45.2969 202.03 45.1634C201.891 45.0298 201.821 44.8693 201.821 44.6818C201.821 44.4943 201.891 44.3338 202.03 44.2003C202.172 44.0668 202.341 44 202.537 44C202.733 44 202.901 44.0668 203.04 44.2003C203.182 44.3338 203.253 44.4943 203.253 44.6818C203.253 44.8693 203.182 45.0298 203.04 45.1634C202.901 45.2969 202.733 45.3636 202.537 45.3636ZM205.879 49.0625V53H204.874V46.4545H205.845V47.4773H205.93C206.084 47.1449 206.317 46.8778 206.629 46.6761C206.942 46.4716 207.345 46.3693 207.839 46.3693C208.283 46.3693 208.67 46.4602 209.003 46.642C209.335 46.821 209.594 47.0938 209.778 47.4602C209.963 47.8239 210.055 48.2841 210.055 48.8409V53H209.05V48.9091C209.05 48.3949 208.916 47.9943 208.649 47.7074C208.382 47.4176 208.016 47.2727 207.55 47.2727C207.229 47.2727 206.942 47.3423 206.689 47.4815C206.439 47.6207 206.241 47.8239 206.097 48.0909C205.952 48.358 205.879 48.6818 205.879 49.0625ZM214.535 55.5909C214.049 55.5909 213.632 55.5284 213.282 55.4034C212.933 55.2812 212.642 55.1193 212.409 54.9176C212.179 54.7188 211.995 54.5057 211.859 54.2784L212.66 53.7159C212.751 53.8352 212.866 53.9716 213.005 54.125C213.145 54.2812 213.335 54.4162 213.576 54.5298C213.821 54.6463 214.14 54.7045 214.535 54.7045C215.064 54.7045 215.5 54.5767 215.843 54.321C216.187 54.0653 216.359 53.6648 216.359 53.1193V51.7898H216.274C216.2 51.9091 216.095 52.0568 215.958 52.233C215.825 52.4062 215.632 52.5611 215.379 52.6974C215.129 52.831 214.791 52.8977 214.365 52.8977C213.836 52.8977 213.362 52.7727 212.941 52.5227C212.524 52.2727 212.193 51.9091 211.949 51.4318C211.707 50.9545 211.586 50.375 211.586 49.6932C211.586 49.0227 211.704 48.4389 211.94 47.9418C212.176 47.4418 212.504 47.0554 212.924 46.7827C213.345 46.5071 213.831 46.3693 214.382 46.3693C214.808 46.3693 215.146 46.4403 215.396 46.5824C215.649 46.7216 215.842 46.8807 215.975 47.0597C216.112 47.2358 216.217 47.3807 216.291 47.4943H216.393V46.4545H217.365V53.1875C217.365 53.75 217.237 54.2074 216.981 54.5597C216.728 54.9148 216.387 55.1747 215.958 55.3395C215.532 55.5071 215.058 55.5909 214.535 55.5909ZM214.501 51.9943C214.904 51.9943 215.245 51.902 215.524 51.7173C215.802 51.5327 216.014 51.267 216.159 50.9205C216.304 50.5739 216.376 50.1591 216.376 49.6761C216.376 49.2045 216.305 48.7884 216.163 48.4276C216.021 48.0668 215.811 47.7841 215.532 47.5795C215.254 47.375 214.91 47.2727 214.501 47.2727C214.075 47.2727 213.72 47.3807 213.436 47.5966C213.154 47.8125 212.943 48.1023 212.801 48.4659C212.662 48.8295 212.592 49.233 212.592 49.6761C212.592 50.1307 212.663 50.5327 212.805 50.8821C212.95 51.2287 213.163 51.5014 213.444 51.7003C213.728 51.8963 214.081 51.9943 214.501 51.9943ZM230.081 48.6364C230.081 49.5568 229.914 50.3523 229.582 51.0227C229.25 51.6932 228.794 52.2102 228.214 52.5739C227.635 52.9375 226.973 53.1193 226.228 53.1193C225.484 53.1193 224.822 52.9375 224.243 52.5739C223.663 52.2102 223.207 51.6932 222.875 51.0227C222.542 50.3523 222.376 49.5568 222.376 48.6364C222.376 47.7159 222.542 46.9205 222.875 46.25C223.207 45.5795 223.663 45.0625 224.243 44.6989C224.822 44.3352 225.484 44.1534 226.228 44.1534C226.973 44.1534 227.635 44.3352 228.214 44.6989C228.794 45.0625 229.25 45.5795 229.582 46.25C229.914 46.9205 230.081 47.7159 230.081 48.6364ZM229.058 48.6364C229.058 47.8807 228.931 47.2429 228.679 46.723C228.429 46.2031 228.089 45.8097 227.66 45.5426C227.234 45.2756 226.757 45.142 226.228 45.142C225.7 45.142 225.221 45.2756 224.792 45.5426C224.366 45.8097 224.027 46.2031 223.774 46.723C223.524 47.2429 223.399 47.8807 223.399 48.6364C223.399 49.392 223.524 50.0298 223.774 50.5497C224.027 51.0696 224.366 51.4631 224.792 51.7301C225.221 51.9972 225.7 52.1307 226.228 52.1307C226.757 52.1307 227.234 51.9972 227.66 51.7301C228.089 51.4631 228.429 51.0696 228.679 50.5497C228.931 50.0298 229.058 49.392 229.058 48.6364ZM231.721 55.4545V46.4545H232.693V47.4943H232.812C232.886 47.3807 232.988 47.2358 233.119 47.0597C233.252 46.8807 233.443 46.7216 233.69 46.5824C233.94 46.4403 234.278 46.3693 234.704 46.3693C235.255 46.3693 235.741 46.5071 236.162 46.7827C236.582 47.0582 236.91 47.4489 237.146 47.9545C237.382 48.4602 237.5 49.0568 237.5 49.7443C237.5 50.4375 237.382 51.0384 237.146 51.5469C236.91 52.0526 236.583 52.4446 236.166 52.723C235.748 52.9986 235.267 53.1364 234.721 53.1364C234.301 53.1364 233.964 53.0668 233.711 52.9276C233.458 52.7855 233.264 52.625 233.127 52.446C232.991 52.2642 232.886 52.1136 232.812 51.9943H232.727V55.4545H231.721ZM232.71 49.7273C232.71 50.2216 232.782 50.6577 232.927 51.0355C233.072 51.4105 233.284 51.7045 233.562 51.9176C233.841 52.1278 234.181 52.233 234.585 52.233C235.005 52.233 235.356 52.1222 235.637 51.9006C235.922 51.6761 236.135 51.375 236.277 50.9972C236.422 50.6165 236.494 50.1932 236.494 49.7273C236.494 49.267 236.423 48.8523 236.281 48.483C236.142 48.1108 235.93 47.8168 235.646 47.6009C235.365 47.3821 235.011 47.2727 234.585 47.2727C234.176 47.2727 233.832 47.3764 233.554 47.5838C233.275 47.7884 233.065 48.0753 232.923 48.4446C232.781 48.8111 232.71 49.2386 232.71 49.7273ZM241.778 53.1364C241.147 53.1364 240.603 52.9972 240.146 52.7188C239.691 52.4375 239.341 52.0455 239.093 51.5426C238.849 51.0369 238.727 50.4489 238.727 49.7784C238.727 49.108 238.849 48.517 239.093 48.0057C239.341 47.4915 239.684 47.0909 240.125 46.804C240.568 46.5142 241.085 46.3693 241.676 46.3693C242.017 46.3693 242.353 46.4261 242.686 46.5398C243.018 46.6534 243.321 46.8381 243.593 47.0938C243.866 47.3466 244.083 47.6818 244.245 48.0994C244.407 48.517 244.488 49.0312 244.488 49.642V50.0682H239.443V49.1989H243.466C243.466 48.8295 243.392 48.5 243.244 48.2102C243.099 47.9205 242.892 47.6918 242.622 47.5241C242.355 47.3565 242.039 47.2727 241.676 47.2727C241.275 47.2727 240.929 47.3722 240.636 47.571C240.346 47.767 240.123 48.0227 239.967 48.3381C239.811 48.6534 239.733 48.9915 239.733 49.3523V49.9318C239.733 50.4261 239.818 50.8452 239.988 51.1889C240.162 51.5298 240.402 51.7898 240.708 51.9688C241.015 52.1449 241.372 52.233 241.778 52.233C242.042 52.233 242.281 52.196 242.494 52.1222C242.71 52.0455 242.896 51.9318 243.052 51.7812C243.208 51.6278 243.329 51.4375 243.414 51.2102L244.386 51.483C244.284 51.8125 244.112 52.1023 243.87 52.3523C243.629 52.5994 243.331 52.7926 242.975 52.9318C242.62 53.0682 242.221 53.1364 241.778 53.1364ZM247.024 49.0625V53H246.018V46.4545H246.99V47.4773H247.075C247.228 47.1449 247.461 46.8778 247.774 46.6761C248.086 46.4716 248.49 46.3693 248.984 46.3693C249.427 46.3693 249.815 46.4602 250.147 46.642C250.48 46.821 250.738 47.0938 250.923 47.4602C251.108 47.8239 251.2 48.2841 251.2 48.8409V53H250.194V48.9091C250.194 48.3949 250.061 47.9943 249.794 47.7074C249.527 47.4176 249.16 47.2727 248.694 47.2727C248.373 47.2727 248.086 47.3423 247.833 47.4815C247.583 47.6207 247.386 47.8239 247.241 48.0909C247.096 48.358 247.024 48.6818 247.024 49.0625ZM259.14 47C259.046 46.7131 258.923 46.456 258.769 46.2287C258.619 45.9986 258.438 45.8026 258.228 45.6406C258.021 45.4787 257.785 45.3551 257.521 45.2699C257.256 45.1847 256.967 45.142 256.651 45.142C256.134 45.142 255.664 45.2756 255.241 45.5426C254.817 45.8097 254.481 46.2031 254.231 46.723C253.981 47.2429 253.856 47.8807 253.856 48.6364C253.856 49.392 253.982 50.0298 254.235 50.5497C254.488 51.0696 254.83 51.4631 255.262 51.7301C255.694 51.9972 256.18 52.1307 256.719 52.1307C257.219 52.1307 257.66 52.0241 258.04 51.8111C258.424 51.5952 258.722 51.2912 258.935 50.8991C259.151 50.5043 259.259 50.0398 259.259 49.5057L259.583 49.5739H256.958V48.6364H260.282V49.5739C260.282 50.2926 260.129 50.9176 259.822 51.4489C259.518 51.9801 259.097 52.392 258.56 52.6847C258.026 52.9744 257.413 53.1193 256.719 53.1193C255.947 53.1193 255.268 52.9375 254.683 52.5739C254.1 52.2102 253.646 51.6932 253.319 51.0227C252.995 50.3523 252.833 49.5568 252.833 48.6364C252.833 47.946 252.925 47.3253 253.11 46.7741C253.298 46.2202 253.562 45.7486 253.903 45.3594C254.244 44.9702 254.647 44.6719 255.113 44.4645C255.579 44.2571 256.092 44.1534 256.651 44.1534C257.112 44.1534 257.54 44.223 257.938 44.3622C258.339 44.4986 258.695 44.6932 259.008 44.946C259.323 45.196 259.586 45.4957 259.796 45.8452C260.006 46.1918 260.151 46.5767 260.231 47H259.14ZM262.092 53V44.2727H263.149V52.0625H267.206V53H262.092Z" fill="#768395"/>
<circle cx="18" cy="79" r="6" fill="#F34B7D"/>
<circle cx="18" cy="79" r="5.5" stroke="white" stroke-opacity="0.14902"/>
<path d="M40.0795 77.5H39.0227C38.9602 77.196 38.8509 76.929 38.6946 76.6989C38.5412 76.4688 38.3537 76.2756 38.1321 76.1193C37.9134 75.9602 37.6705 75.8409 37.4034 75.7614C37.1364 75.6818 36.858 75.642 36.5682 75.642C36.0398 75.642 35.5611 75.7756 35.1321 76.0426C34.706 76.3097 34.3665 76.7031 34.1136 77.223C33.8636 77.7429 33.7386 78.3807 33.7386 79.1364C33.7386 79.892 33.8636 80.5298 34.1136 81.0497C34.3665 81.5696 34.706 81.9631 35.1321 82.2301C35.5611 82.4972 36.0398 82.6307 36.5682 82.6307C36.858 82.6307 37.1364 82.5909 37.4034 82.5114C37.6705 82.4318 37.9134 82.3139 38.1321 82.1577C38.3537 81.9986 38.5412 81.804 38.6946 81.5739C38.8509 81.3409 38.9602 81.0739 39.0227 80.7727H40.0795C40 81.2187 39.8551 81.6179 39.6449 81.9702C39.4347 82.3224 39.1733 82.6222 38.8608 82.8693C38.5483 83.1136 38.1974 83.2997 37.8082 83.4276C37.4219 83.5554 37.0085 83.6193 36.5682 83.6193C35.8239 83.6193 35.1619 83.4375 34.5824 83.0739C34.0028 82.7102 33.5469 82.1932 33.2145 81.5227C32.8821 80.8523 32.7159 80.0568 32.7159 79.1364C32.7159 78.2159 32.8821 77.4205 33.2145 76.75C33.5469 76.0795 34.0028 75.5625 34.5824 75.1989C35.1619 74.8352 35.8239 74.6534 36.5682 74.6534C37.0085 74.6534 37.4219 74.7173 37.8082 74.8452C38.1974 74.973 38.5483 75.1605 38.8608 75.4077C39.1733 75.652 39.4347 75.9503 39.6449 76.3026C39.8551 76.652 40 77.0511 40.0795 77.5ZM44.2077 81.9659V76.3409H45.1623V81.9659H44.2077ZM41.8725 79.6307V78.6761H47.4975V79.6307H41.8725ZM52.1179 81.9659V76.3409H53.0724V81.9659H52.1179ZM49.7827 79.6307V78.6761H55.4077V79.6307H49.7827Z" fill="#768395"/>
<rect x="69" y="68" width="67" height="22" rx="11" fill="#388BFD" fill-opacity="0.101961"/>
<path d="M87.4205 79.1364C87.4205 80.0568 87.2543 80.8523 86.9219 81.5227C86.5895 82.1932 86.1335 82.7102 85.554 83.0739C84.9744 83.4375 84.3125 83.6193 83.5682 83.6193C82.8239 83.6193 82.1619 83.4375 81.5824 83.0739C81.0028 82.7102 80.5469 82.1932 80.2145 81.5227C79.8821 80.8523 79.7159 80.0568 79.7159 79.1364C79.7159 78.2159 79.8821 77.4205 80.2145 76.75C80.5469 76.0795 81.0028 75.5625 81.5824 75.1989C82.1619 74.8352 82.8239 74.6534 83.5682 74.6534C84.3125 74.6534 84.9744 74.8352 85.554 75.1989C86.1335 75.5625 86.5895 76.0795 86.9219 76.75C87.2543 77.4205 87.4205 78.2159 87.4205 79.1364ZM86.3977 79.1364C86.3977 78.3807 86.2713 77.7429 86.0185 77.223C85.7685 76.7031 85.429 76.3097 85 76.0426C84.5739 75.7756 84.0966 75.642 83.5682 75.642C83.0398 75.642 82.5611 75.7756 82.1321 76.0426C81.706 76.3097 81.3665 76.7031 81.1136 77.223C80.8636 77.7429 80.7386 78.3807 80.7386 79.1364C80.7386 79.892 80.8636 80.5298 81.1136 81.0497C81.3665 81.5696 81.706 81.9631 82.1321 82.2301C82.5611 82.4972 83.0398 82.6307 83.5682 82.6307C84.0966 82.6307 84.5739 82.4972 85 82.2301C85.429 81.9631 85.7685 81.5696 86.0185 81.0497C86.2713 80.5298 86.3977 79.892 86.3977 79.1364ZM89.0611 85.9545V76.9545H90.0327V77.9943H90.152C90.2259 77.8807 90.3281 77.7358 90.4588 77.5597C90.5923 77.3807 90.7827 77.2216 91.0298 77.0824C91.2798 76.9403 91.6179 76.8693 92.044 76.8693C92.5952 76.8693 93.081 77.0071 93.5014 77.2827C93.9219 77.5582 94.25 77.9489 94.4858 78.4545C94.7216 78.9602 94.8395 79.5568 94.8395 80.2443C94.8395 80.9375 94.7216 81.5384 94.4858 82.0469C94.25 82.5526 93.9233 82.9446 93.5057 83.223C93.0881 83.4986 92.6065 83.6364 92.0611 83.6364C91.6406 83.6364 91.304 83.5668 91.0511 83.4276C90.7983 83.2855 90.6037 83.125 90.4673 82.946C90.331 82.7642 90.2259 82.6136 90.152 82.4943H90.0668V85.9545H89.0611ZM90.0497 80.2273C90.0497 80.7216 90.1222 81.1577 90.267 81.5355C90.4119 81.9105 90.6236 82.2045 90.902 82.4176C91.1804 82.6278 91.5213 82.733 91.9247 82.733C92.3452 82.733 92.696 82.6222 92.9773 82.4006C93.2614 82.1761 93.4744 81.875 93.6165 81.4972C93.7614 81.1165 93.8338 80.6932 93.8338 80.2273C93.8338 79.767 93.7628 79.3523 93.6207 78.983C93.4815 78.6108 93.2699 78.3168 92.9858 78.1009C92.7045 77.8821 92.3509 77.7727 91.9247 77.7727C91.5156 77.7727 91.1719 77.8764 90.8935 78.0838C90.6151 78.2884 90.4048 78.5753 90.2628 78.9446C90.1207 79.3111 90.0497 79.7386 90.0497 80.2273ZM99.1179 83.6364C98.4872 83.6364 97.9432 83.4972 97.4858 83.2188C97.0312 82.9375 96.6804 82.5455 96.4332 82.0426C96.1889 81.5369 96.0668 80.9489 96.0668 80.2784C96.0668 79.608 96.1889 79.017 96.4332 78.5057C96.6804 77.9915 97.0241 77.5909 97.4645 77.304C97.9077 77.0142 98.4247 76.8693 99.0156 76.8693C99.3565 76.8693 99.6932 76.9261 100.026 77.0398C100.358 77.1534 100.661 77.3381 100.933 77.5938C101.206 77.8466 101.423 78.1818 101.585 78.5994C101.747 79.017 101.828 79.5312 101.828 80.142V80.5682H96.7827V79.6989H100.805C100.805 79.3295 100.732 79 100.584 78.7102C100.439 78.4205 100.232 78.1918 99.9616 78.0241C99.6946 77.8565 99.3793 77.7727 99.0156 77.7727C98.6151 77.7727 98.2685 77.8722 97.9759 78.071C97.6861 78.267 97.4631 78.5227 97.3068 78.8381C97.1506 79.1534 97.0724 79.4915 97.0724 79.8523V80.4318C97.0724 80.9261 97.1577 81.3452 97.3281 81.6889C97.5014 82.0298 97.7415 82.2898 98.0483 82.4688C98.3551 82.6449 98.7116 82.733 99.1179 82.733C99.3821 82.733 99.6207 82.696 99.8338 82.6222C100.05 82.5455 100.236 82.4318 100.392 82.2812C100.548 82.1278 100.669 81.9375 100.754 81.7102L101.726 81.983C101.624 82.3125 101.452 82.6023 101.21 82.8523C100.969 83.0994 100.67 83.2926 100.315 83.4318C99.9602 83.5682 99.5611 83.6364 99.1179 83.6364ZM104.364 79.5625V83.5H103.358V76.9545H104.33V77.9773H104.415C104.568 77.6449 104.801 77.3778 105.114 77.1761C105.426 76.9716 105.83 76.8693 106.324 76.8693C106.767 76.8693 107.155 76.9602 107.487 77.142C107.82 77.321 108.078 77.5938 108.263 77.9602C108.447 78.3239 108.54 78.7841 108.54 79.3409V83.5H107.534V79.4091C107.534 78.8949 107.401 78.4943 107.134 78.2074C106.866 77.9176 106.5 77.7727 106.034 77.7727C105.713 77.7727 105.426 77.8423 105.173 77.9815C104.923 78.1207 104.726 78.3239 104.581 78.5909C104.436 78.858 104.364 79.1818 104.364 79.5625ZM116.48 77.5C116.386 77.2131 116.262 76.956 116.109 76.7287C115.958 76.4986 115.778 76.3026 115.568 76.1406C115.36 75.9787 115.125 75.8551 114.86 75.7699C114.596 75.6847 114.306 75.642 113.991 75.642C113.474 75.642 113.004 75.7756 112.581 76.0426C112.157 76.3097 111.821 76.7031 111.571 77.223C111.321 77.7429 111.196 78.3807 111.196 79.1364C111.196 79.892 111.322 80.5298 111.575 81.0497C111.828 81.5696 112.17 81.9631 112.602 82.2301C113.034 82.4972 113.52 82.6307 114.059 82.6307C114.559 82.6307 115 82.5241 115.38 82.3111C115.764 82.0952 116.062 81.7912 116.275 81.3991C116.491 81.0043 116.599 80.5398 116.599 80.0057L116.923 80.0739H114.298V79.1364H117.622V80.0739C117.622 80.7926 117.468 81.4176 117.162 81.9489C116.858 82.4801 116.437 82.892 115.9 83.1847C115.366 83.4744 114.752 83.6193 114.059 83.6193C113.287 83.6193 112.608 83.4375 112.022 83.0739C111.44 82.7102 110.985 82.1932 110.659 81.5227C110.335 80.8523 110.173 80.0568 110.173 79.1364C110.173 78.446 110.265 77.8253 110.45 77.2741C110.637 76.7202 110.902 76.2486 111.243 75.8594C111.583 75.4702 111.987 75.1719 112.453 74.9645C112.919 74.7571 113.431 74.6534 113.991 74.6534C114.451 74.6534 114.88 74.723 115.278 74.8622C115.679 74.9986 116.035 75.1932 116.348 75.446C116.663 75.696 116.926 75.9957 117.136 76.3452C117.346 76.6918 117.491 77.0767 117.571 77.5H116.48ZM119.432 83.5V74.7727H120.489V82.5625H124.545V83.5H119.432Z" fill="#4493F8"/>
<rect x="148" y="68" width="55" height="22" rx="11" fill="#388BFD" fill-opacity="0.101961"/>
<path d="M165.023 77.5C164.929 77.2131 164.805 76.956 164.652 76.7287C164.501 76.4986 164.321 76.3026 164.111 76.1406C163.903 75.9787 163.668 75.8551 163.403 75.7699C163.139 75.6847 162.849 75.642 162.534 75.642C162.017 75.642 161.547 75.7756 161.124 76.0426C160.7 76.3097 160.364 76.7031 160.114 77.223C159.864 77.7429 159.739 78.3807 159.739 79.1364C159.739 79.892 159.865 80.5298 160.118 81.0497C160.371 81.5696 160.713 81.9631 161.145 82.2301C161.577 82.4972 162.063 82.6307 162.602 82.6307C163.102 82.6307 163.543 82.5241 163.923 82.3111C164.307 82.0952 164.605 81.7912 164.818 81.3991C165.034 81.0043 165.142 80.5398 165.142 80.0057L165.466 80.0739H162.841V79.1364H166.165V80.0739C166.165 80.7926 166.011 81.4176 165.705 81.9489C165.401 82.4801 164.98 82.892 164.443 83.1847C163.909 83.4744 163.295 83.6193 162.602 83.6193C161.83 83.6193 161.151 83.4375 160.565 83.0739C159.983 82.7102 159.528 82.1932 159.202 81.5227C158.878 80.8523 158.716 80.0568 158.716 79.1364C158.716 78.446 158.808 77.8253 158.993 77.2741C159.18 76.7202 159.445 76.2486 159.786 75.8594C160.126 75.4702 160.53 75.1719 160.996 74.9645C161.462 74.7571 161.974 74.6534 162.534 74.6534C162.994 74.6534 163.423 74.723 163.821 74.8622C164.222 74.9986 164.578 75.1932 164.891 75.446C165.206 75.696 165.469 75.9957 165.679 76.3452C165.889 76.6918 166.034 77.0767 166.114 77.5H165.023ZM167.975 83.5V74.7727H169.032V82.5625H173.088V83.5H167.975ZM174.725 83.5V74.7727H179.958V75.7102H175.782V78.6591H179.566V79.5966H175.782V83.5H174.725ZM183.353 83.5L180.967 74.7727H182.04L183.864 81.8807H183.95L185.808 74.7727H187.001L188.859 81.8807H188.944L190.768 74.7727H191.842L189.455 83.5H188.364L186.438 76.5455H186.37L184.444 83.5H183.353Z" fill="#4493F8"/>
</svg>
