<svg width="430" height="114" viewBox="0 0 430 114" fill="none" xmlns="http://www.w3.org/2000/svg">
<rect width="417.2" height="102" rx="6" fill="#768395" fill-opacity="0.1"/>
<path d="M21.3714 15.8182V26H19.7308L14.9332 19.0646H14.8487V26H13.0043V15.8182H14.6548L19.4474 22.7585H19.5369V15.8182H21.3714ZM26.6824 26.1491C25.9167 26.1491 25.2555 25.9901 24.6987 25.6719C24.1452 25.3504 23.7193 24.8963 23.421 24.3097C23.1227 23.7197 22.9735 23.0253 22.9735 22.2266C22.9735 21.4411 23.1227 20.7517 23.421 20.1584C23.7226 19.5618 24.1435 19.0978 24.6838 18.7663C25.224 18.4316 25.8587 18.2642 26.5879 18.2642C27.0585 18.2642 27.5027 18.3404 27.9203 18.4929C28.3412 18.642 28.7124 18.8741 29.0339 19.1889C29.3587 19.5038 29.6139 19.9048 29.7995 20.392C29.9851 20.8759 30.0779 21.4527 30.0779 22.1222V22.674H23.8187V21.4609H28.3528C28.3495 21.1162 28.2749 20.8097 28.1291 20.5412C27.9833 20.2694 27.7794 20.0556 27.5176 19.8999C27.2591 19.7441 26.9574 19.6662 26.6127 19.6662C26.2449 19.6662 25.9217 19.7557 25.6433 19.9347C25.3649 20.1103 25.1478 20.3423 24.992 20.6307C24.8395 20.9157 24.7617 21.2289 24.7583 21.5703V22.6293C24.7583 23.0734 24.8395 23.4545 25.002 23.7727C25.1644 24.0876 25.3914 24.3295 25.6831 24.4986C25.9747 24.6643 26.3161 24.7472 26.7072 24.7472C26.969 24.7472 27.206 24.7107 27.4181 24.6378C27.6303 24.5616 27.8142 24.4505 27.97 24.3047C28.1258 24.1589 28.2434 23.9782 28.323 23.7628L30.0034 23.9517C29.8973 24.3958 29.6951 24.7836 29.3968 25.1151C29.1019 25.4432 28.724 25.6984 28.2633 25.8807C27.8026 26.0597 27.2756 26.1491 26.6824 26.1491ZM36.4677 22.7884V18.3636H38.2674V26H36.5224V24.6428H36.4428C36.2705 25.0703 35.9871 25.42 35.5927 25.6918C35.2016 25.9635 34.7193 26.0994 34.146 26.0994C33.6455 26.0994 33.203 25.9884 32.8185 25.7663C32.4374 25.541 32.1391 25.2145 31.9237 24.7869C31.7082 24.3561 31.6005 23.8357 31.6005 23.2259V18.3636H33.4002V22.9474C33.4002 23.4313 33.5328 23.8158 33.7979 24.1009C34.0631 24.3859 34.4111 24.5284 34.842 24.5284C35.1071 24.5284 35.364 24.4638 35.6126 24.3345C35.8612 24.2053 36.065 24.013 36.2241 23.7578C36.3865 23.4993 36.4677 23.1761 36.4677 22.7884ZM40.1181 26V18.3636H41.8631V19.6364H41.9426C42.0819 19.1955 42.3205 18.8558 42.6586 18.6172C42.9999 18.3752 43.3894 18.2543 43.8269 18.2543C43.9263 18.2543 44.0373 18.2592 44.16 18.2692C44.2859 18.2758 44.3903 18.2874 44.4732 18.304V19.9595C44.397 19.933 44.276 19.9098 44.1103 19.8899C43.9479 19.8667 43.7904 19.8551 43.638 19.8551C43.3098 19.8551 43.0149 19.9264 42.753 20.0689C42.4945 20.2081 42.2907 20.402 42.1415 20.6506C41.9924 20.8991 41.9178 21.1858 41.9178 21.5107V26H40.1181ZM47.7296 26.1541C47.2457 26.1541 46.8098 26.0679 46.4221 25.8956C46.0376 25.7199 45.7327 25.4614 45.5073 25.12C45.2852 24.7786 45.1742 24.3577 45.1742 23.8572C45.1742 23.4264 45.2537 23.0701 45.4128 22.7884C45.5719 22.5066 45.789 22.2812 46.0641 22.1122C46.3392 21.9432 46.6491 21.8156 46.9938 21.7294C47.3418 21.6399 47.7014 21.5753 48.0726 21.5355C48.5201 21.4891 48.883 21.4477 49.1614 21.4112C49.4398 21.3714 49.642 21.3118 49.7679 21.2322C49.8972 21.1494 49.9618 21.0218 49.9618 20.8494V20.8196C49.9618 20.4451 49.8508 20.1551 49.6287 19.9496C49.4067 19.7441 49.0868 19.6413 48.6692 19.6413C48.2284 19.6413 47.8787 19.7375 47.6202 19.9297C47.365 20.1219 47.1926 20.349 47.1032 20.6108L45.4228 20.3722C45.5553 19.9081 45.7741 19.5204 46.079 19.2088C46.3839 18.8939 46.7568 18.6586 47.1976 18.5028C47.6384 18.3438 48.1257 18.2642 48.6593 18.2642C49.0272 18.2642 49.3934 18.3073 49.758 18.3935C50.1226 18.4796 50.4557 18.6222 50.7573 18.821C51.0589 19.0166 51.3008 19.2834 51.4831 19.6214C51.6687 19.9595 51.7615 20.3821 51.7615 20.8892V26H50.0314V24.951H49.9718C49.8624 25.1631 49.7083 25.362 49.5094 25.5476C49.3139 25.7299 49.0669 25.8774 48.7686 25.9901C48.4737 26.0994 48.1273 26.1541 47.7296 26.1541ZM48.1969 24.8317C48.5582 24.8317 48.8714 24.7604 49.1365 24.6179C49.4017 24.4721 49.6055 24.2798 49.748 24.0412C49.8939 23.8026 49.9668 23.5424 49.9668 23.2607V22.3608C49.9105 22.4072 49.8143 22.4503 49.6784 22.4901C49.5459 22.5298 49.3967 22.5646 49.231 22.5945C49.0653 22.6243 48.9012 22.6508 48.7388 22.674C48.5764 22.6972 48.4355 22.7171 48.3162 22.7337C48.0478 22.7701 47.8075 22.8298 47.5953 22.9126C47.3832 22.9955 47.2159 23.1115 47.0932 23.2607C46.9706 23.4065 46.9093 23.5954 46.9093 23.8274C46.9093 24.1589 47.0302 24.4091 47.2722 24.5781C47.5141 24.7472 47.8224 24.8317 48.1969 24.8317ZM55.3709 15.8182V26H53.5712V15.8182H55.3709ZM62.0813 26H60.1126L63.6971 15.8182H65.9741L69.5636 26H67.5948L64.8754 17.9062H64.7958L62.0813 26ZM62.146 22.0078H67.5153V23.4893H62.146V22.0078ZM75.6923 22.7884V18.3636H77.492V26H75.747V24.6428H75.6674C75.4951 25.0703 75.2117 25.42 74.8173 25.6918C74.4262 25.9635 73.944 26.0994 73.3706 26.0994C72.8701 26.0994 72.4276 25.9884 72.0431 25.7663C71.662 25.541 71.3637 25.2145 71.1483 24.7869C70.9328 24.3561 70.8251 23.8357 70.8251 23.2259V18.3636H72.6248V22.9474C72.6248 23.4313 72.7574 23.8158 73.0225 24.1009C73.2877 24.3859 73.6357 24.5284 74.0666 24.5284C74.3317 24.5284 74.5886 24.4638 74.8372 24.3345C75.0858 24.2053 75.2896 24.013 75.4487 23.7578C75.6111 23.4993 75.6923 23.1761 75.6923 22.7884ZM82.1765 26.1342C81.5766 26.1342 81.0397 25.9801 80.5657 25.6719C80.0917 25.3636 79.7172 24.9162 79.4421 24.3295C79.167 23.7429 79.0295 23.0303 79.0295 22.1918C79.0295 21.3433 79.1687 20.6274 79.4471 20.044C79.7288 19.4574 80.1083 19.0149 80.5856 18.7166C81.0629 18.415 81.5948 18.2642 82.1815 18.2642C82.6289 18.2642 82.9968 18.3404 83.2852 18.4929C83.5735 18.642 83.8022 18.8227 83.9712 19.0348C84.1403 19.2436 84.2712 19.4408 84.364 19.6264H84.4386V15.8182H86.2433V26H84.4734V24.7969H84.364C84.2712 24.9825 84.137 25.1797 83.9613 25.3885C83.7856 25.594 83.5536 25.7696 83.2653 25.9155C82.9769 26.0613 82.614 26.1342 82.1765 26.1342ZM82.6786 24.6577C83.0598 24.6577 83.3846 24.5549 83.6531 24.3494C83.9215 24.1406 84.1254 23.8506 84.2646 23.4794C84.4038 23.1082 84.4734 22.6757 84.4734 22.1818C84.4734 21.688 84.4038 21.2588 84.2646 20.8942C84.1287 20.5296 83.9265 20.2462 83.658 20.044C83.3929 19.8419 83.0664 19.7408 82.6786 19.7408C82.2776 19.7408 81.9428 19.8452 81.6744 20.054C81.4059 20.2628 81.2037 20.5511 81.0678 20.919C80.9319 21.2869 80.864 21.7079 80.864 22.1818C80.864 22.6591 80.9319 23.085 81.0678 23.4595C81.207 23.8307 81.4109 24.1241 81.6793 24.3395C81.9511 24.5516 82.2842 24.6577 82.6786 24.6577ZM88.161 26V18.3636H89.9608V26H88.161ZM89.0659 17.2798C88.7808 17.2798 88.5356 17.1854 88.3301 16.9964C88.1246 16.8042 88.0218 16.5739 88.0218 16.3054C88.0218 16.0336 88.1246 15.8033 88.3301 15.6143C88.5356 15.4221 88.7808 15.326 89.0659 15.326C89.3542 15.326 89.5995 15.4221 89.8017 15.6143C90.0072 15.8033 90.1099 16.0336 90.1099 16.3054C90.1099 16.5739 90.0072 16.8042 89.8017 16.9964C89.5995 17.1854 89.3542 17.2798 89.0659 17.2798ZM95.1424 26.1491C94.3967 26.1491 93.7504 25.9851 93.2035 25.657C92.6566 25.3288 92.2324 24.8698 91.9308 24.2798C91.6325 23.6899 91.4833 23.0005 91.4833 22.2116C91.4833 21.4228 91.6325 20.7318 91.9308 20.1385C92.2324 19.5452 92.6566 19.0845 93.2035 18.7564C93.7504 18.4283 94.3967 18.2642 95.1424 18.2642C95.8881 18.2642 96.5344 18.4283 97.0813 18.7564C97.6282 19.0845 98.0508 19.5452 98.3491 20.1385C98.6507 20.7318 98.8015 21.4228 98.8015 22.2116C98.8015 23.0005 98.6507 23.6899 98.3491 24.2798C98.0508 24.8698 97.6282 25.3288 97.0813 25.657C96.5344 25.9851 95.8881 26.1491 95.1424 26.1491ZM95.1523 24.7074C95.5567 24.7074 95.8948 24.5964 96.1665 24.3743C96.4383 24.1489 96.6405 23.8473 96.7731 23.4695C96.909 23.0916 96.9769 22.6707 96.9769 22.2067C96.9769 21.7393 96.909 21.3168 96.7731 20.9389C96.6405 20.5578 96.4383 20.2545 96.1665 20.0291C95.8948 19.8037 95.5567 19.6911 95.1523 19.6911C94.738 19.6911 94.3933 19.8037 94.1183 20.0291C93.8465 20.2545 93.6426 20.5578 93.5067 20.9389C93.3742 21.3168 93.3079 21.7393 93.3079 22.2067C93.3079 22.6707 93.3742 23.0916 93.5067 23.4695C93.6426 23.8473 93.8465 24.1489 94.1183 24.3743C94.3933 24.5964 94.738 24.7074 95.1523 24.7074ZM112.596 19.2536H110.737C110.684 18.9486 110.586 18.6785 110.444 18.4432C110.301 18.2045 110.124 18.0024 109.912 17.8366C109.7 17.6709 109.458 17.5466 109.186 17.4638C108.917 17.3776 108.627 17.3345 108.316 17.3345C107.762 17.3345 107.272 17.4737 106.844 17.7521C106.417 18.0272 106.082 18.4316 105.84 18.9652C105.598 19.4955 105.477 20.1435 105.477 20.9091C105.477 21.688 105.598 22.3442 105.84 22.8778C106.085 23.4081 106.42 23.8092 106.844 24.081C107.272 24.3494 107.761 24.4837 108.311 24.4837C108.616 24.4837 108.901 24.4439 109.166 24.3643C109.434 24.2815 109.675 24.1605 109.887 24.0014C110.102 23.8423 110.283 23.6468 110.429 23.4148C110.578 23.1828 110.681 22.9176 110.737 22.6193L112.596 22.6293C112.527 23.1132 112.376 23.5672 112.144 23.9915C111.915 24.4157 111.615 24.7902 111.244 25.1151C110.873 25.4366 110.439 25.6884 109.942 25.8707C109.444 26.0497 108.893 26.1392 108.286 26.1392C107.391 26.1392 106.592 25.9321 105.89 25.5178C105.187 25.1035 104.634 24.5052 104.229 23.723C103.825 22.9408 103.623 22.0028 103.623 20.9091C103.623 19.812 103.827 18.8741 104.234 18.0952C104.642 17.313 105.197 16.7147 105.9 16.3004C106.602 15.8861 107.398 15.679 108.286 15.679C108.853 15.679 109.38 15.7585 109.867 15.9176C110.354 16.0767 110.788 16.3104 111.17 16.6186C111.551 16.9235 111.864 17.2981 112.109 17.7422C112.358 18.183 112.52 18.6868 112.596 19.2536ZM116.006 15.8182V26H114.206V15.8182H116.006ZM120.054 26.1541C119.57 26.1541 119.134 26.0679 118.746 25.8956C118.362 25.7199 118.057 25.4614 117.831 25.12C117.609 24.7786 117.498 24.3577 117.498 23.8572C117.498 23.4264 117.578 23.0701 117.737 22.7884C117.896 22.5066 118.113 22.2812 118.388 22.1122C118.663 21.9432 118.973 21.8156 119.318 21.7294C119.666 21.6399 120.026 21.5753 120.397 21.5355C120.844 21.4891 121.207 21.4477 121.486 21.4112C121.764 21.3714 121.966 21.3118 122.092 21.2322C122.221 21.1494 122.286 21.0218 122.286 20.8494V20.8196C122.286 20.4451 122.175 20.1551 121.953 19.9496C121.731 19.7441 121.411 19.6413 120.993 19.6413C120.553 19.6413 120.203 19.7375 119.944 19.9297C119.689 20.1219 119.517 20.349 119.427 20.6108L117.747 20.3722C117.88 19.9081 118.098 19.5204 118.403 19.2088C118.708 18.8939 119.081 18.6586 119.522 18.5028C119.963 18.3438 120.45 18.2642 120.983 18.2642C121.351 18.2642 121.718 18.3073 122.082 18.3935C122.447 18.4796 122.78 18.6222 123.081 18.821C123.383 19.0166 123.625 19.2834 123.807 19.6214C123.993 19.9595 124.086 20.3821 124.086 20.8892V26H122.356V24.951H122.296C122.187 25.1631 122.032 25.362 121.834 25.5476C121.638 25.7299 121.391 25.8774 121.093 25.9901C120.798 26.0994 120.452 26.1541 120.054 26.1541ZM120.521 24.8317C120.882 24.8317 121.196 24.7604 121.461 24.6179C121.726 24.4721 121.93 24.2798 122.072 24.0412C122.218 23.8026 122.291 23.5424 122.291 23.2607V22.3608C122.235 22.4072 122.139 22.4503 122.003 22.4901C121.87 22.5298 121.721 22.5646 121.555 22.5945C121.39 22.6243 121.225 22.6508 121.063 22.674C120.901 22.6972 120.76 22.7171 120.64 22.7337C120.372 22.7701 120.132 22.8298 119.92 22.9126C119.707 22.9955 119.54 23.1115 119.417 23.2607C119.295 23.4065 119.233 23.5954 119.233 23.8274C119.233 24.1589 119.354 24.4091 119.596 24.5781C119.838 24.7472 120.147 24.8317 120.521 24.8317ZM131.931 20.3821L130.29 20.5611C130.244 20.3954 130.163 20.2396 130.047 20.0938C129.934 19.9479 129.782 19.8303 129.589 19.7408C129.397 19.6513 129.162 19.6065 128.883 19.6065C128.509 19.6065 128.194 19.6877 127.939 19.8501C127.687 20.0125 127.563 20.223 127.566 20.4815C127.563 20.7036 127.644 20.8842 127.809 21.0234C127.979 21.1626 128.257 21.277 128.645 21.3665L129.947 21.6449C130.67 21.8007 131.207 22.0476 131.558 22.3857C131.913 22.7237 132.092 23.1662 132.095 23.7131C132.092 24.1937 131.951 24.6179 131.672 24.9858C131.397 25.3504 131.015 25.6354 130.524 25.8409C130.033 26.0464 129.47 26.1491 128.834 26.1491C127.899 26.1491 127.147 25.9536 126.577 25.5625C126.006 25.1681 125.667 24.6196 125.557 23.9169L127.312 23.7479C127.392 24.0926 127.561 24.3527 127.819 24.5284C128.078 24.7041 128.414 24.7919 128.829 24.7919C129.256 24.7919 129.599 24.7041 129.858 24.5284C130.12 24.3527 130.251 24.1357 130.251 23.8771C130.251 23.6584 130.166 23.4777 129.997 23.3352C129.831 23.1927 129.573 23.0833 129.221 23.0071L127.919 22.7337C127.186 22.5812 126.644 22.3243 126.293 21.9631C125.942 21.5985 125.768 21.1378 125.771 20.581C125.768 20.1103 125.895 19.7027 126.154 19.358C126.416 19.0099 126.779 18.7415 127.243 18.5526C127.71 18.3603 128.249 18.2642 128.858 18.2642C129.753 18.2642 130.458 18.4548 130.971 18.8359C131.488 19.2171 131.808 19.7325 131.931 20.3821ZM139.615 20.3821L137.974 20.5611C137.927 20.3954 137.846 20.2396 137.73 20.0938C137.618 19.9479 137.465 19.8303 137.273 19.7408C137.081 19.6513 136.845 19.6065 136.567 19.6065C136.192 19.6065 135.878 19.6877 135.622 19.8501C135.37 20.0125 135.246 20.223 135.249 20.4815C135.246 20.7036 135.327 20.8842 135.493 21.0234C135.662 21.1626 135.941 21.277 136.328 21.3665L137.631 21.6449C138.353 21.8007 138.89 22.0476 139.242 22.3857C139.596 22.7237 139.775 23.1662 139.779 23.7131C139.775 24.1937 139.634 24.6179 139.356 24.9858C139.081 25.3504 138.698 25.6354 138.208 25.8409C137.717 26.0464 137.154 26.1491 136.517 26.1491C135.583 26.1491 134.83 25.9536 134.26 25.5625C133.69 25.1681 133.35 24.6196 133.241 23.9169L134.996 23.7479C135.075 24.0926 135.244 24.3527 135.503 24.5284C135.762 24.7041 136.098 24.7919 136.512 24.7919C136.94 24.7919 137.283 24.7041 137.541 24.5284C137.803 24.3527 137.934 24.1357 137.934 23.8771C137.934 23.6584 137.85 23.4777 137.681 23.3352C137.515 23.1927 137.256 23.0833 136.905 23.0071L135.602 22.7337C134.87 22.5812 134.328 22.3243 133.977 21.9631C133.625 21.5985 133.451 21.1378 133.455 20.581C133.451 20.1103 133.579 19.7027 133.838 19.358C134.099 19.0099 134.462 18.7415 134.926 18.5526C135.394 18.3603 135.932 18.2642 136.542 18.2642C137.437 18.2642 138.141 18.4548 138.655 18.8359C139.172 19.2171 139.492 19.7325 139.615 20.3821ZM141.263 26V18.3636H143.062V26H141.263ZM142.167 17.2798C141.882 17.2798 141.637 17.1854 141.432 16.9964C141.226 16.8042 141.123 16.5739 141.123 16.3054C141.123 16.0336 141.226 15.8033 141.432 15.6143C141.637 15.4221 141.882 15.326 142.167 15.326C142.456 15.326 142.701 15.4221 142.903 15.6143C143.109 15.8033 143.211 16.0336 143.211 16.3054C143.211 16.5739 143.109 16.8042 142.903 16.9964C142.701 17.1854 142.456 17.2798 142.167 17.2798ZM148.781 18.3636V19.7557H144.267V18.3636H148.781ZM145.395 26V17.6428C145.395 17.129 145.501 16.7015 145.713 16.3601C145.929 16.0187 146.217 15.7635 146.578 15.5945C146.94 15.4254 147.341 15.3409 147.782 15.3409C148.093 15.3409 148.37 15.3658 148.612 15.4155C148.854 15.4652 149.033 15.5099 149.149 15.5497L148.791 16.9418C148.715 16.9186 148.618 16.8954 148.502 16.8722C148.386 16.8456 148.257 16.8324 148.115 16.8324C147.78 16.8324 147.543 16.9136 147.404 17.076C147.268 17.2351 147.2 17.4638 147.2 17.7621V26H145.395ZM150.19 26V18.3636H151.99V26H150.19ZM151.095 17.2798C150.81 17.2798 150.565 17.1854 150.359 16.9964C150.154 16.8042 150.051 16.5739 150.051 16.3054C150.051 16.0336 150.154 15.8033 150.359 15.6143C150.565 15.4221 150.81 15.326 151.095 15.326C151.384 15.326 151.629 15.4221 151.831 15.6143C152.036 15.8033 152.139 16.0336 152.139 16.3054C152.139 16.5739 152.036 16.8042 151.831 16.9964C151.629 17.1854 151.384 17.2798 151.095 17.2798ZM157.172 26.1491C156.409 26.1491 155.755 25.9818 155.208 25.647C154.664 25.3123 154.245 24.8499 153.95 24.2599C153.658 23.6667 153.513 22.9839 153.513 22.2116C153.513 21.4361 153.662 20.7517 153.96 20.1584C154.258 19.5618 154.679 19.0978 155.223 18.7663C155.77 18.4316 156.416 18.2642 157.162 18.2642C157.782 18.2642 158.33 18.3786 158.807 18.6072C159.288 18.8326 159.671 19.1525 159.956 19.5668C160.241 19.9777 160.403 20.4583 160.443 21.0085H158.723C158.653 20.6406 158.488 20.334 158.226 20.0888C157.967 19.8402 157.621 19.7159 157.187 19.7159C156.819 19.7159 156.496 19.8153 156.217 20.0142C155.939 20.2098 155.722 20.4915 155.566 20.8594C155.413 21.2273 155.337 21.6681 155.337 22.1818C155.337 22.7022 155.413 23.1496 155.566 23.5241C155.718 23.8954 155.932 24.1821 156.207 24.3842C156.486 24.5831 156.812 24.6825 157.187 24.6825C157.452 24.6825 157.689 24.6328 157.898 24.5334C158.11 24.4306 158.287 24.2831 158.43 24.0909C158.572 23.8987 158.67 23.665 158.723 23.3899H160.443C160.4 23.9302 160.241 24.4091 159.966 24.8267C159.691 25.241 159.316 25.5658 158.842 25.8011C158.368 26.0331 157.811 26.1491 157.172 26.1491ZM164.118 26.1541C163.634 26.1541 163.199 26.0679 162.811 25.8956C162.426 25.7199 162.121 25.4614 161.896 25.12C161.674 24.7786 161.563 24.3577 161.563 23.8572C161.563 23.4264 161.642 23.0701 161.801 22.7884C161.961 22.5066 162.178 22.2812 162.453 22.1122C162.728 21.9432 163.038 21.8156 163.382 21.7294C163.73 21.6399 164.09 21.5753 164.461 21.5355C164.909 21.4891 165.272 21.4477 165.55 21.4112C165.828 21.3714 166.031 21.3118 166.157 21.2322C166.286 21.1494 166.35 21.0218 166.35 20.8494V20.8196C166.35 20.4451 166.239 20.1551 166.017 19.9496C165.795 19.7441 165.475 19.6413 165.058 19.6413C164.617 19.6413 164.267 19.7375 164.009 19.9297C163.754 20.1219 163.581 20.349 163.492 20.6108L161.811 20.3722C161.944 19.9081 162.163 19.5204 162.468 19.2088C162.773 18.8939 163.145 18.6586 163.586 18.5028C164.027 18.3438 164.514 18.2642 165.048 18.2642C165.416 18.2642 165.782 18.3073 166.147 18.3935C166.511 18.4796 166.844 18.6222 167.146 18.821C167.448 19.0166 167.69 19.2834 167.872 19.6214C168.057 19.9595 168.15 20.3821 168.15 20.8892V26H166.42V24.951H166.36C166.251 25.1631 166.097 25.362 165.898 25.5476C165.703 25.7299 165.456 25.8774 165.157 25.9901C164.862 26.0994 164.516 26.1541 164.118 26.1541ZM164.586 24.8317C164.947 24.8317 165.26 24.7604 165.525 24.6179C165.79 24.4721 165.994 24.2798 166.137 24.0412C166.283 23.8026 166.355 23.5424 166.355 23.2607V22.3608C166.299 22.4072 166.203 22.4503 166.067 22.4901C165.935 22.5298 165.785 22.5646 165.62 22.5945C165.454 22.6243 165.29 22.6508 165.127 22.674C164.965 22.6972 164.824 22.7171 164.705 22.7337C164.436 22.7701 164.196 22.8298 163.984 22.9126C163.772 22.9955 163.605 23.1115 163.482 23.2607C163.359 23.4065 163.298 23.5954 163.298 23.8274C163.298 24.1589 163.419 24.4091 163.661 24.5781C163.903 24.7472 164.211 24.8317 164.586 24.8317ZM173.773 18.3636V19.7557H169.383V18.3636H173.773ZM170.467 16.5341H172.267V23.7031C172.267 23.9451 172.303 24.1307 172.376 24.2599C172.452 24.3859 172.552 24.4721 172.674 24.5185C172.797 24.5649 172.933 24.5881 173.082 24.5881C173.195 24.5881 173.297 24.5798 173.39 24.5632C173.486 24.5466 173.559 24.5317 173.609 24.5185L173.912 25.9254C173.816 25.9586 173.679 25.995 173.5 26.0348C173.324 26.0746 173.109 26.0978 172.853 26.1044C172.403 26.1177 171.997 26.0497 171.635 25.9006C171.274 25.7481 170.987 25.5128 170.775 25.1946C170.566 24.8764 170.464 24.4787 170.467 24.0014V16.5341ZM175.278 26V18.3636H177.078V26H175.278ZM176.183 17.2798C175.898 17.2798 175.653 17.1854 175.447 16.9964C175.242 16.8042 175.139 16.5739 175.139 16.3054C175.139 16.0336 175.242 15.8033 175.447 15.6143C175.653 15.4221 175.898 15.326 176.183 15.326C176.471 15.326 176.717 15.4221 176.919 15.6143C177.124 15.8033 177.227 16.0336 177.227 16.3054C177.227 16.5739 177.124 16.8042 176.919 16.9964C176.717 17.1854 176.471 17.2798 176.183 17.2798ZM182.26 26.1491C181.514 26.1491 180.868 25.9851 180.321 25.657C179.774 25.3288 179.35 24.8698 179.048 24.2798C178.75 23.6899 178.6 23.0005 178.6 22.2116C178.6 21.4228 178.75 20.7318 179.048 20.1385C179.35 19.5452 179.774 19.0845 180.321 18.7564C180.868 18.4283 181.514 18.2642 182.26 18.2642C183.005 18.2642 183.652 18.4283 184.199 18.7564C184.745 19.0845 185.168 19.5452 185.466 20.1385C185.768 20.7318 185.919 21.4228 185.919 22.2116C185.919 23.0005 185.768 23.6899 185.466 24.2798C185.168 24.8698 184.745 25.3288 184.199 25.657C183.652 25.9851 183.005 26.1491 182.26 26.1491ZM182.27 24.7074C182.674 24.7074 183.012 24.5964 183.284 24.3743C183.556 24.1489 183.758 23.8473 183.89 23.4695C184.026 23.0916 184.094 22.6707 184.094 22.2067C184.094 21.7393 184.026 21.3168 183.89 20.9389C183.758 20.5578 183.556 20.2545 183.284 20.0291C183.012 19.8037 182.674 19.6911 182.27 19.6911C181.855 19.6911 181.511 19.8037 181.235 20.0291C180.964 20.2545 180.76 20.5578 180.624 20.9389C180.491 21.3168 180.425 21.7393 180.425 22.2067C180.425 22.6707 180.491 23.0916 180.624 23.4695C180.76 23.8473 180.964 24.1489 181.235 24.3743C181.511 24.5964 181.855 24.7074 182.27 24.7074ZM189.246 21.5256V26H187.446V18.3636H189.166V19.6612H189.256C189.432 19.2337 189.712 18.8939 190.096 18.642C190.484 18.3902 190.963 18.2642 191.533 18.2642C192.06 18.2642 192.519 18.3769 192.91 18.6023C193.304 18.8277 193.609 19.1541 193.825 19.5817C194.044 20.0092 194.151 20.5279 194.148 21.1378V26H192.348V21.4162C192.348 20.9058 192.216 20.5064 191.95 20.218C191.689 19.9297 191.326 19.7855 190.862 19.7855C190.547 19.7855 190.267 19.8551 190.021 19.9943C189.78 20.1302 189.589 20.3274 189.45 20.5859C189.314 20.8445 189.246 21.1577 189.246 21.5256Z" fill="#4493F8"/>
<path d="M13.4148 53H12.3068L15.5114 44.2727H16.6023L19.8068 53H18.6989L16.0909 45.6534H16.0227L13.4148 53ZM13.8239 49.5909H18.2898V50.5284H13.8239V49.5909ZM25.1548 50.3239V46.4545H26.1605V53H25.1548V51.892H25.0866C24.9332 52.2244 24.6946 52.5071 24.3707 52.7401C24.0469 52.9702 23.6378 53.0852 23.1435 53.0852C22.7344 53.0852 22.3707 52.9957 22.0526 52.8168C21.7344 52.6349 21.4844 52.3622 21.3026 51.9986C21.1207 51.6321 21.0298 51.1705 21.0298 50.6136V46.4545H22.0355V50.5455C22.0355 51.0227 22.169 51.4034 22.4361 51.6875C22.706 51.9716 23.0497 52.1136 23.4673 52.1136C23.7173 52.1136 23.9716 52.0497 24.2301 51.9219C24.4915 51.794 24.7102 51.598 24.8864 51.3338C25.0653 51.0696 25.1548 50.733 25.1548 50.3239ZM30.4741 53.1364C29.9286 53.1364 29.4471 52.9986 29.0295 52.723C28.6119 52.4446 28.2852 52.0526 28.0494 51.5469C27.8136 51.0384 27.6957 50.4375 27.6957 49.7443C27.6957 49.0568 27.8136 48.4602 28.0494 47.9545C28.2852 47.4489 28.6133 47.0582 29.0337 46.7827C29.4542 46.5071 29.94 46.3693 30.4911 46.3693C30.9173 46.3693 31.2539 46.4403 31.5011 46.5824C31.7511 46.7216 31.9414 46.8807 32.0721 47.0597C32.2056 47.2358 32.3093 47.3807 32.3832 47.4943H32.4684V44.2727H33.4741V53H32.5025V51.9943H32.3832C32.3093 52.1136 32.2042 52.2642 32.0678 52.446C31.9315 52.625 31.7369 52.7855 31.484 52.9276C31.2312 53.0668 30.8945 53.1364 30.4741 53.1364ZM30.6104 52.233C31.0138 52.233 31.3548 52.1278 31.6332 51.9176C31.9116 51.7045 32.1232 51.4105 32.2681 51.0355C32.413 50.6577 32.4854 50.2216 32.4854 49.7273C32.4854 49.2386 32.4144 48.8111 32.2724 48.4446C32.1303 48.0753 31.9201 47.7884 31.6417 47.5838C31.3633 47.3764 31.0195 47.2727 30.6104 47.2727C30.1843 47.2727 29.8292 47.3821 29.5451 47.6009C29.2638 47.8168 29.0522 48.1108 28.9102 48.483C28.771 48.8523 28.7013 49.267 28.7013 49.7273C28.7013 50.1932 28.7724 50.6165 28.9144 50.9972C29.0593 51.375 29.2724 51.6761 29.5536 51.9006C29.8377 52.1222 30.19 52.233 30.6104 52.233ZM35.4556 53V46.4545H36.4613V53H35.4556ZM35.967 45.3636C35.771 45.3636 35.6019 45.2969 35.4599 45.1634C35.3207 45.0298 35.2511 44.8693 35.2511 44.6818C35.2511 44.4943 35.3207 44.3338 35.4599 44.2003C35.6019 44.0668 35.771 44 35.967 44C36.163 44 36.3306 44.0668 36.4698 44.2003C36.6119 44.3338 36.6829 44.4943 36.6829 44.6818C36.6829 44.8693 36.6119 45.0298 36.4698 45.1634C36.3306 45.2969 36.163 45.3636 35.967 45.3636ZM40.9624 53.1364C40.3714 53.1364 39.853 52.9957 39.407 52.7145C38.9638 52.4332 38.6172 52.0398 38.3672 51.5341C38.12 51.0284 37.9964 50.4375 37.9964 49.7614C37.9964 49.0795 38.12 48.4844 38.3672 47.9759C38.6172 47.4673 38.9638 47.0724 39.407 46.7912C39.853 46.5099 40.3714 46.3693 40.9624 46.3693C41.5533 46.3693 42.0703 46.5099 42.5135 46.7912C42.9595 47.0724 43.3061 47.4673 43.5533 47.9759C43.8033 48.4844 43.9283 49.0795 43.9283 49.7614C43.9283 50.4375 43.8033 51.0284 43.5533 51.5341C43.3061 52.0398 42.9595 52.4332 42.5135 52.7145C42.0703 52.9957 41.5533 53.1364 40.9624 53.1364ZM40.9624 52.233C41.4112 52.233 41.7805 52.1179 42.0703 51.8878C42.3601 51.6577 42.5746 51.3551 42.7138 50.9801C42.853 50.6051 42.9226 50.1989 42.9226 49.7614C42.9226 49.3239 42.853 48.9162 42.7138 48.5384C42.5746 48.1605 42.3601 47.8551 42.0703 47.6222C41.7805 47.3892 41.4112 47.2727 40.9624 47.2727C40.5135 47.2727 40.1442 47.3892 39.8544 47.6222C39.5646 47.8551 39.3501 48.1605 39.2109 48.5384C39.0717 48.9162 39.0021 49.3239 39.0021 49.7614C39.0021 50.1989 39.0717 50.6051 39.2109 50.9801C39.3501 51.3551 39.5646 51.6577 39.8544 51.8878C40.1442 52.1179 40.5135 52.233 40.9624 52.233ZM51.4975 53.1364C50.8839 53.1364 50.3555 52.9915 49.9123 52.7017C49.4691 52.4119 49.1282 52.0128 48.8896 51.5043C48.6509 50.9957 48.5316 50.4148 48.5316 49.7614C48.5316 49.0966 48.6538 48.5099 48.8981 48.0014C49.1452 47.4901 49.489 47.0909 49.9293 46.804C50.3725 46.5142 50.8896 46.3693 51.4805 46.3693C51.9407 46.3693 52.3555 46.4545 52.7248 46.625C53.0941 46.7955 53.3967 47.0341 53.6325 47.3409C53.8683 47.6477 54.0146 48.0057 54.0714 48.4148H53.0657C52.989 48.1165 52.8185 47.8523 52.5543 47.6222C52.293 47.3892 51.9407 47.2727 51.4975 47.2727C51.1055 47.2727 50.7617 47.375 50.4663 47.5795C50.1737 47.7812 49.945 48.0668 49.7802 48.4361C49.6183 48.8026 49.5373 49.233 49.5373 49.7273C49.5373 50.233 49.6168 50.6733 49.7759 51.0483C49.9379 51.4233 50.1651 51.7145 50.4577 51.9219C50.7532 52.1293 51.0998 52.233 51.4975 52.233C51.7589 52.233 51.9961 52.1875 52.2092 52.0966C52.4222 52.0057 52.6026 51.875 52.7504 51.7045C52.8981 51.5341 53.0032 51.3295 53.0657 51.0909H54.0714C54.0146 51.4773 53.8739 51.8253 53.6495 52.1349C53.4279 52.4418 53.1339 52.6861 52.7674 52.8679C52.4038 53.0469 51.9805 53.1364 51.4975 53.1364ZM56.5472 44.2727V53H55.5415V44.2727H56.5472ZM60.3153 53.1534C59.9006 53.1534 59.5241 53.0753 59.1861 52.919C58.848 52.7599 58.5795 52.5312 58.3807 52.233C58.1818 51.9318 58.0824 51.5682 58.0824 51.142C58.0824 50.767 58.1563 50.4631 58.304 50.2301C58.4517 49.9943 58.6491 49.8097 58.8963 49.6761C59.1435 49.5426 59.4162 49.4432 59.7145 49.3778C60.0156 49.3097 60.3182 49.2557 60.6222 49.2159C61.0199 49.1648 61.3423 49.1264 61.5895 49.1009C61.8395 49.0724 62.0213 49.0256 62.1349 48.9602C62.2514 48.8949 62.3097 48.7812 62.3097 48.6193V48.5852C62.3097 48.1648 62.1946 47.8381 61.9645 47.6051C61.7372 47.3722 61.392 47.2557 60.929 47.2557C60.4489 47.2557 60.0724 47.3608 59.7997 47.571C59.527 47.7812 59.3352 48.0057 59.2244 48.2443L58.2699 47.9034C58.4403 47.5057 58.6676 47.196 58.9517 46.9744C59.2386 46.75 59.5511 46.5937 59.8892 46.5057C60.2301 46.4148 60.5653 46.3693 60.8949 46.3693C61.1051 46.3693 61.3466 46.3949 61.6193 46.446C61.8949 46.4943 62.1605 46.5952 62.4162 46.7486C62.6747 46.902 62.8892 47.1335 63.0597 47.4432C63.2301 47.7528 63.3153 48.1676 63.3153 48.6875V53H62.3097V52.1136H62.2585C62.1903 52.2557 62.0767 52.4077 61.9176 52.5696C61.7585 52.7315 61.5469 52.8693 61.2827 52.983C61.0185 53.0966 60.696 53.1534 60.3153 53.1534ZM60.4688 52.25C60.8665 52.25 61.2017 52.1719 61.4744 52.0156C61.75 51.8594 61.9574 51.6577 62.0966 51.4105C62.2386 51.1634 62.3097 50.9034 62.3097 50.6307V49.7102C62.267 49.7614 62.1733 49.8082 62.0284 49.8509C61.8864 49.8906 61.7216 49.9261 61.5341 49.9574C61.3494 49.9858 61.169 50.0114 60.9929 50.0341C60.8196 50.054 60.679 50.071 60.571 50.0852C60.3097 50.1193 60.0653 50.1747 59.8381 50.2514C59.6136 50.3253 59.4318 50.4375 59.2926 50.5881C59.1563 50.7358 59.0881 50.9375 59.0881 51.1932C59.0881 51.5426 59.2173 51.8068 59.4759 51.9858C59.7372 52.1619 60.0682 52.25 60.4688 52.25ZM69.7873 47.9205L68.8839 48.1761C68.8271 48.0256 68.7433 47.8793 68.6325 47.7372C68.5245 47.5923 68.3768 47.473 68.1893 47.3793C68.0018 47.2855 67.7617 47.2386 67.4691 47.2386C67.0685 47.2386 66.7347 47.331 66.4677 47.5156C66.2035 47.6974 66.0714 47.929 66.0714 48.2102C66.0714 48.4602 66.1623 48.6577 66.3441 48.8026C66.5259 48.9474 66.81 49.0682 67.1964 49.1648L68.168 49.4034C68.7532 49.5455 69.1893 49.7628 69.4762 50.0554C69.7631 50.3452 69.9066 50.7187 69.9066 51.1761C69.9066 51.5511 69.7987 51.8864 69.5827 52.1818C69.3697 52.4773 69.0714 52.7102 68.6879 52.8807C68.3043 53.0511 67.8583 53.1364 67.3498 53.1364C66.6822 53.1364 66.1296 52.9915 65.6921 52.7017C65.2546 52.4119 64.9776 51.9886 64.8612 51.4318L65.8157 51.1932C65.9066 51.5455 66.0785 51.8097 66.3313 51.9858C66.587 52.1619 66.9208 52.25 67.3327 52.25C67.8015 52.25 68.1737 52.1506 68.4492 51.9517C68.7276 51.75 68.8668 51.5085 68.8668 51.2273C68.8668 51 68.7873 50.8097 68.6282 50.6562C68.4691 50.5 68.2248 50.3835 67.8952 50.3068L66.8043 50.0511C66.2049 49.9091 65.7646 49.6889 65.4833 49.3906C65.2049 49.0895 65.0657 48.7131 65.0657 48.2614C65.0657 47.892 65.1694 47.5653 65.3768 47.2812C65.587 46.9972 65.8725 46.7741 66.2333 46.6122C66.5969 46.4503 67.0089 46.3693 67.4691 46.3693C68.1168 46.3693 68.6254 46.5114 68.9947 46.7955C69.3668 47.0795 69.631 47.4545 69.7873 47.9205ZM76.0568 47.9205L75.1534 48.1761C75.0966 48.0256 75.0128 47.8793 74.902 47.7372C74.794 47.5923 74.6463 47.473 74.4588 47.3793C74.2713 47.2855 74.0312 47.2386 73.7386 47.2386C73.3381 47.2386 73.0043 47.331 72.7372 47.5156C72.473 47.6974 72.3409 47.929 72.3409 48.2102C72.3409 48.4602 72.4318 48.6577 72.6136 48.8026C72.7955 48.9474 73.0795 49.0682 73.4659 49.1648L74.4375 49.4034C75.0227 49.5455 75.4588 49.7628 75.7457 50.0554C76.0327 50.3452 76.1761 50.7187 76.1761 51.1761C76.1761 51.5511 76.0682 51.8864 75.8523 52.1818C75.6392 52.4773 75.3409 52.7102 74.9574 52.8807C74.5739 53.0511 74.1278 53.1364 73.6193 53.1364C72.9517 53.1364 72.3991 52.9915 71.9616 52.7017C71.5241 52.4119 71.2472 51.9886 71.1307 51.4318L72.0852 51.1932C72.1761 51.5455 72.348 51.8097 72.6009 51.9858C72.8565 52.1619 73.1903 52.25 73.6023 52.25C74.071 52.25 74.4432 52.1506 74.7188 51.9517C74.9972 51.75 75.1364 51.5085 75.1364 51.2273C75.1364 51 75.0568 50.8097 74.8977 50.6562C74.7386 50.5 74.4943 50.3835 74.1648 50.3068L73.0739 50.0511C72.4744 49.9091 72.0341 49.6889 71.7528 49.3906C71.4744 49.0895 71.3352 48.7131 71.3352 48.2614C71.3352 47.892 71.4389 47.5653 71.6463 47.2812C71.8565 46.9972 72.142 46.7741 72.5028 46.6122C72.8665 46.4503 73.2784 46.3693 73.7386 46.3693C74.3864 46.3693 74.8949 46.5114 75.2642 46.7955C75.6364 47.0795 75.9006 47.4545 76.0568 47.9205ZM77.69 53V46.4545H78.6957V53H77.69ZM78.2013 45.3636C78.0053 45.3636 77.8363 45.2969 77.6942 45.1634C77.555 45.0298 77.4854 44.8693 77.4854 44.6818C77.4854 44.4943 77.555 44.3338 77.6942 44.2003C77.8363 44.0668 78.0053 44 78.2013 44C78.3974 44 78.565 44.0668 78.7042 44.2003C78.8462 44.3338 78.9173 44.4943 78.9173 44.6818C78.9173 44.8693 78.8462 45.0298 78.7042 45.1634C78.565 45.2969 78.3974 45.3636 78.2013 45.3636ZM83.4524 46.4545V47.3068H79.924V46.4545H83.4524ZM80.9808 53V45.5511C80.9808 45.1761 81.0689 44.8636 81.245 44.6136C81.4212 44.3636 81.6499 44.1761 81.9311 44.0511C82.2124 43.9261 82.5092 43.8636 82.8217 43.8636C83.0689 43.8636 83.2706 43.8835 83.4268 43.9233C83.5831 43.9631 83.6996 44 83.7763 44.0341L83.4865 44.9034C83.4354 44.8864 83.3643 44.8651 83.2734 44.8395C83.1854 44.8139 83.0689 44.8011 82.924 44.8011C82.5916 44.8011 82.3516 44.8849 82.2038 45.0526C82.0589 45.2202 81.9865 45.4659 81.9865 45.7898V53H80.9808ZM84.8619 53V46.4545H85.8675V53H84.8619ZM85.3732 45.3636C85.1772 45.3636 85.0082 45.2969 84.8661 45.1634C84.7269 45.0298 84.6573 44.8693 84.6573 44.6818C84.6573 44.4943 84.7269 44.3338 84.8661 44.2003C85.0082 44.0668 85.1772 44 85.3732 44C85.5692 44 85.7369 44.0668 85.8761 44.2003C86.0181 44.3338 86.0891 44.4943 86.0891 44.6818C86.0891 44.8693 86.0181 45.0298 85.8761 45.1634C85.7369 45.2969 85.5692 45.3636 85.3732 45.3636ZM90.3686 53.1364C89.755 53.1364 89.2266 52.9915 88.7834 52.7017C88.3402 52.4119 87.9993 52.0128 87.7607 51.5043C87.522 50.9957 87.4027 50.4148 87.4027 49.7614C87.4027 49.0966 87.5249 48.5099 87.7692 48.0014C88.0163 47.4901 88.3601 47.0909 88.8004 46.804C89.2436 46.5142 89.7607 46.3693 90.3516 46.3693C90.8118 46.3693 91.2266 46.4545 91.5959 46.625C91.9652 46.7955 92.2678 47.0341 92.5036 47.3409C92.7393 47.6477 92.8857 48.0057 92.9425 48.4148H91.9368C91.8601 48.1165 91.6896 47.8523 91.4254 47.6222C91.1641 47.3892 90.8118 47.2727 90.3686 47.2727C89.9766 47.2727 89.6328 47.375 89.3374 47.5795C89.0447 47.7812 88.8161 48.0668 88.6513 48.4361C88.4893 48.8026 88.4084 49.233 88.4084 49.7273C88.4084 50.233 88.4879 50.6733 88.647 51.0483C88.8089 51.4233 89.0362 51.7145 89.3288 51.9219C89.6243 52.1293 89.9709 52.233 90.3686 52.233C90.63 52.233 90.8672 52.1875 91.0803 52.0966C91.2933 52.0057 91.4737 51.875 91.6214 51.7045C91.7692 51.5341 91.8743 51.3295 91.9368 51.0909H92.9425C92.8857 51.4773 92.745 51.8253 92.5206 52.1349C92.299 52.4418 92.005 52.6861 91.6385 52.8679C91.2749 53.0469 90.8516 53.1364 90.3686 53.1364ZM96.3388 53.1534C95.924 53.1534 95.5476 53.0753 95.2095 52.919C94.8714 52.7599 94.603 52.5312 94.4041 52.233C94.2053 51.9318 94.1058 51.5682 94.1058 51.142C94.1058 50.767 94.1797 50.4631 94.3274 50.2301C94.4751 49.9943 94.6726 49.8097 94.9197 49.6761C95.1669 49.5426 95.4396 49.4432 95.7379 49.3778C96.0391 49.3097 96.3416 49.2557 96.6456 49.2159C97.0433 49.1648 97.3658 49.1264 97.6129 49.1009C97.8629 49.0724 98.0447 49.0256 98.1584 48.9602C98.2749 48.8949 98.3331 48.7812 98.3331 48.6193V48.5852C98.3331 48.1648 98.218 47.8381 97.9879 47.6051C97.7607 47.3722 97.4155 47.2557 96.9524 47.2557C96.4723 47.2557 96.0959 47.3608 95.8232 47.571C95.5504 47.7812 95.3587 48.0057 95.2479 48.2443L94.2933 47.9034C94.4638 47.5057 94.6911 47.196 94.9751 46.9744C95.2621 46.75 95.5746 46.5937 95.9126 46.5057C96.2536 46.4148 96.5888 46.3693 96.9183 46.3693C97.1286 46.3693 97.37 46.3949 97.6428 46.446C97.9183 46.4943 98.1839 46.5952 98.4396 46.7486C98.6982 46.902 98.9126 47.1335 99.0831 47.4432C99.2536 47.7528 99.3388 48.1676 99.3388 48.6875V53H98.3331V52.1136H98.282C98.2138 52.2557 98.1001 52.4077 97.9411 52.5696C97.782 52.7315 97.5703 52.8693 97.3061 52.983C97.0419 53.0966 96.7195 53.1534 96.3388 53.1534ZM96.4922 52.25C96.8899 52.25 97.2251 52.1719 97.4979 52.0156C97.7734 51.8594 97.9808 51.6577 98.12 51.4105C98.2621 51.1634 98.3331 50.9034 98.3331 50.6307V49.7102C98.2905 49.7614 98.1967 49.8082 98.0518 49.8509C97.9098 49.8906 97.745 49.9261 97.5575 49.9574C97.3729 49.9858 97.1925 50.0114 97.0163 50.0341C96.843 50.054 96.7024 50.071 96.5945 50.0852C96.3331 50.1193 96.0888 50.1747 95.8615 50.2514C95.6371 50.3253 95.4553 50.4375 95.3161 50.5881C95.1797 50.7358 95.1115 50.9375 95.1115 51.1932C95.1115 51.5426 95.2408 51.8068 95.4993 51.9858C95.7607 52.1619 96.0916 52.25 96.4922 52.25ZM104.021 46.4545V47.3068H100.629V46.4545H104.021ZM101.618 44.8864H102.623V51.125C102.623 51.4091 102.664 51.6222 102.747 51.7642C102.832 51.9034 102.94 51.9972 103.071 52.0455C103.204 52.0909 103.345 52.1136 103.493 52.1136C103.603 52.1136 103.694 52.108 103.765 52.0966C103.836 52.0824 103.893 52.071 103.936 52.0625L104.14 52.9659C104.072 52.9915 103.977 53.017 103.855 53.0426C103.733 53.071 103.578 53.0852 103.39 53.0852C103.106 53.0852 102.828 53.0241 102.555 52.902C102.285 52.7798 102.061 52.5938 101.882 52.3438C101.706 52.0938 101.618 51.7784 101.618 51.3977V44.8864ZM105.534 53V46.4545H106.539V53H105.534ZM106.045 45.3636C105.849 45.3636 105.68 45.2969 105.538 45.1634C105.399 45.0298 105.329 44.8693 105.329 44.6818C105.329 44.4943 105.399 44.3338 105.538 44.2003C105.68 44.0668 105.849 44 106.045 44C106.241 44 106.409 44.0668 106.548 44.2003C106.69 44.3338 106.761 44.4943 106.761 44.6818C106.761 44.8693 106.69 45.0298 106.548 45.1634C106.409 45.2969 106.241 45.3636 106.045 45.3636ZM111.04 53.1364C110.45 53.1364 109.931 52.9957 109.485 52.7145C109.042 52.4332 108.695 52.0398 108.445 51.5341C108.198 51.0284 108.075 50.4375 108.075 49.7614C108.075 49.0795 108.198 48.4844 108.445 47.9759C108.695 47.4673 109.042 47.0724 109.485 46.7912C109.931 46.5099 110.45 46.3693 111.04 46.3693C111.631 46.3693 112.148 46.5099 112.592 46.7912C113.038 47.0724 113.384 47.4673 113.631 47.9759C113.881 48.4844 114.006 49.0795 114.006 49.7614C114.006 50.4375 113.881 51.0284 113.631 51.5341C113.384 52.0398 113.038 52.4332 112.592 52.7145C112.148 52.9957 111.631 53.1364 111.04 53.1364ZM111.04 52.233C111.489 52.233 111.859 52.1179 112.148 51.8878C112.438 51.6577 112.653 51.3551 112.792 50.9801C112.931 50.6051 113.001 50.1989 113.001 49.7614C113.001 49.3239 112.931 48.9162 112.792 48.5384C112.653 48.1605 112.438 47.8551 112.148 47.6222C111.859 47.3892 111.489 47.2727 111.04 47.2727C110.592 47.2727 110.222 47.3892 109.933 47.6222C109.643 47.8551 109.428 48.1605 109.289 48.5384C109.15 48.9162 109.08 49.3239 109.08 49.7614C109.08 50.1989 109.15 50.6051 109.289 50.9801C109.428 51.3551 109.643 51.6577 109.933 51.8878C110.222 52.1179 110.592 52.233 111.04 52.233ZM116.547 49.0625V53H115.542V46.4545H116.513V47.4773H116.598C116.752 47.1449 116.985 46.8778 117.297 46.6761C117.61 46.4716 118.013 46.3693 118.507 46.3693C118.951 46.3693 119.338 46.4602 119.671 46.642C120.003 46.821 120.262 47.0938 120.446 47.4602C120.631 47.8239 120.723 48.2841 120.723 48.8409V53H119.718V48.9091C119.718 48.3949 119.584 47.9943 119.317 47.7074C119.05 47.4176 118.684 47.2727 118.218 47.2727C117.897 47.2727 117.61 47.3423 117.357 47.4815C117.107 47.6207 116.909 47.8239 116.765 48.0909C116.62 48.358 116.547 48.6818 116.547 49.0625ZM130.061 50.3239V46.4545H131.067V53H130.061V51.892H129.993C129.839 52.2244 129.601 52.5071 129.277 52.7401C128.953 52.9702 128.544 53.0852 128.05 53.0852C127.641 53.0852 127.277 52.9957 126.959 52.8168C126.641 52.6349 126.391 52.3622 126.209 51.9986C126.027 51.6321 125.936 51.1705 125.936 50.6136V46.4545H126.942V50.5455C126.942 51.0227 127.075 51.4034 127.342 51.6875C127.612 51.9716 127.956 52.1136 128.374 52.1136C128.624 52.1136 128.878 52.0497 129.136 51.9219C129.398 51.794 129.616 51.598 129.793 51.3338C129.972 51.0696 130.061 50.733 130.061 50.3239ZM137.545 47.9205L136.642 48.1761C136.585 48.0256 136.501 47.8793 136.39 47.7372C136.282 47.5923 136.135 47.473 135.947 47.3793C135.76 47.2855 135.52 47.2386 135.227 47.2386C134.826 47.2386 134.493 47.331 134.225 47.5156C133.961 47.6974 133.829 47.929 133.829 48.2102C133.829 48.4602 133.92 48.6577 134.102 48.8026C134.284 48.9474 134.568 49.0682 134.954 49.1648L135.926 49.4034C136.511 49.5455 136.947 49.7628 137.234 50.0554C137.521 50.3452 137.664 50.7187 137.664 51.1761C137.664 51.5511 137.556 51.8864 137.341 52.1818C137.127 52.4773 136.829 52.7102 136.446 52.8807C136.062 53.0511 135.616 53.1364 135.108 53.1364C134.44 53.1364 133.887 52.9915 133.45 52.7017C133.012 52.4119 132.735 51.9886 132.619 51.4318L133.574 51.1932C133.664 51.5455 133.836 51.8097 134.089 51.9858C134.345 52.1619 134.679 52.25 135.091 52.25C135.559 52.25 135.931 52.1506 136.207 51.9517C136.485 51.75 136.625 51.5085 136.625 51.2273C136.625 51 136.545 50.8097 136.386 50.6562C136.227 50.5 135.983 50.3835 135.653 50.3068L134.562 50.0511C133.963 49.9091 133.522 49.6889 133.241 49.3906C132.963 49.0895 132.824 48.7131 132.824 48.2614C132.824 47.892 132.927 47.5653 133.135 47.2812C133.345 46.9972 133.63 46.7741 133.991 46.6122C134.355 46.4503 134.767 46.3693 135.227 46.3693C135.875 46.3693 136.383 46.5114 136.752 46.7955C137.125 47.0795 137.389 47.4545 137.545 47.9205ZM139.178 53V46.4545H140.184V53H139.178ZM139.69 45.3636C139.494 45.3636 139.325 45.2969 139.183 45.1634C139.043 45.0298 138.974 44.8693 138.974 44.6818C138.974 44.4943 139.043 44.3338 139.183 44.2003C139.325 44.0668 139.494 44 139.69 44C139.886 44 140.053 44.0668 140.192 44.2003C140.335 44.3338 140.406 44.4943 140.406 44.6818C140.406 44.8693 140.335 45.0298 140.192 45.1634C140.053 45.2969 139.886 45.3636 139.69 45.3636ZM143.032 49.0625V53H142.026V46.4545H142.998V47.4773H143.083C143.236 47.1449 143.469 46.8778 143.782 46.6761C144.094 46.4716 144.498 46.3693 144.992 46.3693C145.435 46.3693 145.823 46.4602 146.155 46.642C146.488 46.821 146.746 47.0938 146.931 47.4602C147.115 47.8239 147.208 48.2841 147.208 48.8409V53H146.202V48.9091C146.202 48.3949 146.069 47.9943 145.801 47.7074C145.534 47.4176 145.168 47.2727 144.702 47.2727C144.381 47.2727 144.094 47.3423 143.841 47.4815C143.591 47.6207 143.394 47.8239 143.249 48.0909C143.104 48.358 143.032 48.6818 143.032 49.0625ZM151.688 55.5909C151.202 55.5909 150.784 55.5284 150.435 55.4034C150.085 55.2812 149.794 55.1193 149.561 54.9176C149.331 54.7188 149.148 54.5057 149.011 54.2784L149.812 53.7159C149.903 53.8352 150.018 53.9716 150.158 54.125C150.297 54.2812 150.487 54.4162 150.729 54.5298C150.973 54.6463 151.293 54.7045 151.688 54.7045C152.216 54.7045 152.652 54.5767 152.996 54.321C153.339 54.0653 153.511 53.6648 153.511 53.1193V51.7898H153.426C153.352 51.9091 153.247 52.0568 153.111 52.233C152.977 52.4062 152.784 52.5611 152.531 52.6974C152.281 52.831 151.943 52.8977 151.517 52.8977C150.989 52.8977 150.514 52.7727 150.094 52.5227C149.676 52.2727 149.345 51.9091 149.101 51.4318C148.859 50.9545 148.739 50.375 148.739 49.6932C148.739 49.0227 148.857 48.4389 149.092 47.9418C149.328 47.4418 149.656 47.0554 150.077 46.7827C150.497 46.5071 150.983 46.3693 151.534 46.3693C151.96 46.3693 152.298 46.4403 152.548 46.5824C152.801 46.7216 152.994 46.8807 153.128 47.0597C153.264 47.2358 153.369 47.3807 153.443 47.4943H153.545V46.4545H154.517V53.1875C154.517 53.75 154.389 54.2074 154.134 54.5597C153.881 54.9148 153.54 55.1747 153.111 55.3395C152.685 55.5071 152.21 55.5909 151.688 55.5909ZM151.653 51.9943C152.057 51.9943 152.398 51.902 152.676 51.7173C152.955 51.5327 153.166 51.267 153.311 50.9205C153.456 50.5739 153.528 50.1591 153.528 49.6761C153.528 49.2045 153.457 48.7884 153.315 48.4276C153.173 48.0668 152.963 47.7841 152.685 47.5795C152.406 47.375 152.063 47.2727 151.653 47.2727C151.227 47.2727 150.872 47.3807 150.588 47.5966C150.307 47.8125 150.095 48.1023 149.953 48.4659C149.814 48.8295 149.744 49.233 149.744 49.6761C149.744 50.1307 149.815 50.5327 149.957 50.8821C150.102 51.2287 150.315 51.5014 150.597 51.7003C150.881 51.8963 151.233 51.9943 151.653 51.9943ZM161.659 53.1534C161.244 53.1534 160.868 53.0753 160.53 52.919C160.192 52.7599 159.923 52.5312 159.724 52.233C159.526 51.9318 159.426 51.5682 159.426 51.142C159.426 50.767 159.5 50.4631 159.648 50.2301C159.795 49.9943 159.993 49.8097 160.24 49.6761C160.487 49.5426 160.76 49.4432 161.058 49.3778C161.359 49.3097 161.662 49.2557 161.966 49.2159C162.364 49.1648 162.686 49.1264 162.933 49.1009C163.183 49.0724 163.365 49.0256 163.479 48.9602C163.595 48.8949 163.653 48.7812 163.653 48.6193V48.5852C163.653 48.1648 163.538 47.8381 163.308 47.6051C163.081 47.3722 162.736 47.2557 162.273 47.2557C161.793 47.2557 161.416 47.3608 161.143 47.571C160.871 47.7812 160.679 48.0057 160.568 48.2443L159.614 47.9034C159.784 47.5057 160.011 47.196 160.295 46.9744C160.582 46.75 160.895 46.5937 161.233 46.5057C161.574 46.4148 161.909 46.3693 162.239 46.3693C162.449 46.3693 162.69 46.3949 162.963 46.446C163.239 46.4943 163.504 46.5952 163.76 46.7486C164.018 46.902 164.233 47.1335 164.403 47.4432C164.574 47.7528 164.659 48.1676 164.659 48.6875V53H163.653V52.1136H163.602C163.534 52.2557 163.42 52.4077 163.261 52.5696C163.102 52.7315 162.891 52.8693 162.626 52.983C162.362 53.0966 162.04 53.1534 161.659 53.1534ZM161.812 52.25C162.21 52.25 162.545 52.1719 162.818 52.0156C163.094 51.8594 163.301 51.6577 163.44 51.4105C163.582 51.1634 163.653 50.9034 163.653 50.6307V49.7102C163.611 49.7614 163.517 49.8082 163.372 49.8509C163.23 49.8906 163.065 49.9261 162.878 49.9574C162.693 49.9858 162.513 50.0114 162.337 50.0341C162.163 50.054 162.023 50.071 161.915 50.0852C161.653 50.1193 161.409 50.1747 161.182 50.2514C160.957 50.3253 160.776 50.4375 160.636 50.5881C160.5 50.7358 160.432 50.9375 160.432 51.1932C160.432 51.5426 160.561 51.8068 160.82 51.9858C161.081 52.1619 161.412 52.25 161.812 52.25ZM170.875 49.0625V53H169.87V46.4545H170.841V47.4773H170.926C171.08 47.1449 171.313 46.8778 171.625 46.6761C171.938 46.4716 172.341 46.3693 172.836 46.3693C173.279 46.3693 173.667 46.4602 173.999 46.642C174.331 46.821 174.59 47.0938 174.775 47.4602C174.959 47.8239 175.051 48.2841 175.051 48.8409V53H174.046V48.9091C174.046 48.3949 173.912 47.9943 173.645 47.7074C173.378 47.4176 173.012 47.2727 172.546 47.2727C172.225 47.2727 171.938 47.3423 171.685 47.4815C171.435 47.6207 171.238 47.8239 171.093 48.0909C170.948 48.358 170.875 48.6818 170.875 49.0625ZM179.634 53.1364C179.003 53.1364 178.459 52.9972 178.001 52.7188C177.547 52.4375 177.196 52.0455 176.949 51.5426C176.705 51.0369 176.582 50.4489 176.582 49.7784C176.582 49.108 176.705 48.517 176.949 48.0057C177.196 47.4915 177.54 47.0909 177.98 46.804C178.423 46.5142 178.94 46.3693 179.531 46.3693C179.872 46.3693 180.209 46.4261 180.541 46.5398C180.874 46.6534 181.176 46.8381 181.449 47.0938C181.722 47.3466 181.939 47.6818 182.101 48.0994C182.263 48.517 182.344 49.0312 182.344 49.642V50.0682H177.298V49.1989H181.321C181.321 48.8295 181.247 48.5 181.099 48.2102C180.955 47.9205 180.747 47.6918 180.477 47.5241C180.21 47.3565 179.895 47.2727 179.531 47.2727C179.131 47.2727 178.784 47.3722 178.491 47.571C178.202 47.767 177.979 48.0227 177.822 48.3381C177.666 48.6534 177.588 48.9915 177.588 49.3523V49.9318C177.588 50.4261 177.673 50.8452 177.844 51.1889C178.017 51.5298 178.257 51.7898 178.564 51.9688C178.871 52.1449 179.227 52.233 179.634 52.233C179.898 52.233 180.136 52.196 180.349 52.1222C180.565 52.0455 180.751 51.9318 180.908 51.7812C181.064 51.6278 181.185 51.4375 181.27 51.2102L182.241 51.483C182.139 51.8125 181.967 52.1023 181.726 52.3523C181.484 52.5994 181.186 52.7926 180.831 52.9318C180.476 53.0682 180.077 53.1364 179.634 53.1364ZM187.999 50.3239V46.4545H189.004V53H187.999V51.892H187.93C187.777 52.2244 187.538 52.5071 187.214 52.7401C186.891 52.9702 186.482 53.0852 185.987 53.0852C185.578 53.0852 185.214 52.9957 184.896 52.8168C184.578 52.6349 184.328 52.3622 184.146 51.9986C183.964 51.6321 183.874 51.1705 183.874 50.6136V46.4545H184.879V50.5455C184.879 51.0227 185.013 51.4034 185.28 51.6875C185.55 51.9716 185.893 52.1136 186.311 52.1136C186.561 52.1136 186.815 52.0497 187.074 51.9219C187.335 51.794 187.554 51.598 187.73 51.3338C187.909 51.0696 187.999 50.733 187.999 50.3239ZM190.846 53V46.4545H191.818V47.4432H191.886C192.005 47.1193 192.221 46.8565 192.534 46.6548C192.846 46.4531 193.199 46.3523 193.591 46.3523C193.664 46.3523 193.757 46.3537 193.868 46.3565C193.978 46.3594 194.062 46.3636 194.119 46.3693V47.392C194.085 47.3835 194.007 47.3707 193.885 47.3537C193.765 47.3338 193.639 47.3239 193.505 47.3239C193.187 47.3239 192.903 47.3906 192.653 47.5241C192.406 47.6548 192.21 47.8366 192.065 48.0696C191.923 48.2997 191.852 48.5625 191.852 48.858V53H190.846ZM197.237 53.1534C196.822 53.1534 196.446 53.0753 196.108 52.919C195.77 52.7599 195.501 52.5312 195.303 52.233C195.104 51.9318 195.004 51.5682 195.004 51.142C195.004 50.767 195.078 50.4631 195.226 50.2301C195.374 49.9943 195.571 49.8097 195.818 49.6761C196.065 49.5426 196.338 49.4432 196.636 49.3778C196.938 49.3097 197.24 49.2557 197.544 49.2159C197.942 49.1648 198.264 49.1264 198.511 49.1009C198.761 49.0724 198.943 49.0256 199.057 48.9602C199.173 48.8949 199.232 48.7812 199.232 48.6193V48.5852C199.232 48.1648 199.116 47.8381 198.886 47.6051C198.659 47.3722 198.314 47.2557 197.851 47.2557C197.371 47.2557 196.994 47.3608 196.722 47.571C196.449 47.7812 196.257 48.0057 196.146 48.2443L195.192 47.9034C195.362 47.5057 195.589 47.196 195.874 46.9744C196.161 46.75 196.473 46.5937 196.811 46.5057C197.152 46.4148 197.487 46.3693 197.817 46.3693C198.027 46.3693 198.268 46.3949 198.541 46.446C198.817 46.4943 199.082 46.5952 199.338 46.7486C199.597 46.902 199.811 47.1335 199.982 47.4432C200.152 47.7528 200.237 48.1676 200.237 48.6875V53H199.232V52.1136H199.18C199.112 52.2557 198.999 52.4077 198.839 52.5696C198.68 52.7315 198.469 52.8693 198.205 52.983C197.94 53.0966 197.618 53.1534 197.237 53.1534ZM197.391 52.25C197.788 52.25 198.124 52.1719 198.396 52.0156C198.672 51.8594 198.879 51.6577 199.018 51.4105C199.161 51.1634 199.232 50.9034 199.232 50.6307V49.7102C199.189 49.7614 199.095 49.8082 198.95 49.8509C198.808 49.8906 198.643 49.9261 198.456 49.9574C198.271 49.9858 198.091 50.0114 197.915 50.0341C197.741 50.054 197.601 50.071 197.493 50.0852C197.232 50.1193 196.987 50.1747 196.76 50.2514C196.536 50.3253 196.354 50.4375 196.214 50.5881C196.078 50.7358 196.01 50.9375 196.01 51.1932C196.01 51.5426 196.139 51.8068 196.398 51.9858C196.659 52.1619 196.99 52.25 197.391 52.25ZM203.078 44.2727V53H202.073V44.2727H203.078ZM209.301 49.0625V53H208.295V46.4545H209.267V47.4773H209.352C209.506 47.1449 209.739 46.8778 210.051 46.6761C210.364 46.4716 210.767 46.3693 211.261 46.3693C211.705 46.3693 212.092 46.4602 212.425 46.642C212.757 46.821 213.016 47.0938 213.2 47.4602C213.385 47.8239 213.477 48.2841 213.477 48.8409V53H212.472V48.9091C212.472 48.3949 212.338 47.9943 212.071 47.7074C211.804 47.4176 211.438 47.2727 210.972 47.2727C210.651 47.2727 210.364 47.3423 210.111 47.4815C209.861 47.6207 209.663 47.8239 209.518 48.0909C209.374 48.358 209.301 48.6818 209.301 49.0625ZM218.059 53.1364C217.429 53.1364 216.885 52.9972 216.427 52.7188C215.973 52.4375 215.622 52.0455 215.375 51.5426C215.13 51.0369 215.008 50.4489 215.008 49.7784C215.008 49.108 215.13 48.517 215.375 48.0057C215.622 47.4915 215.966 47.0909 216.406 46.804C216.849 46.5142 217.366 46.3693 217.957 46.3693C218.298 46.3693 218.635 46.4261 218.967 46.5398C219.299 46.6534 219.602 46.8381 219.875 47.0938C220.147 47.3466 220.365 47.6818 220.527 48.0994C220.689 48.517 220.77 49.0312 220.77 49.642V50.0682H215.724V49.1989H219.747C219.747 48.8295 219.673 48.5 219.525 48.2102C219.38 47.9205 219.173 47.6918 218.903 47.5241C218.636 47.3565 218.321 47.2727 217.957 47.2727C217.556 47.2727 217.21 47.3722 216.917 47.571C216.627 47.767 216.404 48.0227 216.248 48.3381C216.092 48.6534 216.014 48.9915 216.014 49.3523V49.9318C216.014 50.4261 216.099 50.8452 216.27 51.1889C216.443 51.5298 216.683 51.7898 216.99 51.9688C217.297 52.1449 217.653 52.233 218.059 52.233C218.324 52.233 218.562 52.196 218.775 52.1222C218.991 52.0455 219.177 51.9318 219.333 51.7812C219.49 51.6278 219.61 51.4375 219.696 51.2102L220.667 51.483C220.565 51.8125 220.393 52.1023 220.152 52.3523C219.91 52.5994 219.612 52.7926 219.257 52.9318C218.902 53.0682 218.502 53.1364 218.059 53.1364ZM225.146 46.4545V47.3068H221.754V46.4545H225.146ZM222.743 44.8864H223.748V51.125C223.748 51.4091 223.789 51.6222 223.872 51.7642C223.957 51.9034 224.065 51.9972 224.196 52.0455C224.329 52.0909 224.47 52.1136 224.618 52.1136C224.728 52.1136 224.819 52.108 224.89 52.0966C224.961 52.0824 225.018 52.071 225.061 52.0625L225.265 52.9659C225.197 52.9915 225.102 53.017 224.98 53.0426C224.858 53.071 224.703 53.0852 224.515 53.0852C224.231 53.0852 223.953 53.0241 223.68 52.902C223.41 52.7798 223.186 52.5938 223.007 52.3438C222.831 52.0938 222.743 51.7784 222.743 51.3977V44.8864ZM228.142 53L226.147 46.4545H227.204L228.619 51.4659H228.687L230.085 46.4545H231.159L232.539 51.4489H232.608L234.022 46.4545H235.079L233.085 53H232.096L230.664 47.9716H230.562L229.13 53H228.142ZM238.845 53.1364C238.254 53.1364 237.736 52.9957 237.29 52.7145C236.847 52.4332 236.5 52.0398 236.25 51.5341C236.003 51.0284 235.879 50.4375 235.879 49.7614C235.879 49.0795 236.003 48.4844 236.25 47.9759C236.5 47.4673 236.847 47.0724 237.29 46.7912C237.736 46.5099 238.254 46.3693 238.845 46.3693C239.436 46.3693 239.953 46.5099 240.396 46.7912C240.842 47.0724 241.189 47.4673 241.436 47.9759C241.686 48.4844 241.811 49.0795 241.811 49.7614C241.811 50.4375 241.686 51.0284 241.436 51.5341C241.189 52.0398 240.842 52.4332 240.396 52.7145C239.953 52.9957 239.436 53.1364 238.845 53.1364ZM238.845 52.233C239.294 52.233 239.663 52.1179 239.953 51.8878C240.243 51.6577 240.457 51.3551 240.597 50.9801C240.736 50.6051 240.805 50.1989 240.805 49.7614C240.805 49.3239 240.736 48.9162 240.597 48.5384C240.457 48.1605 240.243 47.8551 239.953 47.6222C239.663 47.3892 239.294 47.2727 238.845 47.2727C238.396 47.2727 238.027 47.3892 237.737 47.6222C237.447 47.8551 237.233 48.1605 237.094 48.5384C236.955 48.9162 236.885 49.3239 236.885 49.7614C236.885 50.1989 236.955 50.6051 237.094 50.9801C237.233 51.3551 237.447 51.6577 237.737 51.8878C238.027 52.1179 238.396 52.233 238.845 52.233ZM243.346 53V46.4545H244.318V47.4432H244.386C244.505 47.1193 244.721 46.8565 245.034 46.6548C245.346 46.4531 245.699 46.3523 246.091 46.3523C246.164 46.3523 246.257 46.3537 246.368 46.3565C246.478 46.3594 246.562 46.3636 246.619 46.3693V47.392C246.585 47.3835 246.507 47.3707 246.385 47.3537C246.265 47.3338 246.139 47.3239 246.005 47.3239C245.687 47.3239 245.403 47.3906 245.153 47.5241C244.906 47.6548 244.71 47.8366 244.565 48.0696C244.423 48.2997 244.352 48.5625 244.352 48.858V53H243.346ZM248.749 50.6136L248.732 49.3693H248.936L251.8 46.4545H253.044L249.993 49.5398H249.908L248.749 50.6136ZM247.811 53V44.2727H248.817V53H247.811ZM251.97 53L249.413 49.7614L250.129 49.0625L253.249 53H251.97Z" fill="#768395"/>
<circle cx="18" cy="79" r="6" fill="#3572A5"/>
<circle cx="18" cy="79" r="5.5" stroke="white" stroke-opacity="0.14902"/>
<path d="M33.0568 83.5V74.7727H36.0057C36.6903 74.7727 37.25 74.8963 37.6847 75.1435C38.1222 75.3878 38.446 75.7188 38.6562 76.1364C38.8665 76.554 38.9716 77.0199 38.9716 77.5341C38.9716 78.0483 38.8665 78.5156 38.6562 78.9361C38.4489 79.3565 38.1278 79.6918 37.6932 79.9418C37.2585 80.1889 36.7017 80.3125 36.0227 80.3125H33.9091V79.375H35.9886C36.4574 79.375 36.8338 79.294 37.1179 79.1321C37.402 78.9702 37.608 78.7514 37.7358 78.4759C37.8665 78.1974 37.9318 77.8835 37.9318 77.5341C37.9318 77.1847 37.8665 76.8722 37.7358 76.5966C37.608 76.321 37.4006 76.1051 37.1136 75.9489C36.8267 75.7898 36.446 75.7102 35.9716 75.7102H34.1136V83.5H33.0568ZM41.1854 85.9545C41.0149 85.9545 40.8629 85.9403 40.7294 85.9119C40.5959 85.8864 40.5036 85.8608 40.4524 85.8352L40.7081 84.9489C40.9524 85.0114 41.1683 85.0341 41.3558 85.017C41.5433 85 41.7095 84.9162 41.8544 84.7656C42.0021 84.6179 42.1371 84.3778 42.2592 84.0455L42.4467 83.5341L40.0263 76.9545H41.1172L42.924 82.1705H42.9922L44.799 76.9545H45.8899L43.1115 84.4545C42.9865 84.7926 42.8317 85.0724 42.647 85.294C42.4624 85.5185 42.2479 85.6847 42.0036 85.7926C41.7621 85.9006 41.4893 85.9545 41.1854 85.9545ZM50.0639 76.9545V77.8068H46.6719V76.9545H50.0639ZM47.6605 75.3864H48.6662V81.625C48.6662 81.9091 48.7074 82.1222 48.7898 82.2642C48.875 82.4034 48.983 82.4972 49.1136 82.5455C49.2472 82.5909 49.3878 82.6136 49.5355 82.6136C49.6463 82.6136 49.7372 82.608 49.8082 82.5966C49.8793 82.5824 49.9361 82.571 49.9787 82.5625L50.1832 83.4659C50.1151 83.4915 50.0199 83.517 49.8977 83.5426C49.7756 83.571 49.6207 83.5852 49.4332 83.5852C49.1491 83.5852 48.8707 83.5241 48.598 83.402C48.3281 83.2798 48.1037 83.0938 47.9247 82.8438C47.7486 82.5938 47.6605 82.2784 47.6605 81.8977V75.3864ZM52.723 79.5625V83.5H51.7173V74.7727H52.723V77.9773H52.8082C52.9616 77.6392 53.1918 77.3707 53.4986 77.1719C53.8082 76.9702 54.2202 76.8693 54.7344 76.8693C55.1804 76.8693 55.571 76.9588 55.9062 77.1378C56.2415 77.3139 56.5014 77.5852 56.6861 77.9517C56.8736 78.3153 56.9673 78.7784 56.9673 79.3409V83.5H55.9616V79.4091C55.9616 78.8892 55.8267 78.4872 55.5568 78.2031C55.2898 77.9162 54.919 77.7727 54.4446 77.7727C54.1151 77.7727 53.8196 77.8423 53.5582 77.9815C53.2997 78.1207 53.0952 78.3239 52.9446 78.5909C52.7969 78.858 52.723 79.1818 52.723 79.5625ZM61.4663 83.6364C60.8754 83.6364 60.3569 83.4957 59.9109 83.2145C59.4677 82.9332 59.1211 82.5398 58.8711 82.0341C58.6239 81.5284 58.5004 80.9375 58.5004 80.2614C58.5004 79.5795 58.6239 78.9844 58.8711 78.4759C59.1211 77.9673 59.4677 77.5724 59.9109 77.2912C60.3569 77.0099 60.8754 76.8693 61.4663 76.8693C62.0572 76.8693 62.5742 77.0099 63.0174 77.2912C63.4634 77.5724 63.81 77.9673 64.0572 78.4759C64.3072 78.9844 64.4322 79.5795 64.4322 80.2614C64.4322 80.9375 64.3072 81.5284 64.0572 82.0341C63.81 82.5398 63.4634 82.9332 63.0174 83.2145C62.5742 83.4957 62.0572 83.6364 61.4663 83.6364ZM61.4663 82.733C61.9151 82.733 62.2844 82.6179 62.5742 82.3878C62.864 82.1577 63.0785 81.8551 63.2177 81.4801C63.3569 81.1051 63.4265 80.6989 63.4265 80.2614C63.4265 79.8239 63.3569 79.4162 63.2177 79.0384C63.0785 78.6605 62.864 78.3551 62.5742 78.1222C62.2844 77.8892 61.9151 77.7727 61.4663 77.7727C61.0174 77.7727 60.6481 77.8892 60.3583 78.1222C60.0685 78.3551 59.854 78.6605 59.7148 79.0384C59.5756 79.4162 59.506 79.8239 59.506 80.2614C59.506 80.6989 59.5756 81.1051 59.7148 81.4801C59.854 81.8551 60.0685 82.1577 60.3583 82.3878C60.6481 82.6179 61.0174 82.733 61.4663 82.733ZM66.973 79.5625V83.5H65.9673V76.9545H66.9389V77.9773H67.0241C67.1776 77.6449 67.4105 77.3778 67.723 77.1761C68.0355 76.9716 68.4389 76.8693 68.9332 76.8693C69.3764 76.8693 69.7642 76.9602 70.0966 77.142C70.429 77.321 70.6875 77.5938 70.8722 77.9602C71.0568 78.3239 71.1491 78.7841 71.1491 79.3409V83.5H70.1435V79.4091C70.1435 78.8949 70.0099 78.4943 69.7429 78.2074C69.4759 77.9176 69.1094 77.7727 68.6435 77.7727C68.3224 77.7727 68.0355 77.8423 67.7827 77.9815C67.5327 78.1207 67.3352 78.3239 67.1903 78.5909C67.0455 78.858 66.973 79.1818 66.973 79.5625Z" fill="#768395"/>
<rect x="85" y="68" width="66" height="22" rx="11" fill="#388BFD" fill-opacity="0.101961"/>
<path d="M96.0568 83.5V74.7727H99.0057C99.6903 74.7727 100.25 74.8963 100.685 75.1435C101.122 75.3878 101.446 75.7188 101.656 76.1364C101.866 76.554 101.972 77.0199 101.972 77.5341C101.972 78.0483 101.866 78.5156 101.656 78.9361C101.449 79.3565 101.128 79.6918 100.693 79.9418C100.259 80.1889 99.7017 80.3125 99.0227 80.3125H96.9091V79.375H98.9886C99.4574 79.375 99.8338 79.294 100.118 79.1321C100.402 78.9702 100.608 78.7514 100.736 78.4759C100.866 78.1974 100.932 77.8835 100.932 77.5341C100.932 77.1847 100.866 76.8722 100.736 76.5966C100.608 76.321 100.401 76.1051 100.114 75.9489C99.8267 75.7898 99.446 75.7102 98.9716 75.7102H97.1136V83.5H96.0568ZM104.185 85.9545C104.015 85.9545 103.863 85.9403 103.729 85.9119C103.596 85.8864 103.504 85.8608 103.452 85.8352L103.708 84.9489C103.952 85.0114 104.168 85.0341 104.356 85.017C104.543 85 104.71 84.9162 104.854 84.7656C105.002 84.6179 105.137 84.3778 105.259 84.0455L105.447 83.5341L103.026 76.9545H104.117L105.924 82.1705H105.992L107.799 76.9545H108.89L106.112 84.4545C105.987 84.7926 105.832 85.0724 105.647 85.294C105.462 85.5185 105.248 85.6847 105.004 85.7926C104.762 85.9006 104.489 85.9545 104.185 85.9545ZM109.466 75.7102V74.7727H116.012V75.7102H113.267V83.5H112.211V75.7102H109.466ZM119.216 83.6364C118.625 83.6364 118.107 83.4957 117.661 83.2145C117.218 82.9332 116.871 82.5398 116.621 82.0341C116.374 81.5284 116.25 80.9375 116.25 80.2614C116.25 79.5795 116.374 78.9844 116.621 78.4759C116.871 77.9673 117.218 77.5724 117.661 77.2912C118.107 77.0099 118.625 76.8693 119.216 76.8693C119.807 76.8693 120.324 77.0099 120.767 77.2912C121.213 77.5724 121.56 77.9673 121.807 78.4759C122.057 78.9844 122.182 79.5795 122.182 80.2614C122.182 80.9375 122.057 81.5284 121.807 82.0341C121.56 82.5398 121.213 82.9332 120.767 83.2145C120.324 83.4957 119.807 83.6364 119.216 83.6364ZM119.216 82.733C119.665 82.733 120.034 82.6179 120.324 82.3878C120.614 82.1577 120.828 81.8551 120.968 81.4801C121.107 81.1051 121.176 80.6989 121.176 80.2614C121.176 79.8239 121.107 79.4162 120.968 79.0384C120.828 78.6605 120.614 78.3551 120.324 78.1222C120.034 77.8892 119.665 77.7727 119.216 77.7727C118.767 77.7727 118.398 77.8892 118.108 78.1222C117.819 78.3551 117.604 78.6605 117.465 79.0384C117.326 79.4162 117.256 79.8239 117.256 80.2614C117.256 80.6989 117.326 81.1051 117.465 81.4801C117.604 81.8551 117.819 82.1577 118.108 82.3878C118.398 82.6179 118.767 82.733 119.216 82.733ZM123.717 83.5V76.9545H124.689V77.9432H124.757C124.876 77.6193 125.092 77.3565 125.405 77.1548C125.717 76.9531 126.07 76.8523 126.462 76.8523C126.536 76.8523 126.628 76.8537 126.739 76.8565C126.849 76.8594 126.933 76.8636 126.99 76.8693V77.892C126.956 77.8835 126.878 77.8707 126.756 77.8537C126.636 77.8338 126.51 77.8239 126.376 77.8239C126.058 77.8239 125.774 77.8906 125.524 78.0241C125.277 78.1548 125.081 78.3366 124.936 78.5696C124.794 78.7997 124.723 79.0625 124.723 79.358V83.5H123.717ZM130.642 83.6364C130.028 83.6364 129.5 83.4915 129.057 83.2017C128.614 82.9119 128.273 82.5128 128.034 82.0043C127.795 81.4957 127.676 80.9148 127.676 80.2614C127.676 79.5966 127.798 79.0099 128.043 78.5014C128.29 77.9901 128.634 77.5909 129.074 77.304C129.517 77.0142 130.034 76.8693 130.625 76.8693C131.085 76.8693 131.5 76.9545 131.869 77.125C132.239 77.2955 132.541 77.5341 132.777 77.8409C133.013 78.1477 133.159 78.5057 133.216 78.9148H132.21C132.134 78.6165 131.963 78.3523 131.699 78.1222C131.438 77.8892 131.085 77.7727 130.642 77.7727C130.25 77.7727 129.906 77.875 129.611 78.0795C129.318 78.2812 129.089 78.5668 128.925 78.9361C128.763 79.3026 128.682 79.733 128.682 80.2273C128.682 80.733 128.761 81.1733 128.92 81.5483C129.082 81.9233 129.31 82.2145 129.602 82.4219C129.898 82.6293 130.244 82.733 130.642 82.733C130.903 82.733 131.141 82.6875 131.354 82.5966C131.567 82.5057 131.747 82.375 131.895 82.2045C132.043 82.0341 132.148 81.8295 132.21 81.5909H133.216C133.159 81.9773 133.018 82.3253 132.794 82.6349C132.572 82.9418 132.278 83.1861 131.912 83.3679C131.548 83.5469 131.125 83.6364 130.642 83.6364ZM135.692 79.5625V83.5H134.686V74.7727H135.692V77.9773H135.777C135.93 77.6392 136.161 77.3707 136.467 77.1719C136.777 76.9702 137.189 76.8693 137.703 76.8693C138.149 76.8693 138.54 76.9588 138.875 77.1378C139.21 77.3139 139.47 77.5852 139.655 77.9517C139.842 78.3153 139.936 78.7784 139.936 79.3409V83.5H138.93V79.4091C138.93 78.8892 138.795 78.4872 138.526 78.2031C138.259 77.9162 137.888 77.7727 137.413 77.7727C137.084 77.7727 136.788 77.8423 136.527 77.9815C136.268 78.1207 136.064 78.3239 135.913 78.5909C135.766 78.858 135.692 79.1818 135.692 79.5625Z" fill="#4493F8"/>
<rect x="163" y="68" width="95" height="22" rx="11" fill="#388BFD" fill-opacity="0.101961"/>
<path d="M174.415 83.5H173.307L176.511 74.7727H177.602L180.807 83.5H179.699L177.091 76.1534H177.023L174.415 83.5ZM174.824 80.0909H179.29V81.0284H174.824V80.0909ZM186.155 80.8239V76.9545H187.161V83.5H186.155V82.392H186.087C185.933 82.7244 185.695 83.0071 185.371 83.2401C185.047 83.4702 184.638 83.5852 184.143 83.5852C183.734 83.5852 183.371 83.4957 183.053 83.3168C182.734 83.1349 182.484 82.8622 182.303 82.4986C182.121 82.1321 182.03 81.6705 182.03 81.1136V76.9545H183.036V81.0455C183.036 81.5227 183.169 81.9034 183.436 82.1875C183.706 82.4716 184.05 82.6136 184.467 82.6136C184.717 82.6136 184.972 82.5497 185.23 82.4219C185.491 82.294 185.71 82.098 185.886 81.8338C186.065 81.5696 186.155 81.233 186.155 80.8239ZM191.474 83.6364C190.929 83.6364 190.447 83.4986 190.029 83.223C189.612 82.9446 189.285 82.5526 189.049 82.0469C188.814 81.5384 188.696 80.9375 188.696 80.2443C188.696 79.5568 188.814 78.9602 189.049 78.4545C189.285 77.9489 189.613 77.5582 190.034 77.2827C190.454 77.0071 190.94 76.8693 191.491 76.8693C191.917 76.8693 192.254 76.9403 192.501 77.0824C192.751 77.2216 192.941 77.3807 193.072 77.5597C193.206 77.7358 193.309 77.8807 193.383 77.9943H193.468V74.7727H194.474V83.5H193.502V82.4943H193.383C193.309 82.6136 193.204 82.7642 193.068 82.946C192.931 83.125 192.737 83.2855 192.484 83.4276C192.231 83.5668 191.895 83.6364 191.474 83.6364ZM191.61 82.733C192.014 82.733 192.355 82.6278 192.633 82.4176C192.912 82.2045 193.123 81.9105 193.268 81.5355C193.413 81.1577 193.485 80.7216 193.485 80.2273C193.485 79.7386 193.414 79.3111 193.272 78.9446C193.13 78.5753 192.92 78.2884 192.642 78.0838C192.363 77.8764 192.02 77.7727 191.61 77.7727C191.184 77.7727 190.829 77.8821 190.545 78.1009C190.264 78.3168 190.052 78.6108 189.91 78.983C189.771 79.3523 189.701 79.767 189.701 80.2273C189.701 80.6932 189.772 81.1165 189.914 81.4972C190.059 81.875 190.272 82.1761 190.554 82.4006C190.838 82.6222 191.19 82.733 191.61 82.733ZM196.456 83.5V76.9545H197.461V83.5H196.456ZM196.967 75.8636C196.771 75.8636 196.602 75.7969 196.46 75.6634C196.321 75.5298 196.251 75.3693 196.251 75.1818C196.251 74.9943 196.321 74.8338 196.46 74.7003C196.602 74.5668 196.771 74.5 196.967 74.5C197.163 74.5 197.331 74.5668 197.47 74.7003C197.612 74.8338 197.683 74.9943 197.683 75.1818C197.683 75.3693 197.612 75.5298 197.47 75.6634C197.331 75.7969 197.163 75.8636 196.967 75.8636ZM201.962 83.6364C201.371 83.6364 200.853 83.4957 200.407 83.2145C199.964 82.9332 199.617 82.5398 199.367 82.0341C199.12 81.5284 198.996 80.9375 198.996 80.2614C198.996 79.5795 199.12 78.9844 199.367 78.4759C199.617 77.9673 199.964 77.5724 200.407 77.2912C200.853 77.0099 201.371 76.8693 201.962 76.8693C202.553 76.8693 203.07 77.0099 203.513 77.2912C203.96 77.5724 204.306 77.9673 204.553 78.4759C204.803 78.9844 204.928 79.5795 204.928 80.2614C204.928 80.9375 204.803 81.5284 204.553 82.0341C204.306 82.5398 203.96 82.9332 203.513 83.2145C203.07 83.4957 202.553 83.6364 201.962 83.6364ZM201.962 82.733C202.411 82.733 202.781 82.6179 203.07 82.3878C203.36 82.1577 203.575 81.8551 203.714 81.4801C203.853 81.1051 203.923 80.6989 203.923 80.2614C203.923 79.8239 203.853 79.4162 203.714 79.0384C203.575 78.6605 203.36 78.3551 203.07 78.1222C202.781 77.8892 202.411 77.7727 201.962 77.7727C201.513 77.7727 201.144 77.8892 200.854 78.1222C200.565 78.3551 200.35 78.6605 200.211 79.0384C200.072 79.4162 200.002 79.8239 200.002 80.2614C200.002 80.6989 200.072 81.1051 200.211 81.4801C200.35 81.8551 200.565 82.1577 200.854 82.3878C201.144 82.6179 201.513 82.733 201.962 82.733ZM209.975 74.7727H211.236L214.202 82.017H214.304L217.27 74.7727H218.532V83.5H217.543V76.8693H217.458L214.73 83.5H213.776L211.049 76.8693H210.963V83.5H209.975V74.7727ZM227.571 74.7727V83.5H226.548L221.793 76.6477H221.707V83.5H220.651V74.7727H221.673L226.446 81.642H226.531V74.7727H227.571ZM230.743 74.7727V83.5H229.686V74.7727H230.743ZM237.634 76.9545C237.583 76.5227 237.376 76.1875 237.012 75.9489C236.648 75.7102 236.202 75.5909 235.674 75.5909C235.288 75.5909 234.95 75.6534 234.66 75.7784C234.373 75.9034 234.148 76.0753 233.987 76.294C233.827 76.5128 233.748 76.7614 233.748 77.0398C233.748 77.2727 233.803 77.473 233.914 77.6406C234.028 77.8054 234.173 77.9432 234.349 78.054C234.525 78.1619 234.71 78.2514 234.903 78.3224C235.096 78.3906 235.273 78.446 235.435 78.4886L236.322 78.7273C236.549 78.7869 236.802 78.8693 237.08 78.9744C237.362 79.0795 237.63 79.223 237.886 79.4048C238.144 79.5838 238.357 79.8139 238.525 80.0952C238.692 80.3764 238.776 80.7216 238.776 81.1307C238.776 81.6023 238.653 82.0284 238.406 82.4091C238.161 82.7898 237.803 83.0923 237.332 83.3168C236.863 83.5412 236.293 83.6534 235.623 83.6534C234.998 83.6534 234.457 83.5526 233.999 83.3509C233.545 83.1491 233.187 82.8679 232.925 82.5071C232.667 82.1463 232.521 81.7273 232.487 81.25H233.577C233.606 81.5795 233.717 81.8523 233.91 82.0682C234.106 82.2812 234.353 82.4403 234.651 82.5455C234.952 82.6477 235.276 82.6989 235.623 82.6989C236.026 82.6989 236.388 82.6335 236.71 82.5028C237.031 82.3693 237.285 82.1847 237.472 81.9489C237.66 81.7102 237.754 81.4318 237.754 81.1136C237.754 80.8239 237.673 80.5881 237.511 80.4062C237.349 80.2244 237.136 80.0767 236.871 79.9631C236.607 79.8494 236.322 79.75 236.015 79.6648L234.941 79.358C234.259 79.1619 233.719 78.8821 233.322 78.5185C232.924 78.1548 232.725 77.679 232.725 77.0909C232.725 76.6023 232.857 76.1761 233.121 75.8125C233.388 75.446 233.746 75.1619 234.195 74.9602C234.647 74.7557 235.151 74.6534 235.708 74.6534C236.271 74.6534 236.771 74.7543 237.208 74.956C237.646 75.1548 237.992 75.4276 238.248 75.7741C238.506 76.1207 238.643 76.5142 238.657 76.9545H237.634ZM240.037 75.7102V74.7727H246.582V75.7102H243.838V83.5H242.781V75.7102H240.037Z" fill="#4493F8"/>
</svg>
