<svg width="384" height="102" viewBox="0 0 384 102" fill="none" xmlns="http://www.w3.org/2000/svg">
<rect x="0.699951" y="0.5" width="382.2" height="101" rx="5.5" stroke="#768395"/>
<path d="M18.7376 18.6172C18.6912 18.183 18.4956 17.8449 18.1509 17.603C17.8096 17.361 17.3654 17.2401 16.8186 17.2401C16.4341 17.2401 16.1043 17.2981 15.8292 17.4141C15.5541 17.5301 15.3437 17.6875 15.1978 17.8864C15.052 18.0852 14.9774 18.3123 14.9741 18.5675C14.9741 18.7796 15.0222 18.9635 15.1183 19.1193C15.2177 19.2751 15.3519 19.4077 15.521 19.517C15.69 19.6231 15.8773 19.7126 16.0828 19.7855C16.2883 19.8584 16.4954 19.9197 16.7042 19.9695L17.6588 20.2081C18.0432 20.2976 18.4128 20.4186 18.7674 20.571C19.1254 20.7235 19.4452 20.9157 19.7269 21.1477C20.012 21.3797 20.2374 21.6598 20.4031 21.9879C20.5688 22.3161 20.6517 22.7005 20.6517 23.1413C20.6517 23.7379 20.4992 24.2633 20.1943 24.7173C19.8893 25.1681 19.4485 25.5211 18.8718 25.7763C18.2984 26.0282 17.6041 26.1541 16.7887 26.1541C15.9966 26.1541 15.3089 26.0315 14.7255 25.7862C14.1455 25.541 13.6914 25.183 13.3633 24.7124C13.0385 24.2417 12.8628 23.6683 12.8363 22.9922H14.6509C14.6775 23.3468 14.7868 23.6418 14.9791 23.8771C15.1713 24.1125 15.4215 24.2881 15.7298 24.4041C16.0413 24.5201 16.3893 24.5781 16.7738 24.5781C17.1749 24.5781 17.5262 24.5185 17.8278 24.3991C18.1327 24.2765 18.3714 24.1075 18.5437 23.892C18.716 23.6733 18.8039 23.4181 18.8072 23.1264C18.8039 22.8613 18.726 22.6425 18.5735 22.4702C18.4211 22.2945 18.2073 22.1487 17.9322 22.0327C17.6604 21.9134 17.3422 21.8073 16.9777 21.7145L15.8193 21.4162C14.9807 21.2008 14.3178 20.8743 13.8306 20.4368C13.3467 19.996 13.1048 19.411 13.1048 18.6818C13.1048 18.0819 13.2672 17.5566 13.592 17.1058C13.9201 16.6551 14.3659 16.3054 14.9294 16.0568C15.4928 15.8049 16.1308 15.679 16.8434 15.679C17.566 15.679 18.199 15.8049 18.7426 16.0568C19.2894 16.3054 19.7187 16.6518 20.0302 17.0959C20.3418 17.5367 20.5025 18.0438 20.5125 18.6172H18.7376ZM27.0837 22.7884V18.3636H28.8834V26H27.1383V24.6428H27.0588C26.8864 25.0703 26.6031 25.42 26.2087 25.6918C25.8176 25.9635 25.3353 26.0994 24.7619 26.0994C24.2614 26.0994 23.819 25.9884 23.4345 25.7663C23.0533 25.541 22.7551 25.2145 22.5396 24.7869C22.3242 24.3561 22.2165 23.8357 22.2165 23.2259V18.3636H24.0162V22.9474C24.0162 23.4313 24.1488 23.8158 24.4139 24.1009C24.6791 24.3859 25.0271 24.5284 25.4579 24.5284C25.7231 24.5284 25.98 24.4638 26.2285 24.3345C26.4771 24.2053 26.681 24.013 26.84 23.7578C27.0024 23.4993 27.0837 23.1761 27.0837 22.7884ZM33.5678 26.1342C32.9679 26.1342 32.431 25.9801 31.9571 25.6719C31.4831 25.3636 31.1086 24.9162 30.8335 24.3295C30.5584 23.7429 30.4208 23.0303 30.4208 22.1918C30.4208 21.3433 30.56 20.6274 30.8384 20.044C31.1202 19.4574 31.4997 19.0149 31.9769 18.7166C32.4542 18.415 32.9862 18.2642 33.5728 18.2642C34.0203 18.2642 34.3882 18.3404 34.6765 18.4929C34.9649 18.642 35.1936 18.8227 35.3626 19.0348C35.5316 19.2436 35.6625 19.4408 35.7553 19.6264H35.8299V15.8182H37.6346V26H35.8647V24.7969H35.7553C35.6625 24.9825 35.5283 25.1797 35.3527 25.3885C35.177 25.594 34.945 25.7696 34.6566 25.9155C34.3683 26.0613 34.0053 26.1342 33.5678 26.1342ZM34.07 24.6577C34.4511 24.6577 34.7759 24.5549 35.0444 24.3494C35.3129 24.1406 35.5167 23.8506 35.6559 23.4794C35.7951 23.1082 35.8647 22.6757 35.8647 22.1818C35.8647 21.688 35.7951 21.2588 35.6559 20.8942C35.52 20.5296 35.3178 20.2462 35.0494 20.044C34.7842 19.8419 34.4578 19.7408 34.07 19.7408C33.6689 19.7408 33.3342 19.8452 33.0657 20.054C32.7973 20.2628 32.5951 20.5511 32.4592 20.919C32.3233 21.2869 32.2553 21.7079 32.2553 22.1818C32.2553 22.6591 32.3233 23.085 32.4592 23.4595C32.5984 23.8307 32.8022 24.1241 33.0707 24.3395C33.3425 24.5516 33.6756 24.6577 34.07 24.6577ZM42.8834 26.1491C42.1376 26.1491 41.4913 25.9851 40.9444 25.657C40.3976 25.3288 39.9733 24.8698 39.6717 24.2798C39.3734 23.6899 39.2243 23.0005 39.2243 22.2116C39.2243 21.4228 39.3734 20.7318 39.6717 20.1385C39.9733 19.5452 40.3976 19.0845 40.9444 18.7564C41.4913 18.4283 42.1376 18.2642 42.8834 18.2642C43.6291 18.2642 44.2754 18.4283 44.8223 18.7564C45.3692 19.0845 45.7917 19.5452 46.09 20.1385C46.3917 20.7318 46.5425 21.4228 46.5425 22.2116C46.5425 23.0005 46.3917 23.6899 46.09 24.2798C45.7917 24.8698 45.3692 25.3288 44.8223 25.657C44.2754 25.9851 43.6291 26.1491 42.8834 26.1491ZM42.8933 24.7074C43.2977 24.7074 43.6357 24.5964 43.9075 24.3743C44.1793 24.1489 44.3815 23.8473 44.514 23.4695C44.6499 23.0916 44.7179 22.6707 44.7179 22.2067C44.7179 21.7393 44.6499 21.3168 44.514 20.9389C44.3815 20.5578 44.1793 20.2545 43.9075 20.0291C43.6357 19.8037 43.2977 19.6911 42.8933 19.6911C42.479 19.6911 42.1343 19.8037 41.8592 20.0291C41.5874 20.2545 41.3836 20.5578 41.2477 20.9389C41.1151 21.3168 41.0489 21.7393 41.0489 22.2067C41.0489 22.6707 41.1151 23.0916 41.2477 23.4695C41.3836 23.8473 41.5874 24.1489 41.8592 24.3743C42.1343 24.5964 42.479 24.7074 42.8933 24.7074ZM49.7106 23.6037L49.7056 21.4311H49.994L52.7383 18.3636H54.8413L51.4656 22.1222H51.0927L49.7106 23.6037ZM48.07 26V15.8182H49.8697V26H48.07ZM52.8626 26L50.3768 22.5249L51.5899 21.2571L55.0153 26H52.8626ZM60.9079 22.7884V18.3636H62.7076V26H60.9626V24.6428H60.883C60.7107 25.0703 60.4273 25.42 60.0329 25.6918C59.6418 25.9635 59.1595 26.0994 58.5861 26.0994C58.0857 26.0994 57.6432 25.9884 57.2587 25.7663C56.8776 25.541 56.5793 25.2145 56.3638 24.7869C56.1484 24.3561 56.0407 23.8357 56.0407 23.2259V18.3636H57.8404V22.9474C57.8404 23.4313 57.973 23.8158 58.2381 24.1009C58.5033 24.3859 58.8513 24.5284 59.2822 24.5284C59.5473 24.5284 59.8042 24.4638 60.0528 24.3345C60.3013 24.2053 60.5052 24.013 60.6643 23.7578C60.8267 23.4993 60.9079 23.1761 60.9079 22.7884ZM73.6438 18.6172C73.5974 18.183 73.4019 17.8449 73.0572 17.603C72.7158 17.361 72.2717 17.2401 71.7248 17.2401C71.3403 17.2401 71.0106 17.2981 70.7355 17.4141C70.4604 17.5301 70.2499 17.6875 70.1041 17.8864C69.9582 18.0852 69.8837 18.3123 69.8803 18.5675C69.8803 18.7796 69.9284 18.9635 70.0245 19.1193C70.124 19.2751 70.2582 19.4077 70.4272 19.517C70.5963 19.6231 70.7835 19.7126 70.989 19.7855C71.1945 19.8584 71.4017 19.9197 71.6105 19.9695L72.565 20.2081C72.9495 20.2976 73.319 20.4186 73.6737 20.571C74.0316 20.7235 74.3515 20.9157 74.6332 21.1477C74.9182 21.3797 75.1436 21.6598 75.3093 21.9879C75.475 22.3161 75.5579 22.7005 75.5579 23.1413C75.5579 23.7379 75.4054 24.2633 75.1005 24.7173C74.7956 25.1681 74.3548 25.5211 73.7781 25.7763C73.2047 26.0282 72.5103 26.1541 71.695 26.1541C70.9028 26.1541 70.2151 26.0315 69.6318 25.7862C69.0518 25.541 68.5977 25.183 68.2696 24.7124C67.9447 24.2417 67.7691 23.6683 67.7426 22.9922H69.5572C69.5837 23.3468 69.6931 23.6418 69.8853 23.8771C70.0776 24.1125 70.3278 24.2881 70.636 24.4041C70.9476 24.5201 71.2956 24.5781 71.6801 24.5781C72.0811 24.5781 72.4324 24.5185 72.734 24.3991C73.039 24.2765 73.2776 24.1075 73.45 23.892C73.6223 23.6733 73.7101 23.4181 73.7134 23.1264C73.7101 22.8613 73.6322 22.6425 73.4798 22.4702C73.3273 22.2945 73.1135 22.1487 72.8384 22.0327C72.5667 21.9134 72.2485 21.8073 71.8839 21.7145L70.7255 21.4162C69.887 21.2008 69.2241 20.8743 68.7369 20.4368C68.253 19.996 68.011 19.411 68.011 18.6818C68.011 18.0819 68.1734 17.5566 68.4982 17.1058C68.8264 16.6551 69.2722 16.3054 69.8356 16.0568C70.3991 15.8049 71.0371 15.679 71.7497 15.679C72.4722 15.679 73.1053 15.8049 73.6488 16.0568C74.1957 16.3054 74.6249 16.6518 74.9365 17.0959C75.248 17.5367 75.4088 18.0438 75.4187 18.6172H73.6438ZM80.4537 26.1491C79.7079 26.1491 79.0616 25.9851 78.5148 25.657C77.9679 25.3288 77.5436 24.8698 77.242 24.2798C76.9437 23.6899 76.7946 23.0005 76.7946 22.2116C76.7946 21.4228 76.9437 20.7318 77.242 20.1385C77.5436 19.5452 77.9679 19.0845 78.5148 18.7564C79.0616 18.4283 79.7079 18.2642 80.4537 18.2642C81.1994 18.2642 81.8457 18.4283 82.3926 18.7564C82.9395 19.0845 83.3621 19.5452 83.6604 20.1385C83.962 20.7318 84.1128 21.4228 84.1128 22.2116C84.1128 23.0005 83.962 23.6899 83.6604 24.2798C83.3621 24.8698 82.9395 25.3288 82.3926 25.657C81.8457 25.9851 81.1994 26.1491 80.4537 26.1491ZM80.4636 24.7074C80.868 24.7074 81.206 24.5964 81.4778 24.3743C81.7496 24.1489 81.9518 23.8473 82.0844 23.4695C82.2203 23.0916 82.2882 22.6707 82.2882 22.2067C82.2882 21.7393 82.2203 21.3168 82.0844 20.9389C81.9518 20.5578 81.7496 20.2545 81.4778 20.0291C81.206 19.8037 80.868 19.6911 80.4636 19.6911C80.0493 19.6911 79.7046 19.8037 79.4295 20.0291C79.1578 20.2545 78.9539 20.5578 78.818 20.9389C78.6855 21.3168 78.6192 21.7393 78.6192 22.2067C78.6192 22.6707 78.6855 23.0916 78.818 23.4695C78.9539 23.8473 79.1578 24.1489 79.4295 24.3743C79.7046 24.5964 80.0493 24.7074 80.4636 24.7074ZM87.44 15.8182V26H85.6403V15.8182H87.44ZM96.1117 18.3636L93.3922 26H91.4036L88.6841 18.3636H90.6032L92.3582 24.0362H92.4377L94.1976 18.3636H96.1117ZM100.478 26.1491C99.7124 26.1491 99.0512 25.9901 98.4943 25.6719C97.9408 25.3504 97.5149 24.8963 97.2166 24.3097C96.9183 23.7197 96.7692 23.0253 96.7692 22.2266C96.7692 21.4411 96.9183 20.7517 97.2166 20.1584C97.5183 19.5618 97.9392 19.0978 98.4794 18.7663C99.0197 18.4316 99.6544 18.2642 100.384 18.2642C100.854 18.2642 101.298 18.3404 101.716 18.4929C102.137 18.642 102.508 18.8741 102.83 19.1889C103.154 19.5038 103.41 19.9048 103.595 20.392C103.781 20.8759 103.874 21.4527 103.874 22.1222V22.674H97.6144V21.4609H102.148C102.145 21.1162 102.071 20.8097 101.925 20.5412C101.779 20.2694 101.575 20.0556 101.313 19.8999C101.055 19.7441 100.753 19.6662 100.408 19.6662C100.041 19.6662 99.7174 19.7557 99.4389 19.9347C99.1605 20.1103 98.9434 20.3423 98.7877 20.6307C98.6352 20.9157 98.5573 21.2289 98.554 21.5703V22.6293C98.554 23.0734 98.6352 23.4545 98.7976 23.7727C98.96 24.0876 99.187 24.3295 99.4787 24.4986C99.7704 24.6643 100.112 24.7472 100.503 24.7472C100.765 24.7472 101.002 24.7107 101.214 24.6378C101.426 24.5616 101.61 24.4505 101.766 24.3047C101.921 24.1589 102.039 23.9782 102.119 23.7628L103.799 23.9517C103.693 24.3958 103.491 24.7836 103.192 25.1151C102.898 25.4432 102.52 25.6984 102.059 25.8807C101.598 26.0597 101.071 26.1491 100.478 26.1491ZM105.396 26V18.3636H107.141V19.6364H107.221C107.36 19.1955 107.599 18.8558 107.937 18.6172C108.278 18.3752 108.667 18.2543 109.105 18.2543C109.204 18.2543 109.315 18.2592 109.438 18.2692C109.564 18.2758 109.668 18.2874 109.751 18.304V19.9595C109.675 19.933 109.554 19.9098 109.388 19.8899C109.226 19.8667 109.069 19.8551 108.916 19.8551C108.588 19.8551 108.293 19.9264 108.031 20.0689C107.773 20.2081 107.569 20.402 107.42 20.6506C107.27 20.8991 107.196 21.1858 107.196 21.5107V26H105.396Z" fill="#4493F8"/>
<path d="M13.2568 53V44.2727H14.3136V52.0625H18.3704V53H13.2568ZM22.5295 53.1364C21.9386 53.1364 21.4201 52.9957 20.9741 52.7145C20.5309 52.4332 20.1843 52.0398 19.9343 51.5341C19.6872 51.0284 19.5636 50.4375 19.5636 49.7614C19.5636 49.0795 19.6872 48.4844 19.9343 47.9759C20.1843 47.4673 20.5309 47.0724 20.9741 46.7912C21.4201 46.5099 21.9386 46.3693 22.5295 46.3693C23.1204 46.3693 23.6375 46.5099 24.0806 46.7912C24.5267 47.0724 24.8732 47.4673 25.1204 47.9759C25.3704 48.4844 25.4954 49.0795 25.4954 49.7614C25.4954 50.4375 25.3704 51.0284 25.1204 51.5341C24.8732 52.0398 24.5267 52.4332 24.0806 52.7145C23.6375 52.9957 23.1204 53.1364 22.5295 53.1364ZM22.5295 52.233C22.9784 52.233 23.3477 52.1179 23.6375 51.8878C23.9272 51.6577 24.1417 51.3551 24.2809 50.9801C24.4201 50.6051 24.4897 50.1989 24.4897 49.7614C24.4897 49.3239 24.4201 48.9162 24.2809 48.5384C24.1417 48.1605 23.9272 47.8551 23.6375 47.6222C23.3477 47.3892 22.9784 47.2727 22.5295 47.2727C22.0806 47.2727 21.7113 47.3892 21.4215 47.6222C21.1318 47.8551 20.9173 48.1605 20.7781 48.5384C20.6389 48.9162 20.5693 49.3239 20.5693 49.7614C20.5693 50.1989 20.6389 50.6051 20.7781 50.9801C20.9173 51.3551 21.1318 51.6577 21.4215 51.8878C21.7113 52.1179 22.0806 52.233 22.5295 52.233ZM29.6726 55.5909C29.1868 55.5909 28.7692 55.5284 28.4198 55.4034C28.0703 55.2812 27.7791 55.1193 27.5462 54.9176C27.3161 54.7188 27.1328 54.5057 26.9965 54.2784L27.7976 53.7159C27.8885 53.8352 28.0036 53.9716 28.1428 54.125C28.282 54.2812 28.4723 54.4162 28.7138 54.5298C28.9581 54.6463 29.2777 54.7045 29.6726 54.7045C30.201 54.7045 30.6371 54.5767 30.9808 54.321C31.3246 54.0653 31.4965 53.6648 31.4965 53.1193V51.7898H31.4112C31.3374 51.9091 31.2323 52.0568 31.0959 52.233C30.9624 52.4062 30.7692 52.5611 30.5164 52.6974C30.2664 52.831 29.9283 52.8977 29.5022 52.8977C28.9737 52.8977 28.4993 52.7727 28.0789 52.5227C27.6612 52.2727 27.3303 51.9091 27.086 51.4318C26.8445 50.9545 26.7237 50.375 26.7237 49.6932C26.7237 49.0227 26.8416 48.4389 27.0774 47.9418C27.3132 47.4418 27.6414 47.0554 28.0618 46.7827C28.4823 46.5071 28.9681 46.3693 29.5192 46.3693C29.9453 46.3693 30.2834 46.4403 30.5334 46.5824C30.7862 46.7216 30.9794 46.8807 31.1129 47.0597C31.2493 47.2358 31.3544 47.3807 31.4283 47.4943H31.5306V46.4545H32.5022V53.1875C32.5022 53.75 32.3743 54.2074 32.1186 54.5597C31.8658 54.9148 31.5249 55.1747 31.0959 55.3395C30.6698 55.5071 30.1953 55.5909 29.6726 55.5909ZM29.6385 51.9943C30.0419 51.9943 30.3828 51.902 30.6612 51.7173C30.9397 51.5327 31.1513 51.267 31.2962 50.9205C31.4411 50.5739 31.5135 50.1591 31.5135 49.6761C31.5135 49.2045 31.4425 48.7884 31.3004 48.4276C31.1584 48.0668 30.9482 47.7841 30.6698 47.5795C30.3914 47.375 30.0476 47.2727 29.6385 47.2727C29.2124 47.2727 28.8573 47.3807 28.5732 47.5966C28.2919 47.8125 28.0803 48.1023 27.9382 48.4659C27.799 48.8295 27.7294 49.233 27.7294 49.6761C27.7294 50.1307 27.8004 50.5327 27.9425 50.8821C28.0874 51.2287 28.3004 51.5014 28.5817 51.7003C28.8658 51.8963 29.2181 51.9943 29.6385 51.9943ZM34.3431 53V46.4545H35.3487V53H34.3431ZM34.8544 45.3636C34.6584 45.3636 34.4894 45.2969 34.3473 45.1634C34.2081 45.0298 34.1385 44.8693 34.1385 44.6818C34.1385 44.4943 34.2081 44.3338 34.3473 44.2003C34.4894 44.0668 34.6584 44 34.8544 44C35.0504 44 35.2181 44.0668 35.3573 44.2003C35.4993 44.3338 35.5703 44.4943 35.5703 44.6818C35.5703 44.8693 35.4993 45.0298 35.3573 45.1634C35.2181 45.2969 35.0504 45.3636 34.8544 45.3636ZM39.8498 53.1364C39.2362 53.1364 38.7078 52.9915 38.2646 52.7017C37.8214 52.4119 37.4805 52.0128 37.2419 51.5043C37.0032 50.9957 36.8839 50.4148 36.8839 49.7614C36.8839 49.0966 37.0061 48.5099 37.2504 48.0014C37.4975 47.4901 37.8413 47.0909 38.2816 46.804C38.7248 46.5142 39.2419 46.3693 39.8328 46.3693C40.293 46.3693 40.7078 46.4545 41.0771 46.625C41.4464 46.7955 41.749 47.0341 41.9848 47.3409C42.2205 47.6477 42.3669 48.0057 42.4237 48.4148H41.418C41.3413 48.1165 41.1708 47.8523 40.9066 47.6222C40.6453 47.3892 40.293 47.2727 39.8498 47.2727C39.4578 47.2727 39.114 47.375 38.8186 47.5795C38.5259 47.7812 38.2973 48.0668 38.1325 48.4361C37.9705 48.8026 37.8896 49.233 37.8896 49.7273C37.8896 50.233 37.9691 50.6733 38.1282 51.0483C38.2902 51.4233 38.5174 51.7145 38.81 51.9219C39.1055 52.1293 39.4521 52.233 39.8498 52.233C40.1112 52.233 40.3484 52.1875 40.5615 52.0966C40.7745 52.0057 40.9549 51.875 41.1027 51.7045C41.2504 51.5341 41.3555 51.3295 41.418 51.0909H42.4237C42.3669 51.4773 42.2262 51.8253 42.0018 52.1349C41.7802 52.4418 41.4862 52.6861 41.1197 52.8679C40.7561 53.0469 40.3328 53.1364 39.8498 53.1364ZM47.6438 48.7898V49.7273H43.8257V48.7898H47.6438ZM49.5497 53V44.2727H50.5554V47.4943H50.6406C50.7145 47.3807 50.8168 47.2358 50.9475 47.0597C51.081 46.8807 51.2713 46.7216 51.5185 46.5824C51.7685 46.4403 52.1066 46.3693 52.5327 46.3693C53.0838 46.3693 53.5696 46.5071 53.9901 46.7827C54.4105 47.0582 54.7387 47.4489 54.9745 47.9545C55.2102 48.4602 55.3281 49.0568 55.3281 49.7443C55.3281 50.4375 55.2102 51.0384 54.9745 51.5469C54.7387 52.0526 54.412 52.4446 53.9943 52.723C53.5767 52.9986 53.0952 53.1364 52.5497 53.1364C52.1293 53.1364 51.7926 53.0668 51.5398 52.9276C51.287 52.7855 51.0924 52.625 50.956 52.446C50.8196 52.2642 50.7145 52.1136 50.6406 51.9943H50.5213V53H49.5497ZM50.5384 49.7273C50.5384 50.2216 50.6108 50.6577 50.7557 51.0355C50.9006 51.4105 51.1122 51.7045 51.3906 51.9176C51.6691 52.1278 52.01 52.233 52.4134 52.233C52.8338 52.233 53.1847 52.1222 53.4659 51.9006C53.75 51.6761 53.9631 51.375 54.1051 50.9972C54.25 50.6165 54.3225 50.1932 54.3225 49.7273C54.3225 49.267 54.2514 48.8523 54.1094 48.483C53.9702 48.1108 53.7585 47.8168 53.4745 47.6009C53.1932 47.3821 52.8395 47.2727 52.4134 47.2727C52.0043 47.2727 51.6605 47.3764 51.3821 47.5838C51.1037 47.7884 50.8935 48.0753 50.7514 48.4446C50.6094 48.8111 50.5384 49.2386 50.5384 49.7273ZM58.7926 53.1534C58.3779 53.1534 58.0014 53.0753 57.6634 52.919C57.3253 52.7599 57.0568 52.5312 56.858 52.233C56.6591 51.9318 56.5597 51.5682 56.5597 51.142C56.5597 50.767 56.6335 50.4631 56.7813 50.2301C56.929 49.9943 57.1264 49.8097 57.3736 49.6761C57.6208 49.5426 57.8935 49.4432 58.1918 49.3778C58.4929 49.3097 58.7955 49.2557 59.0995 49.2159C59.4972 49.1648 59.8196 49.1264 60.0668 49.1009C60.3168 49.0724 60.4986 49.0256 60.6122 48.9602C60.7287 48.8949 60.787 48.7812 60.787 48.6193V48.5852C60.787 48.1648 60.6719 47.8381 60.4418 47.6051C60.2145 47.3722 59.8693 47.2557 59.4063 47.2557C58.9262 47.2557 58.5497 47.3608 58.277 47.571C58.0043 47.7812 57.8125 48.0057 57.7017 48.2443L56.7472 47.9034C56.9176 47.5057 57.1449 47.196 57.429 46.9744C57.7159 46.75 58.0284 46.5937 58.3665 46.5057C58.7074 46.4148 59.0426 46.3693 59.3722 46.3693C59.5824 46.3693 59.8239 46.3949 60.0966 46.446C60.3722 46.4943 60.6378 46.5952 60.8935 46.7486C61.152 46.902 61.3665 47.1335 61.537 47.4432C61.7074 47.7528 61.7926 48.1676 61.7926 48.6875V53H60.787V52.1136H60.7358C60.6676 52.2557 60.554 52.4077 60.3949 52.5696C60.2358 52.7315 60.0242 52.8693 59.76 52.983C59.4958 53.0966 59.1733 53.1534 58.7926 53.1534ZM58.946 52.25C59.3438 52.25 59.679 52.1719 59.9517 52.0156C60.2273 51.8594 60.4347 51.6577 60.5739 51.4105C60.7159 51.1634 60.787 50.9034 60.787 50.6307V49.7102C60.7443 49.7614 60.6506 49.8082 60.5057 49.8509C60.3637 49.8906 60.1989 49.9261 60.0114 49.9574C59.8267 49.9858 59.6463 50.0114 59.4702 50.0341C59.2969 50.054 59.1563 50.071 59.0483 50.0852C58.787 50.1193 58.5426 50.1747 58.3154 50.2514C58.0909 50.3253 57.9091 50.4375 57.7699 50.5881C57.6335 50.7358 57.5654 50.9375 57.5654 51.1932C57.5654 51.5426 57.6946 51.8068 57.9531 51.9858C58.2145 52.1619 58.5455 52.25 58.946 52.25ZM68.2646 47.9205L67.3612 48.1761C67.3044 48.0256 67.2205 47.8793 67.1098 47.7372C67.0018 47.5923 66.8541 47.473 66.6666 47.3793C66.4791 47.2855 66.239 47.2386 65.9464 47.2386C65.5458 47.2386 65.212 47.331 64.945 47.5156C64.6808 47.6974 64.5487 47.929 64.5487 48.2102C64.5487 48.4602 64.6396 48.6577 64.8214 48.8026C65.0032 48.9474 65.2873 49.0682 65.6737 49.1648L66.6453 49.4034C67.2305 49.5455 67.6666 49.7628 67.9535 50.0554C68.2404 50.3452 68.3839 50.7187 68.3839 51.1761C68.3839 51.5511 68.2759 51.8864 68.06 52.1818C67.847 52.4773 67.5487 52.7102 67.1652 52.8807C66.7816 53.0511 66.3356 53.1364 65.8271 53.1364C65.1595 53.1364 64.6069 52.9915 64.1694 52.7017C63.7319 52.4119 63.4549 51.9886 63.3384 51.4318L64.293 51.1932C64.3839 51.5455 64.5558 51.8097 64.8086 51.9858C65.0643 52.1619 65.3981 52.25 65.81 52.25C66.2788 52.25 66.6509 52.1506 66.9265 51.9517C67.2049 51.75 67.3441 51.5085 67.3441 51.2273C67.3441 51 67.2646 50.8097 67.1055 50.6562C66.9464 50.5 66.7021 50.3835 66.3725 50.3068L65.2816 50.0511C64.6822 49.9091 64.2419 49.6889 63.9606 49.3906C63.6822 49.0895 63.543 48.7131 63.543 48.2614C63.543 47.892 63.6467 47.5653 63.8541 47.2812C64.0643 46.9972 64.3498 46.7741 64.7106 46.6122C65.0742 46.4503 65.4862 46.3693 65.9464 46.3693C66.5941 46.3693 67.1027 46.5114 67.472 46.7955C67.8441 47.0795 68.1083 47.4545 68.2646 47.9205ZM72.6421 53.1364C72.0114 53.1364 71.4674 52.9972 71.01 52.7188C70.5554 52.4375 70.2046 52.0455 69.9574 51.5426C69.7131 51.0369 69.5909 50.4489 69.5909 49.7784C69.5909 49.108 69.7131 48.517 69.9574 48.0057C70.2046 47.4915 70.5483 47.0909 70.9887 46.804C71.4318 46.5142 71.9489 46.3693 72.5398 46.3693C72.8807 46.3693 73.2174 46.4261 73.5497 46.5398C73.8821 46.6534 74.1847 46.8381 74.4574 47.0938C74.7301 47.3466 74.9475 47.6818 75.1094 48.0994C75.2713 48.517 75.3523 49.0312 75.3523 49.642V50.0682H70.3068V49.1989H74.3296C74.3296 48.8295 74.2557 48.5 74.108 48.2102C73.9631 47.9205 73.7557 47.6918 73.4858 47.5241C73.2188 47.3565 72.9034 47.2727 72.5398 47.2727C72.1392 47.2727 71.7926 47.3722 71.5 47.571C71.2102 47.767 70.9872 48.0227 70.831 48.3381C70.6747 48.6534 70.5966 48.9915 70.5966 49.3523V49.9318C70.5966 50.4261 70.6818 50.8452 70.8523 51.1889C71.0256 51.5298 71.2656 51.7898 71.5725 51.9688C71.8793 52.1449 72.2358 52.233 72.6421 52.233C72.9063 52.233 73.1449 52.196 73.358 52.1222C73.5739 52.0455 73.76 51.9318 73.9162 51.7812C74.0725 51.6278 74.1932 51.4375 74.2784 51.2102L75.25 51.483C75.1477 51.8125 74.9759 52.1023 74.7344 52.3523C74.4929 52.5994 74.1946 52.7926 73.8395 52.9318C73.4844 53.0682 73.0852 53.1364 72.6421 53.1364ZM79.3537 53.1364C78.8083 53.1364 78.3267 52.9986 77.9091 52.723C77.4915 52.4446 77.1648 52.0526 76.929 51.5469C76.6932 51.0384 76.5753 50.4375 76.5753 49.7443C76.5753 49.0568 76.6932 48.4602 76.929 47.9545C77.1648 47.4489 77.4929 47.0582 77.9134 46.7827C78.3338 46.5071 78.8196 46.3693 79.3708 46.3693C79.7969 46.3693 80.1335 46.4403 80.3807 46.5824C80.6307 46.7216 80.821 46.8807 80.9517 47.0597C81.0852 47.2358 81.1889 47.3807 81.2628 47.4943H81.348V44.2727H82.3537V53H81.3821V51.9943H81.2628C81.1889 52.1136 81.0838 52.2642 80.9475 52.446C80.8111 52.625 80.6165 52.7855 80.3637 52.9276C80.1108 53.0668 79.7742 53.1364 79.3537 53.1364ZM79.4901 52.233C79.8935 52.233 80.2344 52.1278 80.5128 51.9176C80.7912 51.7045 81.0029 51.4105 81.1477 51.0355C81.2926 50.6577 81.3651 50.2216 81.3651 49.7273C81.3651 49.2386 81.2941 48.8111 81.152 48.4446C81.01 48.0753 80.7997 47.7884 80.5213 47.5838C80.2429 47.3764 79.8992 47.2727 79.4901 47.2727C79.0639 47.2727 78.7088 47.3821 78.4247 47.6009C78.1435 47.8168 77.9318 48.1108 77.7898 48.483C77.6506 48.8523 77.581 49.267 77.581 49.7273C77.581 50.1932 77.652 50.6165 77.7941 50.9972C77.9389 51.375 78.152 51.6761 78.4333 51.9006C78.7174 52.1222 79.0696 52.233 79.4901 52.233ZM92.6193 46.4545C92.5682 46.0227 92.3608 45.6875 91.9972 45.4489C91.6335 45.2102 91.1875 45.0909 90.6591 45.0909C90.2727 45.0909 89.9347 45.1534 89.6449 45.2784C89.358 45.4034 89.1335 45.5753 88.9716 45.794C88.8125 46.0128 88.733 46.2614 88.733 46.5398C88.733 46.7727 88.7884 46.973 88.8992 47.1406C89.0128 47.3054 89.1577 47.4432 89.3338 47.554C89.51 47.6619 89.6946 47.7514 89.8878 47.8224C90.081 47.8906 90.2585 47.946 90.4205 47.9886L91.3068 48.2273C91.5341 48.2869 91.787 48.3693 92.0654 48.4744C92.3466 48.5795 92.6151 48.723 92.8708 48.9048C93.1293 49.0838 93.3424 49.3139 93.51 49.5952C93.6776 49.8764 93.7614 50.2216 93.7614 50.6307C93.7614 51.1023 93.6378 51.5284 93.3906 51.9091C93.1463 52.2898 92.7884 52.5923 92.3168 52.8168C91.848 53.0412 91.2784 53.1534 90.608 53.1534C89.983 53.1534 89.4418 53.0526 88.9844 52.8509C88.5299 52.6491 88.1719 52.3679 87.9105 52.0071C87.652 51.6463 87.5057 51.2273 87.4716 50.75H88.5625C88.5909 51.0795 88.7017 51.3523 88.8949 51.5682C89.0909 51.7812 89.3381 51.9403 89.6364 52.0455C89.9375 52.1477 90.2614 52.1989 90.608 52.1989C91.0114 52.1989 91.3736 52.1335 91.6946 52.0028C92.0156 51.8693 92.2699 51.6847 92.4574 51.4489C92.6449 51.2102 92.7387 50.9318 92.7387 50.6136C92.7387 50.3239 92.6577 50.0881 92.4958 49.9062C92.3338 49.7244 92.1208 49.5767 91.8566 49.4631C91.5924 49.3494 91.3068 49.25 91 49.1648L89.9262 48.858C89.2443 48.6619 88.7046 48.3821 88.3068 48.0185C87.9091 47.6548 87.7102 47.179 87.7102 46.5909C87.7102 46.1023 87.8424 45.6761 88.1066 45.3125C88.3736 44.946 88.7316 44.6619 89.1804 44.4602C89.6321 44.2557 90.1364 44.1534 90.6932 44.1534C91.2557 44.1534 91.7557 44.2543 92.1932 44.456C92.6307 44.6548 92.9773 44.9276 93.233 45.2741C93.4915 45.6207 93.6279 46.0142 93.6421 46.4545H92.6193ZM99.4876 50.3239V46.4545H100.493V53H99.4876V51.892H99.4194C99.266 52.2244 99.0274 52.5071 98.7035 52.7401C98.3796 52.9702 97.9705 53.0852 97.4762 53.0852C97.0671 53.0852 96.7035 52.9957 96.3853 52.8168C96.0671 52.6349 95.8171 52.3622 95.6353 51.9986C95.4535 51.6321 95.3626 51.1705 95.3626 50.6136V46.4545H96.3683V50.5455C96.3683 51.0227 96.5018 51.4034 96.7688 51.6875C97.0387 51.9716 97.3825 52.1136 97.8001 52.1136C98.0501 52.1136 98.3044 52.0497 98.5629 51.9219C98.8242 51.794 99.043 51.598 99.2191 51.3338C99.3981 51.0696 99.4876 50.733 99.4876 50.3239ZM104.807 53.1364C104.261 53.1364 103.78 52.9986 103.362 52.723C102.945 52.4446 102.618 52.0526 102.382 51.5469C102.146 51.0384 102.028 50.4375 102.028 49.7443C102.028 49.0568 102.146 48.4602 102.382 47.9545C102.618 47.4489 102.946 47.0582 103.366 46.7827C103.787 46.5071 104.273 46.3693 104.824 46.3693C105.25 46.3693 105.587 46.4403 105.834 46.5824C106.084 46.7216 106.274 46.8807 106.405 47.0597C106.538 47.2358 106.642 47.3807 106.716 47.4943H106.801V44.2727H107.807V53H106.835V51.9943H106.716C106.642 52.1136 106.537 52.2642 106.401 52.446C106.264 52.625 106.07 52.7855 105.817 52.9276C105.564 53.0668 105.227 53.1364 104.807 53.1364ZM104.943 52.233C105.347 52.233 105.688 52.1278 105.966 51.9176C106.244 51.7045 106.456 51.4105 106.601 51.0355C106.746 50.6577 106.818 50.2216 106.818 49.7273C106.818 49.2386 106.747 48.8111 106.605 48.4446C106.463 48.0753 106.253 47.7884 105.974 47.5838C105.696 47.3764 105.352 47.2727 104.943 47.2727C104.517 47.2727 104.162 47.3821 103.878 47.6009C103.597 47.8168 103.385 48.1108 103.243 48.483C103.104 48.8523 103.034 49.267 103.034 49.7273C103.034 50.1932 103.105 50.6165 103.247 50.9972C103.392 51.375 103.605 51.6761 103.886 51.9006C104.17 52.1222 104.523 52.233 104.943 52.233ZM112.447 53.1364C111.857 53.1364 111.338 52.9957 110.892 52.7145C110.449 52.4332 110.102 52.0398 109.852 51.5341C109.605 51.0284 109.482 50.4375 109.482 49.7614C109.482 49.0795 109.605 48.4844 109.852 47.9759C110.102 47.4673 110.449 47.0724 110.892 46.7912C111.338 46.5099 111.857 46.3693 112.447 46.3693C113.038 46.3693 113.555 46.5099 113.999 46.7912C114.445 47.0724 114.791 47.4673 115.038 47.9759C115.288 48.4844 115.413 49.0795 115.413 49.7614C115.413 50.4375 115.288 51.0284 115.038 51.5341C114.791 52.0398 114.445 52.4332 113.999 52.7145C113.555 52.9957 113.038 53.1364 112.447 53.1364ZM112.447 52.233C112.896 52.233 113.266 52.1179 113.555 51.8878C113.845 51.6577 114.06 51.3551 114.199 50.9801C114.338 50.6051 114.408 50.1989 114.408 49.7614C114.408 49.3239 114.338 48.9162 114.199 48.5384C114.06 48.1605 113.845 47.8551 113.555 47.6222C113.266 47.3892 112.896 47.2727 112.447 47.2727C111.999 47.2727 111.629 47.3892 111.34 47.6222C111.05 47.8551 110.835 48.1605 110.696 48.5384C110.557 48.9162 110.487 49.3239 110.487 49.7614C110.487 50.1989 110.557 50.6051 110.696 50.9801C110.835 51.3551 111.05 51.6577 111.34 51.8878C111.629 52.1179 111.999 52.233 112.447 52.233ZM117.886 50.6136L117.869 49.3693H118.074L120.937 46.4545H122.181L119.13 49.5398H119.045L117.886 50.6136ZM116.949 53V44.2727H117.954V53H116.949ZM121.108 53L118.551 49.7614L119.267 49.0625L122.386 53H121.108ZM127.601 50.3239V46.4545H128.607V53H127.601V51.892H127.533C127.379 52.2244 127.141 52.5071 126.817 52.7401C126.493 52.9702 126.084 53.0852 125.59 53.0852C125.18 53.0852 124.817 52.9957 124.499 52.8168C124.18 52.6349 123.93 52.3622 123.749 51.9986C123.567 51.6321 123.476 51.1705 123.476 50.6136V46.4545H124.482V50.5455C124.482 51.0227 124.615 51.4034 124.882 51.6875C125.152 51.9716 125.496 52.1136 125.913 52.1136C126.163 52.1136 126.418 52.0497 126.676 51.9219C126.938 51.794 127.156 51.598 127.332 51.3338C127.511 51.0696 127.601 50.733 127.601 50.3239ZM138.46 47.9205L137.556 48.1761C137.5 48.0256 137.416 47.8793 137.305 47.7372C137.197 47.5923 137.049 47.473 136.862 47.3793C136.674 47.2855 136.434 47.2386 136.142 47.2386C135.741 47.2386 135.407 47.331 135.14 47.5156C134.876 47.6974 134.744 47.929 134.744 48.2102C134.744 48.4602 134.835 48.6577 135.017 48.8026C135.199 48.9474 135.483 49.0682 135.869 49.1648L136.841 49.4034C137.426 49.5455 137.862 49.7628 138.149 50.0554C138.436 50.3452 138.579 50.7187 138.579 51.1761C138.579 51.5511 138.471 51.8864 138.255 52.1818C138.042 52.4773 137.744 52.7102 137.36 52.8807C136.977 53.0511 136.531 53.1364 136.022 53.1364C135.355 53.1364 134.802 52.9915 134.365 52.7017C133.927 52.4119 133.65 51.9886 133.534 51.4318L134.488 51.1932C134.579 51.5455 134.751 51.8097 135.004 51.9858C135.26 52.1619 135.593 52.25 136.005 52.25C136.474 52.25 136.846 52.1506 137.122 51.9517C137.4 51.75 137.539 51.5085 137.539 51.2273C137.539 51 137.46 50.8097 137.301 50.6562C137.142 50.5 136.897 50.3835 136.568 50.3068L135.477 50.0511C134.878 49.9091 134.437 49.6889 134.156 49.3906C133.878 49.0895 133.738 48.7131 133.738 48.2614C133.738 47.892 133.842 47.5653 134.049 47.2812C134.26 46.9972 134.545 46.7741 134.906 46.6122C135.27 46.4503 135.681 46.3693 136.142 46.3693C136.789 46.3693 137.298 46.5114 137.667 46.7955C138.039 47.0795 138.304 47.4545 138.46 47.9205ZM142.752 53.1364C142.161 53.1364 141.643 52.9957 141.197 52.7145C140.754 52.4332 140.407 52.0398 140.157 51.5341C139.91 51.0284 139.786 50.4375 139.786 49.7614C139.786 49.0795 139.91 48.4844 140.157 47.9759C140.407 47.4673 140.754 47.0724 141.197 46.7912C141.643 46.5099 142.161 46.3693 142.752 46.3693C143.343 46.3693 143.86 46.5099 144.303 46.7912C144.749 47.0724 145.096 47.4673 145.343 47.9759C145.593 48.4844 145.718 49.0795 145.718 49.7614C145.718 50.4375 145.593 51.0284 145.343 51.5341C145.096 52.0398 144.749 52.4332 144.303 52.7145C143.86 52.9957 143.343 53.1364 142.752 53.1364ZM142.752 52.233C143.201 52.233 143.57 52.1179 143.86 51.8878C144.15 51.6577 144.364 51.3551 144.504 50.9801C144.643 50.6051 144.712 50.1989 144.712 49.7614C144.712 49.3239 144.643 48.9162 144.504 48.5384C144.364 48.1605 144.15 47.8551 143.86 47.6222C143.57 47.3892 143.201 47.2727 142.752 47.2727C142.303 47.2727 141.934 47.3892 141.644 47.6222C141.354 47.8551 141.14 48.1605 141.001 48.5384C140.862 48.9162 140.792 49.3239 140.792 49.7614C140.792 50.1989 140.862 50.6051 141.001 50.9801C141.14 51.3551 141.354 51.6577 141.644 51.8878C141.934 52.1179 142.303 52.233 142.752 52.233ZM148.259 44.2727V53H147.253V44.2727H148.259ZM155.453 46.4545L153.033 53H152.01L149.59 46.4545H150.68L152.487 51.6705H152.555L154.362 46.4545H155.453ZM159.291 53.1364C158.66 53.1364 158.116 52.9972 157.658 52.7188C157.204 52.4375 156.853 52.0455 156.606 51.5426C156.362 51.0369 156.239 50.4489 156.239 49.7784C156.239 49.108 156.362 48.517 156.606 48.0057C156.853 47.4915 157.197 47.0909 157.637 46.804C158.08 46.5142 158.597 46.3693 159.188 46.3693C159.529 46.3693 159.866 46.4261 160.198 46.5398C160.531 46.6534 160.833 46.8381 161.106 47.0938C161.379 47.3466 161.596 47.6818 161.758 48.0994C161.92 48.517 162.001 49.0312 162.001 49.642V50.0682H156.955V49.1989H160.978C160.978 48.8295 160.904 48.5 160.756 48.2102C160.612 47.9205 160.404 47.6918 160.134 47.5241C159.867 47.3565 159.552 47.2727 159.188 47.2727C158.788 47.2727 158.441 47.3722 158.148 47.571C157.859 47.767 157.636 48.0227 157.479 48.3381C157.323 48.6534 157.245 48.9915 157.245 49.3523V49.9318C157.245 50.4261 157.33 50.8452 157.501 51.1889C157.674 51.5298 157.914 51.7898 158.221 51.9688C158.528 52.1449 158.884 52.233 159.291 52.233C159.555 52.233 159.793 52.196 160.006 52.1222C160.222 52.0455 160.408 51.9318 160.565 51.7812C160.721 51.6278 160.842 51.4375 160.927 51.2102L161.898 51.483C161.796 51.8125 161.624 52.1023 161.383 52.3523C161.141 52.5994 160.843 52.7926 160.488 52.9318C160.133 53.0682 159.734 53.1364 159.291 53.1364ZM163.531 53V46.4545H164.502V47.4432H164.57C164.69 47.1193 164.906 46.8565 165.218 46.6548C165.531 46.4531 165.883 46.3523 166.275 46.3523C166.349 46.3523 166.441 46.3537 166.552 46.3565C166.663 46.3594 166.746 46.3636 166.803 46.3693V47.392C166.769 47.3835 166.691 47.3707 166.569 47.3537C166.45 47.3338 166.323 47.3239 166.19 47.3239C165.871 47.3239 165.587 47.3906 165.337 47.5241C165.09 47.6548 164.894 47.8366 164.749 48.0696C164.607 48.2997 164.536 48.5625 164.536 48.858V53H163.531ZM172.853 53L170.859 46.4545H171.916L173.331 51.4659H173.399L174.797 46.4545H175.87L177.251 51.4489H177.319L178.734 46.4545H179.791L177.797 53H176.808L175.376 47.9716H175.274L173.842 53H172.853ZM181.12 53V46.4545H182.092V47.4432H182.16C182.279 47.1193 182.495 46.8565 182.808 46.6548C183.12 46.4531 183.473 46.3523 183.865 46.3523C183.939 46.3523 184.031 46.3537 184.142 46.3565C184.253 46.3594 184.336 46.3636 184.393 46.3693V47.392C184.359 47.3835 184.281 47.3707 184.159 47.3537C184.039 47.3338 183.913 47.3239 183.779 47.3239C183.461 47.3239 183.177 47.3906 182.927 47.5241C182.68 47.6548 182.484 47.8366 182.339 48.0696C182.197 48.2997 182.126 48.5625 182.126 48.858V53H181.12ZM185.585 53V46.4545H186.591V53H185.585ZM186.097 45.3636C185.901 45.3636 185.732 45.2969 185.59 45.1634C185.45 45.0298 185.381 44.8693 185.381 44.6818C185.381 44.4943 185.45 44.3338 185.59 44.2003C185.732 44.0668 185.901 44 186.097 44C186.293 44 186.46 44.0668 186.599 44.2003C186.741 44.3338 186.813 44.4943 186.813 44.6818C186.813 44.8693 186.741 45.0298 186.599 45.1634C186.46 45.2969 186.293 45.3636 186.097 45.3636ZM191.279 46.4545V47.3068H187.887V46.4545H191.279ZM188.876 44.8864H189.882V51.125C189.882 51.4091 189.923 51.6222 190.005 51.7642C190.091 51.9034 190.199 51.9972 190.329 52.0455C190.463 52.0909 190.603 52.1136 190.751 52.1136C190.862 52.1136 190.953 52.108 191.024 52.0966C191.095 52.0824 191.152 52.071 191.194 52.0625L191.399 52.9659C191.331 52.9915 191.235 53.017 191.113 53.0426C190.991 53.071 190.836 53.0852 190.649 53.0852C190.365 53.0852 190.086 53.0241 189.814 52.902C189.544 52.7798 189.319 52.5938 189.14 52.3438C188.964 52.0938 188.876 51.7784 188.876 51.3977V44.8864ZM195.639 46.4545V47.3068H192.247V46.4545H195.639ZM193.235 44.8864H194.241V51.125C194.241 51.4091 194.282 51.6222 194.365 51.7642C194.45 51.9034 194.558 51.9972 194.689 52.0455C194.822 52.0909 194.963 52.1136 195.11 52.1136C195.221 52.1136 195.312 52.108 195.383 52.0966C195.454 52.0824 195.511 52.071 195.554 52.0625L195.758 52.9659C195.69 52.9915 195.595 53.017 195.473 53.0426C195.351 53.071 195.196 53.0852 195.008 53.0852C194.724 53.0852 194.446 53.0241 194.173 52.902C193.903 52.7798 193.679 52.5938 193.5 52.3438C193.324 52.0938 193.235 51.7784 193.235 51.3977V44.8864ZM199.826 53.1364C199.195 53.1364 198.651 52.9972 198.194 52.7188C197.739 52.4375 197.388 52.0455 197.141 51.5426C196.897 51.0369 196.775 50.4489 196.775 49.7784C196.775 49.108 196.897 48.517 197.141 48.0057C197.388 47.4915 197.732 47.0909 198.172 46.804C198.615 46.5142 199.132 46.3693 199.723 46.3693C200.064 46.3693 200.401 46.4261 200.733 46.5398C201.066 46.6534 201.368 46.8381 201.641 47.0938C201.914 47.3466 202.131 47.6818 202.293 48.0994C202.455 48.517 202.536 49.0312 202.536 49.642V50.0682H197.49V49.1989H201.513C201.513 48.8295 201.439 48.5 201.292 48.2102C201.147 47.9205 200.939 47.6918 200.669 47.5241C200.402 47.3565 200.087 47.2727 199.723 47.2727C199.323 47.2727 198.976 47.3722 198.684 47.571C198.394 47.767 198.171 48.0227 198.015 48.3381C197.858 48.6534 197.78 48.9915 197.78 49.3523V49.9318C197.78 50.4261 197.865 50.8452 198.036 51.1889C198.209 51.5298 198.449 51.7898 198.756 51.9688C199.063 52.1449 199.419 52.233 199.826 52.233C200.09 52.233 200.329 52.196 200.542 52.1222C200.757 52.0455 200.944 51.9318 201.1 51.7812C201.256 51.6278 201.377 51.4375 201.462 51.2102L202.434 51.483C202.331 51.8125 202.159 52.1023 201.918 52.3523C201.677 52.5994 201.378 52.7926 201.023 52.9318C200.668 53.0682 200.269 53.1364 199.826 53.1364ZM205.071 49.0625V53H204.066V46.4545H205.037V47.4773H205.123C205.276 47.1449 205.509 46.8778 205.821 46.6761C206.134 46.4716 206.537 46.3693 207.032 46.3693C207.475 46.3693 207.863 46.4602 208.195 46.642C208.527 46.821 208.786 47.0938 208.971 47.4602C209.155 47.8239 209.248 48.2841 209.248 48.8409V53H208.242V48.9091C208.242 48.3949 208.108 47.9943 207.841 47.7074C207.574 47.4176 207.208 47.2727 206.742 47.2727C206.421 47.2727 206.134 47.3423 205.881 47.4815C205.631 47.6207 205.434 47.8239 205.289 48.0909C205.144 48.358 205.071 48.6818 205.071 49.0625ZM214.46 53V46.4545H215.466V53H214.46ZM214.972 45.3636C214.776 45.3636 214.607 45.2969 214.465 45.1634C214.325 45.0298 214.256 44.8693 214.256 44.6818C214.256 44.4943 214.325 44.3338 214.465 44.2003C214.607 44.0668 214.776 44 214.972 44C215.168 44 215.335 44.0668 215.474 44.2003C215.616 44.3338 215.688 44.4943 215.688 44.6818C215.688 44.8693 215.616 45.0298 215.474 45.1634C215.335 45.2969 215.168 45.3636 214.972 45.3636ZM218.314 49.0625V53H217.308V46.4545H218.279V47.4773H218.365C218.518 47.1449 218.751 46.8778 219.064 46.6761C219.376 46.4716 219.779 46.3693 220.274 46.3693C220.717 46.3693 221.105 46.4602 221.437 46.642C221.77 46.821 222.028 47.0938 222.213 47.4602C222.397 47.8239 222.49 48.2841 222.49 48.8409V53H221.484V48.9091C221.484 48.3949 221.351 47.9943 221.083 47.7074C220.816 47.4176 220.45 47.2727 219.984 47.2727C219.663 47.2727 219.376 47.3423 219.123 47.4815C218.873 47.6207 218.676 47.8239 218.531 48.0909C218.386 48.358 218.314 48.6818 218.314 49.0625ZM227.839 53V44.2727H230.788C231.469 44.2727 232.029 44.3892 232.467 44.6222C232.904 44.8523 233.228 45.169 233.438 45.5724C233.648 45.9759 233.754 46.4347 233.754 46.9489C233.754 47.4631 233.648 47.919 233.438 48.3168C233.228 48.7145 232.906 49.027 232.471 49.2543C232.036 49.4787 231.481 49.5909 230.805 49.5909H228.418V48.6364H230.771C231.237 48.6364 231.612 48.5682 231.896 48.4318C232.183 48.2955 232.39 48.1023 232.518 47.8523C232.648 47.5994 232.714 47.2983 232.714 46.9489C232.714 46.5994 232.648 46.294 232.518 46.0327C232.387 45.7713 232.178 45.5696 231.891 45.4276C231.604 45.2827 231.225 45.2102 230.754 45.2102H228.896V53H227.839ZM231.947 49.0795L234.094 53H232.867L230.754 49.0795H231.947ZM239.503 50.3239V46.4545H240.509V53H239.503V51.892H239.435C239.282 52.2244 239.043 52.5071 238.719 52.7401C238.395 52.9702 237.986 53.0852 237.492 53.0852C237.083 53.0852 236.719 52.9957 236.401 52.8168C236.083 52.6349 235.833 52.3622 235.651 51.9986C235.469 51.6321 235.378 51.1705 235.378 50.6136V46.4545H236.384V50.5455C236.384 51.0227 236.517 51.4034 236.784 51.6875C237.054 51.9716 237.398 52.1136 237.816 52.1136C238.066 52.1136 238.32 52.0497 238.579 51.9219C238.84 51.794 239.059 51.598 239.235 51.3338C239.414 51.0696 239.503 50.733 239.503 50.3239ZM246.987 47.9205L246.084 48.1761C246.027 48.0256 245.943 47.8793 245.832 47.7372C245.724 47.5923 245.577 47.473 245.389 47.3793C245.202 47.2855 244.962 47.2386 244.669 47.2386C244.268 47.2386 243.935 47.331 243.668 47.5156C243.403 47.6974 243.271 47.929 243.271 48.2102C243.271 48.4602 243.362 48.6577 243.544 48.8026C243.726 48.9474 244.01 49.0682 244.396 49.1648L245.368 49.4034C245.953 49.5455 246.389 49.7628 246.676 50.0554C246.963 50.3452 247.107 50.7187 247.107 51.1761C247.107 51.5511 246.999 51.8864 246.783 52.1818C246.57 52.4773 246.271 52.7102 245.888 52.8807C245.504 53.0511 245.058 53.1364 244.55 53.1364C243.882 53.1364 243.33 52.9915 242.892 52.7017C242.455 52.4119 242.178 51.9886 242.061 51.4318L243.016 51.1932C243.107 51.5455 243.278 51.8097 243.531 51.9858C243.787 52.1619 244.121 52.25 244.533 52.25C245.001 52.25 245.374 52.1506 245.649 51.9517C245.928 51.75 246.067 51.5085 246.067 51.2273C246.067 51 245.987 50.8097 245.828 50.6562C245.669 50.5 245.425 50.3835 245.095 50.3068L244.004 50.0511C243.405 49.9091 242.965 49.6889 242.683 49.3906C242.405 49.0895 242.266 48.7131 242.266 48.2614C242.266 47.892 242.369 47.5653 242.577 47.2812C242.787 46.9972 243.072 46.7741 243.433 46.6122C243.797 46.4503 244.209 46.3693 244.669 46.3693C245.317 46.3693 245.825 46.5114 246.195 46.7955C246.567 47.0795 246.831 47.4545 246.987 47.9205ZM251.467 46.4545V47.3068H248.075V46.4545H251.467ZM249.064 44.8864H250.069V51.125C250.069 51.4091 250.11 51.6222 250.193 51.7642C250.278 51.9034 250.386 51.9972 250.517 52.0455C250.65 52.0909 250.791 52.1136 250.939 52.1136C251.049 52.1136 251.14 52.108 251.211 52.0966C251.282 52.0824 251.339 52.071 251.382 52.0625L251.586 52.9659C251.518 52.9915 251.423 53.017 251.301 53.0426C251.179 53.071 251.024 53.0852 250.836 53.0852C250.552 53.0852 250.274 53.0241 250.001 52.902C249.731 52.7798 249.507 52.5938 249.328 52.3438C249.152 52.0938 249.064 51.7784 249.064 51.3977V44.8864Z" fill="#768395"/>
<circle cx="18.2" cy="79" r="6" fill="#DEA584"/>
<circle cx="18.2" cy="79" r="5.5" stroke="white" stroke-opacity="0.14902"/>
<path d="M33.2568 83.5V74.7727H36.2056C36.8875 74.7727 37.4471 74.8892 37.8846 75.1222C38.3221 75.3523 38.646 75.669 38.8562 76.0724C39.0664 76.4759 39.1715 76.9347 39.1715 77.4489C39.1715 77.9631 39.0664 78.419 38.8562 78.8168C38.646 79.2145 38.3235 79.527 37.8889 79.7543C37.4542 79.9787 36.8988 80.0909 36.2227 80.0909H33.8363V79.1364H36.1886C36.6545 79.1364 37.0295 79.0682 37.3136 78.9318C37.6005 78.7955 37.8079 78.6023 37.9357 78.3523C38.0664 78.0994 38.1318 77.7983 38.1318 77.4489C38.1318 77.0994 38.0664 76.794 37.9357 76.5327C37.8051 76.2713 37.5963 76.0696 37.3093 75.9276C37.0224 75.7827 36.6431 75.7102 36.1715 75.7102H34.3136V83.5H33.2568ZM37.3647 79.5795L39.5125 83.5H38.2852L36.1715 79.5795H37.3647ZM44.9212 80.8239V76.9545H45.9269V83.5H44.9212V82.392H44.853C44.6996 82.7244 44.461 83.0071 44.1371 83.2401C43.8132 83.4702 43.4041 83.5852 42.9098 83.5852C42.5007 83.5852 42.1371 83.4957 41.8189 83.3168C41.5007 83.1349 41.2507 82.8622 41.0689 82.4986C40.8871 82.1321 40.7962 81.6705 40.7962 81.1136V76.9545H41.8019V81.0455C41.8019 81.5227 41.9354 81.9034 42.2024 82.1875C42.4723 82.4716 42.8161 82.6136 43.2337 82.6136C43.4837 82.6136 43.7379 82.5497 43.9965 82.4219C44.2578 82.294 44.4766 82.098 44.6527 81.8338C44.8317 81.5696 44.9212 81.233 44.9212 80.8239ZM52.4052 78.4205L51.5018 78.6761C51.445 78.5256 51.3612 78.3793 51.2504 78.2372C51.1424 78.0923 50.9947 77.973 50.8072 77.8793C50.6197 77.7855 50.3796 77.7386 50.087 77.7386C49.6865 77.7386 49.3527 77.831 49.0856 78.0156C48.8214 78.1974 48.6893 78.429 48.6893 78.7102C48.6893 78.9602 48.7802 79.1577 48.962 79.3026C49.1438 79.4474 49.4279 79.5682 49.8143 79.6648L50.7859 79.9034C51.3711 80.0455 51.8072 80.2628 52.0941 80.5554C52.3811 80.8452 52.5245 81.2187 52.5245 81.6761C52.5245 82.0511 52.4166 82.3864 52.2007 82.6818C51.9876 82.9773 51.6893 83.2102 51.3058 83.3807C50.9223 83.5511 50.4762 83.6364 49.9677 83.6364C49.3001 83.6364 48.7475 83.4915 48.31 83.2017C47.8725 82.9119 47.5955 82.4886 47.4791 81.9318L48.4336 81.6932C48.5245 82.0455 48.6964 82.3097 48.9492 82.4858C49.2049 82.6619 49.5387 82.75 49.9507 82.75C50.4194 82.75 50.7916 82.6506 51.0671 82.4517C51.3455 82.25 51.4848 82.0085 51.4848 81.7273C51.4848 81.5 51.4052 81.3097 51.2461 81.1562C51.087 81 50.8427 80.8835 50.5132 80.8068L49.4223 80.5511C48.8228 80.4091 48.3825 80.1889 48.1012 79.8906C47.8228 79.5895 47.6836 79.2131 47.6836 78.7614C47.6836 78.392 47.7873 78.0653 47.9947 77.7812C48.2049 77.4972 48.4904 77.2741 48.8512 77.1122C49.2149 76.9503 49.6268 76.8693 50.087 76.8693C50.7348 76.8693 51.2433 77.0114 51.6126 77.2955C51.9848 77.5795 52.249 77.9545 52.4052 78.4205ZM56.885 76.9545V77.8068H53.4929V76.9545H56.885ZM54.4816 75.3864H55.4872V81.625C55.4872 81.9091 55.5284 82.1222 55.6108 82.2642C55.696 82.4034 55.804 82.4972 55.9347 82.5455C56.0682 82.5909 56.2088 82.6136 56.3566 82.6136C56.4674 82.6136 56.5583 82.608 56.6293 82.5966C56.7003 82.5824 56.7571 82.571 56.7997 82.5625L57.0043 83.4659C56.9361 83.4915 56.8409 83.517 56.7188 83.5426C56.5966 83.571 56.4418 83.5852 56.2543 83.5852C55.9702 83.5852 55.6918 83.5241 55.4191 83.402C55.1492 83.2798 54.9247 83.0938 54.7458 82.8438C54.5696 82.5938 54.4816 82.2784 54.4816 81.8977V75.3864Z" fill="#768395"/>
<rect x="70.2" y="68" width="93" height="22" rx="11" fill="#388BFD" fill-opacity="0.101961"/>
<path d="M81.2568 83.5V74.7727H84.2056C84.8903 74.7727 85.45 74.8963 85.8846 75.1435C86.3221 75.3878 86.646 75.7188 86.8562 76.1364C87.0664 76.554 87.1715 77.0199 87.1715 77.5341C87.1715 78.0483 87.0664 78.5156 86.8562 78.9361C86.6488 79.3565 86.3278 79.6918 85.8931 79.9418C85.4585 80.1889 84.9017 80.3125 84.2227 80.3125H82.109V79.375H84.1886C84.6573 79.375 85.0338 79.294 85.3178 79.1321C85.6019 78.9702 85.8079 78.7514 85.9357 78.4759C86.0664 78.1974 86.1318 77.8835 86.1318 77.5341C86.1318 77.1847 86.0664 76.8722 85.9357 76.5966C85.8079 76.321 85.6005 76.1051 85.3136 75.9489C85.0267 75.7898 84.646 75.7102 84.1715 75.7102H82.3136V83.5H81.2568ZM91.4116 83.6364C90.7809 83.6364 90.2369 83.4972 89.7795 83.2188C89.325 82.9375 88.9741 82.5455 88.7269 82.0426C88.4826 81.5369 88.3605 80.9489 88.3605 80.2784C88.3605 79.608 88.4826 79.017 88.7269 78.5057C88.9741 77.9915 89.3178 77.5909 89.7582 77.304C90.2014 77.0142 90.7184 76.8693 91.3093 76.8693C91.6502 76.8693 91.9869 76.9261 92.3193 77.0398C92.6517 77.1534 92.9542 77.3381 93.2269 77.5938C93.4997 77.8466 93.717 78.1818 93.8789 78.5994C94.0409 79.017 94.1218 79.5312 94.1218 80.142V80.5682H89.0764V79.6989H93.0991C93.0991 79.3295 93.0252 79 92.8775 78.7102C92.7326 78.4205 92.5252 78.1918 92.2553 78.0241C91.9883 77.8565 91.673 77.7727 91.3093 77.7727C90.9088 77.7727 90.5622 77.8722 90.2696 78.071C89.9798 78.267 89.7568 78.5227 89.6005 78.8381C89.4443 79.1534 89.3661 79.4915 89.3661 79.8523V80.4318C89.3661 80.9261 89.4514 81.3452 89.6218 81.6889C89.7951 82.0298 90.0352 82.2898 90.342 82.4688C90.6488 82.6449 91.0053 82.733 91.4116 82.733C91.6758 82.733 91.9144 82.696 92.1275 82.6222C92.3434 82.5455 92.5295 82.4318 92.6857 82.2812C92.842 82.1278 92.9627 81.9375 93.048 81.7102L94.0196 81.983C93.9173 82.3125 93.7454 82.6023 93.5039 82.8523C93.2625 83.0994 92.9642 83.2926 92.609 83.4318C92.2539 83.5682 91.8548 83.6364 91.4116 83.6364ZM95.6517 83.5V76.9545H96.6232V77.9432H96.6914C96.8107 77.6193 97.0267 77.3565 97.3392 77.1548C97.6517 76.9531 98.0039 76.8523 98.396 76.8523C98.4698 76.8523 98.5622 76.8537 98.673 76.8565C98.7838 76.8594 98.8676 76.8636 98.9244 76.8693V77.892C98.8903 77.8835 98.8122 77.8707 98.69 77.8537C98.5707 77.8338 98.4443 77.8239 98.3107 77.8239C97.9926 77.8239 97.7085 77.8906 97.4585 78.0241C97.2113 78.1548 97.0153 78.3366 96.8704 78.5696C96.7284 78.7997 96.6573 79.0625 96.6573 79.358V83.5H95.6517ZM103.441 76.9545V77.8068H99.913V76.9545H103.441ZM100.97 83.5V76.0511C100.97 75.6761 101.058 75.3636 101.234 75.1136C101.41 74.8636 101.639 74.6761 101.92 74.5511C102.201 74.4261 102.498 74.3636 102.811 74.3636C103.058 74.3636 103.26 74.3835 103.416 74.4233C103.572 74.4631 103.689 74.5 103.765 74.5341L103.476 75.4034C103.424 75.3864 103.353 75.3651 103.262 75.3395C103.174 75.3139 103.058 75.3011 102.913 75.3011C102.581 75.3011 102.341 75.3849 102.193 75.5526C102.048 75.7202 101.976 75.9659 101.976 76.2898V83.5H100.97ZM107.24 83.6364C106.65 83.6364 106.131 83.4957 105.685 83.2145C105.242 82.9332 104.895 82.5398 104.645 82.0341C104.398 81.5284 104.275 80.9375 104.275 80.2614C104.275 79.5795 104.398 78.9844 104.645 78.4759C104.895 77.9673 105.242 77.5724 105.685 77.2912C106.131 77.0099 106.65 76.8693 107.24 76.8693C107.831 76.8693 108.348 77.0099 108.792 77.2912C109.238 77.5724 109.584 77.9673 109.831 78.4759C110.081 78.9844 110.206 79.5795 110.206 80.2614C110.206 80.9375 110.081 81.5284 109.831 82.0341C109.584 82.5398 109.238 82.9332 108.792 83.2145C108.348 83.4957 107.831 83.6364 107.24 83.6364ZM107.24 82.733C107.689 82.733 108.059 82.6179 108.348 82.3878C108.638 82.1577 108.853 81.8551 108.992 81.4801C109.131 81.1051 109.201 80.6989 109.201 80.2614C109.201 79.8239 109.131 79.4162 108.992 79.0384C108.853 78.6605 108.638 78.3551 108.348 78.1222C108.059 77.8892 107.689 77.7727 107.24 77.7727C106.792 77.7727 106.422 77.8892 106.132 78.1222C105.843 78.3551 105.628 78.6605 105.489 79.0384C105.35 79.4162 105.28 79.8239 105.28 80.2614C105.28 80.6989 105.35 81.1051 105.489 81.4801C105.628 81.8551 105.843 82.1577 106.132 82.3878C106.422 82.6179 106.792 82.733 107.24 82.733ZM111.741 83.5V76.9545H112.713V77.9432H112.781C112.901 77.6193 113.116 77.3565 113.429 77.1548C113.741 76.9531 114.094 76.8523 114.486 76.8523C114.56 76.8523 114.652 76.8537 114.763 76.8565C114.874 76.8594 114.957 76.8636 115.014 76.8693V77.892C114.98 77.8835 114.902 77.8707 114.78 77.8537C114.661 77.8338 114.534 77.8239 114.401 77.8239C114.082 77.8239 113.798 77.8906 113.548 78.0241C113.301 78.1548 113.105 78.3366 112.96 78.5696C112.818 78.7997 112.747 79.0625 112.747 79.358V83.5H111.741ZM116.206 83.5V76.9545H117.178V77.9773H117.263C117.4 77.6278 117.62 77.3565 117.924 77.1634C118.228 76.9673 118.593 76.8693 119.019 76.8693C119.451 76.8693 119.81 76.9673 120.097 77.1634C120.387 77.3565 120.613 77.6278 120.775 77.9773H120.843C121.01 77.6392 121.262 77.3707 121.597 77.1719C121.932 76.9702 122.334 76.8693 122.803 76.8693C123.388 76.8693 123.867 77.0526 124.239 77.419C124.611 77.7827 124.797 78.3494 124.797 79.1193V83.5H123.792V79.1193C123.792 78.6364 123.659 78.2912 123.395 78.0838C123.131 77.8764 122.82 77.7727 122.462 77.7727C122.002 77.7727 121.645 77.9119 121.392 78.1903C121.14 78.4659 121.013 78.8153 121.013 79.2386V83.5H119.99V79.017C119.99 78.6449 119.87 78.3452 119.628 78.1179C119.387 77.8878 119.076 77.7727 118.695 77.7727C118.434 77.7727 118.189 77.8423 117.962 77.9815C117.738 78.1207 117.556 78.3139 117.417 78.5611C117.28 78.8054 117.212 79.0881 117.212 79.4091V83.5H116.206ZM128.562 83.6534C128.147 83.6534 127.771 83.5753 127.433 83.419C127.095 83.2599 126.826 83.0312 126.628 82.733C126.429 82.4318 126.329 82.0682 126.329 81.642C126.329 81.267 126.403 80.9631 126.551 80.7301C126.699 80.4943 126.896 80.3097 127.143 80.1761C127.39 80.0426 127.663 79.9432 127.961 79.8778C128.262 79.8097 128.565 79.7557 128.869 79.7159C129.267 79.6648 129.589 79.6264 129.836 79.6009C130.086 79.5724 130.268 79.5256 130.382 79.4602C130.498 79.3949 130.556 79.2812 130.556 79.1193V79.0852C130.556 78.6648 130.441 78.3381 130.211 78.1051C129.984 77.8722 129.639 77.7557 129.176 77.7557C128.696 77.7557 128.319 77.8608 128.047 78.071C127.774 78.2812 127.582 78.5057 127.471 78.7443L126.517 78.4034C126.687 78.0057 126.914 77.696 127.199 77.4744C127.485 77.25 127.798 77.0937 128.136 77.0057C128.477 76.9148 128.812 76.8693 129.142 76.8693C129.352 76.8693 129.593 76.8949 129.866 76.946C130.142 76.9943 130.407 77.0952 130.663 77.2486C130.922 77.402 131.136 77.6335 131.306 77.9432C131.477 78.2528 131.562 78.6676 131.562 79.1875V83.5H130.556V82.6136H130.505C130.437 82.7557 130.324 82.9077 130.164 83.0696C130.005 83.2315 129.794 83.3693 129.529 83.483C129.265 83.5966 128.943 83.6534 128.562 83.6534ZM128.716 82.75C129.113 82.75 129.449 82.6719 129.721 82.5156C129.997 82.3594 130.204 82.1577 130.343 81.9105C130.485 81.6634 130.556 81.4034 130.556 81.1307V80.2102C130.514 80.2614 130.42 80.3082 130.275 80.3509C130.133 80.3906 129.968 80.4261 129.781 80.4574C129.596 80.4858 129.416 80.5114 129.24 80.5341C129.066 80.554 128.926 80.571 128.818 80.5852C128.556 80.6193 128.312 80.6747 128.085 80.7514C127.86 80.8253 127.679 80.9375 127.539 81.0881C127.403 81.2358 127.335 81.4375 127.335 81.6932C127.335 82.0426 127.464 82.3068 127.723 82.4858C127.984 82.6619 128.315 82.75 128.716 82.75ZM134.403 79.5625V83.5H133.398V76.9545H134.369V77.9773H134.455C134.608 77.6449 134.841 77.3778 135.153 77.1761C135.466 76.9716 135.869 76.8693 136.364 76.8693C136.807 76.8693 137.195 76.9602 137.527 77.142C137.859 77.321 138.118 77.5938 138.303 77.9602C138.487 78.3239 138.58 78.7841 138.58 79.3409V83.5H137.574V79.4091C137.574 78.8949 137.44 78.4943 137.173 78.2074C136.906 77.9176 136.54 77.7727 136.074 77.7727C135.753 77.7727 135.466 77.8423 135.213 77.9815C134.963 78.1207 134.766 78.3239 134.621 78.5909C134.476 78.858 134.403 79.1818 134.403 79.5625ZM143.076 83.6364C142.463 83.6364 141.934 83.4915 141.491 83.2017C141.048 82.9119 140.707 82.5128 140.468 82.0043C140.23 81.4957 140.11 80.9148 140.11 80.2614C140.11 79.5966 140.233 79.0099 140.477 78.5014C140.724 77.9901 141.068 77.5909 141.508 77.304C141.951 77.0142 142.468 76.8693 143.059 76.8693C143.52 76.8693 143.934 76.9545 144.304 77.125C144.673 77.2955 144.976 77.5341 145.211 77.8409C145.447 78.1477 145.593 78.5057 145.65 78.9148H144.645C144.568 78.6165 144.397 78.3523 144.133 78.1222C143.872 77.8892 143.52 77.7727 143.076 77.7727C142.684 77.7727 142.341 77.875 142.045 78.0795C141.753 78.2812 141.524 78.5668 141.359 78.9361C141.197 79.3026 141.116 79.733 141.116 80.2273C141.116 80.733 141.196 81.1733 141.355 81.5483C141.517 81.9233 141.744 82.2145 142.037 82.4219C142.332 82.6293 142.679 82.733 143.076 82.733C143.338 82.733 143.575 82.6875 143.788 82.5966C144.001 82.5057 144.181 82.375 144.329 82.2045C144.477 82.0341 144.582 81.8295 144.645 81.5909H145.65C145.593 81.9773 145.453 82.3253 145.228 82.6349C145.007 82.9418 144.713 83.1861 144.346 83.3679C143.983 83.5469 143.559 83.6364 143.076 83.6364ZM149.865 83.6364C149.234 83.6364 148.69 83.4972 148.233 83.2188C147.778 82.9375 147.427 82.5455 147.18 82.0426C146.936 81.5369 146.814 80.9489 146.814 80.2784C146.814 79.608 146.936 79.017 147.18 78.5057C147.427 77.9915 147.771 77.5909 148.211 77.304C148.654 77.0142 149.172 76.8693 149.762 76.8693C150.103 76.8693 150.44 76.9261 150.772 77.0398C151.105 77.1534 151.407 77.3381 151.68 77.5938C151.953 77.8466 152.17 78.1818 152.332 78.5994C152.494 79.017 152.575 79.5312 152.575 80.142V80.5682H147.529V79.6989H151.552C151.552 79.3295 151.478 79 151.331 78.7102C151.186 78.4205 150.978 78.1918 150.708 78.0241C150.441 77.8565 150.126 77.7727 149.762 77.7727C149.362 77.7727 149.015 77.8722 148.723 78.071C148.433 78.267 148.21 78.5227 148.054 78.8381C147.897 79.1534 147.819 79.4915 147.819 79.8523V80.4318C147.819 80.9261 147.904 81.3452 148.075 81.6889C148.248 82.0298 148.488 82.2898 148.795 82.4688C149.102 82.6449 149.458 82.733 149.865 82.733C150.129 82.733 150.368 82.696 150.581 82.6222C150.797 82.5455 150.983 82.4318 151.139 82.2812C151.295 82.1278 151.416 81.9375 151.501 81.7102L152.473 81.983C152.37 82.3125 152.199 82.6023 151.957 82.8523C151.716 83.0994 151.417 83.2926 151.062 83.4318C150.707 83.5682 150.308 83.6364 149.865 83.6364Z" fill="#4493F8"/>
</svg>
