<svg width="384" height="118" viewBox="0 0 384 118" fill="none" xmlns="http://www.w3.org/2000/svg">
<rect width="383.2" height="102" rx="6" fill="#768395" fill-opacity="0.1"/>
<path d="M18.5376 18.6172C18.4912 18.183 18.2957 17.8449 17.951 17.603C17.6096 17.361 17.1655 17.2401 16.6186 17.2401C16.2341 17.2401 15.9044 17.2981 15.6293 17.4141C15.3542 17.5301 15.1437 17.6875 14.9979 17.8864C14.852 18.0852 14.7775 18.3123 14.7741 18.5675C14.7741 18.7796 14.8222 18.9635 14.9183 19.1193C15.0178 19.2751 15.152 19.4077 15.321 19.517C15.4901 19.6231 15.6773 19.7126 15.8828 19.7855C16.0883 19.8584 16.2955 19.9197 16.5043 19.9695L17.4588 20.2081C17.8433 20.2976 18.2128 20.4186 18.5675 20.571C18.9254 20.7235 19.2453 20.9157 19.527 21.1477C19.812 21.3797 20.0374 21.6598 20.2031 21.9879C20.3688 22.3161 20.4517 22.7005 20.4517 23.1413C20.4517 23.7379 20.2992 24.2633 19.9943 24.7173C19.6894 25.1681 19.2486 25.5211 18.6719 25.7763C18.0985 26.0282 17.4041 26.1541 16.5888 26.1541C15.7966 26.1541 15.1089 26.0315 14.5256 25.7862C13.9455 25.541 13.4915 25.183 13.1634 24.7124C12.8385 24.2417 12.6629 23.6683 12.6364 22.9922H14.451C14.4775 23.3468 14.5869 23.6418 14.7791 23.8771C14.9714 24.1125 15.2216 24.2881 15.5298 24.4041C15.8414 24.5201 16.1894 24.5781 16.5739 24.5781C16.9749 24.5781 17.3262 24.5185 17.6278 24.3991C17.9328 24.2765 18.1714 24.1075 18.3438 23.892C18.5161 23.6733 18.6039 23.4181 18.6072 23.1264C18.6039 22.8613 18.526 22.6425 18.3736 22.4702C18.2211 22.2945 18.0073 22.1487 17.7322 22.0327C17.4605 21.9134 17.1423 21.8073 16.7777 21.7145L15.6193 21.4162C14.7808 21.2008 14.1179 20.8743 13.6307 20.4368C13.1468 19.996 12.9048 19.411 12.9048 18.6818C12.9048 18.0819 13.0672 17.5566 13.392 17.1058C13.7202 16.6551 14.166 16.3054 14.7294 16.0568C15.2929 15.8049 15.9309 15.679 16.6435 15.679C17.366 15.679 17.9991 15.8049 18.5426 16.0568C19.0895 16.3054 19.5187 16.6518 19.8303 17.0959C20.1418 17.5367 20.3026 18.0438 20.3125 18.6172H18.5376ZM26.8837 22.7884V18.3636H28.6834V26H26.9384V24.6428H26.8588C26.6865 25.0703 26.4031 25.42 26.0087 25.6918C25.6176 25.9635 25.1354 26.0994 24.562 26.0994C24.0615 26.0994 23.619 25.9884 23.2346 25.7663C22.8534 25.541 22.5551 25.2145 22.3397 24.7869C22.1242 24.3561 22.0165 23.8357 22.0165 23.2259V18.3636H23.8162V22.9474C23.8162 23.4313 23.9488 23.8158 24.214 24.1009C24.4791 24.3859 24.8271 24.5284 25.258 24.5284C25.5231 24.5284 25.78 24.4638 26.0286 24.3345C26.2772 24.2053 26.481 24.013 26.6401 23.7578C26.8025 23.4993 26.8837 23.1761 26.8837 22.7884ZM33.3679 26.1342C32.768 26.1342 32.2311 25.9801 31.7571 25.6719C31.2831 25.3636 30.9086 24.9162 30.6335 24.3295C30.3584 23.7429 30.2209 23.0303 30.2209 22.1918C30.2209 21.3433 30.3601 20.6274 30.6385 20.044C30.9202 19.4574 31.2997 19.0149 31.777 18.7166C32.2543 18.415 32.7862 18.2642 33.3729 18.2642C33.8203 18.2642 34.1882 18.3404 34.4766 18.4929C34.7649 18.642 34.9936 18.8227 35.1626 19.0348C35.3317 19.2436 35.4626 19.4408 35.5554 19.6264H35.63V15.8182H37.4347V26H35.6648V24.7969H35.5554C35.4626 24.9825 35.3284 25.1797 35.1527 25.3885C34.977 25.594 34.745 25.7696 34.4567 25.9155C34.1683 26.0613 33.8054 26.1342 33.3679 26.1342ZM33.87 24.6577C34.2512 24.6577 34.576 24.5549 34.8445 24.3494C35.1129 24.1406 35.3168 23.8506 35.456 23.4794C35.5952 23.1082 35.6648 22.6757 35.6648 22.1818C35.6648 21.688 35.5952 21.2588 35.456 20.8942C35.3201 20.5296 35.1179 20.2462 34.8494 20.044C34.5843 19.8419 34.2578 19.7408 33.87 19.7408C33.469 19.7408 33.1342 19.8452 32.8658 20.054C32.5973 20.2628 32.3951 20.5511 32.2592 20.919C32.1233 21.2869 32.0554 21.7079 32.0554 22.1818C32.0554 22.6591 32.1233 23.085 32.2592 23.4595C32.3984 23.8307 32.6023 24.1241 32.8707 24.3395C33.1425 24.5516 33.4756 24.6577 33.87 24.6577ZM42.6834 26.1491C41.9377 26.1491 41.2914 25.9851 40.7445 25.657C40.1976 25.3288 39.7734 24.8698 39.4718 24.2798C39.1735 23.6899 39.0243 23.0005 39.0243 22.2116C39.0243 21.4228 39.1735 20.7318 39.4718 20.1385C39.7734 19.5452 40.1976 19.0845 40.7445 18.7564C41.2914 18.4283 41.9377 18.2642 42.6834 18.2642C43.4292 18.2642 44.0755 18.4283 44.6223 18.7564C45.1692 19.0845 45.5918 19.5452 45.8901 20.1385C46.1917 20.7318 46.3425 21.4228 46.3425 22.2116C46.3425 23.0005 46.1917 23.6899 45.8901 24.2798C45.5918 24.8698 45.1692 25.3288 44.6223 25.657C44.0755 25.9851 43.4292 26.1491 42.6834 26.1491ZM42.6934 24.7074C43.0977 24.7074 43.4358 24.5964 43.7076 24.3743C43.9793 24.1489 44.1815 23.8473 44.3141 23.4695C44.45 23.0916 44.5179 22.6707 44.5179 22.2067C44.5179 21.7393 44.45 21.3168 44.3141 20.9389C44.1815 20.5578 43.9793 20.2545 43.7076 20.0291C43.4358 19.8037 43.0977 19.6911 42.6934 19.6911C42.2791 19.6911 41.9344 19.8037 41.6593 20.0291C41.3875 20.2545 41.1837 20.5578 41.0478 20.9389C40.9152 21.3168 40.8489 21.7393 40.8489 22.2067C40.8489 22.6707 40.9152 23.0916 41.0478 23.4695C41.1837 23.8473 41.3875 24.1489 41.6593 24.3743C41.9344 24.5964 42.2791 24.7074 42.6934 24.7074ZM49.5107 23.6037L49.5057 21.4311H49.794L52.5384 18.3636H54.6413L51.2656 22.1222H50.8928L49.5107 23.6037ZM47.87 26V15.8182H49.6697V26H47.87ZM52.6626 26L50.1768 22.5249L51.3899 21.2571L54.8153 26H52.6626ZM60.7079 22.7884V18.3636H62.5076V26H60.7626V24.6428H60.6831C60.5107 25.0703 60.2273 25.42 59.8329 25.6918C59.4418 25.9635 58.9596 26.0994 58.3862 26.0994C57.8857 26.0994 57.4432 25.9884 57.0588 25.7663C56.6776 25.541 56.3793 25.2145 56.1639 24.7869C55.9484 24.3561 55.8407 23.8357 55.8407 23.2259V18.3636H57.6404V22.9474C57.6404 23.4313 57.773 23.8158 58.0382 24.1009C58.3033 24.3859 58.6513 24.5284 59.0822 24.5284C59.3474 24.5284 59.6042 24.4638 59.8528 24.3345C60.1014 24.2053 60.3052 24.013 60.4643 23.7578C60.6267 23.4993 60.7079 23.1761 60.7079 22.7884ZM73.4439 18.6172C73.3975 18.183 73.2019 17.8449 72.8572 17.603C72.5159 17.361 72.0717 17.2401 71.5249 17.2401C71.1404 17.2401 70.8106 17.2981 70.5355 17.4141C70.2604 17.5301 70.05 17.6875 69.9041 17.8864C69.7583 18.0852 69.6837 18.3123 69.6804 18.5675C69.6804 18.7796 69.7285 18.9635 69.8246 19.1193C69.924 19.2751 70.0582 19.4077 70.2273 19.517C70.3963 19.6231 70.5836 19.7126 70.7891 19.7855C70.9946 19.8584 71.2017 19.9197 71.4105 19.9695L72.3651 20.2081C72.7495 20.2976 73.1191 20.4186 73.4737 20.571C73.8317 20.7235 74.1515 20.9157 74.4332 21.1477C74.7183 21.3797 74.9437 21.6598 75.1094 21.9879C75.2751 22.3161 75.358 22.7005 75.358 23.1413C75.358 23.7379 75.2055 24.2633 74.9006 24.7173C74.5956 25.1681 74.1548 25.5211 73.5781 25.7763C73.0047 26.0282 72.3104 26.1541 71.495 26.1541C70.7029 26.1541 70.0152 26.0315 69.4318 25.7862C68.8518 25.541 68.3977 25.183 68.0696 24.7124C67.7448 24.2417 67.5691 23.6683 67.5426 22.9922H69.3572C69.3838 23.3468 69.4931 23.6418 69.6854 23.8771C69.8776 24.1125 70.1278 24.2881 70.4361 24.4041C70.7476 24.5201 71.0956 24.5781 71.4801 24.5781C71.8812 24.5781 72.2325 24.5185 72.5341 24.3991C72.839 24.2765 73.0777 24.1075 73.25 23.892C73.4223 23.6733 73.5102 23.4181 73.5135 23.1264C73.5102 22.8613 73.4323 22.6425 73.2798 22.4702C73.1274 22.2945 72.9136 22.1487 72.6385 22.0327C72.3667 21.9134 72.0485 21.8073 71.6839 21.7145L70.5256 21.4162C69.687 21.2008 69.0241 20.8743 68.5369 20.4368C68.053 19.996 67.8111 19.411 67.8111 18.6818C67.8111 18.0819 67.9735 17.5566 68.2983 17.1058C68.6264 16.6551 69.0722 16.3054 69.6357 16.0568C70.1991 15.8049 70.8371 15.679 71.5497 15.679C72.2723 15.679 72.9053 15.8049 73.4489 16.0568C73.9957 16.3054 74.425 16.6518 74.7365 17.0959C75.0481 17.5367 75.2088 18.0438 75.2188 18.6172H73.4439ZM80.2537 26.1491C79.508 26.1491 78.8617 25.9851 78.3148 25.657C77.7679 25.3288 77.3437 24.8698 77.0421 24.2798C76.7438 23.6899 76.5946 23.0005 76.5946 22.2116C76.5946 21.4228 76.7438 20.7318 77.0421 20.1385C77.3437 19.5452 77.7679 19.0845 78.3148 18.7564C78.8617 18.4283 79.508 18.2642 80.2537 18.2642C80.9995 18.2642 81.6458 18.4283 82.1926 18.7564C82.7395 19.0845 83.1621 19.5452 83.4604 20.1385C83.762 20.7318 83.9128 21.4228 83.9128 22.2116C83.9128 23.0005 83.762 23.6899 83.4604 24.2798C83.1621 24.8698 82.7395 25.3288 82.1926 25.657C81.6458 25.9851 80.9995 26.1491 80.2537 26.1491ZM80.2637 24.7074C80.668 24.7074 81.0061 24.5964 81.2779 24.3743C81.5497 24.1489 81.7518 23.8473 81.8844 23.4695C82.0203 23.0916 82.0882 22.6707 82.0882 22.2067C82.0882 21.7393 82.0203 21.3168 81.8844 20.9389C81.7518 20.5578 81.5497 20.2545 81.2779 20.0291C81.0061 19.8037 80.668 19.6911 80.2637 19.6911C79.8494 19.6911 79.5047 19.8037 79.2296 20.0291C78.9578 20.2545 78.754 20.5578 78.6181 20.9389C78.4855 21.3168 78.4192 21.7393 78.4192 22.2067C78.4192 22.6707 78.4855 23.0916 78.6181 23.4695C78.754 23.8473 78.9578 24.1489 79.2296 24.3743C79.5047 24.5964 79.8494 24.7074 80.2637 24.7074ZM87.2401 15.8182V26H85.4403V15.8182H87.2401ZM95.9118 18.3636L93.1923 26H91.2037L88.4842 18.3636H90.4032L92.1582 24.0362H92.2377L93.9977 18.3636H95.9118ZM100.278 26.1491C99.5124 26.1491 98.8512 25.9901 98.2944 25.6719C97.7409 25.3504 97.315 24.8963 97.0167 24.3097C96.7184 23.7197 96.5692 23.0253 96.5692 22.2266C96.5692 21.4411 96.7184 20.7517 97.0167 20.1584C97.3183 19.5618 97.7392 19.0978 98.2795 18.7663C98.8197 18.4316 99.4544 18.2642 100.184 18.2642C100.654 18.2642 101.098 18.3404 101.516 18.4929C101.937 18.642 102.308 18.8741 102.63 19.1889C102.954 19.5038 103.21 19.9048 103.395 20.392C103.581 20.8759 103.674 21.4527 103.674 22.1222V22.674H97.4144V21.4609H101.949C101.945 21.1162 101.871 20.8097 101.725 20.5412C101.579 20.2694 101.375 20.0556 101.113 19.8999C100.855 19.7441 100.553 19.6662 100.208 19.6662C99.8406 19.6662 99.5174 19.7557 99.239 19.9347C98.9606 20.1103 98.7435 20.3423 98.5877 20.6307C98.4353 20.9157 98.3574 21.2289 98.354 21.5703V22.6293C98.354 23.0734 98.4353 23.4545 98.5977 23.7727C98.7601 24.0876 98.9871 24.3295 99.2788 24.4986C99.5704 24.6643 99.9118 24.7472 100.303 24.7472C100.565 24.7472 100.802 24.7107 101.014 24.6378C101.226 24.5616 101.41 24.4505 101.566 24.3047C101.721 24.1589 101.839 23.9782 101.919 23.7628L103.599 23.9517C103.493 24.3958 103.291 24.7836 102.993 25.1151C102.698 25.4432 102.32 25.6984 101.859 25.8807C101.398 26.0597 100.871 26.1491 100.278 26.1491ZM105.196 26V18.3636H106.941V19.6364H107.021C107.16 19.1955 107.399 18.8558 107.737 18.6172C108.078 18.3752 108.468 18.2543 108.905 18.2543C109.004 18.2543 109.115 18.2592 109.238 18.2692C109.364 18.2758 109.468 18.2874 109.551 18.304V19.9595C109.475 19.933 109.354 19.9098 109.188 19.8899C109.026 19.8667 108.869 19.8551 108.716 19.8551C108.388 19.8551 108.093 19.9264 107.831 20.0689C107.573 20.2081 107.369 20.402 107.22 20.6506C107.07 20.8991 106.996 21.1858 106.996 21.5107V26H105.196Z" fill="#4493F8"/>
<path d="M13.0568 53V44.2727H14.1136V52.0625H18.1705V53H13.0568ZM22.3295 53.1364C21.7386 53.1364 21.2202 52.9957 20.7741 52.7145C20.331 52.4332 19.9844 52.0398 19.7344 51.5341C19.4872 51.0284 19.3636 50.4375 19.3636 49.7614C19.3636 49.0795 19.4872 48.4844 19.7344 47.9759C19.9844 47.4673 20.331 47.0724 20.7741 46.7912C21.2202 46.5099 21.7386 46.3693 22.3295 46.3693C22.9205 46.3693 23.4375 46.5099 23.8807 46.7912C24.3267 47.0724 24.6733 47.4673 24.9205 47.9759C25.1705 48.4844 25.2955 49.0795 25.2955 49.7614C25.2955 50.4375 25.1705 51.0284 24.9205 51.5341C24.6733 52.0398 24.3267 52.4332 23.8807 52.7145C23.4375 52.9957 22.9205 53.1364 22.3295 53.1364ZM22.3295 52.233C22.7784 52.233 23.1477 52.1179 23.4375 51.8878C23.7273 51.6577 23.9418 51.3551 24.081 50.9801C24.2202 50.6051 24.2898 50.1989 24.2898 49.7614C24.2898 49.3239 24.2202 48.9162 24.081 48.5384C23.9418 48.1605 23.7273 47.8551 23.4375 47.6222C23.1477 47.3892 22.7784 47.2727 22.3295 47.2727C21.8807 47.2727 21.5114 47.3892 21.2216 47.6222C20.9318 47.8551 20.7173 48.1605 20.5781 48.5384C20.4389 48.9162 20.3693 49.3239 20.3693 49.7614C20.3693 50.1989 20.4389 50.6051 20.5781 50.9801C20.7173 51.3551 20.9318 51.6577 21.2216 51.8878C21.5114 52.1179 21.8807 52.233 22.3295 52.233ZM29.4727 55.5909C28.9869 55.5909 28.5692 55.5284 28.2198 55.4034C27.8704 55.2812 27.5792 55.1193 27.3462 54.9176C27.1161 54.7188 26.9329 54.5057 26.7965 54.2784L27.5977 53.7159C27.6886 53.8352 27.8036 53.9716 27.9428 54.125C28.082 54.2812 28.2724 54.4162 28.5138 54.5298C28.7582 54.6463 29.0778 54.7045 29.4727 54.7045C30.0011 54.7045 30.4371 54.5767 30.7809 54.321C31.1246 54.0653 31.2965 53.6648 31.2965 53.1193V51.7898H31.2113C31.1374 51.9091 31.0323 52.0568 30.896 52.233C30.7624 52.4062 30.5692 52.5611 30.3164 52.6974C30.0664 52.831 29.7283 52.8977 29.3022 52.8977C28.7738 52.8977 28.2994 52.7727 27.8789 52.5227C27.4613 52.2727 27.1303 51.9091 26.886 51.4318C26.6445 50.9545 26.5238 50.375 26.5238 49.6932C26.5238 49.0227 26.6417 48.4389 26.8775 47.9418C27.1133 47.4418 27.4414 47.0554 27.8619 46.7827C28.2823 46.5071 28.7681 46.3693 29.3192 46.3693C29.7454 46.3693 30.0835 46.4403 30.3335 46.5824C30.5863 46.7216 30.7795 46.8807 30.913 47.0597C31.0494 47.2358 31.1545 47.3807 31.2283 47.4943H31.3306V46.4545H32.3022V53.1875C32.3022 53.75 32.1744 54.2074 31.9187 54.5597C31.6658 54.9148 31.3249 55.1747 30.896 55.3395C30.4698 55.5071 29.9954 55.5909 29.4727 55.5909ZM29.4386 51.9943C29.842 51.9943 30.1829 51.902 30.4613 51.7173C30.7397 51.5327 30.9513 51.267 31.0962 50.9205C31.2411 50.5739 31.3136 50.1591 31.3136 49.6761C31.3136 49.2045 31.2425 48.7884 31.1005 48.4276C30.9585 48.0668 30.7482 47.7841 30.4698 47.5795C30.1914 47.375 29.8477 47.2727 29.4386 47.2727C29.0124 47.2727 28.6573 47.3807 28.3732 47.5966C28.092 47.8125 27.8803 48.1023 27.7383 48.4659C27.5991 48.8295 27.5295 49.233 27.5295 49.6761C27.5295 50.1307 27.6005 50.5327 27.7425 50.8821C27.8874 51.2287 28.1005 51.5014 28.3817 51.7003C28.6658 51.8963 29.0181 51.9943 29.4386 51.9943ZM34.1431 53V46.4545H35.1488V53H34.1431ZM34.6545 45.3636C34.4585 45.3636 34.2894 45.2969 34.1474 45.1634C34.0082 45.0298 33.9386 44.8693 33.9386 44.6818C33.9386 44.4943 34.0082 44.3338 34.1474 44.2003C34.2894 44.0668 34.4585 44 34.6545 44C34.8505 44 35.0181 44.0668 35.1573 44.2003C35.2994 44.3338 35.3704 44.4943 35.3704 44.6818C35.3704 44.8693 35.2994 45.0298 35.1573 45.1634C35.0181 45.2969 34.8505 45.3636 34.6545 45.3636ZM39.6499 53.1364C39.0362 53.1364 38.5078 52.9915 38.0646 52.7017C37.6214 52.4119 37.2805 52.0128 37.0419 51.5043C36.8033 50.9957 36.6839 50.4148 36.6839 49.7614C36.6839 49.0966 36.8061 48.5099 37.0504 48.0014C37.2976 47.4901 37.6413 47.0909 38.0817 46.804C38.5249 46.5142 39.0419 46.3693 39.6328 46.3693C40.093 46.3693 40.5078 46.4545 40.8771 46.625C41.2464 46.7955 41.549 47.0341 41.7848 47.3409C42.0206 47.6477 42.1669 48.0057 42.2237 48.4148H41.218C41.1413 48.1165 40.9709 47.8523 40.7067 47.6222C40.4453 47.3892 40.093 47.2727 39.6499 47.2727C39.2578 47.2727 38.9141 47.375 38.6186 47.5795C38.326 47.7812 38.0973 48.0668 37.9325 48.4361C37.7706 48.8026 37.6896 49.233 37.6896 49.7273C37.6896 50.233 37.7692 50.6733 37.9283 51.0483C38.0902 51.4233 38.3175 51.7145 38.6101 51.9219C38.9055 52.1293 39.2521 52.233 39.6499 52.233C39.9112 52.233 40.1484 52.1875 40.3615 52.0966C40.5746 52.0057 40.755 51.875 40.9027 51.7045C41.0504 51.5341 41.1555 51.3295 41.218 51.0909H42.2237C42.1669 51.4773 42.0263 51.8253 41.8018 52.1349C41.5803 52.4418 41.2862 52.6861 40.9197 52.8679C40.5561 53.0469 40.1328 53.1364 39.6499 53.1364ZM47.4439 48.7898V49.7273H43.6257V48.7898H47.4439ZM49.3498 53V44.2727H50.3555V47.4943H50.4407C50.5146 47.3807 50.6168 47.2358 50.7475 47.0597C50.881 46.8807 51.0714 46.7216 51.3185 46.5824C51.5685 46.4403 51.9066 46.3693 52.3327 46.3693C52.8839 46.3693 53.3697 46.5071 53.7901 46.7827C54.2106 47.0582 54.5387 47.4489 54.7745 47.9545C55.0103 48.4602 55.1282 49.0568 55.1282 49.7443C55.1282 50.4375 55.0103 51.0384 54.7745 51.5469C54.5387 52.0526 54.212 52.4446 53.7944 52.723C53.3768 52.9986 52.8952 53.1364 52.3498 53.1364C51.9293 53.1364 51.5927 53.0668 51.3398 52.9276C51.087 52.7855 50.8924 52.625 50.756 52.446C50.6197 52.2642 50.5146 52.1136 50.4407 51.9943H50.3214V53H49.3498ZM50.3384 49.7273C50.3384 50.2216 50.4109 50.6577 50.5558 51.0355C50.7006 51.4105 50.9123 51.7045 51.1907 51.9176C51.4691 52.1278 51.81 52.233 52.2134 52.233C52.6339 52.233 52.9847 52.1222 53.266 51.9006C53.5501 51.6761 53.7631 51.375 53.9052 50.9972C54.0501 50.6165 54.1225 50.1932 54.1225 49.7273C54.1225 49.267 54.0515 48.8523 53.9094 48.483C53.7702 48.1108 53.5586 47.8168 53.2745 47.6009C52.9933 47.3821 52.6396 47.2727 52.2134 47.2727C51.8043 47.2727 51.4606 47.3764 51.1822 47.5838C50.9038 47.7884 50.6935 48.0753 50.5515 48.4446C50.4094 48.8111 50.3384 49.2386 50.3384 49.7273ZM58.5927 53.1534C58.1779 53.1534 57.8015 53.0753 57.4634 52.919C57.1254 52.7599 56.8569 52.5312 56.658 52.233C56.4592 51.9318 56.3597 51.5682 56.3597 51.142C56.3597 50.767 56.4336 50.4631 56.5813 50.2301C56.729 49.9943 56.9265 49.8097 57.1737 49.6761C57.4208 49.5426 57.6935 49.4432 57.9918 49.3778C58.293 49.3097 58.5955 49.2557 58.8995 49.2159C59.2972 49.1648 59.6197 49.1264 59.8668 49.1009C60.1168 49.0724 60.2987 49.0256 60.4123 48.9602C60.5288 48.8949 60.587 48.7812 60.587 48.6193V48.5852C60.587 48.1648 60.4719 47.8381 60.2418 47.6051C60.0146 47.3722 59.6694 47.2557 59.2063 47.2557C58.7262 47.2557 58.3498 47.3608 58.0771 47.571C57.8043 47.7812 57.6126 48.0057 57.5018 48.2443L56.5472 47.9034C56.7177 47.5057 56.945 47.196 57.229 46.9744C57.516 46.75 57.8285 46.5937 58.1665 46.5057C58.5075 46.4148 58.8427 46.3693 59.1722 46.3693C59.3825 46.3693 59.6239 46.3949 59.8967 46.446C60.1722 46.4943 60.4379 46.5952 60.6935 46.7486C60.9521 46.902 61.1665 47.1335 61.337 47.4432C61.5075 47.7528 61.5927 48.1676 61.5927 48.6875V53H60.587V52.1136H60.5359C60.4677 52.2557 60.354 52.4077 60.195 52.5696C60.0359 52.7315 59.8242 52.8693 59.56 52.983C59.2958 53.0966 58.9734 53.1534 58.5927 53.1534ZM58.7461 52.25C59.1438 52.25 59.479 52.1719 59.7518 52.0156C60.0273 51.8594 60.2347 51.6577 60.3739 51.4105C60.516 51.1634 60.587 50.9034 60.587 50.6307V49.7102C60.5444 49.7614 60.4506 49.8082 60.3058 49.8509C60.1637 49.8906 59.9989 49.9261 59.8114 49.9574C59.6268 49.9858 59.4464 50.0114 59.2702 50.0341C59.0969 50.054 58.9563 50.071 58.8484 50.0852C58.587 50.1193 58.3427 50.1747 58.1154 50.2514C57.891 50.3253 57.7092 50.4375 57.57 50.5881C57.4336 50.7358 57.3654 50.9375 57.3654 51.1932C57.3654 51.5426 57.4947 51.8068 57.7532 51.9858C58.0146 52.1619 58.3455 52.25 58.7461 52.25ZM68.0646 47.9205L67.1612 48.1761C67.1044 48.0256 67.0206 47.8793 66.9098 47.7372C66.8018 47.5923 66.6541 47.473 66.4666 47.3793C66.2791 47.2855 66.0391 47.2386 65.7464 47.2386C65.3459 47.2386 65.0121 47.331 64.745 47.5156C64.4808 47.6974 64.3487 47.929 64.3487 48.2102C64.3487 48.4602 64.4396 48.6577 64.6214 48.8026C64.8033 48.9474 65.0874 49.0682 65.4737 49.1648L66.4453 49.4034C67.0305 49.5455 67.4666 49.7628 67.7536 50.0554C68.0405 50.3452 68.1839 50.7187 68.1839 51.1761C68.1839 51.5511 68.076 51.8864 67.8601 52.1818C67.647 52.4773 67.3487 52.7102 66.9652 52.8807C66.5817 53.0511 66.1357 53.1364 65.6271 53.1364C64.9595 53.1364 64.407 52.9915 63.9695 52.7017C63.532 52.4119 63.255 51.9886 63.1385 51.4318L64.093 51.1932C64.1839 51.5455 64.3558 51.8097 64.6087 51.9858C64.8643 52.1619 65.1982 52.25 65.6101 52.25C66.0788 52.25 66.451 52.1506 66.7266 51.9517C67.005 51.75 67.1442 51.5085 67.1442 51.2273C67.1442 51 67.0646 50.8097 66.9055 50.6562C66.7464 50.5 66.5021 50.3835 66.1726 50.3068L65.0817 50.0511C64.4822 49.9091 64.0419 49.6889 63.7607 49.3906C63.4822 49.0895 63.343 48.7131 63.343 48.2614C63.343 47.892 63.4467 47.5653 63.6541 47.2812C63.8643 46.9972 64.1499 46.7741 64.5107 46.6122C64.8743 46.4503 65.2862 46.3693 65.7464 46.3693C66.3942 46.3693 66.9027 46.5114 67.272 46.7955C67.6442 47.0795 67.9084 47.4545 68.0646 47.9205ZM72.4421 53.1364C71.8114 53.1364 71.2674 52.9972 70.81 52.7188C70.3555 52.4375 70.0046 52.0455 69.7575 51.5426C69.5131 51.0369 69.391 50.4489 69.391 49.7784C69.391 49.108 69.5131 48.517 69.7575 48.0057C70.0046 47.4915 70.3484 47.0909 70.7887 46.804C71.2319 46.5142 71.7489 46.3693 72.3398 46.3693C72.6808 46.3693 73.0174 46.4261 73.3498 46.5398C73.6822 46.6534 73.9847 46.8381 74.2575 47.0938C74.5302 47.3466 74.7475 47.6818 74.9094 48.0994C75.0714 48.517 75.1523 49.0312 75.1523 49.642V50.0682H70.1069V49.1989H74.1296C74.1296 48.8295 74.0558 48.5 73.908 48.2102C73.7631 47.9205 73.5558 47.6918 73.2859 47.5241C73.0188 47.3565 72.7035 47.2727 72.3398 47.2727C71.9393 47.2727 71.5927 47.3722 71.3001 47.571C71.0103 47.767 70.7873 48.0227 70.631 48.3381C70.4748 48.6534 70.3967 48.9915 70.3967 49.3523V49.9318C70.3967 50.4261 70.4819 50.8452 70.6523 51.1889C70.8256 51.5298 71.0657 51.7898 71.3725 51.9688C71.6793 52.1449 72.0359 52.233 72.4421 52.233C72.7063 52.233 72.945 52.196 73.158 52.1222C73.3739 52.0455 73.56 51.9318 73.7163 51.7812C73.8725 51.6278 73.9933 51.4375 74.0785 51.2102L75.0501 51.483C74.9478 51.8125 74.7759 52.1023 74.5344 52.3523C74.293 52.5994 73.9947 52.7926 73.6396 52.9318C73.2844 53.0682 72.8853 53.1364 72.4421 53.1364ZM79.1538 53.1364C78.6083 53.1364 78.1268 52.9986 77.7092 52.723C77.2915 52.4446 76.9648 52.0526 76.729 51.5469C76.4933 51.0384 76.3754 50.4375 76.3754 49.7443C76.3754 49.0568 76.4933 48.4602 76.729 47.9545C76.9648 47.4489 77.293 47.0582 77.7134 46.7827C78.1339 46.5071 78.6197 46.3693 79.1708 46.3693C79.5969 46.3693 79.9336 46.4403 80.1808 46.5824C80.4308 46.7216 80.6211 46.8807 80.7518 47.0597C80.8853 47.2358 80.989 47.3807 81.0629 47.4943H81.1481V44.2727H82.1538V53H81.1822V51.9943H81.0629C80.989 52.1136 80.8839 52.2642 80.7475 52.446C80.6112 52.625 80.4165 52.7855 80.1637 52.9276C79.9109 53.0668 79.5742 53.1364 79.1538 53.1364ZM79.2901 52.233C79.6935 52.233 80.0344 52.1278 80.3129 51.9176C80.5913 51.7045 80.8029 51.4105 80.9478 51.0355C81.0927 50.6577 81.1651 50.2216 81.1651 49.7273C81.1651 49.2386 81.0941 48.8111 80.9521 48.4446C80.81 48.0753 80.5998 47.7884 80.3214 47.5838C80.043 47.3764 79.6992 47.2727 79.2901 47.2727C78.864 47.2727 78.5089 47.3821 78.2248 47.6009C77.9435 47.8168 77.7319 48.1108 77.5898 48.483C77.4506 48.8523 77.381 49.267 77.381 49.7273C77.381 50.1932 77.4521 50.6165 77.5941 50.9972C77.739 51.375 77.9521 51.6761 78.2333 51.9006C78.5174 52.1222 78.8697 52.233 79.2901 52.233ZM92.4194 46.4545C92.3683 46.0227 92.1609 45.6875 91.7972 45.4489C91.4336 45.2102 90.9876 45.0909 90.4592 45.0909C90.0728 45.0909 89.7347 45.1534 89.445 45.2784C89.158 45.4034 88.9336 45.5753 88.7717 45.794C88.6126 46.0128 88.533 46.2614 88.533 46.5398C88.533 46.7727 88.5884 46.973 88.6992 47.1406C88.8129 47.3054 88.9577 47.4432 89.1339 47.554C89.31 47.6619 89.4947 47.7514 89.6879 47.8224C89.881 47.8906 90.0586 47.946 90.2205 47.9886L91.1069 48.2273C91.3342 48.2869 91.587 48.3693 91.8654 48.4744C92.1467 48.5795 92.4151 48.723 92.6708 48.9048C92.9293 49.0838 93.1424 49.3139 93.31 49.5952C93.4776 49.8764 93.5614 50.2216 93.5614 50.6307C93.5614 51.1023 93.4379 51.5284 93.1907 51.9091C92.9464 52.2898 92.5884 52.5923 92.1168 52.8168C91.6481 53.0412 91.0785 53.1534 90.408 53.1534C89.783 53.1534 89.2418 53.0526 88.7844 52.8509C88.3299 52.6491 87.9719 52.3679 87.7106 52.0071C87.4521 51.6463 87.3058 51.2273 87.2717 50.75H88.3626C88.391 51.0795 88.5018 51.3523 88.695 51.5682C88.891 51.7812 89.1381 51.9403 89.4364 52.0455C89.7376 52.1477 90.0614 52.1989 90.408 52.1989C90.8114 52.1989 91.1737 52.1335 91.4947 52.0028C91.8157 51.8693 92.07 51.6847 92.2575 51.4489C92.445 51.2102 92.5387 50.9318 92.5387 50.6136C92.5387 50.3239 92.4577 50.0881 92.2958 49.9062C92.1339 49.7244 91.9208 49.5767 91.6566 49.4631C91.3924 49.3494 91.1069 49.25 90.8001 49.1648L89.7262 48.858C89.0444 48.6619 88.5046 48.3821 88.1069 48.0185C87.7092 47.6548 87.5103 47.179 87.5103 46.5909C87.5103 46.1023 87.6424 45.6761 87.9066 45.3125C88.1737 44.946 88.5316 44.6619 88.9805 44.4602C89.4322 44.2557 89.9364 44.1534 90.4933 44.1534C91.0558 44.1534 91.5558 44.2543 91.9933 44.456C92.4308 44.6548 92.7773 44.9276 93.033 45.2741C93.2915 45.6207 93.4279 46.0142 93.4421 46.4545H92.4194ZM99.2876 50.3239V46.4545H100.293V53H99.2876V51.892H99.2195C99.0661 52.2244 98.8274 52.5071 98.5036 52.7401C98.1797 52.9702 97.7706 53.0852 97.2763 53.0852C96.8672 53.0852 96.5036 52.9957 96.1854 52.8168C95.8672 52.6349 95.6172 52.3622 95.4354 51.9986C95.2536 51.6321 95.1626 51.1705 95.1626 50.6136V46.4545H96.1683V50.5455C96.1683 51.0227 96.3018 51.4034 96.5689 51.6875C96.8388 51.9716 97.1825 52.1136 97.6001 52.1136C97.8501 52.1136 98.1044 52.0497 98.3629 51.9219C98.6243 51.794 98.843 51.598 99.0192 51.3338C99.1982 51.0696 99.2876 50.733 99.2876 50.3239ZM104.607 53.1364C104.061 53.1364 103.58 52.9986 103.162 52.723C102.745 52.4446 102.418 52.0526 102.182 51.5469C101.946 51.0384 101.828 50.4375 101.828 49.7443C101.828 49.0568 101.946 48.4602 102.182 47.9545C102.418 47.4489 102.746 47.0582 103.167 46.7827C103.587 46.5071 104.073 46.3693 104.624 46.3693C105.05 46.3693 105.387 46.4403 105.634 46.5824C105.884 46.7216 106.074 46.8807 106.205 47.0597C106.338 47.2358 106.442 47.3807 106.516 47.4943H106.601V44.2727H107.607V53H106.635V51.9943H106.516C106.442 52.1136 106.337 52.2642 106.201 52.446C106.064 52.625 105.87 52.7855 105.617 52.9276C105.364 53.0668 105.027 53.1364 104.607 53.1364ZM104.743 52.233C105.147 52.233 105.488 52.1278 105.766 51.9176C106.044 51.7045 106.256 51.4105 106.401 51.0355C106.546 50.6577 106.618 50.2216 106.618 49.7273C106.618 49.2386 106.547 48.8111 106.405 48.4446C106.263 48.0753 106.053 47.7884 105.775 47.5838C105.496 47.3764 105.152 47.2727 104.743 47.2727C104.317 47.2727 103.962 47.3821 103.678 47.6009C103.397 47.8168 103.185 48.1108 103.043 48.483C102.904 48.8523 102.834 49.267 102.834 49.7273C102.834 50.1932 102.905 50.6165 103.047 50.9972C103.192 51.375 103.405 51.6761 103.686 51.9006C103.971 52.1222 104.323 52.233 104.743 52.233ZM112.248 53.1364C111.657 53.1364 111.138 52.9957 110.692 52.7145C110.249 52.4332 109.902 52.0398 109.652 51.5341C109.405 51.0284 109.282 50.4375 109.282 49.7614C109.282 49.0795 109.405 48.4844 109.652 47.9759C109.902 47.4673 110.249 47.0724 110.692 46.7912C111.138 46.5099 111.657 46.3693 112.248 46.3693C112.838 46.3693 113.355 46.5099 113.799 46.7912C114.245 47.0724 114.591 47.4673 114.838 47.9759C115.088 48.4844 115.213 49.0795 115.213 49.7614C115.213 50.4375 115.088 51.0284 114.838 51.5341C114.591 52.0398 114.245 52.4332 113.799 52.7145C113.355 52.9957 112.838 53.1364 112.248 53.1364ZM112.248 52.233C112.696 52.233 113.066 52.1179 113.355 51.8878C113.645 51.6577 113.86 51.3551 113.999 50.9801C114.138 50.6051 114.208 50.1989 114.208 49.7614C114.208 49.3239 114.138 48.9162 113.999 48.5384C113.86 48.1605 113.645 47.8551 113.355 47.6222C113.066 47.3892 112.696 47.2727 112.248 47.2727C111.799 47.2727 111.429 47.3892 111.14 47.6222C110.85 47.8551 110.635 48.1605 110.496 48.5384C110.357 48.9162 110.287 49.3239 110.287 49.7614C110.287 50.1989 110.357 50.6051 110.496 50.9801C110.635 51.3551 110.85 51.6577 111.14 51.8878C111.429 52.1179 111.799 52.233 112.248 52.233ZM117.686 50.6136L117.669 49.3693H117.874L120.737 46.4545H121.982L118.93 49.5398H118.845L117.686 50.6136ZM116.749 53V44.2727H117.754V53H116.749ZM120.908 53L118.351 49.7614L119.067 49.0625L122.186 53H120.908ZM127.401 50.3239V46.4545H128.407V53H127.401V51.892H127.333C127.179 52.2244 126.941 52.5071 126.617 52.7401C126.293 52.9702 125.884 53.0852 125.39 53.0852C124.98 53.0852 124.617 52.9957 124.299 52.8168C123.98 52.6349 123.73 52.3622 123.549 51.9986C123.367 51.6321 123.276 51.1705 123.276 50.6136V46.4545H124.282V50.5455C124.282 51.0227 124.415 51.4034 124.682 51.6875C124.952 51.9716 125.296 52.1136 125.713 52.1136C125.963 52.1136 126.218 52.0497 126.476 51.9219C126.738 51.794 126.956 51.598 127.132 51.3338C127.311 51.0696 127.401 50.733 127.401 50.3239ZM138.26 47.9205L137.357 48.1761C137.3 48.0256 137.216 47.8793 137.105 47.7372C136.997 47.5923 136.849 47.473 136.662 47.3793C136.474 47.2855 136.234 47.2386 135.942 47.2386C135.541 47.2386 135.207 47.331 134.94 47.5156C134.676 47.6974 134.544 47.929 134.544 48.2102C134.544 48.4602 134.635 48.6577 134.817 48.8026C134.999 48.9474 135.283 49.0682 135.669 49.1648L136.641 49.4034C137.226 49.5455 137.662 49.7628 137.949 50.0554C138.236 50.3452 138.379 50.7187 138.379 51.1761C138.379 51.5511 138.271 51.8864 138.055 52.1818C137.842 52.4773 137.544 52.7102 137.161 52.8807C136.777 53.0511 136.331 53.1364 135.822 53.1364C135.155 53.1364 134.602 52.9915 134.165 52.7017C133.727 52.4119 133.45 51.9886 133.334 51.4318L134.288 51.1932C134.379 51.5455 134.551 51.8097 134.804 51.9858C135.06 52.1619 135.393 52.25 135.805 52.25C136.274 52.25 136.646 52.1506 136.922 51.9517C137.2 51.75 137.339 51.5085 137.339 51.2273C137.339 51 137.26 50.8097 137.101 50.6562C136.942 50.5 136.697 50.3835 136.368 50.3068L135.277 50.0511C134.678 49.9091 134.237 49.6889 133.956 49.3906C133.678 49.0895 133.538 48.7131 133.538 48.2614C133.538 47.892 133.642 47.5653 133.849 47.2812C134.06 46.9972 134.345 46.7741 134.706 46.6122C135.07 46.4503 135.482 46.3693 135.942 46.3693C136.589 46.3693 137.098 46.5114 137.467 46.7955C137.839 47.0795 138.104 47.4545 138.26 47.9205ZM142.552 53.1364C141.961 53.1364 141.443 52.9957 140.997 52.7145C140.554 52.4332 140.207 52.0398 139.957 51.5341C139.71 51.0284 139.586 50.4375 139.586 49.7614C139.586 49.0795 139.71 48.4844 139.957 47.9759C140.207 47.4673 140.554 47.0724 140.997 46.7912C141.443 46.5099 141.961 46.3693 142.552 46.3693C143.143 46.3693 143.66 46.5099 144.103 46.7912C144.549 47.0724 144.896 47.4673 145.143 47.9759C145.393 48.4844 145.518 49.0795 145.518 49.7614C145.518 50.4375 145.393 51.0284 145.143 51.5341C144.896 52.0398 144.549 52.4332 144.103 52.7145C143.66 52.9957 143.143 53.1364 142.552 53.1364ZM142.552 52.233C143.001 52.233 143.37 52.1179 143.66 51.8878C143.95 51.6577 144.164 51.3551 144.304 50.9801C144.443 50.6051 144.512 50.1989 144.512 49.7614C144.512 49.3239 144.443 48.9162 144.304 48.5384C144.164 48.1605 143.95 47.8551 143.66 47.6222C143.37 47.3892 143.001 47.2727 142.552 47.2727C142.103 47.2727 141.734 47.3892 141.444 47.6222C141.154 47.8551 140.94 48.1605 140.801 48.5384C140.662 48.9162 140.592 49.3239 140.592 49.7614C140.592 50.1989 140.662 50.6051 140.801 50.9801C140.94 51.3551 141.154 51.6577 141.444 51.8878C141.734 52.1179 142.103 52.233 142.552 52.233ZM148.059 44.2727V53H147.053V44.2727H148.059ZM155.253 46.4545L152.833 53H151.81L149.39 46.4545H150.48L152.287 51.6705H152.355L154.162 46.4545H155.253ZM159.091 53.1364C158.46 53.1364 157.916 52.9972 157.458 52.7188C157.004 52.4375 156.653 52.0455 156.406 51.5426C156.162 51.0369 156.039 50.4489 156.039 49.7784C156.039 49.108 156.162 48.517 156.406 48.0057C156.653 47.4915 156.997 47.0909 157.437 46.804C157.88 46.5142 158.397 46.3693 158.988 46.3693C159.329 46.3693 159.666 46.4261 159.998 46.5398C160.331 46.6534 160.633 46.8381 160.906 47.0938C161.179 47.3466 161.396 47.6818 161.558 48.0994C161.72 48.517 161.801 49.0312 161.801 49.642V50.0682H156.755V49.1989H160.778C160.778 48.8295 160.704 48.5 160.556 48.2102C160.412 47.9205 160.204 47.6918 159.934 47.5241C159.667 47.3565 159.352 47.2727 158.988 47.2727C158.588 47.2727 158.241 47.3722 157.949 47.571C157.659 47.767 157.436 48.0227 157.279 48.3381C157.123 48.6534 157.045 48.9915 157.045 49.3523V49.9318C157.045 50.4261 157.13 50.8452 157.301 51.1889C157.474 51.5298 157.714 51.7898 158.021 51.9688C158.328 52.1449 158.684 52.233 159.091 52.233C159.355 52.233 159.593 52.196 159.806 52.1222C160.022 52.0455 160.208 51.9318 160.365 51.7812C160.521 51.6278 160.642 51.4375 160.727 51.2102L161.699 51.483C161.596 51.8125 161.424 52.1023 161.183 52.3523C160.941 52.5994 160.643 52.7926 160.288 52.9318C159.933 53.0682 159.534 53.1364 159.091 53.1364ZM163.331 53V46.4545H164.302V47.4432H164.37C164.49 47.1193 164.706 46.8565 165.018 46.6548C165.331 46.4531 165.683 46.3523 166.075 46.3523C166.149 46.3523 166.241 46.3537 166.352 46.3565C166.463 46.3594 166.547 46.3636 166.603 46.3693V47.392C166.569 47.3835 166.491 47.3707 166.369 47.3537C166.25 47.3338 166.123 47.3239 165.99 47.3239C165.672 47.3239 165.387 47.3906 165.137 47.5241C164.89 47.6548 164.694 47.8366 164.549 48.0696C164.407 48.2997 164.336 48.5625 164.336 48.858V53H163.331ZM172.653 53L170.659 46.4545H171.716L173.131 51.4659H173.199L174.597 46.4545H175.67L177.051 51.4489H177.119L178.534 46.4545H179.591L177.597 53H176.608L175.176 47.9716H175.074L173.642 53H172.653ZM180.92 53V46.4545H181.892V47.4432H181.96C182.08 47.1193 182.295 46.8565 182.608 46.6548C182.92 46.4531 183.273 46.3523 183.665 46.3523C183.739 46.3523 183.831 46.3537 183.942 46.3565C184.053 46.3594 184.136 46.3636 184.193 46.3693V47.392C184.159 47.3835 184.081 47.3707 183.959 47.3537C183.839 47.3338 183.713 47.3239 183.58 47.3239C183.261 47.3239 182.977 47.3906 182.727 47.5241C182.48 47.6548 182.284 47.8366 182.139 48.0696C181.997 48.2997 181.926 48.5625 181.926 48.858V53H180.92ZM185.385 53V46.4545H186.391V53H185.385ZM185.897 45.3636C185.701 45.3636 185.532 45.2969 185.39 45.1634C185.25 45.0298 185.181 44.8693 185.181 44.6818C185.181 44.4943 185.25 44.3338 185.39 44.2003C185.532 44.0668 185.701 44 185.897 44C186.093 44 186.26 44.0668 186.4 44.2003C186.542 44.3338 186.613 44.4943 186.613 44.6818C186.613 44.8693 186.542 45.0298 186.4 45.1634C186.26 45.2969 186.093 45.3636 185.897 45.3636ZM191.08 46.4545V47.3068H187.688V46.4545H191.08ZM188.676 44.8864H189.682V51.125C189.682 51.4091 189.723 51.6222 189.805 51.7642C189.891 51.9034 189.999 51.9972 190.129 52.0455C190.263 52.0909 190.403 52.1136 190.551 52.1136C190.662 52.1136 190.753 52.108 190.824 52.0966C190.895 52.0824 190.952 52.071 190.994 52.0625L191.199 52.9659C191.131 52.9915 191.036 53.017 190.913 53.0426C190.791 53.071 190.636 53.0852 190.449 53.0852C190.165 53.0852 189.886 53.0241 189.614 52.902C189.344 52.7798 189.119 52.5938 188.94 52.3438C188.764 52.0938 188.676 51.7784 188.676 51.3977V44.8864ZM195.439 46.4545V47.3068H192.047V46.4545H195.439ZM193.036 44.8864H194.041V51.125C194.041 51.4091 194.082 51.6222 194.165 51.7642C194.25 51.9034 194.358 51.9972 194.489 52.0455C194.622 52.0909 194.763 52.1136 194.911 52.1136C195.021 52.1136 195.112 52.108 195.183 52.0966C195.254 52.0824 195.311 52.071 195.354 52.0625L195.558 52.9659C195.49 52.9915 195.395 53.017 195.273 53.0426C195.151 53.071 194.996 53.0852 194.808 53.0852C194.524 53.0852 194.246 53.0241 193.973 52.902C193.703 52.7798 193.479 52.5938 193.3 52.3438C193.124 52.0938 193.036 51.7784 193.036 51.3977V44.8864ZM199.626 53.1364C198.995 53.1364 198.451 52.9972 197.994 52.7188C197.539 52.4375 197.188 52.0455 196.941 51.5426C196.697 51.0369 196.575 50.4489 196.575 49.7784C196.575 49.108 196.697 48.517 196.941 48.0057C197.188 47.4915 197.532 47.0909 197.972 46.804C198.415 46.5142 198.933 46.3693 199.523 46.3693C199.864 46.3693 200.201 46.4261 200.533 46.5398C200.866 46.6534 201.168 46.8381 201.441 47.0938C201.714 47.3466 201.931 47.6818 202.093 48.0994C202.255 48.517 202.336 49.0312 202.336 49.642V50.0682H197.29V49.1989H201.313C201.313 48.8295 201.239 48.5 201.092 48.2102C200.947 47.9205 200.739 47.6918 200.469 47.5241C200.202 47.3565 199.887 47.2727 199.523 47.2727C199.123 47.2727 198.776 47.3722 198.484 47.571C198.194 47.767 197.971 48.0227 197.815 48.3381C197.658 48.6534 197.58 48.9915 197.58 49.3523V49.9318C197.58 50.4261 197.665 50.8452 197.836 51.1889C198.009 51.5298 198.249 51.7898 198.556 51.9688C198.863 52.1449 199.219 52.233 199.626 52.233C199.89 52.233 200.129 52.196 200.342 52.1222C200.558 52.0455 200.744 51.9318 200.9 51.7812C201.056 51.6278 201.177 51.4375 201.262 51.2102L202.234 51.483C202.131 51.8125 201.96 52.1023 201.718 52.3523C201.477 52.5994 201.178 52.7926 200.823 52.9318C200.468 53.0682 200.069 53.1364 199.626 53.1364ZM204.871 49.0625V53H203.866V46.4545H204.837V47.4773H204.923C205.076 47.1449 205.309 46.8778 205.621 46.6761C205.934 46.4716 206.337 46.3693 206.832 46.3693C207.275 46.3693 207.663 46.4602 207.995 46.642C208.327 46.821 208.586 47.0938 208.771 47.4602C208.955 47.8239 209.048 48.2841 209.048 48.8409V53H208.042V48.9091C208.042 48.3949 207.908 47.9943 207.641 47.7074C207.374 47.4176 207.008 47.2727 206.542 47.2727C206.221 47.2727 205.934 47.3423 205.681 47.4815C205.431 47.6207 205.234 47.8239 205.089 48.0909C204.944 48.358 204.871 48.6818 204.871 49.0625ZM214.26 53V46.4545H215.266V53H214.26ZM214.772 45.3636C214.576 45.3636 214.407 45.2969 214.265 45.1634C214.125 45.0298 214.056 44.8693 214.056 44.6818C214.056 44.4943 214.125 44.3338 214.265 44.2003C214.407 44.0668 214.576 44 214.772 44C214.968 44 215.135 44.0668 215.275 44.2003C215.417 44.3338 215.488 44.4943 215.488 44.6818C215.488 44.8693 215.417 45.0298 215.275 45.1634C215.135 45.2969 214.968 45.3636 214.772 45.3636ZM218.114 49.0625V53H217.108V46.4545H218.08V47.4773H218.165C218.318 47.1449 218.551 46.8778 218.864 46.6761C219.176 46.4716 219.58 46.3693 220.074 46.3693C220.517 46.3693 220.905 46.4602 221.237 46.642C221.57 46.821 221.828 47.0938 222.013 47.4602C222.197 47.8239 222.29 48.2841 222.29 48.8409V53H221.284V48.9091C221.284 48.3949 221.151 47.9943 220.884 47.7074C220.616 47.4176 220.25 47.2727 219.784 47.2727C219.463 47.2727 219.176 47.3423 218.923 47.4815C218.673 47.6207 218.476 47.8239 218.331 48.0909C218.186 48.358 218.114 48.6818 218.114 49.0625ZM227.639 53V44.2727H230.588C231.27 44.2727 231.829 44.3892 232.267 44.6222C232.704 44.8523 233.028 45.169 233.238 45.5724C233.449 45.9759 233.554 46.4347 233.554 46.9489C233.554 47.4631 233.449 47.919 233.238 48.3168C233.028 48.7145 232.706 49.027 232.271 49.2543C231.836 49.4787 231.281 49.5909 230.605 49.5909H228.218V48.6364H230.571C231.037 48.6364 231.412 48.5682 231.696 48.4318C231.983 48.2955 232.19 48.1023 232.318 47.8523C232.449 47.5994 232.514 47.2983 232.514 46.9489C232.514 46.5994 232.449 46.294 232.318 46.0327C232.187 45.7713 231.978 45.5696 231.691 45.4276C231.404 45.2827 231.025 45.2102 230.554 45.2102H228.696V53H227.639ZM231.747 49.0795L233.895 53H232.667L230.554 49.0795H231.747ZM239.303 50.3239V46.4545H240.309V53H239.303V51.892H239.235C239.082 52.2244 238.843 52.5071 238.519 52.7401C238.195 52.9702 237.786 53.0852 237.292 53.0852C236.883 53.0852 236.519 52.9957 236.201 52.8168C235.883 52.6349 235.633 52.3622 235.451 51.9986C235.269 51.6321 235.178 51.1705 235.178 50.6136V46.4545H236.184V50.5455C236.184 51.0227 236.317 51.4034 236.585 51.6875C236.854 51.9716 237.198 52.1136 237.616 52.1136C237.866 52.1136 238.12 52.0497 238.379 51.9219C238.64 51.794 238.859 51.598 239.035 51.3338C239.214 51.0696 239.303 50.733 239.303 50.3239ZM246.787 47.9205L245.884 48.1761C245.827 48.0256 245.743 47.8793 245.632 47.7372C245.525 47.5923 245.377 47.473 245.189 47.3793C245.002 47.2855 244.762 47.2386 244.469 47.2386C244.069 47.2386 243.735 47.331 243.468 47.5156C243.203 47.6974 243.071 47.929 243.071 48.2102C243.071 48.4602 243.162 48.6577 243.344 48.8026C243.526 48.9474 243.81 49.0682 244.196 49.1648L245.168 49.4034C245.753 49.5455 246.189 49.7628 246.476 50.0554C246.763 50.3452 246.907 50.7187 246.907 51.1761C246.907 51.5511 246.799 51.8864 246.583 52.1818C246.37 52.4773 246.071 52.7102 245.688 52.8807C245.304 53.0511 244.858 53.1364 244.35 53.1364C243.682 53.1364 243.13 52.9915 242.692 52.7017C242.255 52.4119 241.978 51.9886 241.861 51.4318L242.816 51.1932C242.907 51.5455 243.078 51.8097 243.331 51.9858C243.587 52.1619 243.921 52.25 244.333 52.25C244.801 52.25 245.174 52.1506 245.449 51.9517C245.728 51.75 245.867 51.5085 245.867 51.2273C245.867 51 245.787 50.8097 245.628 50.6562C245.469 50.5 245.225 50.3835 244.895 50.3068L243.804 50.0511C243.205 49.9091 242.765 49.6889 242.483 49.3906C242.205 49.0895 242.066 48.7131 242.066 48.2614C242.066 47.892 242.169 47.5653 242.377 47.2812C242.587 46.9972 242.873 46.7741 243.233 46.6122C243.597 46.4503 244.009 46.3693 244.469 46.3693C245.117 46.3693 245.625 46.5114 245.995 46.7955C246.367 47.0795 246.631 47.4545 246.787 47.9205ZM251.267 46.4545V47.3068H247.875V46.4545H251.267ZM248.864 44.8864H249.869V51.125C249.869 51.4091 249.911 51.6222 249.993 51.7642C250.078 51.9034 250.186 51.9972 250.317 52.0455C250.45 52.0909 250.591 52.1136 250.739 52.1136C250.849 52.1136 250.94 52.108 251.011 52.0966C251.082 52.0824 251.139 52.071 251.182 52.0625L251.386 52.9659C251.318 52.9915 251.223 53.017 251.101 53.0426C250.979 53.071 250.824 53.0852 250.636 53.0852C250.352 53.0852 250.074 53.0241 249.801 52.902C249.531 52.7798 249.307 52.5938 249.128 52.3438C248.952 52.0938 248.864 51.7784 248.864 51.3977V44.8864Z" fill="#768395"/>
<circle cx="18" cy="79" r="6" fill="#DEA584"/>
<circle cx="18" cy="79" r="5.5" stroke="white" stroke-opacity="0.14902"/>
<path d="M33.0568 83.5V74.7727H36.0057C36.6875 74.7727 37.2472 74.8892 37.6847 75.1222C38.1222 75.3523 38.446 75.669 38.6562 76.0724C38.8665 76.4759 38.9716 76.9347 38.9716 77.4489C38.9716 77.9631 38.8665 78.419 38.6562 78.8168C38.446 79.2145 38.1236 79.527 37.6889 79.7543C37.2543 79.9787 36.6989 80.0909 36.0227 80.0909H33.6364V79.1364H35.9886C36.4545 79.1364 36.8295 79.0682 37.1136 78.9318C37.4006 78.7955 37.608 78.6023 37.7358 78.3523C37.8665 78.0994 37.9318 77.7983 37.9318 77.4489C37.9318 77.0994 37.8665 76.794 37.7358 76.5327C37.6051 76.2713 37.3963 76.0696 37.1094 75.9276C36.8224 75.7827 36.4432 75.7102 35.9716 75.7102H34.1136V83.5H33.0568ZM37.1648 79.5795L39.3125 83.5H38.0852L35.9716 79.5795H37.1648ZM44.7212 80.8239V76.9545H45.7269V83.5H44.7212V82.392H44.6531C44.4996 82.7244 44.261 83.0071 43.9371 83.2401C43.6133 83.4702 43.2042 83.5852 42.7099 83.5852C42.3008 83.5852 41.9371 83.4957 41.619 83.3168C41.3008 83.1349 41.0508 82.8622 40.869 82.4986C40.6871 82.1321 40.5962 81.6705 40.5962 81.1136V76.9545H41.6019V81.0455C41.6019 81.5227 41.7354 81.9034 42.0025 82.1875C42.2724 82.4716 42.6161 82.6136 43.0337 82.6136C43.2837 82.6136 43.538 82.5497 43.7965 82.4219C44.0579 82.294 44.2766 82.098 44.4528 81.8338C44.6317 81.5696 44.7212 81.233 44.7212 80.8239ZM52.2053 78.4205L51.3018 78.6761C51.245 78.5256 51.1612 78.3793 51.0504 78.2372C50.9425 78.0923 50.7947 77.973 50.6072 77.8793C50.4197 77.7855 50.1797 77.7386 49.8871 77.7386C49.4865 77.7386 49.1527 77.831 48.8857 78.0156C48.6214 78.1974 48.4893 78.429 48.4893 78.7102C48.4893 78.9602 48.5803 79.1577 48.7621 79.3026C48.9439 79.4474 49.228 79.5682 49.6143 79.6648L50.5859 79.9034C51.1712 80.0455 51.6072 80.2628 51.8942 80.5554C52.1811 80.8452 52.3246 81.2187 52.3246 81.6761C52.3246 82.0511 52.2166 82.3864 52.0007 82.6818C51.7876 82.9773 51.4893 83.2102 51.1058 83.3807C50.7223 83.5511 50.2763 83.6364 49.7678 83.6364C49.1001 83.6364 48.5476 83.4915 48.1101 83.2017C47.6726 82.9119 47.3956 82.4886 47.2791 81.9318L48.2337 81.6932C48.3246 82.0455 48.4964 82.3097 48.7493 82.4858C49.005 82.6619 49.3388 82.75 49.7507 82.75C50.2195 82.75 50.5916 82.6506 50.8672 82.4517C51.1456 82.25 51.2848 82.0085 51.2848 81.7273C51.2848 81.5 51.2053 81.3097 51.0462 81.1562C50.8871 81 50.6428 80.8835 50.3132 80.8068L49.2223 80.5511C48.6229 80.4091 48.1825 80.1889 47.9013 79.8906C47.6229 79.5895 47.4837 79.2131 47.4837 78.7614C47.4837 78.392 47.5874 78.0653 47.7947 77.7812C48.005 77.4972 48.2905 77.2741 48.6513 77.1122C49.0149 76.9503 49.4268 76.8693 49.8871 76.8693C50.5348 76.8693 51.0433 77.0114 51.4126 77.2955C51.7848 77.5795 52.049 77.9545 52.2053 78.4205ZM56.685 76.9545V77.8068H53.293V76.9545H56.685ZM54.2816 75.3864H55.2873V81.625C55.2873 81.9091 55.3285 82.1222 55.4109 82.2642C55.4961 82.4034 55.604 82.4972 55.7347 82.5455C55.8683 82.5909 56.0089 82.6136 56.1566 82.6136C56.2674 82.6136 56.3583 82.608 56.4293 82.5966C56.5004 82.5824 56.5572 82.571 56.5998 82.5625L56.8043 83.4659C56.7362 83.4915 56.641 83.517 56.5188 83.5426C56.3967 83.571 56.2418 83.5852 56.0543 83.5852C55.7702 83.5852 55.4918 83.5241 55.2191 83.402C54.9492 83.2798 54.7248 83.0938 54.5458 82.8438C54.3697 82.5938 54.2816 82.2784 54.2816 81.8977V75.3864Z" fill="#768395"/>
<rect x="70" y="68" width="93" height="22" rx="11" fill="#388BFD" fill-opacity="0.101961"/>
<path d="M81.0568 83.5V74.7727H84.0057C84.6903 74.7727 85.25 74.8963 85.6847 75.1435C86.1222 75.3878 86.446 75.7188 86.6562 76.1364C86.8665 76.554 86.9716 77.0199 86.9716 77.5341C86.9716 78.0483 86.8665 78.5156 86.6562 78.9361C86.4489 79.3565 86.1278 79.6918 85.6932 79.9418C85.2585 80.1889 84.7017 80.3125 84.0227 80.3125H81.9091V79.375H83.9886C84.4574 79.375 84.8338 79.294 85.1179 79.1321C85.402 78.9702 85.608 78.7514 85.7358 78.4759C85.8665 78.1974 85.9318 77.8835 85.9318 77.5341C85.9318 77.1847 85.8665 76.8722 85.7358 76.5966C85.608 76.321 85.4006 76.1051 85.1136 75.9489C84.8267 75.7898 84.446 75.7102 83.9716 75.7102H82.1136V83.5H81.0568ZM91.2116 83.6364C90.581 83.6364 90.0369 83.4972 89.5795 83.2188C89.125 82.9375 88.7741 82.5455 88.527 82.0426C88.2827 81.5369 88.1605 80.9489 88.1605 80.2784C88.1605 79.608 88.2827 79.017 88.527 78.5057C88.7741 77.9915 89.1179 77.5909 89.5582 77.304C90.0014 77.0142 90.5185 76.8693 91.1094 76.8693C91.4503 76.8693 91.7869 76.9261 92.1193 77.0398C92.4517 77.1534 92.7543 77.3381 93.027 77.5938C93.2997 77.8466 93.517 78.1818 93.679 78.5994C93.8409 79.017 93.9219 79.5312 93.9219 80.142V80.5682H88.8764V79.6989H92.8991C92.8991 79.3295 92.8253 79 92.6776 78.7102C92.5327 78.4205 92.3253 78.1918 92.0554 78.0241C91.7884 77.8565 91.473 77.7727 91.1094 77.7727C90.7088 77.7727 90.3622 77.8722 90.0696 78.071C89.7798 78.267 89.5568 78.5227 89.4006 78.8381C89.2443 79.1534 89.1662 79.4915 89.1662 79.8523V80.4318C89.1662 80.9261 89.2514 81.3452 89.4219 81.6889C89.5952 82.0298 89.8352 82.2898 90.142 82.4688C90.4489 82.6449 90.8054 82.733 91.2116 82.733C91.4759 82.733 91.7145 82.696 91.9276 82.6222C92.1435 82.5455 92.3295 82.4318 92.4858 82.2812C92.642 82.1278 92.7628 81.9375 92.848 81.7102L93.8196 81.983C93.7173 82.3125 93.5455 82.6023 93.304 82.8523C93.0625 83.0994 92.7642 83.2926 92.4091 83.4318C92.054 83.5682 91.6548 83.6364 91.2116 83.6364ZM95.4517 83.5V76.9545H96.4233V77.9432H96.4915C96.6108 77.6193 96.8267 77.3565 97.1392 77.1548C97.4517 76.9531 97.804 76.8523 98.196 76.8523C98.2699 76.8523 98.3622 76.8537 98.473 76.8565C98.5838 76.8594 98.6676 76.8636 98.7244 76.8693V77.892C98.6903 77.8835 98.6122 77.8707 98.4901 77.8537C98.3707 77.8338 98.2443 77.8239 98.1108 77.8239C97.7926 77.8239 97.5085 77.8906 97.2585 78.0241C97.0114 78.1548 96.8153 78.3366 96.6705 78.5696C96.5284 78.7997 96.4574 79.0625 96.4574 79.358V83.5H95.4517ZM103.241 76.9545V77.8068H99.7131V76.9545H103.241ZM100.77 83.5V76.0511C100.77 75.6761 100.858 75.3636 101.034 75.1136C101.21 74.8636 101.439 74.6761 101.72 74.5511C102.001 74.4261 102.298 74.3636 102.611 74.3636C102.858 74.3636 103.06 74.3835 103.216 74.4233C103.372 74.4631 103.489 74.5 103.565 74.5341L103.276 75.4034C103.224 75.3864 103.153 75.3651 103.062 75.3395C102.974 75.3139 102.858 75.3011 102.713 75.3011C102.381 75.3011 102.141 75.3849 101.993 75.5526C101.848 75.7202 101.776 75.9659 101.776 76.2898V83.5H100.77ZM107.04 83.6364C106.45 83.6364 105.931 83.4957 105.485 83.2145C105.042 82.9332 104.695 82.5398 104.445 82.0341C104.198 81.5284 104.075 80.9375 104.075 80.2614C104.075 79.5795 104.198 78.9844 104.445 78.4759C104.695 77.9673 105.042 77.5724 105.485 77.2912C105.931 77.0099 106.45 76.8693 107.04 76.8693C107.631 76.8693 108.148 77.0099 108.592 77.2912C109.038 77.5724 109.384 77.9673 109.631 78.4759C109.881 78.9844 110.006 79.5795 110.006 80.2614C110.006 80.9375 109.881 81.5284 109.631 82.0341C109.384 82.5398 109.038 82.9332 108.592 83.2145C108.148 83.4957 107.631 83.6364 107.04 83.6364ZM107.04 82.733C107.489 82.733 107.859 82.6179 108.148 82.3878C108.438 82.1577 108.653 81.8551 108.792 81.4801C108.931 81.1051 109.001 80.6989 109.001 80.2614C109.001 79.8239 108.931 79.4162 108.792 79.0384C108.653 78.6605 108.438 78.3551 108.148 78.1222C107.859 77.8892 107.489 77.7727 107.04 77.7727C106.592 77.7727 106.222 77.8892 105.933 78.1222C105.643 78.3551 105.428 78.6605 105.289 79.0384C105.15 79.4162 105.08 79.8239 105.08 80.2614C105.08 80.6989 105.15 81.1051 105.289 81.4801C105.428 81.8551 105.643 82.1577 105.933 82.3878C106.222 82.6179 106.592 82.733 107.04 82.733ZM111.542 83.5V76.9545H112.513V77.9432H112.581C112.701 77.6193 112.917 77.3565 113.229 77.1548C113.542 76.9531 113.894 76.8523 114.286 76.8523C114.36 76.8523 114.452 76.8537 114.563 76.8565C114.674 76.8594 114.757 76.8636 114.814 76.8693V77.892C114.78 77.8835 114.702 77.8707 114.58 77.8537C114.461 77.8338 114.334 77.8239 114.201 77.8239C113.882 77.8239 113.598 77.8906 113.348 78.0241C113.101 78.1548 112.905 78.3366 112.76 78.5696C112.618 78.7997 112.547 79.0625 112.547 79.358V83.5H111.542ZM116.006 83.5V76.9545H116.978V77.9773H117.063C117.2 77.6278 117.42 77.3565 117.724 77.1634C118.028 76.9673 118.393 76.8693 118.819 76.8693C119.251 76.8693 119.61 76.9673 119.897 77.1634C120.187 77.3565 120.413 77.6278 120.575 77.9773H120.643C120.81 77.6392 121.062 77.3707 121.397 77.1719C121.732 76.9702 122.134 76.8693 122.603 76.8693C123.188 76.8693 123.667 77.0526 124.039 77.419C124.411 77.7827 124.597 78.3494 124.597 79.1193V83.5H123.592V79.1193C123.592 78.6364 123.46 78.2912 123.195 78.0838C122.931 77.8764 122.62 77.7727 122.262 77.7727C121.802 77.7727 121.445 77.9119 121.192 78.1903C120.94 78.4659 120.813 78.8153 120.813 79.2386V83.5H119.79V79.017C119.79 78.6449 119.67 78.3452 119.428 78.1179C119.187 77.8878 118.876 77.7727 118.495 77.7727C118.234 77.7727 117.989 77.8423 117.762 77.9815C117.538 78.1207 117.356 78.3139 117.217 78.5611C117.08 78.8054 117.012 79.0881 117.012 79.4091V83.5H116.006ZM128.362 83.6534C127.947 83.6534 127.571 83.5753 127.233 83.419C126.895 83.2599 126.626 83.0312 126.428 82.733C126.229 82.4318 126.129 82.0682 126.129 81.642C126.129 81.267 126.203 80.9631 126.351 80.7301C126.499 80.4943 126.696 80.3097 126.943 80.1761C127.19 80.0426 127.463 79.9432 127.761 79.8778C128.063 79.8097 128.365 79.7557 128.669 79.7159C129.067 79.6648 129.389 79.6264 129.636 79.6009C129.886 79.5724 130.068 79.5256 130.182 79.4602C130.298 79.3949 130.357 79.2812 130.357 79.1193V79.0852C130.357 78.6648 130.241 78.3381 130.011 78.1051C129.784 77.8722 129.439 77.7557 128.976 77.7557C128.496 77.7557 128.119 77.8608 127.847 78.071C127.574 78.2812 127.382 78.5057 127.271 78.7443L126.317 78.4034C126.487 78.0057 126.714 77.696 126.999 77.4744C127.286 77.25 127.598 77.0937 127.936 77.0057C128.277 76.9148 128.612 76.8693 128.942 76.8693C129.152 76.8693 129.393 76.8949 129.666 76.946C129.942 76.9943 130.207 77.0952 130.463 77.2486C130.722 77.402 130.936 77.6335 131.107 77.9432C131.277 78.2528 131.362 78.6676 131.362 79.1875V83.5H130.357V82.6136H130.305C130.237 82.7557 130.124 82.9077 129.964 83.0696C129.805 83.2315 129.594 83.3693 129.33 83.483C129.065 83.5966 128.743 83.6534 128.362 83.6534ZM128.516 82.75C128.913 82.75 129.249 82.6719 129.521 82.5156C129.797 82.3594 130.004 82.1577 130.143 81.9105C130.286 81.6634 130.357 81.4034 130.357 81.1307V80.2102C130.314 80.2614 130.22 80.3082 130.075 80.3509C129.933 80.3906 129.768 80.4261 129.581 80.4574C129.396 80.4858 129.216 80.5114 129.04 80.5341C128.866 80.554 128.726 80.571 128.618 80.5852C128.357 80.6193 128.112 80.6747 127.885 80.7514C127.661 80.8253 127.479 80.9375 127.339 81.0881C127.203 81.2358 127.135 81.4375 127.135 81.6932C127.135 82.0426 127.264 82.3068 127.523 82.4858C127.784 82.6619 128.115 82.75 128.516 82.75ZM134.203 79.5625V83.5H133.198V76.9545H134.169V77.9773H134.255C134.408 77.6449 134.641 77.3778 134.953 77.1761C135.266 76.9716 135.669 76.8693 136.164 76.8693C136.607 76.8693 136.995 76.9602 137.327 77.142C137.659 77.321 137.918 77.5938 138.103 77.9602C138.287 78.3239 138.38 78.7841 138.38 79.3409V83.5H137.374V79.4091C137.374 78.8949 137.24 78.4943 136.973 78.2074C136.706 77.9176 136.34 77.7727 135.874 77.7727C135.553 77.7727 135.266 77.8423 135.013 77.9815C134.763 78.1207 134.566 78.3239 134.421 78.5909C134.276 78.858 134.203 79.1818 134.203 79.5625ZM142.876 83.6364C142.263 83.6364 141.734 83.4915 141.291 83.2017C140.848 82.9119 140.507 82.5128 140.268 82.0043C140.03 81.4957 139.911 80.9148 139.911 80.2614C139.911 79.5966 140.033 79.0099 140.277 78.5014C140.524 77.9901 140.868 77.5909 141.308 77.304C141.751 77.0142 142.268 76.8693 142.859 76.8693C143.32 76.8693 143.734 76.9545 144.104 77.125C144.473 77.2955 144.776 77.5341 145.011 77.8409C145.247 78.1477 145.393 78.5057 145.45 78.9148H144.445C144.368 78.6165 144.197 78.3523 143.933 78.1222C143.672 77.8892 143.32 77.7727 142.876 77.7727C142.484 77.7727 142.141 77.875 141.845 78.0795C141.553 78.2812 141.324 78.5668 141.159 78.9361C140.997 79.3026 140.916 79.733 140.916 80.2273C140.916 80.733 140.996 81.1733 141.155 81.5483C141.317 81.9233 141.544 82.2145 141.837 82.4219C142.132 82.6293 142.479 82.733 142.876 82.733C143.138 82.733 143.375 82.6875 143.588 82.5966C143.801 82.5057 143.982 82.375 144.129 82.2045C144.277 82.0341 144.382 81.8295 144.445 81.5909H145.45C145.393 81.9773 145.253 82.3253 145.028 82.6349C144.807 82.9418 144.513 83.1861 144.146 83.3679C143.783 83.5469 143.359 83.6364 142.876 83.6364ZM149.665 83.6364C149.034 83.6364 148.49 83.4972 148.033 83.2188C147.578 82.9375 147.227 82.5455 146.98 82.0426C146.736 81.5369 146.614 80.9489 146.614 80.2784C146.614 79.608 146.736 79.017 146.98 78.5057C147.227 77.9915 147.571 77.5909 148.011 77.304C148.455 77.0142 148.972 76.8693 149.562 76.8693C149.903 76.8693 150.24 76.9261 150.572 77.0398C150.905 77.1534 151.207 77.3381 151.48 77.5938C151.753 77.8466 151.97 78.1818 152.132 78.5994C152.294 79.017 152.375 79.5312 152.375 80.142V80.5682H147.33V79.6989H151.352C151.352 79.3295 151.278 79 151.131 78.7102C150.986 78.4205 150.778 78.1918 150.509 78.0241C150.241 77.8565 149.926 77.7727 149.562 77.7727C149.162 77.7727 148.815 77.8722 148.523 78.071C148.233 78.267 148.01 78.5227 147.854 78.8381C147.697 79.1534 147.619 79.4915 147.619 79.8523V80.4318C147.619 80.9261 147.705 81.3452 147.875 81.6889C148.048 82.0298 148.288 82.2898 148.595 82.4688C148.902 82.6449 149.259 82.733 149.665 82.733C149.929 82.733 150.168 82.696 150.381 82.6222C150.597 82.5455 150.783 82.4318 150.939 82.2812C151.095 82.1278 151.216 81.9375 151.301 81.7102L152.273 81.983C152.17 82.3125 151.999 82.6023 151.757 82.8523C151.516 83.0994 151.217 83.2926 150.862 83.4318C150.507 83.5682 150.108 83.6364 149.665 83.6364Z" fill="#4493F8"/>
</svg>
